<?xml version="1.0" encoding="UTF-8" standalone="no"?><!DOCTYPE svg PUBLIC "-//W3C//DTD SVG 1.1//EN" "http://www.w3.org/Graphics/SVG/1.1/DTD/svg11.dtd"><svg width="100%" height="100%" viewBox="0 0 32 32" version="1.1" xmlns="http://www.w3.org/2000/svg" xmlns:xlink="http://www.w3.org/1999/xlink" xml:space="preserve" xmlns:serif="http://www.serif.com/" style="fill-rule:evenodd;clip-rule:evenodd;stroke-linejoin:round;stroke-miterlimit:1.41421;">
<metadata>
<rdf:RDF xmlns:cc="http://web.resource.org/cc/"
         xmlns:rdf="http://www.w3.org/1999/02/22-rdf-syntax-ns#"
         xmlns:dc = "http://purl.org/dc/elements/1.1/"
         >

     <rdf:Description rdf:about="">
       <dc:title>Mutant Standard emoji v0.2.3</dc:title>
     </rdf:Description>

    <cc:work rdf:about="">
        <cc:license rdf:resource="http://creativecommons.org/licenses/by-nc-sa/4.0/"/>
        <cc:attributionName>Dzuk</cc:attributionName>
        <cc:attributionURL>http://mutant.tech/</cc:attributionURL>
    </cc:work>

</rdf:RDF>
</metadata>
<rect id="earth_pacific" x="0" y="0" width="32" height="32" style="fill:none;"/><clipPath id="_clip1"><rect x="0" y="0" width="32" height="32"/></clipPath><g clip-path="url(#_clip1)"><g id="outline"><circle cx="16" cy="16" r="16"/></g><g id="emoji"><circle cx="16" cy="16" r="14" style="fill:#5462cb;"/><clipPath id="_clip2"><circle cx="16" cy="16" r="14"/></clipPath><g clip-path="url(#_clip2)"><path d="M8,29l-2,0l2,-4l1,1l-1,2l0,1Zm-2,-5l0,2l-6,0l0,-8l6,6Zm5,0l-1,1l-1,0l0,-1l-1,0l0,-1l2,1l0,-1l1,0l0,1Zm-4,-4l1,0l0,1l-1,0l0,-1Zm3,0l1,0l0,1l-1,0l0,-1Zm-4,1l-1,0l-2,-1l0,-1l2,1l1,0l0,1Zm13,-2l1,0l0,1l-1,0l0,-1Zm-14,-1l1,0l0,1l-1,0l0,-1Zm2,-2l1,0l0,1l-1,0l0,-1Zm-4,-5l1,0l0,4l-2,2l1,-2l0,-4Zm9,4l1,0l0,1l-1,0l0,-1Zm2,-2l5,0l0,1l-1,0l-4,-1Zm-1,-1l1,0l0,1l-1,0l0,-1Zm-3,-1l1,0l0,1l1,0l0,1l-1,0l0,-1l-1,0l0,-1Zm-2,0l1,0l0,1l-1,0l0,-1Zm1,-6l0,2l-1,1l0,-3l-3,0l0,-3l7,0l0,2l-2,1l-1,0Zm13,0l-2,0l1,-1l-3,0l0,-2l7,0l3,4l-3,0l-3,-1Z" style="fill:#27b85b;"/></g></g></g></svg>