<?xml version="1.0" encoding="UTF-8" standalone="no"?><!DOCTYPE svg PUBLIC "-//W3C//DTD SVG 1.1//EN" "http://www.w3.org/Graphics/SVG/1.1/DTD/svg11.dtd"><svg width="100%" height="100%" viewBox="0 0 32 32" version="1.1" xmlns="http://www.w3.org/2000/svg" xmlns:xlink="http://www.w3.org/1999/xlink" xml:space="preserve" style="fill-rule:evenodd;clip-rule:evenodd;stroke-linejoin:round;stroke-miterlimit:1.41421;">
<metadata>
<rdf:RDF xmlns:cc="http://web.resource.org/cc/"
         xmlns:rdf="http://www.w3.org/1999/02/22-rdf-syntax-ns#"
         xmlns:dc = "http://purl.org/dc/elements/1.1/"
         >

     <rdf:Description rdf:about="">
       <dc:title>Mutant Standard emoji v0.2.3</dc:title>
     </rdf:Description>

    <cc:work rdf:about="">
        <cc:license rdf:resource="http://creativecommons.org/licenses/by-nc-sa/4.0/"/>
        <cc:attributionName>Dzuk</cc:attributionName>
        <cc:attributionURL>http://mutant.tech/</cc:attributionURL>
    </cc:work>

</rdf:RDF>
</metadata>
<rect id="cresent" x="0" y="0" width="32" height="32" style="fill:none;"/><g id="outline"><path d="M18.17,0.001c0.339,0.005 0.676,0.018 1.014,0.042c0.773,0.057 1.542,0.17 2.298,0.338c1.422,0.316 2.799,0.829 4.082,1.519c0.608,0.327 1.192,0.696 1.755,1.096l0.129,0.093l0.127,0.095l2.318,1.752l-1.582,2.809c-0.93,-0.369 -1.856,-0.749 -2.79,-1.107c-0.405,-0.15 -0.817,-0.278 -1.238,-0.376c-0.998,-0.233 -2.032,-0.311 -3.054,-0.233c-1.355,0.104 -2.684,0.486 -3.885,1.12c-1.421,0.75 -2.653,1.844 -3.568,3.164c-0.67,0.966 -1.168,2.05 -1.461,3.188c-0.274,1.065 -0.369,2.174 -0.286,3.27c0.073,0.95 0.281,1.889 0.62,2.779c0.402,1.055 0.984,2.039 1.712,2.9c0.777,0.919 1.72,1.698 2.77,2.285c1.109,0.62 2.334,1.024 3.594,1.184c1.105,0.141 2.235,0.098 3.326,-0.13c0.462,-0.096 0.915,-0.228 1.36,-0.387l0.11,-0.04l0.109,-0.042l2.681,-1.065l1.582,2.809c-0.815,0.616 -1.625,1.239 -2.445,1.847c-0.43,0.311 -0.871,0.606 -1.328,0.875c-0.969,0.572 -1.998,1.042 -3.065,1.397c-2.528,0.842 -5.262,1.036 -7.884,0.567c-1.485,-0.266 -2.931,-0.744 -4.281,-1.415c-1.438,-0.715 -2.765,-1.647 -3.927,-2.755c-1.254,-1.195 -2.312,-2.593 -3.121,-4.125c-0.89,-1.686 -1.473,-3.529 -1.713,-5.42c-0.256,-2.01 -0.13,-4.068 0.375,-6.031c0.534,-2.073 1.491,-4.031 2.793,-5.729c1.366,-1.781 3.105,-3.27 5.077,-4.342c1.496,-0.812 3.121,-1.383 4.797,-1.683c0.799,-0.143 1.606,-0.219 2.417,-0.245c0.194,-0.004 0.388,-0.005 0.582,-0.004Z" style="fill-rule:nonzero;"/></g><g id="emoji"><path d="M26.488,27.131c-2.356,1.8 -5.298,2.869 -8.488,2.869c-7.727,0 -14,-6.273 -14,-14c0,-7.727 6.273,-14 14,-14c3.19,0 6.132,1.069 8.488,2.869c-1.387,-0.561 -2.902,-0.869 -4.488,-0.869c-6.623,0 -12,5.377 -12,12c0,6.623 5.377,12 12,12c1.586,0 3.101,-0.308 4.488,-0.869Z" style="fill:#fbc546;"/></g></svg>