<?xml version="1.0" encoding="UTF-8" standalone="no"?><!DOCTYPE svg PUBLIC "-//W3C//DTD SVG 1.1//EN" "http://www.w3.org/Graphics/SVG/1.1/DTD/svg11.dtd"><svg width="100%" height="100%" viewBox="0 0 32 32" version="1.1" xmlns="http://www.w3.org/2000/svg" xmlns:xlink="http://www.w3.org/1999/xlink" xml:space="preserve" style="fill-rule:evenodd;clip-rule:evenodd;stroke-linejoin:round;stroke-miterlimit:1.41421;">
<metadata>
<rdf:RDF xmlns:cc="http://web.resource.org/cc/"
         xmlns:rdf="http://www.w3.org/1999/02/22-rdf-syntax-ns#"
         xmlns:dc = "http://purl.org/dc/elements/1.1/"
         >

     <rdf:Description rdf:about="">
       <dc:title>Mutant Standard emoji v0.2.3</dc:title>
     </rdf:Description>

    <cc:work rdf:about="">
        <cc:license rdf:resource="http://creativecommons.org/licenses/by-nc-sa/4.0/"/>
        <cc:attributionName>Dzuk</cc:attributionName>
        <cc:attributionURL>http://mutant.tech/</cc:attributionURL>
    </cc:work>

</rdf:RDF>
</metadata>
<rect id="moon_crescent_face_left" x="0" y="0" width="32" height="32" style="fill:none;"/><clipPath id="_clip1"><rect x="0" y="0" width="32" height="32"/></clipPath><g clip-path="url(#_clip1)"><g id="outline"><path d="M19.323,19c0.032,0.151 0.068,0.3 0.106,0.45c0.254,0.984 0.607,1.94 1.066,2.848c0.737,1.459 1.732,2.786 2.924,3.906c0.559,0.525 1.161,1.001 1.796,1.431l2.063,1.373l-0.226,1.562c-0.847,0.261 -1.692,0.53 -2.541,0.784c-0.579,0.167 -1.164,0.306 -1.757,0.409c-1.379,0.24 -2.79,0.298 -4.185,0.174c-1.518,-0.135 -3.016,-0.489 -4.434,-1.048c-1.917,-0.757 -3.681,-1.887 -5.172,-3.309c-1.63,-1.554 -2.927,-3.449 -3.779,-5.533c-0.679,-1.661 -1.072,-3.434 -1.163,-5.226c-0.099,-1.947 0.156,-3.91 0.759,-5.764c0.639,-1.967 1.664,-3.802 2.999,-5.381c1.409,-1.666 3.157,-3.039 5.111,-4.011c1.41,-0.701 2.924,-1.191 4.478,-1.449c0.735,-0.122 1.476,-0.187 2.22,-0.211c0.19,-0.003 0.379,-0.005 0.568,-0.004c0.77,0.011 1.537,0.069 2.299,0.187c0.744,0.115 1.477,0.285 2.199,0.501l2.397,0.741l0.227,1.554l-2.126,1.424c-0.584,0.402 -1.14,0.838 -1.659,1.32c-1.257,1.163 -2.298,2.555 -3.056,4.091c-0.291,0.589 -0.54,1.199 -0.745,1.823c-0.094,0.286 -0.176,0.576 -0.253,0.868l-0.02,0.08l4.706,4.706l-0.706,1.704l-4.096,0Z"/></g><g id="emoji"><path d="M17.031,17c0.319,5.164 3.092,9.668 7.165,12.359c-1.325,0.416 -2.734,0.641 -4.196,0.641c-7.727,0 -14,-6.273 -14,-14c0,-7.727 6.273,-14 14,-14c1.462,0 2.871,0.225 4.196,0.641c-3.602,2.38 -6.188,6.178 -6.958,10.597l3.762,3.762l-3.969,0Z" style="fill:#d0e3e6;"/><path d="M15,11.5c0,-0.398 -0.158,-0.779 -0.439,-1.061c-0.282,-0.281 -0.663,-0.439 -1.061,-0.439c-0.398,0 -0.779,0.158 -1.061,0.439c-0.281,0.282 -0.439,0.663 -0.439,1.061c0,0.633 0,1.367 0,2c0,0.398 0.158,0.779 0.439,1.061c0.282,0.281 0.663,0.439 1.061,0.439c0.398,0 0.779,-0.158 1.061,-0.439c0.281,-0.282 0.439,-0.663 0.439,-1.061c0,-0.633 0,-1.367 0,-2Z"/><path d="M12.052,19.001l0.053,0.004l0.051,0.007l0.052,0.01l0.051,0.012l0.05,0.015l0.049,0.017l0.049,0.02l0.047,0.023l0.046,0.025l0.045,0.027l0.043,0.03l0.041,0.032l0.04,0.034l0.038,0.036l0.824,0.824l0.058,0.056l0.054,0.051l0.056,0.049l0.057,0.048l0.057,0.046l0.059,0.044l0.06,0.043l0.061,0.042l0.061,0.04l0.063,0.038l0.063,0.037l0.064,0.035l0.065,0.034l0.066,0.032l0.067,0.031l0.067,0.029l0.068,0.027l0.068,0.025l0.07,0.024l0.069,0.022l0.071,0.021l0.071,0.018l0.071,0.017l0.072,0.016l0.072,0.013l0.073,0.012l0.073,0.01l0.073,0.008l0.074,0.007l0.074,0.004l0.074,0.003l0.081,0.001l3.337,0l0.052,0.001l0.053,0.004l0.051,0.007l0.052,0.01l0.051,0.012l0.05,0.015l0.049,0.017l0.049,0.02l0.047,0.023l0.046,0.025l0.045,0.027l0.043,0.03l0.041,0.032l0.04,0.034l0.038,0.036l0.036,0.038l0.034,0.04l0.032,0.041l0.03,0.043l0.027,0.045l0.025,0.046l0.023,0.047l0.02,0.049l0.017,0.049l0.015,0.05l0.012,0.051l0.01,0.052l0.007,0.051l0.004,0.053l0.001,0.052l-0.001,0.052l-0.004,0.053l-0.007,0.051l-0.01,0.052l-0.012,0.051l-0.015,0.05l-0.017,0.049l-0.02,0.049l-0.023,0.047l-0.025,0.046l-0.027,0.045l-0.03,0.043l-0.032,0.041l-0.034,0.04l-0.036,0.038l-0.038,0.036l-0.04,0.034l-0.041,0.032l-0.043,0.03l-0.045,0.027l-0.046,0.025l-0.047,0.023l-0.049,0.02l-0.049,0.017l-0.05,0.015l-0.051,0.012l-0.052,0.01l-0.051,0.007l-0.053,0.004l-0.052,0.001l-3.349,0l-0.118,-0.001l-0.124,-0.005l-0.123,-0.008l-0.123,-0.01l-0.123,-0.014l-0.121,-0.017l-0.122,-0.019l-0.12,-0.023l-0.12,-0.025l-0.119,-0.029l-0.118,-0.031l-0.117,-0.034l-0.117,-0.037l-0.115,-0.04l-0.114,-0.042l-0.114,-0.046l-0.112,-0.048l-0.111,-0.05l-0.109,-0.054l-0.109,-0.056l-0.107,-0.059l-0.105,-0.061l-0.104,-0.064l-0.103,-0.067l-0.101,-0.069l-0.1,-0.072l-0.098,-0.074l-0.096,-0.077l-0.094,-0.08l-0.093,-0.081l-0.091,-0.085l-0.084,-0.082l-0.833,-0.833l-0.036,-0.038l-0.034,-0.04l-0.032,-0.041l-0.03,-0.043l-0.027,-0.045l-0.025,-0.046l-0.023,-0.047l-0.02,-0.049l-0.017,-0.049l-0.015,-0.05l-0.012,-0.051l-0.01,-0.052l-0.007,-0.051l-0.004,-0.053l-0.001,-0.052l0.001,-0.052l0.004,-0.053l0.007,-0.051l0.01,-0.052l0.012,-0.051l0.015,-0.05l0.017,-0.049l0.02,-0.049l0.023,-0.047l0.025,-0.046l0.027,-0.045l0.03,-0.043l0.032,-0.041l0.034,-0.04l0.036,-0.038l0.038,-0.036l0.04,-0.034l0.041,-0.032l0.043,-0.03l0.045,-0.027l0.046,-0.025l0.047,-0.023l0.049,-0.02l0.049,-0.017l0.05,-0.015l0.051,-0.012l0.052,-0.01l0.052,-0.007l0.052,-0.004l0.052,-0.001l0.052,0.001Z"/></g></g></svg>