<?xml version="1.0" encoding="UTF-8" standalone="no"?>
<!DOCTYPE svg PUBLIC "-//W3C//DTD SVG 1.1//EN" "http://www.w3.org/Graphics/SVG/1.1/DTD/svg11.dtd">
<svg width="100%" height="100%" viewBox="0 0 32 32" version="1.1" xmlns="http://www.w3.org/2000/svg" xmlns:xlink="http://www.w3.org/1999/xlink" xml:space="preserve" xmlns:serif="http://www.serif.com/" style="fill-rule:evenodd;clip-rule:evenodd;stroke-linejoin:round;stroke-miterlimit:1.41421;">
<metadata>
<rdf:RDF xmlns:cc="http://web.resource.org/cc/"
         xmlns:rdf="http://www.w3.org/1999/02/22-rdf-syntax-ns#"
         xmlns:dc = "http://purl.org/dc/elements/1.1/"
         >

     <rdf:Description rdf:about="">
       <dc:title>Mutant Standard emoji v0.2.3</dc:title>
     </rdf:Description>

    <cc:work rdf:about="">
        <cc:license rdf:resource="http://creativecommons.org/licenses/by-nc-sa/4.0/"/>
        <cc:attributionName>Dzuk</cc:attributionName>
        <cc:attributionURL>http://mutant.tech/</cc:attributionURL>
    </cc:work>

</rdf:RDF>
</metadata>

    <rect id="lesbian_flag" x="0" y="0" width="32" height="32" style="fill:none;"/>
    <clipPath id="_clip1">
        <rect x="0" y="0" width="32" height="32"/>
    </clipPath>
    <g clip-path="url(#_clip1)">
        <g id="outline">
            <rect x="0" y="4" width="32" height="24"/>
        </g>
        <g id="emoji">
            <rect x="2" y="6" width="28" height="20" style="fill:#782196;"/>
            <path d="M16,24l10,-16l-20,0l10,16Z"/>
            <path d="M15,20l0,-7l-1.333,0c-1.283,0 -1.334,2 -1.334,2c0,0 -1.333,-0.948 -1.333,-3c0,-2.052 1.333,-3 1.333,-3c0,0 0.053,2 1.334,2l1.333,0l0,-1l2,0l0,1l1.333,0c1.281,0 1.334,-2 1.334,-2c0,0 1.333,0.948 1.333,3c0,2.052 -1.333,3 -1.333,3c0,0 -0.051,-2 -1.334,-2l-1.333,0l0,7l-2,0Z" style="fill:#fff;"/>
        </g>
    </g>
</svg>
