<?xml version="1.0" encoding="UTF-8" standalone="no"?><!DOCTYPE svg PUBLIC "-//W3C//DTD SVG 1.1//EN" "http://www.w3.org/Graphics/SVG/1.1/DTD/svg11.dtd"><svg width="100%" height="100%" viewBox="0 0 32 32" version="1.1" xmlns="http://www.w3.org/2000/svg" xmlns:xlink="http://www.w3.org/1999/xlink" xml:space="preserve" xmlns:serif="http://www.serif.com/" style="fill-rule:evenodd;clip-rule:evenodd;stroke-linecap:round;stroke-linejoin:round;stroke-miterlimit:1.5;">
<metadata>
<rdf:RDF xmlns:cc="http://web.resource.org/cc/"
         xmlns:rdf="http://www.w3.org/1999/02/22-rdf-syntax-ns#"
         xmlns:dc = "http://purl.org/dc/elements/1.1/"
         >

     <rdf:Description rdf:about="">
       <dc:title>Mutant Standard emoji v0.2.3</dc:title>
     </rdf:Description>

    <cc:work rdf:about="">
        <cc:license rdf:resource="http://creativecommons.org/licenses/by-nc-sa/4.0/"/>
        <cc:attributionName>Dzuk</cc:attributionName>
        <cc:attributionURL>http://mutant.tech/</cc:attributionURL>
    </cc:work>

</rdf:RDF>
</metadata>
<rect id="coffee" x="0" y="0" width="32" height="32" style="fill:none;"/><ellipse cx="16" cy="22" rx="14" ry="4" style="fill:#b3b3b3;"/><g id="outline"><path d="M6,10.904c0,7.24 4.477,13.11 10,13.11c5.523,0 10,-5.87 10,-13.11l-10,0l-10,0Z" style="fill:#e1e1e1;stroke:#000;stroke-width:4px;"/><ellipse cx="16" cy="10.904" rx="10" ry="3.904" style="fill:#e1e1e1;stroke:#000;stroke-width:4px;"/><ellipse cx="16" cy="22" rx="14" ry="4" style="fill:#e1e1e1;stroke:#000;stroke-width:4px;"/><path d="M23,14c0,0 1.124,-0.562 2.529,-1.264c1.017,-0.51 2.253,-0.221 2.939,0.686c0.687,0.908 0.628,2.176 -0.139,3.016c-0.301,0.304 -0.619,0.617 -0.972,0.924c-3.063,2.67 -8.357,2.638 -8.357,2.638" style="fill:none;stroke:#000;stroke-width:6px;stroke-linecap:butt;"/></g><g id="emoji"><ellipse cx="16" cy="22" rx="14" ry="4" style="fill:#b0b0b0;"/><ellipse cx="16" cy="22" rx="9.001" ry="2.572" style="fill:#959595;"/><path d="M23,14c0,0 1.124,-0.562 2.529,-1.264c1.017,-0.51 2.253,-0.221 2.939,0.686c0.687,0.908 0.628,2.176 -0.139,3.016c-0.301,0.304 -0.619,0.617 -0.972,0.924c-3.063,2.67 -8.357,2.638 -8.357,2.638" style="fill:none;stroke:#e1e1e1;stroke-width:2px;stroke-linecap:butt;"/><path d="M6,10.904c0,7.24 4.477,13.11 10,13.11c5.523,0 10,-5.87 10,-13.11l-10,0l-10,0Z" style="fill:#e1e1e1;"/><ellipse cx="16" cy="10.904" rx="10" ry="3.904" style="fill:#b3b3b3;"/><clipPath id="_clip1"><ellipse cx="16" cy="10.904" rx="10" ry="3.904"/></clipPath><g clip-path="url(#_clip1)"><ellipse cx="16" cy="12.877" rx="8" ry="3.123" style="fill:#452e2a;"/></g></g></svg>