<?xml version="1.0" encoding="UTF-8" standalone="no"?><!DOCTYPE svg PUBLIC "-//W3C//DTD SVG 1.1//EN" "http://www.w3.org/Graphics/SVG/1.1/DTD/svg11.dtd"><svg width="100%" height="100%" viewBox="0 0 32 32" version="1.1" xmlns="http://www.w3.org/2000/svg" xmlns:xlink="http://www.w3.org/1999/xlink" xml:space="preserve" xmlns:serif="http://www.serif.com/" style="fill-rule:evenodd;clip-rule:evenodd;stroke-linecap:round;stroke-linejoin:round;stroke-miterlimit:1.5;">
<metadata>
<rdf:RDF xmlns:cc="http://web.resource.org/cc/"
         xmlns:rdf="http://www.w3.org/1999/02/22-rdf-syntax-ns#"
         xmlns:dc = "http://purl.org/dc/elements/1.1/"
         >

     <rdf:Description rdf:about="">
       <dc:title>Mutant Standard emoji v0.2.3</dc:title>
     </rdf:Description>

    <cc:work rdf:about="">
        <cc:license rdf:resource="http://creativecommons.org/licenses/by-nc-sa/4.0/"/>
        <cc:attributionName>Dzuk</cc:attributionName>
        <cc:attributionURL>http://mutant.tech/</cc:attributionURL>
    </cc:work>

</rdf:RDF>
</metadata>
<rect id="matcha_tea" x="0" y="0" width="32" height="32" style="fill:none;"/><clipPath id="_clip1"><rect x="0" y="0" width="32" height="32"/></clipPath><g clip-path="url(#_clip1)"><g id="outline"><ellipse cx="16" cy="10" rx="14" ry="5" style="fill:none;stroke:#000;stroke-width:4px;"/><path d="M2,10l28,0c0,2.784 -0.63,15.943 -14,16c-13.37,-0.057 -14,-13.216 -14,-16Z" style="fill:none;stroke:#000;stroke-width:4px;"/><ellipse cx="16" cy="26.143" rx="8" ry="2.857" style="fill:none;stroke:#000;stroke-width:4px;"/><rect x="6" y="22" width="20" height="4"/></g><g id="emoji"><ellipse cx="16" cy="26.143" rx="8" ry="2.857" style="fill:#4b4a56;"/><rect x="8" y="22" width="16" height="4" style="fill:#4b4a56;"/><path d="M2,10l28,0c0,2.784 -0.63,15.943 -14,16c-13.37,-0.057 -14,-13.216 -14,-16Z" style="fill:#6e6c7e;"/><ellipse cx="16" cy="10" rx="14" ry="5" style="fill:#4b4a56;"/><clipPath id="_clip2"><ellipse cx="16" cy="10" rx="14" ry="5"/></clipPath><g clip-path="url(#_clip2)"><ellipse cx="16" cy="13.214" rx="11.8" ry="4.214" style="fill:#abe572;"/></g></g></g></svg>