<?xml version="1.0" encoding="UTF-8" standalone="no"?><!DOCTYPE svg PUBLIC "-//W3C//DTD SVG 1.1//EN" "http://www.w3.org/Graphics/SVG/1.1/DTD/svg11.dtd"><svg width="100%" height="100%" viewBox="0 0 32 32" version="1.1" xmlns="http://www.w3.org/2000/svg" xmlns:xlink="http://www.w3.org/1999/xlink" xml:space="preserve" style="fill-rule:evenodd;clip-rule:evenodd;stroke-linejoin:round;stroke-miterlimit:1.41421;">
<metadata>
<rdf:RDF xmlns:cc="http://web.resource.org/cc/"
         xmlns:rdf="http://www.w3.org/1999/02/22-rdf-syntax-ns#"
         xmlns:dc = "http://purl.org/dc/elements/1.1/"
         >

     <rdf:Description rdf:about="">
       <dc:title>Mutant Standard emoji v0.2.3</dc:title>
     </rdf:Description>

    <cc:work rdf:about="">
        <cc:license rdf:resource="http://creativecommons.org/licenses/by-nc-sa/4.0/"/>
        <cc:attributionName>Dzuk</cc:attributionName>
        <cc:attributionURL>http://mutant.tech/</cc:attributionURL>
    </cc:work>

</rdf:RDF>
</metadata>
<rect id="angry_horns" x="0" y="0" width="32" height="32" style="fill:none;"/><g id="outline"><path d="M24.643,7.29c0.488,-0.283 0.932,-0.642 1.307,-1.066c0.31,-0.348 0.565,-0.736 0.777,-1.151l1.652,-3.302c0.873,0.206 1.747,0.412 2.621,0.619c0,2.262 0.039,4.524 -0.002,6.786c-0.004,0.115 -0.009,0.23 -0.017,0.345c-0.055,0.685 -0.202,1.359 -0.45,2.001c-0.395,1.022 -1.03,1.939 -1.838,2.671c0.088,0.398 0.158,0.8 0.208,1.204c0.059,0.479 0.089,0.959 0.098,1.441c0.005,0.768 0.005,1.536 0,2.304c-0.007,0.374 -0.028,0.747 -0.071,1.119c-0.098,0.86 -0.298,1.708 -0.596,2.521c-0.579,1.58 -1.525,3.019 -2.742,4.18c-1.123,1.071 -2.471,1.9 -3.935,2.416c-0.774,0.272 -1.579,0.457 -2.394,0.55c-0.372,0.043 -0.745,0.064 -1.119,0.071c-1.428,0.009 -2.856,0.009 -4.284,0c-0.374,-0.007 -0.747,-0.028 -1.119,-0.071c-0.815,-0.093 -1.62,-0.278 -2.394,-0.55c-1.381,-0.487 -2.659,-1.252 -3.742,-2.236c-1.31,-1.191 -2.326,-2.697 -2.935,-4.36c-0.282,-0.769 -0.476,-1.571 -0.58,-2.383c-0.053,-0.418 -0.079,-0.837 -0.087,-1.257c-0.005,-0.77 -0.005,-1.54 0,-2.309c0.009,-0.497 0.041,-0.993 0.103,-1.486c0.05,-0.388 0.117,-0.775 0.201,-1.157c-0.554,-0.5 -1.028,-1.089 -1.398,-1.743c-0.225,-0.396 -0.41,-0.814 -0.553,-1.247c-0.226,-0.682 -0.34,-1.393 -0.353,-2.111l-0.001,-0.081l0,-6.618l2.622,-0.619c0.55,1.101 1.1,2.202 1.651,3.303c0.198,0.387 0.433,0.751 0.717,1.082c0.388,0.453 0.852,0.836 1.367,1.134c1.219,-1.085 2.64,-1.939 4.173,-2.501c0.909,-0.333 1.856,-0.563 2.817,-0.685c0.438,-0.055 0.877,-0.086 1.318,-0.1c0.166,-0.003 0.331,-0.004 0.496,-0.003c0.429,0.008 0.857,0.032 1.283,0.079c0.949,0.106 1.887,0.318 2.79,0.629c1.623,0.559 3.128,1.441 4.409,2.581Z"/></g><path d="M10,10c0,0 0,0 -0.001,0c-2.757,0 -5.278,-1.558 -6.511,-4.024c-0.288,-0.575 -0.488,-0.976 -0.488,-0.976c0,0 0,1.93 0,4.002c0,1.326 0.527,2.597 1.464,3.534c0.937,0.937 2.208,1.464 3.534,1.464c0.001,0 0.002,0 0.002,0l2,-4Z" style="fill:#530f8a;"/><path d="M22,10c0,0 0,0 0.001,0c2.757,0 5.278,-1.558 6.511,-4.024c0.288,-0.575 0.488,-0.976 0.488,-0.976c0,0 0,1.93 0,4.002c0,1.326 -0.527,2.597 -1.464,3.534c-0.937,0.937 -2.208,1.464 -3.534,1.464c-0.001,0 -0.002,0 -0.002,0l-2,-4Z" style="fill:#530f8a;"/><g id="emoji"><path d="M27,16.998c0,-2.917 -1.159,-5.714 -3.221,-7.777c-2.063,-2.062 -4.86,-3.221 -7.777,-3.221c-0.001,0 -0.003,0 -0.004,0c-2.917,0 -5.714,1.159 -7.777,3.221c-2.062,2.063 -3.221,4.86 -3.221,7.777c0,0.671 0,1.341 0,2.002c0,4.971 4.029,9 9,9c1.32,0 2.68,0 4,0c4.971,0 9,-4.029 9,-9c0,-0.661 0,-1.331 0,-2.002Z" style="fill:#a253e2;"/><path d="M21.707,24.293l0.043,0.046l0.04,0.048l0.037,0.051l0.034,0.053l0.03,0.055l0.027,0.057l0.023,0.058l0.019,0.06l0.016,0.061l0.012,0.062l0.008,0.062l0.004,0.063l0,0.062l-0.004,0.063l-0.008,0.062l-0.012,0.062l-0.016,0.061l-0.019,0.06l-0.023,0.058l-0.027,0.057l-0.03,0.055l-0.034,0.053l-0.037,0.051l-0.04,0.048l-0.043,0.046l-0.046,0.043l-0.048,0.04l-0.051,0.037l-0.053,0.034l-0.055,0.03l-0.057,0.027l-0.058,0.023l-0.06,0.019l-0.061,0.016l-0.062,0.012l-0.062,0.008l-0.063,0.004l-0.062,0l-0.063,-0.004l-0.062,-0.008l-0.062,-0.012l-0.061,-0.016l-0.06,-0.019l-0.058,-0.023l-0.057,-0.027l-0.055,-0.03l-0.053,-0.034l-0.051,-0.037l-0.048,-0.04l-0.046,-0.043l-2.293,-2.293l-2,2l-2,-2l-2.293,2.293l-0.046,0.043l-0.048,0.04l-0.051,0.037l-0.053,0.034l-0.055,0.03l-0.057,0.027l-0.058,0.023l-0.06,0.019l-0.061,0.016l-0.062,0.012l-0.062,0.008l-0.063,0.004l-0.062,0l-0.063,-0.004l-0.062,-0.008l-0.062,-0.012l-0.061,-0.016l-0.06,-0.019l-0.058,-0.023l-0.057,-0.027l-0.055,-0.03l-0.053,-0.034l-0.051,-0.037l-0.048,-0.04l-0.046,-0.043l-0.043,-0.046l-0.04,-0.048l-0.037,-0.051l-0.034,-0.053l-0.03,-0.055l-0.027,-0.057l-0.023,-0.058l-0.019,-0.06l-0.016,-0.061l-0.012,-0.062l-0.008,-0.062l-0.004,-0.063l0,-0.062l0.004,-0.063l0.008,-0.062l0.012,-0.062l0.016,-0.061l0.019,-0.06l0.023,-0.058l0.027,-0.057l0.03,-0.055l0.034,-0.053l0.037,-0.051l0.04,-0.048l0.043,-0.046l3.707,-3.707l2,2l2,-2l3.707,3.707Z"/><path d="M24.055,11.985l0.044,0.003l0.044,0.006l0.044,0.007l0.043,0.009l0.043,0.011l0.042,0.013l0.042,0.015l0.041,0.017l0.04,0.018l0.039,0.021l0.039,0.022l0.037,0.023l0.037,0.026l0.035,0.026l0.034,0.029l0.032,0.03l0.032,0.031l0.029,0.033l0.029,0.034l0.027,0.035l0.025,0.036l0.024,0.037l0.022,0.039l0.02,0.039l0.018,0.04l0.017,0.041l0.015,0.042l0.013,0.042l0.011,0.043l0.009,0.043l0.008,0.044l0.005,0.044l0.003,0.044l0.002,0.044l-0.001,0.044l-0.002,0.045l-0.004,0.044l-0.007,0.043l-0.008,0.044l-0.01,0.043l-0.012,0.043l-0.014,0.042l-0.016,0.041l-0.018,0.04l-0.019,0.04l-0.021,0.039l-0.023,0.038l-0.024,0.037l-0.027,0.036l-0.027,0.034l-0.029,0.033l-0.031,0.032l-5,5l-0.032,0.031l-0.033,0.029l-0.035,0.028l-0.035,0.026l-0.037,0.024l-0.038,0.023l-0.039,0.021l-0.04,0.02l-0.04,0.017l-0.042,0.016l-0.042,0.014l-0.042,0.012l-0.043,0.01l-0.044,0.009l-0.044,0.006l-0.044,0.004l-0.044,0.003l-0.044,0l-0.044,-0.001l-0.044,-0.004l-0.044,-0.005l-0.044,-0.007l-0.043,-0.01l-0.043,-0.011l-0.042,-0.013l-0.042,-0.015l-0.041,-0.016l-0.04,-0.019l-0.039,-0.02l-0.039,-0.022l-0.037,-0.024l-0.037,-0.025l-0.035,-0.027l-0.034,-0.028l-0.032,-0.03l-0.032,-0.031l-0.029,-0.033l-0.029,-0.034l-0.027,-0.035l-0.025,-0.036l-0.024,-0.038l-0.022,-0.038l-0.02,-0.04l-0.018,-0.04l-0.017,-0.041l-0.015,-0.041l-0.013,-0.043l-0.011,-0.042l-0.009,-0.044l-0.008,-0.043l-0.005,-0.044l-0.003,-0.044l-0.002,-0.045l0.001,-0.044l0.002,-0.044l0.004,-0.044l0.007,-0.044l0.008,-0.043l0.01,-0.043l0.012,-0.043l0.014,-0.042l0.016,-0.041l0.018,-0.041l0.019,-0.04l0.021,-0.038l0.023,-0.038l0.024,-0.037l0.027,-0.036l0.027,-0.035l0.029,-0.033l0.031,-0.032l5,-5l0.032,-0.03l0.033,-0.03l0.035,-0.027l0.035,-0.026l0.037,-0.025l0.038,-0.023l0.039,-0.021l0.04,-0.019l0.04,-0.018l0.042,-0.015l0.042,-0.014l0.042,-0.013l0.043,-0.01l0.044,-0.008l0.044,-0.006l0.044,-0.005l0.044,-0.002l0.044,-0.001l0.044,0.002Z"/><path d="M18,18l4,-4c1.105,0 2,0.895 2,2c0,0.322 0,0.661 0,1c0,1.657 -1.343,3 -3,3c-0.339,0 -0.678,0 -1,0c-1.105,0 -2,-0.895 -2,-2c0,0 0,0 0,0Z"/><path d="M8.033,11.984l0.044,0.002l0.044,0.005l0.044,0.006l0.044,0.008l0.043,0.01l0.042,0.013l0.042,0.014l0.042,0.015l0.04,0.018l0.04,0.019l0.039,0.021l0.038,0.023l0.037,0.025l0.035,0.026l0.035,0.027l0.033,0.03l0.032,0.03l5,5l0.031,0.032l0.029,0.033l0.027,0.035l0.027,0.036l0.024,0.037l0.023,0.038l0.021,0.038l0.019,0.04l0.018,0.041l0.016,0.041l0.014,0.042l0.012,0.043l0.01,0.043l0.008,0.043l0.007,0.044l0.004,0.044l0.002,0.044l0.001,0.044l-0.002,0.045l-0.003,0.044l-0.005,0.044l-0.008,0.043l-0.009,0.044l-0.011,0.042l-0.013,0.043l-0.015,0.041l-0.017,0.041l-0.018,0.04l-0.02,0.04l-0.022,0.038l-0.024,0.038l-0.025,0.036l-0.027,0.035l-0.029,0.034l-0.029,0.033l-0.032,0.031l-0.032,0.03l-0.034,0.028l-0.035,0.027l-0.037,0.025l-0.037,0.024l-0.039,0.022l-0.039,0.02l-0.04,0.019l-0.041,0.016l-0.042,0.015l-0.042,0.013l-0.043,0.011l-0.043,0.01l-0.044,0.007l-0.044,0.005l-0.044,0.004l-0.044,0.001l-0.044,0l-0.044,-0.003l-0.044,-0.004l-0.044,-0.006l-0.044,-0.009l-0.043,-0.01l-0.042,-0.012l-0.042,-0.014l-0.042,-0.016l-0.04,-0.017l-0.04,-0.02l-0.039,-0.021l-0.038,-0.023l-0.037,-0.024l-0.035,-0.026l-0.035,-0.028l-0.033,-0.029l-0.032,-0.031l-5,-5l-0.031,-0.032l-0.029,-0.033l-0.027,-0.034l-0.027,-0.036l-0.024,-0.037l-0.023,-0.038l-0.021,-0.039l-0.019,-0.04l-0.018,-0.04l-0.016,-0.041l-0.014,-0.042l-0.012,-0.043l-0.01,-0.043l-0.008,-0.044l-0.007,-0.043l-0.004,-0.044l-0.002,-0.045l-0.001,-0.044l0.002,-0.044l0.003,-0.044l0.005,-0.044l0.008,-0.044l0.009,-0.043l0.011,-0.043l0.013,-0.042l0.015,-0.042l0.017,-0.041l0.018,-0.04l0.02,-0.039l0.022,-0.039l0.024,-0.037l0.025,-0.036l0.027,-0.035l0.029,-0.034l0.029,-0.033l0.032,-0.031l0.032,-0.03l0.034,-0.029l0.035,-0.026l0.037,-0.026l0.037,-0.023l0.039,-0.022l0.039,-0.021l0.04,-0.018l0.041,-0.017l0.042,-0.015l0.042,-0.013l0.043,-0.011l0.043,-0.009l0.044,-0.007l0.044,-0.006l0.044,-0.003l0.044,-0.002l0.044,0.001Z"/><path d="M14,18l-4,-4c-1.105,0 -2,0.895 -2,2c0,0.322 0,0.661 0,1c0,1.657 1.343,3 3,3c0.339,0 0.678,0 1,0c1.105,0 2,-0.895 2,-2c0,0 0,0 0,0Z"/><path d="M10,15.314c0,-0.173 0.141,-0.314 0.314,-0.314c0.001,0 0.001,0 0.002,0l1.684,1.684c0,0.442 0,0.906 0,1.299c0,0.266 -0.105,0.52 -0.293,0.707c-0.187,0.188 -0.442,0.293 -0.707,0.293c-0.265,0 -0.52,-0.105 -0.707,-0.293c-0.188,-0.187 -0.293,-0.441 -0.293,-0.707c0,-0.877 0,-2.1 0,-2.669Z" style="fill:#f2c040;"/><path d="M22,15.314c0,-0.173 -0.141,-0.314 -0.314,-0.314c-0.001,0 -0.001,0 -0.002,0l-1.684,1.684c0,0.442 0,0.906 0,1.299c0,0.266 0.105,0.52 0.293,0.707c0.187,0.188 0.442,0.293 0.707,0.293c0.265,0 0.52,-0.105 0.707,-0.293c0.188,-0.187 0.293,-0.441 0.293,-0.707c0,-0.877 0,-2.1 0,-2.669Z" style="fill:#f2c040;"/></g></svg>