<?xml version="1.0" encoding="UTF-8" standalone="no"?><!DOCTYPE svg PUBLIC "-//W3C//DTD SVG 1.1//EN" "http://www.w3.org/Graphics/SVG/1.1/DTD/svg11.dtd"><svg width="100%" height="100%" viewBox="0 0 32 32" version="1.1" xmlns="http://www.w3.org/2000/svg" xmlns:xlink="http://www.w3.org/1999/xlink" xml:space="preserve" style="fill-rule:evenodd;clip-rule:evenodd;stroke-linejoin:round;stroke-miterlimit:1.41421;">
<metadata>
<rdf:RDF xmlns:cc="http://web.resource.org/cc/"
         xmlns:rdf="http://www.w3.org/1999/02/22-rdf-syntax-ns#"
         xmlns:dc = "http://purl.org/dc/elements/1.1/"
         >

     <rdf:Description rdf:about="">
       <dc:title>Mutant Standard emoji v0.2.3</dc:title>
     </rdf:Description>

    <cc:work rdf:about="">
        <cc:license rdf:resource="http://creativecommons.org/licenses/by-nc-sa/4.0/"/>
        <cc:attributionName>Dzuk</cc:attributionName>
        <cc:attributionURL>http://mutant.tech/</cc:attributionURL>
    </cc:work>

</rdf:RDF>
</metadata>
<rect id="angry_steam" x="0" y="0" width="32" height="32" style="fill:none;"/><g id="outline"><path d="M1.997,19.338c-0.003,-0.837 -0.001,-1.675 0.004,-2.512c0.01,-0.519 0.042,-1.037 0.106,-1.552c0.126,-1.02 0.366,-2.026 0.713,-2.994c0.773,-2.161 2.082,-4.118 3.783,-5.658c1.399,-1.267 3.054,-2.244 4.838,-2.859c0.972,-0.335 1.982,-0.562 3.004,-0.676c0.459,-0.052 0.919,-0.077 1.381,-0.086c0.174,-0.001 0.174,-0.001 0.348,0c0.462,0.009 0.922,0.034 1.381,0.086c1.079,0.12 2.143,0.367 3.165,0.733c1.942,0.695 3.721,1.822 5.18,3.281c1.498,1.498 2.647,3.336 3.337,5.34c0.335,0.972 0.562,1.982 0.676,3.004c0.052,0.459 0.077,0.919 0.086,1.381c0.005,0.838 0.006,1.675 0.004,2.512c0.049,0.024 0.098,0.048 0.146,0.074c0.381,0.203 0.722,0.477 1.004,0.803c0.223,0.26 0.408,0.552 0.547,0.865c0.401,0.905 0.398,1.961 -0.01,2.863c-0.15,0.332 -0.353,0.641 -0.599,0.911c-0.244,0.27 -0.531,0.5 -0.846,0.681c-0.148,0.086 -0.302,0.157 -0.46,0.222l-0.021,0.008c-0.023,0.06 -0.048,0.118 -0.074,0.177c-0.036,0.077 -0.036,0.077 -0.074,0.153c-0.21,0.398 -0.484,0.756 -0.825,1.051c-0.277,0.24 -0.591,0.436 -0.928,0.578c-0.575,0.243 -1.208,0.324 -1.821,0.244c-0.791,0.6 -1.67,1.083 -2.604,1.425c-0.699,0.256 -1.428,0.433 -2.167,0.527c-0.379,0.048 -0.76,0.072 -1.142,0.079c-2.753,0.018 -5.505,0.018 -8.258,0c-0.382,-0.007 -0.763,-0.031 -1.142,-0.079c-0.739,-0.094 -1.468,-0.271 -2.167,-0.527c-0.933,-0.342 -1.812,-0.824 -2.603,-1.424c-0.327,0.044 -0.661,0.041 -0.989,-0.009c-0.371,-0.057 -0.731,-0.173 -1.065,-0.344c-0.324,-0.166 -0.622,-0.383 -0.88,-0.641c-0.341,-0.341 -0.6,-0.746 -0.782,-1.191l-0.007,-0.019c-0.06,-0.023 -0.119,-0.049 -0.178,-0.075c-0.078,-0.036 -0.077,-0.036 -0.154,-0.074c-0.125,-0.065 -0.246,-0.135 -0.363,-0.214c-0.301,-0.204 -0.57,-0.454 -0.794,-0.74c-0.227,-0.288 -0.408,-0.613 -0.534,-0.957c-0.34,-0.929 -0.267,-1.982 0.199,-2.854c0.162,-0.304 0.369,-0.583 0.613,-0.827c0.282,-0.282 0.612,-0.515 0.972,-0.686Z"/></g><g id="emoji"><path d="M28,17c0,-3.183 -1.264,-6.235 -3.515,-8.485c-2.25,-2.251 -5.302,-3.515 -8.485,-3.515c0,0 0,0 0,0c-3.183,0 -6.235,1.264 -8.485,3.515c-2.251,2.25 -3.515,5.302 -3.515,8.485c0,1.016 0,2.026 0,3c0,4.418 3.582,8 8,8c2.574,0 5.426,0 8,0c4.418,0 8,-3.582 8,-8c0,-0.974 0,-1.984 0,-3Z" style="fill:#fb4646;"/><clipPath id="_clip1"><path d="M28,17c0,-3.183 -1.264,-6.235 -3.515,-8.485c-2.25,-2.251 -5.302,-3.515 -8.485,-3.515c0,0 0,0 0,0c-3.183,0 -6.235,1.264 -8.485,3.515c-2.251,2.25 -3.515,5.302 -3.515,8.485c0,1.016 0,2.026 0,3c0,4.418 3.582,8 8,8c2.574,0 5.426,0 8,0c4.418,0 8,-3.582 8,-8c0,-0.974 0,-1.984 0,-3Z"/></clipPath><g clip-path="url(#_clip1)"><path d="M23.05,10.001l0.039,0.003l0.04,0.004l0.039,0.006l0.039,0.008l0.039,0.009l0.038,0.01l0.038,0.012l0.038,0.014l0.036,0.015l0.037,0.016l0.035,0.018l0.035,0.02l0.034,0.02l0.033,0.022l0.032,0.024l0.031,0.024l0.031,0.026l0.029,0.027l0.028,0.028l0.027,0.029l0.026,0.031l0.024,0.031l0.024,0.032l0.022,0.033l0.02,0.034l0.02,0.035l0.018,0.035l0.016,0.037l0.015,0.036l0.014,0.038l0.012,0.038l0.01,0.038l0.009,0.039l0.008,0.039l0.006,0.039l0.004,0.04l0.003,0.039l0.001,0.04l0,0.04l-0.002,0.04l-0.004,0.039l-0.005,0.04l-0.007,0.039l-0.008,0.039l-0.01,0.038l-0.011,0.038l-0.013,0.038l-0.014,0.037l-0.016,0.037l-0.017,0.035l-0.019,0.036l-0.02,0.034l-0.021,0.034l-0.023,0.032l-0.024,0.032l-0.025,0.031l-0.026,0.029l-0.028,0.029l-1.856,1.856l1.465,0.488l0.038,0.014l0.037,0.014l0.036,0.017l0.036,0.017l0.034,0.019l0.034,0.021l0.034,0.022l0.032,0.023l0.032,0.024l0.03,0.026l0.029,0.027l0.029,0.028l0.027,0.029l0.026,0.03l0.025,0.031l0.023,0.032l0.022,0.033l0.021,0.034l0.02,0.034l0.018,0.036l0.017,0.036l0.015,0.036l0.014,0.038l0.012,0.038l0.011,0.038l0.009,0.039l0.008,0.039l0.006,0.039l0.004,0.039l0.003,0.04l0.002,0.04l0,0.039l-0.002,0.04l-0.003,0.04l-0.005,0.039l-0.007,0.04l-0.008,0.039l-0.009,0.038l-0.011,0.038l-0.013,0.038l-0.014,0.037l-0.015,0.037l-0.017,0.036l-0.019,0.035l-0.02,0.035l-0.021,0.033l-0.022,0.033l-0.024,0.032l-0.025,0.031l-0.026,0.03l-0.027,0.029l-0.029,0.027l-0.03,0.027l-0.03,0.025l-0.032,0.024l-0.032,0.023l-0.034,0.022l-0.034,0.02l-0.035,0.019l-0.036,0.017l-0.036,0.016l-0.037,0.015l-0.038,0.013l-0.038,0.011l-0.038,0.011l-0.039,0.008l-0.039,0.007l-0.04,0.005l-0.039,0.004l-0.04,0.002l-0.04,0.001l-0.039,-0.001l-0.04,-0.002l-0.04,-0.005l-0.039,-0.005l-0.039,-0.007l-0.039,-0.009l-0.038,-0.01l-0.038,-0.012l-4.087,-1.362l-0.114,-0.484l3.81,-3.81l0.029,-0.028l0.029,-0.026l0.031,-0.025l0.032,-0.024l0.032,-0.023l0.034,-0.021l0.034,-0.02l0.036,-0.019l0.035,-0.017l0.037,-0.016l0.037,-0.014l0.038,-0.013l0.038,-0.011l0.038,-0.01l0.039,-0.008l0.039,-0.007l0.04,-0.005l0.039,-0.004l0.04,-0.002l0.04,0l0.04,0.001Z"/><path d="M9.03,10l0.04,0.002l0.039,0.004l0.04,0.005l0.039,0.007l0.039,0.008l0.038,0.01l0.038,0.011l0.038,0.013l0.037,0.014l0.037,0.016l0.035,0.017l0.036,0.019l0.034,0.02l0.034,0.021l0.032,0.023l0.032,0.024l0.031,0.025l0.029,0.026l0.029,0.028l3.81,3.81l-0.114,0.484l-4.087,1.362l-0.038,0.012l-0.038,0.01l-0.039,0.009l-0.039,0.007l-0.039,0.005l-0.04,0.005l-0.04,0.002l-0.039,0.001l-0.04,-0.001l-0.04,-0.002l-0.039,-0.004l-0.04,-0.005l-0.039,-0.007l-0.039,-0.008l-0.038,-0.011l-0.038,-0.011l-0.038,-0.013l-0.037,-0.015l-0.036,-0.016l-0.036,-0.017l-0.035,-0.019l-0.034,-0.02l-0.034,-0.022l-0.032,-0.023l-0.032,-0.024l-0.03,-0.025l-0.03,-0.027l-0.029,-0.027l-0.027,-0.029l-0.026,-0.03l-0.025,-0.031l-0.024,-0.032l-0.022,-0.033l-0.021,-0.033l-0.02,-0.035l-0.019,-0.035l-0.017,-0.036l-0.015,-0.037l-0.014,-0.037l-0.013,-0.038l-0.011,-0.038l-0.009,-0.038l-0.008,-0.039l-0.007,-0.04l-0.005,-0.039l-0.003,-0.04l-0.002,-0.04l0,-0.039l0.002,-0.04l0.003,-0.04l0.004,-0.039l0.006,-0.039l0.008,-0.039l0.009,-0.039l0.011,-0.038l0.012,-0.038l0.014,-0.038l0.015,-0.036l0.017,-0.036l0.018,-0.036l0.02,-0.034l0.021,-0.034l0.022,-0.033l0.023,-0.032l0.025,-0.031l0.026,-0.03l0.027,-0.029l0.029,-0.028l0.029,-0.027l0.03,-0.026l0.032,-0.024l0.032,-0.023l0.034,-0.022l0.034,-0.021l0.034,-0.019l0.036,-0.017l0.036,-0.017l0.037,-0.014l0.038,-0.014l1.465,-0.488l-1.856,-1.856l-0.028,-0.029l-0.026,-0.029l-0.025,-0.031l-0.024,-0.032l-0.023,-0.032l-0.021,-0.034l-0.02,-0.034l-0.019,-0.036l-0.017,-0.035l-0.016,-0.037l-0.014,-0.037l-0.013,-0.038l-0.011,-0.038l-0.01,-0.038l-0.008,-0.039l-0.007,-0.039l-0.005,-0.04l-0.004,-0.039l-0.002,-0.04l0,-0.04l0.001,-0.04l0.003,-0.039l0.004,-0.04l0.006,-0.039l0.008,-0.039l0.009,-0.039l0.01,-0.038l0.012,-0.038l0.014,-0.038l0.015,-0.036l0.016,-0.037l0.018,-0.035l0.02,-0.035l0.02,-0.034l0.022,-0.033l0.024,-0.032l0.024,-0.031l0.026,-0.031l0.027,-0.029l0.028,-0.028l0.029,-0.027l0.031,-0.026l0.031,-0.024l0.032,-0.024l0.033,-0.022l0.034,-0.02l0.035,-0.02l0.035,-0.018l0.037,-0.016l0.036,-0.015l0.038,-0.014l0.038,-0.012l0.038,-0.01l0.039,-0.009l0.039,-0.008l0.039,-0.006l0.04,-0.004l0.039,-0.003l0.04,-0.001l0.04,0Z"/><path d="M16.145,17.002l0.144,0.005l0.144,0.009l0.143,0.012l0.143,0.016l0.142,0.02l0.141,0.023l0.141,0.026l0.139,0.03l0.139,0.033l0.138,0.036l0.136,0.04l0.136,0.043l0.134,0.046l0.134,0.05l0.131,0.053l0.131,0.056l0.129,0.059l0.128,0.062l0.127,0.065l0.124,0.069l0.123,0.072l0.122,0.074l0.12,0.078l0.118,0.081l0.116,0.084l0.114,0.086l0.112,0.09l0.11,0.092l0.108,0.096l0.106,0.098l0.099,0.097l2.59,2.59l0.047,0.05l0.043,0.053l0.039,0.056l0.036,0.058l0.031,0.061l0.027,0.062l0.023,0.064l0.019,0.066l0.013,0.067l0.01,0.068l0.004,0.068l0,0.068l-0.004,0.068l-0.01,0.068l-0.013,0.067l-0.019,0.066l-0.023,0.064l-0.027,0.062l-0.031,0.061l-0.036,0.058l-0.039,0.056l-0.043,0.053l-0.047,0.05l-0.05,0.047l-0.053,0.043l-0.056,0.039l-0.058,0.036l-0.061,0.031l-0.062,0.027l-0.065,0.023l-0.065,0.019l-0.067,0.013l-0.068,0.01l-0.068,0.004l-0.068,0l-0.068,-0.004l-0.068,-0.01l-0.067,-0.013l-0.066,-0.019l-0.064,-0.023l-0.063,-0.027l-0.06,-0.031l-0.058,-0.036l-0.056,-0.039l-0.053,-0.043l-0.05,-0.047l-2.582,-2.581l-0.072,-0.071l-0.07,-0.065l-0.071,-0.062l-0.072,-0.061l-0.073,-0.059l-0.075,-0.057l-0.077,-0.055l-0.077,-0.053l-0.079,-0.051l-0.079,-0.049l-0.081,-0.047l-0.082,-0.045l-0.083,-0.043l-0.084,-0.041l-0.085,-0.039l-0.086,-0.037l-0.087,-0.034l-0.087,-0.033l-0.088,-0.03l-0.09,-0.028l-0.089,-0.027l-0.091,-0.023l-0.091,-0.022l-0.092,-0.02l-0.092,-0.017l-0.093,-0.015l-0.093,-0.013l-0.093,-0.01l-0.094,-0.008l-0.095,-0.006l-0.095,-0.004l-0.095,-0.001l-0.095,0.001l-0.095,0.004l-0.094,0.006l-0.095,0.008l-0.093,0.01l-0.093,0.013l-0.093,0.015l-0.092,0.017l-0.092,0.02l-0.091,0.022l-0.091,0.023l-0.089,0.027l-0.09,0.028l-0.088,0.03l-0.087,0.033l-0.087,0.034l-0.086,0.037l-0.085,0.039l-0.084,0.041l-0.083,0.043l-0.082,0.045l-0.081,0.047l-0.079,0.049l-0.079,0.051l-0.077,0.053l-0.077,0.055l-0.075,0.057l-0.073,0.059l-0.072,0.061l-0.071,0.062l-0.07,0.065l-0.072,0.071l-2.582,2.581l-0.05,0.047l-0.053,0.043l-0.056,0.039l-0.058,0.036l-0.061,0.031l-0.062,0.027l-0.064,0.023l-0.066,0.019l-0.067,0.013l-0.068,0.01l-0.068,0.004l-0.068,0l-0.068,-0.004l-0.068,-0.01l-0.067,-0.013l-0.066,-0.019l-0.064,-0.023l-0.062,-0.027l-0.061,-0.031l-0.058,-0.036l-0.056,-0.039l-0.053,-0.043l-0.05,-0.047l-0.047,-0.05l-0.043,-0.053l-0.039,-0.056l-0.036,-0.058l-0.031,-0.061l-0.027,-0.062l-0.023,-0.064l-0.019,-0.066l-0.013,-0.067l-0.01,-0.068l-0.004,-0.068l0,-0.068l0.004,-0.068l0.01,-0.068l0.013,-0.067l0.019,-0.066l0.023,-0.064l0.027,-0.062l0.031,-0.061l0.036,-0.058l0.039,-0.056l0.043,-0.053l0.047,-0.05l2.59,-2.59l0.099,-0.097l0.106,-0.098l0.108,-0.096l0.11,-0.092l0.112,-0.09l0.115,-0.086l0.116,-0.084l0.117,-0.081l0.12,-0.078l0.122,-0.074l0.123,-0.072l0.124,-0.069l0.127,-0.065l0.128,-0.062l0.129,-0.059l0.131,-0.056l0.132,-0.053l0.133,-0.05l0.134,-0.046l0.136,-0.043l0.136,-0.04l0.138,-0.036l0.139,-0.033l0.14,-0.03l0.14,-0.026l0.141,-0.023l0.142,-0.02l0.143,-0.016l0.143,-0.012l0.144,-0.009l0.144,-0.005l0.139,-0.002l0.012,0l0.139,0.002Z"/><path d="M27.472,19c0.373,0 0.745,-0.004 1.118,0.001c0.088,0.003 0.088,0.003 0.177,0.009c0.147,0.013 0.33,7.886 -0.039,8.191c-0.261,0.215 -0.553,0.392 -0.864,0.523c-0.918,0.389 -1.984,0.363 -2.883,-0.07c-0.354,-0.171 -0.678,-0.401 -0.956,-0.679c-0.298,-0.298 -0.541,-0.65 -0.715,-1.033c-0.204,-0.451 -0.304,-0.936 -0.31,-1.43l0,-1.04l-2.905,-5.81l1.567,-1.567c1.937,0.968 3.874,1.937 5.81,2.905Z" style="fill:#4f4f4f;fill-rule:nonzero;"/><path d="M11.905,17.662l-2.905,5.81c0,0.372 0.004,0.745 -0.001,1.117c-0.006,0.148 -0.017,0.295 -0.039,0.441c-0.052,0.343 -0.156,0.677 -0.306,0.988c-0.183,0.38 -0.434,0.725 -0.739,1.016c-0.285,0.271 -0.615,0.494 -0.974,0.656c-0.614,0.278 -1.305,0.372 -1.971,0.27c-0.371,-0.057 -0.731,-0.173 -1.065,-0.344c-0.324,-0.166 -0.904,-8.61 -0.42,-8.616l1.043,0l5.81,-2.905c0.522,0.522 1.044,1.045 1.567,1.567Z" style="fill:#4f4f4f;fill-rule:nonzero;"/></g><path d="M23,19l4,2c0,0 0.751,0 1.502,0c0.397,0 0.778,0.158 1.059,0.439c0.281,0.281 0.439,0.662 0.439,1.059c0,0.001 0,0.003 0,0.004c0,0.827 -0.671,1.498 -1.498,1.498c-0.288,0 -0.502,0 -0.502,0c0,0 0,0.213 0,0.5c0,0.828 -0.672,1.5 -1.5,1.5c-0.828,0 -1.5,-0.672 -1.5,-1.5c0,-0.75 0,-1.5 0,-1.5l-2,-4Z" style="fill:#fff;"/><path d="M9,19l-4,2c0,0 -0.751,0 -1.502,0c-0.397,0 -0.778,0.158 -1.059,0.439c-0.281,0.281 -0.439,0.662 -0.439,1.059c0,0.001 0,0.003 0,0.004c0,0.827 0.671,1.498 1.498,1.498c0.288,0 0.502,0 0.502,0c0,0 0,0.213 0,0.5c0,0.828 0.672,1.5 1.5,1.5c0.828,0 1.5,-0.672 1.5,-1.5c0,-0.75 0,-1.5 0,-1.5l2,-4Z" style="fill:#fff;"/></g></svg>