<?xml version="1.0" encoding="UTF-8" standalone="no"?><!DOCTYPE svg PUBLIC "-//W3C//DTD SVG 1.1//EN" "http://www.w3.org/Graphics/SVG/1.1/DTD/svg11.dtd"><svg width="100%" height="100%" viewBox="0 0 32 32" version="1.1" xmlns="http://www.w3.org/2000/svg" xmlns:xlink="http://www.w3.org/1999/xlink" xml:space="preserve" style="fill-rule:evenodd;clip-rule:evenodd;stroke-linejoin:round;stroke-miterlimit:1.41421;">
<metadata>
<rdf:RDF xmlns:cc="http://web.resource.org/cc/"
         xmlns:rdf="http://www.w3.org/1999/02/22-rdf-syntax-ns#"
         xmlns:dc = "http://purl.org/dc/elements/1.1/"
         >

     <rdf:Description rdf:about="">
       <dc:title>Mutant Standard emoji v0.2.3</dc:title>
     </rdf:Description>

    <cc:work rdf:about="">
        <cc:license rdf:resource="http://creativecommons.org/licenses/by-nc-sa/4.0/"/>
        <cc:attributionName>Dzuk</cc:attributionName>
        <cc:attributionURL>http://mutant.tech/</cc:attributionURL>
    </cc:work>

</rdf:RDF>
</metadata>
<rect id="angry" x="0" y="0" width="32" height="32" style="fill:none;"/><g id="outline"><path d="M17.17,2.006c0.027,-0.079 0.058,-0.156 0.092,-0.231c0.37,-0.827 1.112,-1.454 1.989,-1.68c0.271,-0.07 0.553,-0.102 0.833,-0.094c0.309,0.009 0.616,0.065 0.907,0.167c0.291,0.102 0.566,0.249 0.813,0.435c0.112,0.085 0.217,0.178 0.317,0.276l0.879,0.878c0.313,-0.312 0.622,-0.629 0.939,-0.937c0.062,-0.057 0.062,-0.057 0.125,-0.112c0.109,-0.089 0.221,-0.173 0.34,-0.248c0.285,-0.179 0.6,-0.31 0.928,-0.385c0.193,-0.044 0.387,-0.066 0.584,-0.074c0.084,-0.001 0.084,-0.001 0.168,0c0.112,0.005 0.224,0.013 0.335,0.028c0.306,0.044 0.605,0.134 0.883,0.268c0.252,0.122 0.488,0.279 0.697,0.466c0.378,0.338 0.662,0.769 0.829,1.243c0.03,-0.002 0.059,-0.004 0.088,-0.005c0.084,-0.001 0.084,-0.001 0.168,0c0.141,0.006 0.28,0.018 0.419,0.041c0.304,0.052 0.6,0.151 0.874,0.293c0.779,0.402 1.353,1.143 1.548,1.997c0.062,0.274 0.086,0.556 0.07,0.836c-0.017,0.308 -0.082,0.614 -0.192,0.902c-0.11,0.288 -0.265,0.559 -0.458,0.8c-0.07,0.088 -0.145,0.171 -0.224,0.251l-0.878,0.879c0.312,0.313 0.629,0.622 0.937,0.939c0.057,0.062 0.057,0.062 0.112,0.125c0.089,0.109 0.173,0.221 0.248,0.34c0.164,0.261 0.288,0.548 0.365,0.847c0.204,0.793 0.071,1.652 -0.365,2.345c-0.149,0.238 -0.332,0.454 -0.541,0.641c-0.23,0.206 -0.492,0.375 -0.774,0.501c-0.182,0.082 -0.372,0.145 -0.567,0.189c0.113,0.501 0.198,1.008 0.255,1.518c0.052,0.459 0.077,0.919 0.086,1.381c0.007,1.101 0.007,2.202 0,3.303c-0.007,0.382 -0.031,0.763 -0.079,1.142c-0.094,0.739 -0.271,1.468 -0.527,2.167c-0.499,1.362 -1.297,2.608 -2.322,3.633c-1.054,1.054 -2.342,1.868 -3.748,2.363c-0.704,0.248 -1.436,0.416 -2.177,0.501c-0.338,0.039 -0.677,0.058 -1.017,0.064c-2.753,0.018 -5.505,0.018 -8.258,0c-0.382,-0.007 -0.763,-0.031 -1.142,-0.079c-0.739,-0.094 -1.468,-0.271 -2.167,-0.527c-1.55,-0.568 -2.949,-1.524 -4.044,-2.758c-0.856,-0.965 -1.523,-2.095 -1.952,-3.312c-0.248,-0.704 -0.416,-1.436 -0.501,-2.177c-0.039,-0.338 -0.058,-0.677 -0.064,-1.017c-0.007,-1.101 -0.007,-2.202 0,-3.303c0.01,-0.519 0.042,-1.037 0.106,-1.552c0.134,-1.077 0.393,-2.138 0.771,-3.155c0.801,-2.151 2.134,-4.093 3.855,-5.613c1.413,-1.248 3.079,-2.205 4.87,-2.797c0.977,-0.324 1.989,-0.539 3.013,-0.641c0.032,-0.003 0.065,-0.006 0.097,-0.009c0.071,-0.083 0.146,-0.163 0.226,-0.239c0.204,-0.193 0.435,-0.357 0.684,-0.485c0.274,-0.142 0.57,-0.241 0.874,-0.293c0.139,-0.023 0.278,-0.035 0.419,-0.041c0.084,-0.001 0.084,-0.001 0.168,0c0.029,0.001 0.057,0.003 0.086,0.005Z"/></g><g id="emoji"><path d="M28,17c0,-3.183 -1.264,-6.235 -3.515,-8.485c-2.25,-2.251 -5.302,-3.515 -8.485,-3.515c0,0 0,0 0,0c-3.183,0 -6.235,1.264 -8.485,3.515c-2.251,2.25 -3.515,5.302 -3.515,8.485c0,1.016 0,2.026 0,3c0,4.418 3.582,8 8,8c2.574,0 5.426,0 8,0c4.418,0 8,-3.582 8,-8c0,-0.974 0,-1.984 0,-3Z" style="fill:#fbc546;"/><path d="M16.075,20.501l0.073,0.001l0.074,0.003l0.074,0.004l0.073,0.005l0.074,0.007l0.073,0.007l0.072,0.009l0.073,0.009l0.072,0.011l0.072,0.012l0.072,0.013l0.071,0.014l0.072,0.015l0.07,0.016l0.071,0.017l0.07,0.019l0.07,0.019l0.069,0.02l0.069,0.022l0.069,0.022l0.068,0.024l0.068,0.024l0.068,0.026l0.067,0.026l0.066,0.028l0.067,0.029l0.065,0.029l0.065,0.031l0.065,0.031l0.064,0.033l0.064,0.033l0.064,0.035l0.062,0.035l0.062,0.037l0.062,0.037l0.061,0.038l0.061,0.039l0.06,0.041l0.059,0.041l0.059,0.042l0.058,0.042l0.057,0.044l0.057,0.045l0.056,0.045l0.055,0.047l0.055,0.047l0.055,0.049l0.053,0.049l0.053,0.05l0.052,0.05l0.051,0.052l0.051,0.053l0.049,0.053l0.049,0.054l0.049,0.055l0.047,0.056l0.047,0.057l0.046,0.057l0.045,0.058l0.044,0.059l0.043,0.06l0.043,0.06l0.039,0.059l0.893,1.339l0.03,0.048l0.027,0.049l0.024,0.051l0.022,0.051l0.018,0.053l0.016,0.054l0.012,0.055l0.009,0.055l0.007,0.056l0.003,0.056l0,0.056l-0.004,0.056l-0.006,0.056l-0.009,0.055l-0.013,0.055l-0.016,0.054l-0.018,0.053l-0.022,0.051l-0.024,0.051l-0.027,0.049l-0.03,0.047l-0.033,0.046l-0.035,0.044l-0.037,0.042l-0.04,0.039l-0.042,0.038l-0.044,0.035l-0.045,0.032l-0.048,0.03l-0.049,0.027l-0.051,0.024l-0.051,0.022l-0.053,0.018l-0.054,0.016l-0.055,0.012l-0.055,0.009l-0.056,0.007l-0.056,0.003l-0.056,0l-0.056,-0.004l-0.056,-0.006l-0.055,-0.009l-0.055,-0.013l-0.054,-0.016l-0.053,-0.018l-0.051,-0.022l-0.051,-0.024l-0.049,-0.027l-0.047,-0.03l-0.046,-0.033l-0.044,-0.035l-0.042,-0.037l-0.039,-0.04l-0.038,-0.042l-0.035,-0.044l-0.032,-0.045l-0.889,-1.333l-0.026,-0.039l-0.025,-0.035l-0.025,-0.035l-0.025,-0.034l-0.026,-0.033l-0.027,-0.034l-0.027,-0.032l-0.027,-0.033l-0.028,-0.031l-0.028,-0.032l-0.029,-0.03l-0.029,-0.031l-0.03,-0.03l-0.03,-0.029l-0.03,-0.029l-0.031,-0.028l-0.031,-0.028l-0.032,-0.027l-0.032,-0.027l-0.033,-0.026l-0.032,-0.026l-0.034,-0.026l-0.033,-0.024l-0.034,-0.025l-0.034,-0.023l-0.035,-0.024l-0.035,-0.022l-0.035,-0.022l-0.036,-0.022l-0.036,-0.021l-0.036,-0.02l-0.036,-0.02l-0.037,-0.02l-0.037,-0.018l-0.038,-0.019l-0.038,-0.017l-0.038,-0.017l-0.038,-0.017l-0.038,-0.016l-0.039,-0.015l-0.039,-0.015l-0.039,-0.014l-0.04,-0.014l-0.039,-0.013l-0.04,-0.012l-0.04,-0.012l-0.041,-0.011l-0.04,-0.011l-0.041,-0.01l-0.041,-0.009l-0.041,-0.009l-0.041,-0.008l-0.042,-0.007l-0.041,-0.007l-0.042,-0.006l-0.042,-0.006l-0.042,-0.005l-0.042,-0.004l-0.042,-0.004l-0.043,-0.003l-0.042,-0.002l-0.043,-0.002l-0.043,-0.001l-0.043,0l-0.043,0l-0.043,0.001l-0.043,0.002l-0.042,0.002l-0.043,0.003l-0.042,0.004l-0.042,0.004l-0.042,0.005l-0.042,0.006l-0.042,0.006l-0.041,0.007l-0.042,0.007l-0.041,0.008l-0.041,0.009l-0.041,0.009l-0.041,0.01l-0.04,0.011l-0.041,0.011l-0.04,0.012l-0.04,0.012l-0.039,0.013l-0.04,0.014l-0.039,0.014l-0.039,0.015l-0.039,0.015l-0.038,0.016l-0.038,0.017l-0.038,0.017l-0.038,0.017l-0.038,0.019l-0.037,0.018l-0.037,0.02l-0.036,0.02l-0.036,0.02l-0.036,0.021l-0.036,0.022l-0.035,0.022l-0.035,0.022l-0.035,0.024l-0.034,0.023l-0.034,0.025l-0.033,0.024l-0.034,0.026l-0.032,0.026l-0.033,0.026l-0.032,0.027l-0.032,0.027l-0.031,0.028l-0.031,0.028l-0.03,0.029l-0.03,0.029l-0.03,0.03l-0.029,0.031l-0.029,0.03l-0.028,0.032l-0.028,0.031l-0.027,0.033l-0.027,0.032l-0.027,0.034l-0.026,0.033l-0.025,0.034l-0.025,0.035l-0.025,0.035l-0.026,0.039l-0.889,1.333l-0.032,0.045l-0.035,0.044l-0.038,0.042l-0.039,0.04l-0.042,0.037l-0.044,0.035l-0.046,0.033l-0.047,0.03l-0.049,0.027l-0.051,0.024l-0.051,0.022l-0.053,0.018l-0.054,0.016l-0.055,0.013l-0.055,0.009l-0.056,0.006l-0.056,0.004l-0.056,0l-0.056,-0.003l-0.056,-0.007l-0.055,-0.009l-0.055,-0.012l-0.054,-0.016l-0.053,-0.018l-0.051,-0.022l-0.051,-0.024l-0.049,-0.027l-0.048,-0.03l-0.045,-0.032l-0.044,-0.035l-0.042,-0.038l-0.04,-0.039l-0.037,-0.042l-0.035,-0.044l-0.033,-0.046l-0.03,-0.047l-0.027,-0.049l-0.024,-0.051l-0.022,-0.051l-0.018,-0.053l-0.016,-0.054l-0.013,-0.055l-0.009,-0.055l-0.006,-0.056l-0.004,-0.056l0,-0.056l0.003,-0.056l0.007,-0.056l0.009,-0.055l0.012,-0.055l0.016,-0.054l0.018,-0.053l0.022,-0.051l0.024,-0.051l0.027,-0.049l0.03,-0.048l0.893,-1.339l0.039,-0.059l0.043,-0.06l0.043,-0.06l0.044,-0.059l0.045,-0.058l0.046,-0.057l0.047,-0.057l0.047,-0.056l0.049,-0.055l0.049,-0.054l0.049,-0.053l0.051,-0.053l0.051,-0.052l0.052,-0.05l0.053,-0.05l0.053,-0.049l0.055,-0.049l0.055,-0.047l0.055,-0.047l0.056,-0.045l0.057,-0.045l0.057,-0.044l0.058,-0.042l0.059,-0.042l0.059,-0.041l0.06,-0.041l0.061,-0.039l0.061,-0.038l0.062,-0.037l0.062,-0.037l0.062,-0.035l0.064,-0.035l0.064,-0.033l0.064,-0.033l0.065,-0.031l0.065,-0.031l0.065,-0.029l0.067,-0.029l0.066,-0.028l0.067,-0.026l0.068,-0.026l0.068,-0.024l0.068,-0.024l0.069,-0.022l0.069,-0.022l0.069,-0.02l0.07,-0.019l0.07,-0.019l0.071,-0.017l0.07,-0.016l0.072,-0.015l0.071,-0.014l0.072,-0.013l0.072,-0.012l0.072,-0.011l0.073,-0.009l0.072,-0.009l0.073,-0.007l0.074,-0.007l0.073,-0.005l0.074,-0.004l0.074,-0.003l0.073,-0.001l0.07,-0.001l0.01,0l0.07,0.001Z"/><path d="M9,15.984c0,-0.394 0.156,-0.771 0.435,-1.049c0.278,-0.279 0.655,-0.435 1.049,-0.435c0.005,0 0.011,0 0.016,0l2.5,2.5c0,0.168 0,0.335 0,0.5c0,0.53 -0.211,1.039 -0.586,1.414c-0.375,0.375 -0.884,0.586 -1.414,0.586c-0.53,0 -1.039,-0.211 -1.414,-0.586c-0.375,-0.375 -0.586,-0.884 -0.586,-1.414c0,-0.506 0,-1.041 0,-1.516Z"/><path d="M19,16.998l2.498,-2.498c0.006,0 0.012,0 0.018,0c0.394,0 0.771,0.156 1.049,0.435c0.279,0.278 0.435,0.655 0.435,1.049c0,0.475 0,1.01 0,1.516c0,0.53 -0.211,1.039 -0.586,1.414c-0.375,0.375 -0.884,0.586 -1.414,0.586c-0.53,0 -1.039,-0.211 -1.414,-0.586c-0.375,-0.375 -0.586,-0.884 -0.586,-1.414c0,-0.165 0,-0.334 0,-0.502Z"/><path d="M17.06,4.002l0.049,0.004l0.047,0.006l0.048,0.009l0.047,0.011l0.047,0.013l0.045,0.016l0.045,0.017l0.044,0.02l0.043,0.022l0.042,0.024l0.041,0.026l0.04,0.028l0.038,0.03l0.036,0.032l0.035,0.033l1.59,1.59l0.05,0.051l0.052,0.056l0.05,0.057l0.049,0.059l0.047,0.059l0.046,0.06l0.044,0.061l0.042,0.063l0.04,0.062l0.039,0.064l0.037,0.065l0.035,0.065l0.034,0.065l0.031,0.067l0.03,0.067l0.029,0.068l0.027,0.068l0.024,0.068l0.024,0.069l0.021,0.07l0.02,0.07l0.018,0.07l0.016,0.07l0.015,0.071l0.013,0.071l0.011,0.071l0.009,0.072l0.008,0.071l0.006,0.072l0.004,0.071l0.003,0.072l0.001,0.072l-0.001,0.072l-0.003,0.072l-0.004,0.071l-0.006,0.072l-0.008,0.071l-0.009,0.072l-0.011,0.071l-0.013,0.071l-0.015,0.071l-0.016,0.07l-0.018,0.07l-0.02,0.07l-0.021,0.07l-0.024,0.069l-0.024,0.068l-0.027,0.069l-0.029,0.067l-0.03,0.067l-0.031,0.067l-0.034,0.065l-0.035,0.065l-0.037,0.065l-0.039,0.064l-0.04,0.063l-0.042,0.062l-0.044,0.061l-0.046,0.06l-0.047,0.059l-0.049,0.059l-0.05,0.057l-0.052,0.056l-0.05,0.051l-1.59,1.59l-0.035,0.033l-0.036,0.032l-0.038,0.03l-0.04,0.028l-0.041,0.026l-0.042,0.024l-0.043,0.022l-0.044,0.02l-0.045,0.017l-0.045,0.016l-0.047,0.013l-0.047,0.011l-0.048,0.009l-0.047,0.006l-0.049,0.004l-0.048,0.002l-0.048,-0.001l-0.048,-0.003l-0.049,-0.005l-0.047,-0.007l-0.048,-0.01l-0.046,-0.012l-0.046,-0.015l-0.046,-0.016l-0.044,-0.019l-0.044,-0.021l-0.043,-0.023l-0.041,-0.025l-0.04,-0.027l-0.039,-0.029l-0.037,-0.031l-0.036,-0.032l-0.034,-0.034l-0.032,-0.036l-0.031,-0.037l-0.029,-0.039l-0.027,-0.04l-0.025,-0.041l-0.023,-0.043l-0.021,-0.044l-0.019,-0.044l-0.016,-0.046l-0.015,-0.046l-0.012,-0.046l-0.01,-0.048l-0.007,-0.047l-0.005,-0.049l-0.003,-0.048l-0.001,-0.048l0.002,-0.048l0.004,-0.049l0.006,-0.047l0.009,-0.048l0.011,-0.047l0.013,-0.047l0.016,-0.045l0.017,-0.045l0.02,-0.044l0.022,-0.043l0.024,-0.042l0.026,-0.041l0.028,-0.04l0.03,-0.038l0.032,-0.036l0.033,-0.035l1.581,-1.581l0.023,-0.024l0.018,-0.019l0.017,-0.019l0.016,-0.02l0.016,-0.02l0.015,-0.02l0.015,-0.02l0.014,-0.021l0.013,-0.02l0.013,-0.021l0.012,-0.022l0.011,-0.021l0.012,-0.022l0.01,-0.022l0.01,-0.022l0.009,-0.022l0.009,-0.023l0.008,-0.022l0.008,-0.023l0.007,-0.024l0.007,-0.023l0.006,-0.023l0.005,-0.024l0.005,-0.023l0.004,-0.024l0.004,-0.024l0.003,-0.024l0.003,-0.024l0.002,-0.024l0.001,-0.024l0.001,-0.024l0.001,-0.024l-0.001,-0.024l-0.001,-0.024l-0.001,-0.024l-0.002,-0.024l-0.003,-0.024l-0.003,-0.024l-0.004,-0.024l-0.004,-0.024l-0.005,-0.023l-0.005,-0.024l-0.006,-0.023l-0.007,-0.023l-0.007,-0.024l-0.008,-0.023l-0.008,-0.022l-0.009,-0.023l-0.009,-0.022l-0.01,-0.022l-0.01,-0.022l-0.012,-0.022l-0.011,-0.021l-0.012,-0.022l-0.013,-0.021l-0.014,-0.02l-0.013,-0.021l-0.015,-0.02l-0.015,-0.02l-0.016,-0.02l-0.016,-0.02l-0.017,-0.019l-0.018,-0.019l-0.023,-0.024l-1.581,-1.581l-0.033,-0.035l-0.032,-0.036l-0.03,-0.038l-0.028,-0.04l-0.026,-0.041l-0.024,-0.042l-0.022,-0.043l-0.02,-0.044l-0.017,-0.045l-0.016,-0.045l-0.013,-0.047l-0.011,-0.047l-0.009,-0.048l-0.006,-0.047l-0.004,-0.049l-0.002,-0.048l0.001,-0.048l0.003,-0.048l0.005,-0.049l0.007,-0.047l0.01,-0.048l0.012,-0.046l0.015,-0.046l0.016,-0.046l0.019,-0.044l0.021,-0.044l0.023,-0.043l0.025,-0.041l0.027,-0.04l0.029,-0.039l0.031,-0.037l0.032,-0.036l0.034,-0.034l0.036,-0.032l0.037,-0.031l0.039,-0.029l0.04,-0.027l0.041,-0.025l0.043,-0.023l0.044,-0.021l0.044,-0.019l0.046,-0.016l0.046,-0.015l0.046,-0.012l0.048,-0.01l0.047,-0.007l0.049,-0.005l0.048,-0.003l0.048,-0.001l0.048,0.002Z" style="fill:#f00;"/><path d="M29.036,4.001l0.048,0.003l0.049,0.005l0.047,0.007l0.048,0.01l0.046,0.012l0.046,0.015l0.046,0.016l0.044,0.019l0.044,0.021l0.043,0.023l0.041,0.025l0.04,0.027l0.039,0.029l0.037,0.031l0.036,0.032l0.034,0.034l0.032,0.036l0.031,0.037l0.029,0.039l0.027,0.04l0.025,0.041l0.023,0.043l0.021,0.044l0.019,0.044l0.016,0.046l0.015,0.046l0.012,0.046l0.01,0.048l0.007,0.047l0.005,0.049l0.003,0.048l0.001,0.048l-0.002,0.048l-0.004,0.049l-0.006,0.047l-0.009,0.048l-0.011,0.047l-0.013,0.047l-0.016,0.045l-0.017,0.045l-0.02,0.044l-0.022,0.043l-0.024,0.042l-0.026,0.041l-0.028,0.04l-0.03,0.038l-0.032,0.036l-0.033,0.035l-1.581,1.581l-0.023,0.024l-0.018,0.019l-0.017,0.019l-0.016,0.02l-0.016,0.02l-0.015,0.02l-0.015,0.02l-0.013,0.021l-0.014,0.02l-0.013,0.021l-0.012,0.022l-0.011,0.021l-0.012,0.022l-0.01,0.022l-0.01,0.022l-0.009,0.022l-0.009,0.023l-0.008,0.022l-0.008,0.023l-0.007,0.024l-0.007,0.023l-0.006,0.023l-0.005,0.024l-0.005,0.023l-0.004,0.024l-0.004,0.024l-0.003,0.024l-0.003,0.024l-0.002,0.024l-0.001,0.024l-0.001,0.024l-0.001,0.024l0.001,0.024l0.001,0.024l0.001,0.024l0.002,0.024l0.003,0.024l0.003,0.024l0.004,0.024l0.004,0.024l0.005,0.023l0.005,0.024l0.006,0.023l0.007,0.023l0.007,0.024l0.008,0.023l0.008,0.022l0.009,0.023l0.009,0.022l0.01,0.022l0.01,0.022l0.012,0.022l0.011,0.021l0.012,0.022l0.013,0.021l0.013,0.02l0.014,0.021l0.015,0.02l0.015,0.02l0.016,0.02l0.016,0.02l0.017,0.019l0.018,0.019l0.023,0.024l1.581,1.581l0.033,0.035l0.032,0.036l0.03,0.038l0.028,0.04l0.026,0.041l0.024,0.042l0.022,0.043l0.02,0.044l0.017,0.045l0.016,0.045l0.013,0.047l0.011,0.047l0.009,0.048l0.006,0.047l0.004,0.049l0.002,0.048l-0.001,0.048l-0.003,0.048l-0.005,0.049l-0.007,0.047l-0.01,0.048l-0.012,0.046l-0.015,0.046l-0.016,0.046l-0.019,0.044l-0.021,0.044l-0.023,0.043l-0.025,0.041l-0.027,0.04l-0.029,0.039l-0.031,0.037l-0.032,0.036l-0.034,0.034l-0.036,0.032l-0.037,0.031l-0.039,0.029l-0.04,0.027l-0.041,0.025l-0.043,0.023l-0.044,0.021l-0.044,0.019l-0.046,0.016l-0.046,0.015l-0.046,0.012l-0.048,0.01l-0.047,0.007l-0.049,0.005l-0.048,0.003l-0.048,0.001l-0.048,-0.002l-0.049,-0.004l-0.047,-0.006l-0.048,-0.009l-0.047,-0.011l-0.047,-0.013l-0.045,-0.016l-0.045,-0.017l-0.044,-0.02l-0.043,-0.022l-0.042,-0.024l-0.041,-0.026l-0.04,-0.028l-0.038,-0.03l-0.036,-0.032l-0.035,-0.033l-1.59,-1.59l-0.05,-0.051l-0.052,-0.056l-0.05,-0.057l-0.049,-0.059l-0.047,-0.059l-0.046,-0.06l-0.044,-0.061l-0.042,-0.062l-0.04,-0.063l-0.039,-0.064l-0.037,-0.065l-0.035,-0.065l-0.034,-0.065l-0.031,-0.067l-0.03,-0.067l-0.029,-0.067l-0.027,-0.069l-0.024,-0.068l-0.024,-0.069l-0.021,-0.07l-0.02,-0.07l-0.018,-0.07l-0.016,-0.07l-0.015,-0.071l-0.013,-0.071l-0.011,-0.071l-0.009,-0.072l-0.008,-0.071l-0.006,-0.072l-0.004,-0.071l-0.003,-0.072l-0.001,-0.072l0.001,-0.072l0.003,-0.072l0.004,-0.071l0.006,-0.072l0.008,-0.071l0.009,-0.072l0.011,-0.071l0.013,-0.071l0.015,-0.071l0.016,-0.07l0.018,-0.07l0.02,-0.07l0.021,-0.07l0.024,-0.069l0.024,-0.068l0.027,-0.068l0.029,-0.068l0.03,-0.067l0.031,-0.067l0.034,-0.065l0.035,-0.065l0.037,-0.065l0.039,-0.064l0.04,-0.062l0.042,-0.063l0.044,-0.061l0.046,-0.06l0.047,-0.059l0.049,-0.059l0.05,-0.057l0.052,-0.056l0.05,-0.051l1.59,-1.59l0.035,-0.033l0.036,-0.032l0.038,-0.03l0.04,-0.028l0.041,-0.026l0.042,-0.024l0.043,-0.022l0.044,-0.02l0.045,-0.017l0.045,-0.016l0.047,-0.013l0.047,-0.011l0.048,-0.009l0.047,-0.006l0.049,-0.004l0.048,-0.002l0.048,0.001Z" style="fill:#f00;"/><path d="M23.072,9.829l0.072,0.003l0.071,0.004l0.072,0.006l0.071,0.008l0.072,0.009l0.071,0.011l0.071,0.013l0.071,0.015l0.07,0.016l0.071,0.018l0.069,0.02l0.07,0.021l0.069,0.024l0.068,0.024l0.069,0.027l0.067,0.028l0.067,0.031l0.067,0.031l0.065,0.034l0.065,0.035l0.065,0.037l0.064,0.039l0.062,0.04l0.063,0.042l0.061,0.044l0.06,0.046l0.059,0.047l0.059,0.049l0.057,0.05l0.056,0.052l0.051,0.05l1.59,1.59l0.033,0.035l0.032,0.036l0.03,0.038l0.028,0.04l0.026,0.041l0.024,0.042l0.022,0.043l0.02,0.044l0.017,0.045l0.016,0.045l0.013,0.047l0.011,0.047l0.009,0.048l0.006,0.047l0.004,0.049l0.002,0.048l-0.001,0.048l-0.003,0.048l-0.005,0.049l-0.007,0.047l-0.01,0.048l-0.012,0.046l-0.015,0.046l-0.016,0.046l-0.019,0.044l-0.021,0.044l-0.023,0.043l-0.025,0.041l-0.027,0.04l-0.029,0.039l-0.031,0.037l-0.032,0.036l-0.034,0.034l-0.036,0.032l-0.037,0.031l-0.039,0.029l-0.04,0.027l-0.041,0.025l-0.043,0.023l-0.044,0.021l-0.044,0.019l-0.046,0.016l-0.046,0.015l-0.046,0.012l-0.048,0.01l-0.047,0.007l-0.049,0.005l-0.048,0.003l-0.048,0.001l-0.048,-0.002l-0.049,-0.004l-0.047,-0.006l-0.048,-0.009l-0.047,-0.011l-0.047,-0.013l-0.045,-0.016l-0.045,-0.017l-0.044,-0.02l-0.043,-0.022l-0.042,-0.024l-0.041,-0.026l-0.04,-0.028l-0.038,-0.03l-0.036,-0.032l-0.035,-0.033l-1.582,-1.581l-0.023,-0.023l-0.019,-0.018l-0.019,-0.017l-0.02,-0.016l-0.02,-0.016l-0.02,-0.015l-0.02,-0.015l-0.021,-0.013l-0.02,-0.014l-0.021,-0.013l-0.022,-0.012l-0.021,-0.012l-0.022,-0.011l-0.022,-0.01l-0.022,-0.01l-0.022,-0.009l-0.023,-0.009l-0.022,-0.008l-0.023,-0.008l-0.023,-0.007l-0.024,-0.007l-0.023,-0.006l-0.024,-0.005l-0.023,-0.005l-0.024,-0.004l-0.024,-0.004l-0.024,-0.003l-0.024,-0.003l-0.024,-0.002l-0.024,-0.001l-0.024,-0.001l-0.024,-0.001l-0.024,0.001l-0.024,0.001l-0.024,0.001l-0.024,0.002l-0.024,0.003l-0.024,0.003l-0.024,0.004l-0.024,0.004l-0.023,0.005l-0.024,0.005l-0.023,0.006l-0.024,0.007l-0.023,0.007l-0.023,0.008l-0.022,0.008l-0.023,0.009l-0.022,0.009l-0.022,0.01l-0.022,0.01l-0.022,0.011l-0.021,0.012l-0.022,0.012l-0.021,0.013l-0.02,0.014l-0.021,0.013l-0.02,0.015l-0.02,0.015l-0.02,0.016l-0.02,0.016l-0.019,0.017l-0.019,0.018l-0.023,0.023l-1.582,1.581l-0.035,0.033l-0.036,0.032l-0.038,0.03l-0.04,0.028l-0.041,0.026l-0.042,0.024l-0.043,0.022l-0.044,0.02l-0.045,0.017l-0.045,0.016l-0.047,0.013l-0.047,0.011l-0.048,0.009l-0.047,0.006l-0.049,0.004l-0.048,0.002l-0.048,-0.001l-0.048,-0.003l-0.049,-0.005l-0.047,-0.007l-0.048,-0.01l-0.046,-0.012l-0.046,-0.015l-0.046,-0.016l-0.044,-0.019l-0.044,-0.021l-0.043,-0.023l-0.041,-0.025l-0.04,-0.027l-0.039,-0.029l-0.037,-0.031l-0.036,-0.032l-0.034,-0.034l-0.032,-0.036l-0.031,-0.037l-0.029,-0.039l-0.027,-0.04l-0.025,-0.041l-0.023,-0.043l-0.021,-0.044l-0.019,-0.044l-0.016,-0.046l-0.015,-0.046l-0.012,-0.046l-0.01,-0.048l-0.007,-0.047l-0.005,-0.049l-0.003,-0.048l-0.001,-0.048l0.002,-0.048l0.004,-0.049l0.006,-0.047l0.009,-0.048l0.011,-0.047l0.013,-0.047l0.016,-0.045l0.017,-0.045l0.02,-0.044l0.022,-0.043l0.024,-0.042l0.026,-0.041l0.028,-0.04l0.03,-0.038l0.032,-0.036l0.033,-0.035l1.59,-1.59l0.051,-0.05l0.056,-0.052l0.057,-0.05l0.059,-0.049l0.059,-0.047l0.06,-0.046l0.061,-0.044l0.063,-0.042l0.062,-0.04l0.064,-0.039l0.065,-0.037l0.065,-0.035l0.065,-0.034l0.067,-0.031l0.067,-0.031l0.067,-0.028l0.069,-0.027l0.068,-0.024l0.069,-0.024l0.07,-0.021l0.069,-0.02l0.071,-0.018l0.07,-0.016l0.071,-0.015l0.071,-0.013l0.071,-0.011l0.072,-0.009l0.071,-0.008l0.072,-0.006l0.071,-0.004l0.072,-0.003l0.072,-0.001l0.072,0.001Z" style="fill:#f00;"/><path d="M26.036,2.001l0.048,0.003l0.049,0.005l0.047,0.007l0.048,0.01l0.046,0.012l0.046,0.015l0.046,0.016l0.044,0.019l0.044,0.021l0.043,0.023l0.041,0.025l0.04,0.027l0.039,0.029l0.037,0.031l0.036,0.032l0.034,0.034l0.032,0.036l0.031,0.037l0.029,0.039l0.027,0.04l0.025,0.041l0.023,0.043l0.021,0.044l0.019,0.044l0.016,0.046l0.015,0.046l0.012,0.046l0.01,0.048l0.007,0.047l0.005,0.049l0.003,0.048l0.001,0.048l-0.002,0.048l-0.004,0.049l-0.006,0.047l-0.009,0.048l-0.011,0.047l-0.013,0.047l-0.016,0.045l-0.017,0.045l-0.02,0.044l-0.022,0.043l-0.024,0.042l-0.026,0.041l-0.028,0.04l-0.03,0.038l-0.032,0.036l-0.033,0.035l-1.59,1.59l-0.051,0.05l-0.056,0.052l-0.057,0.05l-0.059,0.049l-0.059,0.047l-0.06,0.046l-0.061,0.044l-0.063,0.042l-0.062,0.04l-0.064,0.039l-0.064,0.037l-0.066,0.035l-0.066,0.034l-0.066,0.031l-0.067,0.03l-0.068,0.029l-0.068,0.027l-0.068,0.024l-0.069,0.024l-0.07,0.021l-0.069,0.02l-0.071,0.018l-0.07,0.016l-0.071,0.015l-0.071,0.013l-0.071,0.011l-0.072,0.009l-0.071,0.008l-0.072,0.006l-0.071,0.004l-0.072,0.003l-0.072,0.001l-0.072,-0.001l-0.072,-0.003l-0.071,-0.004l-0.072,-0.006l-0.071,-0.008l-0.072,-0.009l-0.071,-0.011l-0.071,-0.013l-0.071,-0.015l-0.07,-0.016l-0.071,-0.018l-0.069,-0.02l-0.07,-0.021l-0.069,-0.024l-0.068,-0.024l-0.068,-0.027l-0.068,-0.029l-0.067,-0.03l-0.066,-0.031l-0.066,-0.034l-0.066,-0.035l-0.064,-0.037l-0.064,-0.039l-0.062,-0.04l-0.063,-0.042l-0.061,-0.044l-0.06,-0.046l-0.059,-0.047l-0.059,-0.049l-0.057,-0.05l-0.056,-0.052l-0.051,-0.05l-1.59,-1.59l-0.033,-0.035l-0.032,-0.036l-0.03,-0.038l-0.028,-0.04l-0.026,-0.041l-0.024,-0.042l-0.022,-0.043l-0.02,-0.044l-0.017,-0.045l-0.016,-0.045l-0.013,-0.047l-0.011,-0.047l-0.009,-0.048l-0.006,-0.047l-0.004,-0.049l-0.002,-0.048l0.001,-0.048l0.003,-0.048l0.005,-0.049l0.007,-0.047l0.01,-0.048l0.012,-0.046l0.015,-0.046l0.016,-0.046l0.019,-0.044l0.021,-0.044l0.023,-0.043l0.025,-0.041l0.027,-0.04l0.029,-0.039l0.031,-0.037l0.032,-0.036l0.034,-0.034l0.036,-0.032l0.037,-0.031l0.039,-0.029l0.04,-0.027l0.041,-0.025l0.043,-0.023l0.044,-0.021l0.044,-0.019l0.046,-0.016l0.046,-0.015l0.046,-0.012l0.048,-0.01l0.047,-0.007l0.049,-0.005l0.048,-0.003l0.048,-0.001l0.048,0.002l0.049,0.004l0.047,0.006l0.048,0.009l0.047,0.011l0.047,0.013l0.045,0.016l0.045,0.017l0.044,0.02l0.043,0.022l0.042,0.024l0.041,0.026l0.04,0.028l0.038,0.03l0.036,0.032l0.035,0.033l1.581,1.581l0.024,0.023l0.019,0.018l0.019,0.017l0.02,0.016l0.02,0.016l0.02,0.015l0.02,0.015l0.021,0.013l0.02,0.014l0.021,0.013l0.022,0.012l0.021,0.012l0.022,0.011l0.022,0.01l0.022,0.01l0.022,0.009l0.023,0.009l0.022,0.008l0.023,0.008l0.023,0.007l0.024,0.007l0.023,0.006l0.023,0.005l0.024,0.005l0.024,0.004l0.024,0.004l0.024,0.003l0.024,0.003l0.024,0.002l0.024,0.001l0.024,0.001l0.024,0l0.024,0l0.024,-0.001l0.024,-0.001l0.024,-0.002l0.024,-0.003l0.024,-0.003l0.024,-0.004l0.024,-0.004l0.024,-0.005l0.023,-0.005l0.023,-0.006l0.024,-0.007l0.023,-0.007l0.023,-0.008l0.022,-0.008l0.023,-0.009l0.022,-0.009l0.022,-0.01l0.022,-0.01l0.022,-0.011l0.021,-0.012l0.022,-0.012l0.021,-0.013l0.02,-0.014l0.021,-0.013l0.02,-0.015l0.02,-0.015l0.02,-0.016l0.02,-0.016l0.019,-0.017l0.019,-0.018l0.024,-0.023l1.581,-1.581l0.035,-0.033l0.036,-0.032l0.038,-0.03l0.04,-0.028l0.041,-0.026l0.042,-0.024l0.043,-0.022l0.044,-0.02l0.045,-0.017l0.045,-0.016l0.047,-0.013l0.047,-0.011l0.048,-0.009l0.047,-0.006l0.049,-0.004l0.048,-0.002l0.048,0.001Z" style="fill:#f00;"/></g></svg>