<?xml version="1.0" encoding="UTF-8" standalone="no"?><!DOCTYPE svg PUBLIC "-//W3C//DTD SVG 1.1//EN" "http://www.w3.org/Graphics/SVG/1.1/DTD/svg11.dtd"><svg width="100%" height="100%" viewBox="0 0 32 32" version="1.1" xmlns="http://www.w3.org/2000/svg" xmlns:xlink="http://www.w3.org/1999/xlink" xml:space="preserve" style="fill-rule:evenodd;clip-rule:evenodd;stroke-linejoin:round;stroke-miterlimit:1.41421;">
<metadata>
<rdf:RDF xmlns:cc="http://web.resource.org/cc/"
         xmlns:rdf="http://www.w3.org/1999/02/22-rdf-syntax-ns#"
         xmlns:dc = "http://purl.org/dc/elements/1.1/"
         >

     <rdf:Description rdf:about="">
       <dc:title>Mutant Standard emoji v0.2.3</dc:title>
     </rdf:Description>

    <cc:work rdf:about="">
        <cc:license rdf:resource="http://creativecommons.org/licenses/by-nc-sa/4.0/"/>
        <cc:attributionName>Dzuk</cc:attributionName>
        <cc:attributionURL>http://mutant.tech/</cc:attributionURL>
    </cc:work>

</rdf:RDF>
</metadata>
<rect id="asleep" x="0" y="0" width="32" height="32" style="fill:none;"/><g id="outline"><path d="M21,4.923l0,-2.923l10,0l0,10l-2.351,0c0.198,0.417 0.375,0.844 0.531,1.28c0.366,1.022 0.613,2.086 0.734,3.165c0.051,0.459 0.076,0.92 0.085,1.381c0.003,0.439 0.003,0.877 0,1.316c-0.007,0.374 -0.028,0.747 -0.071,1.119c-0.098,0.86 -0.298,1.708 -0.596,2.521c-0.609,1.663 -1.625,3.169 -2.935,4.36c-1.083,0.984 -2.361,1.749 -3.742,2.236c-0.774,0.272 -1.579,0.457 -2.394,0.55c-0.372,0.043 -0.745,0.064 -1.119,0.071c-2.095,0.013 -4.189,0.013 -6.284,0c-0.374,-0.007 -0.747,-0.028 -1.119,-0.071c-0.815,-0.093 -1.62,-0.278 -2.394,-0.55c-1.713,-0.604 -3.265,-1.637 -4.487,-2.981c-0.954,-1.05 -1.702,-2.283 -2.19,-3.614c-0.282,-0.77 -0.476,-1.571 -0.58,-2.384c-0.053,-0.418 -0.079,-0.836 -0.087,-1.257c-0.003,-0.439 -0.003,-0.877 0,-1.316c0.009,-0.462 0.034,-0.922 0.086,-1.381c0.12,-1.079 0.367,-2.144 0.733,-3.166c0.559,-1.559 1.395,-3.016 2.461,-4.284c1.625,-1.935 3.771,-3.409 6.16,-4.232c0.972,-0.335 1.982,-0.562 3.004,-0.676c0.459,-0.052 0.919,-0.077 1.381,-0.086c0.174,-0.001 0.174,-0.001 0.348,0c0.462,0.009 0.922,0.034 1.381,0.086c1.079,0.12 2.143,0.367 3.165,0.733c0.094,0.033 0.187,0.068 0.28,0.103Z"/></g><g id="emoji"><path d="M28,18c0,-3.183 -1.264,-6.235 -3.515,-8.485c-2.25,-2.251 -5.302,-3.515 -8.485,-3.515c0,0 0,0 0,0c-3.183,0 -6.235,1.264 -8.485,3.515c-2.251,2.25 -3.515,5.302 -3.515,8.485c0,0.335 0,0.669 0,1c0,4.971 4.029,9 9,9c1.962,0 4.038,0 6,0c4.971,0 9,-4.029 9,-9c0,-0.331 0,-0.665 0,-1Z" style="fill:#fbc546;"/><path d="M20.303,23.606c0.149,0.299 0.133,0.653 -0.042,0.937c-0.175,0.284 -0.485,0.457 -0.819,0.457c-1.876,0 -5.008,0 -6.884,0c-0.334,0 -0.644,-0.173 -0.819,-0.457c-0.175,-0.284 -0.191,-0.638 -0.042,-0.937c0,0 0,0 0,-0.001c0.492,-0.984 1.498,-1.605 2.598,-1.605c1.047,0 2.363,0 3.41,0c1.1,0 2.106,0.621 2.598,1.605c0,0.001 0,0.001 0,0.001Z"/><path d="M23.05,16.001c0.146,0.01 0.288,0.046 0.418,0.115c0.321,0.17 0.528,0.511 0.532,0.874c0.001,0.106 -0.015,0.212 -0.047,0.313c-0.049,0.154 -0.135,0.288 -0.246,0.404l-2.707,2.707c-0.912,-0.912 -1.841,-1.806 -2.735,-2.736c-0.026,-0.029 -0.051,-0.06 -0.075,-0.092c-0.084,-0.121 -0.144,-0.253 -0.172,-0.398c-0.025,-0.131 -0.024,-0.266 0.004,-0.395c0.024,-0.117 0.07,-0.229 0.134,-0.33c0.188,-0.294 0.525,-0.473 0.874,-0.463c0.093,0.003 0.185,0.019 0.273,0.047c0.154,0.049 0.288,0.135 0.404,0.246l1.293,1.293c0.44,-0.441 0.873,-0.889 1.322,-1.321c0.029,-0.026 0.06,-0.051 0.092,-0.075c0.167,-0.116 0.353,-0.179 0.556,-0.19c0.04,0 0.04,0 0.08,0.001Z" style="fill-rule:nonzero;"/><path d="M13.05,16.001c0.146,0.01 0.288,0.046 0.418,0.115c0.321,0.17 0.528,0.511 0.532,0.874c0.001,0.106 -0.015,0.212 -0.047,0.313c-0.049,0.154 -0.135,0.288 -0.246,0.404l-2.707,2.707c-0.912,-0.912 -1.841,-1.806 -2.735,-2.736c-0.026,-0.029 -0.051,-0.06 -0.075,-0.092c-0.092,-0.132 -0.155,-0.278 -0.179,-0.437c-0.014,-0.092 -0.015,-0.186 -0.003,-0.278c0.045,-0.346 0.275,-0.651 0.596,-0.789c0.109,-0.047 0.227,-0.075 0.346,-0.081c0.133,-0.006 0.266,0.014 0.391,0.059c0.139,0.05 0.26,0.131 0.366,0.233l1.293,1.293c0.44,-0.441 0.873,-0.889 1.322,-1.321c0.029,-0.026 0.06,-0.051 0.092,-0.075c0.167,-0.116 0.353,-0.179 0.556,-0.19c0.04,0 0.04,0 0.08,0.001Z" style="fill-rule:nonzero;"/><path d="M16,9l0,-2l6,0l0,1.414l-2.586,2.586l2.586,0l0,2l-6,0l0,-1.414l2.586,-2.586l-2.586,0Z" style="fill:#1d5dff;"/><path d="M23,6l0,-2l6,0l0,1.414l-2.586,2.586l2.586,0l0,2l-6,0l0,-1.414l2.586,-2.586l-2.586,0Z" style="fill:#1d5dff;"/></g></svg>