<?xml version="1.0" encoding="UTF-8" standalone="no"?><!DOCTYPE svg PUBLIC "-//W3C//DTD SVG 1.1//EN" "http://www.w3.org/Graphics/SVG/1.1/DTD/svg11.dtd"><svg width="100%" height="100%" viewBox="0 0 32 32" version="1.1" xmlns="http://www.w3.org/2000/svg" xmlns:xlink="http://www.w3.org/1999/xlink" xml:space="preserve" style="fill-rule:evenodd;clip-rule:evenodd;stroke-linejoin:round;stroke-miterlimit:1.41421;">
<metadata>
<rdf:RDF xmlns:cc="http://web.resource.org/cc/"
         xmlns:rdf="http://www.w3.org/1999/02/22-rdf-syntax-ns#"
         xmlns:dc = "http://purl.org/dc/elements/1.1/"
         >

     <rdf:Description rdf:about="">
       <dc:title>Mutant Standard emoji v0.2.3</dc:title>
     </rdf:Description>

    <cc:work rdf:about="">
        <cc:license rdf:resource="http://creativecommons.org/licenses/by-nc-sa/4.0/"/>
        <cc:attributionName>Dzuk</cc:attributionName>
        <cc:attributionURL>http://mutant.tech/</cc:attributionURL>
    </cc:work>

</rdf:RDF>
</metadata>
<rect id="astonished" x="0" y="0.033" width="32" height="32" style="fill:none;"/><g id="outline"><path d="M16.174,2.034c0.462,0.009 0.922,0.035 1.381,0.086c1.022,0.114 2.032,0.342 3.004,0.677c2.004,0.69 3.842,1.838 5.341,3.337c1.458,1.458 2.585,3.238 3.28,5.179c0.366,1.022 0.613,2.086 0.733,3.165c0.052,0.459 0.077,0.92 0.086,1.382c0.009,1.434 0.009,2.868 0,4.302c-0.006,0.34 -0.025,0.679 -0.064,1.017c-0.085,0.742 -0.253,1.473 -0.501,2.177c-0.548,1.558 -1.488,2.969 -2.71,4.079c-0.954,0.867 -2.075,1.548 -3.286,1.991c-0.739,0.271 -1.51,0.453 -2.292,0.542c-0.338,0.039 -0.677,0.058 -1.017,0.065c-2.753,0.017 -5.505,0.017 -8.258,0c-0.34,-0.007 -0.679,-0.026 -1.017,-0.065c-0.782,-0.089 -1.553,-0.271 -2.292,-0.542c-1.286,-0.471 -2.471,-1.209 -3.462,-2.154c-1.107,-1.056 -1.967,-2.364 -2.493,-3.8c-0.27,-0.74 -0.453,-1.511 -0.542,-2.293c-0.039,-0.338 -0.058,-0.677 -0.064,-1.017c-0.01,-1.436 -0.009,-2.873 0,-4.309c0.009,-0.476 0.036,-0.951 0.09,-1.425c0.119,-1.037 0.354,-2.062 0.701,-3.047c0.656,-1.862 1.712,-3.578 3.074,-5.007c1.478,-1.55 3.309,-2.754 5.32,-3.491c1.035,-0.378 2.114,-0.633 3.209,-0.758c0.473,-0.055 0.948,-0.081 1.425,-0.091c0.177,-0.001 0.176,-0.001 0.354,0Z" style="fill-rule:nonzero;"/></g><g id="emoji"><path d="M28,16.033c0,-3.182 -1.264,-6.234 -3.515,-8.485c-2.25,-2.25 -5.302,-3.515 -8.485,-3.515c0,0 0,0 0,0c-6.627,0 -12,5.373 -12,12c0,1.357 0,2.713 0,4c0,4.419 3.582,8 8,8c2.574,0 5.426,0 8,0c4.418,0 8,-3.581 8,-8c0,-1.287 0,-2.643 0,-4Z" style="fill:#fbc546;"/><clipPath id="_clip1"><path d="M28,16.033c0,-3.182 -1.264,-6.234 -3.515,-8.485c-2.25,-2.25 -5.302,-3.515 -8.485,-3.515c0,0 0,0 0,0c-6.627,0 -12,5.373 -12,12c0,1.357 0,2.713 0,4c0,4.419 3.582,8 8,8c2.574,0 5.426,0 8,0c4.418,0 8,-3.581 8,-8c0,-1.287 0,-2.643 0,-4Z"/></clipPath><g clip-path="url(#_clip1)"><path d="M26,8.5c0,-0.398 -0.158,-0.779 -0.439,-1.061c-0.282,-0.281 -0.663,-0.439 -1.061,-0.439c-0.398,0 -0.779,0.158 -1.061,0.439c-0.281,0.282 -0.439,0.663 -0.439,1.061c0,1.181 0,2.819 0,4c0,0.398 0.158,0.779 0.439,1.061c0.282,0.281 0.663,0.439 1.061,0.439c0.398,0 0.779,-0.158 1.061,-0.439c0.281,-0.282 0.439,-0.663 0.439,-1.061c0,-1.181 0,-2.819 0,-4Z" style="fill:#579aff;"/><path d="M22,6.5c0,-0.398 -0.158,-0.779 -0.439,-1.061c-0.282,-0.281 -0.663,-0.439 -1.061,-0.439c-0.001,0 -0.001,0 -0.002,0c-0.827,0 -1.498,0.671 -1.498,1.498c0,1.43 0,3.574 0,5.004c0,0.827 0.671,1.498 1.498,1.498c0.001,0 0.001,0 0.002,0c0.398,0 0.779,-0.158 1.061,-0.439c0.281,-0.282 0.439,-0.663 0.439,-1.061c0,-1.43 0,-3.57 0,-5Z" style="fill:#579aff;"/><path d="M18,5.5c0,-0.398 -0.158,-0.779 -0.439,-1.061c-0.282,-0.281 -0.663,-0.439 -1.061,-0.439c-0.398,0 -0.779,0.158 -1.061,0.439c-0.281,0.282 -0.439,0.663 -0.439,1.061c0,1.43 0,3.57 0,5c0,0.398 0.158,0.779 0.439,1.061c0.282,0.281 0.663,0.439 1.061,0.439c0.398,0 0.779,-0.158 1.061,-0.439c0.281,-0.282 0.439,-0.663 0.439,-1.061c0,-1.43 0,-3.57 0,-5Z" style="fill:#579aff;"/></g><path d="M12,13.515c0,-0.397 -0.158,-0.779 -0.439,-1.06c-0.282,-0.282 -0.663,-0.44 -1.061,-0.44c-0.398,0 -0.779,0.158 -1.061,0.44c-0.281,0.281 -0.439,0.663 -0.439,1.06c0,0.006 0,0.012 0,0.018c0,0.398 0.158,0.78 0.439,1.061c0.282,0.281 0.663,0.439 1.061,0.439c0.398,0 0.779,-0.158 1.061,-0.439c0.281,-0.281 0.439,-0.663 0.439,-1.061c0,-0.006 0,-0.012 0,-0.018Z"/><path d="M19,19.033c0,-1.656 -1.343,-3 -3,-3c-1.657,0 -3,1.344 -3,3c0,0.654 0,1.346 0,2c0,1.657 1.343,3 3,3c1.657,0 3,-1.343 3,-3c0,-0.654 0,-1.346 0,-2Z"/><path d="M23,13.515c0,-0.397 -0.158,-0.779 -0.439,-1.06c-0.282,-0.282 -0.663,-0.44 -1.061,-0.44c-0.001,0 -0.001,0 -0.002,0c-0.827,0 -1.498,0.671 -1.498,1.498c0,0.008 0,0.015 0,0.022c0,0.828 0.671,1.498 1.498,1.498c0.001,0 0.003,0 0.004,0c0.827,0 1.498,-0.67 1.498,-1.498c0,-0.006 0,-0.013 0,-0.02Z"/></g></svg>