<?xml version="1.0" encoding="UTF-8" standalone="no"?><!DOCTYPE svg PUBLIC "-//W3C//DTD SVG 1.1//EN" "http://www.w3.org/Graphics/SVG/1.1/DTD/svg11.dtd"><svg width="100%" height="100%" viewBox="0 0 32 32" version="1.1" xmlns="http://www.w3.org/2000/svg" xmlns:xlink="http://www.w3.org/1999/xlink" xml:space="preserve" style="fill-rule:evenodd;clip-rule:evenodd;stroke-linejoin:round;stroke-miterlimit:1.41421;">
<metadata>
<rdf:RDF xmlns:cc="http://web.resource.org/cc/"
         xmlns:rdf="http://www.w3.org/1999/02/22-rdf-syntax-ns#"
         xmlns:dc = "http://purl.org/dc/elements/1.1/"
         >

     <rdf:Description rdf:about="">
       <dc:title>Mutant Standard emoji v0.2.3</dc:title>
     </rdf:Description>

    <cc:work rdf:about="">
        <cc:license rdf:resource="http://creativecommons.org/licenses/by-nc-sa/4.0/"/>
        <cc:attributionName>Dzuk</cc:attributionName>
        <cc:attributionURL>http://mutant.tech/</cc:attributionURL>
    </cc:work>

</rdf:RDF>
</metadata>
<rect id="bandaged" x="0" y="0" width="32" height="32" style="fill:none;"/><g id="outline"><path d="M16.174,3.001c0.462,0.009 0.922,0.034 1.381,0.086c1.079,0.12 2.143,0.367 3.165,0.733c2.106,0.754 4.019,2.016 5.541,3.656c1.323,1.425 2.342,3.126 2.976,4.965c0.335,0.972 0.562,1.982 0.676,3.004c0.052,0.459 0.077,0.919 0.086,1.381c0.007,1.101 0.007,2.202 0,3.303c-0.006,0.34 -0.025,0.679 -0.064,1.017c-0.085,0.741 -0.253,1.473 -0.501,2.177c-0.469,1.33 -1.222,2.556 -2.195,3.577c-1.056,1.107 -2.364,1.967 -3.801,2.493c-0.699,0.256 -1.428,0.433 -2.167,0.527c-0.379,0.048 -0.76,0.072 -1.142,0.079c-2.753,0.018 -5.505,0.018 -8.258,0c-0.382,-0.007 -0.763,-0.031 -1.142,-0.079c-0.739,-0.094 -1.468,-0.271 -2.167,-0.527c-1.437,-0.526 -2.745,-1.386 -3.801,-2.493c-0.973,-1.021 -1.726,-2.247 -2.195,-3.577c-0.248,-0.704 -0.416,-1.436 -0.501,-2.177c-0.039,-0.338 -0.058,-0.677 -0.064,-1.017c-0.007,-1.101 -0.007,-2.202 0,-3.303c0.01,-0.519 0.042,-1.037 0.106,-1.552c0.134,-1.077 0.393,-2.138 0.771,-3.155c0.78,-2.097 2.067,-3.995 3.725,-5.497c1.442,-1.305 3.154,-2.303 5,-2.913c0.977,-0.324 1.989,-0.539 3.013,-0.641c0.458,-0.045 0.918,-0.065 1.378,-0.068c0.06,0 0.12,0.001 0.18,0.001Z" style="fill-rule:nonzero;"/></g><g id="emoji"><path d="M28,17c0,-3.183 -1.264,-6.235 -3.515,-8.485c-2.25,-2.251 -5.302,-3.515 -8.485,-3.515c0,0 0,0 0,0c-3.183,0 -6.235,1.264 -8.485,3.515c-2.251,2.25 -3.515,5.302 -3.515,8.485c0,1.016 0,2.026 0,3c0,4.418 3.582,8 8,8c2.574,0 5.426,0 8,0c4.418,0 8,-3.582 8,-8c0,-0.974 0,-1.984 0,-3Z" style="fill:#fbc546;"/><clipPath id="_clip1"><path d="M28,17c0,-3.183 -1.264,-6.235 -3.515,-8.485c-2.25,-2.251 -5.302,-3.515 -8.485,-3.515c0,0 0,0 0,0c-3.183,0 -6.235,1.264 -8.485,3.515c-2.251,2.25 -3.515,5.302 -3.515,8.485c0,1.016 0,2.026 0,3c0,4.418 3.582,8 8,8c2.574,0 5.426,0 8,0c4.418,0 8,-3.582 8,-8c0,-0.974 0,-1.984 0,-3Z"/></clipPath><g clip-path="url(#_clip1)"><path d="M20.059,20.002l0.059,0.005l0.059,0.009l0.058,0.012l0.057,0.016l0.056,0.019l0.055,0.022l0.054,0.025l0.052,0.029l0.05,0.032l0.048,0.034l0.046,0.037l0.044,0.04l0.041,0.043l0.039,0.045l0.035,0.047l0.034,0.049l0.03,0.051l0.027,0.053l0.024,0.054l0.02,0.056l0.018,0.056l0.014,0.058l0.01,0.058l0.007,0.059l0.004,0.059l0,0.06l-0.004,0.059l-0.007,0.059l-0.01,0.058l-0.014,0.058l-0.018,0.056l-0.02,0.056l-0.024,0.054l-0.027,0.053l-0.03,0.051l-0.034,0.049l-0.035,0.047l-0.039,0.045l-0.041,0.043l-0.044,0.04l-0.046,0.037l-0.048,0.034l-0.05,0.032l-0.052,0.029l-0.054,0.025l-0.055,0.022l-0.056,0.019l-0.057,0.016l-0.058,0.012l-0.059,0.009l-0.059,0.005l-0.059,0.002l-4.576,0l-0.063,0l-0.06,0.002l-0.06,0.001l-0.06,0.003l-0.06,0.003l-0.06,0.004l-0.059,0.005l-0.06,0.006l-0.059,0.006l-0.059,0.007l-0.059,0.008l-0.059,0.008l-0.059,0.009l-0.059,0.01l-0.058,0.011l-0.058,0.011l-0.059,0.012l-0.058,0.013l-0.057,0.013l-0.058,0.014l-0.057,0.015l-0.057,0.015l-0.057,0.017l-0.057,0.016l-0.056,0.018l-0.057,0.018l-0.056,0.019l-0.056,0.02l-0.055,0.02l-0.055,0.021l-0.055,0.022l-0.055,0.022l-0.054,0.023l-0.055,0.023l-0.054,0.025l-0.053,0.025l-0.053,0.025l-0.053,0.026l-0.053,0.027l-0.052,0.028l-0.052,0.028l-0.052,0.029l-0.052,0.029l-0.051,0.03l-0.05,0.031l-0.05,0.031l-0.05,0.032l-0.05,0.033l-0.049,0.033l-0.049,0.034l-0.048,0.035l-0.048,0.035l-0.048,0.035l-0.047,0.037l-0.047,0.037l-0.046,0.037l-0.046,0.038l-0.046,0.039l-0.045,0.04l-0.045,0.039l-0.044,0.041l-0.044,0.041l-0.043,0.042l-0.045,0.044l-0.286,0.286l-0.043,0.041l-0.045,0.038l-0.048,0.035l-0.05,0.032l-0.051,0.03l-0.053,0.026l-0.055,0.023l-0.056,0.02l-0.057,0.016l-0.058,0.014l-0.058,0.009l-0.059,0.006l-0.059,0.003l-0.059,-0.001l-0.06,-0.004l-0.058,-0.008l-0.058,-0.012l-0.058,-0.014l-0.056,-0.019l-0.056,-0.021l-0.053,-0.025l-0.053,-0.028l-0.05,-0.03l-0.049,-0.034l-0.047,-0.037l-0.044,-0.039l-0.042,-0.042l-0.039,-0.044l-0.037,-0.047l-0.034,-0.049l-0.03,-0.05l-0.028,-0.053l-0.025,-0.053l-0.021,-0.056l-0.019,-0.056l-0.014,-0.058l-0.012,-0.058l-0.008,-0.058l-0.004,-0.06l-0.001,-0.059l0.003,-0.059l0.006,-0.059l0.009,-0.058l0.014,-0.058l0.016,-0.057l0.02,-0.056l0.023,-0.055l0.026,-0.053l0.03,-0.051l0.032,-0.05l0.035,-0.048l0.038,-0.045l0.041,-0.043l0.29,-0.29l0.058,-0.058l0.061,-0.059l0.062,-0.058l0.063,-0.057l0.063,-0.057l0.064,-0.055l0.064,-0.055l0.065,-0.054l0.065,-0.053l0.067,-0.052l0.066,-0.051l0.068,-0.051l0.068,-0.049l0.068,-0.049l0.069,-0.048l0.069,-0.047l0.07,-0.046l0.071,-0.045l0.071,-0.045l0.072,-0.043l0.072,-0.042l0.072,-0.042l0.073,-0.041l0.074,-0.04l0.074,-0.038l0.074,-0.038l0.075,-0.038l0.075,-0.036l0.076,-0.035l0.076,-0.034l0.077,-0.034l0.077,-0.032l0.077,-0.031l0.078,-0.031l0.078,-0.03l0.078,-0.028l0.079,-0.028l0.079,-0.027l0.08,-0.025l0.079,-0.025l0.08,-0.024l0.081,-0.023l0.081,-0.022l0.081,-0.021l0.081,-0.019l0.082,-0.019l0.081,-0.018l0.082,-0.017l0.083,-0.016l0.083,-0.015l0.082,-0.014l0.083,-0.013l0.084,-0.012l0.083,-0.011l0.084,-0.01l0.084,-0.009l0.084,-0.007l0.084,-0.007l0.084,-0.006l0.085,-0.005l0.084,-0.003l0.085,-0.003l0.085,-0.001l0.082,-0.001l4.582,0l0.059,0.002Z"/><path d="M13,14.057c0,-0.584 -0.473,-1.057 -1.057,-1.057c0,0 -0.001,0 -0.001,0l-2.942,2.942c0,0.034 0,0.068 0,0.102c0,0.519 0.206,1.016 0.573,1.383c0.367,0.367 0.864,0.573 1.383,0.573c0.015,0 0.029,0 0.044,0c0.53,0 1.039,-0.211 1.414,-0.586c0.375,-0.375 0.586,-0.884 0.586,-1.414c0,-0.665 0,-1.378 0,-1.943Z"/><path d="M23,15.942l-2.942,-2.942c0,0 -0.001,0 -0.001,0c-0.584,0 -1.057,0.473 -1.057,1.057c0,0.565 0,1.278 0,1.943c0,0.53 0.211,1.039 0.586,1.414c0.375,0.375 0.884,0.586 1.414,0.586c0.015,0 0.029,0 0.044,0c0.519,0 1.016,-0.206 1.383,-0.573c0.367,-0.367 0.573,-0.864 0.573,-1.383c0,-0.034 0,-0.068 0,-0.102Z"/><path d="M27.683,7.894l-25.577,12.789l-3.289,-6.577l25.577,-12.789c1.097,2.192 2.193,4.385 3.289,6.577Z" style="fill:#808080;fill-rule:nonzero;"/><path d="M1.5,15l22,-11l1.5,3l-22,11l-1.5,-3Z" style="fill:#fff;"/></g></g></svg>