<?xml version="1.0" encoding="UTF-8" standalone="no"?><!DOCTYPE svg PUBLIC "-//W3C//DTD SVG 1.1//EN" "http://www.w3.org/Graphics/SVG/1.1/DTD/svg11.dtd"><svg width="100%" height="100%" viewBox="0 0 32 32" version="1.1" xmlns="http://www.w3.org/2000/svg" xmlns:xlink="http://www.w3.org/1999/xlink" xml:space="preserve" style="fill-rule:evenodd;clip-rule:evenodd;stroke-linecap:round;stroke-miterlimit:2;">
<metadata>
<rdf:RDF xmlns:cc="http://web.resource.org/cc/"
         xmlns:rdf="http://www.w3.org/1999/02/22-rdf-syntax-ns#"
         xmlns:dc = "http://purl.org/dc/elements/1.1/"
         >

     <rdf:Description rdf:about="">
       <dc:title>Mutant Standard emoji v0.2.3</dc:title>
     </rdf:Description>

    <cc:work rdf:about="">
        <cc:license rdf:resource="http://creativecommons.org/licenses/by-nc-sa/4.0/"/>
        <cc:attributionName>Dzuk</cc:attributionName>
        <cc:attributionURL>http://mutant.tech/</cc:attributionURL>
    </cc:work>

</rdf:RDF>
</metadata>
<rect id="blush_kiss" x="0" y="0" width="32" height="32" style="fill:none;"/><g id="outline"><path d="M16.174,2.001c0.462,0.009 0.922,0.034 1.381,0.086c1.079,0.12 2.143,0.367 3.165,0.733c2.051,0.734 3.92,1.951 5.422,3.529c1.381,1.451 2.443,3.198 3.095,5.092c0.335,0.972 0.562,1.982 0.676,3.004c0.052,0.459 0.077,0.919 0.086,1.381c0.009,1.434 0.009,2.869 0,4.303c-0.007,0.382 -0.031,0.763 -0.079,1.142c-0.094,0.739 -0.271,1.468 -0.527,2.167c-0.526,1.437 -1.386,2.745 -2.493,3.8c-1.021,0.974 -2.247,1.728 -3.577,2.196c-0.704,0.248 -1.436,0.416 -2.177,0.501c-0.338,0.039 -0.677,0.058 -1.017,0.064c-2.753,0.018 -5.505,0.018 -8.258,0c-0.382,-0.007 -0.763,-0.031 -1.142,-0.079c-0.739,-0.094 -1.468,-0.271 -2.167,-0.527c-1.362,-0.499 -2.608,-1.297 -3.633,-2.322c-1.054,-1.054 -1.868,-2.342 -2.363,-3.748c-0.248,-0.704 -0.416,-1.436 -0.501,-2.177c-0.039,-0.338 -0.058,-0.677 -0.064,-1.017c-0.009,-1.437 -0.009,-2.873 0,-4.309c0.009,-0.477 0.036,-0.952 0.09,-1.425c0.125,-1.095 0.38,-2.174 0.759,-3.209c0.717,-1.958 1.878,-3.747 3.37,-5.204c1.453,-1.418 3.212,-2.515 5.128,-3.19c1.041,-0.367 2.125,-0.608 3.223,-0.72c0.473,-0.048 0.947,-0.069 1.423,-0.072c0.06,0 0.12,0.001 0.18,0.001Z" style="fill-rule:nonzero;"/></g><g id="emoji"><path d="M28,16c0,-3.183 -1.264,-6.235 -3.515,-8.485c-2.25,-2.251 -5.302,-3.515 -8.485,-3.515c0,0 0,0 0,0c-6.627,0 -12,5.373 -12,12c0,1.356 0,2.713 0,4c0,4.418 3.582,8 8,8c2.574,0 5.426,0 8,0c4.418,0 8,-3.582 8,-8c0,-1.287 0,-2.644 0,-4Z" style="fill:#fbc546;"/><path d="M15,18l4,2l-2,2l2,2l-4,2" style="fill:none;stroke:#000;stroke-width:2px;"/><path d="M20.026,11l0.034,0.002l0.035,0.003l0.034,0.003l0.034,0.005l0.034,0.007l0.034,0.007l0.033,0.009l0.034,0.009l0.032,0.011l0.033,0.012l0.032,0.013l0.031,0.014l0.031,0.016l0.03,0.016l0.03,0.017l0.03,0.019l0.028,0.019l0.028,0.02l0.027,0.022l0.027,0.022l0.025,0.023l0.025,0.024l3,3l0.024,0.025l0.023,0.025l0.022,0.027l0.022,0.027l0.02,0.028l0.019,0.028l0.019,0.03l0.017,0.03l0.016,0.03l0.016,0.031l0.014,0.031l0.013,0.032l0.012,0.033l0.011,0.032l0.009,0.034l0.009,0.033l0.007,0.034l0.007,0.034l0.005,0.034l0.003,0.034l0.003,0.035l0.002,0.034l0,0.035l-0.001,0.034l-0.002,0.035l-0.003,0.034l-0.005,0.034l-0.005,0.034l-0.007,0.034l-0.008,0.034l-0.009,0.033l-0.011,0.033l-0.011,0.033l-0.012,0.032l-0.014,0.031l-0.015,0.032l-0.016,0.03l-0.016,0.03l-0.018,0.03l-0.019,0.029l-0.02,0.028l-0.021,0.028l-0.022,0.027l-0.022,0.026l-0.024,0.025l-0.024,0.024l-0.025,0.024l-0.026,0.022l-0.027,0.022l-0.028,0.021l-0.028,0.02l-0.029,0.019l-0.03,0.018l-0.03,0.016l-0.03,0.016l-0.032,0.015l-0.031,0.014l-0.032,0.012l-0.033,0.011l-0.033,0.011l-0.033,0.009l-0.034,0.008l-0.034,0.007l-0.034,0.005l-0.034,0.005l-0.034,0.003l-0.035,0.002l-0.034,0.001l-0.035,0l-0.034,-0.002l-0.035,-0.003l-0.034,-0.003l-0.034,-0.005l-0.034,-0.007l-0.034,-0.007l-0.033,-0.009l-0.034,-0.009l-0.032,-0.011l-0.033,-0.012l-0.032,-0.013l-0.031,-0.014l-0.031,-0.016l-0.03,-0.016l-0.03,-0.017l-0.03,-0.019l-0.028,-0.019l-0.028,-0.02l-0.027,-0.022l-0.027,-0.022l-0.025,-0.023l-0.025,-0.024l-3,-3l-0.024,-0.025l-0.023,-0.025l-0.022,-0.027l-0.022,-0.027l-0.02,-0.028l-0.019,-0.028l-0.019,-0.03l-0.017,-0.03l-0.016,-0.03l-0.016,-0.031l-0.014,-0.031l-0.013,-0.032l-0.012,-0.033l-0.011,-0.032l-0.009,-0.034l-0.009,-0.033l-0.007,-0.034l-0.007,-0.034l-0.005,-0.034l-0.003,-0.034l-0.003,-0.035l-0.002,-0.034l0,-0.035l0.001,-0.034l0.002,-0.035l0.003,-0.034l0.005,-0.034l0.005,-0.034l0.007,-0.034l0.008,-0.034l0.009,-0.033l0.011,-0.033l0.011,-0.033l0.012,-0.032l0.014,-0.031l0.015,-0.032l0.016,-0.03l0.016,-0.03l0.018,-0.03l0.019,-0.029l0.02,-0.028l0.021,-0.028l0.022,-0.027l0.022,-0.026l0.024,-0.025l0.024,-0.024l0.025,-0.024l0.026,-0.022l0.027,-0.022l0.028,-0.021l0.028,-0.02l0.029,-0.019l0.03,-0.018l0.03,-0.016l0.03,-0.016l0.032,-0.015l0.031,-0.014l0.032,-0.012l0.033,-0.011l0.033,-0.011l0.033,-0.009l0.034,-0.008l0.034,-0.007l0.034,-0.005l0.034,-0.005l0.034,-0.003l0.035,-0.002l0.034,-0.001l0.035,0Z"/><path d="M12.043,11.001l0.035,0.002l0.034,0.003l0.034,0.005l0.034,0.005l0.034,0.007l0.034,0.008l0.033,0.009l0.033,0.011l0.033,0.011l0.032,0.012l0.031,0.014l0.032,0.015l0.03,0.016l0.03,0.016l0.03,0.018l0.029,0.019l0.028,0.02l0.028,0.021l0.027,0.022l0.026,0.022l0.025,0.024l0.024,0.024l0.024,0.025l0.022,0.026l0.022,0.027l0.021,0.028l0.02,0.028l0.019,0.029l0.018,0.03l0.016,0.03l0.016,0.03l0.015,0.032l0.014,0.031l0.012,0.032l0.011,0.033l0.011,0.033l0.009,0.033l0.008,0.034l0.007,0.034l0.005,0.034l0.005,0.034l0.003,0.034l0.002,0.035l0.001,0.034l0,0.035l-0.002,0.034l-0.003,0.035l-0.003,0.034l-0.005,0.034l-0.007,0.034l-0.007,0.034l-0.009,0.033l-0.009,0.034l-0.011,0.032l-0.012,0.033l-0.013,0.032l-0.014,0.031l-0.016,0.031l-0.016,0.03l-0.017,0.03l-0.019,0.03l-0.019,0.028l-0.02,0.028l-0.022,0.027l-0.022,0.027l-0.023,0.025l-0.024,0.025l-3,3l-0.025,0.024l-0.025,0.023l-0.027,0.022l-0.027,0.022l-0.028,0.02l-0.028,0.019l-0.03,0.019l-0.03,0.017l-0.03,0.016l-0.031,0.016l-0.031,0.014l-0.032,0.013l-0.033,0.012l-0.033,0.011l-0.033,0.009l-0.033,0.009l-0.034,0.007l-0.034,0.007l-0.034,0.005l-0.034,0.003l-0.035,0.003l-0.034,0.002l-0.035,0l-0.034,-0.001l-0.035,-0.002l-0.034,-0.003l-0.034,-0.005l-0.034,-0.005l-0.034,-0.007l-0.034,-0.008l-0.033,-0.009l-0.033,-0.011l-0.033,-0.011l-0.032,-0.012l-0.031,-0.014l-0.032,-0.015l-0.03,-0.016l-0.03,-0.016l-0.03,-0.018l-0.029,-0.019l-0.028,-0.02l-0.028,-0.021l-0.027,-0.022l-0.026,-0.022l-0.025,-0.024l-0.024,-0.024l-0.024,-0.025l-0.022,-0.026l-0.022,-0.027l-0.021,-0.028l-0.02,-0.028l-0.019,-0.029l-0.018,-0.03l-0.016,-0.03l-0.016,-0.03l-0.015,-0.032l-0.014,-0.031l-0.012,-0.032l-0.011,-0.033l-0.011,-0.033l-0.009,-0.033l-0.008,-0.034l-0.007,-0.034l-0.005,-0.034l-0.005,-0.034l-0.003,-0.034l-0.002,-0.035l-0.001,-0.034l0,-0.035l0.002,-0.034l0.002,-0.035l0.004,-0.034l0.005,-0.034l0.007,-0.034l0.007,-0.034l0.009,-0.033l0.009,-0.034l0.011,-0.032l0.012,-0.033l0.013,-0.032l0.014,-0.031l0.016,-0.031l0.016,-0.03l0.017,-0.03l0.019,-0.03l0.019,-0.028l0.02,-0.028l0.022,-0.027l0.022,-0.027l0.023,-0.025l0.024,-0.025l3,-3l0.025,-0.024l0.025,-0.023l0.027,-0.022l0.027,-0.022l0.028,-0.02l0.028,-0.019l0.03,-0.019l0.03,-0.017l0.03,-0.016l0.031,-0.016l0.031,-0.014l0.032,-0.013l0.033,-0.012l0.032,-0.011l0.034,-0.009l0.033,-0.009l0.034,-0.007l0.034,-0.007l0.034,-0.005l0.034,-0.003l0.035,-0.003l0.034,-0.002l0.035,0l0.034,0.001Z"/><path d="M27,18.5c0,-0.828 -0.672,-1.5 -1.5,-1.5c-0.916,0 -2.084,0 -3,0c-0.828,0 -1.5,0.672 -1.5,1.5c0,0.828 0.672,1.5 1.5,1.5c0.916,0 2.084,0 3,0c0.828,0 1.5,-0.672 1.5,-1.5c0,0 0,0 0,0Z" style="fill:#ed6b44;"/><path d="M11,18.5c0,-0.828 -0.672,-1.5 -1.5,-1.5c-0.916,0 -2.084,0 -3,0c-0.828,0 -1.5,0.672 -1.5,1.5c0,0.828 0.672,1.5 1.5,1.5c0.916,0 2.084,0 3,0c0.828,0 1.5,-0.672 1.5,-1.5c0,0 0,0 0,0Z" style="fill:#ed6b44;"/></g></svg>