<?xml version="1.0" encoding="UTF-8" standalone="no"?><!DOCTYPE svg PUBLIC "-//W3C//DTD SVG 1.1//EN" "http://www.w3.org/Graphics/SVG/1.1/DTD/svg11.dtd"><svg width="100%" height="100%" viewBox="0 0 32 32" version="1.1" xmlns="http://www.w3.org/2000/svg" xmlns:xlink="http://www.w3.org/1999/xlink" xml:space="preserve" style="fill-rule:evenodd;clip-rule:evenodd;stroke-linejoin:round;stroke-miterlimit:1.41421;">
<metadata>
<rdf:RDF xmlns:cc="http://web.resource.org/cc/"
         xmlns:rdf="http://www.w3.org/1999/02/22-rdf-syntax-ns#"
         xmlns:dc = "http://purl.org/dc/elements/1.1/"
         >

     <rdf:Description rdf:about="">
       <dc:title>Mutant Standard emoji v0.2.3</dc:title>
     </rdf:Description>

    <cc:work rdf:about="">
        <cc:license rdf:resource="http://creativecommons.org/licenses/by-nc-sa/4.0/"/>
        <cc:attributionName>Dzuk</cc:attributionName>
        <cc:attributionURL>http://mutant.tech/</cc:attributionURL>
    </cc:work>

</rdf:RDF>
</metadata>
<rect id="smitten" x="0" y="0" width="32" height="32" style="fill:none;"/><g id="outline"><path d="M16.174,2.001c0.462,0.009 0.922,0.034 1.381,0.086c1.079,0.12 2.143,0.367 3.165,0.733c2.161,0.774 4.118,2.082 5.658,3.783c1.267,1.399 2.244,3.054 2.859,4.838c0.335,0.972 0.562,1.982 0.676,3.004c0.052,0.459 0.077,0.919 0.086,1.381c0.005,0.774 0.005,1.549 0,2.323c-0.007,0.396 -0.029,0.791 -0.073,1.184c-0.098,0.876 -0.293,1.741 -0.58,2.575c-0.559,1.623 -1.469,3.12 -2.653,4.364c-1.287,1.353 -2.889,2.396 -4.647,3.025c-0.876,0.314 -1.788,0.525 -2.713,0.629c-0.394,0.044 -0.788,0.066 -1.184,0.073c-1.433,0.009 -2.865,0.009 -4.298,0c-0.396,-0.007 -0.79,-0.029 -1.184,-0.073c-0.876,-0.098 -1.741,-0.293 -2.575,-0.58c-1.67,-0.576 -3.207,-1.522 -4.471,-2.756c-1.301,-1.269 -2.306,-2.833 -2.918,-4.544c-0.314,-0.876 -0.525,-1.788 -0.629,-2.713c-0.044,-0.394 -0.066,-0.788 -0.073,-1.184c-0.005,-0.776 -0.005,-1.553 0,-2.329c0.01,-0.536 0.044,-1.069 0.111,-1.601c0.132,-1.034 0.38,-2.053 0.738,-3.033c0.717,-1.958 1.878,-3.747 3.37,-5.203c1.453,-1.419 3.212,-2.516 5.128,-3.191c1.041,-0.367 2.125,-0.608 3.223,-0.72c0.473,-0.048 0.947,-0.069 1.423,-0.072c0.06,0 0.12,0.001 0.18,0.001Z" style="fill-rule:nonzero;"/></g><g id="emoji"><path d="M28,16c0,-3.183 -1.264,-6.235 -3.515,-8.485c-2.25,-2.251 -5.302,-3.515 -8.485,-3.515c0,0 0,0 0,0c-6.627,0 -12,5.373 -12,12c0,0.669 0,1.339 0,2c0,2.652 1.054,5.196 2.929,7.071c1.875,1.875 4.419,2.929 7.071,2.929c1.322,0 2.678,0 4,0c2.652,0 5.196,-1.054 7.071,-2.929c1.875,-1.875 2.929,-4.419 2.929,-7.071c0,-0.661 0,-1.331 0,-2Z" style="fill:#fbc546;"/><path d="M23.707,15.293l0.028,0.029l0.026,0.029l0.025,0.031l0.024,0.032l0.023,0.032l0.021,0.034l0.02,0.034l0.019,0.036l0.017,0.035l0.016,0.037l0.014,0.037l0.013,0.038l0.011,0.038l0.01,0.038l0.008,0.039l0.007,0.039l0.005,0.04l0.004,0.039l0.002,0.04l0,0.04l-0.001,0.04l-0.003,0.039l-0.004,0.04l-0.006,0.039l-0.008,0.039l-0.009,0.039l-0.01,0.038l-0.012,0.038l-0.014,0.038l-0.015,0.036l-0.016,0.037l-0.018,0.035l-0.02,0.035l-0.02,0.034l-0.022,0.033l-0.024,0.032l-0.024,0.031l-0.026,0.031l-0.027,0.029l-0.028,0.028l-0.029,0.027l-0.031,0.026l-0.031,0.024l-0.032,0.024l-0.033,0.022l-0.034,0.02l-0.035,0.02l-0.035,0.018l-0.037,0.016l-0.036,0.015l-0.038,0.014l-0.038,0.012l-0.038,0.01l-0.039,0.009l-0.039,0.008l-0.039,0.006l-0.04,0.004l-0.039,0.003l-0.04,0.001l-0.04,0l-0.04,-0.002l-0.039,-0.004l-0.04,-0.005l-0.039,-0.007l-0.039,-0.008l-0.038,-0.01l-0.038,-0.011l-0.038,-0.013l-0.037,-0.014l-0.037,-0.016l-0.035,-0.017l-0.036,-0.019l-0.034,-0.02l-0.034,-0.021l-0.032,-0.023l-0.032,-0.024l-0.031,-0.025l-0.029,-0.026l-0.029,-0.028l-1.293,-1.293l-1.293,1.293l-0.029,0.028l-0.029,0.026l-0.031,0.025l-0.032,0.024l-0.032,0.023l-0.034,0.021l-0.034,0.02l-0.036,0.019l-0.035,0.017l-0.037,0.016l-0.037,0.014l-0.038,0.013l-0.038,0.011l-0.038,0.01l-0.039,0.008l-0.039,0.007l-0.04,0.005l-0.039,0.004l-0.04,0.002l-0.04,0l-0.04,-0.001l-0.039,-0.003l-0.04,-0.004l-0.039,-0.006l-0.039,-0.008l-0.039,-0.009l-0.038,-0.01l-0.038,-0.012l-0.038,-0.014l-0.036,-0.015l-0.037,-0.016l-0.035,-0.018l-0.035,-0.02l-0.034,-0.02l-0.033,-0.022l-0.032,-0.024l-0.031,-0.024l-0.031,-0.026l-0.029,-0.027l-0.028,-0.028l-0.027,-0.029l-0.026,-0.031l-0.024,-0.031l-0.024,-0.032l-0.022,-0.033l-0.02,-0.034l-0.02,-0.035l-0.018,-0.035l-0.016,-0.037l-0.015,-0.036l-0.014,-0.038l-0.012,-0.038l-0.01,-0.038l-0.009,-0.039l-0.008,-0.039l-0.006,-0.039l-0.004,-0.04l-0.003,-0.039l-0.001,-0.04l0,-0.04l0.002,-0.04l0.004,-0.039l0.005,-0.04l0.007,-0.039l0.008,-0.039l0.01,-0.038l0.011,-0.038l0.013,-0.038l0.014,-0.037l0.016,-0.037l0.017,-0.035l0.019,-0.036l0.02,-0.034l0.021,-0.034l0.023,-0.032l0.024,-0.032l0.025,-0.031l0.026,-0.029l0.028,-0.029l2.707,-2.707l2.707,2.707Z"/><path d="M13.707,15.293l0.028,0.029l0.026,0.029l0.025,0.031l0.024,0.032l0.023,0.032l0.021,0.034l0.02,0.034l0.019,0.036l0.017,0.035l0.016,0.037l0.014,0.037l0.013,0.038l0.011,0.038l0.01,0.038l0.008,0.039l0.007,0.039l0.005,0.04l0.004,0.039l0.002,0.04l0,0.04l-0.001,0.04l-0.003,0.039l-0.004,0.04l-0.006,0.039l-0.008,0.039l-0.009,0.039l-0.01,0.038l-0.012,0.038l-0.014,0.038l-0.015,0.036l-0.016,0.037l-0.018,0.035l-0.02,0.035l-0.02,0.034l-0.022,0.033l-0.024,0.032l-0.024,0.031l-0.026,0.031l-0.027,0.029l-0.028,0.028l-0.029,0.027l-0.031,0.026l-0.031,0.024l-0.032,0.024l-0.033,0.022l-0.034,0.02l-0.035,0.02l-0.035,0.018l-0.037,0.016l-0.036,0.015l-0.038,0.014l-0.038,0.012l-0.038,0.01l-0.039,0.009l-0.039,0.008l-0.039,0.006l-0.04,0.004l-0.039,0.003l-0.04,0.001l-0.04,0l-0.04,-0.002l-0.039,-0.004l-0.04,-0.005l-0.039,-0.007l-0.039,-0.008l-0.038,-0.01l-0.038,-0.011l-0.038,-0.013l-0.037,-0.014l-0.037,-0.016l-0.035,-0.017l-0.036,-0.019l-0.034,-0.02l-0.034,-0.021l-0.032,-0.023l-0.032,-0.024l-0.031,-0.025l-0.029,-0.026l-0.029,-0.028l-1.293,-1.293l-1.293,1.293l-0.029,0.028l-0.029,0.026l-0.031,0.025l-0.032,0.024l-0.032,0.023l-0.034,0.021l-0.034,0.02l-0.036,0.019l-0.035,0.017l-0.037,0.016l-0.037,0.014l-0.038,0.013l-0.038,0.011l-0.038,0.01l-0.039,0.008l-0.039,0.007l-0.04,0.005l-0.039,0.004l-0.04,0.002l-0.04,0l-0.04,-0.001l-0.039,-0.003l-0.04,-0.004l-0.039,-0.006l-0.039,-0.008l-0.039,-0.009l-0.038,-0.01l-0.038,-0.012l-0.038,-0.014l-0.036,-0.015l-0.037,-0.016l-0.035,-0.018l-0.035,-0.02l-0.034,-0.02l-0.033,-0.022l-0.032,-0.024l-0.031,-0.024l-0.031,-0.026l-0.029,-0.027l-0.028,-0.028l-0.027,-0.029l-0.026,-0.031l-0.024,-0.031l-0.024,-0.032l-0.022,-0.033l-0.02,-0.034l-0.02,-0.035l-0.018,-0.035l-0.016,-0.037l-0.015,-0.036l-0.014,-0.038l-0.012,-0.038l-0.01,-0.038l-0.009,-0.039l-0.008,-0.039l-0.006,-0.039l-0.004,-0.04l-0.003,-0.039l-0.001,-0.04l0,-0.04l0.002,-0.04l0.004,-0.039l0.005,-0.04l0.007,-0.039l0.008,-0.039l0.01,-0.038l0.011,-0.038l0.013,-0.038l0.014,-0.037l0.016,-0.037l0.017,-0.035l0.019,-0.036l0.02,-0.034l0.021,-0.034l0.023,-0.032l0.024,-0.032l0.025,-0.031l0.026,-0.029l0.028,-0.029l2.707,-2.707l2.707,2.707Z"/><path d="M20.056,20.002l0.056,0.004l0.056,0.008l0.055,0.011l0.054,0.014l0.053,0.017l0.053,0.02l0.051,0.023l0.05,0.026l0.048,0.028l0.047,0.031l0.044,0.034l0.043,0.036l0.041,0.039l0.039,0.041l0.036,0.043l0.034,0.044l0.031,0.047l0.028,0.048l0.026,0.05l0.023,0.051l0.02,0.053l0.017,0.053l0.014,0.054l0.011,0.055l0.008,0.056l0.004,0.056l0.002,0.056l-0.002,0.056l-0.004,0.056l-0.008,0.056l-0.011,0.055l-0.014,0.054l-0.017,0.053l-0.02,0.053l-0.023,0.051l-0.026,0.05l-0.028,0.048l-0.031,0.047l-0.034,0.044l-0.036,0.043l-0.039,0.041l-1.176,1.176l-0.087,0.085l-0.094,0.088l-0.096,0.084l-0.097,0.081l-0.099,0.079l-0.101,0.076l-0.102,0.073l-0.103,0.07l-0.105,0.067l-0.106,0.064l-0.107,0.062l-0.109,0.059l-0.109,0.056l-0.111,0.053l-0.111,0.05l-0.113,0.047l-0.113,0.044l-0.115,0.042l-0.115,0.039l-0.115,0.035l-0.117,0.033l-0.117,0.03l-0.117,0.027l-0.118,0.025l-0.118,0.021l-0.119,0.019l-0.119,0.015l-0.119,0.013l-0.12,0.01l-0.119,0.008l-0.12,0.004l-0.12,0.001l-0.12,-0.001l-0.12,-0.004l-0.119,-0.008l-0.12,-0.01l-0.119,-0.013l-0.119,-0.015l-0.119,-0.019l-0.118,-0.021l-0.118,-0.025l-0.117,-0.027l-0.117,-0.03l-0.117,-0.033l-0.115,-0.035l-0.115,-0.039l-0.115,-0.042l-0.113,-0.044l-0.113,-0.047l-0.111,-0.05l-0.111,-0.053l-0.109,-0.056l-0.109,-0.059l-0.107,-0.062l-0.106,-0.064l-0.105,-0.067l-0.103,-0.07l-0.102,-0.073l-0.101,-0.076l-0.099,-0.079l-0.097,-0.081l-0.096,-0.084l-0.094,-0.088l-0.087,-0.085l-1.176,-1.176l-0.039,-0.041l-0.036,-0.043l-0.034,-0.044l-0.031,-0.047l-0.028,-0.048l-0.026,-0.05l-0.023,-0.051l-0.02,-0.053l-0.017,-0.053l-0.014,-0.054l-0.011,-0.055l-0.008,-0.056l-0.004,-0.056l-0.002,-0.056l0.002,-0.056l0.004,-0.056l0.008,-0.056l0.011,-0.055l0.014,-0.054l0.017,-0.053l0.02,-0.053l0.023,-0.051l0.026,-0.05l0.028,-0.048l0.031,-0.047l0.034,-0.044l0.036,-0.043l0.039,-0.041l0.041,-0.039l0.043,-0.036l0.044,-0.034l0.047,-0.031l0.048,-0.028l0.05,-0.026l0.051,-0.023l0.053,-0.02l0.053,-0.017l0.054,-0.014l0.055,-0.011l0.056,-0.008l0.056,-0.004l0.056,-0.002l0.056,0.002l0.056,0.004l0.056,0.008l0.055,0.011l0.054,0.014l0.053,0.017l0.053,0.02l0.051,0.023l0.05,0.026l0.048,0.028l0.047,0.031l0.044,0.034l0.043,0.036l0.041,0.039l1.167,1.167l0.061,0.059l0.056,0.052l0.058,0.051l0.058,0.049l0.06,0.047l0.06,0.046l0.061,0.044l0.062,0.042l0.063,0.04l0.063,0.038l0.064,0.037l0.065,0.035l0.066,0.034l0.066,0.031l0.066,0.03l0.068,0.028l0.067,0.027l0.069,0.025l0.069,0.023l0.069,0.021l0.07,0.02l0.07,0.018l0.07,0.016l0.071,0.015l0.071,0.013l0.072,0.011l0.071,0.01l0.072,0.007l0.072,0.006l0.072,0.005l0.072,0.002l0.072,0.001l0.072,-0.001l0.072,-0.002l0.072,-0.005l0.072,-0.006l0.072,-0.007l0.071,-0.01l0.072,-0.011l0.071,-0.013l0.071,-0.015l0.07,-0.016l0.07,-0.018l0.07,-0.02l0.069,-0.021l0.069,-0.023l0.069,-0.025l0.067,-0.027l0.068,-0.028l0.066,-0.03l0.066,-0.031l0.066,-0.034l0.065,-0.035l0.064,-0.037l0.063,-0.038l0.063,-0.04l0.062,-0.042l0.061,-0.044l0.06,-0.046l0.06,-0.047l0.058,-0.049l0.058,-0.051l0.056,-0.052l0.061,-0.059l1.167,-1.167l0.041,-0.039l0.043,-0.036l0.044,-0.034l0.047,-0.031l0.048,-0.028l0.05,-0.026l0.051,-0.023l0.053,-0.02l0.053,-0.017l0.054,-0.014l0.055,-0.011l0.056,-0.008l0.056,-0.004l0.056,-0.002l0.056,0.002Z"/><path d="M27,19.5c0,-0.828 -0.672,-1.5 -1.5,-1.5c-0.916,0 -2.084,0 -3,0c-0.828,0 -1.5,0.672 -1.5,1.5c0,0.828 0.672,1.5 1.5,1.5c0.916,0 2.084,0 3,0c0.828,0 1.5,-0.672 1.5,-1.5c0,0 0,0 0,0Z" style="fill:#ed6b44;"/><path d="M11,19.5c0,-0.828 -0.672,-1.5 -1.5,-1.5c-0.916,0 -2.084,0 -3,0c-0.828,0 -1.5,0.672 -1.5,1.5c0,0.828 0.672,1.5 1.5,1.5c0.916,0 2.084,0 3,0c0.828,0 1.5,-0.672 1.5,-1.5c0,0 0,0 0,0Z" style="fill:#ed6b44;"/></g></svg>