<?xml version="1.0" encoding="UTF-8" standalone="no"?><!DOCTYPE svg PUBLIC "-//W3C//DTD SVG 1.1//EN" "http://www.w3.org/Graphics/SVG/1.1/DTD/svg11.dtd"><svg width="100%" height="100%" viewBox="0 0 32 32" version="1.1" xmlns="http://www.w3.org/2000/svg" xmlns:xlink="http://www.w3.org/1999/xlink" xml:space="preserve" style="fill-rule:evenodd;clip-rule:evenodd;stroke-linejoin:round;stroke-miterlimit:1.41421;">
<metadata>
<rdf:RDF xmlns:cc="http://web.resource.org/cc/"
         xmlns:rdf="http://www.w3.org/1999/02/22-rdf-syntax-ns#"
         xmlns:dc = "http://purl.org/dc/elements/1.1/"
         >

     <rdf:Description rdf:about="">
       <dc:title>Mutant Standard emoji v0.2.3</dc:title>
     </rdf:Description>

    <cc:work rdf:about="">
        <cc:license rdf:resource="http://creativecommons.org/licenses/by-nc-sa/4.0/"/>
        <cc:attributionName>Dzuk</cc:attributionName>
        <cc:attributionURL>http://mutant.tech/</cc:attributionURL>
    </cc:work>

</rdf:RDF>
</metadata>
<rect id="cold_sweat" x="0" y="0" width="32" height="32" style="fill:none;"/><g id="outline"><path d="M16.174,3.001c0.462,0.009 0.922,0.034 1.381,0.086c1.079,0.12 2.143,0.367 3.165,0.733c2.106,0.754 4.019,2.016 5.541,3.656c1.323,1.425 2.342,3.126 2.976,4.965c0.335,0.972 0.562,1.982 0.676,3.004c0.052,0.459 0.077,0.919 0.086,1.381c0.005,0.772 0.005,1.544 0,2.316c-0.008,0.42 -0.034,0.839 -0.087,1.256c-0.104,0.813 -0.298,1.615 -0.58,2.384c-0.579,1.58 -1.525,3.019 -2.742,4.18c-1.123,1.071 -2.471,1.9 -3.935,2.416c-0.774,0.272 -1.579,0.457 -2.394,0.55c-0.372,0.043 -0.745,0.064 -1.119,0.071c-2.095,0.013 -4.189,0.013 -6.284,0c-0.374,-0.007 -0.747,-0.028 -1.119,-0.071c-0.815,-0.093 -1.62,-0.278 -2.394,-0.55c-1.464,-0.516 -2.812,-1.345 -3.935,-2.416c-1.217,-1.161 -2.163,-2.6 -2.742,-4.18c-0.298,-0.813 -0.498,-1.661 -0.596,-2.521c-0.043,-0.372 -0.064,-0.745 -0.071,-1.119c-0.005,-0.772 -0.005,-1.544 0,-2.316c0.01,-0.519 0.042,-1.037 0.106,-1.552c0.134,-1.077 0.393,-2.138 0.771,-3.155c0.78,-2.097 2.067,-3.995 3.725,-5.497c1.442,-1.305 3.154,-2.303 5,-2.913c0.977,-0.324 1.989,-0.539 3.013,-0.641c0.458,-0.045 0.918,-0.065 1.378,-0.068c0.06,0 0.12,0.001 0.18,0.001Z" style="fill-rule:nonzero;"/></g><g id="emoji"><path d="M28,17c0,-3.183 -1.264,-6.235 -3.515,-8.485c-2.25,-2.251 -5.302,-3.515 -8.485,-3.515c0,0 0,0 0,0c-3.183,0 -6.235,1.264 -8.485,3.515c-2.251,2.25 -3.515,5.302 -3.515,8.485c0,0.672 0,1.342 0,2c0,4.971 4.029,9 9,9c1.962,0 4.038,0 6,0c4.971,0 9,-4.029 9,-9c0,-0.658 0,-1.328 0,-2Z" style="fill:#fbc546;"/><path d="M23.05,14.001l0.039,0.003l0.04,0.004l0.039,0.006l0.039,0.008l0.039,0.009l0.038,0.01l0.038,0.012l0.038,0.014l0.036,0.015l0.037,0.016l0.035,0.018l0.035,0.02l0.034,0.02l0.033,0.022l0.032,0.024l0.031,0.024l0.031,0.026l0.029,0.027l0.028,0.028l0.027,0.029l0.026,0.031l0.024,0.031l0.024,0.032l0.022,0.033l0.02,0.034l0.02,0.035l0.018,0.035l0.016,0.037l0.015,0.036l0.014,0.038l0.012,0.038l0.01,0.038l0.009,0.039l0.008,0.039l0.006,0.039l0.004,0.04l0.003,0.039l0.001,0.04l0,0.04l-0.002,0.04l-0.004,0.039l-0.005,0.04l-0.007,0.039l-0.008,0.039l-0.01,0.038l-0.011,0.038l-0.013,0.038l-0.014,0.037l-0.016,0.037l-0.017,0.035l-0.019,0.036l-0.02,0.034l-0.021,0.034l-0.023,0.032l-0.024,0.032l-0.025,0.031l-0.026,0.029l-0.028,0.029l-2.707,2.707l-2.707,-2.707l-0.028,-0.029l-0.026,-0.029l-0.025,-0.031l-0.024,-0.032l-0.023,-0.032l-0.021,-0.034l-0.02,-0.034l-0.019,-0.036l-0.017,-0.035l-0.016,-0.037l-0.014,-0.037l-0.013,-0.038l-0.011,-0.038l-0.01,-0.038l-0.008,-0.039l-0.007,-0.039l-0.005,-0.04l-0.004,-0.039l-0.002,-0.04l0,-0.04l0.001,-0.04l0.003,-0.039l0.004,-0.04l0.006,-0.039l0.008,-0.039l0.009,-0.039l0.01,-0.038l0.012,-0.038l0.014,-0.038l0.015,-0.036l0.016,-0.037l0.018,-0.035l0.02,-0.035l0.02,-0.034l0.022,-0.033l0.024,-0.032l0.024,-0.031l0.026,-0.031l0.027,-0.029l0.028,-0.028l0.029,-0.027l0.031,-0.026l0.031,-0.024l0.032,-0.024l0.033,-0.022l0.034,-0.02l0.035,-0.02l0.035,-0.018l0.037,-0.016l0.036,-0.015l0.038,-0.014l0.038,-0.012l0.038,-0.01l0.039,-0.009l0.039,-0.008l0.039,-0.006l0.04,-0.004l0.039,-0.003l0.04,-0.001l0.04,0l0.04,0.002l0.039,0.004l0.04,0.005l0.039,0.007l0.039,0.008l0.038,0.01l0.038,0.011l0.038,0.013l0.037,0.014l0.037,0.016l0.035,0.017l0.036,0.019l0.034,0.02l0.034,0.021l0.032,0.023l0.032,0.024l0.031,0.025l0.029,0.026l0.029,0.028l1.293,1.293l1.293,-1.293l0.029,-0.028l0.029,-0.026l0.031,-0.025l0.032,-0.024l0.032,-0.023l0.034,-0.021l0.034,-0.02l0.036,-0.019l0.035,-0.017l0.037,-0.016l0.037,-0.014l0.038,-0.013l0.038,-0.011l0.038,-0.01l0.039,-0.008l0.039,-0.007l0.04,-0.005l0.039,-0.004l0.04,-0.002l0.04,0l0.04,0.001Z"/><path d="M13.05,14.001l0.039,0.003l0.04,0.004l0.039,0.006l0.039,0.008l0.039,0.009l0.038,0.01l0.038,0.012l0.038,0.014l0.036,0.015l0.037,0.016l0.035,0.018l0.035,0.02l0.034,0.02l0.033,0.022l0.032,0.024l0.031,0.024l0.031,0.026l0.029,0.027l0.028,0.028l0.027,0.029l0.026,0.031l0.024,0.031l0.024,0.032l0.022,0.033l0.02,0.034l0.02,0.035l0.018,0.035l0.016,0.037l0.015,0.036l0.014,0.038l0.012,0.038l0.01,0.038l0.009,0.039l0.008,0.039l0.006,0.039l0.004,0.04l0.003,0.039l0.001,0.04l0,0.04l-0.002,0.04l-0.004,0.039l-0.005,0.04l-0.007,0.039l-0.008,0.039l-0.01,0.038l-0.011,0.038l-0.013,0.038l-0.014,0.037l-0.016,0.037l-0.017,0.035l-0.019,0.036l-0.02,0.034l-0.021,0.034l-0.023,0.032l-0.024,0.032l-0.025,0.031l-0.026,0.029l-0.028,0.029l-2.707,2.707l-2.707,-2.707l-0.028,-0.029l-0.026,-0.029l-0.025,-0.031l-0.024,-0.032l-0.023,-0.032l-0.021,-0.034l-0.02,-0.034l-0.019,-0.036l-0.017,-0.035l-0.016,-0.037l-0.014,-0.037l-0.013,-0.038l-0.011,-0.038l-0.01,-0.038l-0.008,-0.039l-0.007,-0.039l-0.005,-0.04l-0.004,-0.039l-0.002,-0.04l0,-0.04l0.001,-0.04l0.003,-0.039l0.004,-0.04l0.006,-0.039l0.008,-0.039l0.009,-0.039l0.01,-0.038l0.012,-0.038l0.014,-0.038l0.015,-0.036l0.016,-0.037l0.018,-0.035l0.02,-0.035l0.02,-0.034l0.022,-0.033l0.024,-0.032l0.024,-0.031l0.026,-0.031l0.027,-0.029l0.028,-0.028l0.029,-0.027l0.031,-0.026l0.031,-0.024l0.032,-0.024l0.033,-0.022l0.034,-0.02l0.035,-0.02l0.035,-0.018l0.037,-0.016l0.036,-0.015l0.038,-0.014l0.038,-0.012l0.038,-0.01l0.039,-0.009l0.039,-0.008l0.039,-0.006l0.04,-0.004l0.039,-0.003l0.04,-0.001l0.04,0l0.04,0.002l0.039,0.004l0.04,0.005l0.039,0.007l0.039,0.008l0.038,0.01l0.038,0.011l0.038,0.013l0.037,0.014l0.037,0.016l0.035,0.017l0.036,0.019l0.034,0.02l0.034,0.021l0.032,0.023l0.032,0.024l0.031,0.025l0.029,0.026l0.029,0.028l1.293,1.293l1.293,-1.293l0.029,-0.028l0.029,-0.026l0.031,-0.025l0.032,-0.024l0.032,-0.023l0.034,-0.021l0.034,-0.02l0.036,-0.019l0.035,-0.017l0.037,-0.016l0.037,-0.014l0.038,-0.013l0.038,-0.011l0.038,-0.01l0.039,-0.008l0.039,-0.007l0.04,-0.005l0.039,-0.004l0.04,-0.002l0.04,0l0.04,0.001Z"/><path d="M16.846,20.001l0.081,0.002l0.082,0.003l0.081,0.005l0.081,0.007l0.08,0.008l0.08,0.009l0.08,0.01l0.08,0.012l0.079,0.014l0.079,0.014l0.079,0.017l0.078,0.017l0.077,0.019l0.077,0.02l0.077,0.021l0.077,0.022l0.076,0.024l0.075,0.026l0.075,0.026l0.074,0.028l0.074,0.029l0.073,0.03l0.072,0.031l0.072,0.033l0.072,0.034l0.071,0.035l0.07,0.036l0.069,0.037l0.069,0.039l0.068,0.04l0.068,0.041l0.067,0.042l0.066,0.043l0.065,0.044l0.064,0.046l0.064,0.046l0.063,0.048l0.062,0.049l0.062,0.049l0.06,0.051l0.06,0.052l0.059,0.053l0.058,0.054l0.057,0.055l0.056,0.057l0.056,0.057l0.054,0.058l0.053,0.059l0.053,0.06l0.051,0.061l0.051,0.062l0.049,0.063l0.049,0.064l0.047,0.065l0.046,0.066l0.045,0.067l0.045,0.067l0.043,0.069l0.041,0.069l0.041,0.071l0.04,0.071l0.038,0.072l0.047,0.092l0.012,0.027l0.021,0.052l0.018,0.053l0.015,0.054l0.012,0.055l0.009,0.055l0.006,0.056l0.003,0.056l-0.001,0.056l-0.003,0.056l-0.007,0.056l-0.01,0.055l-0.013,0.055l-0.016,0.054l-0.019,0.052l-0.022,0.052l-0.024,0.05l-0.028,0.049l-0.03,0.047l-0.033,0.046l-0.035,0.044l-0.038,0.041l-0.04,0.039l-0.042,0.037l-0.044,0.035l-0.046,0.032l-0.048,0.03l-0.049,0.026l-0.051,0.024l-0.052,0.021l-0.053,0.018l-0.054,0.015l-0.055,0.012l-0.055,0.009l-0.056,0.006l-0.056,0.003l-0.056,-0.001l-0.056,-0.003l-0.056,-0.007l-0.055,-0.01l-0.055,-0.013l-0.054,-0.016l-0.052,-0.019l-0.052,-0.022l-0.05,-0.024l-0.049,-0.028l-0.047,-0.03l-0.046,-0.033l-0.044,-0.035l-0.041,-0.038l-0.039,-0.04l-0.037,-0.042l-0.035,-0.044l-0.032,-0.046l-0.03,-0.048l-0.026,-0.049l-0.024,-0.051l0.012,0.027l-0.012,-0.022l-0.021,-0.041l-0.023,-0.041l-0.023,-0.039l-0.024,-0.04l-0.024,-0.039l-0.025,-0.038l-0.026,-0.038l-0.026,-0.037l-0.027,-0.037l-0.027,-0.036l-0.028,-0.036l-0.029,-0.035l-0.029,-0.034l-0.03,-0.035l-0.03,-0.033l-0.031,-0.033l-0.031,-0.032l-0.032,-0.032l-0.032,-0.031l-0.033,-0.031l-0.033,-0.03l-0.034,-0.03l-0.035,-0.028l-0.034,-0.029l-0.036,-0.027l-0.035,-0.027l-0.037,-0.027l-0.036,-0.025l-0.037,-0.026l-0.038,-0.024l-0.038,-0.024l-0.038,-0.023l-0.039,-0.023l-0.039,-0.022l-0.039,-0.021l-0.04,-0.02l-0.04,-0.02l-0.041,-0.019l-0.04,-0.019l-0.042,-0.018l-0.041,-0.017l-0.042,-0.016l-0.042,-0.016l-0.042,-0.015l-0.043,-0.014l-0.043,-0.014l-0.043,-0.013l-0.044,-0.012l-0.043,-0.011l-0.044,-0.011l-0.045,-0.009l-0.044,-0.01l-0.045,-0.008l-0.045,-0.007l-0.045,-0.007l-0.045,-0.006l-0.045,-0.005l-0.046,-0.005l-0.046,-0.003l-0.046,-0.003l-0.046,-0.002l-0.047,-0.002l-0.05,0l-1.52,0l-0.05,0l-0.047,0.002l-0.046,0.002l-0.046,0.003l-0.046,0.003l-0.046,0.005l-0.045,0.005l-0.045,0.006l-0.045,0.007l-0.045,0.007l-0.045,0.008l-0.044,0.01l-0.045,0.009l-0.044,0.011l-0.043,0.011l-0.044,0.012l-0.043,0.013l-0.043,0.014l-0.043,0.014l-0.042,0.015l-0.042,0.016l-0.042,0.016l-0.041,0.017l-0.042,0.018l-0.04,0.019l-0.041,0.019l-0.04,0.02l-0.04,0.02l-0.039,0.021l-0.039,0.022l-0.039,0.023l-0.038,0.023l-0.038,0.024l-0.038,0.024l-0.037,0.026l-0.036,0.025l-0.037,0.027l-0.035,0.027l-0.036,0.027l-0.034,0.029l-0.035,0.028l-0.034,0.03l-0.033,0.03l-0.033,0.031l-0.032,0.031l-0.032,0.032l-0.031,0.032l-0.031,0.033l-0.03,0.033l-0.03,0.035l-0.029,0.034l-0.029,0.035l-0.028,0.036l-0.027,0.036l-0.027,0.037l-0.026,0.037l-0.026,0.038l-0.025,0.038l-0.024,0.039l-0.024,0.04l-0.023,0.039l-0.023,0.041l-0.021,0.041l-0.012,0.022l0.012,-0.027l-0.024,0.051l-0.026,0.049l-0.03,0.048l-0.032,0.046l-0.035,0.044l-0.037,0.042l-0.039,0.04l-0.041,0.038l-0.044,0.035l-0.046,0.033l-0.047,0.03l-0.049,0.028l-0.05,0.024l-0.052,0.022l-0.052,0.019l-0.054,0.016l-0.055,0.013l-0.055,0.01l-0.056,0.007l-0.056,0.003l-0.056,0.001l-0.056,-0.003l-0.056,-0.006l-0.055,-0.009l-0.055,-0.012l-0.054,-0.015l-0.053,-0.018l-0.052,-0.021l-0.051,-0.024l-0.049,-0.026l-0.048,-0.03l-0.046,-0.032l-0.044,-0.035l-0.042,-0.037l-0.04,-0.039l-0.038,-0.041l-0.035,-0.044l-0.033,-0.046l-0.03,-0.047l-0.028,-0.049l-0.024,-0.05l-0.022,-0.052l-0.019,-0.052l-0.016,-0.054l-0.013,-0.055l-0.01,-0.055l-0.007,-0.056l-0.003,-0.056l-0.001,-0.056l0.003,-0.056l0.006,-0.056l0.009,-0.055l0.012,-0.055l0.015,-0.054l0.018,-0.053l0.021,-0.052l0.012,-0.027l0.047,-0.092l0.038,-0.072l0.04,-0.071l0.041,-0.071l0.041,-0.069l0.043,-0.069l0.045,-0.067l0.045,-0.067l0.046,-0.066l0.047,-0.065l0.049,-0.064l0.049,-0.063l0.051,-0.062l0.051,-0.061l0.053,-0.06l0.053,-0.059l0.054,-0.058l0.056,-0.057l0.056,-0.057l0.057,-0.055l0.058,-0.054l0.059,-0.053l0.06,-0.052l0.06,-0.051l0.062,-0.049l0.062,-0.049l0.063,-0.048l0.064,-0.046l0.064,-0.046l0.065,-0.044l0.066,-0.043l0.067,-0.042l0.068,-0.041l0.068,-0.04l0.069,-0.039l0.069,-0.037l0.07,-0.036l0.071,-0.035l0.072,-0.034l0.072,-0.033l0.072,-0.031l0.073,-0.03l0.074,-0.029l0.074,-0.028l0.075,-0.026l0.075,-0.026l0.076,-0.024l0.077,-0.022l0.077,-0.021l0.077,-0.02l0.077,-0.019l0.078,-0.017l0.079,-0.017l0.079,-0.014l0.079,-0.014l0.08,-0.012l0.08,-0.01l0.08,-0.009l0.08,-0.008l0.081,-0.007l0.081,-0.005l0.082,-0.003l0.081,-0.002l0.078,-0.001l1.536,0l0.078,0.001Z"/><path d="M31.5,8.529c0.09,0.183 0.17,0.371 0.235,0.565c0.166,0.494 0.244,1.017 0.23,1.538c-0.016,0.601 -0.154,1.197 -0.405,1.744c-0.236,0.515 -0.572,0.983 -0.982,1.373c-0.405,0.384 -0.88,0.692 -1.398,0.902c-0.499,0.202 -1.034,0.313 -1.573,0.326c-0.501,0.012 -1.004,-0.061 -1.481,-0.215c-0.383,-0.124 -0.75,-0.3 -1.086,-0.522c-0.474,-0.313 -0.888,-0.717 -1.212,-1.184c-0.525,-0.757 -0.806,-1.674 -0.795,-2.596c0.008,-0.672 0.173,-1.328 0.467,-1.931l3.264,-6.529l1.472,0c1.088,2.176 2.176,4.352 3.264,6.529Z" style="fill-rule:nonzero;"/><path d="M27.5,5c0,0 -1.318,2.637 -2.207,4.414c-0.474,0.947 -0.288,2.091 0.461,2.84c0,0 0,0 0.001,0.001c0.964,0.964 2.526,0.964 3.49,0c0.001,-0.001 0.001,-0.001 0.001,-0.001c0.749,-0.749 0.935,-1.893 0.461,-2.84c-0.889,-1.777 -2.207,-4.414 -2.207,-4.414Z" style="fill:#fff;"/></g></svg>