<?xml version="1.0" encoding="UTF-8" standalone="no"?><!DOCTYPE svg PUBLIC "-//W3C//DTD SVG 1.1//EN" "http://www.w3.org/Graphics/SVG/1.1/DTD/svg11.dtd"><svg width="100%" height="100%" viewBox="0 0 32 32" version="1.1" xmlns="http://www.w3.org/2000/svg" xmlns:xlink="http://www.w3.org/1999/xlink" xml:space="preserve" xmlns:serif="http://www.serif.com/" style="fill-rule:evenodd;clip-rule:evenodd;stroke-linejoin:round;stroke-miterlimit:1.41421;">
<metadata>
<rdf:RDF xmlns:cc="http://web.resource.org/cc/"
         xmlns:rdf="http://www.w3.org/1999/02/22-rdf-syntax-ns#"
         xmlns:dc = "http://purl.org/dc/elements/1.1/"
         >

     <rdf:Description rdf:about="">
       <dc:title>Mutant Standard emoji v0.2.3</dc:title>
     </rdf:Description>

    <cc:work rdf:about="">
        <cc:license rdf:resource="http://creativecommons.org/licenses/by-nc-sa/4.0/"/>
        <cc:attributionName>Dzuk</cc:attributionName>
        <cc:attributionURL>http://mutant.tech/</cc:attributionURL>
    </cc:work>

</rdf:RDF>
</metadata>
<rect id="concern" x="0" y="0" width="32" height="32" style="fill:none;"/><g id="outline"><path d="M16.174,2.001c0.462,0.009 0.922,0.034 1.381,0.086c1.022,0.114 2.032,0.341 3.004,0.676c1.949,0.671 3.741,1.776 5.217,3.215c1.518,1.481 2.689,3.305 3.404,5.302c0.366,1.022 0.613,2.086 0.733,3.165c0.052,0.459 0.077,0.919 0.086,1.381c0.007,1.105 0.007,2.211 0,3.316c-0.008,0.42 -0.034,0.839 -0.087,1.256c-0.104,0.813 -0.298,1.615 -0.58,2.384c-0.594,1.622 -1.574,3.094 -2.838,4.271c-1.104,1.027 -2.417,1.824 -3.839,2.325c-0.774,0.272 -1.579,0.457 -2.394,0.55c-0.372,0.043 -0.745,0.064 -1.119,0.071c-2.095,0.013 -4.189,0.013 -6.284,0c-0.374,-0.007 -0.747,-0.028 -1.119,-0.071c-0.815,-0.093 -1.62,-0.278 -2.394,-0.55c-1.422,-0.501 -2.735,-1.298 -3.839,-2.325c-1.264,-1.177 -2.244,-2.649 -2.838,-4.271c-0.282,-0.769 -0.476,-1.571 -0.58,-2.384c-0.053,-0.417 -0.079,-0.836 -0.087,-1.256c-0.007,-1.108 -0.007,-2.215 0,-3.322c0.01,-0.536 0.044,-1.069 0.111,-1.601c0.132,-1.034 0.38,-2.053 0.738,-3.033c0.698,-1.906 1.816,-3.651 3.25,-5.086c1.476,-1.475 3.279,-2.615 5.248,-3.308c0.985,-0.347 2.009,-0.582 3.047,-0.701c0.531,-0.061 1.064,-0.088 1.599,-0.091c0.06,0 0.12,0.001 0.18,0.001Z" style="fill-rule:nonzero;"/></g><g id="emoji"><path d="M28,16c0,-3.183 -1.264,-6.235 -3.515,-8.485c-2.25,-2.251 -5.302,-3.515 -8.485,-3.515c0,0 0,0 0,0c-6.627,0 -12,5.373 -12,12c0,1.01 0,2.019 0,3c0,4.971 4.029,9 9,9c1.962,0 4.038,0 6,0c4.971,0 9,-4.029 9,-9c0,-0.981 0,-1.99 0,-3Z" style="fill:#fbc546;"/><path d="M31.5,8.529c0.103,0.21 0.192,0.425 0.262,0.649c0.147,0.469 0.216,0.962 0.203,1.454c-0.016,0.601 -0.154,1.198 -0.405,1.744c-0.237,0.515 -0.572,0.983 -0.982,1.373c-0.405,0.384 -0.88,0.692 -1.398,0.902c-0.499,0.202 -1.035,0.313 -1.573,0.326c-0.501,0.012 -1.004,-0.061 -1.481,-0.215c-0.383,-0.124 -0.75,-0.3 -1.086,-0.522c-0.425,-0.28 -0.802,-0.634 -1.109,-1.041c-0.591,-0.784 -0.909,-1.758 -0.898,-2.739c0.008,-0.672 0.173,-1.328 0.467,-1.931l3.264,-6.529l1.472,0c1.088,2.176 2.176,4.352 3.264,6.529Z" style="fill-rule:nonzero;"/><path d="M27.5,5c0,0 -1.318,2.637 -2.207,4.414c-0.474,0.947 -0.288,2.091 0.461,2.84c0,0 0,0 0.001,0.001c0.964,0.964 2.526,0.964 3.49,0c0.001,-0.001 0.001,-0.001 0.001,-0.001c0.749,-0.749 0.935,-1.893 0.461,-2.84c-0.889,-1.777 -2.207,-4.414 -2.207,-4.414Z" style="fill:#fff;"/><path d="M22.068,21.002l0.068,0.007l0.067,0.012l0.067,0.016l0.065,0.021l0.063,0.025l0.062,0.029l0.06,0.034l0.057,0.037l0.054,0.041l0.052,0.045l0.048,0.048l0.045,0.052l0.041,0.054l0.037,0.057l0.034,0.06l0.029,0.062l0.025,0.063l0.021,0.065l0.016,0.067l0.012,0.067l0.007,0.068l0.002,0.068l-0.002,0.068l-0.007,0.068l-0.012,0.067l-0.016,0.067l-0.021,0.065l-0.025,0.063l-0.029,0.062l-0.034,0.06l-0.037,0.057l-0.041,0.054l-0.045,0.052l-0.048,0.048l-0.052,0.045l-0.054,0.041l-0.057,0.037l-0.06,0.034l-0.062,0.029l-0.063,0.025l-0.065,0.021l-0.067,0.016l-0.067,0.012l-0.068,0.007l-0.068,0.002l-12,0l-0.068,-0.002l-0.068,-0.007l-0.067,-0.012l-0.067,-0.016l-0.065,-0.021l-0.063,-0.025l-0.062,-0.029l-0.06,-0.034l-0.057,-0.037l-0.054,-0.041l-0.052,-0.045l-0.048,-0.048l-0.045,-0.052l-0.041,-0.054l-0.037,-0.057l-0.034,-0.06l-0.029,-0.062l-0.025,-0.063l-0.021,-0.065l-0.016,-0.067l-0.012,-0.067l-0.007,-0.068l-0.002,-0.068l0.002,-0.068l0.007,-0.068l0.012,-0.067l0.016,-0.067l0.021,-0.065l0.025,-0.063l0.029,-0.062l0.034,-0.06l0.037,-0.057l0.041,-0.054l0.045,-0.052l0.048,-0.048l0.052,-0.045l0.054,-0.041l0.057,-0.037l0.06,-0.034l0.062,-0.029l0.063,-0.025l0.065,-0.021l0.067,-0.016l0.067,-0.012l0.068,-0.007l0.068,-0.002l12,0l0.068,0.002Z"/><path d="M12,14.5c0,-0.398 -0.158,-0.779 -0.439,-1.061c-0.282,-0.281 -0.663,-0.439 -1.061,-0.439c-0.398,0 -0.779,0.158 -1.061,0.439c-0.281,0.282 -0.439,0.663 -0.439,1.061c0,0.327 0,0.673 0,1c0,0.398 0.158,0.779 0.439,1.061c0.282,0.281 0.663,0.439 1.061,0.439c0.398,0 0.779,-0.158 1.061,-0.439c0.281,-0.282 0.439,-0.663 0.439,-1.061c0,-0.327 0,-0.673 0,-1Z"/><path d="M23,14.498c0,-0.397 -0.158,-0.778 -0.439,-1.059c-0.281,-0.281 -0.662,-0.439 -1.059,-0.439c-0.001,0 -0.003,0 -0.004,0c-0.397,0 -0.778,0.158 -1.059,0.439c-0.281,0.281 -0.439,0.662 -0.439,1.059c0,0.328 0,0.676 0,1.004c0,0.397 0.158,0.778 0.439,1.059c0.281,0.281 0.662,0.439 1.059,0.439c0.001,0 0.003,0 0.004,0c0.397,0 0.778,-0.158 1.059,-0.439c0.281,-0.281 0.439,-0.662 0.439,-1.059c0,-0.328 0,-0.676 0,-1.004Z"/></g></svg>