<?xml version="1.0" encoding="UTF-8" standalone="no"?><!DOCTYPE svg PUBLIC "-//W3C//DTD SVG 1.1//EN" "http://www.w3.org/Graphics/SVG/1.1/DTD/svg11.dtd"><svg width="100%" height="100%" viewBox="0 0 32 32" version="1.1" xmlns="http://www.w3.org/2000/svg" xmlns:xlink="http://www.w3.org/1999/xlink" xml:space="preserve" style="fill-rule:evenodd;clip-rule:evenodd;stroke-linejoin:round;stroke-miterlimit:1.41421;">
<metadata>
<rdf:RDF xmlns:cc="http://web.resource.org/cc/"
         xmlns:rdf="http://www.w3.org/1999/02/22-rdf-syntax-ns#"
         xmlns:dc = "http://purl.org/dc/elements/1.1/"
         >

     <rdf:Description rdf:about="">
       <dc:title>Mutant Standard emoji v0.2.3</dc:title>
     </rdf:Description>

    <cc:work rdf:about="">
        <cc:license rdf:resource="http://creativecommons.org/licenses/by-nc-sa/4.0/"/>
        <cc:attributionName>Dzuk</cc:attributionName>
        <cc:attributionURL>http://mutant.tech/</cc:attributionURL>
    </cc:work>

</rdf:RDF>
</metadata>
<rect id="confused" x="0" y="0" width="32" height="32" style="fill:none;"/><g id="outline"><path d="M16.174,2.001c0.462,0.009 0.922,0.034 1.381,0.086c1.022,0.114 2.032,0.341 3.004,0.676c1.839,0.634 3.54,1.653 4.965,2.976c1.64,1.522 2.902,3.435 3.656,5.541c0.366,1.022 0.613,2.086 0.733,3.165c0.052,0.459 0.077,0.919 0.086,1.381c0.009,1.434 0.009,2.869 0,4.303c-0.006,0.34 -0.025,0.679 -0.064,1.017c-0.085,0.741 -0.253,1.473 -0.501,2.177c-0.455,1.293 -1.18,2.486 -2.113,3.489c-1.07,1.149 -2.408,2.041 -3.883,2.581c-0.739,0.27 -1.51,0.452 -2.292,0.542c-0.338,0.039 -0.677,0.058 -1.017,0.064c-2.753,0.017 -5.505,0.017 -8.258,0c-0.34,-0.006 -0.679,-0.025 -1.017,-0.064c-0.782,-0.09 -1.553,-0.272 -2.292,-0.542c-1.362,-0.499 -2.608,-1.297 -3.633,-2.322c-1.054,-1.054 -1.868,-2.342 -2.363,-3.748c-0.248,-0.704 -0.416,-1.436 -0.501,-2.177c-0.039,-0.338 -0.058,-0.677 -0.064,-1.017c-0.009,-1.437 -0.009,-2.873 0,-4.309c0.01,-0.536 0.044,-1.069 0.111,-1.601c0.132,-1.034 0.38,-2.053 0.738,-3.033c0.736,-2.011 1.941,-3.842 3.491,-5.32c1.429,-1.362 3.144,-2.418 5.007,-3.074c0.985,-0.347 2.009,-0.582 3.047,-0.701c0.531,-0.061 1.064,-0.088 1.599,-0.091c0.06,0 0.12,0.001 0.18,0.001Z" style="fill-rule:nonzero;"/></g><g id="emoji"><path d="M28,16c0,-3.183 -1.264,-6.235 -3.515,-8.485c-2.25,-2.251 -5.302,-3.515 -8.485,-3.515c0,0 0,0 0,0c-6.627,0 -12,5.373 -12,12c0,1.356 0,2.713 0,4c0,4.418 3.582,8 8,8c2.574,0 5.426,0 8,0c4.418,0 8,-3.582 8,-8c0,-1.287 0,-2.644 0,-4Z" style="fill:#fbc546;"/><path d="M23,21.999c0,-0.265 -0.105,-0.519 -0.293,-0.706c-0.187,-0.188 -0.441,-0.293 -0.706,-0.293c-2.577,0 -9.425,0 -12.002,0c-0.265,0 -0.519,0.105 -0.706,0.293c-0.188,0.187 -0.293,0.441 -0.293,0.706c0,0.001 0,0.001 0,0.002c0,0.265 0.105,0.519 0.293,0.706c0.187,0.188 0.441,0.293 0.706,0.293c2.577,0 9.425,0 12.002,0c0.265,0 0.519,-0.105 0.706,-0.293c0.188,-0.187 0.293,-0.441 0.293,-0.706c0,-0.001 0,-0.001 0,-0.002Z"/></g><path d="M23.673,11.004c0.402,0.025 0.794,0.108 1.166,0.262c0.317,0.132 0.614,0.309 0.879,0.527c0.223,0.182 0.424,0.393 0.595,0.625c0.34,0.459 0.564,1 0.649,1.565c0.042,0.282 0.047,0.567 0.026,0.851c-0.039,0.513 -0.165,1.019 -0.374,1.489c-0.299,0.676 -0.766,1.273 -1.349,1.727c-0.521,0.406 -1.131,0.695 -1.775,0.84c-0.599,0.135 -1.221,0.139 -1.826,0.047c-0.713,-0.109 -1.401,-0.36 -2.017,-0.734c-0.602,-0.366 -1.132,-0.847 -1.554,-1.412c-0.4,-0.535 -0.702,-1.143 -0.884,-1.786c-0.152,-0.534 -0.221,-1.091 -0.207,-1.646c0.014,-0.552 0.11,-1.1 0.287,-1.623c0.228,-0.673 0.587,-1.299 1.052,-1.836c0.492,-0.567 1.098,-1.032 1.774,-1.357c0.489,-0.236 1.012,-0.398 1.549,-0.48c0.23,-0.035 0.462,-0.052 0.695,-0.061c0.213,-0.003 0.427,-0.002 0.641,-0.002c0.16,0.005 0.313,0.037 0.457,0.11c0.123,0.064 0.232,0.152 0.32,0.26c0.062,0.077 0.113,0.163 0.15,0.254c0.127,0.315 0.084,0.683 -0.115,0.959c-0.057,0.08 -0.127,0.152 -0.205,0.212c-0.161,0.122 -0.348,0.185 -0.548,0.203c-0.216,0.007 -0.433,0 -0.65,0.003c-0.149,0.006 -0.296,0.017 -0.443,0.039c-0.341,0.052 -0.673,0.155 -0.983,0.305c-0.737,0.355 -1.337,0.97 -1.674,1.715c-0.142,0.315 -0.237,0.65 -0.281,0.993c-0.048,0.383 -0.034,0.775 0.043,1.153c0.08,0.391 0.228,0.767 0.435,1.108c0.233,0.384 0.541,0.722 0.901,0.991c0.363,0.272 0.778,0.472 1.218,0.585c0.401,0.103 0.832,0.144 1.244,0.083c0.755,-0.113 1.431,-0.578 1.807,-1.242c0.161,-0.284 0.265,-0.599 0.305,-0.923c0.019,-0.15 0.027,-0.305 0.012,-0.456c-0.027,-0.268 -0.127,-0.528 -0.287,-0.744c-0.074,-0.1 -0.16,-0.19 -0.255,-0.268c-0.114,-0.093 -0.241,-0.17 -0.377,-0.226c-0.159,-0.066 -0.328,-0.101 -0.5,-0.112c-0.38,-0.014 -0.763,-0.032 -1.141,0c-0.067,0.008 -0.131,0.027 -0.189,0.06c-0.052,0.029 -0.098,0.068 -0.135,0.114c-0.035,0.042 -0.062,0.091 -0.081,0.142c-0.017,0.048 -0.027,0.099 -0.028,0.15c-0.005,0.211 0.122,0.409 0.317,0.492c0.059,0.025 0.123,0.037 0.187,0.04c0.165,0.002 0.331,0 0.496,0c0.16,0.005 0.313,0.037 0.457,0.11c0.123,0.064 0.232,0.152 0.32,0.26c0.062,0.077 0.113,0.163 0.15,0.254c0.127,0.315 0.084,0.683 -0.115,0.959c-0.057,0.08 -0.127,0.152 -0.205,0.212c-0.161,0.122 -0.348,0.185 -0.548,0.203c-0.202,0.006 -0.404,0.004 -0.606,0.001c-0.398,-0.015 -0.785,-0.113 -1.136,-0.303c-0.628,-0.342 -1.092,-0.949 -1.253,-1.646c-0.056,-0.247 -0.076,-0.502 -0.057,-0.754c0.018,-0.243 0.072,-0.482 0.159,-0.709c0.11,-0.284 0.272,-0.546 0.476,-0.772c0.218,-0.241 0.484,-0.438 0.778,-0.577c0.314,-0.149 0.652,-0.224 0.998,-0.237c0.419,-0.006 0.837,-0.012 1.255,0.003Z" style="fill-rule:nonzero;"/><path d="M11.059,8.002c0.16,0.014 0.311,0.055 0.45,0.137c0.102,0.06 0.193,0.139 0.268,0.231c0.062,0.077 0.113,0.163 0.15,0.254c0.037,0.092 0.06,0.189 0.069,0.287c0.03,0.339 -0.119,0.678 -0.389,0.884c-0.161,0.122 -0.348,0.185 -0.548,0.203c-0.216,0.007 -0.433,0 -0.65,0.003c-0.149,0.006 -0.296,0.017 -0.443,0.039c-0.341,0.052 -0.673,0.155 -0.983,0.305c-0.737,0.355 -1.337,0.97 -1.674,1.715c-0.142,0.315 -0.237,0.65 -0.281,0.993c-0.048,0.383 -0.034,0.775 0.043,1.153c0.08,0.391 0.228,0.767 0.435,1.108c0.233,0.384 0.541,0.722 0.901,0.991c0.363,0.272 0.778,0.472 1.218,0.585c0.401,0.103 0.832,0.144 1.244,0.083c0.755,-0.113 1.431,-0.578 1.807,-1.242c0.161,-0.284 0.265,-0.599 0.305,-0.923c0.019,-0.15 0.027,-0.305 0.012,-0.456c-0.027,-0.268 -0.127,-0.528 -0.287,-0.744c-0.074,-0.1 -0.16,-0.19 -0.255,-0.268c-0.114,-0.093 -0.241,-0.17 -0.377,-0.226c-0.159,-0.066 -0.328,-0.101 -0.5,-0.112c-0.374,-0.014 -0.751,-0.032 -1.123,0.001c-0.07,0.007 -0.136,0.027 -0.197,0.062c-0.057,0.032 -0.108,0.076 -0.148,0.128c-0.038,0.048 -0.067,0.103 -0.084,0.162c-0.071,0.233 0.042,0.49 0.262,0.596c0.063,0.031 0.132,0.046 0.203,0.049c0.171,0.002 0.342,0 0.513,0c0.16,0.005 0.313,0.037 0.457,0.11c0.123,0.064 0.232,0.152 0.32,0.26c0.062,0.077 0.113,0.163 0.15,0.254c0.127,0.315 0.084,0.683 -0.115,0.959c-0.057,0.08 -0.127,0.152 -0.205,0.212c-0.161,0.122 -0.348,0.185 -0.548,0.203c-0.207,0.006 -0.415,0.004 -0.623,0.001c-0.334,-0.012 -0.66,-0.082 -0.965,-0.22c-0.665,-0.301 -1.177,-0.893 -1.376,-1.595c-0.069,-0.242 -0.101,-0.495 -0.094,-0.746c0.007,-0.286 0.063,-0.571 0.167,-0.838c0.11,-0.286 0.273,-0.551 0.479,-0.778c0.22,-0.243 0.488,-0.442 0.785,-0.582c0.316,-0.15 0.657,-0.226 1.006,-0.239c0.383,-0.005 0.766,-0.005 1.149,0c0.402,0.015 0.797,0.088 1.173,0.234c0.32,0.123 0.621,0.293 0.891,0.504c0.227,0.177 0.433,0.383 0.61,0.61c0.369,0.473 0.612,1.041 0.701,1.634c0.042,0.282 0.047,0.567 0.026,0.851c-0.039,0.513 -0.165,1.019 -0.374,1.489c-0.299,0.676 -0.766,1.273 -1.349,1.727c-0.521,0.406 -1.131,0.695 -1.775,0.84c-0.599,0.135 -1.221,0.139 -1.826,0.047c-0.713,-0.109 -1.401,-0.36 -2.017,-0.734c-0.602,-0.366 -1.132,-0.847 -1.554,-1.412c-0.4,-0.535 -0.702,-1.143 -0.884,-1.786c-0.152,-0.534 -0.221,-1.091 -0.207,-1.646c0.014,-0.552 0.11,-1.1 0.287,-1.623c0.228,-0.673 0.587,-1.299 1.052,-1.836c0.492,-0.567 1.098,-1.032 1.774,-1.357c0.489,-0.236 1.012,-0.398 1.549,-0.48c0.23,-0.035 0.462,-0.052 0.695,-0.061c0.233,-0.003 0.467,-0.007 0.7,0Z" style="fill-rule:nonzero;"/></svg>