<?xml version="1.0" encoding="UTF-8" standalone="no"?><!DOCTYPE svg PUBLIC "-//W3C//DTD SVG 1.1//EN" "http://www.w3.org/Graphics/SVG/1.1/DTD/svg11.dtd"><svg width="100%" height="100%" viewBox="0 0 32 32" version="1.1" xmlns="http://www.w3.org/2000/svg" xmlns:xlink="http://www.w3.org/1999/xlink" xml:space="preserve" style="fill-rule:evenodd;clip-rule:evenodd;stroke-linejoin:round;stroke-miterlimit:1.41421;">
<metadata>
<rdf:RDF xmlns:cc="http://web.resource.org/cc/"
         xmlns:rdf="http://www.w3.org/1999/02/22-rdf-syntax-ns#"
         xmlns:dc = "http://purl.org/dc/elements/1.1/"
         >

     <rdf:Description rdf:about="">
       <dc:title>Mutant Standard emoji v0.2.3</dc:title>
     </rdf:Description>

    <cc:work rdf:about="">
        <cc:license rdf:resource="http://creativecommons.org/licenses/by-nc-sa/4.0/"/>
        <cc:attributionName>Dzuk</cc:attributionName>
        <cc:attributionURL>http://mutant.tech/</cc:attributionURL>
    </cc:work>

</rdf:RDF>
</metadata>
<rect id="confounded" x="0" y="0" width="32" height="32" style="fill:none;"/><g id="outline"><path d="M16.174,4.001c0.462,0.009 0.922,0.034 1.381,0.086c1.022,0.114 2.032,0.341 3.004,0.676c1.949,0.671 3.742,1.776 5.217,3.215c1.518,1.481 2.689,3.305 3.404,5.301c0.366,1.022 0.613,2.087 0.733,3.166c0.052,0.459 0.077,0.919 0.086,1.381c0.005,0.768 0.005,1.535 0,2.303c-0.006,0.34 -0.025,0.679 -0.064,1.017c-0.09,0.782 -0.272,1.553 -0.542,2.293c-0.485,1.323 -1.253,2.539 -2.238,3.547c-1.069,1.095 -2.388,1.94 -3.832,2.448c-0.704,0.248 -1.436,0.416 -2.177,0.501c-0.338,0.039 -0.677,0.058 -1.017,0.064c-2.753,0.018 -5.505,0.018 -8.258,0c-0.34,-0.006 -0.679,-0.025 -1.017,-0.064c-0.741,-0.085 -1.473,-0.253 -2.177,-0.501c-1.444,-0.508 -2.763,-1.353 -3.832,-2.448c-0.985,-1.008 -1.753,-2.224 -2.238,-3.547c-0.27,-0.74 -0.452,-1.511 -0.542,-2.293c-0.039,-0.338 -0.058,-0.677 -0.064,-1.017c-0.005,-0.768 -0.005,-1.535 0,-2.303c0.009,-0.462 0.034,-0.922 0.086,-1.381c0.12,-1.079 0.367,-2.144 0.733,-3.166c0.715,-1.996 1.886,-3.82 3.404,-5.301c1.475,-1.439 3.268,-2.544 5.217,-3.215c0.972,-0.335 1.982,-0.562 3.004,-0.676c0.459,-0.052 0.919,-0.077 1.381,-0.086c0.174,-0.001 0.174,-0.001 0.348,0Z" style="fill-rule:nonzero;"/></g><g id="emoji"><path d="M28,18c0,-3.183 -1.264,-6.235 -3.515,-8.485c-2.25,-2.251 -5.302,-3.515 -8.485,-3.515c0,0 0,0 0,0c-3.183,0 -6.235,1.264 -8.485,3.515c-2.251,2.25 -3.515,5.302 -3.515,8.485c0,0.675 0,1.345 0,2c0,4.418 3.582,8 8,8c2.574,0 5.426,0 8,0c4.418,0 8,-3.582 8,-8c0,-0.655 0,-1.325 0,-2Z" style="fill:#fbc546;"/><path d="M18.207,21.004l0.104,0.005l0.102,0.007l0.103,0.01l0.101,0.011l0.102,0.013l0.1,0.015l0.101,0.017l0.099,0.019l0.099,0.021l0.099,0.023l0.098,0.025l0.097,0.026l0.096,0.029l0.096,0.03l0.095,0.032l0.094,0.034l0.094,0.036l0.092,0.037l0.092,0.039l0.091,0.041l0.09,0.043l0.089,0.044l0.088,0.046l0.087,0.048l0.087,0.049l0.085,0.051l0.084,0.052l0.083,0.054l0.082,0.056l0.081,0.057l0.08,0.059l0.079,0.06l0.078,0.062l0.076,0.064l0.075,0.064l0.075,0.067l0.072,0.067l0.072,0.069l0.07,0.071l0.069,0.072l0.067,0.073l0.066,0.075l0.065,0.076l0.064,0.077l0.062,0.079l0.06,0.08l0.059,0.081l0.058,0.083l0.056,0.083l0.054,0.085l0.053,0.087l0.051,0.087l0.049,0.088l0.048,0.09l0.047,0.091l0.044,0.092l0.043,0.093l0.041,0.094l0.039,0.095l0.038,0.096l0.036,0.097l0.032,0.094l0.053,0.159l0.019,0.065l0.015,0.067l0.01,0.067l0.006,0.068l0.001,0.069l-0.004,0.068l-0.008,0.068l-0.013,0.067l-0.018,0.066l-0.022,0.064l-0.026,0.063l-0.03,0.062l-0.035,0.058l-0.039,0.057l-0.042,0.053l-0.046,0.051l-0.049,0.047l-0.052,0.044l-0.056,0.04l-0.057,0.037l-0.061,0.032l-0.062,0.028l-0.064,0.024l-0.065,0.019l-0.067,0.015l-0.067,0.01l-0.068,0.006l-0.069,0.001l-0.068,-0.004l-0.068,-0.008l-0.067,-0.013l-0.066,-0.018l-0.064,-0.022l-0.063,-0.026l-0.062,-0.03l-0.058,-0.035l-0.057,-0.039l-0.053,-0.042l-0.051,-0.046l-0.047,-0.049l-0.044,-0.052l-0.04,-0.056l-0.037,-0.057l-0.032,-0.061l-0.028,-0.062l-0.024,-0.064l-0.049,-0.149l-0.023,-0.065l-0.022,-0.06l-0.023,-0.059l-0.024,-0.058l-0.025,-0.058l-0.026,-0.057l-0.028,-0.056l-0.028,-0.056l-0.029,-0.055l-0.03,-0.054l-0.032,-0.053l-0.032,-0.053l-0.033,-0.052l-0.035,-0.051l-0.035,-0.051l-0.036,-0.049l-0.037,-0.049l-0.038,-0.048l-0.039,-0.048l-0.039,-0.046l-0.041,-0.046l-0.041,-0.045l-0.042,-0.044l-0.043,-0.043l-0.044,-0.043l-0.045,-0.041l-0.045,-0.041l-0.046,-0.039l-0.047,-0.039l-0.048,-0.038l-0.048,-0.037l-0.049,-0.036l-0.05,-0.035l-0.05,-0.034l-0.051,-0.033l-0.052,-0.033l-0.052,-0.031l-0.053,-0.03l-0.053,-0.029l-0.054,-0.028l-0.055,-0.028l-0.055,-0.026l-0.056,-0.025l-0.056,-0.024l-0.057,-0.023l-0.057,-0.021l-0.057,-0.021l-0.059,-0.02l-0.058,-0.018l-0.059,-0.018l-0.06,-0.016l-0.059,-0.015l-0.061,-0.014l-0.06,-0.013l-0.061,-0.012l-0.062,-0.01l-0.061,-0.009l-0.062,-0.008l0,0l-2.492,2.392l-2.289,-2.389l-0.039,0.005l-0.061,0.009l-0.062,0.01l-0.061,0.012l-0.06,0.013l-0.061,0.014l-0.059,0.015l-0.06,0.016l-0.059,0.018l-0.058,0.018l-0.059,0.02l-0.057,0.021l-0.057,0.021l-0.057,0.023l-0.056,0.024l-0.056,0.025l-0.055,0.026l-0.055,0.028l-0.054,0.028l-0.053,0.029l-0.053,0.03l-0.052,0.031l-0.052,0.033l-0.051,0.033l-0.05,0.034l-0.05,0.035l-0.049,0.036l-0.048,0.037l-0.048,0.038l-0.047,0.039l-0.046,0.039l-0.045,0.041l-0.045,0.041l-0.044,0.043l-0.043,0.043l-0.042,0.044l-0.041,0.045l-0.041,0.046l-0.039,0.046l-0.039,0.048l-0.038,0.048l-0.037,0.049l-0.036,0.049l-0.035,0.051l-0.035,0.051l-0.033,0.052l-0.032,0.053l-0.032,0.053l-0.03,0.054l-0.029,0.055l-0.028,0.056l-0.028,0.056l-0.026,0.057l-0.025,0.058l-0.024,0.058l-0.023,0.059l-0.022,0.06l-0.023,0.065l-0.049,0.149l-0.024,0.064l-0.028,0.062l-0.032,0.061l-0.037,0.057l-0.04,0.056l-0.044,0.052l-0.047,0.049l-0.051,0.046l-0.053,0.042l-0.057,0.039l-0.058,0.035l-0.062,0.03l-0.063,0.026l-0.064,0.022l-0.066,0.018l-0.067,0.013l-0.068,0.008l-0.068,0.004l-0.069,-0.001l-0.068,-0.006l-0.067,-0.01l-0.067,-0.015l-0.065,-0.019l-0.064,-0.024l-0.062,-0.028l-0.061,-0.032l-0.057,-0.037l-0.056,-0.04l-0.052,-0.044l-0.049,-0.047l-0.046,-0.051l-0.042,-0.053l-0.039,-0.057l-0.035,-0.058l-0.03,-0.062l-0.026,-0.063l-0.022,-0.064l-0.018,-0.066l-0.013,-0.067l-0.008,-0.068l-0.004,-0.068l0.001,-0.069l0.006,-0.068l0.01,-0.067l0.015,-0.067l0.019,-0.065l0.053,-0.159l0.032,-0.094l0.036,-0.097l0.038,-0.096l0.039,-0.095l0.041,-0.094l0.043,-0.093l0.044,-0.092l0.047,-0.091l0.048,-0.09l0.049,-0.088l0.051,-0.087l0.053,-0.087l0.054,-0.085l0.056,-0.083l0.058,-0.083l0.059,-0.081l0.06,-0.08l0.062,-0.079l0.064,-0.077l0.065,-0.076l0.066,-0.075l0.067,-0.073l0.069,-0.072l0.07,-0.071l0.072,-0.069l0.072,-0.067l0.075,-0.067l0.075,-0.064l0.076,-0.064l0.078,-0.062l0.079,-0.06l0.08,-0.059l0.081,-0.057l0.082,-0.056l0.083,-0.054l0.084,-0.052l0.085,-0.051l0.087,-0.049l0.087,-0.048l0.088,-0.046l0.089,-0.044l0.09,-0.043l0.091,-0.041l0.092,-0.039l0.092,-0.037l0.094,-0.036l0.094,-0.034l0.095,-0.032l0.096,-0.03l0.096,-0.029l0.097,-0.026l0.098,-0.025l0.099,-0.023l0.099,-0.021l0.099,-0.019l0.101,-0.017l0.1,-0.015l0.102,-0.013l0.101,-0.011l0.103,-0.01l0.102,-0.007l0.104,-0.005l0.103,-0.003l0.099,-0.001l0.432,0l1.519,1.585l1.652,-1.585l0.407,0l0.099,0.001l0.103,0.003Z"/><path d="M23.05,14.001l0.039,0.003l0.04,0.004l0.039,0.006l0.039,0.008l0.039,0.009l0.038,0.01l0.038,0.012l0.038,0.014l0.036,0.015l0.037,0.016l0.035,0.018l0.035,0.02l0.034,0.02l0.033,0.022l0.032,0.024l0.031,0.024l0.031,0.026l0.029,0.027l0.028,0.028l0.027,0.029l0.026,0.031l0.024,0.031l0.024,0.032l0.022,0.033l0.02,0.034l0.02,0.035l0.018,0.035l0.016,0.037l0.015,0.036l0.014,0.038l0.012,0.038l0.01,0.038l0.009,0.039l0.008,0.039l0.006,0.039l0.004,0.04l0.003,0.039l0.001,0.04l0,0.04l-0.002,0.04l-0.004,0.039l-0.005,0.04l-0.007,0.039l-0.008,0.039l-0.01,0.038l-0.011,0.038l-0.013,0.038l-0.014,0.037l-0.016,0.037l-0.017,0.035l-0.019,0.036l-0.02,0.034l-0.021,0.034l-0.023,0.032l-0.024,0.032l-0.025,0.031l-0.026,0.029l-0.028,0.029l-1.856,1.856l1.465,0.488l0.038,0.014l0.037,0.014l0.036,0.017l0.036,0.017l0.034,0.019l0.034,0.021l0.034,0.022l0.032,0.023l0.032,0.024l0.03,0.026l0.029,0.027l0.029,0.028l0.027,0.029l0.026,0.03l0.025,0.031l0.023,0.032l0.022,0.033l0.021,0.034l0.02,0.034l0.018,0.036l0.017,0.036l0.015,0.036l0.014,0.038l0.012,0.038l0.011,0.038l0.009,0.039l0.008,0.039l0.006,0.039l0.004,0.039l0.003,0.04l0.002,0.04l0,0.039l-0.002,0.04l-0.003,0.04l-0.005,0.039l-0.007,0.04l-0.008,0.039l-0.009,0.038l-0.011,0.038l-0.013,0.038l-0.014,0.037l-0.015,0.037l-0.017,0.036l-0.019,0.035l-0.02,0.035l-0.021,0.033l-0.022,0.033l-0.024,0.032l-0.025,0.031l-0.026,0.03l-0.027,0.029l-0.029,0.027l-0.03,0.027l-0.03,0.025l-0.032,0.024l-0.032,0.023l-0.034,0.022l-0.034,0.02l-0.035,0.019l-0.036,0.017l-0.036,0.016l-0.037,0.015l-0.038,0.013l-0.038,0.011l-0.038,0.011l-0.039,0.008l-0.039,0.007l-0.04,0.005l-0.039,0.004l-0.04,0.002l-0.04,0.001l-0.039,-0.001l-0.04,-0.002l-0.04,-0.005l-0.039,-0.005l-0.039,-0.007l-0.039,-0.009l-0.038,-0.01l-0.038,-0.012l-4.087,-1.362l-0.114,-0.484l3.81,-3.81l0.029,-0.028l0.029,-0.026l0.031,-0.025l0.032,-0.024l0.032,-0.023l0.034,-0.021l0.034,-0.02l0.036,-0.019l0.035,-0.017l0.037,-0.016l0.037,-0.014l0.038,-0.013l0.038,-0.011l0.038,-0.01l0.039,-0.008l0.039,-0.007l0.04,-0.005l0.039,-0.004l0.04,-0.002l0.04,0l0.04,0.001Z"/><path d="M9.03,14l0.04,0.002l0.039,0.004l0.04,0.005l0.039,0.007l0.039,0.008l0.038,0.01l0.038,0.011l0.038,0.013l0.037,0.014l0.037,0.016l0.035,0.017l0.036,0.019l0.034,0.02l0.034,0.021l0.032,0.023l0.032,0.024l0.031,0.025l0.029,0.026l0.029,0.028l3.81,3.81l-0.114,0.484l-4.087,1.362l-0.038,0.012l-0.038,0.01l-0.039,0.009l-0.039,0.007l-0.039,0.005l-0.04,0.005l-0.04,0.002l-0.039,0.001l-0.04,-0.001l-0.04,-0.002l-0.039,-0.004l-0.04,-0.005l-0.039,-0.007l-0.039,-0.008l-0.038,-0.011l-0.038,-0.011l-0.038,-0.013l-0.037,-0.015l-0.036,-0.016l-0.036,-0.017l-0.035,-0.019l-0.034,-0.02l-0.034,-0.022l-0.032,-0.023l-0.032,-0.024l-0.03,-0.025l-0.03,-0.027l-0.029,-0.027l-0.027,-0.029l-0.026,-0.03l-0.025,-0.031l-0.024,-0.032l-0.022,-0.033l-0.021,-0.033l-0.02,-0.035l-0.019,-0.035l-0.017,-0.036l-0.015,-0.037l-0.014,-0.037l-0.013,-0.038l-0.011,-0.038l-0.009,-0.038l-0.008,-0.039l-0.007,-0.04l-0.005,-0.039l-0.003,-0.04l-0.002,-0.04l0,-0.039l0.002,-0.04l0.003,-0.04l0.004,-0.039l0.006,-0.039l0.008,-0.039l0.009,-0.039l0.011,-0.038l0.012,-0.038l0.014,-0.038l0.015,-0.036l0.017,-0.036l0.018,-0.036l0.02,-0.034l0.021,-0.034l0.022,-0.033l0.023,-0.032l0.025,-0.031l0.026,-0.03l0.027,-0.029l0.029,-0.028l0.029,-0.027l0.03,-0.026l0.032,-0.024l0.032,-0.023l0.034,-0.022l0.034,-0.021l0.034,-0.019l0.036,-0.017l0.036,-0.017l0.037,-0.014l0.038,-0.014l1.465,-0.488l-1.856,-1.856l-0.028,-0.029l-0.026,-0.029l-0.025,-0.031l-0.024,-0.032l-0.023,-0.032l-0.021,-0.034l-0.02,-0.034l-0.019,-0.036l-0.017,-0.035l-0.016,-0.037l-0.014,-0.037l-0.013,-0.038l-0.011,-0.038l-0.01,-0.038l-0.008,-0.039l-0.007,-0.039l-0.005,-0.04l-0.004,-0.039l-0.002,-0.04l0,-0.04l0.001,-0.04l0.003,-0.039l0.004,-0.04l0.006,-0.039l0.008,-0.039l0.009,-0.039l0.01,-0.038l0.012,-0.038l0.014,-0.038l0.015,-0.036l0.016,-0.037l0.018,-0.035l0.02,-0.035l0.02,-0.034l0.022,-0.033l0.024,-0.032l0.024,-0.031l0.026,-0.031l0.027,-0.029l0.028,-0.028l0.029,-0.027l0.031,-0.026l0.031,-0.024l0.032,-0.024l0.033,-0.022l0.034,-0.02l0.035,-0.02l0.035,-0.018l0.037,-0.016l0.036,-0.015l0.038,-0.014l0.038,-0.012l0.038,-0.01l0.039,-0.009l0.039,-0.008l0.039,-0.006l0.04,-0.004l0.039,-0.003l0.04,-0.001l0.04,0Z"/></g></svg>