<?xml version="1.0" encoding="UTF-8" standalone="no"?><!DOCTYPE svg PUBLIC "-//W3C//DTD SVG 1.1//EN" "http://www.w3.org/Graphics/SVG/1.1/DTD/svg11.dtd"><svg width="100%" height="100%" viewBox="0 0 32 32" version="1.1" xmlns="http://www.w3.org/2000/svg" xmlns:xlink="http://www.w3.org/1999/xlink" xml:space="preserve" style="fill-rule:evenodd;clip-rule:evenodd;stroke-linejoin:round;stroke-miterlimit:1.41421;">
<metadata>
<rdf:RDF xmlns:cc="http://web.resource.org/cc/"
         xmlns:rdf="http://www.w3.org/1999/02/22-rdf-syntax-ns#"
         xmlns:dc = "http://purl.org/dc/elements/1.1/"
         >

     <rdf:Description rdf:about="">
       <dc:title>Mutant Standard emoji v0.2.3</dc:title>
     </rdf:Description>

    <cc:work rdf:about="">
        <cc:license rdf:resource="http://creativecommons.org/licenses/by-nc-sa/4.0/"/>
        <cc:attributionName>Dzuk</cc:attributionName>
        <cc:attributionURL>http://mutant.tech/</cc:attributionURL>
    </cc:work>

</rdf:RDF>
</metadata>
<rect id="content_face" x="0" y="0" width="32" height="32" style="fill:none;"/><g id="outline"><path d="M16.174,2.001c0.462,0.009 0.922,0.034 1.381,0.086c1.079,0.12 2.143,0.367 3.165,0.733c2.051,0.734 3.92,1.951 5.422,3.529c1.381,1.451 2.443,3.198 3.095,5.092c0.335,0.972 0.562,1.982 0.676,3.004c0.052,0.459 0.077,0.919 0.086,1.381c0.007,1.105 0.007,2.211 0,3.316c-0.007,0.374 -0.028,0.747 -0.071,1.119c-0.093,0.815 -0.278,1.62 -0.55,2.394c-0.516,1.464 -1.345,2.812 -2.416,3.935c-1.161,1.217 -2.6,2.163 -4.18,2.742c-0.769,0.282 -1.571,0.476 -2.384,0.58c-0.417,0.053 -0.836,0.079 -1.256,0.087c-2.095,0.013 -4.189,0.013 -6.284,0c-0.42,-0.008 -0.839,-0.034 -1.256,-0.087c-0.813,-0.104 -1.615,-0.298 -2.384,-0.58c-1.498,-0.548 -2.869,-1.426 -3.996,-2.554c-1.16,-1.159 -2.055,-2.576 -2.6,-4.123c-0.272,-0.774 -0.457,-1.579 -0.55,-2.394c-0.043,-0.372 -0.064,-0.745 -0.071,-1.119c-0.007,-1.108 -0.007,-2.215 0,-3.322c0.009,-0.477 0.036,-0.952 0.09,-1.425c0.125,-1.095 0.38,-2.174 0.759,-3.209c0.717,-1.958 1.878,-3.747 3.37,-5.204c1.453,-1.418 3.212,-2.515 5.128,-3.19c1.041,-0.367 2.125,-0.608 3.223,-0.72c0.473,-0.048 0.947,-0.069 1.423,-0.072c0.06,0 0.12,0.001 0.18,0.001Z"/></g><g id="emoji"><path d="M28,16c0,-3.183 -1.264,-6.235 -3.515,-8.485c-2.25,-2.251 -5.302,-3.515 -8.485,-3.515c0,0 0,0 0,0c-6.627,0 -12,5.373 -12,12c0,1.01 0,2.019 0,3c0,4.971 4.029,9 9,9c1.962,0 4.038,0 6,0c4.971,0 9,-4.029 9,-9c0,-0.981 0,-1.99 0,-3Z" style="fill:#fbc546;"/><path d="M11.094,19.004l0.062,0.008l0.062,0.012l0.061,0.016l0.06,0.019l0.058,0.023l0.057,0.027l0.055,0.03l0.053,0.034l0.051,0.037l0.048,0.04l0.046,0.043l1.582,1.581l0.072,0.071l0.07,0.065l0.071,0.062l0.072,0.061l0.073,0.059l0.075,0.057l0.077,0.055l0.077,0.053l0.079,0.051l0.079,0.049l0.081,0.047l0.082,0.045l0.083,0.043l0.084,0.041l0.085,0.039l0.086,0.037l0.087,0.034l0.087,0.033l0.088,0.03l0.09,0.028l0.089,0.027l0.091,0.023l0.091,0.022l0.092,0.02l0.092,0.017l0.093,0.015l0.093,0.013l0.093,0.01l0.094,0.008l0.095,0.006l0.095,0.004l0.095,0.001l0.095,-0.001l0.095,-0.004l0.095,-0.006l0.094,-0.008l0.093,-0.01l0.093,-0.013l0.093,-0.015l0.092,-0.017l0.092,-0.02l0.091,-0.022l0.091,-0.023l0.089,-0.027l0.09,-0.028l0.088,-0.03l0.087,-0.033l0.087,-0.034l0.086,-0.037l0.085,-0.039l0.084,-0.041l0.083,-0.043l0.082,-0.045l0.081,-0.047l0.079,-0.049l0.079,-0.051l0.077,-0.053l0.077,-0.055l0.075,-0.057l0.073,-0.059l0.072,-0.061l0.071,-0.062l0.07,-0.065l0.072,-0.071l1.582,-1.581l0.046,-0.043l0.048,-0.04l0.051,-0.037l0.053,-0.034l0.055,-0.03l0.057,-0.027l0.058,-0.023l0.06,-0.019l0.061,-0.016l0.062,-0.012l0.062,-0.008l0.063,-0.004l0.062,0l0.063,0.004l0.062,0.008l0.062,0.012l0.061,0.016l0.06,0.019l0.058,0.023l0.057,0.027l0.055,0.03l0.053,0.034l0.051,0.037l0.048,0.04l0.046,0.043l0.043,0.046l0.04,0.048l0.037,0.051l0.034,0.053l0.03,0.055l0.027,0.057l0.023,0.058l0.019,0.06l0.016,0.061l0.012,0.062l0.008,0.062l0.004,0.063l0,0.062l-0.004,0.063l-0.008,0.062l-0.012,0.062l-0.016,0.061l-0.019,0.06l-0.023,0.058l-0.027,0.057l-0.03,0.055l-0.034,0.053l-0.037,0.051l-0.04,0.048l-0.043,0.046l-1.59,1.59l-0.099,0.097l-0.106,0.098l-0.108,0.096l-0.11,0.092l-0.112,0.09l-0.114,0.086l-0.116,0.084l-0.118,0.081l-0.12,0.078l-0.122,0.074l-0.123,0.072l-0.124,0.068l-0.127,0.066l-0.128,0.062l-0.129,0.059l-0.131,0.056l-0.131,0.053l-0.134,0.05l-0.134,0.046l-0.136,0.043l-0.136,0.04l-0.138,0.036l-0.139,0.033l-0.14,0.03l-0.14,0.026l-0.141,0.023l-0.142,0.02l-0.143,0.016l-0.143,0.012l-0.144,0.009l-0.144,0.005l-0.139,0.002l-0.012,0l-0.139,-0.002l-0.144,-0.005l-0.144,-0.009l-0.143,-0.012l-0.143,-0.016l-0.142,-0.02l-0.141,-0.023l-0.14,-0.026l-0.14,-0.03l-0.139,-0.033l-0.138,-0.036l-0.136,-0.04l-0.136,-0.043l-0.134,-0.046l-0.134,-0.05l-0.131,-0.053l-0.131,-0.056l-0.129,-0.059l-0.128,-0.062l-0.127,-0.066l-0.124,-0.068l-0.123,-0.072l-0.122,-0.074l-0.12,-0.078l-0.118,-0.081l-0.116,-0.084l-0.114,-0.086l-0.112,-0.09l-0.11,-0.092l-0.108,-0.096l-0.106,-0.098l-0.099,-0.097l-1.59,-1.59l-0.043,-0.046l-0.04,-0.048l-0.037,-0.051l-0.034,-0.053l-0.03,-0.055l-0.027,-0.057l-0.023,-0.058l-0.019,-0.06l-0.016,-0.061l-0.012,-0.062l-0.008,-0.062l-0.004,-0.063l0,-0.062l0.004,-0.063l0.008,-0.062l0.012,-0.062l0.016,-0.061l0.019,-0.06l0.023,-0.058l0.027,-0.057l0.03,-0.055l0.034,-0.053l0.037,-0.051l0.04,-0.048l0.043,-0.046l0.046,-0.043l0.048,-0.04l0.051,-0.037l0.053,-0.034l0.055,-0.03l0.057,-0.027l0.058,-0.023l0.06,-0.019l0.061,-0.016l0.062,-0.012l0.062,-0.008l0.063,-0.004l0.062,0l0.063,0.004Z"/><path d="M23.05,13.001l0.039,0.003l0.04,0.004l0.039,0.006l0.039,0.008l0.039,0.009l0.038,0.01l0.038,0.012l0.038,0.014l0.036,0.015l0.037,0.016l0.035,0.018l0.035,0.02l0.034,0.02l0.033,0.022l0.032,0.024l0.031,0.024l0.031,0.026l0.029,0.027l0.028,0.028l0.027,0.029l0.026,0.031l0.024,0.031l0.024,0.032l0.022,0.033l0.02,0.034l0.02,0.035l0.018,0.035l0.016,0.037l0.015,0.036l0.014,0.038l0.012,0.038l0.01,0.038l0.009,0.039l0.008,0.039l0.006,0.039l0.004,0.04l0.003,0.039l0.001,0.04l0,0.04l-0.002,0.04l-0.004,0.039l-0.005,0.04l-0.007,0.039l-0.008,0.039l-0.01,0.038l-0.011,0.038l-0.013,0.038l-0.014,0.037l-0.016,0.037l-0.017,0.035l-0.019,0.036l-0.02,0.034l-0.021,0.034l-0.023,0.032l-0.024,0.032l-0.025,0.031l-0.026,0.029l-0.028,0.029l-2.707,2.707l-2.707,-2.707l-0.028,-0.029l-0.026,-0.029l-0.025,-0.031l-0.024,-0.032l-0.023,-0.032l-0.021,-0.034l-0.02,-0.034l-0.019,-0.036l-0.017,-0.035l-0.016,-0.037l-0.014,-0.037l-0.013,-0.038l-0.011,-0.038l-0.01,-0.038l-0.008,-0.039l-0.007,-0.039l-0.005,-0.04l-0.004,-0.039l-0.002,-0.04l0,-0.04l0.001,-0.04l0.003,-0.039l0.004,-0.04l0.006,-0.039l0.008,-0.039l0.009,-0.039l0.01,-0.038l0.012,-0.038l0.014,-0.038l0.015,-0.036l0.016,-0.037l0.018,-0.035l0.02,-0.035l0.02,-0.034l0.022,-0.033l0.024,-0.032l0.024,-0.031l0.026,-0.031l0.027,-0.029l0.028,-0.028l0.029,-0.027l0.031,-0.026l0.031,-0.024l0.032,-0.024l0.033,-0.022l0.034,-0.02l0.035,-0.02l0.035,-0.018l0.037,-0.016l0.036,-0.015l0.038,-0.014l0.038,-0.012l0.038,-0.01l0.039,-0.009l0.039,-0.008l0.039,-0.006l0.04,-0.004l0.039,-0.003l0.04,-0.001l0.04,0l0.04,0.002l0.039,0.004l0.04,0.005l0.039,0.007l0.039,0.008l0.038,0.01l0.038,0.011l0.038,0.013l0.037,0.014l0.037,0.016l0.035,0.017l0.036,0.019l0.034,0.02l0.034,0.021l0.032,0.023l0.032,0.024l0.031,0.025l0.029,0.026l0.029,0.028l1.293,1.293l1.293,-1.293l0.029,-0.028l0.029,-0.026l0.031,-0.025l0.032,-0.024l0.032,-0.023l0.034,-0.021l0.034,-0.02l0.036,-0.019l0.035,-0.017l0.037,-0.016l0.037,-0.014l0.038,-0.013l0.038,-0.011l0.038,-0.01l0.039,-0.008l0.039,-0.007l0.04,-0.005l0.039,-0.004l0.04,-0.002l0.04,0l0.04,0.001Z"/><path d="M13.05,13.001l0.039,0.003l0.04,0.004l0.039,0.006l0.039,0.008l0.039,0.009l0.038,0.01l0.038,0.012l0.038,0.014l0.036,0.015l0.037,0.016l0.035,0.018l0.035,0.02l0.034,0.02l0.033,0.022l0.032,0.024l0.031,0.024l0.031,0.026l0.029,0.027l0.028,0.028l0.027,0.029l0.026,0.031l0.024,0.031l0.024,0.032l0.022,0.033l0.02,0.034l0.02,0.035l0.018,0.035l0.016,0.037l0.015,0.036l0.014,0.038l0.012,0.038l0.01,0.038l0.009,0.039l0.008,0.039l0.006,0.039l0.004,0.04l0.003,0.039l0.001,0.04l0,0.04l-0.002,0.04l-0.004,0.039l-0.005,0.04l-0.007,0.039l-0.008,0.039l-0.01,0.038l-0.011,0.038l-0.013,0.038l-0.014,0.037l-0.016,0.037l-0.017,0.035l-0.019,0.036l-0.02,0.034l-0.021,0.034l-0.023,0.032l-0.024,0.032l-0.025,0.031l-0.026,0.029l-0.028,0.029l-2.707,2.707l-2.707,-2.707l-0.028,-0.029l-0.026,-0.029l-0.025,-0.031l-0.024,-0.032l-0.023,-0.032l-0.021,-0.034l-0.02,-0.034l-0.019,-0.036l-0.017,-0.035l-0.016,-0.037l-0.014,-0.037l-0.013,-0.038l-0.011,-0.038l-0.01,-0.038l-0.008,-0.039l-0.007,-0.039l-0.005,-0.04l-0.004,-0.039l-0.002,-0.04l0,-0.04l0.001,-0.04l0.003,-0.039l0.004,-0.04l0.006,-0.039l0.008,-0.039l0.009,-0.039l0.01,-0.038l0.012,-0.038l0.014,-0.038l0.015,-0.036l0.016,-0.037l0.018,-0.035l0.02,-0.035l0.02,-0.034l0.022,-0.033l0.024,-0.032l0.024,-0.031l0.026,-0.031l0.027,-0.029l0.028,-0.028l0.029,-0.027l0.031,-0.026l0.031,-0.024l0.032,-0.024l0.033,-0.022l0.034,-0.02l0.035,-0.02l0.035,-0.018l0.037,-0.016l0.036,-0.015l0.038,-0.014l0.038,-0.012l0.038,-0.01l0.039,-0.009l0.039,-0.008l0.039,-0.006l0.04,-0.004l0.039,-0.003l0.04,-0.001l0.04,0l0.04,0.002l0.039,0.004l0.04,0.005l0.039,0.007l0.039,0.008l0.038,0.01l0.038,0.011l0.038,0.013l0.037,0.014l0.037,0.016l0.035,0.017l0.036,0.019l0.034,0.02l0.034,0.021l0.032,0.023l0.032,0.024l0.031,0.025l0.029,0.026l0.029,0.028l1.293,1.293l1.293,-1.293l0.029,-0.028l0.029,-0.026l0.031,-0.025l0.032,-0.024l0.032,-0.023l0.034,-0.021l0.034,-0.02l0.036,-0.019l0.035,-0.017l0.037,-0.016l0.037,-0.014l0.038,-0.013l0.038,-0.011l0.038,-0.01l0.039,-0.008l0.039,-0.007l0.04,-0.005l0.039,-0.004l0.04,-0.002l0.04,0l0.04,0.001Z"/></g></svg>