<?xml version="1.0" encoding="UTF-8" standalone="no"?><!DOCTYPE svg PUBLIC "-//W3C//DTD SVG 1.1//EN" "http://www.w3.org/Graphics/SVG/1.1/DTD/svg11.dtd"><svg width="100%" height="100%" viewBox="0 0 32 32" version="1.1" xmlns="http://www.w3.org/2000/svg" xmlns:xlink="http://www.w3.org/1999/xlink" xml:space="preserve" style="fill-rule:evenodd;clip-rule:evenodd;stroke-linejoin:round;stroke-miterlimit:1.41421;">
<metadata>
<rdf:RDF xmlns:cc="http://web.resource.org/cc/"
         xmlns:rdf="http://www.w3.org/1999/02/22-rdf-syntax-ns#"
         xmlns:dc = "http://purl.org/dc/elements/1.1/"
         >

     <rdf:Description rdf:about="">
       <dc:title>Mutant Standard emoji v0.2.3</dc:title>
     </rdf:Description>

    <cc:work rdf:about="">
        <cc:license rdf:resource="http://creativecommons.org/licenses/by-nc-sa/4.0/"/>
        <cc:attributionName>Dzuk</cc:attributionName>
        <cc:attributionURL>http://mutant.tech/</cc:attributionURL>
    </cc:work>

</rdf:RDF>
</metadata>
<rect id="cool_face" x="0" y="0" width="32" height="32" style="fill:none;"/><g id="outline"><path d="M16.174,2.001c0.462,0.009 0.922,0.034 1.381,0.086c1.022,0.114 2.032,0.341 3.004,0.676c1.784,0.615 3.439,1.592 4.838,2.859c1.701,1.54 3.009,3.497 3.783,5.658c0.366,1.022 0.613,2.086 0.733,3.165c0.052,0.459 0.077,0.919 0.086,1.381c0.007,1.105 0.007,2.21 0,3.316c-0.007,0.374 -0.028,0.747 -0.071,1.119c-0.093,0.815 -0.278,1.62 -0.55,2.394c-0.545,1.547 -1.44,2.964 -2.6,4.123c-1.127,1.128 -2.498,2.006 -3.996,2.554c-0.769,0.282 -1.571,0.476 -2.384,0.58c-0.417,0.053 -0.836,0.079 -1.256,0.087c-2.095,0.013 -4.189,0.013 -6.284,0c-0.42,-0.008 -0.839,-0.034 -1.256,-0.087c-0.813,-0.104 -1.615,-0.298 -2.384,-0.58c-1.58,-0.579 -3.019,-1.525 -4.18,-2.742c-1.071,-1.123 -1.9,-2.471 -2.416,-3.935c-0.272,-0.774 -0.457,-1.579 -0.55,-2.394c-0.043,-0.372 -0.064,-0.745 -0.071,-1.119c-0.007,-1.108 -0.007,-2.215 0,-3.322c0.009,-0.477 0.036,-0.952 0.09,-1.425c0.119,-1.038 0.354,-2.062 0.701,-3.047c0.675,-1.916 1.772,-3.675 3.191,-5.128c1.457,-1.492 3.245,-2.653 5.203,-3.37c1.035,-0.379 2.114,-0.634 3.209,-0.759c0.473,-0.054 0.948,-0.081 1.425,-0.09c0.177,-0.001 0.176,-0.001 0.354,0Z"/></g><g id="emoji"><path d="M28,16c0,-3.183 -1.264,-6.235 -3.515,-8.485c-2.25,-2.251 -5.302,-3.515 -8.485,-3.515c0,0 0,0 0,0c-6.627,0 -12,5.373 -12,12c0,1.01 0,2.019 0,3c0,4.971 4.029,9 9,9c1.962,0 4.038,0 6,0c4.971,0 9,-4.029 9,-9c0,-0.981 0,-1.99 0,-3Z" style="fill:#fbc546;"/><path d="M21.04,21.001l0.063,0.004l0.062,0.009l0.062,0.012l0.061,0.016l0.059,0.02l0.058,0.024l0.057,0.027l0.055,0.031l0.052,0.034l0.051,0.037l0.048,0.041l0.045,0.043l0.043,0.046l0.04,0.049l0.036,0.051l0.033,0.054l0.03,0.055l0.026,0.057l0.023,0.059l0.019,0.06l0.015,0.061l0.011,0.061l0.007,0.063l0.004,0.062l-0.001,0.063l-0.004,0.063l-0.009,0.062l-0.012,0.062l-0.016,0.061l-0.02,0.059l-0.024,0.058l-0.027,0.057l-0.031,0.055l-0.034,0.052l-0.037,0.051l-0.041,0.048l-0.043,0.045l-0.046,0.043l-0.049,0.04l-0.051,0.036l-1.493,0.995l-0.104,0.068l-0.11,0.069l-0.11,0.067l-0.112,0.064l-0.113,0.062l-0.114,0.061l-0.114,0.058l-0.116,0.056l-0.117,0.053l-0.117,0.052l-0.119,0.049l-0.119,0.047l-0.12,0.045l-0.121,0.043l-0.122,0.04l-0.122,0.039l-0.123,0.036l-0.124,0.033l-0.124,0.032l-0.125,0.029l-0.125,0.027l-0.126,0.025l-0.127,0.022l-0.127,0.02l-0.127,0.018l-0.128,0.015l-0.128,0.013l-0.128,0.011l-0.129,0.008l-0.129,0.006l-0.129,0.004l-0.125,0.001l-0.376,0l-0.125,-0.001l-0.129,-0.004l-0.129,-0.006l-0.129,-0.008l-0.128,-0.011l-0.128,-0.013l-0.128,-0.015l-0.127,-0.018l-0.127,-0.02l-0.127,-0.022l-0.126,-0.025l-0.125,-0.027l-0.125,-0.029l-0.124,-0.032l-0.124,-0.033l-0.123,-0.036l-0.122,-0.039l-0.122,-0.04l-0.121,-0.043l-0.12,-0.045l-0.119,-0.047l-0.119,-0.049l-0.117,-0.052l-0.117,-0.053l-0.116,-0.056l-0.114,-0.058l-0.114,-0.061l-0.113,-0.062l-0.112,-0.064l-0.11,-0.067l-0.11,-0.069l-0.104,-0.068l-1.493,-0.995l-0.051,-0.036l-0.049,-0.04l-0.046,-0.043l-0.043,-0.045l-0.041,-0.048l-0.037,-0.051l-0.034,-0.052l-0.031,-0.055l-0.027,-0.057l-0.024,-0.058l-0.02,-0.059l-0.016,-0.061l-0.012,-0.062l-0.009,-0.062l-0.004,-0.063l-0.001,-0.063l0.004,-0.062l0.007,-0.063l0.011,-0.061l0.015,-0.061l0.019,-0.06l0.023,-0.059l0.026,-0.057l0.03,-0.055l0.033,-0.054l0.036,-0.051l0.04,-0.049l0.043,-0.046l0.045,-0.043l0.048,-0.041l0.051,-0.037l0.052,-0.034l0.055,-0.031l0.057,-0.027l0.058,-0.024l0.059,-0.02l0.061,-0.016l0.062,-0.012l0.062,-0.009l0.063,-0.004l0.063,-0.001l0.062,0.004l0.063,0.007l0.061,0.011l0.061,0.015l0.06,0.019l0.059,0.023l0.057,0.026l0.055,0.03l0.054,0.033l1.484,0.99l0.082,0.053l0.078,0.049l0.079,0.047l0.08,0.047l0.08,0.044l0.082,0.043l0.082,0.042l0.082,0.039l0.084,0.039l0.084,0.037l0.084,0.035l0.085,0.034l0.086,0.032l0.087,0.03l0.086,0.029l0.088,0.027l0.088,0.026l0.088,0.024l0.089,0.023l0.089,0.021l0.089,0.019l0.09,0.017l0.091,0.016l0.09,0.015l0.091,0.012l0.092,0.011l0.091,0.01l0.092,0.007l0.092,0.006l0.092,0.005l0.092,0.002l0.097,0.001l0.358,0l0.097,-0.001l0.092,-0.002l0.092,-0.005l0.092,-0.006l0.092,-0.007l0.091,-0.01l0.092,-0.011l0.091,-0.012l0.09,-0.015l0.091,-0.016l0.09,-0.017l0.089,-0.019l0.089,-0.021l0.089,-0.023l0.088,-0.024l0.088,-0.026l0.088,-0.027l0.086,-0.029l0.087,-0.03l0.086,-0.032l0.085,-0.034l0.084,-0.035l0.084,-0.037l0.084,-0.039l0.082,-0.039l0.082,-0.042l0.082,-0.043l0.08,-0.044l0.08,-0.047l0.079,-0.047l0.078,-0.049l0.082,-0.053l1.484,-0.99l0.054,-0.033l0.055,-0.03l0.057,-0.026l0.059,-0.023l0.06,-0.019l0.061,-0.015l0.061,-0.011l0.063,-0.007l0.062,-0.004l0.063,0.001Z"/><path d="M3,12c0,0 7.548,0 9.529,0c0.31,0 0.615,0.072 0.893,0.211c0.341,0.17 0.819,0.408 1.16,0.578c0.277,0.139 0.583,0.211 0.893,0.211c0.318,0 0.735,0 1.053,0c0.31,0 0.617,-0.072 0.894,-0.211c0.34,-0.17 0.816,-0.408 1.156,-0.578c0.277,-0.139 0.584,-0.211 0.894,-0.211c1.982,0 9.528,0 9.528,0l0,2l-3,0c0,0 0,0.412 0,1c0,2.209 -1.791,4 -4,4c-0.492,0 -0.97,0 -1.394,0c-1.004,0 -1.94,-0.501 -2.497,-1.336c-0.533,-0.8 -1.109,-1.664 -1.109,-1.664l-1.996,0c0,0 -0.576,0.864 -1.11,1.664c-0.556,0.835 -1.493,1.336 -2.496,1.336c-0.426,0 -0.905,0 -1.398,0c-1.061,0 -2.078,-0.421 -2.828,-1.172c-0.751,-0.75 -1.172,-1.767 -1.172,-2.828c0,-0.588 0,-1 0,-1l-3,0l0,-2Z"/></g></svg>