<?xml version="1.0" encoding="UTF-8" standalone="no"?><!DOCTYPE svg PUBLIC "-//W3C//DTD SVG 1.1//EN" "http://www.w3.org/Graphics/SVG/1.1/DTD/svg11.dtd"><svg width="100%" height="100%" viewBox="0 0 32 32" version="1.1" xmlns="http://www.w3.org/2000/svg" xmlns:xlink="http://www.w3.org/1999/xlink" xml:space="preserve" style="fill-rule:evenodd;clip-rule:evenodd;stroke-linejoin:round;stroke-miterlimit:1.41421;">
<metadata>
<rdf:RDF xmlns:cc="http://web.resource.org/cc/"
         xmlns:rdf="http://www.w3.org/1999/02/22-rdf-syntax-ns#"
         xmlns:dc = "http://purl.org/dc/elements/1.1/"
         >

     <rdf:Description rdf:about="">
       <dc:title>Mutant Standard emoji v0.2.3</dc:title>
     </rdf:Description>

    <cc:work rdf:about="">
        <cc:license rdf:resource="http://creativecommons.org/licenses/by-nc-sa/4.0/"/>
        <cc:attributionName>Dzuk</cc:attributionName>
        <cc:attributionURL>http://mutant.tech/</cc:attributionURL>
    </cc:work>

</rdf:RDF>
</metadata>
<rect id="cowboy" x="0" y="0" width="32" height="32" style="fill:none;"/><clipPath id="_clip1"><rect x="0" y="0" width="32" height="32"/></clipPath><g clip-path="url(#_clip1)"><g id="outline"><path d="M18.142,7.001c0.42,0.008 0.839,0.034 1.257,0.087c0.812,0.104 1.614,0.298 2.383,0.58c1.456,0.533 2.793,1.378 3.902,2.461c1.205,1.176 2.134,2.627 2.694,4.216c0.272,0.774 0.457,1.579 0.55,2.394c0.043,0.372 0.064,0.745 0.071,1.119c0.007,1.095 0.007,2.189 0,3.284c-0.007,0.374 -0.028,0.747 -0.071,1.119c-0.093,0.815 -0.278,1.62 -0.55,2.394c-0.457,1.298 -1.161,2.505 -2.061,3.544c-1.217,1.406 -2.789,2.494 -4.535,3.133c-0.813,0.298 -1.661,0.498 -2.521,0.596c-0.372,0.043 -0.745,0.064 -1.119,0.071c-1.428,0.009 -2.856,0.009 -4.284,0c-0.374,-0.007 -0.747,-0.028 -1.119,-0.071c-0.86,-0.098 -1.708,-0.298 -2.521,-0.596c-1.539,-0.564 -2.944,-1.475 -4.089,-2.648c-1.115,-1.141 -1.976,-2.524 -2.507,-4.029c-0.272,-0.774 -0.457,-1.579 -0.55,-2.394c-0.043,-0.372 -0.064,-0.745 -0.071,-1.119c-0.007,-1.095 -0.007,-2.189 0,-3.284c0.007,-0.374 0.028,-0.747 0.071,-1.119c0.093,-0.815 0.278,-1.62 0.55,-2.394c0.531,-1.505 1.392,-2.888 2.507,-4.029c1.145,-1.173 2.55,-2.084 4.089,-2.648c0.769,-0.282 1.57,-0.476 2.383,-0.58c0.418,-0.053 0.837,-0.079 1.257,-0.087c1.428,-0.009 2.856,-0.009 4.284,0Z"/></g><g id="emoji"><path d="M27,18c0,-4.971 -4.029,-9 -9,-9c-1.32,0 -2.68,0 -4,0c-4.971,0 -9,4.029 -9,9c0,0.994 0,2.006 0,3c0,4.971 4.029,9 9,9c1.32,0 2.68,0 4,0c4.971,0 9,-4.029 9,-9c0,-0.994 0,-2.006 0,-3Z" style="fill:#fbc546;"/><path d="M22,22l-12,0c0,0 0,0 0,0c0,3.314 2.686,6 6,6c0,0 0,0 0,0c3.314,0 6,-2.686 6,-6c0,0 0,0 0,0Z"/><path d="M12,17.5c0,-0.398 -0.158,-0.779 -0.439,-1.061c-0.282,-0.281 -0.663,-0.439 -1.061,-0.439c-0.398,0 -0.779,0.158 -1.061,0.439c-0.281,0.282 -0.439,0.663 -0.439,1.061c0,0.633 0,1.367 0,2c0,0.398 0.158,0.779 0.439,1.061c0.282,0.281 0.663,0.439 1.061,0.439c0.398,0 0.779,-0.158 1.061,-0.439c0.281,-0.282 0.439,-0.663 0.439,-1.061c0,-0.633 0,-1.367 0,-2Z"/><path d="M23,17.498c0,-0.827 -0.671,-1.498 -1.498,-1.498c-0.001,0 -0.003,0 -0.004,0c-0.827,0 -1.498,0.671 -1.498,1.498c0,0.634 0,1.37 0,2.004c0,0.827 0.671,1.498 1.498,1.498c0.001,0 0.003,0 0.004,0c0.827,0 1.498,-0.671 1.498,-1.498c0,-0.634 0,-1.37 0,-2.004Z"/><path d="M7.448,6.33l0.988,-2.962c0.144,-0.415 0.347,-0.805 0.614,-1.155c0.329,-0.43 0.746,-0.791 1.219,-1.057c0.594,-0.333 1.27,-0.51 1.951,-0.511c0.339,-0.001 0.677,0.042 1.005,0.126c0.133,0.034 0.262,0.077 0.391,0.123c0.795,0.306 1.582,0.631 2.373,0.947l0.011,0.005c0.798,-0.308 1.585,-0.645 2.384,-0.952c0.193,-0.069 0.389,-0.128 0.59,-0.169c0.199,-0.04 0.4,-0.063 0.603,-0.076c0.102,-0.003 0.203,-0.004 0.304,-0.003c0.407,0.016 0.808,0.083 1.194,0.216c0.838,0.289 1.567,0.857 2.05,1.6c0.185,0.283 0.328,0.587 0.439,0.906l0.983,2.949c0.629,-0.316 1.258,-0.633 1.888,-0.947c0.055,-0.026 0.11,-0.054 0.166,-0.078c0.168,-0.073 0.341,-0.133 0.519,-0.18c0.177,-0.046 0.358,-0.078 0.541,-0.096c0.162,-0.015 0.203,-0.013 0.366,-0.016c0.061,0.002 0.122,0.004 0.183,0.006c0.183,0.016 0.363,0.036 0.544,0.076c0.477,0.105 0.931,0.312 1.325,0.602c0.295,0.218 0.555,0.482 0.768,0.78c0.213,0.299 0.379,0.63 0.49,0.98c0.166,0.524 0.206,1.087 0.116,1.63c-0.091,0.543 -0.31,1.062 -0.637,1.505c-0.218,0.295 -0.482,0.555 -0.78,0.768c-0.15,0.107 -0.308,0.197 -0.471,0.284c-1.619,0.809 -3.232,1.629 -4.857,2.427c-0.623,0.295 -1.27,0.529 -1.942,0.688c-0.671,0.158 -1.355,0.238 -2.044,0.253c-3.148,0.023 -6.296,0.023 -9.444,0c-0.689,-0.015 -1.373,-0.095 -2.044,-0.253c-0.672,-0.159 -1.319,-0.393 -1.942,-0.688c-1.625,-0.798 -3.238,-1.618 -4.857,-2.427c-0.163,-0.087 -0.321,-0.177 -0.471,-0.284c-0.298,-0.213 -0.562,-0.473 -0.78,-0.768c-0.254,-0.344 -0.444,-0.735 -0.558,-1.147c-0.114,-0.413 -0.151,-0.846 -0.11,-1.271c0.096,-0.98 0.613,-1.892 1.405,-2.477c0.246,-0.181 0.516,-0.33 0.8,-0.442c0.341,-0.134 0.703,-0.214 1.069,-0.236c0.427,-0.025 0.858,0.028 1.266,0.157c0.176,0.056 0.342,0.128 0.509,0.207c0.63,0.315 1.256,0.638 1.883,0.96Z"/><path d="M8,11c0,0 1.445,-4.335 2.329,-6.988c0.174,-0.522 0.556,-0.95 1.056,-1.182c0.5,-0.231 1.073,-0.247 1.584,-0.042c0.804,0.321 1.684,0.673 2.288,0.915c0.477,0.191 1.009,0.191 1.486,0c0.604,-0.242 1.484,-0.594 2.288,-0.915c0.511,-0.205 1.084,-0.189 1.584,0.042c0.5,0.232 0.882,0.66 1.056,1.182c0.884,2.653 2.329,6.988 2.329,6.988l-16,0Z" style="fill:#824300;"/><clipPath id="_clip2"><path d="M8,11c0,0 1.445,-4.335 2.329,-6.988c0.174,-0.522 0.556,-0.95 1.056,-1.182c0.5,-0.231 1.073,-0.247 1.584,-0.042c0.804,0.321 1.684,0.673 2.288,0.915c0.477,0.191 1.009,0.191 1.486,0c0.604,-0.242 1.484,-0.594 2.288,-0.915c0.511,-0.205 1.084,-0.189 1.584,0.042c0.5,0.232 0.882,0.66 1.056,1.182c0.884,2.653 2.329,6.988 2.329,6.988l-16,0Z"/></clipPath><g clip-path="url(#_clip2)"><path d="M28.21,5.006l0.182,0.016l0.182,0.025l0.18,0.035l0.178,0.044l0.175,0.054l0.172,0.062l0.169,0.071l0.165,0.081l0.16,0.088l0.155,0.097l0.151,0.105l0.144,0.113l0.139,0.12l0.132,0.127l0.125,0.134l0.118,0.14l0.11,0.146l0.103,0.152l0.094,0.157l0.086,0.162l0.078,0.166l0.069,0.17l0.06,0.173l0.051,0.176l0.041,0.178l0.032,0.181l0.023,0.182l0.012,0.182l0.004,0.184l-0.006,0.183l-0.016,0.182l-0.025,0.182l-0.035,0.18l-0.044,0.178l-0.054,0.175l-0.062,0.172l-0.071,0.169l-0.081,0.165l-0.088,0.16l-0.097,0.155l-0.105,0.151l-0.113,0.144l-0.12,0.139l-0.127,0.132l-0.134,0.125l-0.14,0.118l-0.146,0.11l-0.152,0.103l-0.157,0.094l-0.162,0.087l-4.744,2.372l-0.113,0.055l-0.125,0.059l-0.125,0.057l-0.126,0.056l-0.128,0.053l-0.127,0.052l-0.129,0.049l-0.129,0.048l-0.129,0.046l-0.131,0.044l-0.131,0.042l-0.131,0.04l-0.132,0.039l-0.132,0.036l-0.133,0.034l-0.134,0.033l-0.134,0.031l-0.134,0.028l-0.135,0.027l-0.135,0.025l-0.135,0.022l-0.136,0.021l-0.136,0.019l-0.137,0.017l-0.137,0.015l-0.137,0.013l-0.137,0.011l-0.137,0.009l-0.138,0.007l-0.138,0.005l-0.138,0.003l-0.126,0.001l-9.192,0l-0.126,-0.001l-0.138,-0.003l-0.138,-0.005l-0.138,-0.007l-0.137,-0.009l-0.137,-0.011l-0.137,-0.013l-0.137,-0.015l-0.137,-0.017l-0.136,-0.019l-0.136,-0.021l-0.135,-0.022l-0.135,-0.025l-0.135,-0.027l-0.134,-0.028l-0.134,-0.031l-0.134,-0.033l-0.133,-0.034l-0.132,-0.036l-0.132,-0.039l-0.131,-0.04l-0.131,-0.042l-0.131,-0.044l-0.129,-0.046l-0.129,-0.048l-0.129,-0.049l-0.127,-0.052l-0.128,-0.053l-0.126,-0.056l-0.125,-0.057l-0.125,-0.059l-0.113,-0.055l-4.744,-2.372l-0.162,-0.087l-0.157,-0.094l-0.152,-0.103l-0.146,-0.11l-0.14,-0.118l-0.134,-0.125l-0.127,-0.132l-0.12,-0.139l-0.113,-0.144l-0.105,-0.151l-0.097,-0.155l-0.088,-0.16l-0.081,-0.165l-0.071,-0.169l-0.062,-0.172l-0.054,-0.175l-0.044,-0.178l-0.035,-0.18l-0.025,-0.182l-0.016,-0.182l-0.006,-0.183l0.004,-0.184l0.012,-0.182l0.023,-0.182l0.032,-0.181l0.041,-0.178l0.051,-0.176l0.06,-0.173l0.069,-0.17l0.078,-0.166l0.086,-0.162l0.094,-0.157l0.103,-0.152l0.11,-0.146l0.118,-0.14l0.125,-0.134l0.132,-0.127l0.139,-0.12l0.144,-0.113l0.151,-0.105l0.155,-0.097l0.16,-0.088l0.165,-0.081l0.169,-0.071l0.172,-0.062l0.175,-0.054l0.178,-0.044l0.18,-0.035l0.182,-0.025l0.182,-0.016l0.183,-0.006l0.184,0.004l0.182,0.012l0.182,0.023l0.181,0.032l0.178,0.041l0.176,0.051l0.173,0.06l0.17,0.069l0.166,0.078l4.722,2.36l0.044,0.022l0.033,0.016l0.033,0.015l0.033,0.014l0.034,0.014l0.033,0.014l0.034,0.013l0.034,0.012l0.034,0.013l0.034,0.011l0.035,0.011l0.034,0.011l0.035,0.01l0.035,0.009l0.035,0.01l0.035,0.008l0.035,0.008l0.036,0.008l0.035,0.007l0.036,0.006l0.035,0.006l0.036,0.006l0.036,0.005l0.036,0.004l0.036,0.004l0.036,0.003l0.036,0.003l0.036,0.003l0.036,0.002l0.037,0.001l0.036,0.001l0.049,0l9.142,0l0.049,0l0.036,-0.001l0.037,-0.001l0.036,-0.002l0.036,-0.003l0.036,-0.003l0.036,-0.003l0.036,-0.004l0.036,-0.004l0.036,-0.005l0.036,-0.006l0.035,-0.006l0.036,-0.006l0.035,-0.007l0.036,-0.008l0.035,-0.008l0.035,-0.008l0.035,-0.01l0.035,-0.009l0.035,-0.01l0.034,-0.011l0.035,-0.011l0.034,-0.011l0.034,-0.013l0.034,-0.012l0.034,-0.013l0.033,-0.014l0.034,-0.014l0.033,-0.014l0.033,-0.015l0.033,-0.016l0.044,-0.022l4.722,-2.36l0.166,-0.078l0.17,-0.069l0.173,-0.06l0.176,-0.051l0.178,-0.041l0.181,-0.032l0.182,-0.023l0.182,-0.012l0.184,-0.004l0.183,0.006Z" style="fill:#502900;"/></g><path d="M28.129,7.006l0.117,0.014l0.115,0.024l0.113,0.033l0.111,0.042l0.106,0.05l0.102,0.058l0.098,0.066l0.092,0.074l0.086,0.08l0.079,0.088l0.072,0.093l0.065,0.098l0.057,0.103l0.048,0.108l0.04,0.11l0.031,0.114l0.022,0.116l0.013,0.117l0.004,0.117l-0.006,0.118l-0.014,0.117l-0.024,0.115l-0.033,0.113l-0.042,0.111l-0.05,0.106l-0.058,0.102l-0.066,0.098l-0.074,0.092l-0.08,0.086l-0.088,0.079l-0.093,0.072l-0.098,0.065l-0.103,0.057l-4.738,2.369l-0.093,0.045l-0.099,0.047l-0.099,0.045l-0.1,0.044l-0.1,0.042l-0.101,0.041l-0.101,0.039l-0.102,0.038l-0.102,0.036l-0.103,0.035l-0.104,0.033l-0.103,0.032l-0.104,0.03l-0.105,0.029l-0.105,0.027l-0.105,0.025l-0.106,0.025l-0.106,0.022l-0.106,0.021l-0.107,0.02l-0.107,0.018l-0.107,0.016l-0.108,0.015l-0.108,0.014l-0.108,0.011l-0.108,0.011l-0.108,0.008l-0.109,0.007l-0.108,0.006l-0.109,0.004l-0.109,0.002l-0.104,0.001l-9.178,0l-0.104,-0.001l-0.109,-0.002l-0.109,-0.004l-0.108,-0.006l-0.109,-0.007l-0.108,-0.008l-0.108,-0.011l-0.108,-0.011l-0.108,-0.014l-0.108,-0.015l-0.107,-0.016l-0.107,-0.018l-0.107,-0.02l-0.106,-0.021l-0.106,-0.022l-0.106,-0.025l-0.105,-0.025l-0.105,-0.027l-0.105,-0.029l-0.104,-0.03l-0.103,-0.032l-0.104,-0.033l-0.103,-0.035l-0.102,-0.036l-0.102,-0.038l-0.101,-0.039l-0.101,-0.041l-0.1,-0.042l-0.1,-0.044l-0.099,-0.045l-0.099,-0.047l-0.093,-0.045l-4.738,-2.369l-0.103,-0.057l-0.098,-0.065l-0.093,-0.072l-0.088,-0.079l-0.08,-0.086l-0.074,-0.092l-0.066,-0.098l-0.058,-0.102l-0.05,-0.106l-0.042,-0.111l-0.033,-0.113l-0.024,-0.115l-0.014,-0.117l-0.006,-0.118l0.004,-0.117l0.013,-0.117l0.022,-0.116l0.031,-0.114l0.04,-0.11l0.048,-0.108l0.057,-0.103l0.065,-0.098l0.072,-0.093l0.079,-0.088l0.086,-0.08l0.092,-0.074l0.098,-0.066l0.102,-0.058l0.106,-0.05l0.111,-0.042l0.113,-0.033l0.115,-0.024l0.117,-0.014l0.118,-0.006l0.117,0.004l0.117,0.013l0.116,0.022l0.114,0.031l0.11,0.04l0.108,0.048l4.728,2.365l0.064,0.031l0.059,0.028l0.059,0.027l0.06,0.026l0.06,0.025l0.061,0.025l0.061,0.023l0.061,0.023l0.061,0.022l0.062,0.021l0.062,0.019l0.062,0.019l0.063,0.019l0.062,0.017l0.063,0.016l0.064,0.016l0.063,0.014l0.064,0.014l0.063,0.012l0.064,0.012l0.065,0.011l0.064,0.01l0.065,0.009l0.064,0.008l0.065,0.007l0.065,0.006l0.065,0.005l0.065,0.004l0.065,0.004l0.066,0.002l0.065,0.001l0.071,0.001l9.156,0l0.071,-0.001l0.065,-0.001l0.066,-0.002l0.065,-0.004l0.065,-0.004l0.065,-0.005l0.065,-0.006l0.065,-0.007l0.064,-0.008l0.065,-0.009l0.064,-0.01l0.065,-0.011l0.064,-0.012l0.063,-0.012l0.064,-0.014l0.063,-0.014l0.064,-0.016l0.063,-0.016l0.062,-0.017l0.063,-0.019l0.062,-0.019l0.062,-0.019l0.062,-0.021l0.061,-0.022l0.061,-0.023l0.061,-0.023l0.061,-0.025l0.06,-0.025l0.06,-0.026l0.059,-0.027l0.059,-0.028l0.064,-0.031l4.728,-2.365l0.108,-0.048l0.11,-0.04l0.114,-0.031l0.116,-0.022l0.117,-0.013l0.117,-0.004l0.118,0.006Z" style="fill:#824300;"/></g></g></svg>