<?xml version="1.0" encoding="UTF-8" standalone="no"?><!DOCTYPE svg PUBLIC "-//W3C//DTD SVG 1.1//EN" "http://www.w3.org/Graphics/SVG/1.1/DTD/svg11.dtd"><svg width="100%" height="100%" viewBox="0 0 32 32" version="1.1" xmlns="http://www.w3.org/2000/svg" xmlns:xlink="http://www.w3.org/1999/xlink" xml:space="preserve" style="fill-rule:evenodd;clip-rule:evenodd;stroke-linejoin:round;stroke-miterlimit:1.41421;">
<metadata>
<rdf:RDF xmlns:cc="http://web.resource.org/cc/"
         xmlns:rdf="http://www.w3.org/1999/02/22-rdf-syntax-ns#"
         xmlns:dc = "http://purl.org/dc/elements/1.1/"
         >

     <rdf:Description rdf:about="">
       <dc:title>Mutant Standard emoji v0.2.3</dc:title>
     </rdf:Description>

    <cc:work rdf:about="">
        <cc:license rdf:resource="http://creativecommons.org/licenses/by-nc-sa/4.0/"/>
        <cc:attributionName>Dzuk</cc:attributionName>
        <cc:attributionURL>http://mutant.tech/</cc:attributionURL>
    </cc:work>

</rdf:RDF>
</metadata>
<rect id="crying" x="0" y="0.008" width="32" height="32" style="fill:none;"/><g id="outline"><path d="M16.174,3.009c0.462,0.009 0.922,0.035 1.381,0.086c1.022,0.114 2.032,0.342 3.004,0.677c1.839,0.633 3.54,1.652 4.965,2.975c1.64,1.522 2.902,3.435 3.656,5.541c0.347,0.968 0.587,1.974 0.713,2.994c0.064,0.516 0.096,1.033 0.106,1.552c0.007,1.101 0.007,2.202 0,3.303c-0.007,0.382 -0.031,0.763 -0.079,1.142c-0.094,0.739 -0.271,1.468 -0.527,2.168c-0.54,1.474 -1.432,2.812 -2.58,3.882c-0.973,0.906 -2.126,1.615 -3.375,2.072c-0.739,0.271 -1.51,0.453 -2.292,0.542c-0.338,0.039 -0.677,0.058 -1.017,0.065c-2.753,0.017 -5.505,0.017 -8.258,0c-0.34,-0.007 -0.679,-0.026 -1.017,-0.065c-0.782,-0.089 -1.553,-0.271 -2.292,-0.542c-1.399,-0.512 -2.677,-1.341 -3.717,-2.407c-1.014,-1.037 -1.797,-2.294 -2.279,-3.663c-0.248,-0.704 -0.416,-1.435 -0.501,-2.177c-0.039,-0.338 -0.058,-0.677 -0.064,-1.017c-0.007,-1.101 -0.007,-2.202 0,-3.302c0.009,-0.462 0.034,-0.923 0.086,-1.382c0.12,-1.079 0.367,-2.143 0.733,-3.165c0.695,-1.941 1.822,-3.721 3.28,-5.179c1.499,-1.499 3.337,-2.647 5.341,-3.337c0.972,-0.335 1.982,-0.563 3.004,-0.677c0.459,-0.051 0.919,-0.077 1.381,-0.086c0.174,-0.001 0.174,-0.001 0.348,0Z" style="fill-rule:nonzero;"/></g><g id="emoji"><path d="M28,17.008c0,-3.182 -1.264,-6.234 -3.515,-8.485c-2.25,-2.25 -5.302,-3.515 -8.485,-3.515c0,0 0,0 0,0c-3.183,0 -6.235,1.265 -8.485,3.515c-2.251,2.251 -3.515,5.303 -3.515,8.485c0,1.016 0,2.027 0,3c0,4.419 3.582,8 8,8c2.574,0 5.426,0 8,0c4.418,0 8,-3.581 8,-8c0,-0.973 0,-1.984 0,-3Z" style="fill:#fbc546;"/><path d="M16.664,17.009l0.085,0.001l0.085,0.003l0.084,0.004l0.085,0.004l0.084,0.006l0.084,0.007l0.084,0.008l0.084,0.009l0.084,0.01l0.083,0.01l0.084,0.012l0.083,0.013l0.083,0.014l0.082,0.015l0.082,0.016l0.083,0.017l0.081,0.018l0.082,0.019l0.081,0.02l0.081,0.021l0.081,0.022l0.081,0.022l0.08,0.024l0.079,0.025l0.08,0.026l0.079,0.026l0.079,0.028l0.078,0.029l0.078,0.029l0.078,0.031l0.077,0.031l0.077,0.033l0.077,0.033l0.076,0.034l0.076,0.036l0.075,0.036l0.075,0.037l0.074,0.038l0.074,0.039l0.074,0.04l0.073,0.04l0.072,0.042l0.072,0.042l0.072,0.044l0.071,0.044l0.071,0.045l0.07,0.046l0.069,0.047l0.069,0.048l0.069,0.049l0.067,0.05l0.068,0.05l0.066,0.051l0.067,0.053l0.065,0.053l0.065,0.053l0.064,0.055l0.064,0.056l0.063,0.056l0.063,0.058l0.062,0.058l0.061,0.058l0.058,0.058l1.29,1.29l0.047,0.05l0.043,0.053l0.039,0.056l0.036,0.058l0.031,0.061l0.027,0.062l0.023,0.065l0.019,0.066l0.013,0.066l0.01,0.068l0.004,0.068l0,0.068l-0.004,0.069l-0.01,0.067l-0.013,0.067l-0.019,0.066l-0.023,0.064l-0.027,0.063l-0.031,0.06l-0.036,0.059l-0.039,0.056l-0.043,0.053l-0.047,0.049l-0.05,0.047l-0.053,0.043l-0.056,0.04l-0.058,0.035l-0.061,0.031l-0.062,0.028l-0.064,0.022l-0.066,0.019l-0.067,0.014l-0.068,0.009l-0.068,0.005l-0.068,0l-0.068,-0.005l-0.068,-0.009l-0.067,-0.014l-0.065,-0.019l-0.065,-0.022l-0.062,-0.028l-0.061,-0.031l-0.058,-0.035l-0.056,-0.04l-0.053,-0.043l-0.05,-0.047l-1.286,-1.285l-0.045,-0.045l-0.043,-0.042l-0.044,-0.041l-0.044,-0.04l-0.045,-0.04l-0.045,-0.04l-0.046,-0.038l-0.045,-0.038l-0.047,-0.038l-0.047,-0.037l-0.047,-0.036l-0.048,-0.036l-0.048,-0.035l-0.048,-0.034l-0.049,-0.034l-0.049,-0.034l-0.05,-0.032l-0.05,-0.032l-0.05,-0.032l-0.051,-0.03l-0.051,-0.03l-0.051,-0.03l-0.051,-0.029l-0.053,-0.028l-0.052,-0.027l-0.053,-0.027l-0.053,-0.027l-0.053,-0.025l-0.053,-0.025l-0.054,-0.024l-0.055,-0.024l-0.054,-0.023l-0.055,-0.022l-0.055,-0.022l-0.055,-0.021l-0.056,-0.02l-0.055,-0.02l-0.056,-0.018l-0.057,-0.019l-0.056,-0.017l-0.057,-0.017l-0.057,-0.016l-0.057,-0.016l-0.057,-0.015l-0.058,-0.014l-0.057,-0.013l-0.058,-0.013l-0.059,-0.012l-0.058,-0.011l-0.058,-0.011l-0.059,-0.009l-0.059,-0.01l-0.059,-0.008l-0.059,-0.008l-0.059,-0.007l-0.059,-0.006l-0.06,-0.005l-0.059,-0.005l-0.06,-0.004l-0.06,-0.004l-0.06,-0.002l-0.06,-0.002l-0.06,-0.001l-0.063,-0.001l-1.152,0l-0.063,0.001l-0.06,0.001l-0.06,0.002l-0.06,0.002l-0.06,0.004l-0.06,0.004l-0.059,0.005l-0.06,0.005l-0.059,0.006l-0.059,0.007l-0.059,0.008l-0.059,0.008l-0.059,0.01l-0.059,0.009l-0.058,0.011l-0.058,0.011l-0.059,0.012l-0.058,0.013l-0.057,0.013l-0.058,0.014l-0.057,0.015l-0.057,0.016l-0.057,0.016l-0.057,0.017l-0.056,0.017l-0.057,0.019l-0.056,0.018l-0.056,0.02l-0.055,0.02l-0.055,0.021l-0.055,0.022l-0.055,0.022l-0.054,0.023l-0.055,0.024l-0.053,0.024l-0.054,0.025l-0.053,0.026l-0.053,0.026l-0.053,0.027l-0.052,0.027l-0.052,0.028l-0.052,0.029l-0.051,0.03l-0.051,0.03l-0.051,0.031l-0.051,0.031l-0.049,0.032l-0.05,0.032l-0.049,0.034l-0.049,0.034l-0.048,0.034l-0.048,0.035l-0.048,0.036l-0.047,0.036l-0.047,0.037l-0.047,0.038l-0.046,0.038l-0.045,0.038l-0.045,0.04l-0.045,0.04l-0.044,0.04l-0.044,0.041l-0.043,0.042l-0.045,0.045l-1.286,1.285l-0.05,0.047l-0.053,0.043l-0.056,0.04l-0.058,0.035l-0.06,0.031l-0.063,0.028l-0.064,0.022l-0.066,0.019l-0.067,0.014l-0.068,0.009l-0.068,0.005l-0.068,0l-0.068,-0.005l-0.068,-0.009l-0.067,-0.014l-0.065,-0.018l-0.065,-0.023l-0.062,-0.028l-0.061,-0.031l-0.058,-0.035l-0.056,-0.04l-0.053,-0.043l-0.05,-0.047l-0.047,-0.049l-0.043,-0.053l-0.039,-0.056l-0.036,-0.059l-0.031,-0.06l-0.027,-0.063l-0.023,-0.064l-0.019,-0.066l-0.013,-0.067l-0.01,-0.067l-0.004,-0.068l0,-0.069l0.004,-0.068l0.01,-0.068l0.013,-0.066l0.019,-0.066l0.023,-0.064l0.027,-0.063l0.031,-0.061l0.036,-0.058l0.039,-0.056l0.043,-0.053l0.047,-0.05l1.29,-1.29l0.058,-0.058l0.062,-0.058l0.061,-0.058l0.063,-0.058l0.063,-0.056l0.064,-0.056l0.064,-0.055l0.065,-0.053l0.065,-0.053l0.067,-0.053l0.066,-0.051l0.068,-0.05l0.068,-0.05l0.068,-0.049l0.069,-0.048l0.069,-0.047l0.07,-0.046l0.071,-0.045l0.071,-0.044l0.072,-0.044l0.072,-0.042l0.072,-0.042l0.073,-0.04l0.074,-0.04l0.074,-0.039l0.074,-0.038l0.075,-0.037l0.075,-0.036l0.076,-0.036l0.076,-0.034l0.077,-0.033l0.077,-0.033l0.077,-0.031l0.078,-0.031l0.078,-0.029l0.078,-0.029l0.079,-0.028l0.079,-0.026l0.08,-0.026l0.079,-0.025l0.08,-0.024l0.081,-0.022l0.081,-0.022l0.081,-0.021l0.081,-0.02l0.082,-0.019l0.081,-0.018l0.083,-0.017l0.082,-0.016l0.082,-0.015l0.083,-0.014l0.083,-0.013l0.084,-0.012l0.083,-0.01l0.084,-0.01l0.084,-0.009l0.084,-0.008l0.084,-0.007l0.084,-0.006l0.085,-0.004l0.084,-0.004l0.085,-0.003l0.085,-0.001l0.082,-0.001l1.164,0l0.082,0.001Z"/><path d="M13,12.065c0,-0.583 -0.473,-1.057 -1.057,-1.057c0,0 -0.001,0 -0.001,0l-2.942,2.942c0,0.034 0,0.068 0,0.102c0,0.519 0.206,1.017 0.573,1.383c0.367,0.367 0.864,0.573 1.383,0.573c0.015,0 0.029,0 0.044,0c0.53,0 1.039,-0.21 1.414,-0.585c0.375,-0.376 0.586,-0.884 0.586,-1.415c0,-0.664 0,-1.378 0,-1.943Z"/><path d="M23,13.95l-2.942,-2.942c0,0 -0.001,0 -0.001,0c-0.584,0 -1.057,0.474 -1.057,1.057c0,0.565 0,1.279 0,1.943c0,0.531 0.211,1.039 0.586,1.415c0.375,0.375 0.884,0.585 1.414,0.585c0.015,0 0.029,0 0.044,0c0.519,0 1.016,-0.206 1.383,-0.573c0.367,-0.366 0.573,-0.864 0.573,-1.383c0,-0.034 0,-0.068 0,-0.102Z"/><path d="M24.736,15.008c0.957,1.915 1.934,3.82 2.871,5.744c0.036,0.079 0.036,0.079 0.071,0.16c0.077,0.186 0.142,0.376 0.192,0.572c0.11,0.436 0.145,0.89 0.104,1.338c-0.049,0.526 -0.202,1.042 -0.449,1.508c-0.39,0.735 -1.011,1.339 -1.757,1.708c-0.375,0.185 -0.779,0.311 -1.192,0.371c-0.382,0.056 -0.77,0.056 -1.152,0c-0.413,-0.06 -0.817,-0.186 -1.192,-0.371c-0.413,-0.205 -0.79,-0.481 -1.109,-0.814c-0.334,-0.347 -0.603,-0.754 -0.792,-1.196c-0.218,-0.511 -0.329,-1.068 -0.321,-1.624c0.008,-0.598 0.155,-1.184 0.417,-1.721l2.837,-5.675c0.491,0 0.981,0 1.472,0Z" style="fill:#0d5e8e;fill-rule:nonzero;"/><path d="M24,18.008c0,0 -1.041,2.083 -1.78,3.56c-0.42,0.84 -0.196,1.86 0.537,2.446c0.001,0.001 0.002,0.001 0.002,0.002c0.726,0.58 1.756,0.58 2.482,0c0,-0.001 0.001,-0.001 0.002,-0.002c0.733,-0.586 0.957,-1.606 0.537,-2.446c-0.739,-1.477 -1.78,-3.56 -1.78,-3.56Z" style="fill:#10bfff;"/></g></svg>