<?xml version="1.0" encoding="UTF-8" standalone="no"?><!DOCTYPE svg PUBLIC "-//W3C//DTD SVG 1.1//EN" "http://www.w3.org/Graphics/SVG/1.1/DTD/svg11.dtd"><svg width="100%" height="100%" viewBox="0 0 32 32" version="1.1" xmlns="http://www.w3.org/2000/svg" xmlns:xlink="http://www.w3.org/1999/xlink" xml:space="preserve" style="fill-rule:evenodd;clip-rule:evenodd;stroke-linejoin:round;stroke-miterlimit:1.41421;">
<metadata>
<rdf:RDF xmlns:cc="http://web.resource.org/cc/"
         xmlns:rdf="http://www.w3.org/1999/02/22-rdf-syntax-ns#"
         xmlns:dc = "http://purl.org/dc/elements/1.1/"
         >

     <rdf:Description rdf:about="">
       <dc:title>Mutant Standard emoji v0.2.3</dc:title>
     </rdf:Description>

    <cc:work rdf:about="">
        <cc:license rdf:resource="http://creativecommons.org/licenses/by-nc-sa/4.0/"/>
        <cc:attributionName>Dzuk</cc:attributionName>
        <cc:attributionURL>http://mutant.tech/</cc:attributionURL>
    </cc:work>

</rdf:RDF>
</metadata>
<rect id="devious_horns" x="0" y="0" width="32" height="32" style="fill:none;"/><g id="outline"><path d="M24.644,7.29c0.488,-0.283 0.931,-0.643 1.306,-1.066c0.31,-0.348 0.565,-0.736 0.777,-1.15l1.652,-3.303c0.873,0.206 1.747,0.412 2.621,0.619c0,2.262 0.04,4.524 -0.002,6.786c-0.004,0.115 -0.009,0.23 -0.017,0.346c-0.055,0.685 -0.202,1.358 -0.45,2c-0.395,1.022 -1.03,1.939 -1.838,2.671c0.088,0.398 0.158,0.8 0.208,1.204c0.059,0.479 0.089,0.959 0.098,1.441c0.005,0.768 0.005,1.536 0,2.304c-0.007,0.374 -0.028,0.747 -0.071,1.119c-0.093,0.815 -0.278,1.62 -0.55,2.394c-0.56,1.589 -1.489,3.04 -2.694,4.216c-1.109,1.083 -2.446,1.928 -3.902,2.461c-0.813,0.298 -1.661,0.498 -2.521,0.596c-0.372,0.043 -0.745,0.064 -1.119,0.071c-1.428,0.009 -2.856,0.009 -4.284,0c-0.374,-0.007 -0.747,-0.028 -1.119,-0.071c-0.815,-0.093 -1.62,-0.278 -2.394,-0.55c-1.505,-0.531 -2.888,-1.392 -4.029,-2.507c-1.173,-1.145 -2.084,-2.55 -2.648,-4.089c-0.282,-0.769 -0.476,-1.57 -0.58,-2.383c-0.053,-0.418 -0.079,-0.837 -0.087,-1.257c-0.005,-0.77 -0.005,-1.54 0,-2.309c0.008,-0.443 0.033,-0.884 0.084,-1.323c0.05,-0.443 0.124,-0.884 0.22,-1.319c-0.512,-0.463 -0.956,-1.001 -1.312,-1.596c-0.264,-0.44 -0.478,-0.908 -0.639,-1.395c-0.226,-0.683 -0.34,-1.393 -0.353,-2.111l-0.001,-0.081l0,-6.618l2.621,-0.619c0.551,1.101 1.101,2.202 1.652,3.302c0.212,0.415 0.467,0.803 0.777,1.151c0.375,0.424 0.818,0.783 1.307,1.066c1.258,-1.12 2.733,-1.994 4.323,-2.554c0.915,-0.323 1.866,-0.541 2.83,-0.651c0.493,-0.057 0.988,-0.082 1.484,-0.085c0.056,0 0.112,0.001 0.167,0.001c0.429,0.008 0.857,0.032 1.283,0.079c0.949,0.106 1.887,0.318 2.79,0.629c1.622,0.558 3.128,1.441 4.41,2.581Z"/></g><g id="emoji"><path d="M10,10c0,0 0,0 -0.001,0c-2.757,0 -5.278,-1.558 -6.511,-4.024c-0.288,-0.575 -0.488,-0.976 -0.488,-0.976c0,0 0,1.93 0,4.002c0,1.326 0.527,2.597 1.464,3.534c0.937,0.937 2.208,1.464 3.534,1.464c0.001,0 0.002,0 0.002,0l2,-4Z" style="fill:#530f8a;"/><path d="M22,10c0,0 0,0 0.001,0c2.757,0 5.278,-1.558 6.511,-4.024c0.288,-0.575 0.488,-0.976 0.488,-0.976c0,0 0,1.93 0,4.002c0,1.326 -0.527,2.597 -1.464,3.534c-0.937,0.937 -2.208,1.464 -3.534,1.464c-0.001,0 -0.002,0 -0.002,0l-2,-4Z" style="fill:#530f8a;"/><path d="M27,16.998c0,-2.917 -1.159,-5.714 -3.221,-7.777c-2.063,-2.062 -4.86,-3.221 -7.777,-3.221c-0.001,0 -0.003,0 -0.004,0c-2.917,0 -5.714,1.159 -7.777,3.221c-2.062,2.063 -3.221,4.86 -3.221,7.777c0,0.671 0,1.341 0,2.002c0,4.971 4.029,9 9,9c1.32,0 2.68,0 4,0c4.971,0 9,-4.029 9,-9c0,-0.661 0,-1.331 0,-2.002Z" style="fill:#a253e2;"/><path d="M22.17,21.015l0.067,0.013l0.066,0.019l0.064,0.023l0.062,0.027l0.061,0.031l0.058,0.036l0.056,0.039l0.053,0.043l0.05,0.047l0.047,0.05l0.043,0.053l0.039,0.056l0.036,0.058l0.031,0.061l0.027,0.062l0.023,0.064l0.019,0.066l0.013,0.067l0.01,0.068l0.004,0.068l0,0.068l-0.004,0.068l-0.01,0.068l-0.013,0.067l-0.019,0.066l-0.023,0.064l-0.027,0.062l-0.031,0.061l-0.036,0.058l-0.039,0.056l-0.043,0.053l-0.047,0.05l-3.646,3.646l-3.061,-2.551l-3.061,2.551l-3.646,-3.646l-0.047,-0.05l-0.043,-0.053l-0.039,-0.056l-0.036,-0.058l-0.031,-0.061l-0.027,-0.062l-0.023,-0.064l-0.019,-0.066l-0.013,-0.067l-0.01,-0.068l-0.004,-0.068l0,-0.068l0.004,-0.068l0.01,-0.068l0.013,-0.067l0.019,-0.066l0.023,-0.064l0.027,-0.062l0.031,-0.061l0.036,-0.058l0.039,-0.056l0.043,-0.053l0.047,-0.05l0.05,-0.047l0.053,-0.043l0.056,-0.039l0.058,-0.036l0.061,-0.031l0.062,-0.027l0.064,-0.023l0.066,-0.019l0.067,-0.013l0.068,-0.01l0.068,-0.004l0.068,0l0.068,0.004l0.068,0.01l0.067,0.013l0.066,0.019l0.064,0.023l0.062,0.027l0.061,0.031l0.058,0.036l0.056,0.039l0.053,0.043l0.05,0.047l2.354,2.354l2.939,-2.449l2.939,2.449l2.354,-2.354l0.05,-0.047l0.053,-0.043l0.056,-0.039l0.058,-0.036l0.061,-0.031l0.062,-0.027l0.064,-0.023l0.066,-0.019l0.067,-0.013l0.068,-0.01l0.068,-0.004l0.068,0l0.068,0.004l0.068,0.01Z"/><path d="M24.055,11.985l0.044,0.003l0.044,0.006l0.044,0.007l0.043,0.009l0.043,0.011l0.042,0.013l0.042,0.015l0.041,0.017l0.04,0.018l0.039,0.021l0.039,0.022l0.037,0.023l0.037,0.026l0.035,0.026l0.034,0.029l0.032,0.03l0.032,0.031l0.029,0.033l0.029,0.034l0.027,0.035l0.025,0.036l0.024,0.037l0.022,0.039l0.02,0.039l0.018,0.04l0.017,0.041l0.015,0.042l0.013,0.042l0.011,0.043l0.009,0.043l0.008,0.044l0.005,0.044l0.003,0.044l0.002,0.044l-0.001,0.044l-0.002,0.045l-0.004,0.044l-0.007,0.043l-0.008,0.044l-0.01,0.043l-0.012,0.043l-0.014,0.042l-0.016,0.041l-0.018,0.04l-0.019,0.04l-0.021,0.039l-0.023,0.038l-0.024,0.037l-0.027,0.036l-0.027,0.034l-0.029,0.033l-0.031,0.032l-5,5l-0.032,0.031l-0.033,0.029l-0.035,0.028l-0.035,0.026l-0.037,0.024l-0.038,0.023l-0.039,0.021l-0.04,0.02l-0.04,0.017l-0.042,0.016l-0.042,0.014l-0.042,0.012l-0.043,0.01l-0.044,0.009l-0.044,0.006l-0.044,0.004l-0.044,0.003l-0.044,0l-0.044,-0.001l-0.044,-0.004l-0.044,-0.005l-0.044,-0.007l-0.043,-0.01l-0.043,-0.011l-0.042,-0.013l-0.042,-0.015l-0.041,-0.016l-0.04,-0.019l-0.039,-0.02l-0.039,-0.022l-0.037,-0.024l-0.037,-0.025l-0.035,-0.027l-0.034,-0.028l-0.032,-0.03l-0.032,-0.031l-0.029,-0.033l-0.029,-0.034l-0.027,-0.035l-0.025,-0.036l-0.024,-0.038l-0.022,-0.038l-0.02,-0.04l-0.018,-0.04l-0.017,-0.041l-0.015,-0.041l-0.013,-0.043l-0.011,-0.042l-0.009,-0.044l-0.008,-0.043l-0.005,-0.044l-0.003,-0.044l-0.002,-0.045l0.001,-0.044l0.002,-0.044l0.004,-0.044l0.007,-0.044l0.008,-0.043l0.01,-0.043l0.012,-0.043l0.014,-0.042l0.016,-0.041l0.018,-0.041l0.019,-0.04l0.021,-0.038l0.023,-0.038l0.024,-0.037l0.027,-0.036l0.027,-0.035l0.029,-0.033l0.031,-0.032l5,-5l0.032,-0.03l0.033,-0.03l0.035,-0.027l0.035,-0.026l0.037,-0.025l0.038,-0.023l0.039,-0.021l0.04,-0.019l0.04,-0.018l0.042,-0.015l0.042,-0.014l0.042,-0.013l0.043,-0.01l0.044,-0.008l0.044,-0.006l0.044,-0.005l0.044,-0.002l0.044,-0.001l0.044,0.002Z"/><path d="M18,18l4,-4c1.105,0 2,0.895 2,2c0,0.322 0,0.661 0,1c0,1.657 -1.343,3 -3,3c-0.339,0 -0.678,0 -1,0c-1.105,0 -2,-0.895 -2,-2c0,0 0,0 0,0Z"/><path d="M22,15.314c0,-0.173 -0.141,-0.314 -0.314,-0.314c-0.001,0 -0.001,0 -0.002,0l-1.684,1.684c0,0.442 0,0.906 0,1.299c0,0.266 0.105,0.52 0.293,0.707c0.187,0.188 0.442,0.293 0.707,0.293c0.265,0 0.52,-0.105 0.707,-0.293c0.188,-0.187 0.293,-0.441 0.293,-0.707c0,-0.877 0,-2.1 0,-2.669Z" style="fill:#f2c040;"/><path d="M8.033,11.984l0.044,0.002l0.044,0.005l0.044,0.006l0.044,0.008l0.043,0.01l0.042,0.013l0.042,0.014l0.042,0.015l0.04,0.018l0.04,0.019l0.039,0.021l0.038,0.023l0.037,0.025l0.035,0.026l0.035,0.027l0.033,0.03l0.032,0.03l5,5l0.031,0.032l0.029,0.033l0.027,0.035l0.027,0.036l0.024,0.037l0.023,0.038l0.021,0.038l0.019,0.04l0.018,0.041l0.016,0.041l0.014,0.042l0.012,0.043l0.01,0.043l0.008,0.043l0.007,0.044l0.004,0.044l0.002,0.044l0.001,0.044l-0.002,0.045l-0.003,0.044l-0.005,0.044l-0.008,0.043l-0.009,0.044l-0.011,0.042l-0.013,0.043l-0.015,0.041l-0.017,0.041l-0.018,0.04l-0.02,0.04l-0.022,0.038l-0.024,0.038l-0.025,0.036l-0.027,0.035l-0.029,0.034l-0.029,0.033l-0.032,0.031l-0.032,0.03l-0.034,0.028l-0.035,0.027l-0.037,0.025l-0.037,0.024l-0.039,0.022l-0.039,0.02l-0.04,0.019l-0.041,0.016l-0.042,0.015l-0.042,0.013l-0.043,0.011l-0.043,0.01l-0.044,0.007l-0.044,0.005l-0.044,0.004l-0.044,0.001l-0.044,0l-0.044,-0.003l-0.044,-0.004l-0.044,-0.006l-0.044,-0.009l-0.043,-0.01l-0.042,-0.012l-0.042,-0.014l-0.042,-0.016l-0.04,-0.017l-0.04,-0.02l-0.039,-0.021l-0.038,-0.023l-0.037,-0.024l-0.035,-0.026l-0.035,-0.028l-0.033,-0.029l-0.032,-0.031l-5,-5l-0.031,-0.032l-0.029,-0.033l-0.027,-0.034l-0.027,-0.036l-0.024,-0.037l-0.023,-0.038l-0.021,-0.039l-0.019,-0.04l-0.018,-0.04l-0.016,-0.041l-0.014,-0.042l-0.012,-0.043l-0.01,-0.043l-0.008,-0.044l-0.007,-0.043l-0.004,-0.044l-0.002,-0.045l-0.001,-0.044l0.002,-0.044l0.003,-0.044l0.005,-0.044l0.008,-0.044l0.009,-0.043l0.011,-0.043l0.013,-0.042l0.015,-0.042l0.017,-0.041l0.018,-0.04l0.02,-0.039l0.022,-0.039l0.024,-0.037l0.025,-0.036l0.027,-0.035l0.029,-0.034l0.029,-0.033l0.032,-0.031l0.032,-0.03l0.034,-0.029l0.035,-0.026l0.037,-0.026l0.037,-0.023l0.039,-0.022l0.039,-0.021l0.04,-0.018l0.041,-0.017l0.042,-0.015l0.042,-0.013l0.043,-0.011l0.043,-0.009l0.044,-0.007l0.044,-0.006l0.044,-0.003l0.044,-0.002l0.044,0.001Z"/><path d="M14,18l-4,-4c-1.105,0 -2,0.895 -2,2c0,0.322 0,0.661 0,1c0,1.657 1.343,3 3,3c0.339,0 0.678,0 1,0c1.105,0 2,-0.895 2,-2c0,0 0,0 0,0Z"/><path d="M10,15.314c0,-0.173 0.141,-0.314 0.314,-0.314c0.001,0 0.001,0 0.002,0l1.684,1.684c0,0.442 0,0.906 0,1.299c0,0.266 -0.105,0.52 -0.293,0.707c-0.187,0.188 -0.442,0.293 -0.707,0.293c-0.265,0 -0.52,-0.105 -0.707,-0.293c-0.188,-0.187 -0.293,-0.441 -0.293,-0.707c0,-0.877 0,-2.1 0,-2.669Z" style="fill:#f2c040;"/></g></svg>