<?xml version="1.0" encoding="UTF-8" standalone="no"?><!DOCTYPE svg PUBLIC "-//W3C//DTD SVG 1.1//EN" "http://www.w3.org/Graphics/SVG/1.1/DTD/svg11.dtd"><svg width="100%" height="100%" viewBox="0 0 32 32" version="1.1" xmlns="http://www.w3.org/2000/svg" xmlns:xlink="http://www.w3.org/1999/xlink" xml:space="preserve" style="fill-rule:evenodd;clip-rule:evenodd;stroke-linejoin:round;stroke-miterlimit:1.41421;">
<metadata>
<rdf:RDF xmlns:cc="http://web.resource.org/cc/"
         xmlns:rdf="http://www.w3.org/1999/02/22-rdf-syntax-ns#"
         xmlns:dc = "http://purl.org/dc/elements/1.1/"
         >

     <rdf:Description rdf:about="">
       <dc:title>Mutant Standard emoji v0.2.3</dc:title>
     </rdf:Description>

    <cc:work rdf:about="">
        <cc:license rdf:resource="http://creativecommons.org/licenses/by-nc-sa/4.0/"/>
        <cc:attributionName>Dzuk</cc:attributionName>
        <cc:attributionURL>http://mutant.tech/</cc:attributionURL>
    </cc:work>

</rdf:RDF>
</metadata>
<rect id="disappointed" x="0" y="0" width="32" height="32" style="fill:none;"/><g id="outline"><path d="M16.174,4.001c0.462,0.009 0.922,0.034 1.381,0.086c1.022,0.114 2.032,0.341 3.004,0.676c1.949,0.671 3.741,1.776 5.217,3.215c1.518,1.481 2.689,3.305 3.404,5.302c0.366,1.021 0.613,2.086 0.733,3.165c0.052,0.459 0.077,0.919 0.086,1.381c0.005,0.768 0.005,1.535 0,2.303c-0.006,0.34 -0.025,0.679 -0.064,1.017c-0.085,0.741 -0.253,1.473 -0.501,2.177c-0.495,1.406 -1.309,2.694 -2.363,3.748c-1.025,1.025 -2.271,1.823 -3.633,2.322c-0.699,0.256 -1.428,0.433 -2.167,0.527c-0.379,0.048 -0.76,0.072 -1.142,0.079c-2.753,0.018 -5.505,0.018 -8.258,0c-0.34,-0.006 -0.679,-0.025 -1.017,-0.064c-0.741,-0.085 -1.473,-0.253 -2.177,-0.501c-1.33,-0.468 -2.556,-1.222 -3.577,-2.196c-1.107,-1.055 -1.967,-2.363 -2.493,-3.8c-0.256,-0.699 -0.433,-1.428 -0.527,-2.167c-0.048,-0.379 -0.072,-0.76 -0.079,-1.142c-0.005,-0.768 -0.005,-1.535 0,-2.303c0.009,-0.462 0.034,-0.922 0.086,-1.381c0.114,-1.022 0.341,-2.032 0.676,-3.004c0.653,-1.894 1.714,-3.641 3.095,-5.092c1.501,-1.578 3.371,-2.795 5.422,-3.529c1.022,-0.366 2.086,-0.613 3.165,-0.733c0.459,-0.052 0.919,-0.077 1.381,-0.086c0.174,-0.001 0.174,-0.001 0.348,0Z" style="fill-rule:nonzero;"/></g><g id="emoji"><path d="M28,18c0,-3.183 -1.264,-6.235 -3.515,-8.485c-2.25,-2.251 -5.302,-3.515 -8.485,-3.515c0,0 0,0 0,0c-3.183,0 -6.235,1.264 -8.485,3.515c-2.251,2.25 -3.515,5.302 -3.515,8.485c0,0.675 0,1.345 0,2c0,4.418 3.582,8 8,8c2.574,0 5.426,0 8,0c4.418,0 8,-3.582 8,-8c0,-0.655 0,-1.325 0,-2Z" style="fill:#fbc546;"/><path d="M16.664,20.001l0.085,0.001l0.085,0.003l0.084,0.003l0.085,0.005l0.084,0.006l0.084,0.007l0.084,0.007l0.084,0.009l0.084,0.01l0.083,0.011l0.084,0.012l0.083,0.013l0.083,0.014l0.082,0.015l0.082,0.016l0.083,0.017l0.081,0.018l0.082,0.019l0.081,0.019l0.081,0.021l0.081,0.022l0.081,0.023l0.08,0.024l0.08,0.025l0.079,0.025l0.079,0.027l0.079,0.028l0.078,0.028l0.078,0.03l0.078,0.031l0.077,0.031l0.077,0.032l0.077,0.034l0.076,0.034l0.076,0.035l0.075,0.036l0.075,0.038l0.074,0.038l0.074,0.038l0.074,0.04l0.073,0.041l0.072,0.042l0.072,0.042l0.072,0.043l0.071,0.045l0.07,0.045l0.071,0.046l0.069,0.047l0.069,0.048l0.068,0.049l0.068,0.049l0.068,0.051l0.066,0.051l0.067,0.052l0.065,0.053l0.065,0.054l0.064,0.055l0.064,0.055l0.063,0.057l0.063,0.057l0.062,0.058l0.061,0.059l0.058,0.058l1.29,1.29l0.047,0.05l0.043,0.053l0.039,0.056l0.036,0.058l0.031,0.061l0.027,0.062l0.023,0.064l0.019,0.066l0.013,0.067l0.01,0.068l0.004,0.068l0,0.068l-0.004,0.068l-0.01,0.068l-0.013,0.067l-0.019,0.066l-0.023,0.064l-0.027,0.062l-0.031,0.061l-0.036,0.058l-0.039,0.056l-0.043,0.053l-0.047,0.05l-0.05,0.047l-0.053,0.043l-0.056,0.039l-0.058,0.036l-0.061,0.031l-0.062,0.027l-0.064,0.023l-0.066,0.019l-0.067,0.013l-0.068,0.01l-0.068,0.004l-0.068,0l-0.068,-0.004l-0.068,-0.01l-0.067,-0.013l-0.066,-0.019l-0.064,-0.023l-0.062,-0.027l-0.061,-0.031l-0.058,-0.036l-0.056,-0.039l-0.053,-0.043l-0.05,-0.047l-1.286,-1.286l-0.045,-0.044l-0.043,-0.042l-0.044,-0.041l-0.044,-0.041l-0.045,-0.039l-0.045,-0.04l-0.046,-0.039l-0.045,-0.038l-0.047,-0.037l-0.047,-0.037l-0.047,-0.036l-0.048,-0.036l-0.048,-0.035l-0.048,-0.035l-0.049,-0.034l-0.049,-0.033l-0.05,-0.033l-0.05,-0.032l-0.05,-0.031l-0.05,-0.031l-0.052,-0.03l-0.051,-0.029l-0.052,-0.029l-0.052,-0.028l-0.052,-0.028l-0.053,-0.027l-0.053,-0.026l-0.053,-0.025l-0.053,-0.025l-0.054,-0.025l-0.055,-0.023l-0.054,-0.023l-0.055,-0.022l-0.055,-0.022l-0.055,-0.021l-0.055,-0.02l-0.056,-0.02l-0.056,-0.019l-0.057,-0.018l-0.056,-0.018l-0.057,-0.016l-0.057,-0.017l-0.057,-0.015l-0.057,-0.015l-0.058,-0.014l-0.058,-0.013l-0.057,-0.013l-0.059,-0.012l-0.058,-0.011l-0.058,-0.011l-0.059,-0.01l-0.059,-0.009l-0.059,-0.008l-0.059,-0.008l-0.059,-0.007l-0.059,-0.006l-0.06,-0.006l-0.059,-0.005l-0.06,-0.004l-0.06,-0.003l-0.06,-0.003l-0.06,-0.001l-0.06,-0.002l-0.063,0l-1.152,0l-0.063,0l-0.06,0.002l-0.06,0.001l-0.06,0.003l-0.06,0.003l-0.06,0.004l-0.059,0.005l-0.06,0.006l-0.059,0.006l-0.059,0.007l-0.059,0.008l-0.059,0.008l-0.059,0.009l-0.059,0.01l-0.058,0.011l-0.058,0.011l-0.059,0.012l-0.057,0.013l-0.058,0.013l-0.058,0.014l-0.057,0.015l-0.057,0.015l-0.057,0.017l-0.057,0.016l-0.056,0.018l-0.057,0.018l-0.056,0.019l-0.055,0.02l-0.056,0.02l-0.055,0.021l-0.055,0.022l-0.055,0.022l-0.054,0.023l-0.055,0.023l-0.054,0.025l-0.053,0.025l-0.053,0.025l-0.053,0.026l-0.053,0.027l-0.052,0.028l-0.052,0.028l-0.052,0.029l-0.052,0.029l-0.05,0.03l-0.051,0.031l-0.05,0.031l-0.05,0.032l-0.05,0.033l-0.049,0.033l-0.049,0.034l-0.048,0.035l-0.048,0.035l-0.048,0.036l-0.047,0.036l-0.047,0.037l-0.047,0.037l-0.045,0.038l-0.046,0.039l-0.045,0.04l-0.045,0.039l-0.044,0.041l-0.044,0.041l-0.043,0.042l-0.045,0.044l-1.286,1.286l-0.05,0.047l-0.053,0.043l-0.056,0.039l-0.058,0.036l-0.061,0.031l-0.062,0.027l-0.064,0.023l-0.066,0.019l-0.067,0.013l-0.068,0.01l-0.068,0.004l-0.068,0l-0.068,-0.004l-0.068,-0.01l-0.067,-0.013l-0.066,-0.019l-0.064,-0.023l-0.062,-0.027l-0.061,-0.031l-0.058,-0.036l-0.056,-0.039l-0.053,-0.043l-0.05,-0.047l-0.047,-0.05l-0.043,-0.053l-0.039,-0.056l-0.036,-0.058l-0.031,-0.061l-0.027,-0.062l-0.023,-0.064l-0.019,-0.066l-0.013,-0.067l-0.01,-0.068l-0.004,-0.068l0,-0.068l0.004,-0.068l0.01,-0.068l0.013,-0.067l0.019,-0.066l0.023,-0.064l0.027,-0.062l0.031,-0.061l0.036,-0.058l0.039,-0.056l0.043,-0.053l0.047,-0.05l1.29,-1.29l0.058,-0.058l0.062,-0.059l0.061,-0.058l0.063,-0.057l0.063,-0.057l0.064,-0.055l0.064,-0.055l0.065,-0.054l0.065,-0.053l0.067,-0.052l0.066,-0.051l0.068,-0.051l0.068,-0.049l0.068,-0.049l0.069,-0.048l0.069,-0.047l0.071,-0.046l0.07,-0.045l0.071,-0.045l0.072,-0.043l0.072,-0.042l0.072,-0.042l0.073,-0.041l0.074,-0.04l0.074,-0.038l0.074,-0.038l0.075,-0.038l0.075,-0.036l0.076,-0.035l0.076,-0.034l0.077,-0.034l0.077,-0.032l0.077,-0.031l0.078,-0.031l0.078,-0.03l0.078,-0.028l0.079,-0.028l0.079,-0.027l0.08,-0.025l0.079,-0.025l0.08,-0.024l0.081,-0.023l0.081,-0.022l0.081,-0.021l0.081,-0.019l0.082,-0.019l0.081,-0.018l0.083,-0.017l0.082,-0.016l0.083,-0.015l0.082,-0.014l0.083,-0.013l0.084,-0.012l0.083,-0.011l0.084,-0.01l0.084,-0.009l0.084,-0.007l0.084,-0.007l0.084,-0.006l0.085,-0.005l0.084,-0.003l0.085,-0.003l0.085,-0.001l0.082,-0.001l1.164,0l0.082,0.001Z"/><path d="M13.043,14.001l0.035,0.002l0.034,0.003l0.034,0.005l0.034,0.005l0.034,0.007l0.034,0.008l0.033,0.009l0.033,0.011l0.033,0.011l0.032,0.012l0.031,0.014l0.032,0.015l0.03,0.016l0.03,0.016l0.03,0.018l0.029,0.019l0.028,0.02l0.028,0.021l0.027,0.022l0.026,0.022l0.025,0.024l0.024,0.024l0.024,0.025l0.022,0.026l0.022,0.027l0.021,0.028l0.02,0.028l0.019,0.029l0.018,0.03l0.016,0.03l0.016,0.03l0.015,0.032l0.014,0.031l0.012,0.032l0.011,0.033l0.011,0.033l0.009,0.033l0.008,0.034l0.007,0.034l0.005,0.034l0.005,0.034l0.003,0.034l0.002,0.035l0.001,0.034l0,0.035l-0.002,0.034l-0.003,0.035l-0.003,0.034l-0.005,0.034l-0.007,0.034l-0.007,0.034l-0.009,0.033l-0.009,0.034l-0.011,0.032l-0.012,0.033l-0.013,0.032l-0.014,0.031l-0.016,0.031l-0.016,0.03l-0.017,0.03l-0.019,0.03l-0.019,0.028l-0.02,0.028l-0.022,0.027l-0.022,0.027l-0.023,0.025l-0.024,0.025l-3,3l-0.025,0.024l-0.025,0.023l-0.027,0.022l-0.027,0.022l-0.028,0.02l-0.028,0.019l-0.03,0.019l-0.03,0.017l-0.03,0.016l-0.031,0.016l-0.031,0.014l-0.032,0.013l-0.033,0.012l-0.033,0.011l-0.033,0.009l-0.033,0.009l-0.034,0.007l-0.034,0.007l-0.034,0.005l-0.034,0.003l-0.035,0.003l-0.034,0.002l-0.035,0l-0.034,-0.001l-0.035,-0.002l-0.034,-0.003l-0.034,-0.005l-0.034,-0.005l-0.034,-0.007l-0.034,-0.008l-0.033,-0.009l-0.033,-0.011l-0.033,-0.011l-0.032,-0.012l-0.031,-0.014l-0.032,-0.015l-0.03,-0.016l-0.03,-0.016l-0.03,-0.018l-0.029,-0.019l-0.028,-0.02l-0.028,-0.021l-0.027,-0.022l-0.026,-0.022l-0.025,-0.024l-0.024,-0.024l-0.024,-0.025l-0.022,-0.026l-0.022,-0.027l-0.021,-0.028l-0.02,-0.028l-0.019,-0.029l-0.018,-0.03l-0.016,-0.03l-0.016,-0.03l-0.015,-0.032l-0.014,-0.031l-0.012,-0.032l-0.011,-0.033l-0.011,-0.033l-0.009,-0.033l-0.008,-0.034l-0.007,-0.034l-0.005,-0.034l-0.005,-0.034l-0.003,-0.034l-0.002,-0.035l-0.001,-0.034l0,-0.035l0.002,-0.034l0.002,-0.035l0.004,-0.034l0.005,-0.034l0.007,-0.034l0.007,-0.034l0.009,-0.033l0.009,-0.034l0.011,-0.032l0.012,-0.033l0.013,-0.032l0.014,-0.031l0.016,-0.031l0.016,-0.03l0.017,-0.03l0.019,-0.03l0.019,-0.028l0.02,-0.028l0.022,-0.027l0.022,-0.027l0.023,-0.025l0.024,-0.025l3,-3l0.025,-0.024l0.025,-0.023l0.027,-0.022l0.027,-0.022l0.028,-0.02l0.028,-0.019l0.03,-0.019l0.03,-0.017l0.03,-0.016l0.031,-0.016l0.031,-0.014l0.032,-0.013l0.033,-0.012l0.032,-0.011l0.034,-0.009l0.033,-0.009l0.034,-0.007l0.034,-0.007l0.034,-0.005l0.034,-0.003l0.035,-0.003l0.034,-0.002l0.035,0l0.034,0.001Z"/><path d="M19.026,14l0.034,0.002l0.035,0.003l0.034,0.003l0.034,0.005l0.034,0.007l0.034,0.007l0.033,0.009l0.033,0.009l0.033,0.011l0.033,0.012l0.032,0.013l0.031,0.014l0.031,0.016l0.03,0.016l0.03,0.017l0.03,0.019l0.028,0.019l0.028,0.02l0.027,0.022l0.027,0.022l0.025,0.023l0.025,0.024l3,3l0.024,0.025l0.023,0.025l0.022,0.027l0.022,0.027l0.02,0.028l0.019,0.028l0.019,0.03l0.017,0.03l0.016,0.03l0.016,0.031l0.014,0.031l0.013,0.032l0.012,0.033l0.011,0.032l0.009,0.034l0.009,0.033l0.007,0.034l0.007,0.034l0.005,0.034l0.003,0.034l0.003,0.035l0.002,0.034l0,0.035l-0.001,0.034l-0.002,0.035l-0.003,0.034l-0.005,0.034l-0.005,0.034l-0.007,0.034l-0.008,0.034l-0.009,0.033l-0.011,0.033l-0.011,0.033l-0.012,0.032l-0.014,0.031l-0.015,0.032l-0.016,0.03l-0.016,0.03l-0.018,0.03l-0.019,0.029l-0.02,0.028l-0.021,0.028l-0.022,0.027l-0.022,0.026l-0.024,0.025l-0.024,0.024l-0.025,0.024l-0.026,0.022l-0.027,0.022l-0.028,0.021l-0.028,0.02l-0.029,0.019l-0.03,0.018l-0.03,0.016l-0.03,0.016l-0.032,0.015l-0.031,0.014l-0.032,0.012l-0.033,0.011l-0.033,0.011l-0.033,0.009l-0.034,0.008l-0.034,0.007l-0.034,0.005l-0.034,0.005l-0.034,0.003l-0.035,0.002l-0.034,0.001l-0.035,0l-0.034,-0.002l-0.035,-0.003l-0.034,-0.003l-0.034,-0.005l-0.034,-0.007l-0.034,-0.007l-0.033,-0.009l-0.034,-0.009l-0.032,-0.011l-0.033,-0.012l-0.032,-0.013l-0.031,-0.014l-0.031,-0.016l-0.03,-0.016l-0.03,-0.017l-0.03,-0.019l-0.028,-0.019l-0.028,-0.02l-0.027,-0.022l-0.027,-0.022l-0.025,-0.023l-0.025,-0.024l-3,-3l-0.024,-0.025l-0.023,-0.025l-0.022,-0.027l-0.022,-0.027l-0.02,-0.028l-0.019,-0.028l-0.019,-0.03l-0.017,-0.03l-0.016,-0.03l-0.016,-0.031l-0.014,-0.031l-0.013,-0.032l-0.012,-0.033l-0.011,-0.032l-0.009,-0.034l-0.009,-0.033l-0.007,-0.034l-0.007,-0.034l-0.005,-0.034l-0.004,-0.034l-0.002,-0.035l-0.002,-0.034l0,-0.035l0.001,-0.034l0.002,-0.035l0.003,-0.034l0.005,-0.034l0.005,-0.034l0.007,-0.034l0.008,-0.034l0.009,-0.033l0.011,-0.033l0.011,-0.033l0.012,-0.032l0.014,-0.031l0.015,-0.032l0.016,-0.03l0.016,-0.03l0.018,-0.03l0.019,-0.029l0.02,-0.028l0.021,-0.028l0.022,-0.027l0.022,-0.026l0.024,-0.025l0.024,-0.024l0.025,-0.024l0.026,-0.022l0.027,-0.022l0.028,-0.021l0.028,-0.02l0.029,-0.019l0.03,-0.018l0.03,-0.016l0.03,-0.016l0.032,-0.015l0.031,-0.014l0.032,-0.012l0.033,-0.011l0.033,-0.011l0.033,-0.009l0.034,-0.008l0.034,-0.007l0.034,-0.005l0.034,-0.005l0.034,-0.003l0.035,-0.002l0.034,-0.001l0.035,0Z"/></g></svg>