<?xml version="1.0" encoding="UTF-8" standalone="no"?><!DOCTYPE svg PUBLIC "-//W3C//DTD SVG 1.1//EN" "http://www.w3.org/Graphics/SVG/1.1/DTD/svg11.dtd"><svg width="100%" height="100%" viewBox="0 0 32 32" version="1.1" xmlns="http://www.w3.org/2000/svg" xmlns:xlink="http://www.w3.org/1999/xlink" xml:space="preserve" style="fill-rule:evenodd;clip-rule:evenodd;stroke-linejoin:round;stroke-miterlimit:1.41421;">
<metadata>
<rdf:RDF xmlns:cc="http://web.resource.org/cc/"
         xmlns:rdf="http://www.w3.org/1999/02/22-rdf-syntax-ns#"
         xmlns:dc = "http://purl.org/dc/elements/1.1/"
         >

     <rdf:Description rdf:about="">
       <dc:title>Mutant Standard emoji v0.2.3</dc:title>
     </rdf:Description>

    <cc:work rdf:about="">
        <cc:license rdf:resource="http://creativecommons.org/licenses/by-nc-sa/4.0/"/>
        <cc:attributionName>Dzuk</cc:attributionName>
        <cc:attributionURL>http://mutant.tech/</cc:attributionURL>
    </cc:work>

</rdf:RDF>
</metadata>
<rect id="disappointed_but_relieved" x="0" y="0.008" width="32" height="32" style="fill:none;"/><g id="outline"><path d="M16.174,3.009c0.462,0.009 0.922,0.035 1.381,0.086c1.079,0.12 2.143,0.367 3.165,0.733c2.161,0.774 4.118,2.083 5.658,3.784c1.267,1.399 2.244,3.053 2.859,4.837c0.335,0.973 0.562,1.982 0.676,3.004c0.052,0.459 0.077,0.92 0.086,1.381c0.005,0.772 0.005,1.544 0,2.316c-0.008,0.42 -0.034,0.84 -0.087,1.257c-0.104,0.813 -0.298,1.614 -0.58,2.383c-0.563,1.539 -1.475,2.945 -2.648,4.089c-1.141,1.115 -2.524,1.977 -4.029,2.507c-0.774,0.273 -1.579,0.458 -2.394,0.551c-0.372,0.042 -0.745,0.063 -1.119,0.07c-2.095,0.014 -4.189,0.014 -6.284,0c-0.374,-0.007 -0.747,-0.028 -1.119,-0.07c-0.815,-0.093 -1.62,-0.278 -2.394,-0.551c-1.505,-0.53 -2.888,-1.392 -4.029,-2.507c-1.173,-1.144 -2.084,-2.55 -2.648,-4.088c-0.298,-0.813 -0.498,-1.662 -0.596,-2.522c-0.043,-0.372 -0.064,-0.745 -0.071,-1.119c-0.005,-0.772 -0.005,-1.544 0,-2.316c0.01,-0.519 0.042,-1.036 0.106,-1.552c0.134,-1.077 0.393,-2.138 0.771,-3.155c0.76,-2.042 2,-3.897 3.598,-5.38c1.467,-1.362 3.226,-2.401 5.127,-3.03c0.977,-0.323 1.989,-0.539 3.013,-0.64c0.458,-0.046 0.918,-0.066 1.378,-0.069c0.06,0 0.12,0.001 0.18,0.001Z" style="fill-rule:nonzero;"/></g><g id="emoji"><path d="M28,17.008c0,-3.182 -1.264,-6.234 -3.515,-8.485c-2.25,-2.25 -5.302,-3.515 -8.485,-3.515c0,0 0,0 0,0c-3.183,0 -6.235,1.265 -8.485,3.515c-2.251,2.251 -3.515,5.303 -3.515,8.485c0,0.672 0,1.342 0,2c0,4.971 4.029,9 9,9c1.962,0 4.038,0 6,0c4.971,0 9,-4.029 9,-9c0,-0.658 0,-1.328 0,-2Z" style="fill:#fbc546;"/><path d="M31.5,8.529c0.294,0.603 0.459,1.259 0.467,1.931c0.011,0.982 -0.307,1.955 -0.898,2.739c-0.307,0.407 -0.684,0.761 -1.109,1.041c-0.336,0.222 -0.703,0.398 -1.086,0.522c-0.477,0.154 -0.98,0.227 -1.481,0.215c-0.538,-0.013 -1.074,-0.124 -1.573,-0.326c-0.517,-0.21 -0.993,-0.518 -1.398,-0.902c-0.41,-0.39 -0.745,-0.858 -0.982,-1.373c-0.251,-0.546 -0.389,-1.143 -0.405,-1.744c-0.014,-0.521 0.064,-1.044 0.23,-1.538c0.065,-0.194 0.145,-0.382 0.235,-0.565l3.264,-6.529l1.472,0c1.088,2.176 2.176,4.352 3.264,6.529Z" style="fill-rule:nonzero;"/><path d="M27.5,5c0,0 -1.318,2.637 -2.207,4.414c-0.474,0.947 -0.288,2.091 0.461,2.84c0,0 0,0 0.001,0.001c0.964,0.964 2.526,0.964 3.49,0c0.001,-0.001 0.001,-0.001 0.001,-0.001c0.749,-0.749 0.935,-1.893 0.461,-2.84c-0.889,-1.777 -2.207,-4.414 -2.207,-4.414Z" style="fill:#fff;"/><path d="M16.104,18.009c0.545,0.013 1.086,0.084 1.613,0.226c1.071,0.288 2.063,0.849 2.862,1.618c0.32,0.307 0.604,0.647 0.859,1.011c0.132,0.195 0.263,0.393 0.394,0.59c0.078,0.126 0.135,0.259 0.157,0.407c0.019,0.124 0.013,0.252 -0.015,0.374c-0.024,0.102 -0.064,0.2 -0.118,0.29c-0.054,0.09 -0.122,0.171 -0.201,0.239c-0.257,0.222 -0.618,0.3 -0.943,0.202c-0.14,-0.042 -0.271,-0.115 -0.38,-0.213c-0.047,-0.043 -0.088,-0.09 -0.128,-0.139c-0.157,-0.221 -0.299,-0.452 -0.454,-0.674c-0.333,-0.46 -0.741,-0.859 -1.216,-1.172c-0.469,-0.309 -0.994,-0.531 -1.543,-0.652c-0.674,-0.148 -1.38,-0.143 -2.051,0.016c-0.433,0.102 -0.85,0.268 -1.236,0.489c-0.489,0.281 -0.925,0.653 -1.28,1.091c-0.218,0.268 -0.401,0.565 -0.592,0.851l-0.036,0.051c-0.094,0.115 -0.202,0.212 -0.334,0.281c-0.112,0.058 -0.234,0.095 -0.359,0.108c-0.104,0.011 -0.21,0.005 -0.312,-0.017c-0.419,-0.09 -0.742,-0.449 -0.786,-0.875c-0.015,-0.146 0.003,-0.294 0.051,-0.433c0.021,-0.06 0.049,-0.115 0.079,-0.171c0.136,-0.219 0.283,-0.43 0.427,-0.643c0.294,-0.419 0.627,-0.806 1.007,-1.149c0.797,-0.722 1.77,-1.242 2.812,-1.506c0.43,-0.108 0.867,-0.169 1.309,-0.193c0.138,-0.006 0.276,-0.008 0.414,-0.007Z" style="fill-rule:nonzero;"/><path d="M13,15.004c0,-0.266 -0.106,-0.522 -0.294,-0.71c-0.188,-0.188 -0.444,-0.294 -0.71,-0.294c-0.87,0 -2.122,0 -2.992,0c-0.266,0 -0.522,0.106 -0.71,0.294c-0.188,0.188 -0.294,0.444 -0.294,0.71c0,0 0,0 0,0c0,0.267 0.106,0.522 0.294,0.71c0.188,0.189 0.444,0.294 0.71,0.294c0.87,0 2.122,0 2.992,0c0.266,0 0.522,-0.105 0.71,-0.294c0.188,-0.188 0.294,-0.443 0.294,-0.71c0,0 0,0 0,0Z"/><path d="M24,15.004c0,-0.266 -0.106,-0.522 -0.294,-0.71c-0.188,-0.188 -0.444,-0.294 -0.71,-0.294c-0.87,0 -2.122,0 -2.992,0c-0.266,0 -0.522,0.106 -0.71,0.294c-0.188,0.188 -0.294,0.444 -0.294,0.71c0,0 0,0 0,0c0,0.267 0.106,0.522 0.294,0.71c0.188,0.189 0.444,0.294 0.71,0.294c0.87,0 2.122,0 2.992,0c0.266,0 0.522,-0.105 0.71,-0.294c0.188,-0.188 0.294,-0.443 0.294,-0.71c0,0 0,0 0,0Z"/></g></svg>