<?xml version="1.0" encoding="UTF-8" standalone="no"?><!DOCTYPE svg PUBLIC "-//W3C//DTD SVG 1.1//EN" "http://www.w3.org/Graphics/SVG/1.1/DTD/svg11.dtd"><svg width="100%" height="100%" viewBox="0 0 32 32" version="1.1" xmlns="http://www.w3.org/2000/svg" xmlns:xlink="http://www.w3.org/1999/xlink" xml:space="preserve" style="fill-rule:evenodd;clip-rule:evenodd;stroke-linejoin:round;stroke-miterlimit:1.41421;">
<metadata>
<rdf:RDF xmlns:cc="http://web.resource.org/cc/"
         xmlns:rdf="http://www.w3.org/1999/02/22-rdf-syntax-ns#"
         xmlns:dc = "http://purl.org/dc/elements/1.1/"
         >

     <rdf:Description rdf:about="">
       <dc:title>Mutant Standard emoji v0.2.3</dc:title>
     </rdf:Description>

    <cc:work rdf:about="">
        <cc:license rdf:resource="http://creativecommons.org/licenses/by-nc-sa/4.0/"/>
        <cc:attributionName>Dzuk</cc:attributionName>
        <cc:attributionURL>http://mutant.tech/</cc:attributionURL>
    </cc:work>

</rdf:RDF>
</metadata>
<rect id="drooling" x="0" y="0" width="32" height="32" style="fill:none;"/><g id="outline"><path d="M16.174,4.001c0.462,0.009 0.922,0.034 1.381,0.086c1.079,0.12 2.143,0.367 3.165,0.733c2.051,0.734 3.92,1.951 5.422,3.529c1.342,1.41 2.382,3.099 3.038,4.931c0.347,0.968 0.587,1.974 0.713,2.994c0.064,0.515 0.096,1.033 0.106,1.552c0.005,0.768 0.005,1.535 0,2.303c-0.007,0.382 -0.031,0.763 -0.079,1.142c-0.089,0.699 -0.252,1.388 -0.486,2.053c-0.402,1.141 -1.014,2.206 -1.795,3.13c-1.118,1.321 -2.576,2.344 -4.201,2.939c-0.739,0.27 -1.51,0.453 -2.292,0.542c-0.338,0.039 -0.677,0.058 -1.017,0.064c-2.753,0.017 -5.505,0.017 -8.258,0c-0.34,-0.006 -0.679,-0.025 -1.017,-0.064c-0.782,-0.089 -1.553,-0.272 -2.292,-0.542c-1.625,-0.595 -3.083,-1.618 -4.201,-2.939c-0.781,-0.924 -1.393,-1.989 -1.795,-3.13c-0.234,-0.665 -0.397,-1.354 -0.486,-2.053c-0.048,-0.379 -0.072,-0.76 -0.079,-1.142c-0.005,-0.768 -0.005,-1.535 0,-2.303c0.01,-0.519 0.042,-1.037 0.106,-1.552c0.126,-1.02 0.366,-2.026 0.713,-2.994c0.656,-1.832 1.696,-3.521 3.038,-4.931c1.541,-1.619 3.469,-2.858 5.583,-3.586c0.972,-0.335 1.982,-0.562 3.004,-0.676c0.459,-0.052 0.919,-0.077 1.381,-0.086c0.174,-0.001 0.174,-0.001 0.348,0Z" style="fill-rule:nonzero;"/></g><g id="emoji"><path d="M28,18c0,-3.183 -1.264,-6.235 -3.515,-8.485c-2.25,-2.251 -5.302,-3.515 -8.485,-3.515c0,0 0,0 0,0c-3.183,0 -6.235,1.264 -8.485,3.515c-2.251,2.25 -3.515,5.302 -3.515,8.485c0,0.675 0,1.345 0,2c0,4.418 3.582,8 8,8c2.574,0 5.426,0 8,0c4.418,0 8,-3.582 8,-8c0,-0.655 0,-1.325 0,-2Z" style="fill:#fbc546;"/><clipPath id="_clip1"><path d="M28,18c0,-3.183 -1.264,-6.235 -3.515,-8.485c-2.25,-2.251 -5.302,-3.515 -8.485,-3.515c0,0 0,0 0,0c-3.183,0 -6.235,1.264 -8.485,3.515c-2.251,2.25 -3.515,5.302 -3.515,8.485c0,0.675 0,1.345 0,2c0,4.418 3.582,8 8,8c2.574,0 5.426,0 8,0c4.418,0 8,-3.582 8,-8c0,-0.655 0,-1.325 0,-2Z"/></clipPath><g clip-path="url(#_clip1)"><path d="M23.086,20.74c0.306,-0.278 0.409,-0.715 0.26,-1.101c-0.149,-0.385 -0.519,-0.639 -0.933,-0.639c-3.419,0 -9.407,0 -12.826,0c-0.414,0 -0.784,0.254 -0.933,0.639c-0.149,0.386 -0.046,0.823 0.26,1.101c0.419,0.381 0.866,0.787 1.297,1.18c1.473,1.338 3.392,2.08 5.382,2.08c0.27,0 0.544,0 0.814,0c1.99,0 3.909,-0.742 5.382,-2.08c0.431,-0.393 0.878,-0.799 1.297,-1.18Z"/><path d="M13.043,12.001c0.139,0.008 0.273,0.04 0.399,0.102c0.093,0.046 0.178,0.106 0.253,0.178c0.26,0.251 0.365,0.634 0.269,0.983c-0.043,0.158 -0.124,0.298 -0.233,0.418c-0.998,1.034 -2.015,2.051 -3.049,3.049c-0.12,0.109 -0.26,0.19 -0.418,0.233c-0.36,0.099 -0.756,-0.017 -1.007,-0.294c-0.069,-0.077 -0.126,-0.165 -0.169,-0.26c-0.047,-0.105 -0.076,-0.218 -0.085,-0.332c-0.01,-0.127 0.005,-0.255 0.042,-0.376c0.045,-0.144 0.123,-0.272 0.224,-0.384c0.998,-1.034 2.015,-2.051 3.049,-3.049c0.184,-0.166 0.409,-0.258 0.656,-0.269c0.035,0 0.034,0 0.069,0.001Z" style="fill-rule:nonzero;"/><path d="M19.026,12c0.247,0.011 0.472,0.103 0.656,0.269c1.034,0.998 2.051,2.015 3.049,3.049c0.101,0.112 0.179,0.24 0.224,0.384c0.037,0.121 0.052,0.249 0.042,0.376c-0.009,0.114 -0.038,0.227 -0.085,0.332c-0.043,0.095 -0.1,0.183 -0.169,0.26c-0.251,0.277 -0.647,0.393 -1.007,0.294c-0.158,-0.043 -0.298,-0.124 -0.418,-0.233c-1.034,-0.998 -2.051,-2.015 -3.049,-3.049c-0.109,-0.12 -0.19,-0.26 -0.233,-0.418c-0.028,-0.1 -0.04,-0.204 -0.035,-0.307c0.016,-0.362 0.233,-0.694 0.557,-0.854c0.126,-0.062 0.26,-0.094 0.399,-0.102c0.035,-0.001 0.034,-0.001 0.069,-0.001Z" style="fill-rule:nonzero;"/><rect x="17" y="21" width="3" height="8" style="fill:#0091c1;"/></g></g></svg>