<?xml version="1.0" encoding="UTF-8" standalone="no"?><!DOCTYPE svg PUBLIC "-//W3C//DTD SVG 1.1//EN" "http://www.w3.org/Graphics/SVG/1.1/DTD/svg11.dtd"><svg width="100%" height="100%" viewBox="0 0 32 32" version="1.1" xmlns="http://www.w3.org/2000/svg" xmlns:xlink="http://www.w3.org/1999/xlink" xml:space="preserve" style="fill-rule:evenodd;clip-rule:evenodd;stroke-linejoin:round;stroke-miterlimit:1.41421;">
<metadata>
<rdf:RDF xmlns:cc="http://web.resource.org/cc/"
         xmlns:rdf="http://www.w3.org/1999/02/22-rdf-syntax-ns#"
         xmlns:dc = "http://purl.org/dc/elements/1.1/"
         >

     <rdf:Description rdf:about="">
       <dc:title>Mutant Standard emoji v0.2.3</dc:title>
     </rdf:Description>

    <cc:work rdf:about="">
        <cc:license rdf:resource="http://creativecommons.org/licenses/by-nc-sa/4.0/"/>
        <cc:attributionName>Dzuk</cc:attributionName>
        <cc:attributionURL>http://mutant.tech/</cc:attributionURL>
    </cc:work>

</rdf:RDF>
</metadata>
<rect id="embarrassed" x="0" y="0" width="32" height="32" style="fill:none;"/><g id="outline"><path d="M16.174,2.001c0.462,0.009 0.922,0.034 1.381,0.086c1.079,0.12 2.143,0.367 3.165,0.733c2.161,0.774 4.118,2.082 5.658,3.783c1.267,1.399 2.244,3.054 2.859,4.838c0.335,0.972 0.562,1.982 0.676,3.004c0.052,0.459 0.077,0.919 0.086,1.381c0.005,0.774 0.005,1.549 0,2.323c-0.007,0.396 -0.029,0.791 -0.073,1.184c-0.104,0.925 -0.315,1.837 -0.629,2.713c-0.612,1.711 -1.617,3.275 -2.918,4.544c-1.264,1.234 -2.801,2.18 -4.471,2.756c-0.834,0.287 -1.699,0.482 -2.575,0.58c-0.394,0.044 -0.788,0.066 -1.184,0.073c-1.433,0.009 -2.865,0.009 -4.298,0c-0.396,-0.007 -0.79,-0.029 -1.184,-0.073c-0.876,-0.098 -1.741,-0.293 -2.575,-0.58c-1.67,-0.576 -3.207,-1.522 -4.471,-2.756c-1.301,-1.269 -2.306,-2.833 -2.918,-4.544c-0.314,-0.876 -0.525,-1.788 -0.629,-2.713c-0.044,-0.394 -0.066,-0.788 -0.073,-1.184c-0.005,-0.776 -0.005,-1.553 0,-2.329c0.009,-0.477 0.036,-0.952 0.09,-1.425c0.125,-1.095 0.38,-2.174 0.759,-3.209c0.717,-1.958 1.878,-3.747 3.37,-5.203c1.453,-1.419 3.212,-2.516 5.128,-3.191c1.041,-0.367 2.125,-0.608 3.223,-0.72c0.473,-0.048 0.947,-0.069 1.423,-0.072c0.06,0 0.12,0.001 0.18,0.001Z" style="fill-rule:nonzero;"/></g><g id="emoji"><path d="M28,16c0,-3.183 -1.264,-6.235 -3.515,-8.485c-2.25,-2.251 -5.302,-3.515 -8.485,-3.515c0,0 0,0 0,0c-6.627,0 -12,5.373 -12,12c0,0.669 0,1.339 0,2c0,2.652 1.054,5.196 2.929,7.071c1.875,1.875 4.419,2.929 7.071,2.929c1.322,0 2.678,0 4,0c2.652,0 5.196,-1.054 7.071,-2.929c1.875,-1.875 2.929,-4.419 2.929,-7.071c0,-0.661 0,-1.331 0,-2Z" style="fill:#fbc546;"/><circle cx="10.5" cy="14.5" r="3.5" style="fill:#fff;"/><circle cx="10.5" cy="14.5" r="1.5"/><circle cx="21.5" cy="14.5" r="3.5" style="fill:#fff;"/><circle cx="21.5" cy="14.5" r="1.5"/><path d="M19.048,21.001l0.049,0.004l0.047,0.005l0.048,0.009l0.047,0.01l0.047,0.013l0.046,0.015l0.045,0.017l0.044,0.019l0.044,0.022l0.042,0.023l0.041,0.026l0.04,0.027l0.038,0.029l0.037,0.031l0.036,0.033l0.033,0.035l0.032,0.036l0.031,0.038l0.028,0.039l0.026,0.04l0.025,0.042l0.022,0.043l0.021,0.044l0.018,0.044l0.016,0.046l0.014,0.046l0.011,0.047l0.01,0.048l0.007,0.047l0.004,0.049l0.003,0.048l0,0.048l-0.003,0.048l-0.004,0.049l-0.007,0.047l-0.01,0.048l-0.011,0.047l-0.014,0.046l-0.016,0.046l-0.018,0.044l-0.021,0.044l-0.022,0.043l-0.025,0.042l-0.026,0.04l-0.028,0.039l-0.031,0.038l-0.032,0.036l-0.033,0.035l-0.036,0.033l-0.037,0.031l-0.038,0.029l-0.04,0.027l-0.041,0.026l-0.042,0.023l-0.044,0.022l-0.044,0.019l-0.045,0.017l-0.046,0.015l-0.047,0.013l-0.047,0.01l-0.048,0.009l-0.047,0.005l-0.049,0.004l-0.048,0.001l-6,0l-0.048,-0.001l-0.049,-0.004l-0.047,-0.005l-0.048,-0.009l-0.047,-0.01l-0.047,-0.013l-0.046,-0.015l-0.045,-0.017l-0.044,-0.019l-0.044,-0.022l-0.042,-0.023l-0.041,-0.026l-0.04,-0.027l-0.038,-0.029l-0.037,-0.031l-0.036,-0.033l-0.033,-0.035l-0.032,-0.036l-0.031,-0.038l-0.028,-0.039l-0.026,-0.04l-0.025,-0.042l-0.022,-0.043l-0.021,-0.044l-0.018,-0.044l-0.016,-0.046l-0.014,-0.046l-0.011,-0.047l-0.01,-0.048l-0.007,-0.047l-0.004,-0.049l-0.003,-0.048l0,-0.048l0.003,-0.048l0.004,-0.049l0.007,-0.047l0.01,-0.048l0.011,-0.047l0.014,-0.046l0.016,-0.046l0.018,-0.044l0.021,-0.044l0.022,-0.043l0.025,-0.042l0.026,-0.04l0.028,-0.039l0.031,-0.038l0.032,-0.036l0.033,-0.035l0.036,-0.033l0.037,-0.031l0.038,-0.029l0.04,-0.027l0.041,-0.026l0.042,-0.023l0.044,-0.022l0.044,-0.019l0.045,-0.017l0.046,-0.015l0.047,-0.013l0.047,-0.01l0.048,-0.009l0.047,-0.005l0.049,-0.004l0.048,-0.001l6,0l0.048,0.001Z"/><path d="M27,19.5c0,-0.828 -0.672,-1.5 -1.5,-1.5c-0.916,0 -2.084,0 -3,0c-0.828,0 -1.5,0.672 -1.5,1.5c0,0.828 0.672,1.5 1.5,1.5c0.916,0 2.084,0 3,0c0.828,0 1.5,-0.672 1.5,-1.5c0,0 0,0 0,0Z" style="fill:#ed6b44;"/><path d="M11,19.5c0,-0.828 -0.672,-1.5 -1.5,-1.5c-0.916,0 -2.084,0 -3,0c-0.828,0 -1.5,0.672 -1.5,1.5c0,0.828 0.672,1.5 1.5,1.5c0.916,0 2.084,0 3,0c0.828,0 1.5,-0.672 1.5,-1.5c0,0 0,0 0,0Z" style="fill:#ed6b44;"/></g></svg>