<?xml version="1.0" encoding="UTF-8" standalone="no"?><!DOCTYPE svg PUBLIC "-//W3C//DTD SVG 1.1//EN" "http://www.w3.org/Graphics/SVG/1.1/DTD/svg11.dtd"><svg width="100%" height="100%" viewBox="0 0 32 32" version="1.1" xmlns="http://www.w3.org/2000/svg" xmlns:xlink="http://www.w3.org/1999/xlink" xml:space="preserve" style="fill-rule:evenodd;clip-rule:evenodd;stroke-linejoin:round;stroke-miterlimit:1.41421;">
<metadata>
<rdf:RDF xmlns:cc="http://web.resource.org/cc/"
         xmlns:rdf="http://www.w3.org/1999/02/22-rdf-syntax-ns#"
         xmlns:dc = "http://purl.org/dc/elements/1.1/"
         >

     <rdf:Description rdf:about="">
       <dc:title>Mutant Standard emoji v0.2.3</dc:title>
     </rdf:Description>

    <cc:work rdf:about="">
        <cc:license rdf:resource="http://creativecommons.org/licenses/by-nc-sa/4.0/"/>
        <cc:attributionName>Dzuk</cc:attributionName>
        <cc:attributionURL>http://mutant.tech/</cc:attributionURL>
    </cc:work>

</rdf:RDF>
</metadata>
<rect id="exhausted" x="0" y="0.033" width="32" height="32" style="fill:none;"/><g id="outline"><path d="M16.174,3.034c0.462,0.009 0.922,0.035 1.381,0.086c1.022,0.114 2.032,0.342 3.004,0.677c1.784,0.614 3.439,1.592 4.838,2.858c1.701,1.54 3.01,3.498 3.783,5.658c0.347,0.968 0.587,1.974 0.713,2.994c0.064,0.516 0.096,1.033 0.106,1.552c0.005,0.772 0.005,1.544 0,2.316c-0.007,0.374 -0.028,0.747 -0.071,1.119c-0.098,0.86 -0.298,1.708 -0.596,2.521c-0.594,1.622 -1.574,3.095 -2.838,4.271c-1.104,1.027 -2.417,1.824 -3.839,2.325c-0.774,0.273 -1.579,0.458 -2.394,0.551c-0.372,0.042 -0.745,0.063 -1.119,0.071c-2.095,0.013 -4.189,0.013 -6.284,0c-0.374,-0.008 -0.747,-0.029 -1.119,-0.071c-0.815,-0.093 -1.62,-0.278 -2.394,-0.551c-1.589,-0.559 -3.04,-1.489 -4.216,-2.693c-1.083,-1.109 -1.928,-2.446 -2.461,-3.902c-0.282,-0.77 -0.476,-1.571 -0.58,-2.384c-0.053,-0.418 -0.079,-0.837 -0.087,-1.257c-0.005,-0.772 -0.005,-1.544 0,-2.315c0.009,-0.462 0.034,-0.923 0.086,-1.382c0.12,-1.079 0.367,-2.143 0.733,-3.165c0.695,-1.941 1.822,-3.721 3.28,-5.179c1.499,-1.499 3.337,-2.647 5.341,-3.337c0.972,-0.335 1.982,-0.563 3.004,-0.677c0.459,-0.051 0.919,-0.077 1.381,-0.086c0.174,-0.001 0.174,-0.001 0.348,0Z" style="fill-rule:nonzero;"/></g><g id="emoji"><path d="M28,17.033c0,-3.182 -1.264,-6.234 -3.515,-8.485c-2.25,-2.25 -5.302,-3.515 -8.485,-3.515c0,0 0,0 0,0c-3.183,0 -6.235,1.265 -8.485,3.515c-2.251,2.251 -3.515,5.303 -3.515,8.485c0,0.672 0,1.342 0,2c0,4.971 4.029,9 9,9c1.962,0 4.038,0 6,0c4.971,0 9,-4.029 9,-9c0,-0.658 0,-1.328 0,-2Z" style="fill:#fbc546;"/><path d="M23.276,20.553c0.155,0.31 0.139,0.678 -0.043,0.973c-0.183,0.295 -0.504,0.474 -0.851,0.474c-3.068,0 -9.696,0 -12.764,0c-0.347,0 -0.668,-0.179 -0.851,-0.474c-0.182,-0.295 -0.198,-0.663 -0.043,-0.973c0.228,-0.456 0.491,-0.984 0.764,-1.529c1.233,-2.466 3.754,-4.024 6.511,-4.024c0.001,0 0.001,0 0.002,0c2.757,0 5.278,1.558 6.511,4.024c0.273,0.545 0.536,1.073 0.764,1.529Z"/><path d="M28.236,2.017c1.1,2.2 2.22,4.389 3.299,6.6c0.038,0.081 0.073,0.162 0.108,0.245c0.086,0.218 0.158,0.441 0.211,0.671c0.109,0.476 0.14,0.97 0.089,1.457c-0.062,0.6 -0.247,1.186 -0.54,1.712c-0.275,0.493 -0.644,0.932 -1.081,1.289c-0.429,0.349 -0.922,0.618 -1.448,0.788c-0.511,0.165 -1.051,0.236 -1.588,0.21c-0.466,-0.022 -0.928,-0.117 -1.365,-0.282c-0.379,-0.143 -0.738,-0.338 -1.065,-0.578c-0.398,-0.292 -0.747,-0.651 -1.028,-1.056c-0.526,-0.758 -0.806,-1.675 -0.795,-2.597c0.006,-0.463 0.084,-0.926 0.232,-1.365c0.065,-0.194 0.145,-0.382 0.234,-0.565l3.265,-6.529c0.491,0 0.981,0 1.472,0Z" style="fill-rule:nonzero;"/><path d="M27.5,5.017c0,0 -1.318,2.636 -2.207,4.414c-0.474,0.947 -0.288,2.091 0.461,2.839c0,0.001 0,0.001 0.001,0.002c0.964,0.963 2.526,0.963 3.49,0c0.001,-0.001 0.001,-0.001 0.001,-0.002c0.749,-0.748 0.935,-1.892 0.461,-2.839c-0.889,-1.778 -2.207,-4.414 -2.207,-4.414Z" style="fill:#fff;"/><path d="M23.05,9.035c0.16,0.011 0.314,0.053 0.453,0.134c0.314,0.183 0.507,0.531 0.497,0.894c-0.004,0.106 -0.024,0.212 -0.06,0.311c-0.05,0.139 -0.131,0.26 -0.233,0.367l-1.856,1.855c0.501,0.167 1.005,0.325 1.503,0.502c0.037,0.015 0.073,0.031 0.109,0.049c0.129,0.07 0.242,0.162 0.332,0.279c0.08,0.106 0.139,0.227 0.173,0.355c0.03,0.116 0.039,0.237 0.027,0.355c-0.036,0.348 -0.258,0.658 -0.575,0.805c-0.084,0.039 -0.173,0.066 -0.265,0.08c-0.159,0.025 -0.318,0.009 -0.471,-0.039l-4.087,-1.362l-0.114,-0.484c1.279,-1.279 2.534,-2.584 3.839,-3.837c0.13,-0.116 0.281,-0.2 0.451,-0.24c0.065,-0.015 0.131,-0.022 0.197,-0.025c0.04,-0.001 0.04,-0.001 0.08,0.001Z" style="fill-rule:nonzero;"/><path d="M9.03,9.034c0.066,0.003 0.132,0.01 0.197,0.025c0.183,0.043 0.345,0.137 0.48,0.267l3.81,3.81l-0.114,0.484c-1.375,0.458 -2.741,0.943 -4.125,1.374c-0.155,0.041 -0.314,0.052 -0.472,0.02c-0.37,-0.073 -0.674,-0.357 -0.772,-0.721c-0.027,-0.103 -0.038,-0.21 -0.032,-0.316c0.006,-0.119 0.034,-0.237 0.082,-0.346c0.054,-0.121 0.131,-0.232 0.228,-0.323c0.107,-0.102 0.233,-0.174 0.372,-0.223l1.465,-0.489c-0.628,-0.628 -1.268,-1.244 -1.884,-1.884c-0.026,-0.03 -0.051,-0.06 -0.075,-0.092c-0.084,-0.121 -0.144,-0.254 -0.172,-0.399c-0.018,-0.091 -0.022,-0.185 -0.014,-0.277c0.03,-0.334 0.232,-0.637 0.528,-0.794c0.13,-0.069 0.272,-0.105 0.418,-0.115c0.04,-0.002 0.04,-0.002 0.08,-0.001Z" style="fill-rule:nonzero;"/></g></svg>