<?xml version="1.0" encoding="UTF-8" standalone="no"?><!DOCTYPE svg PUBLIC "-//W3C//DTD SVG 1.1//EN" "http://www.w3.org/Graphics/SVG/1.1/DTD/svg11.dtd"><svg width="100%" height="100%" viewBox="0 0 32 32" version="1.1" xmlns="http://www.w3.org/2000/svg" xmlns:xlink="http://www.w3.org/1999/xlink" xml:space="preserve" style="fill-rule:evenodd;clip-rule:evenodd;stroke-linejoin:round;stroke-miterlimit:1.41421;">
<metadata>
<rdf:RDF xmlns:cc="http://web.resource.org/cc/"
         xmlns:rdf="http://www.w3.org/1999/02/22-rdf-syntax-ns#"
         xmlns:dc = "http://purl.org/dc/elements/1.1/"
         >

     <rdf:Description rdf:about="">
       <dc:title>Mutant Standard emoji v0.2.3</dc:title>
     </rdf:Description>

    <cc:work rdf:about="">
        <cc:license rdf:resource="http://creativecommons.org/licenses/by-nc-sa/4.0/"/>
        <cc:attributionName>Dzuk</cc:attributionName>
        <cc:attributionURL>http://mutant.tech/</cc:attributionURL>
    </cc:work>

</rdf:RDF>
</metadata>
<rect id="expressionless" x="0" y="0" width="32" height="32" style="fill:none;"/><g id="outline"><path d="M16.174,3.001c0.462,0.009 0.922,0.034 1.381,0.086c1.079,0.12 2.143,0.367 3.165,0.733c1.887,0.675 3.621,1.759 5.056,3.158c1.559,1.521 2.752,3.404 3.461,5.463c0.335,0.972 0.562,1.982 0.676,3.004c0.052,0.459 0.077,0.919 0.086,1.381c0.009,1.43 0.009,2.86 0,4.29c-0.006,0.306 -0.023,0.611 -0.058,0.915c-0.076,0.667 -0.227,1.326 -0.45,1.96c-0.422,1.197 -1.1,2.3 -1.976,3.219c-0.95,0.996 -2.128,1.77 -3.42,2.243c-0.666,0.244 -1.36,0.408 -2.064,0.488c-0.304,0.035 -0.609,0.052 -0.915,0.058c-3.411,0.022 -6.821,0.022 -10.232,0c-0.306,-0.006 -0.611,-0.023 -0.915,-0.058c-0.704,-0.08 -1.398,-0.244 -2.064,-0.488c-1.292,-0.473 -2.47,-1.247 -3.42,-2.243c-0.876,-0.919 -1.554,-2.022 -1.976,-3.219c-0.223,-0.634 -0.374,-1.293 -0.45,-1.96c-0.035,-0.304 -0.052,-0.609 -0.058,-0.915c-0.009,-1.43 -0.009,-2.86 0,-4.29c0.009,-0.462 0.034,-0.922 0.086,-1.381c0.114,-1.022 0.341,-2.032 0.676,-3.004c0.653,-1.894 1.714,-3.641 3.095,-5.092c1.502,-1.578 3.371,-2.795 5.421,-3.529c1.022,-0.366 2.087,-0.613 3.166,-0.733c0.459,-0.052 0.919,-0.077 1.381,-0.086c0.174,-0.001 0.174,-0.001 0.348,0Z" style="fill-rule:nonzero;"/></g><g id="emoji"><path d="M28,17c0,-3.183 -1.264,-6.235 -3.515,-8.485c-2.25,-2.251 -5.302,-3.515 -8.485,-3.515c0,0 0,0 0,0c-3.183,0 -6.235,1.264 -8.485,3.515c-2.251,2.25 -3.515,5.302 -3.515,8.485c0,1.369 0,2.728 0,4c0,3.866 3.134,7 7,7c3.147,0 6.853,0 10,0c3.866,0 7,-3.134 7,-7c0,-1.272 0,-2.631 0,-4Z" style="fill:#fbc546;"/><path d="M13,15.999c0,-0.265 -0.105,-0.519 -0.293,-0.706c-0.187,-0.188 -0.441,-0.293 -0.706,-0.293c-0.872,0 -2.13,0 -3.002,0c-0.265,0 -0.519,0.105 -0.706,0.293c-0.188,0.187 -0.293,0.441 -0.293,0.706c0,0.001 0,0.001 0,0.002c0,0.265 0.105,0.519 0.293,0.706c0.187,0.188 0.441,0.293 0.706,0.293c0.872,0 2.13,0 3.002,0c0.265,0 0.519,-0.105 0.706,-0.293c0.188,-0.187 0.293,-0.441 0.293,-0.706c0,-0.001 0,-0.001 0,-0.002Z"/><path d="M24,15.999c0,-0.265 -0.105,-0.519 -0.293,-0.706c-0.187,-0.188 -0.441,-0.293 -0.706,-0.293c-0.872,0 -2.13,0 -3.002,0c-0.265,0 -0.519,0.105 -0.706,0.293c-0.188,0.187 -0.293,0.441 -0.293,0.706c0,0.001 0,0.001 0,0.002c0,0.265 0.105,0.519 0.293,0.706c0.187,0.188 0.441,0.293 0.706,0.293c0.872,0 2.13,0 3.002,0c0.265,0 0.519,-0.105 0.706,-0.293c0.188,-0.187 0.293,-0.441 0.293,-0.706c0,-0.001 0,-0.001 0,-0.002Z"/><path d="M23,22c0,-0.552 -0.448,-1 -1,-1c-2.577,0 -9.423,0 -12,0c-0.552,0 -1,0.448 -1,1c0,0.552 0.448,1 1,1c2.577,0 9.423,0 12,0c0.552,0 1,-0.448 1,-1c0,0 0,0 0,0Z"/></g></svg>