<?xml version="1.0" encoding="UTF-8" standalone="no"?><!DOCTYPE svg PUBLIC "-//W3C//DTD SVG 1.1//EN" "http://www.w3.org/Graphics/SVG/1.1/DTD/svg11.dtd"><svg width="100%" height="100%" viewBox="0 0 32 32" version="1.1" xmlns="http://www.w3.org/2000/svg" xmlns:xlink="http://www.w3.org/1999/xlink" xml:space="preserve" style="fill-rule:evenodd;clip-rule:evenodd;stroke-linejoin:round;stroke-miterlimit:1.41421;">
<metadata>
<rdf:RDF xmlns:cc="http://web.resource.org/cc/"
         xmlns:rdf="http://www.w3.org/1999/02/22-rdf-syntax-ns#"
         xmlns:dc = "http://purl.org/dc/elements/1.1/"
         >

     <rdf:Description rdf:about="">
       <dc:title>Mutant Standard emoji v0.2.3</dc:title>
     </rdf:Description>

    <cc:work rdf:about="">
        <cc:license rdf:resource="http://creativecommons.org/licenses/by-nc-sa/4.0/"/>
        <cc:attributionName>Dzuk</cc:attributionName>
        <cc:attributionURL>http://mutant.tech/</cc:attributionURL>
    </cc:work>

</rdf:RDF>
</metadata>
<rect id="face_without_mouth" x="0" y="0" width="32" height="32" style="fill:none;"/><g id="outline"><path d="M16.174,2.001c0.462,0.009 0.922,0.034 1.381,0.086c1.022,0.114 2.032,0.341 3.004,0.676c1.949,0.671 3.741,1.776 5.217,3.215c1.518,1.481 2.689,3.305 3.404,5.302c0.366,1.022 0.613,2.086 0.733,3.165c0.052,0.459 0.077,0.919 0.086,1.381c0.007,1.105 0.007,2.211 0,3.316c-0.008,0.42 -0.034,0.839 -0.087,1.256c-0.104,0.813 -0.298,1.615 -0.58,2.384c-0.594,1.622 -1.574,3.094 -2.838,4.271c-1.104,1.027 -2.417,1.824 -3.839,2.325c-0.774,0.272 -1.579,0.457 -2.394,0.55c-0.372,0.043 -0.745,0.064 -1.119,0.071c-2.095,0.013 -4.189,0.013 -6.284,0c-0.374,-0.007 -0.747,-0.028 -1.119,-0.071c-0.815,-0.093 -1.62,-0.278 -2.394,-0.55c-1.422,-0.501 -2.735,-1.298 -3.839,-2.325c-1.264,-1.177 -2.244,-2.649 -2.838,-4.271c-0.282,-0.769 -0.476,-1.571 -0.58,-2.384c-0.053,-0.417 -0.079,-0.836 -0.087,-1.256c-0.007,-1.108 -0.007,-2.215 0,-3.322c0.01,-0.536 0.044,-1.069 0.111,-1.601c0.132,-1.034 0.38,-2.053 0.738,-3.033c0.698,-1.906 1.816,-3.651 3.25,-5.086c1.476,-1.475 3.279,-2.615 5.248,-3.308c0.985,-0.347 2.009,-0.582 3.047,-0.701c0.531,-0.061 1.064,-0.088 1.599,-0.091c0.06,0 0.12,0.001 0.18,0.001Z" style="fill-rule:nonzero;"/></g><g id="emoji"><path d="M28,16c0,-3.183 -1.264,-6.235 -3.515,-8.485c-2.25,-2.251 -5.302,-3.515 -8.485,-3.515c0,0 0,0 0,0c-6.627,0 -12,5.373 -12,12c0,1.01 0,2.019 0,3c0,4.971 4.029,9 9,9c1.962,0 4.038,0 6,0c4.971,0 9,-4.029 9,-9c0,-0.981 0,-1.99 0,-3Z" style="fill:#fbc546;"/><path d="M12,13.498c0,-0.827 -0.671,-1.498 -1.498,-1.498c-0.001,0 -0.001,0 -0.002,0c-0.398,0 -0.779,0.158 -1.061,0.439c-0.281,0.282 -0.439,0.663 -0.439,1.061c0,0.633 0,1.367 0,2c0,0.398 0.158,0.779 0.439,1.061c0.282,0.281 0.663,0.439 1.061,0.439c0.398,0 0.779,-0.158 1.061,-0.439c0.281,-0.282 0.439,-0.663 0.439,-1.061c0,-0.633 0,-1.369 0,-2.002Z"/><path d="M23,13.498c0,-0.827 -0.671,-1.498 -1.498,-1.498c-0.001,0 -0.003,0 -0.004,0c-0.827,0 -1.498,0.671 -1.498,1.498c0,0.634 0,1.37 0,2.004c0,0.827 0.671,1.498 1.498,1.498c0.001,0 0.003,0 0.004,0c0.827,0 1.498,-0.671 1.498,-1.498c0,-0.634 0,-1.37 0,-2.004Z"/></g></svg>