<?xml version="1.0" encoding="UTF-8" standalone="no"?><!DOCTYPE svg PUBLIC "-//W3C//DTD SVG 1.1//EN" "http://www.w3.org/Graphics/SVG/1.1/DTD/svg11.dtd"><svg width="100%" height="100%" viewBox="0 0 32 32" version="1.1" xmlns="http://www.w3.org/2000/svg" xmlns:xlink="http://www.w3.org/1999/xlink" xml:space="preserve" style="fill-rule:evenodd;clip-rule:evenodd;stroke-linejoin:round;stroke-miterlimit:1.41421;">
<metadata>
<rdf:RDF xmlns:cc="http://web.resource.org/cc/"
         xmlns:rdf="http://www.w3.org/1999/02/22-rdf-syntax-ns#"
         xmlns:dc = "http://purl.org/dc/elements/1.1/"
         >

     <rdf:Description rdf:about="">
       <dc:title>Mutant Standard emoji v0.2.3</dc:title>
     </rdf:Description>

    <cc:work rdf:about="">
        <cc:license rdf:resource="http://creativecommons.org/licenses/by-nc-sa/4.0/"/>
        <cc:attributionName>Dzuk</cc:attributionName>
        <cc:attributionURL>http://mutant.tech/</cc:attributionURL>
    </cc:work>

</rdf:RDF>
</metadata>
<rect id="face_w_medical_mask" x="0" y="0" width="32" height="32" style="fill:none;"/><g id="outline"><path d="M16.174,2.001c0.462,0.009 0.922,0.034 1.381,0.086c1.079,0.12 2.143,0.367 3.165,0.733c2.106,0.754 4.019,2.016 5.541,3.656c1.323,1.425 2.342,3.126 2.976,4.965c0.335,0.972 0.562,1.982 0.676,3.004c0.052,0.459 0.077,0.919 0.086,1.381c0.005,0.772 0.005,1.544 0,2.316c-0.008,0.42 -0.034,0.839 -0.087,1.256c-0.104,0.813 -0.298,1.615 -0.58,2.384c-0.594,1.622 -1.574,3.094 -2.838,4.271c-1.104,1.027 -2.417,1.824 -3.839,2.325c-0.774,0.272 -1.579,0.457 -2.394,0.55c-0.372,0.043 -0.745,0.064 -1.119,0.071c-2.095,0.013 -4.189,0.013 -6.284,0c-0.374,-0.007 -0.747,-0.028 -1.119,-0.071c-0.815,-0.093 -1.62,-0.278 -2.394,-0.55c-1.422,-0.501 -2.735,-1.298 -3.839,-2.325c-1.264,-1.177 -2.244,-2.649 -2.838,-4.271c-0.298,-0.813 -0.498,-1.661 -0.596,-2.521c-0.043,-0.372 -0.064,-0.745 -0.071,-1.119c-0.005,-0.772 -0.005,-1.544 0,-2.316c0.01,-0.519 0.042,-1.037 0.106,-1.552c0.134,-1.077 0.393,-2.138 0.771,-3.155c0.76,-2.043 2,-3.897 3.598,-5.38c1.467,-1.362 3.226,-2.402 5.127,-3.03c0.977,-0.324 1.989,-0.539 3.013,-0.641c0.458,-0.045 0.918,-0.065 1.378,-0.068c0.06,0 0.12,0.001 0.18,0.001Z" style="fill-rule:nonzero;"/></g><g id="emoji"><path d="M28,16c0,-3.183 -1.264,-6.235 -3.515,-8.485c-2.25,-2.251 -5.302,-3.515 -8.485,-3.515c0,0 0,0 0,0c-3.183,0 -6.235,1.264 -8.485,3.515c-2.251,2.25 -3.515,5.302 -3.515,8.485c0,0.672 0,1.342 0,2c0,4.971 4.029,9 9,9c1.962,0 4.038,0 6,0c4.971,0 9,-4.029 9,-9c0,-0.658 0,-1.328 0,-2Z" style="fill:#fbc546;"/><clipPath id="_clip1"><path d="M28,16c0,-3.183 -1.264,-6.235 -3.515,-8.485c-2.25,-2.251 -5.302,-3.515 -8.485,-3.515c0,0 0,0 0,0c-3.183,0 -6.235,1.264 -8.485,3.515c-2.251,2.25 -3.515,5.302 -3.515,8.485c0,0.672 0,1.342 0,2c0,4.971 4.029,9 9,9c1.962,0 4.038,0 6,0c4.971,0 9,-4.029 9,-9c0,-0.658 0,-1.328 0,-2Z"/></clipPath><g clip-path="url(#_clip1)"><path d="M3.131,15.004l0.088,0.008l0.088,0.012l0.087,0.015l0.086,0.019l0.085,0.024l0.085,0.027l0.083,0.03l0.081,0.034l0.08,0.038l10,5l0.079,0.041l0.076,0.045l0.074,0.048l0.072,0.052l0.07,0.054l0.067,0.057l0.065,0.061l0.062,0.063l0.059,0.066l0.056,0.068l0.053,0.071l0.05,0.073l0.047,0.076l0.043,0.077l0.04,0.079l0.036,0.081l0.032,0.082l0.029,0.084l0.025,0.084l0.022,0.086l0.017,0.087l0.014,0.087l0.01,0.088l0.006,0.089l0.002,0.088l-0.002,0.089l-0.006,0.088l-0.009,0.088l-0.014,0.087l-0.017,0.087l-0.022,0.086l-0.025,0.085l-0.028,0.083l-0.033,0.083l-0.036,0.081l-0.039,0.079l-0.043,0.077l-0.047,0.075l-0.05,0.074l-0.052,0.071l-0.056,0.068l-0.059,0.066l-0.062,0.063l-0.065,0.061l-0.067,0.058l-0.07,0.054l-0.072,0.052l-0.074,0.048l-0.076,0.045l-0.078,0.041l-0.08,0.038l-0.082,0.035l-0.083,0.03l-0.084,0.027l-0.085,0.024l-0.087,0.019l-0.087,0.016l-0.087,0.012l-0.088,0.007l-0.089,0.004l-0.088,0.001l-0.089,-0.004l-0.088,-0.008l-0.088,-0.012l-0.087,-0.015l-0.086,-0.019l-0.085,-0.024l-0.085,-0.027l-0.083,-0.03l-0.081,-0.034l-0.08,-0.038l-10,-5l-0.079,-0.041l-0.076,-0.045l-0.074,-0.048l-0.072,-0.052l-0.07,-0.054l-0.067,-0.057l-0.065,-0.061l-0.062,-0.063l-0.059,-0.066l-0.056,-0.068l-0.053,-0.071l-0.05,-0.073l-0.047,-0.076l-0.043,-0.077l-0.04,-0.079l-0.036,-0.081l-0.032,-0.082l-0.029,-0.084l-0.025,-0.084l-0.022,-0.086l-0.017,-0.087l-0.014,-0.087l-0.01,-0.088l-0.006,-0.089l-0.002,-0.088l0.002,-0.089l0.006,-0.088l0.009,-0.088l0.014,-0.087l0.017,-0.087l0.022,-0.086l0.025,-0.085l0.028,-0.083l0.033,-0.083l0.036,-0.081l0.039,-0.079l0.043,-0.077l0.047,-0.075l0.05,-0.074l0.052,-0.071l0.056,-0.068l0.059,-0.066l0.062,-0.063l0.065,-0.061l0.067,-0.058l0.07,-0.054l0.072,-0.052l0.074,-0.048l0.076,-0.045l0.078,-0.041l0.08,-0.038l0.082,-0.035l0.083,-0.03l0.084,-0.027l0.085,-0.024l0.087,-0.019l0.087,-0.016l0.087,-0.012l0.088,-0.007l0.089,-0.004l0.088,-0.001l0.089,0.004Z" style="fill:#808080;"/><path d="M29.046,15.001l0.089,0.004l0.088,0.007l0.087,0.012l0.087,0.016l0.087,0.019l0.085,0.024l0.084,0.027l0.083,0.03l0.082,0.035l0.08,0.038l0.078,0.041l0.076,0.045l0.074,0.048l0.072,0.052l0.07,0.054l0.067,0.058l0.065,0.061l0.062,0.063l0.059,0.066l0.056,0.068l0.052,0.071l0.05,0.074l0.047,0.075l0.043,0.077l0.039,0.079l0.036,0.081l0.033,0.083l0.028,0.083l0.025,0.085l0.022,0.086l0.017,0.087l0.014,0.087l0.009,0.088l0.006,0.088l0.002,0.089l-0.002,0.088l-0.006,0.089l-0.01,0.088l-0.014,0.087l-0.017,0.087l-0.022,0.086l-0.025,0.084l-0.029,0.084l-0.032,0.082l-0.036,0.081l-0.04,0.079l-0.043,0.077l-0.047,0.076l-0.05,0.073l-0.053,0.071l-0.056,0.068l-0.059,0.066l-0.062,0.063l-0.065,0.061l-0.067,0.057l-0.07,0.054l-0.072,0.052l-0.074,0.048l-0.076,0.045l-0.079,0.041l-10,5l-0.08,0.038l-0.081,0.034l-0.083,0.03l-0.085,0.027l-0.085,0.024l-0.086,0.019l-0.087,0.015l-0.088,0.012l-0.088,0.008l-0.089,0.004l-0.088,-0.001l-0.089,-0.004l-0.088,-0.007l-0.087,-0.012l-0.087,-0.016l-0.087,-0.019l-0.085,-0.024l-0.084,-0.027l-0.083,-0.03l-0.082,-0.035l-0.08,-0.038l-0.078,-0.041l-0.076,-0.045l-0.074,-0.048l-0.072,-0.052l-0.07,-0.054l-0.067,-0.058l-0.065,-0.061l-0.062,-0.063l-0.059,-0.066l-0.056,-0.068l-0.052,-0.071l-0.05,-0.074l-0.047,-0.075l-0.043,-0.077l-0.039,-0.079l-0.036,-0.081l-0.033,-0.083l-0.028,-0.083l-0.025,-0.085l-0.022,-0.086l-0.017,-0.087l-0.014,-0.087l-0.009,-0.088l-0.006,-0.088l-0.002,-0.089l0.002,-0.088l0.006,-0.089l0.01,-0.088l0.014,-0.087l0.017,-0.087l0.022,-0.086l0.025,-0.084l0.029,-0.084l0.032,-0.082l0.036,-0.081l0.04,-0.079l0.043,-0.077l0.047,-0.076l0.05,-0.073l0.053,-0.071l0.056,-0.068l0.059,-0.066l0.062,-0.063l0.065,-0.061l0.067,-0.057l0.07,-0.054l0.072,-0.052l0.074,-0.048l0.076,-0.045l0.079,-0.041l10,-5l0.08,-0.038l0.081,-0.034l0.083,-0.03l0.085,-0.027l0.085,-0.024l0.086,-0.019l0.087,-0.015l0.088,-0.012l0.088,-0.008l0.089,-0.004l0.088,0.001Z" style="fill:#808080;"/><path d="M3.087,16.004l0.062,0.007l0.062,0.011l0.061,0.016l0.06,0.019l0.058,0.022l0.057,0.027l10,5l0.055,0.029l0.054,0.034l0.051,0.036l0.049,0.04l0.046,0.043l0.043,0.045l0.04,0.048l0.038,0.051l0.034,0.052l0.031,0.055l0.027,0.057l0.023,0.058l0.02,0.06l0.016,0.06l0.012,0.062l0.009,0.062l0.004,0.063l0.001,0.063l-0.004,0.063l-0.007,0.062l-0.011,0.062l-0.016,0.061l-0.019,0.06l-0.022,0.058l-0.027,0.057l-0.029,0.055l-0.034,0.054l-0.036,0.051l-0.04,0.049l-0.043,0.046l-0.045,0.043l-0.048,0.04l-0.051,0.038l-0.052,0.034l-0.055,0.031l-0.057,0.027l-0.058,0.023l-0.06,0.02l-0.06,0.016l-0.062,0.012l-0.062,0.009l-0.063,0.004l-0.063,0.001l-0.063,-0.004l-0.062,-0.007l-0.062,-0.011l-0.061,-0.016l-0.06,-0.019l-0.058,-0.022l-0.057,-0.027l-10,-5l-0.055,-0.029l-0.054,-0.034l-0.051,-0.036l-0.049,-0.04l-0.046,-0.043l-0.043,-0.045l-0.04,-0.048l-0.038,-0.051l-0.034,-0.052l-0.031,-0.055l-0.027,-0.057l-0.023,-0.058l-0.02,-0.06l-0.016,-0.06l-0.012,-0.062l-0.009,-0.062l-0.004,-0.063l-0.001,-0.063l0.004,-0.063l0.007,-0.062l0.011,-0.062l0.016,-0.061l0.019,-0.06l0.022,-0.058l0.027,-0.057l0.029,-0.055l0.034,-0.054l0.036,-0.051l0.04,-0.049l0.043,-0.046l0.045,-0.043l0.048,-0.04l0.051,-0.038l0.052,-0.034l0.055,-0.031l0.057,-0.027l0.058,-0.023l0.06,-0.02l0.06,-0.016l0.062,-0.012l0.062,-0.009l0.063,-0.004l0.063,-0.001l0.063,0.004Z" style="fill:#fff;"/><path d="M29.039,16.001l0.063,0.004l0.062,0.009l0.062,0.012l0.06,0.016l0.06,0.02l0.058,0.023l0.057,0.027l0.055,0.031l0.052,0.034l0.051,0.038l0.048,0.04l0.045,0.043l0.043,0.046l0.04,0.049l0.036,0.051l0.034,0.054l0.029,0.055l0.027,0.057l0.022,0.058l0.019,0.06l0.016,0.061l0.011,0.062l0.007,0.062l0.004,0.063l-0.001,0.063l-0.004,0.063l-0.009,0.062l-0.012,0.062l-0.016,0.06l-0.02,0.06l-0.023,0.058l-0.027,0.057l-0.031,0.055l-0.034,0.052l-0.038,0.051l-0.04,0.048l-0.043,0.045l-0.046,0.043l-0.049,0.04l-0.051,0.036l-0.054,0.034l-0.055,0.029l-10,5l-0.057,0.027l-0.058,0.022l-0.06,0.019l-0.061,0.016l-0.062,0.011l-0.062,0.007l-0.063,0.004l-0.063,-0.001l-0.063,-0.004l-0.062,-0.009l-0.062,-0.012l-0.06,-0.016l-0.06,-0.02l-0.058,-0.023l-0.057,-0.027l-0.055,-0.031l-0.052,-0.034l-0.051,-0.038l-0.048,-0.04l-0.045,-0.043l-0.043,-0.046l-0.04,-0.049l-0.036,-0.051l-0.034,-0.054l-0.029,-0.055l-0.027,-0.057l-0.022,-0.058l-0.019,-0.06l-0.016,-0.061l-0.011,-0.062l-0.007,-0.062l-0.004,-0.063l0.001,-0.063l0.004,-0.063l0.009,-0.062l0.012,-0.062l0.016,-0.06l0.02,-0.06l0.023,-0.058l0.027,-0.057l0.031,-0.055l0.034,-0.052l0.038,-0.051l0.04,-0.048l0.043,-0.045l0.046,-0.043l0.049,-0.04l0.051,-0.036l0.054,-0.034l0.055,-0.029l10,-5l0.057,-0.027l0.058,-0.022l0.06,-0.019l0.061,-0.016l0.062,-0.011l0.062,-0.007l0.063,-0.004l0.063,0.001Z" style="fill:#fff;"/><path d="M16.086,13.973c0.462,0.01 0.92,0.066 1.368,0.178c0.397,0.099 0.78,0.241 1.15,0.416c0.882,0.433 1.762,0.871 2.637,1.318c0.469,0.25 0.91,0.544 1.314,0.889c1.035,0.887 1.798,2.076 2.174,3.386c0.169,0.589 0.254,1.194 0.27,1.806c0.012,1.379 0.017,2.758 0,4.136c-0.017,0.436 -0.092,0.863 -0.242,1.273c-0.39,1.065 -17.124,1.065 -17.514,0c-0.15,-0.41 -0.225,-0.837 -0.242,-1.273c-0.017,-1.378 -0.012,-2.757 0,-4.136c0.016,-0.612 0.101,-1.217 0.27,-1.806c0.376,-1.31 1.139,-2.499 2.174,-3.386c0.404,-0.345 0.845,-0.639 1.314,-0.889c0.875,-0.447 1.755,-0.885 2.637,-1.318c0.37,-0.175 0.753,-0.317 1.15,-0.416c0.448,-0.112 0.906,-0.168 1.368,-0.178c0.086,-0.001 0.086,-0.001 0.172,0Z" style="fill:#808080;fill-rule:nonzero;"/><path d="M23,22.09c0,-1.894 -1.07,-3.625 -2.764,-4.472c-0.823,-0.412 -1.704,-0.852 -2.447,-1.224c-1.126,-0.563 -2.452,-0.563 -3.578,0c-0.743,0.372 -1.624,0.812 -2.447,1.224c-1.694,0.847 -2.764,2.578 -2.764,4.472c0,2.605 0,5.91 0,5.91l14,0c0,0 0,-3.305 0,-5.91Z" style="fill:#fff;"/><path d="M19.048,20.001l0.049,0.004l0.047,0.005l0.048,0.009l0.047,0.01l0.047,0.013l0.046,0.015l0.045,0.017l0.044,0.019l0.044,0.022l0.042,0.023l0.041,0.026l0.04,0.027l0.038,0.029l0.037,0.031l0.036,0.033l0.033,0.035l0.032,0.036l0.031,0.038l0.028,0.039l0.026,0.04l0.025,0.042l0.022,0.043l0.021,0.044l0.018,0.044l0.016,0.046l0.014,0.046l0.011,0.047l0.01,0.048l0.007,0.047l0.004,0.049l0.003,0.048l0,0.048l-0.003,0.048l-0.004,0.049l-0.007,0.047l-0.01,0.048l-0.011,0.047l-0.014,0.046l-0.016,0.046l-0.018,0.044l-0.021,0.044l-0.022,0.043l-0.025,0.042l-0.026,0.04l-0.028,0.039l-0.031,0.038l-0.032,0.036l-0.033,0.035l-0.036,0.033l-0.037,0.031l-0.038,0.029l-0.04,0.027l-0.041,0.026l-0.042,0.023l-0.044,0.022l-0.044,0.019l-0.045,0.017l-0.046,0.015l-0.047,0.013l-0.047,0.01l-0.048,0.009l-0.047,0.005l-0.049,0.004l-0.048,0.001l-6,0l-0.048,-0.001l-0.049,-0.004l-0.047,-0.005l-0.048,-0.009l-0.047,-0.01l-0.047,-0.013l-0.046,-0.015l-0.045,-0.017l-0.044,-0.019l-0.044,-0.022l-0.042,-0.023l-0.041,-0.026l-0.04,-0.027l-0.038,-0.029l-0.037,-0.031l-0.036,-0.033l-0.033,-0.035l-0.032,-0.036l-0.031,-0.038l-0.028,-0.039l-0.026,-0.04l-0.025,-0.042l-0.022,-0.043l-0.021,-0.044l-0.018,-0.044l-0.016,-0.046l-0.014,-0.046l-0.011,-0.047l-0.01,-0.048l-0.007,-0.047l-0.004,-0.049l-0.003,-0.048l0,-0.048l0.003,-0.048l0.004,-0.049l0.007,-0.047l0.01,-0.048l0.011,-0.047l0.014,-0.046l0.016,-0.046l0.018,-0.044l0.021,-0.044l0.022,-0.043l0.025,-0.042l0.026,-0.04l0.028,-0.039l0.031,-0.038l0.032,-0.036l0.033,-0.035l0.036,-0.033l0.037,-0.031l0.038,-0.029l0.04,-0.027l0.041,-0.026l0.042,-0.023l0.044,-0.022l0.044,-0.019l0.045,-0.017l0.046,-0.015l0.047,-0.013l0.047,-0.01l0.048,-0.009l0.047,-0.005l0.049,-0.004l0.048,-0.001l6,0l0.048,0.001Z" style="fill:#ccc;"/><path d="M20.056,23.985l0.056,0.005l0.056,0.007l0.055,0.011l0.054,0.014l0.053,0.017l0.053,0.02l0.051,0.023l0.05,0.026l0.048,0.029l0.047,0.031l0.044,0.033l0.043,0.037l0.041,0.038l0.039,0.041l0.036,0.043l0.034,0.045l0.031,0.046l0.028,0.049l0.026,0.049l0.023,0.052l0.02,0.052l0.017,0.053l0.014,0.055l0.011,0.055l0.008,0.055l0.004,0.056l0.002,0.056l-0.002,0.056l-0.004,0.056l-0.008,0.056l-0.011,0.055l-0.014,0.054l-0.017,0.054l-0.02,0.052l-0.023,0.051l-0.026,0.05l-0.028,0.048l-0.031,0.047l-0.034,0.045l-0.036,0.043l-0.039,0.04l-0.041,0.039l-0.043,0.036l-0.044,0.034l-0.047,0.031l-0.048,0.029l-0.05,0.025l-0.051,0.023l-0.053,0.02l-0.053,0.017l-0.054,0.014l-0.055,0.011l-0.056,0.008l-0.056,0.005l-0.056,0.001l-8,0l-0.056,-0.001l-0.056,-0.005l-0.056,-0.008l-0.055,-0.011l-0.054,-0.014l-0.053,-0.017l-0.053,-0.02l-0.051,-0.023l-0.05,-0.025l-0.048,-0.029l-0.047,-0.031l-0.044,-0.034l-0.043,-0.036l-0.041,-0.039l-0.039,-0.04l-0.036,-0.043l-0.034,-0.045l-0.031,-0.047l-0.028,-0.048l-0.026,-0.05l-0.023,-0.051l-0.02,-0.052l-0.017,-0.054l-0.014,-0.054l-0.011,-0.055l-0.008,-0.056l-0.004,-0.056l-0.002,-0.056l0.002,-0.056l0.004,-0.056l0.008,-0.055l0.011,-0.055l0.014,-0.055l0.017,-0.053l0.02,-0.052l0.023,-0.052l0.026,-0.049l0.028,-0.049l0.031,-0.046l0.034,-0.045l0.036,-0.043l0.039,-0.041l0.041,-0.038l0.043,-0.037l0.044,-0.033l0.047,-0.031l0.048,-0.029l0.05,-0.026l0.051,-0.023l0.053,-0.02l0.053,-0.017l0.054,-0.014l0.055,-0.011l0.056,-0.007l0.056,-0.005l0.056,-0.002l8,0l0.056,0.002Z" style="fill:#ccc;"/></g><path d="M20.026,10l0.034,0.002l0.035,0.003l0.034,0.003l0.034,0.005l0.034,0.007l0.034,0.007l0.033,0.009l0.034,0.009l0.032,0.011l0.033,0.012l0.032,0.013l0.031,0.014l0.031,0.016l0.03,0.016l0.03,0.017l0.03,0.019l0.028,0.019l0.028,0.02l0.027,0.022l0.027,0.022l0.025,0.023l0.025,0.024l3,3l0.024,0.025l0.023,0.025l0.022,0.027l0.022,0.027l0.02,0.028l0.019,0.028l0.019,0.03l0.017,0.03l0.016,0.03l0.016,0.031l0.014,0.031l0.013,0.032l0.012,0.033l0.011,0.032l0.009,0.034l0.009,0.033l0.007,0.034l0.007,0.034l0.005,0.034l0.003,0.034l0.003,0.035l0.002,0.034l0,0.035l-0.001,0.034l-0.002,0.035l-0.003,0.034l-0.005,0.034l-0.005,0.034l-0.007,0.034l-0.008,0.034l-0.009,0.033l-0.011,0.033l-0.011,0.033l-0.012,0.032l-0.014,0.031l-0.015,0.032l-0.016,0.03l-0.016,0.03l-0.018,0.03l-0.019,0.029l-0.02,0.028l-0.021,0.028l-0.022,0.027l-0.022,0.026l-0.024,0.025l-0.024,0.024l-0.025,0.024l-0.026,0.022l-0.027,0.022l-0.028,0.021l-0.028,0.02l-0.029,0.019l-0.03,0.018l-0.03,0.016l-0.03,0.016l-0.032,0.015l-0.031,0.014l-0.032,0.012l-0.033,0.011l-0.033,0.011l-0.033,0.009l-0.034,0.008l-0.034,0.007l-0.034,0.005l-0.034,0.005l-0.034,0.003l-0.035,0.002l-0.034,0.001l-0.035,0l-0.034,-0.002l-0.035,-0.003l-0.034,-0.003l-0.034,-0.005l-0.034,-0.007l-0.034,-0.007l-0.033,-0.009l-0.034,-0.009l-0.032,-0.011l-0.033,-0.012l-0.032,-0.013l-0.031,-0.014l-0.031,-0.016l-0.03,-0.016l-0.03,-0.017l-0.03,-0.019l-0.028,-0.019l-0.028,-0.02l-0.027,-0.022l-0.027,-0.022l-0.025,-0.023l-0.025,-0.024l-3,-3l-0.024,-0.025l-0.023,-0.025l-0.022,-0.027l-0.022,-0.027l-0.02,-0.028l-0.019,-0.028l-0.019,-0.03l-0.017,-0.03l-0.016,-0.03l-0.016,-0.031l-0.014,-0.031l-0.013,-0.032l-0.012,-0.033l-0.011,-0.033l-0.009,-0.033l-0.009,-0.033l-0.007,-0.034l-0.007,-0.034l-0.005,-0.034l-0.003,-0.034l-0.003,-0.035l-0.002,-0.034l0,-0.035l0.001,-0.034l0.002,-0.035l0.003,-0.034l0.005,-0.034l0.005,-0.034l0.007,-0.034l0.008,-0.034l0.009,-0.033l0.011,-0.033l0.011,-0.033l0.012,-0.032l0.014,-0.031l0.015,-0.032l0.016,-0.03l0.016,-0.03l0.018,-0.03l0.019,-0.029l0.02,-0.028l0.021,-0.028l0.022,-0.027l0.022,-0.026l0.024,-0.025l0.024,-0.024l0.025,-0.024l0.026,-0.022l0.027,-0.022l0.028,-0.021l0.028,-0.02l0.029,-0.019l0.03,-0.018l0.03,-0.016l0.03,-0.016l0.032,-0.015l0.031,-0.014l0.032,-0.012l0.033,-0.011l0.033,-0.011l0.033,-0.009l0.034,-0.008l0.034,-0.007l0.034,-0.005l0.034,-0.005l0.034,-0.003l0.035,-0.002l0.034,-0.001l0.035,0Z"/><path d="M12.043,10.001l0.035,0.002l0.034,0.003l0.034,0.005l0.034,0.005l0.034,0.007l0.034,0.008l0.033,0.009l0.033,0.011l0.033,0.011l0.032,0.012l0.031,0.014l0.032,0.015l0.03,0.016l0.03,0.016l0.03,0.018l0.029,0.019l0.028,0.02l0.028,0.021l0.027,0.022l0.026,0.022l0.025,0.024l0.024,0.024l0.024,0.025l0.022,0.026l0.022,0.027l0.021,0.028l0.02,0.028l0.019,0.029l0.018,0.03l0.016,0.03l0.016,0.03l0.015,0.032l0.014,0.031l0.012,0.032l0.011,0.033l0.011,0.033l0.009,0.033l0.008,0.034l0.007,0.034l0.005,0.034l0.005,0.034l0.003,0.034l0.002,0.035l0.001,0.034l0,0.035l-0.002,0.034l-0.003,0.035l-0.003,0.034l-0.005,0.034l-0.007,0.034l-0.007,0.034l-0.009,0.033l-0.009,0.033l-0.011,0.033l-0.012,0.033l-0.013,0.032l-0.014,0.031l-0.016,0.031l-0.016,0.03l-0.017,0.03l-0.019,0.03l-0.019,0.028l-0.02,0.028l-0.022,0.027l-0.022,0.027l-0.023,0.025l-0.024,0.025l-3,3l-0.025,0.024l-0.025,0.023l-0.027,0.022l-0.027,0.022l-0.028,0.02l-0.028,0.019l-0.03,0.019l-0.03,0.017l-0.03,0.016l-0.031,0.016l-0.031,0.014l-0.032,0.013l-0.033,0.012l-0.032,0.011l-0.034,0.009l-0.033,0.009l-0.034,0.007l-0.034,0.007l-0.034,0.005l-0.034,0.003l-0.035,0.003l-0.034,0.002l-0.035,0l-0.034,-0.001l-0.035,-0.002l-0.034,-0.003l-0.034,-0.005l-0.034,-0.005l-0.034,-0.007l-0.034,-0.008l-0.033,-0.009l-0.033,-0.011l-0.033,-0.011l-0.032,-0.012l-0.031,-0.014l-0.032,-0.015l-0.03,-0.016l-0.03,-0.016l-0.03,-0.018l-0.029,-0.019l-0.028,-0.02l-0.028,-0.021l-0.027,-0.022l-0.026,-0.022l-0.025,-0.024l-0.024,-0.024l-0.024,-0.025l-0.022,-0.026l-0.022,-0.027l-0.021,-0.028l-0.02,-0.028l-0.019,-0.029l-0.018,-0.03l-0.016,-0.03l-0.016,-0.03l-0.015,-0.032l-0.014,-0.031l-0.012,-0.032l-0.011,-0.033l-0.011,-0.033l-0.009,-0.033l-0.008,-0.034l-0.007,-0.034l-0.005,-0.034l-0.005,-0.034l-0.003,-0.034l-0.002,-0.035l-0.001,-0.034l0,-0.035l0.002,-0.034l0.003,-0.035l0.003,-0.034l0.005,-0.034l0.007,-0.034l0.007,-0.034l0.009,-0.033l0.009,-0.034l0.011,-0.032l0.012,-0.033l0.013,-0.032l0.014,-0.031l0.016,-0.031l0.016,-0.03l0.017,-0.03l0.019,-0.03l0.019,-0.028l0.02,-0.028l0.022,-0.027l0.022,-0.027l0.023,-0.025l0.024,-0.025l3,-3l0.025,-0.024l0.025,-0.023l0.027,-0.022l0.027,-0.022l0.028,-0.02l0.028,-0.019l0.03,-0.019l0.03,-0.017l0.03,-0.016l0.031,-0.016l0.031,-0.014l0.032,-0.013l0.033,-0.012l0.032,-0.011l0.034,-0.009l0.033,-0.009l0.034,-0.007l0.034,-0.007l0.034,-0.005l0.034,-0.003l0.035,-0.003l0.034,-0.002l0.035,0l0.034,0.001Z"/></g></svg>