<?xml version="1.0" encoding="UTF-8" standalone="no"?><!DOCTYPE svg PUBLIC "-//W3C//DTD SVG 1.1//EN" "http://www.w3.org/Graphics/SVG/1.1/DTD/svg11.dtd"><svg width="100%" height="100%" viewBox="0 0 32 32" version="1.1" xmlns="http://www.w3.org/2000/svg" xmlns:xlink="http://www.w3.org/1999/xlink" xml:space="preserve" style="fill-rule:evenodd;clip-rule:evenodd;stroke-linejoin:round;stroke-miterlimit:1.41421;">
<metadata>
<rdf:RDF xmlns:cc="http://web.resource.org/cc/"
         xmlns:rdf="http://www.w3.org/1999/02/22-rdf-syntax-ns#"
         xmlns:dc = "http://purl.org/dc/elements/1.1/"
         >

     <rdf:Description rdf:about="">
       <dc:title>Mutant Standard emoji v0.2.3</dc:title>
     </rdf:Description>

    <cc:work rdf:about="">
        <cc:license rdf:resource="http://creativecommons.org/licenses/by-nc-sa/4.0/"/>
        <cc:attributionName>Dzuk</cc:attributionName>
        <cc:attributionURL>http://mutant.tech/</cc:attributionURL>
    </cc:work>

</rdf:RDF>
</metadata>
<rect id="grimace" x="0" y="0.008" width="32" height="32" style="fill:none;"/><g id="outline"><path d="M16.174,2.009c0.462,0.009 0.922,0.035 1.381,0.086c1.079,0.12 2.143,0.367 3.165,0.733c1.887,0.676 3.621,1.759 5.056,3.159c1.559,1.52 2.752,3.403 3.461,5.462c0.335,0.973 0.562,1.982 0.676,3.004c0.052,0.459 0.077,0.92 0.086,1.381c0.007,1.105 0.007,2.211 0,3.316c-0.007,0.374 -0.028,0.747 -0.071,1.119c-0.093,0.815 -0.278,1.62 -0.55,2.395c-0.545,1.546 -1.44,2.963 -2.6,4.122c-1.127,1.128 -2.498,2.006 -3.996,2.554c-0.769,0.282 -1.571,0.477 -2.384,0.58c-0.417,0.053 -0.836,0.08 -1.256,0.087c-2.095,0.014 -4.189,0.014 -6.284,0c-0.42,-0.007 -0.839,-0.034 -1.256,-0.087c-0.813,-0.103 -1.615,-0.298 -2.384,-0.58c-1.498,-0.548 -2.869,-1.426 -3.996,-2.554c-1.16,-1.159 -2.055,-2.576 -2.6,-4.122c-0.272,-0.775 -0.457,-1.58 -0.55,-2.395c-0.043,-0.372 -0.064,-0.745 -0.071,-1.119c-0.007,-1.107 -0.007,-2.215 0,-3.322c0.01,-0.535 0.044,-1.069 0.111,-1.6c0.132,-1.035 0.38,-2.054 0.738,-3.033c0.717,-1.959 1.878,-3.747 3.37,-5.204c1.453,-1.419 3.212,-2.516 5.128,-3.191c0.985,-0.347 2.009,-0.582 3.047,-0.701c0.473,-0.054 0.948,-0.08 1.425,-0.09c0.177,-0.001 0.177,-0.001 0.354,0Z" style="fill-rule:nonzero;"/></g><g id="emoj"><path d="M28,16.008c0,-3.182 -1.264,-6.234 -3.515,-8.485c-2.25,-2.25 -5.302,-3.515 -8.485,-3.515c0,0 0,0 0,0c-6.627,0 -12,5.373 -12,12c0,1.01 0,2.019 0,3c0,4.971 4.029,9 9,9c1.962,0 4.038,0 6,0c4.971,0 9,-4.029 9,-9c0,-0.981 0,-1.99 0,-3Z" style="fill:#fbc546;"/><path d="M12,12.508c0,-0.397 -0.158,-0.779 -0.439,-1.06c-0.282,-0.282 -0.663,-0.44 -1.061,-0.44c-0.398,0 -0.779,0.158 -1.061,0.44c-0.281,0.281 -0.439,0.663 -0.439,1.06c0,0.633 0,1.368 0,2c0,0.398 0.158,0.78 0.439,1.061c0.282,0.281 0.663,0.439 1.061,0.439c0.398,0 0.779,-0.158 1.061,-0.439c0.281,-0.281 0.439,-0.663 0.439,-1.061c0,-0.632 0,-1.367 0,-2Z"/><path d="M23,12.508c0,-0.397 -0.158,-0.779 -0.439,-1.06c-0.282,-0.282 -0.663,-0.44 -1.061,-0.44c-0.398,0 -0.779,0.158 -1.061,0.44c-0.281,0.281 -0.439,0.663 -0.439,1.06c0,0.633 0,1.368 0,2c0,0.398 0.158,0.78 0.439,1.061c0.282,0.281 0.663,0.439 1.061,0.439c0.398,0 0.779,-0.158 1.061,-0.439c0.281,-0.281 0.439,-0.663 0.439,-1.061c0,-0.632 0,-1.367 0,-2Z"/><path d="M23,21.008c0,-1.104 -0.895,-2 -2,-2c-2.661,0 -7.339,0 -10,0c-1.105,0 -2,0.896 -2,2c0,1.105 0.895,2 2,2c2.661,0 7.339,0 10,0c1.105,0 2,-0.895 2,-2c0,0 0,0 0,0Z" style="fill:#fff;"/><path d="M21.077,18.009l0.077,0.003l0.076,0.005l0.076,0.007l0.075,0.008l0.075,0.011l0.074,0.012l0.073,0.014l0.074,0.016l0.072,0.018l0.072,0.019l0.071,0.021l0.07,0.023l0.07,0.025l0.068,0.026l0.068,0.027l0.067,0.03l0.066,0.031l0.065,0.032l0.065,0.034l0.063,0.035l0.062,0.037l0.062,0.039l0.06,0.039l0.059,0.041l0.059,0.043l0.057,0.044l0.056,0.045l0.055,0.046l0.054,0.048l0.052,0.049l0.051,0.05l0.05,0.051l0.049,0.053l0.048,0.054l0.047,0.055l0.045,0.055l0.044,0.058l0.042,0.058l0.041,0.059l0.04,0.061l0.038,0.061l0.037,0.062l0.035,0.064l0.034,0.064l0.033,0.065l0.031,0.066l0.029,0.067l0.028,0.068l0.026,0.069l0.024,0.069l0.023,0.07l0.021,0.072l0.02,0.071l0.017,0.073l0.016,0.073l0.014,0.073l0.013,0.075l0.01,0.075l0.009,0.075l0.006,0.075l0.005,0.077l0.003,0.077l0.001,0.076l-0.001,0.077l-0.003,0.077l-0.005,0.076l-0.006,0.076l-0.009,0.075l-0.01,0.075l-0.013,0.074l-0.014,0.074l-0.016,0.073l-0.017,0.073l-0.02,0.071l-0.021,0.071l-0.023,0.07l-0.024,0.07l-0.026,0.068l-0.028,0.068l-0.029,0.068l-0.031,0.066l-0.033,0.065l-0.034,0.064l-0.035,0.063l-0.037,0.063l-0.038,0.061l-0.04,0.06l-0.041,0.06l-0.042,0.058l-0.044,0.057l-0.045,0.056l-0.047,0.055l-0.048,0.054l-0.049,0.052l-0.05,0.052l-0.051,0.05l-0.052,0.049l-0.054,0.047l-0.055,0.047l-0.056,0.045l-0.057,0.044l-0.059,0.042l-0.059,0.042l-0.06,0.039l-0.062,0.038l-0.062,0.037l-0.063,0.036l-0.065,0.034l-0.065,0.032l-0.066,0.031l-0.067,0.029l-0.068,0.028l-0.068,0.026l-0.07,0.025l-0.07,0.022l-0.071,0.022l-0.072,0.019l-0.072,0.018l-0.074,0.016l-0.073,0.014l-0.074,0.012l-0.075,0.01l-0.075,0.009l-0.076,0.007l-0.076,0.005l-0.077,0.002l-0.071,0.001l-10.012,0l-0.071,-0.001l-0.076,-0.002l-0.077,-0.005l-0.076,-0.007l-0.075,-0.009l-0.075,-0.01l-0.074,-0.012l-0.074,-0.014l-0.073,-0.016l-0.072,-0.018l-0.072,-0.019l-0.071,-0.022l-0.07,-0.022l-0.069,-0.025l-0.069,-0.026l-0.068,-0.028l-0.067,-0.029l-0.066,-0.031l-0.065,-0.032l-0.065,-0.034l-0.063,-0.036l-0.062,-0.037l-0.062,-0.038l-0.06,-0.039l-0.059,-0.042l-0.059,-0.042l-0.057,-0.044l-0.056,-0.045l-0.055,-0.046l-0.053,-0.048l-0.053,-0.049l-0.051,-0.05l-0.05,-0.052l-0.05,-0.052l-0.047,-0.054l-0.046,-0.055l-0.046,-0.056l-0.044,-0.057l-0.042,-0.058l-0.041,-0.06l-0.04,-0.06l-0.038,-0.061l-0.037,-0.063l-0.035,-0.063l-0.034,-0.064l-0.033,-0.066l-0.031,-0.066l-0.029,-0.066l-0.028,-0.068l-0.026,-0.069l-0.024,-0.07l-0.023,-0.07l-0.021,-0.071l-0.02,-0.072l-0.017,-0.072l-0.016,-0.073l-0.014,-0.074l-0.013,-0.074l-0.01,-0.075l-0.009,-0.075l-0.006,-0.076l-0.005,-0.076l-0.003,-0.076l-0.001,-0.078l0.001,-0.077l0.003,-0.076l0.005,-0.076l0.006,-0.076l0.009,-0.076l0.01,-0.074l0.013,-0.075l0.014,-0.073l0.016,-0.073l0.017,-0.072l0.02,-0.072l0.021,-0.072l0.023,-0.07l0.024,-0.069l0.026,-0.069l0.028,-0.068l0.029,-0.067l0.031,-0.066l0.033,-0.065l0.034,-0.065l0.035,-0.062l0.037,-0.063l0.038,-0.062l0.04,-0.06l0.041,-0.059l0.042,-0.058l0.044,-0.057l0.046,-0.057l0.046,-0.054l0.047,-0.054l0.05,-0.053l0.05,-0.051l0.051,-0.05l0.053,-0.049l0.053,-0.048l0.055,-0.046l0.056,-0.045l0.057,-0.044l0.059,-0.043l0.059,-0.041l0.06,-0.04l0.062,-0.038l0.062,-0.037l0.063,-0.035l0.065,-0.034l0.065,-0.032l0.066,-0.031l0.067,-0.03l0.068,-0.027l0.069,-0.026l0.069,-0.025l0.07,-0.023l0.071,-0.021l0.072,-0.019l0.072,-0.018l0.073,-0.016l0.074,-0.014l0.074,-0.012l0.075,-0.011l0.075,-0.008l0.076,-0.007l0.077,-0.005l0.076,-0.003l0.071,-0.001l10.012,0l0.071,0.001Zm-10.129,1l-0.051,0.002l-0.051,0.003l-0.05,0.005l-0.051,0.005l-0.05,0.007l-0.049,0.009l-0.049,0.009l-0.049,0.011l-0.048,0.011l-0.048,0.013l-0.047,0.014l-0.046,0.015l-0.047,0.017l-0.045,0.017l-0.045,0.019l-0.045,0.019l-0.044,0.021l-0.044,0.021l-0.042,0.023l-0.043,0.023l-0.041,0.025l-0.041,0.025l-0.04,0.027l-0.04,0.027l-0.039,0.029l-0.038,0.029l-0.037,0.03l-0.037,0.031l-0.036,0.032l-0.035,0.033l-0.034,0.033l-0.034,0.034l-0.032,0.036l-0.032,0.036l-0.031,0.036l-0.03,0.038l-0.03,0.038l-0.028,0.039l-0.027,0.039l-0.027,0.04l-0.025,0.041l-0.025,0.042l-0.024,0.042l-0.022,0.043l-0.022,0.043l-0.02,0.044l-0.02,0.045l-0.018,0.045l-0.018,0.046l-0.016,0.046l-0.015,0.047l-0.014,0.047l-0.013,0.048l-0.012,0.048l-0.01,0.048l-0.01,0.049l-0.008,0.05l-0.007,0.05l-0.006,0.05l-0.004,0.05l-0.003,0.051l-0.002,0.052l-0.001,0.051c0,0 0.001,0.052 0.001,0.052l0.002,0.051l0.003,0.051l0.004,0.051l0.006,0.05l0.007,0.05l0.008,0.049l0.01,0.049l0.01,0.049l0.012,0.048l0.013,0.048l0.014,0.047l0.015,0.047l0.016,0.046l0.018,0.046l0.018,0.045l0.02,0.044l0.02,0.044l0.022,0.044l0.022,0.043l0.024,0.042l0.025,0.041l0.025,0.041l0.027,0.041l0.027,0.039l0.028,0.039l0.03,0.038l0.03,0.038l0.031,0.036l0.032,0.036l0.032,0.035l0.034,0.035l0.034,0.033l0.035,0.033l0.036,0.032l0.037,0.031l0.037,0.03l0.038,0.029l0.039,0.028l0.04,0.028l0.04,0.026l0.041,0.026l0.041,0.024l0.043,0.024l0.042,0.023l0.044,0.021l0.044,0.021l0.045,0.019l0.045,0.019l0.045,0.017l0.047,0.016l0.046,0.015l0.047,0.014l0.048,0.013l0.048,0.012l0.049,0.011l0.049,0.009l0.049,0.008l0.05,0.007l0.051,0.006l0.05,0.005l0.051,0.003l0.051,0.002l0.052,0l10,0l0.052,0l0.051,-0.002l0.051,-0.003l0.05,-0.005l0.051,-0.006l0.05,-0.007l0.049,-0.008l0.049,-0.009l0.049,-0.011l0.048,-0.012l0.048,-0.013l0.047,-0.014l0.046,-0.015l0.047,-0.016l0.045,-0.017l0.045,-0.019l0.045,-0.019l0.044,-0.021l0.044,-0.021l0.042,-0.023l0.043,-0.024l0.041,-0.024l0.041,-0.026l0.04,-0.026l0.04,-0.028l0.039,-0.028l0.038,-0.029l0.037,-0.03l0.037,-0.031l0.036,-0.032l0.035,-0.033l0.034,-0.033l0.034,-0.035l0.032,-0.035l0.032,-0.036l0.031,-0.036l0.03,-0.038l0.03,-0.038l0.028,-0.039l0.027,-0.039l0.027,-0.041l0.025,-0.041l0.025,-0.041l0.024,-0.042l0.022,-0.043l0.022,-0.044l0.02,-0.044l0.02,-0.044l0.018,-0.045l0.018,-0.046l0.016,-0.046l0.015,-0.047l0.014,-0.047l0.013,-0.048l0.012,-0.048l0.01,-0.049l0.01,-0.049l0.008,-0.049l0.007,-0.05l0.006,-0.05l0.004,-0.051l0.003,-0.051l0.002,-0.051l0.001,-0.052l0,0l-0.001,-0.051l-0.002,-0.052l-0.003,-0.051l-0.004,-0.05l-0.006,-0.05l-0.007,-0.05l-0.008,-0.05l-0.01,-0.049l-0.01,-0.048l-0.012,-0.048l-0.013,-0.048l-0.014,-0.047l-0.015,-0.047l-0.016,-0.046l-0.018,-0.046l-0.018,-0.045l-0.02,-0.045l-0.02,-0.044l-0.022,-0.043l-0.022,-0.043l-0.024,-0.042l-0.025,-0.042l-0.025,-0.041l-0.027,-0.04l-0.027,-0.039l-0.028,-0.039l-0.03,-0.038l-0.03,-0.038l-0.031,-0.037l-0.032,-0.035l-0.032,-0.036l-0.034,-0.034l-0.034,-0.033l-0.035,-0.033l-0.036,-0.032l-0.037,-0.031l-0.037,-0.03l-0.038,-0.029l-0.039,-0.029l-0.04,-0.027l-0.04,-0.027l-0.041,-0.025l-0.041,-0.025l-0.043,-0.023l-0.042,-0.023l-0.044,-0.021l-0.044,-0.021l-0.045,-0.019l-0.045,-0.019l-0.045,-0.017l-0.047,-0.017l-0.046,-0.015l-0.047,-0.014l-0.048,-0.013l-0.048,-0.011l-0.049,-0.011l-0.049,-0.009l-0.049,-0.009l-0.05,-0.007l-0.051,-0.005l-0.05,-0.005l-0.051,-0.003l-0.051,-0.002l-0.052,-0.001l-10,0l-0.052,0.001Z"/><rect x="11" y="18.508" width="1" height="5"/><rect x="14" y="18.508" width="1" height="4.994"/><rect x="20" y="18.508" width="1" height="5"/><rect x="17" y="18.508" width="1" height="4.994"/></g></svg>