<?xml version="1.0" encoding="UTF-8" standalone="no"?><!DOCTYPE svg PUBLIC "-//W3C//DTD SVG 1.1//EN" "http://www.w3.org/Graphics/SVG/1.1/DTD/svg11.dtd"><svg width="100%" height="100%" viewBox="0 0 32 32" version="1.1" xmlns="http://www.w3.org/2000/svg" xmlns:xlink="http://www.w3.org/1999/xlink" xml:space="preserve" style="fill-rule:evenodd;clip-rule:evenodd;stroke-linejoin:round;stroke-miterlimit:1.41421;">
<metadata>
<rdf:RDF xmlns:cc="http://web.resource.org/cc/"
         xmlns:rdf="http://www.w3.org/1999/02/22-rdf-syntax-ns#"
         xmlns:dc = "http://purl.org/dc/elements/1.1/"
         >

     <rdf:Description rdf:about="">
       <dc:title>Mutant Standard emoji v0.2.3</dc:title>
     </rdf:Description>

    <cc:work rdf:about="">
        <cc:license rdf:resource="http://creativecommons.org/licenses/by-nc-sa/4.0/"/>
        <cc:attributionName>Dzuk</cc:attributionName>
        <cc:attributionURL>http://mutant.tech/</cc:attributionURL>
    </cc:work>

</rdf:RDF>
</metadata>
<rect id="grin_teeth" x="0" y="0.008" width="32" height="32" style="fill:none;"/><g id="outline"><path d="M16.18,2.009c0.536,0.011 1.069,0.044 1.601,0.112c1.034,0.131 2.053,0.379 3.033,0.737c2.011,0.737 3.842,1.941 5.32,3.491c1.362,1.429 2.418,3.145 3.074,5.007c0.347,0.985 0.582,2.009 0.701,3.047c0.054,0.474 0.081,0.949 0.09,1.425c0.003,0.447 0.003,0.895 0,1.342c-0.008,0.429 -0.032,0.856 -0.079,1.282c-0.112,1.002 -0.341,1.991 -0.681,2.94c-0.7,1.955 -1.873,3.732 -3.395,5.145c-1.324,1.228 -2.903,2.175 -4.61,2.763c-0.903,0.311 -1.841,0.522 -2.79,0.628c-0.426,0.048 -0.854,0.071 -1.283,0.079c-0.774,0.005 -1.548,0.005 -2.322,0c-0.429,-0.008 -0.857,-0.031 -1.283,-0.079c-0.949,-0.106 -1.887,-0.317 -2.79,-0.628c-1.707,-0.588 -3.286,-1.535 -4.61,-2.763c-1.522,-1.413 -2.695,-3.19 -3.395,-5.145c-0.34,-0.949 -0.569,-1.938 -0.681,-2.94c-0.047,-0.426 -0.071,-0.854 -0.079,-1.282c-0.003,-0.448 -0.003,-0.895 0,-1.342c0.009,-0.476 0.036,-0.951 0.09,-1.425c0.119,-1.038 0.354,-2.062 0.701,-3.047c0.693,-1.968 1.833,-3.772 3.308,-5.247c1.435,-1.435 3.18,-2.553 5.086,-3.251c0.98,-0.358 1.999,-0.606 3.033,-0.737c0.532,-0.068 1.065,-0.101 1.601,-0.112c0.18,-0.001 0.18,-0.001 0.36,0Z"/></g><g id="emoji"><path d="M28,16.008c0,-6.627 -5.373,-12 -12,-12c0,0 0,0 0,0c-6.627,0 -12,5.373 -12,12c0,0.334 0,0.668 0,1c0,2.918 1.159,5.716 3.222,7.779c2.063,2.062 4.861,3.221 7.778,3.221c0.665,0 1.335,0 2,0c2.917,0 5.715,-1.159 7.778,-3.221c2.063,-2.063 3.222,-4.861 3.222,-7.779c0,-0.332 0,-0.666 0,-1Z" style="fill:#fbc546;"/><path d="M23.707,13.301l0.028,0.029l0.026,0.03l0.025,0.03l0.024,0.032l0.023,0.033l0.021,0.033l0.02,0.035l0.019,0.035l0.017,0.036l0.016,0.036l0.014,0.037l0.013,0.038l0.011,0.038l0.01,0.039l0.008,0.039l0.007,0.039l0.005,0.039l0.004,0.04l0.002,0.04l0,0.039l-0.001,0.04l-0.003,0.04l-0.004,0.039l-0.006,0.04l-0.008,0.039l-0.009,0.038l-0.01,0.039l-0.012,0.038l-0.014,0.037l-0.015,0.037l-0.016,0.036l-0.018,0.035l-0.02,0.035l-0.02,0.034l-0.022,0.033l-0.024,0.033l-0.024,0.031l-0.026,0.03l-0.027,0.029l-0.028,0.028l-0.029,0.027l-0.031,0.026l-0.031,0.025l-0.032,0.023l-0.033,0.022l-0.034,0.021l-0.035,0.019l-0.035,0.018l-0.037,0.016l-0.036,0.015l-0.038,0.014l-0.038,0.012l-0.038,0.011l-0.039,0.009l-0.039,0.007l-0.039,0.006l-0.04,0.004l-0.039,0.003l-0.04,0.001l-0.04,0l-0.04,-0.002l-0.039,-0.004l-0.04,-0.005l-0.039,-0.006l-0.039,-0.009l-0.038,-0.009l-0.038,-0.012l-0.038,-0.013l-0.037,-0.014l-0.037,-0.016l-0.035,-0.017l-0.036,-0.018l-0.034,-0.02l-0.034,-0.022l-0.032,-0.022l-0.032,-0.024l-0.031,-0.026l-0.029,-0.026l-0.029,-0.028l-1.293,-1.292l-1.293,1.292l-0.029,0.028l-0.029,0.026l-0.031,0.026l-0.032,0.024l-0.032,0.022l-0.034,0.022l-0.034,0.02l-0.036,0.018l-0.035,0.017l-0.037,0.016l-0.037,0.014l-0.038,0.013l-0.038,0.012l-0.038,0.009l-0.039,0.009l-0.039,0.006l-0.04,0.005l-0.039,0.004l-0.04,0.002l-0.04,0l-0.04,-0.001l-0.039,-0.003l-0.04,-0.004l-0.039,-0.006l-0.039,-0.007l-0.039,-0.009l-0.038,-0.011l-0.038,-0.012l-0.038,-0.014l-0.036,-0.015l-0.037,-0.016l-0.035,-0.018l-0.035,-0.019l-0.034,-0.021l-0.033,-0.022l-0.032,-0.023l-0.031,-0.025l-0.031,-0.026l-0.029,-0.027l-0.028,-0.028l-0.027,-0.029l-0.026,-0.03l-0.024,-0.031l-0.024,-0.033l-0.022,-0.033l-0.02,-0.034l-0.02,-0.035l-0.018,-0.035l-0.016,-0.036l-0.015,-0.037l-0.014,-0.037l-0.012,-0.038l-0.01,-0.039l-0.009,-0.038l-0.008,-0.039l-0.006,-0.04l-0.004,-0.039l-0.003,-0.04l-0.001,-0.04l0,-0.039l0.002,-0.04l0.004,-0.04l0.005,-0.039l0.007,-0.039l0.008,-0.039l0.01,-0.039l0.011,-0.038l0.013,-0.038l0.014,-0.037l0.016,-0.036l0.017,-0.036l0.019,-0.035l0.02,-0.035l0.021,-0.033l0.023,-0.033l0.024,-0.032l0.025,-0.03l0.026,-0.03l0.028,-0.029l2.707,-2.707l2.707,2.707Z"/><path d="M13.707,13.301l0.028,0.029l0.026,0.03l0.025,0.03l0.024,0.032l0.023,0.033l0.021,0.033l0.02,0.035l0.019,0.035l0.017,0.036l0.016,0.036l0.014,0.037l0.013,0.038l0.011,0.038l0.01,0.039l0.008,0.039l0.007,0.039l0.005,0.039l0.004,0.04l0.002,0.04l0,0.039l-0.001,0.04l-0.003,0.04l-0.004,0.039l-0.006,0.04l-0.008,0.039l-0.009,0.038l-0.01,0.039l-0.012,0.038l-0.014,0.037l-0.015,0.037l-0.016,0.036l-0.018,0.035l-0.02,0.035l-0.02,0.034l-0.022,0.033l-0.024,0.033l-0.024,0.031l-0.026,0.03l-0.027,0.029l-0.028,0.028l-0.029,0.027l-0.031,0.026l-0.031,0.025l-0.032,0.023l-0.033,0.022l-0.034,0.021l-0.035,0.019l-0.035,0.018l-0.037,0.016l-0.036,0.015l-0.038,0.014l-0.038,0.012l-0.038,0.011l-0.039,0.009l-0.039,0.007l-0.039,0.006l-0.04,0.004l-0.039,0.003l-0.04,0.001l-0.04,0l-0.04,-0.002l-0.039,-0.004l-0.04,-0.005l-0.039,-0.006l-0.039,-0.009l-0.038,-0.009l-0.038,-0.012l-0.038,-0.013l-0.037,-0.014l-0.037,-0.016l-0.035,-0.017l-0.036,-0.018l-0.034,-0.02l-0.034,-0.022l-0.032,-0.022l-0.032,-0.024l-0.031,-0.026l-0.029,-0.026l-0.029,-0.028l-1.293,-1.292l-1.293,1.292l-0.029,0.028l-0.029,0.026l-0.031,0.026l-0.032,0.024l-0.032,0.022l-0.034,0.022l-0.034,0.02l-0.036,0.018l-0.035,0.017l-0.037,0.016l-0.037,0.014l-0.038,0.013l-0.038,0.012l-0.038,0.009l-0.039,0.009l-0.039,0.006l-0.04,0.005l-0.039,0.004l-0.04,0.002l-0.04,0l-0.04,-0.001l-0.039,-0.003l-0.04,-0.004l-0.039,-0.006l-0.039,-0.007l-0.039,-0.009l-0.038,-0.011l-0.038,-0.012l-0.038,-0.014l-0.036,-0.015l-0.037,-0.016l-0.035,-0.018l-0.035,-0.019l-0.034,-0.021l-0.033,-0.022l-0.032,-0.023l-0.031,-0.025l-0.031,-0.026l-0.029,-0.027l-0.028,-0.028l-0.027,-0.029l-0.026,-0.03l-0.024,-0.031l-0.024,-0.033l-0.022,-0.033l-0.02,-0.034l-0.02,-0.035l-0.018,-0.035l-0.016,-0.036l-0.015,-0.037l-0.014,-0.037l-0.012,-0.038l-0.01,-0.039l-0.009,-0.038l-0.008,-0.039l-0.006,-0.04l-0.004,-0.039l-0.003,-0.04l-0.001,-0.04l0,-0.039l0.002,-0.04l0.004,-0.04l0.005,-0.039l0.007,-0.039l0.008,-0.039l0.01,-0.039l0.011,-0.038l0.013,-0.038l0.014,-0.037l0.016,-0.036l0.017,-0.036l0.019,-0.035l0.02,-0.035l0.021,-0.033l0.023,-0.033l0.024,-0.032l0.025,-0.03l0.026,-0.03l0.028,-0.029l2.707,-2.707l2.707,2.707Z"/><path d="M24.933,17.114c-0.045,0.346 -0.106,0.69 -0.188,1.03c-0.179,0.731 -0.449,1.438 -0.804,2.101c-0.603,1.127 -1.448,2.122 -2.461,2.901c-0.86,0.662 -1.84,1.167 -2.879,1.48c-0.912,0.275 -1.866,0.402 -2.817,0.38c-0.842,-0.02 -1.68,-0.158 -2.483,-0.41c-1.035,-0.326 -2.008,-0.841 -2.861,-1.512c-0.898,-0.707 -1.66,-1.584 -2.233,-2.573c-0.428,-0.738 -0.749,-1.538 -0.952,-2.367c-0.091,-0.374 -0.155,-0.753 -0.2,-1.136l17.89,0c-0.004,0.035 -0.008,0.07 -0.012,0.106Z" style="fill-rule:nonzero;"/><path d="M23.748,18.008l-0.021,0.078c-0.217,0.789 -0.545,1.542 -0.987,2.231c-0.907,1.415 -2.259,2.529 -3.824,3.143c-0.719,0.281 -1.478,0.457 -2.247,0.521c-0.818,0.068 -1.646,0.011 -2.447,-0.171c-0.857,-0.195 -1.681,-0.534 -2.428,-0.997c-0.839,-0.52 -1.579,-1.195 -2.175,-1.981c-0.637,-0.841 -1.099,-1.803 -1.367,-2.824l15.496,0Z" style="fill:#fff;"/><g><rect x="17" y="17.508" width="1" height="7"/><rect x="14" y="17.508" width="1" height="7"/><rect x="8" y="17.508" width="1" height="2.492"/><rect x="23" y="17.508" width="1" height="2.492"/><rect x="20" y="17.508" width="1" height="5.492"/><rect x="11" y="17.508" width="1" height="5.492"/></g></g></svg>