<?xml version="1.0" encoding="UTF-8" standalone="no"?><!DOCTYPE svg PUBLIC "-//W3C//DTD SVG 1.1//EN" "http://www.w3.org/Graphics/SVG/1.1/DTD/svg11.dtd"><svg width="100%" height="100%" viewBox="0 0 32 32" version="1.1" xmlns="http://www.w3.org/2000/svg" xmlns:xlink="http://www.w3.org/1999/xlink" xml:space="preserve" style="fill-rule:evenodd;clip-rule:evenodd;stroke-linejoin:round;stroke-miterlimit:1.41421;">
<metadata>
<rdf:RDF xmlns:cc="http://web.resource.org/cc/"
         xmlns:rdf="http://www.w3.org/1999/02/22-rdf-syntax-ns#"
         xmlns:dc = "http://purl.org/dc/elements/1.1/"
         >

     <rdf:Description rdf:about="">
       <dc:title>Mutant Standard emoji v0.2.3</dc:title>
     </rdf:Description>

    <cc:work rdf:about="">
        <cc:license rdf:resource="http://creativecommons.org/licenses/by-nc-sa/4.0/"/>
        <cc:attributionName>Dzuk</cc:attributionName>
        <cc:attributionURL>http://mutant.tech/</cc:attributionURL>
    </cc:work>

</rdf:RDF>
</metadata>
<rect id="halo" x="0" y="0" width="32" height="32" style="fill:none;"/><g id="outline"><path d="M2.961,11.894c-0.512,-0.425 -0.962,-0.927 -1.299,-1.502c-0.296,-0.504 -0.504,-1.059 -0.6,-1.636c-0.083,-0.5 -0.083,-1.012 0,-1.512c0.059,-0.357 0.161,-0.706 0.301,-1.04c0.106,-0.255 0.235,-0.499 0.382,-0.733c0.108,-0.171 0.226,-0.336 0.353,-0.494c0.867,-1.081 2.103,-1.797 3.37,-2.313c0.224,-0.091 0.45,-0.176 0.679,-0.256c0.312,-0.11 0.628,-0.21 0.946,-0.303c0.5,-0.144 1.005,-0.27 1.513,-0.38c2.322,-0.502 4.702,-0.696 7.074,-0.724c0.324,-0.001 0.324,-0.001 0.647,0c2.373,0.028 4.752,0.222 7.075,0.724c0.508,0.11 1.013,0.236 1.512,0.38c0.318,0.093 0.634,0.193 0.947,0.303c0.228,0.08 0.454,0.165 0.678,0.256c1.267,0.516 2.503,1.232 3.37,2.313c0.127,0.158 0.245,0.323 0.354,0.494c0.146,0.234 0.275,0.478 0.381,0.733c0.14,0.334 0.242,0.683 0.301,1.04c0.084,0.5 0.084,1.012 0,1.512c-0.096,0.577 -0.303,1.132 -0.6,1.636c-0.339,0.579 -0.792,1.082 -1.307,1.509c0.049,0.125 0.097,0.252 0.142,0.379c0.366,1.022 0.613,2.086 0.733,3.165c0.052,0.459 0.077,0.919 0.086,1.381c0.005,0.774 0.005,1.549 0,2.323c-0.007,0.396 -0.029,0.79 -0.073,1.184c-0.098,0.876 -0.293,1.741 -0.58,2.575c-0.576,1.67 -1.522,3.207 -2.756,4.471c-1.269,1.301 -2.833,2.306 -4.544,2.918c-0.876,0.314 -1.788,0.525 -2.713,0.629c-0.394,0.044 -0.788,0.066 -1.184,0.073c-1.433,0.009 -2.865,0.009 -4.298,0c-0.396,-0.007 -0.79,-0.029 -1.184,-0.073c-0.876,-0.098 -1.741,-0.293 -2.575,-0.58c-1.717,-0.592 -3.293,-1.576 -4.577,-2.861c-1.25,-1.25 -2.216,-2.775 -2.812,-4.439c-0.314,-0.876 -0.525,-1.788 -0.629,-2.713c-0.044,-0.394 -0.066,-0.788 -0.073,-1.184c-0.005,-0.776 -0.005,-1.553 0,-2.329c0.01,-0.536 0.044,-1.069 0.111,-1.601c0.132,-1.034 0.38,-2.053 0.738,-3.033c0.036,-0.097 0.073,-0.195 0.111,-0.292Z"/></g><g id="emoji"><path d="M3.198,9c-0.022,-0.055 -0.043,-0.111 -0.062,-0.167c-0.089,-0.268 -0.136,-0.55 -0.136,-0.833c0,-0.213 0.026,-0.426 0.078,-0.633c0.034,-0.134 0.077,-0.265 0.13,-0.391c0.379,-0.906 1.192,-1.542 2.032,-1.998c0.141,-0.077 0.285,-0.15 0.43,-0.219c0.182,-0.086 0.366,-0.166 0.551,-0.242c0.261,-0.106 0.526,-0.203 0.793,-0.292c0.356,-0.12 0.717,-0.226 1.081,-0.322c0.552,-0.145 1.111,-0.267 1.673,-0.371c1.954,-0.361 3.942,-0.508 5.927,-0.531c0.309,-0.001 0.309,-0.001 0.617,0c1.986,0.023 3.973,0.17 5.928,0.531c0.561,0.104 1.12,0.226 1.673,0.371c0.363,0.096 0.724,0.202 1.081,0.322c0.267,0.089 0.531,0.186 0.792,0.292c0.186,0.076 0.37,0.156 0.551,0.242c0.145,0.069 0.289,0.142 0.431,0.219c0.839,0.456 1.652,1.092 2.031,1.998c0.053,0.126 0.097,0.257 0.13,0.391c0.052,0.207 0.079,0.42 0.079,0.633c0,0.283 -0.048,0.565 -0.137,0.833c-0.019,0.056 -0.04,0.112 -0.062,0.167l-4.981,0c0.126,-0.04 0.251,-0.082 0.375,-0.125c0.329,-0.116 0.654,-0.246 0.966,-0.402c0.24,-0.12 0.473,-0.255 0.681,-0.424c0.026,-0.022 0.025,-0.021 0.05,-0.043l0.007,-0.006c-0.047,-0.042 -0.096,-0.081 -0.146,-0.119c-0.377,-0.276 -0.812,-0.475 -1.247,-0.641c-0.573,-0.219 -1.163,-0.392 -1.759,-0.534c-0.813,-0.195 -1.638,-0.336 -2.467,-0.443c-1.327,-0.171 -2.662,-0.246 -3.999,-0.262c-0.286,-0.001 -0.285,-0.001 -0.571,0c-1.337,0.016 -2.672,0.091 -3.999,0.262c-0.896,0.115 -1.789,0.271 -2.666,0.491c-0.601,0.152 -1.198,0.332 -1.771,0.571c-0.394,0.164 -0.792,0.355 -1.125,0.626c-0.025,0.022 -0.025,0.021 -0.05,0.043l-0.006,0.006c0.046,0.042 0.095,0.081 0.145,0.119c0.222,0.162 0.463,0.294 0.71,0.412c0.276,0.13 0.56,0.243 0.848,0.344c0.124,0.043 0.249,0.085 0.375,0.125l-4.981,0Z" style="fill:#009ad2;"/><path d="M28,17c0,-3.183 -1.264,-6.235 -3.515,-8.485c-2.25,-2.251 -5.302,-3.515 -8.485,-3.515c0,0 0,0 0,0c-6.627,0 -12,5.373 -12,12c0,0.669 0,1.339 0,2c0,2.652 1.054,5.196 2.929,7.071c1.875,1.875 4.419,2.929 7.071,2.929c1.322,0 2.678,0 4,0c2.652,0 5.196,-1.054 7.071,-2.929c1.875,-1.875 2.929,-4.419 2.929,-7.071c0,-0.661 0,-1.331 0,-2Z" style="fill:#fbc546;"/><path d="M10.102,20.005l0.068,0.01l0.067,0.013l0.066,0.019l0.064,0.023l0.062,0.027l0.061,0.031l0.058,0.036l0.056,0.039l0.053,0.043l0.05,0.047l0.877,0.877l0.057,0.056l0.056,0.054l0.056,0.053l0.057,0.052l0.058,0.052l0.058,0.05l0.059,0.05l0.059,0.049l0.06,0.049l0.06,0.047l0.061,0.047l0.061,0.046l0.062,0.045l0.062,0.045l0.063,0.043l0.064,0.043l0.064,0.042l0.064,0.041l0.065,0.041l0.065,0.039l0.066,0.039l0.066,0.038l0.066,0.037l0.067,0.037l0.068,0.035l0.068,0.035l0.068,0.034l0.069,0.032l0.069,0.033l0.069,0.031l0.07,0.03l0.07,0.03l0.071,0.029l0.07,0.027l0.072,0.027l0.071,0.026l0.072,0.026l0.072,0.024l0.073,0.024l0.072,0.022l0.073,0.022l0.074,0.021l0.073,0.02l0.074,0.019l0.074,0.018l0.075,0.017l0.074,0.016l0.075,0.016l0.075,0.014l0.076,0.014l0.075,0.013l0.076,0.012l0.076,0.01l0.076,0.01l0.076,0.009l0.077,0.008l0.076,0.008l0.077,0.006l0.077,0.005l0.077,0.004l0.077,0.004l0.078,0.002l0.077,0.001l0.078,0.001l0.078,-0.001l0.077,-0.001l0.078,-0.002l0.077,-0.004l0.077,-0.004l0.077,-0.005l0.077,-0.006l0.076,-0.008l0.077,-0.008l0.076,-0.009l0.076,-0.01l0.076,-0.01l0.076,-0.012l0.075,-0.013l0.076,-0.014l0.075,-0.014l0.075,-0.016l0.074,-0.016l0.075,-0.017l0.074,-0.018l0.074,-0.019l0.073,-0.02l0.074,-0.021l0.073,-0.022l0.072,-0.022l0.073,-0.024l0.072,-0.024l0.072,-0.026l0.071,-0.026l0.072,-0.027l0.07,-0.027l0.071,-0.029l0.07,-0.03l0.07,-0.03l0.069,-0.031l0.069,-0.033l0.069,-0.032l0.068,-0.034l0.068,-0.035l0.068,-0.035l0.067,-0.037l0.066,-0.037l0.066,-0.038l0.066,-0.039l0.065,-0.039l0.065,-0.041l0.064,-0.041l0.064,-0.042l0.064,-0.043l0.063,-0.043l0.062,-0.045l0.062,-0.045l0.061,-0.046l0.061,-0.047l0.06,-0.047l0.06,-0.049l0.059,-0.049l0.059,-0.05l0.058,-0.05l0.058,-0.052l0.057,-0.052l0.056,-0.053l0.056,-0.054l0.057,-0.056l0.877,-0.877l0.05,-0.047l0.053,-0.043l0.056,-0.039l0.058,-0.036l0.061,-0.031l0.062,-0.027l0.064,-0.023l0.066,-0.019l0.067,-0.013l0.068,-0.01l0.068,-0.004l0.068,0l0.068,0.004l0.068,0.01l0.067,0.013l0.066,0.019l0.064,0.023l0.062,0.027l0.061,0.031l0.058,0.036l0.056,0.039l0.053,0.043l0.05,0.047l0.047,0.05l0.043,0.053l0.039,0.056l0.036,0.058l0.031,0.061l0.027,0.062l0.023,0.064l0.019,0.066l0.013,0.067l0.01,0.068l0.004,0.068l0,0.068l-0.004,0.068l-0.01,0.068l-0.013,0.067l-0.019,0.066l-0.023,0.064l-0.027,0.062l-0.031,0.061l-0.036,0.058l-0.039,0.056l-0.043,0.053l-0.047,0.05l-0.881,0.881l-0.071,0.07l-0.073,0.071l-0.075,0.07l-0.075,0.069l-0.076,0.068l-0.077,0.067l-0.077,0.066l-0.078,0.064l-0.079,0.064l-0.08,0.063l-0.08,0.062l-0.081,0.061l-0.082,0.059l-0.082,0.059l-0.083,0.058l-0.084,0.056l-0.084,0.056l-0.085,0.054l-0.086,0.054l-0.086,0.052l-0.087,0.051l-0.087,0.05l-0.088,0.049l-0.089,0.048l-0.089,0.047l-0.089,0.046l-0.09,0.044l-0.091,0.044l-0.091,0.042l-0.092,0.041l-0.092,0.041l-0.093,0.039l-0.093,0.038l-0.093,0.036l-0.094,0.036l-0.095,0.034l-0.095,0.034l-0.095,0.032l-0.096,0.031l-0.096,0.03l-0.096,0.028l-0.097,0.028l-0.097,0.026l-0.098,0.025l-0.098,0.024l-0.098,0.023l-0.098,0.022l-0.099,0.02l-0.099,0.019l-0.1,0.018l-0.1,0.017l-0.1,0.016l-0.1,0.014l-0.1,0.013l-0.101,0.012l-0.101,0.011l-0.101,0.009l-0.102,0.008l-0.101,0.007l-0.102,0.006l-0.102,0.004l-0.102,0.003l-0.102,0.002l-0.1,0.001l-0.006,0l-0.1,-0.001l-0.102,-0.002l-0.102,-0.003l-0.102,-0.004l-0.102,-0.006l-0.101,-0.007l-0.102,-0.008l-0.101,-0.009l-0.101,-0.011l-0.101,-0.012l-0.1,-0.013l-0.1,-0.014l-0.1,-0.016l-0.1,-0.017l-0.1,-0.018l-0.099,-0.019l-0.099,-0.02l-0.098,-0.022l-0.098,-0.023l-0.098,-0.024l-0.098,-0.025l-0.097,-0.026l-0.097,-0.028l-0.096,-0.028l-0.096,-0.03l-0.096,-0.031l-0.095,-0.032l-0.095,-0.034l-0.095,-0.034l-0.094,-0.036l-0.093,-0.036l-0.093,-0.038l-0.093,-0.039l-0.092,-0.041l-0.092,-0.041l-0.091,-0.042l-0.091,-0.044l-0.09,-0.044l-0.089,-0.046l-0.089,-0.047l-0.089,-0.048l-0.088,-0.049l-0.087,-0.05l-0.087,-0.051l-0.086,-0.052l-0.086,-0.054l-0.085,-0.054l-0.084,-0.056l-0.084,-0.056l-0.083,-0.058l-0.082,-0.059l-0.082,-0.059l-0.081,-0.061l-0.08,-0.062l-0.08,-0.063l-0.079,-0.064l-0.078,-0.064l-0.077,-0.066l-0.077,-0.067l-0.076,-0.068l-0.075,-0.069l-0.075,-0.07l-0.073,-0.071l-0.071,-0.07l-0.881,-0.881l-0.047,-0.05l-0.043,-0.053l-0.039,-0.056l-0.036,-0.058l-0.031,-0.061l-0.027,-0.062l-0.023,-0.064l-0.019,-0.066l-0.013,-0.067l-0.01,-0.068l-0.004,-0.068l0,-0.068l0.004,-0.068l0.01,-0.068l0.013,-0.067l0.019,-0.066l0.023,-0.064l0.027,-0.062l0.031,-0.061l0.036,-0.058l0.039,-0.056l0.043,-0.053l0.047,-0.05l0.05,-0.047l0.053,-0.043l0.056,-0.039l0.058,-0.036l0.061,-0.031l0.062,-0.027l0.064,-0.023l0.066,-0.019l0.067,-0.013l0.068,-0.01l0.068,-0.004l0.068,0l0.068,0.004Z"/><path d="M23.707,16.293l0.028,0.029l0.026,0.029l0.025,0.031l0.024,0.032l0.023,0.032l0.021,0.034l0.02,0.034l0.019,0.036l0.017,0.035l0.016,0.037l0.014,0.037l0.013,0.038l0.011,0.038l0.01,0.038l0.008,0.039l0.007,0.039l0.005,0.04l0.004,0.039l0.002,0.04l0,0.04l-0.001,0.04l-0.003,0.039l-0.004,0.04l-0.006,0.039l-0.008,0.039l-0.009,0.039l-0.01,0.038l-0.012,0.038l-0.014,0.038l-0.015,0.036l-0.016,0.037l-0.018,0.035l-0.02,0.035l-0.02,0.034l-0.022,0.033l-0.024,0.032l-0.024,0.031l-0.026,0.031l-0.027,0.029l-0.028,0.028l-0.029,0.027l-0.031,0.026l-0.031,0.024l-0.032,0.024l-0.033,0.022l-0.034,0.02l-0.035,0.02l-0.035,0.018l-0.037,0.016l-0.036,0.015l-0.038,0.014l-0.038,0.012l-0.038,0.01l-0.039,0.009l-0.039,0.008l-0.039,0.006l-0.04,0.004l-0.039,0.003l-0.04,0.001l-0.04,0l-0.04,-0.002l-0.039,-0.004l-0.04,-0.005l-0.039,-0.007l-0.039,-0.008l-0.038,-0.01l-0.038,-0.011l-0.038,-0.013l-0.037,-0.014l-0.037,-0.016l-0.035,-0.017l-0.036,-0.019l-0.034,-0.02l-0.034,-0.021l-0.032,-0.023l-0.032,-0.024l-0.031,-0.025l-0.029,-0.026l-0.029,-0.028l-1.293,-1.293l-1.293,1.293l-0.029,0.028l-0.029,0.026l-0.031,0.025l-0.032,0.024l-0.032,0.023l-0.034,0.021l-0.034,0.02l-0.036,0.019l-0.035,0.017l-0.037,0.016l-0.037,0.014l-0.038,0.013l-0.038,0.011l-0.038,0.01l-0.039,0.008l-0.039,0.007l-0.04,0.005l-0.039,0.004l-0.04,0.002l-0.04,0l-0.04,-0.001l-0.039,-0.003l-0.04,-0.004l-0.039,-0.006l-0.039,-0.008l-0.039,-0.009l-0.038,-0.01l-0.038,-0.012l-0.038,-0.014l-0.036,-0.015l-0.037,-0.016l-0.035,-0.018l-0.035,-0.02l-0.034,-0.02l-0.033,-0.022l-0.032,-0.024l-0.031,-0.024l-0.031,-0.026l-0.029,-0.027l-0.028,-0.028l-0.027,-0.029l-0.026,-0.031l-0.024,-0.031l-0.024,-0.032l-0.022,-0.033l-0.02,-0.034l-0.02,-0.035l-0.018,-0.035l-0.016,-0.037l-0.015,-0.036l-0.014,-0.038l-0.012,-0.038l-0.01,-0.038l-0.009,-0.039l-0.008,-0.039l-0.006,-0.039l-0.004,-0.04l-0.003,-0.039l-0.001,-0.04l0,-0.04l0.002,-0.04l0.004,-0.039l0.005,-0.04l0.007,-0.039l0.008,-0.039l0.01,-0.038l0.011,-0.038l0.013,-0.038l0.014,-0.037l0.016,-0.037l0.017,-0.035l0.019,-0.036l0.02,-0.034l0.021,-0.034l0.023,-0.032l0.024,-0.032l0.025,-0.031l0.026,-0.029l0.028,-0.029l2.707,-2.707l2.707,2.707Z"/><path d="M13.707,16.293l0.028,0.029l0.026,0.029l0.025,0.031l0.024,0.032l0.023,0.032l0.021,0.034l0.02,0.034l0.019,0.036l0.017,0.035l0.016,0.037l0.014,0.037l0.013,0.038l0.011,0.038l0.01,0.038l0.008,0.039l0.007,0.039l0.005,0.04l0.004,0.039l0.002,0.04l0,0.04l-0.001,0.04l-0.003,0.039l-0.004,0.04l-0.006,0.039l-0.008,0.039l-0.009,0.039l-0.01,0.038l-0.012,0.038l-0.014,0.038l-0.015,0.036l-0.016,0.037l-0.018,0.035l-0.02,0.035l-0.02,0.034l-0.022,0.033l-0.024,0.032l-0.024,0.031l-0.026,0.031l-0.027,0.029l-0.028,0.028l-0.029,0.027l-0.031,0.026l-0.031,0.024l-0.032,0.024l-0.033,0.022l-0.034,0.02l-0.035,0.02l-0.035,0.018l-0.037,0.016l-0.036,0.015l-0.038,0.014l-0.038,0.012l-0.038,0.01l-0.039,0.009l-0.039,0.008l-0.039,0.006l-0.04,0.004l-0.039,0.003l-0.04,0.001l-0.04,0l-0.04,-0.002l-0.039,-0.004l-0.04,-0.005l-0.039,-0.007l-0.039,-0.008l-0.038,-0.01l-0.038,-0.011l-0.038,-0.013l-0.037,-0.014l-0.037,-0.016l-0.035,-0.017l-0.036,-0.019l-0.034,-0.02l-0.034,-0.021l-0.032,-0.023l-0.032,-0.024l-0.031,-0.025l-0.029,-0.026l-0.029,-0.028l-1.293,-1.293l-1.293,1.293l-0.029,0.028l-0.029,0.026l-0.031,0.025l-0.032,0.024l-0.032,0.023l-0.034,0.021l-0.034,0.02l-0.036,0.019l-0.035,0.017l-0.037,0.016l-0.037,0.014l-0.038,0.013l-0.038,0.011l-0.038,0.01l-0.039,0.008l-0.039,0.007l-0.04,0.005l-0.039,0.004l-0.04,0.002l-0.04,0l-0.04,-0.001l-0.039,-0.003l-0.04,-0.004l-0.039,-0.006l-0.039,-0.008l-0.039,-0.009l-0.038,-0.01l-0.038,-0.012l-0.038,-0.014l-0.036,-0.015l-0.037,-0.016l-0.035,-0.018l-0.035,-0.02l-0.034,-0.02l-0.033,-0.022l-0.032,-0.024l-0.031,-0.024l-0.031,-0.026l-0.029,-0.027l-0.028,-0.028l-0.027,-0.029l-0.026,-0.031l-0.024,-0.031l-0.024,-0.032l-0.022,-0.033l-0.02,-0.034l-0.02,-0.035l-0.018,-0.035l-0.016,-0.037l-0.015,-0.036l-0.014,-0.038l-0.012,-0.038l-0.01,-0.038l-0.009,-0.039l-0.008,-0.039l-0.006,-0.039l-0.004,-0.04l-0.003,-0.039l-0.001,-0.04l0,-0.04l0.002,-0.04l0.004,-0.039l0.005,-0.04l0.007,-0.039l0.008,-0.039l0.01,-0.038l0.011,-0.038l0.013,-0.038l0.014,-0.037l0.016,-0.037l0.017,-0.035l0.019,-0.036l0.02,-0.034l0.021,-0.034l0.023,-0.032l0.024,-0.032l0.025,-0.031l0.026,-0.029l0.028,-0.029l2.707,-2.707l2.707,2.707Z"/><path d="M29.008,8c0,0.283 -0.048,0.565 -0.137,0.833c-0.114,0.342 -0.297,0.658 -0.522,0.938c-0.326,0.407 -0.737,0.737 -1.176,1.014c-0.556,0.351 -1.16,0.621 -1.775,0.848c-0.711,0.262 -1.442,0.466 -2.18,0.634c-1.111,0.253 -2.24,0.424 -3.373,0.541c-1.276,0.132 -2.559,0.192 -3.841,0.192c-1.283,0 -2.566,-0.06 -3.842,-0.192c-1.133,-0.117 -2.262,-0.288 -3.372,-0.541c-0.738,-0.168 -1.47,-0.372 -2.181,-0.634c-0.615,-0.227 -1.219,-0.497 -1.774,-0.848c-0.439,-0.277 -0.851,-0.607 -1.177,-1.014c-0.225,-0.28 -0.407,-0.596 -0.522,-0.938c-0.089,-0.268 -0.136,-0.55 -0.136,-0.833c0,0 3.101,0 3.101,0c0.046,0.042 0.095,0.081 0.145,0.119c0.222,0.162 0.463,0.294 0.71,0.412c0.276,0.13 0.56,0.243 0.848,0.344c0.887,0.311 1.809,0.522 2.734,0.683c1.709,0.299 3.447,0.428 5.18,0.441c1.768,0.014 3.542,-0.092 5.29,-0.364c1.081,-0.169 2.162,-0.397 3.195,-0.76c0.329,-0.116 0.654,-0.246 0.966,-0.402c0.24,-0.12 0.473,-0.255 0.681,-0.424c0.026,-0.022 0.025,-0.021 0.05,-0.043l0.007,-0.006c0,0 3.101,0 3.101,0Z" style="fill:#009ad2;"/></g></svg>