<?xml version="1.0" encoding="UTF-8" standalone="no"?><!DOCTYPE svg PUBLIC "-//W3C//DTD SVG 1.1//EN" "http://www.w3.org/Graphics/SVG/1.1/DTD/svg11.dtd"><svg width="100%" height="100%" viewBox="0 0 32 32" version="1.1" xmlns="http://www.w3.org/2000/svg" xmlns:xlink="http://www.w3.org/1999/xlink" xml:space="preserve" style="fill-rule:evenodd;clip-rule:evenodd;stroke-linejoin:round;stroke-miterlimit:1.41421;">
<metadata>
<rdf:RDF xmlns:cc="http://web.resource.org/cc/"
         xmlns:rdf="http://www.w3.org/1999/02/22-rdf-syntax-ns#"
         xmlns:dc = "http://purl.org/dc/elements/1.1/"
         >

     <rdf:Description rdf:about="">
       <dc:title>Mutant Standard emoji v0.2.3</dc:title>
     </rdf:Description>

    <cc:work rdf:about="">
        <cc:license rdf:resource="http://creativecommons.org/licenses/by-nc-sa/4.0/"/>
        <cc:attributionName>Dzuk</cc:attributionName>
        <cc:attributionURL>http://mutant.tech/</cc:attributionURL>
    </cc:work>

</rdf:RDF>
</metadata>
<rect id="mouth_over_face" x="0" y="0" width="32" height="32" style="fill:none;"/><g id="outline"><path d="M16.174,2.001c0.462,0.009 0.922,0.034 1.381,0.086c1.022,0.114 2.032,0.341 3.004,0.676c1.839,0.634 3.54,1.653 4.965,2.976c1.64,1.521 2.902,3.435 3.656,5.541c0.347,0.968 0.586,1.973 0.713,2.994c0.064,0.515 0.096,1.033 0.106,1.552c0.007,1.105 0.007,2.211 0,3.316c-0.007,0.374 -0.028,0.747 -0.071,1.119c-0.098,0.86 -0.298,1.708 -0.596,2.521c-0.594,1.622 -1.574,3.094 -2.838,4.271c-1.104,1.027 -2.417,1.824 -3.839,2.325c-0.774,0.272 -1.579,0.457 -2.394,0.55c-0.372,0.043 -0.745,0.064 -1.119,0.071c-1.764,0.011 -3.527,0.011 -5.291,0c-0.396,-0.007 -0.79,-0.029 -1.184,-0.073c-0.925,-0.104 -1.837,-0.315 -2.713,-0.629c-1.711,-0.612 -3.275,-1.617 -4.544,-2.918c-1.199,-1.229 -2.128,-2.716 -2.707,-4.333c-0.314,-0.876 -0.526,-1.788 -0.629,-2.713c-0.044,-0.394 -0.066,-0.788 -0.073,-1.184c-0.005,-0.776 -0.005,-1.553 0,-2.329c0.009,-0.477 0.036,-0.952 0.09,-1.425c0.119,-1.038 0.354,-2.062 0.701,-3.047c0.693,-1.969 1.833,-3.772 3.308,-5.248c1.435,-1.434 3.18,-2.552 5.086,-3.25c0.98,-0.358 1.999,-0.606 3.033,-0.738c0.532,-0.067 1.065,-0.101 1.601,-0.111c0.177,-0.001 0.177,-0.001 0.354,0Z" style="fill-rule:nonzero;"/></g><g id="emoji"><path d="M28,16c0,-3.183 -1.264,-6.235 -3.515,-8.485c-2.25,-2.251 -5.302,-3.515 -8.485,-3.515c0,0 0,0 0,0c-6.627,0 -12,5.373 -12,12c0,0.669 0,1.339 0,2c0,2.652 1.054,5.196 2.929,7.071c1.875,1.875 4.419,2.929 7.071,2.929c1.658,0 3.369,0 5,0c4.971,0 9,-4.029 9,-9c0,-0.981 0,-1.99 0,-3Z" style="fill:#fbc546;"/><clipPath id="_clip1"><path d="M28,16c0,-3.183 -1.264,-6.235 -3.515,-8.485c-2.25,-2.251 -5.302,-3.515 -8.485,-3.515c0,0 0,0 0,0c-6.627,0 -12,5.373 -12,12c0,0.669 0,1.339 0,2c0,2.652 1.054,5.196 2.929,7.071c1.875,1.875 4.419,2.929 7.071,2.929c1.658,0 3.369,0 5,0c4.971,0 9,-4.029 9,-9c0,-0.981 0,-1.99 0,-3Z"/></clipPath><g clip-path="url(#_clip1)"><path d="M15,20c0,0 1.888,0 3.343,0c1.061,0 2.078,0.421 2.829,1.172c1.992,1.992 5.828,5.828 5.828,5.828l0,4l-12,0l0,-11Z" style="fill:#e59a10;"/></g><path d="M12,11.5c0,-0.828 -0.672,-1.5 -1.5,-1.5c-0.828,0 -1.5,0.672 -1.5,1.5c0,0.916 0,2.084 0,3c0,0.828 0.672,1.5 1.5,1.5c0.828,0 1.5,-0.672 1.5,-1.5c0,-0.916 0,-2.084 0,-3Z"/><path d="M23,11.5c0,-0.828 -0.672,-1.5 -1.5,-1.5c-0.828,0 -1.5,0.672 -1.5,1.5c0,0.916 0,2.084 0,3c0,0.828 0.672,1.5 1.5,1.5c0.828,0 1.5,-0.672 1.5,-1.5c0,-0.916 0,-2.084 0,-3Z"/><path d="M12,20.172c0.414,-0.414 0.824,-0.833 1.243,-1.242c0.072,-0.067 0.072,-0.066 0.146,-0.132c0.301,-0.253 0.63,-0.467 0.991,-0.627c0.508,-0.225 1.063,-0.343 1.62,-0.343c0.557,0 1.112,0.118 1.621,0.343c0.421,0.187 0.799,0.446 1.136,0.759c0.749,0.731 1.489,1.471 2.22,2.22c0.296,0.319 0.545,0.675 0.728,1.071c0.272,0.584 0.398,1.232 0.367,1.876c-0.025,0.514 -0.149,1.024 -0.366,1.491c-0.184,0.397 -0.433,0.752 -0.73,1.072c-0.934,0.958 -1.891,1.893 -2.837,2.839c-0.139,0.136 -0.281,0.267 -0.431,0.39c-0.342,0.28 -0.714,0.522 -1.108,0.72c-0.789,0.396 -1.664,0.615 -2.546,0.637c-0.885,0.022 -1.771,-0.154 -2.58,-0.512c-0.447,-0.198 -0.87,-0.452 -1.257,-0.753c-0.156,-0.121 -0.303,-0.252 -0.448,-0.386c-0.248,-0.242 -0.493,-0.487 -0.735,-0.734c-0.342,-0.358 -0.644,-0.751 -0.891,-1.181c-0.503,-0.873 -0.78,-1.871 -0.8,-2.878c-0.008,-0.432 0.033,-0.861 0.114,-1.285l1.262,-6.308l0.244,-0.074c1.012,1.012 2.025,2.024 3.037,3.037Z" style="fill-rule:nonzero;"/><path d="M10,21c0,0 -0.307,1.533 -0.58,2.901c-0.262,1.311 0.148,2.667 1.094,3.613c0.181,0.181 0.37,0.37 0.562,0.562c0.751,0.751 1.768,1.172 2.829,1.172c1.061,0 2.078,-0.421 2.828,-1.172c0.949,-0.948 1.965,-1.965 2.758,-2.757c0.781,-0.781 0.781,-2.047 0,-2.828c-0.652,-0.652 -1.425,-1.425 -2.077,-2.077c-0.375,-0.375 -0.884,-0.586 -1.414,-0.586c-0.53,0 -1.039,0.211 -1.414,0.586c-1.151,1.151 -2.586,2.586 -2.586,2.586l-2,-2Z" style="fill:#fbc546;"/></g></svg>