<?xml version="1.0" encoding="UTF-8" standalone="no"?><!DOCTYPE svg PUBLIC "-//W3C//DTD SVG 1.1//EN" "http://www.w3.org/Graphics/SVG/1.1/DTD/svg11.dtd"><svg width="100%" height="100%" viewBox="0 0 32 32" version="1.1" xmlns="http://www.w3.org/2000/svg" xmlns:xlink="http://www.w3.org/1999/xlink" xml:space="preserve" style="fill-rule:evenodd;clip-rule:evenodd;stroke-linejoin:round;stroke-miterlimit:1.41421;">
<metadata>
<rdf:RDF xmlns:cc="http://web.resource.org/cc/"
         xmlns:rdf="http://www.w3.org/1999/02/22-rdf-syntax-ns#"
         xmlns:dc = "http://purl.org/dc/elements/1.1/"
         >

     <rdf:Description rdf:about="">
       <dc:title>Mutant Standard emoji v0.2.3</dc:title>
     </rdf:Description>

    <cc:work rdf:about="">
        <cc:license rdf:resource="http://creativecommons.org/licenses/by-nc-sa/4.0/"/>
        <cc:attributionName>Dzuk</cc:attributionName>
        <cc:attributionURL>http://mutant.tech/</cc:attributionURL>
    </cc:work>

</rdf:RDF>
</metadata>
<rect id="infatuated" x="0" y="0" width="32" height="32" style="fill:none;"/><g id="outline"><path d="M16.174,2.001c0.462,0.009 0.922,0.034 1.381,0.086c1.022,0.114 2.032,0.341 3.004,0.676c1.784,0.615 3.439,1.592 4.838,2.859c1.701,1.54 3.009,3.497 3.783,5.658c0.366,1.022 0.613,2.086 0.733,3.165c0.052,0.459 0.077,0.919 0.086,1.381c0.007,1.105 0.007,2.211 0,3.316c-0.007,0.374 -0.028,0.747 -0.071,1.119c-0.098,0.86 -0.298,1.708 -0.596,2.521c-0.533,1.456 -1.378,2.793 -2.461,3.902c-1.176,1.205 -2.627,2.134 -4.216,2.694c-0.774,0.272 -1.579,0.457 -2.394,0.55c-0.372,0.043 -0.745,0.064 -1.119,0.071c-2.095,0.013 -4.189,0.013 -6.284,0c-0.374,-0.007 -0.747,-0.028 -1.119,-0.071c-0.815,-0.093 -1.62,-0.278 -2.394,-0.55c-1.589,-0.56 -3.04,-1.489 -4.216,-2.694c-1.083,-1.109 -1.928,-2.446 -2.461,-3.902c-0.298,-0.813 -0.498,-1.661 -0.596,-2.521c-0.043,-0.372 -0.064,-0.745 -0.071,-1.119c-0.007,-1.108 -0.007,-2.215 0,-3.322c0.009,-0.477 0.036,-0.952 0.09,-1.425c0.119,-1.038 0.354,-2.062 0.701,-3.047c0.675,-1.916 1.772,-3.675 3.191,-5.128c1.457,-1.492 3.245,-2.653 5.203,-3.37c1.035,-0.379 2.114,-0.634 3.209,-0.759c0.473,-0.054 0.948,-0.081 1.425,-0.09c0.177,-0.001 0.177,-0.001 0.354,0Z"/></g><g id="emoji"><path d="M28,16c0,-3.183 -1.264,-6.235 -3.515,-8.485c-2.25,-2.251 -5.302,-3.515 -8.485,-3.515c0,0 0,0 0,0c-6.627,0 -12,5.373 -12,12c0,1.01 0,2.019 0,3c0,4.971 4.029,9 9,9c1.962,0 4.038,0 6,0c4.971,0 9,-4.029 9,-9c0,-0.981 0,-1.99 0,-3Z" style="fill:#fbc546;"/><path d="M22.034,19.001l0.068,0.004l0.068,0.01l0.067,0.013l0.066,0.019l0.064,0.023l0.062,0.027l0.061,0.031l0.058,0.036l0.056,0.039l0.053,0.043l0.05,0.047l0.047,0.05l0.043,0.053l0.039,0.056l0.036,0.058l0.031,0.061l0.027,0.062l0.023,0.064l0.019,0.066l0.013,0.067l0.01,0.068l0.004,0.068l0,0.068l-0.004,0.068l-0.01,0.068l-0.013,0.067l-0.019,0.066l-0.023,0.064l-0.027,0.062l-0.031,0.061l-0.036,0.058l-0.039,0.056l-0.043,0.053l-0.047,0.05l-1.972,1.972l-0.041,0.04l-0.046,0.043l-0.047,0.041l-0.047,0.04l-0.049,0.039l-0.05,0.037l-0.05,0.036l-0.051,0.034l-0.051,0.034l-0.053,0.031l-0.052,0.031l-0.054,0.029l-0.054,0.027l-0.054,0.026l-0.056,0.025l-0.055,0.023l-0.056,0.022l-0.056,0.021l-0.057,0.019l-0.057,0.017l-0.057,0.016l-0.057,0.015l-0.058,0.014l-0.058,0.011l-0.058,0.011l-0.059,0.009l-0.058,0.008l-0.059,0.006l-0.059,0.005l-0.058,0.004l-0.059,0.002l-0.059,0l-0.059,0l-0.059,-0.002l-0.058,-0.004l-0.059,-0.005l-0.059,-0.006l-0.058,-0.008l-0.059,-0.009l-0.058,-0.011l-0.058,-0.011l-0.058,-0.014l-0.057,-0.015l-0.057,-0.016l-0.057,-0.017l-0.057,-0.019l-0.056,-0.021l-0.056,-0.022l-0.055,-0.023l-0.056,-0.025l-0.054,-0.026l-0.054,-0.027l-0.054,-0.029l-0.052,-0.031l-0.053,-0.031l-0.051,-0.034l-0.051,-0.034l-0.05,-0.036l-0.05,-0.037l-0.049,-0.039l-0.047,-0.04l-0.047,-0.041l-0.046,-0.043l-0.041,-0.04l-0.936,-0.935l-0.013,-0.013l-0.009,-0.008l-0.009,-0.008l-0.009,-0.008l-0.009,-0.007l-0.009,-0.007l-0.009,-0.007l-0.01,-0.006l-0.009,-0.006l-0.01,-0.006l-0.01,-0.006l-0.009,-0.005l-0.01,-0.005l-0.01,-0.005l-0.01,-0.004l-0.011,-0.005l-0.01,-0.004l-0.01,-0.003l-0.011,-0.004l-0.01,-0.003l-0.011,-0.003l-0.011,-0.003l-0.01,-0.003l-0.011,-0.002l-0.011,-0.002l-0.011,-0.001l-0.011,-0.002l-0.011,-0.001l-0.012,-0.001l-0.011,-0.001l-0.011,0l-0.011,0l-0.011,0l-0.011,0l-0.011,0.001l-0.012,0.001l-0.011,0.001l-0.011,0.002l-0.011,0.001l-0.011,0.002l-0.011,0.002l-0.01,0.003l-0.011,0.003l-0.011,0.003l-0.01,0.003l-0.011,0.004l-0.01,0.003l-0.01,0.004l-0.011,0.005l-0.01,0.004l-0.01,0.005l-0.01,0.005l-0.009,0.005l-0.01,0.006l-0.01,0.006l-0.009,0.006l-0.01,0.006l-0.009,0.007l-0.009,0.007l-0.009,0.007l-0.009,0.008l-0.009,0.008l-0.009,0.008l-0.013,0.013l-0.936,0.935l-0.041,0.04l-0.046,0.043l-0.047,0.041l-0.047,0.04l-0.049,0.039l-0.05,0.037l-0.05,0.036l-0.051,0.034l-0.051,0.034l-0.053,0.031l-0.052,0.031l-0.054,0.029l-0.054,0.027l-0.054,0.026l-0.056,0.025l-0.055,0.023l-0.056,0.022l-0.056,0.021l-0.057,0.019l-0.057,0.017l-0.057,0.016l-0.057,0.015l-0.058,0.014l-0.058,0.011l-0.058,0.011l-0.059,0.009l-0.058,0.008l-0.059,0.006l-0.059,0.005l-0.058,0.004l-0.059,0.002l-0.059,0l-0.059,0l-0.059,-0.002l-0.058,-0.004l-0.059,-0.005l-0.059,-0.006l-0.058,-0.008l-0.059,-0.009l-0.058,-0.011l-0.058,-0.011l-0.058,-0.014l-0.057,-0.015l-0.057,-0.016l-0.057,-0.017l-0.057,-0.019l-0.056,-0.021l-0.056,-0.022l-0.055,-0.023l-0.056,-0.025l-0.054,-0.026l-0.054,-0.027l-0.054,-0.029l-0.052,-0.031l-0.053,-0.031l-0.051,-0.034l-0.051,-0.034l-0.05,-0.036l-0.05,-0.037l-0.049,-0.039l-0.047,-0.04l-0.047,-0.041l-0.046,-0.043l-0.041,-0.04l-1.972,-1.972l-0.047,-0.05l-0.043,-0.053l-0.039,-0.056l-0.036,-0.058l-0.031,-0.061l-0.027,-0.062l-0.023,-0.064l-0.019,-0.066l-0.013,-0.067l-0.01,-0.068l-0.004,-0.068l0,-0.068l0.004,-0.068l0.01,-0.068l0.013,-0.067l0.019,-0.066l0.023,-0.064l0.027,-0.062l0.031,-0.061l0.036,-0.058l0.039,-0.056l0.043,-0.053l0.047,-0.05l0.05,-0.047l0.053,-0.043l0.056,-0.039l0.058,-0.036l0.061,-0.031l0.062,-0.027l0.064,-0.023l0.066,-0.019l0.067,-0.013l0.068,-0.01l0.068,-0.004l0.068,0l0.068,0.004l0.068,0.01l0.067,0.013l0.066,0.019l0.064,0.023l0.062,0.027l0.061,0.031l0.058,0.036l0.056,0.039l0.053,0.043l0.05,0.047l1.964,1.963l0.013,0.013l0.009,0.008l0.009,0.008l0.009,0.008l0.009,0.007l0.009,0.007l0.009,0.007l0.01,0.006l0.009,0.006l0.01,0.006l0.01,0.006l0.009,0.005l0.01,0.005l0.01,0.005l0.01,0.004l0.011,0.005l0.01,0.004l0.01,0.003l0.011,0.004l0.01,0.003l0.011,0.003l0.011,0.003l0.01,0.003l0.011,0.002l0.011,0.002l0.011,0.001l0.011,0.002l0.011,0.001l0.011,0.001l0.012,0.001l0.011,0l0.011,0l0.011,0l0.011,0l0.012,-0.001l0.011,-0.001l0.011,-0.001l0.011,-0.002l0.011,-0.001l0.011,-0.002l0.011,-0.002l0.01,-0.003l0.011,-0.003l0.011,-0.003l0.01,-0.003l0.011,-0.004l0.01,-0.003l0.01,-0.004l0.011,-0.005l0.01,-0.004l0.01,-0.005l0.01,-0.005l0.009,-0.005l0.01,-0.006l0.01,-0.006l0.009,-0.006l0.01,-0.006l0.009,-0.007l0.009,-0.007l0.009,-0.007l0.009,-0.008l0.009,-0.008l0.009,-0.008l0.013,-0.013l0.936,-0.935l0.041,-0.04l0.046,-0.043l0.047,-0.041l0.047,-0.04l0.049,-0.039l0.05,-0.037l0.05,-0.036l0.051,-0.034l0.051,-0.034l0.053,-0.031l0.052,-0.031l0.054,-0.029l0.054,-0.027l0.054,-0.026l0.055,-0.025l0.056,-0.023l0.056,-0.022l0.056,-0.021l0.057,-0.019l0.057,-0.017l0.057,-0.016l0.057,-0.015l0.058,-0.014l0.058,-0.011l0.058,-0.011l0.059,-0.009l0.058,-0.008l0.059,-0.006l0.058,-0.005l0.059,-0.004l0.059,-0.002l0.059,0l0.059,0l0.059,0.002l0.059,0.004l0.058,0.005l0.059,0.006l0.058,0.008l0.059,0.009l0.058,0.011l0.058,0.011l0.058,0.014l0.057,0.015l0.057,0.016l0.057,0.017l0.057,0.019l0.056,0.021l0.056,0.022l0.056,0.023l0.055,0.025l0.054,0.026l0.054,0.027l0.054,0.029l0.052,0.031l0.053,0.031l0.051,0.034l0.051,0.034l0.05,0.036l0.05,0.037l0.049,0.039l0.047,0.04l0.047,0.041l0.046,0.043l0.041,0.04l0.936,0.935l0.013,0.013l0.009,0.008l0.009,0.008l0.009,0.008l0.009,0.007l0.009,0.007l0.009,0.007l0.01,0.006l0.009,0.006l0.01,0.006l0.01,0.006l0.009,0.005l0.01,0.005l0.01,0.005l0.01,0.004l0.011,0.005l0.01,0.004l0.01,0.003l0.011,0.004l0.01,0.003l0.011,0.003l0.011,0.003l0.01,0.003l0.011,0.002l0.011,0.002l0.011,0.001l0.011,0.002l0.011,0.001l0.011,0.001l0.012,0.001l0.011,0l0.011,0l0.011,0l0.011,0l0.012,-0.001l0.011,-0.001l0.011,-0.001l0.011,-0.002l0.011,-0.001l0.011,-0.002l0.011,-0.002l0.01,-0.003l0.011,-0.003l0.011,-0.003l0.01,-0.003l0.011,-0.004l0.01,-0.003l0.01,-0.004l0.011,-0.005l0.01,-0.004l0.01,-0.005l0.01,-0.005l0.009,-0.005l0.01,-0.006l0.01,-0.006l0.009,-0.006l0.01,-0.006l0.009,-0.007l0.009,-0.007l0.009,-0.007l0.009,-0.008l0.009,-0.008l0.009,-0.008l0.013,-0.013l1.964,-1.963l0.05,-0.047l0.053,-0.043l0.056,-0.039l0.058,-0.036l0.061,-0.031l0.062,-0.027l0.064,-0.023l0.066,-0.019l0.067,-0.013l0.068,-0.01l0.068,-0.004l0.068,0Z"/><path d="M10.5,18c0,0 -2.366,-2.381 -3.984,-4.01c-0.819,-0.825 -0.819,-2.155 0,-2.98c0,0 0.001,-0.001 0.001,-0.001c0.397,-0.4 0.937,-0.625 1.501,-0.626c0.563,-0.001 1.104,0.223 1.502,0.621c0.523,0.522 0.98,0.98 0.98,0.98c0,0 0.466,-0.463 0.994,-0.988c0.825,-0.819 2.156,-0.82 2.982,-0.003c0.001,0.001 0.002,0.002 0.003,0.003c0.403,0.398 0.63,0.94 0.631,1.507c0.002,0.566 -0.222,1.11 -0.623,1.51c-1.628,1.628 -3.987,3.987 -3.987,3.987Z" style="fill:#d92020;"/><path d="M21.464,18c0,0 -2.366,-2.381 -3.984,-4.01c-0.819,-0.825 -0.819,-2.155 0,-2.98c0,0 0.001,-0.001 0.001,-0.001c0.397,-0.4 0.937,-0.625 1.501,-0.626c0.563,-0.001 1.104,0.223 1.502,0.621c0.522,0.522 0.98,0.98 0.98,0.98c0,0 0.466,-0.463 0.994,-0.988c0.825,-0.819 2.156,-0.82 2.982,-0.003c0.001,0.001 0.002,0.002 0.003,0.003c0.402,0.398 0.63,0.94 0.631,1.507c0.002,0.566 -0.223,1.11 -0.623,1.51c-1.628,1.628 -3.987,3.987 -3.987,3.987Z" style="fill:#d92020;"/></g></svg>