<?xml version="1.0" encoding="UTF-8" standalone="no"?><!DOCTYPE svg PUBLIC "-//W3C//DTD SVG 1.1//EN" "http://www.w3.org/Graphics/SVG/1.1/DTD/svg11.dtd"><svg width="100%" height="100%" viewBox="0 0 32 32" version="1.1" xmlns="http://www.w3.org/2000/svg" xmlns:xlink="http://www.w3.org/1999/xlink" xml:space="preserve" xmlns:serif="http://www.serif.com/" style="fill-rule:evenodd;clip-rule:evenodd;stroke-linejoin:round;stroke-miterlimit:1.41421;">
<metadata>
<rdf:RDF xmlns:cc="http://web.resource.org/cc/"
         xmlns:rdf="http://www.w3.org/1999/02/22-rdf-syntax-ns#"
         xmlns:dc = "http://purl.org/dc/elements/1.1/"
         >

     <rdf:Description rdf:about="">
       <dc:title>Mutant Standard emoji v0.2.3</dc:title>
     </rdf:Description>

    <cc:work rdf:about="">
        <cc:license rdf:resource="http://creativecommons.org/licenses/by-nc-sa/4.0/"/>
        <cc:attributionName>Dzuk</cc:attributionName>
        <cc:attributionURL>http://mutant.tech/</cc:attributionURL>
    </cc:work>

</rdf:RDF>
</metadata>
<rect id="hot_shit" x="0" y="0.017" width="32" height="32" style="fill:none;"/><clipPath id="_clip1"><rect x="0" y="0.017" width="32" height="32"/></clipPath><g clip-path="url(#_clip1)"><g id="outline"><path d="M25.1,5.017c0.066,-0.325 0.164,-0.643 0.293,-0.948c0.282,-0.666 0.709,-1.268 1.244,-1.754c0.507,-0.461 1.109,-0.816 1.758,-1.035c0.355,-0.12 0.722,-0.2 1.094,-0.238c0.165,-0.017 0.331,-0.023 0.496,-0.025l2.015,0c0,1.909 0,3.819 0,5.729c-0.002,0.165 -0.009,0.33 -0.026,0.495c-0.041,0.413 -0.135,0.821 -0.278,1.21c-0.21,0.574 -0.526,1.106 -0.926,1.566l0.23,0l0,7.425c-0.003,0.213 -0.011,0.426 -0.032,0.638c-0.048,0.482 -0.149,0.959 -0.301,1.419c-0.216,0.652 -0.535,1.268 -0.94,1.822c0.235,0.301 0.442,0.623 0.616,0.963c0.246,0.481 0.427,0.996 0.535,1.526c0.232,1.134 0.13,2.33 -0.295,3.407c-0.266,0.674 -0.655,1.298 -1.142,1.835c-0.518,0.569 -1.145,1.038 -1.839,1.372c-0.533,0.257 -1.105,0.434 -1.691,0.524c-0.251,0.038 -0.503,0.057 -0.757,0.067c-6.055,0.077 -12.111,0.002 -18.167,0.002c-0.25,-0.003 -0.5,-0.017 -0.749,-0.048c-0.541,-0.069 -1.072,-0.212 -1.574,-0.424c-0.844,-0.357 -1.601,-0.909 -2.2,-1.601c-0.54,-0.623 -0.949,-1.357 -1.194,-2.144c-0.179,-0.576 -0.27,-1.179 -0.27,-1.783c0,-0.688 0.119,-1.376 0.351,-2.023c0.248,-0.692 0.623,-1.337 1.103,-1.893c0.441,-0.512 0.969,-0.948 1.554,-1.285c-0.01,-0.193 -0.011,-0.387 -0.001,-0.581c0.03,-0.594 0.157,-1.182 0.375,-1.735c0.244,-0.618 0.6,-1.19 1.047,-1.682c0.446,-0.491 0.981,-0.9 1.572,-1.202c-0.003,-0.127 0,-0.254 0.006,-0.381c0.03,-0.594 0.157,-1.182 0.375,-1.735c0.244,-0.618 0.6,-1.19 1.047,-1.682c0.475,-0.522 1.05,-0.952 1.685,-1.258c0.283,-0.136 0.578,-0.248 0.88,-0.334c0.002,-0.736 0.006,-1.473 0.006,-2.209c0.004,-0.226 0.037,-0.447 0.112,-0.661c0.191,-0.545 0.619,-0.99 1.157,-1.201c0.211,-0.083 0.431,-0.124 0.656,-0.137c0.903,-0.017 1.806,-0.011 2.708,0c0.104,0.004 0.207,0.01 0.309,0.018c0.25,-0.306 0.52,-0.595 0.81,-0.863c0.851,-0.79 1.861,-1.404 2.954,-1.795c0.628,-0.225 1.282,-0.377 1.946,-0.451c0.282,-0.032 0.565,-0.047 0.849,-0.053l0.101,0l2.398,0l0,3.143l0.1,0Z"/></g><g id="emoji"><path d="M30,3.017c0,0 -0.001,0 -0.002,0c-1.656,0 -2.998,1.342 -2.998,2.998c0,1.789 0,3.716 0,3.716c0,0 0.001,0 0.002,0c1.656,0 2.998,-1.342 2.998,-2.998c0,-1.789 0,-3.716 0,-3.716Z" style="fill:#f08c00;"/><path d="M21,11.716c-1.233,1.199 -2.886,1.872 -4.608,1.872c-0.247,0 -0.392,0 -0.392,0c0,0 0,-1.384 0,-3.106c0,-1.753 0.696,-3.434 1.935,-4.673c1.24,-1.239 2.92,-1.935 4.673,-1.935c0.247,0 0.392,0 0.392,0c0,0 0,1.383 0,3.106c0,0.073 -0.001,0.146 -0.004,0.219c0.329,-0.12 0.679,-0.182 1.036,-0.182l1.968,0l0,5.283c0.503,-0.186 1.04,-0.283 1.587,-0.283l1.413,0l0,5.412c0,1.217 -0.483,2.384 -1.344,3.244c-0.86,0.86 -2.027,1.344 -3.243,1.344l-1.413,0l0,-4.786l-0.013,0l-0.019,0l-1.968,0l0,-5.515Z" style="fill:#f08c00;"/><path d="M22,7.017l0,3.968c0,0.072 -0.003,0.144 -0.007,0.214c0.324,-0.118 0.674,-0.182 1.039,-0.182l0.968,0l0,3.18c0.322,-0.117 0.669,-0.18 1.032,-0.18c1.049,0 1.968,0 1.968,0c0,0 0,2.077 0,3.968c0,1.674 -1.357,3.032 -3.032,3.032c-1.049,0 -1.968,0 -1.968,0l0,-2.18c-0.322,0.116 -0.669,0.18 -1.032,0.18l-0.968,0c0,0 0,-2.705 0,-4.969c0,-0.072 0.003,-0.143 0.007,-0.214c-0.324,0.118 -0.674,0.183 -1.039,0.183c-0.558,0 -0.968,0 -0.968,0c0,0 0,-2.077 0,-3.969c0,-1.674 1.357,-3.031 3.032,-3.031l0.968,0Z" style="fill:#ffbf36;"/><path d="M13,11.017l0,-4c0,0 1.179,0 2.492,0c1.937,0 3.508,1.57 3.508,3.508l0,0.492l0.5,0c1.933,0 3.5,1.567 3.5,3.5c0,0 0,0 0,0c0,0.538 -0.121,1.048 -0.339,1.503c1.858,0.085 3.339,1.618 3.339,3.497c0,0 0,0 0,0c0,0.557 -0.13,1.083 -0.361,1.55c1.905,0.306 3.361,1.958 3.361,3.95c0,0 0,0 0,0c0,2.209 -1.791,4 -4,4c-4.889,0 -13.111,0 -18,0c-2.209,0 -4,-1.791 -4,-4c0,0 0,0 0,0c0,-1.061 0.421,-2.079 1.172,-2.829c0.598,-0.598 1.365,-0.987 2.19,-1.12c-0.232,-0.468 -0.362,-0.994 -0.362,-1.551c0,-1.879 1.481,-3.412 3.339,-3.497c-0.218,-0.455 -0.339,-0.965 -0.339,-1.503c0,-1.933 1.567,-3.5 3.5,-3.5l0.5,0Z" style="fill:#ad783f;"/><path d="M14,17.515c0,-0.663 -0.263,-1.298 -0.732,-1.767c-0.468,-0.468 -1.103,-0.731 -1.766,-0.731c-0.001,0 -0.003,0 -0.004,0c-0.663,0 -1.298,0.263 -1.766,0.731c-0.469,0.469 -0.732,1.104 -0.732,1.767c0,0.331 0,0.67 0,1.002c0,0.663 0.263,1.299 0.732,1.767c0.469,0.469 1.105,0.733 1.768,0.733c0.663,0 1.299,-0.264 1.768,-0.733c0.469,-0.468 0.732,-1.104 0.732,-1.767c0,-0.332 0,-0.671 0,-1.002Z" style="fill:#fff;"/><clipPath id="_clip2"><path d="M14,17.515c0,-0.663 -0.263,-1.298 -0.732,-1.767c-0.468,-0.468 -1.103,-0.731 -1.766,-0.731c-0.001,0 -0.003,0 -0.004,0c-0.663,0 -1.298,0.263 -1.766,0.731c-0.469,0.469 -0.732,1.104 -0.732,1.767c0,0.331 0,0.67 0,1.002c0,0.663 0.263,1.299 0.732,1.767c0.469,0.469 1.105,0.733 1.768,0.733c0.663,0 1.299,-0.264 1.768,-0.733c0.469,-0.468 0.732,-1.104 0.732,-1.767c0,-0.332 0,-0.671 0,-1.002Z"/></clipPath><g clip-path="url(#_clip2)"><circle cx="12.5" cy="16.517" r="2.5"/></g><path d="M23,17.517c0,-0.663 -0.263,-1.299 -0.732,-1.768c-0.469,-0.469 -1.105,-0.732 -1.768,-0.732c-0.001,0 -0.001,0 -0.002,0c-0.663,0 -1.298,0.263 -1.766,0.731c-0.469,0.469 -0.732,1.104 -0.732,1.767c0,0.331 0,0.67 0,1.002c0,0.663 0.263,1.299 0.732,1.767c0.469,0.469 1.105,0.733 1.768,0.733c0.663,0 1.299,-0.264 1.768,-0.733c0.469,-0.468 0.732,-1.104 0.732,-1.767c0,-0.331 0,-0.67 0,-1Z" style="fill:#fff;"/><clipPath id="_clip3"><path d="M23,17.517c0,-0.663 -0.263,-1.299 -0.732,-1.768c-0.469,-0.469 -1.105,-0.732 -1.768,-0.732c-0.001,0 -0.001,0 -0.002,0c-0.663,0 -1.298,0.263 -1.766,0.731c-0.469,0.469 -0.732,1.104 -0.732,1.767c0,0.331 0,0.67 0,1.002c0,0.663 0.263,1.299 0.732,1.767c0.469,0.469 1.105,0.733 1.768,0.733c0.663,0 1.299,-0.264 1.768,-0.733c0.469,-0.468 0.732,-1.104 0.732,-1.767c0,-0.331 0,-0.67 0,-1Z"/></clipPath><g clip-path="url(#_clip3)"><circle cx="21.5" cy="16.517" r="2.5"/></g><path d="M12.442,26.796c-0.376,0.187 -0.828,0.121 -1.134,-0.167c-0.305,-0.288 -0.398,-0.736 -0.233,-1.122c0.241,-0.562 0.499,-1.162 0.744,-1.734c0.716,-1.672 2.361,-2.756 4.18,-2.756c0.001,0 0.001,0 0.002,0c1.819,0 3.464,1.084 4.18,2.756c0.245,0.572 0.503,1.172 0.744,1.734c0.165,0.386 0.072,0.834 -0.233,1.122c-0.306,0.288 -0.758,0.354 -1.134,0.167c-0.027,-0.014 -0.053,-0.027 -0.08,-0.04c-0.972,-0.486 -2.044,-0.739 -3.13,-0.739c-0.23,0 -0.466,0 -0.696,0c-1.086,0 -2.158,0.253 -3.13,0.739c-0.027,0.013 -0.053,0.026 -0.08,0.04Z"/></g></g></svg>