<?xml version="1.0" encoding="UTF-8" standalone="no"?><!DOCTYPE svg PUBLIC "-//W3C//DTD SVG 1.1//EN" "http://www.w3.org/Graphics/SVG/1.1/DTD/svg11.dtd"><svg width="100%" height="100%" viewBox="0 0 32 32" version="1.1" xmlns="http://www.w3.org/2000/svg" xmlns:xlink="http://www.w3.org/1999/xlink" xml:space="preserve" style="fill-rule:evenodd;clip-rule:evenodd;stroke-linejoin:round;stroke-miterlimit:1.41421;">
<metadata>
<rdf:RDF xmlns:cc="http://web.resource.org/cc/"
         xmlns:rdf="http://www.w3.org/1999/02/22-rdf-syntax-ns#"
         xmlns:dc = "http://purl.org/dc/elements/1.1/"
         >

     <rdf:Description rdf:about="">
       <dc:title>Mutant Standard emoji v0.2.3</dc:title>
     </rdf:Description>

    <cc:work rdf:about="">
        <cc:license rdf:resource="http://creativecommons.org/licenses/by-nc-sa/4.0/"/>
        <cc:attributionName>Dzuk</cc:attributionName>
        <cc:attributionURL>http://mutant.tech/</cc:attributionURL>
    </cc:work>

</rdf:RDF>
</metadata>
<rect id="hug" x="0" y="0" width="32" height="32" style="fill:none;"/><clipPath id="_clip1"><rect x="0" y="0" width="32" height="32"/></clipPath><g clip-path="url(#_clip1)"><g id="outline"><path d="M16.174,0.001c0.462,0.009 0.922,0.034 1.381,0.086c1.022,0.114 2.032,0.341 3.004,0.676c1.894,0.652 3.641,1.714 5.092,3.095c1.578,1.502 2.795,3.371 3.529,5.422c0.366,1.022 0.613,2.086 0.733,3.165c0.052,0.459 0.077,0.919 0.086,1.381c0.005,0.774 0.005,1.549 0,2.323c-0.007,0.396 -0.029,0.79 -0.073,1.184c-0.098,0.876 -0.293,1.741 -0.58,2.575c-0.576,1.67 -1.522,3.207 -2.756,4.471c-1.269,1.301 -2.833,2.306 -4.544,2.918c-0.876,0.314 -1.788,0.525 -2.713,0.629c-0.394,0.044 -0.788,0.066 -1.184,0.073c-1.433,0.009 -2.865,0.009 -4.298,0c-0.396,-0.007 -0.79,-0.029 -1.184,-0.073c-0.876,-0.098 -1.741,-0.293 -2.575,-0.58c-1.717,-0.592 -3.293,-1.576 -4.577,-2.861c-1.25,-1.25 -2.216,-2.775 -2.812,-4.439c-0.314,-0.876 -0.525,-1.788 -0.629,-2.713c-0.044,-0.394 -0.066,-0.788 -0.073,-1.184c-0.005,-0.776 -0.005,-1.553 0,-2.329c0.01,-0.536 0.044,-1.069 0.111,-1.601c0.132,-1.034 0.38,-2.053 0.738,-3.033c0.756,-2.064 2.004,-3.938 3.613,-5.435c1.404,-1.307 3.075,-2.322 4.885,-2.959c0.985,-0.347 2.009,-0.582 3.047,-0.701c0.531,-0.061 1.064,-0.088 1.599,-0.091c0.06,0 0.12,0.001 0.18,0.001Z" style="fill-rule:nonzero;"/></g><g id="emoji"><path d="M28,14c0,-3.183 -1.264,-6.235 -3.515,-8.485c-2.25,-2.251 -5.302,-3.515 -8.485,-3.515c0,0 0,0 0,0c-6.627,0 -12,5.373 -12,12c0,0.669 0,1.339 0,2c0,2.652 1.054,5.196 2.929,7.071c1.875,1.875 4.419,2.929 7.071,2.929c1.322,0 2.678,0 4,0c2.652,0 5.196,-1.054 7.071,-2.929c1.875,-1.875 2.929,-4.419 2.929,-7.071c0,-0.661 0,-1.331 0,-2Z" style="fill:#fbc546;"/><clipPath id="_clip2"><path d="M28,14c0,-3.183 -1.264,-6.235 -3.515,-8.485c-2.25,-2.251 -5.302,-3.515 -8.485,-3.515c0,0 0,0 0,0c-6.627,0 -12,5.373 -12,12c0,0.669 0,1.339 0,2c0,2.652 1.054,5.196 2.929,7.071c1.875,1.875 4.419,2.929 7.071,2.929c1.322,0 2.678,0 4,0c2.652,0 5.196,-1.054 7.071,-2.929c1.875,-1.875 2.929,-4.419 2.929,-7.071c0,-0.661 0,-1.331 0,-2Z"/></clipPath><g clip-path="url(#_clip2)"><rect x="11" y="24" width="10" height="4" style="fill:#e59a10;"/><path d="M28,25l0,-4l-8,0l0,4l8,0Z" style="fill:#e59a10;"/><path d="M4,25l0,-4l8,0l0,4l-8,0Z" style="fill:#e59a10;"/></g><path d="M27,15.5c0,-0.828 -0.672,-1.5 -1.5,-1.5c-0.916,0 -2.084,0 -3,0c-0.828,0 -1.5,0.672 -1.5,1.5c0,0.828 0.672,1.5 1.5,1.5c0.916,0 2.084,0 3,0c0.828,0 1.5,-0.672 1.5,-1.5c0,0 0,0 0,0Z" style="fill:#ed6b44;"/><path d="M11,15.5c0,-0.828 -0.672,-1.5 -1.5,-1.5c-0.916,0 -2.084,0 -3,0c-0.828,0 -1.5,0.672 -1.5,1.5c0,0.828 0.672,1.5 1.5,1.5c0.916,0 2.084,0 3,0c0.828,0 1.5,-0.672 1.5,-1.5c0,0 0,0 0,0Z" style="fill:#ed6b44;"/><path d="M23.707,11.293l0.028,0.029l0.026,0.029l0.025,0.031l0.024,0.032l0.023,0.032l0.021,0.034l0.02,0.034l0.019,0.036l0.017,0.035l0.016,0.037l0.014,0.037l0.013,0.038l0.011,0.038l0.01,0.038l0.008,0.039l0.007,0.039l0.005,0.04l0.004,0.039l0.002,0.04l0,0.04l-0.001,0.04l-0.003,0.039l-0.004,0.04l-0.006,0.039l-0.008,0.039l-0.009,0.039l-0.01,0.038l-0.012,0.038l-0.014,0.038l-0.015,0.036l-0.016,0.037l-0.018,0.035l-0.02,0.035l-0.02,0.034l-0.022,0.033l-0.024,0.032l-0.024,0.031l-0.026,0.031l-0.027,0.029l-0.028,0.028l-0.029,0.027l-0.031,0.026l-0.031,0.024l-0.032,0.024l-0.033,0.022l-0.034,0.02l-0.035,0.02l-0.035,0.018l-0.037,0.016l-0.036,0.015l-0.038,0.014l-0.038,0.012l-0.038,0.01l-0.039,0.009l-0.039,0.008l-0.039,0.006l-0.04,0.004l-0.039,0.003l-0.04,0.001l-0.04,0l-0.04,-0.002l-0.039,-0.004l-0.04,-0.005l-0.039,-0.007l-0.039,-0.008l-0.038,-0.01l-0.038,-0.011l-0.038,-0.013l-0.037,-0.014l-0.037,-0.016l-0.035,-0.017l-0.036,-0.019l-0.034,-0.02l-0.034,-0.021l-0.032,-0.023l-0.032,-0.024l-0.031,-0.025l-0.029,-0.026l-0.029,-0.028l-1.293,-1.293l-1.293,1.293l-0.029,0.028l-0.029,0.026l-0.031,0.025l-0.032,0.024l-0.032,0.023l-0.034,0.021l-0.034,0.02l-0.036,0.019l-0.035,0.017l-0.037,0.016l-0.037,0.014l-0.038,0.013l-0.038,0.011l-0.038,0.01l-0.039,0.008l-0.039,0.007l-0.04,0.005l-0.039,0.004l-0.04,0.002l-0.04,0l-0.04,-0.001l-0.039,-0.003l-0.04,-0.004l-0.039,-0.006l-0.039,-0.008l-0.039,-0.009l-0.038,-0.01l-0.038,-0.012l-0.038,-0.014l-0.036,-0.015l-0.037,-0.016l-0.035,-0.018l-0.035,-0.02l-0.034,-0.02l-0.033,-0.022l-0.032,-0.024l-0.031,-0.024l-0.031,-0.026l-0.029,-0.027l-0.028,-0.028l-0.027,-0.029l-0.026,-0.031l-0.024,-0.031l-0.024,-0.032l-0.022,-0.033l-0.02,-0.034l-0.02,-0.035l-0.018,-0.035l-0.016,-0.037l-0.015,-0.036l-0.014,-0.038l-0.012,-0.038l-0.01,-0.038l-0.009,-0.039l-0.008,-0.039l-0.006,-0.039l-0.004,-0.04l-0.003,-0.039l-0.001,-0.04l0,-0.04l0.002,-0.04l0.004,-0.039l0.005,-0.04l0.007,-0.039l0.008,-0.039l0.01,-0.038l0.011,-0.038l0.013,-0.038l0.014,-0.037l0.016,-0.037l0.017,-0.035l0.019,-0.036l0.02,-0.034l0.021,-0.034l0.023,-0.032l0.024,-0.032l0.025,-0.031l0.026,-0.029l0.028,-0.029l2.707,-2.707l2.707,2.707Z"/><path d="M13.707,11.293l0.028,0.029l0.026,0.029l0.025,0.031l0.024,0.032l0.023,0.032l0.021,0.034l0.02,0.034l0.019,0.036l0.017,0.035l0.016,0.037l0.014,0.037l0.013,0.038l0.011,0.038l0.01,0.038l0.008,0.039l0.007,0.039l0.005,0.04l0.004,0.039l0.002,0.04l0,0.04l-0.001,0.04l-0.003,0.039l-0.004,0.04l-0.006,0.039l-0.008,0.039l-0.009,0.039l-0.01,0.038l-0.012,0.038l-0.014,0.038l-0.015,0.036l-0.016,0.037l-0.018,0.035l-0.02,0.035l-0.02,0.034l-0.022,0.033l-0.024,0.032l-0.024,0.031l-0.026,0.031l-0.027,0.029l-0.028,0.028l-0.029,0.027l-0.031,0.026l-0.031,0.024l-0.032,0.024l-0.033,0.022l-0.034,0.02l-0.035,0.02l-0.035,0.018l-0.037,0.016l-0.036,0.015l-0.038,0.014l-0.038,0.012l-0.038,0.01l-0.039,0.009l-0.039,0.008l-0.039,0.006l-0.04,0.004l-0.039,0.003l-0.04,0.001l-0.04,0l-0.04,-0.002l-0.039,-0.004l-0.04,-0.005l-0.039,-0.007l-0.039,-0.008l-0.038,-0.01l-0.038,-0.011l-0.038,-0.013l-0.037,-0.014l-0.037,-0.016l-0.035,-0.017l-0.036,-0.019l-0.034,-0.02l-0.034,-0.021l-0.032,-0.023l-0.032,-0.024l-0.031,-0.025l-0.029,-0.026l-0.029,-0.028l-1.293,-1.293l-1.293,1.293l-0.029,0.028l-0.029,0.026l-0.031,0.025l-0.032,0.024l-0.032,0.023l-0.034,0.021l-0.034,0.02l-0.036,0.019l-0.035,0.017l-0.037,0.016l-0.037,0.014l-0.038,0.013l-0.038,0.011l-0.038,0.01l-0.039,0.008l-0.039,0.007l-0.04,0.005l-0.039,0.004l-0.04,0.002l-0.04,0l-0.04,-0.001l-0.039,-0.003l-0.04,-0.004l-0.039,-0.006l-0.039,-0.008l-0.039,-0.009l-0.038,-0.01l-0.038,-0.012l-0.038,-0.014l-0.036,-0.015l-0.037,-0.016l-0.035,-0.018l-0.035,-0.02l-0.034,-0.02l-0.033,-0.022l-0.032,-0.024l-0.031,-0.024l-0.031,-0.026l-0.029,-0.027l-0.028,-0.028l-0.027,-0.029l-0.026,-0.031l-0.024,-0.031l-0.024,-0.032l-0.022,-0.033l-0.02,-0.034l-0.02,-0.035l-0.018,-0.035l-0.016,-0.037l-0.015,-0.036l-0.014,-0.038l-0.012,-0.038l-0.01,-0.038l-0.009,-0.039l-0.008,-0.039l-0.006,-0.039l-0.004,-0.04l-0.003,-0.039l-0.001,-0.04l0,-0.04l0.002,-0.04l0.004,-0.039l0.005,-0.04l0.007,-0.039l0.008,-0.039l0.01,-0.038l0.011,-0.038l0.013,-0.038l0.014,-0.037l0.016,-0.037l0.017,-0.035l0.019,-0.036l0.02,-0.034l0.021,-0.034l0.023,-0.032l0.024,-0.032l0.025,-0.031l0.026,-0.029l0.028,-0.029l2.707,-2.707l2.707,2.707Z"/><path d="M20.056,16.002l0.056,0.004l0.056,0.008l0.055,0.011l0.054,0.014l0.053,0.017l0.053,0.02l0.051,0.023l0.05,0.026l0.048,0.028l0.047,0.031l0.044,0.034l0.043,0.036l0.041,0.039l0.039,0.041l0.036,0.043l0.034,0.044l0.031,0.047l0.028,0.048l0.026,0.05l0.023,0.051l0.02,0.053l0.017,0.053l0.014,0.054l0.011,0.055l0.008,0.056l0.004,0.056l0.002,0.056l-0.002,0.056l-0.004,0.056l-0.008,0.056l-0.011,0.055l-0.014,0.054l-0.017,0.053l-0.02,0.053l-0.023,0.051l-0.026,0.05l-0.028,0.048l-0.031,0.047l-0.034,0.044l-0.036,0.043l-0.039,0.041l-1.176,1.176l-0.087,0.086l-0.094,0.087l-0.096,0.084l-0.097,0.081l-0.099,0.079l-0.101,0.076l-0.102,0.073l-0.103,0.07l-0.105,0.067l-0.106,0.064l-0.107,0.062l-0.109,0.059l-0.109,0.056l-0.111,0.053l-0.111,0.05l-0.113,0.047l-0.113,0.044l-0.115,0.042l-0.115,0.039l-0.115,0.035l-0.117,0.033l-0.117,0.03l-0.117,0.027l-0.118,0.025l-0.118,0.021l-0.119,0.019l-0.119,0.015l-0.119,0.013l-0.12,0.01l-0.119,0.008l-0.12,0.004l-0.12,0.001l-0.12,-0.001l-0.12,-0.004l-0.119,-0.008l-0.12,-0.01l-0.119,-0.013l-0.119,-0.015l-0.119,-0.019l-0.118,-0.021l-0.118,-0.025l-0.117,-0.027l-0.117,-0.03l-0.117,-0.033l-0.115,-0.035l-0.115,-0.039l-0.115,-0.042l-0.113,-0.044l-0.113,-0.047l-0.111,-0.05l-0.111,-0.053l-0.109,-0.056l-0.109,-0.059l-0.107,-0.062l-0.106,-0.064l-0.105,-0.067l-0.103,-0.07l-0.102,-0.073l-0.101,-0.076l-0.099,-0.079l-0.097,-0.081l-0.096,-0.084l-0.094,-0.087l-0.087,-0.086l-1.176,-1.176l-0.039,-0.041l-0.036,-0.043l-0.034,-0.044l-0.031,-0.047l-0.028,-0.048l-0.026,-0.05l-0.023,-0.051l-0.02,-0.053l-0.017,-0.053l-0.014,-0.054l-0.011,-0.055l-0.008,-0.056l-0.004,-0.056l-0.002,-0.056l0.002,-0.056l0.004,-0.056l0.008,-0.056l0.011,-0.055l0.014,-0.054l0.017,-0.053l0.02,-0.053l0.023,-0.051l0.026,-0.05l0.028,-0.048l0.031,-0.047l0.034,-0.044l0.036,-0.043l0.039,-0.041l0.041,-0.039l0.043,-0.036l0.044,-0.034l0.047,-0.031l0.048,-0.028l0.05,-0.026l0.051,-0.023l0.053,-0.02l0.053,-0.017l0.054,-0.014l0.055,-0.011l0.056,-0.008l0.056,-0.004l0.056,-0.002l0.056,0.002l0.056,0.004l0.056,0.008l0.055,0.011l0.054,0.014l0.053,0.017l0.053,0.02l0.051,0.023l0.05,0.026l0.048,0.028l0.047,0.031l0.044,0.034l0.043,0.036l0.041,0.039l1.167,1.167l0.061,0.059l0.056,0.052l0.058,0.051l0.058,0.049l0.06,0.047l0.06,0.046l0.061,0.044l0.062,0.042l0.063,0.04l0.063,0.038l0.064,0.037l0.065,0.035l0.066,0.034l0.066,0.031l0.066,0.03l0.068,0.028l0.068,0.027l0.068,0.025l0.069,0.023l0.069,0.021l0.07,0.02l0.07,0.018l0.07,0.016l0.071,0.015l0.071,0.013l0.072,0.011l0.071,0.01l0.072,0.007l0.072,0.006l0.072,0.005l0.072,0.002l0.072,0.001l0.072,-0.001l0.072,-0.002l0.072,-0.005l0.072,-0.006l0.072,-0.007l0.071,-0.01l0.072,-0.011l0.071,-0.013l0.071,-0.015l0.07,-0.016l0.07,-0.018l0.07,-0.02l0.069,-0.021l0.069,-0.023l0.068,-0.025l0.068,-0.027l0.068,-0.028l0.066,-0.03l0.066,-0.031l0.066,-0.034l0.065,-0.035l0.064,-0.037l0.063,-0.038l0.063,-0.04l0.062,-0.042l0.061,-0.044l0.06,-0.046l0.06,-0.047l0.058,-0.049l0.058,-0.051l0.056,-0.052l0.061,-0.059l1.167,-1.167l0.041,-0.039l0.043,-0.036l0.044,-0.034l0.047,-0.031l0.048,-0.028l0.05,-0.026l0.051,-0.023l0.053,-0.02l0.053,-0.017l0.054,-0.014l0.055,-0.011l0.056,-0.008l0.056,-0.004l0.056,-0.002l0.056,0.002Z"/><path d="M6.099,20.33c0.263,0.009 0.524,0.038 0.781,0.096c0.509,0.115 0.994,0.33 1.42,0.63c0.186,0.13 0.357,0.277 0.52,0.435l1.18,1.181l2.296,-2.297l1.704,0.706l0,4.775l-0.002,0.136c-0.009,0.247 -0.027,0.493 -0.064,0.737c-0.086,0.58 -0.258,1.147 -0.509,1.678c-0.294,0.622 -0.696,1.193 -1.182,1.679c-0.427,0.427 -0.918,0.789 -1.452,1.07c-0.73,0.384 -1.538,0.613 -2.36,0.672c-0.865,0.062 -1.741,-0.065 -2.552,-0.371c-0.508,-0.192 -0.99,-0.454 -1.429,-0.776c-0.204,-0.15 -0.396,-0.315 -0.583,-0.488c-0.653,-0.637 -1.299,-1.282 -1.936,-1.936c-0.291,-0.313 -0.536,-0.661 -0.719,-1.048c-0.252,-0.532 -0.384,-1.12 -0.384,-1.709c0,-0.557 0.118,-1.112 0.343,-1.62c0.187,-0.422 0.447,-0.8 0.76,-1.138c0.432,-0.442 0.869,-0.88 1.311,-1.311c0.194,-0.18 0.398,-0.343 0.621,-0.484c0.441,-0.279 0.936,-0.47 1.45,-0.559c0.194,-0.034 0.39,-0.051 0.588,-0.058c0.099,-0.002 0.099,-0.002 0.198,0Zm20,0c0.198,0.007 0.394,0.024 0.589,0.058c0.513,0.089 1.008,0.28 1.449,0.559c0.223,0.141 0.428,0.304 0.621,0.484c0.442,0.431 0.88,0.869 1.311,1.311c0.313,0.338 0.573,0.716 0.76,1.138c0.239,0.539 0.356,1.13 0.341,1.719c-0.013,0.556 -0.144,1.108 -0.382,1.61c-0.183,0.387 -0.428,0.735 -0.719,1.049c-0.604,0.619 -1.223,1.225 -1.835,1.837c-0.18,0.175 -0.365,0.342 -0.564,0.495c-0.431,0.334 -0.908,0.609 -1.413,0.814c-0.983,0.398 -2.067,0.529 -3.117,0.378c-0.722,-0.105 -1.424,-0.341 -2.061,-0.697c-0.527,-0.294 -1.009,-0.668 -1.426,-1.106c-0.474,-0.498 -0.86,-1.077 -1.139,-1.705c-0.238,-0.537 -0.396,-1.108 -0.468,-1.691c-0.03,-0.242 -0.043,-0.484 -0.046,-0.727l0,-4.775l1.704,-0.706l2.296,2.297c0.414,-0.414 0.824,-0.833 1.242,-1.241c0.073,-0.068 0.073,-0.068 0.147,-0.133c0.201,-0.169 0.413,-0.322 0.642,-0.451c0.397,-0.225 0.832,-0.381 1.281,-0.459c0.195,-0.034 0.391,-0.051 0.589,-0.058c0.099,-0.002 0.099,-0.002 0.198,0Z"/><path d="M20,25.843c0,1.061 0.421,2.078 1.172,2.829c1.562,1.562 4.094,1.562 5.656,0c0.611,-0.611 1.23,-1.23 1.758,-1.758c0.375,-0.375 0.586,-0.884 0.586,-1.414c0,-0.53 -0.211,-1.039 -0.586,-1.414c-0.38,-0.38 -0.792,-0.792 -1.172,-1.172c-0.375,-0.375 -0.884,-0.586 -1.414,-0.586c-0.53,0 -1.039,0.211 -1.414,0.586c-1.151,1.151 -2.586,2.586 -2.586,2.586l-2,-2c0,0 0,1.243 0,2.343Z" style="fill:#fbc546;"/><path d="M12,25.843c0,1.061 -0.421,2.078 -1.172,2.829c-1.562,1.562 -4.094,1.562 -5.656,0c-0.611,-0.611 -1.23,-1.23 -1.758,-1.758c-0.375,-0.375 -0.586,-0.884 -0.586,-1.414c0,-0.53 0.211,-1.039 0.586,-1.414c0.38,-0.38 0.792,-0.792 1.172,-1.172c0.375,-0.375 0.884,-0.586 1.414,-0.586c0.53,0 1.039,0.211 1.414,0.586c1.151,1.151 2.586,2.586 2.586,2.586l2,-2c0,0 0,1.243 0,2.343Z" style="fill:#fbc546;"/></g></g></svg>