<?xml version="1.0" encoding="UTF-8" standalone="no"?><!DOCTYPE svg PUBLIC "-//W3C//DTD SVG 1.1//EN" "http://www.w3.org/Graphics/SVG/1.1/DTD/svg11.dtd"><svg width="100%" height="100%" viewBox="0 0 32 32" version="1.1" xmlns="http://www.w3.org/2000/svg" xmlns:xlink="http://www.w3.org/1999/xlink" xml:space="preserve" style="fill-rule:evenodd;clip-rule:evenodd;stroke-linecap:round;stroke-miterlimit:2;">
<metadata>
<rdf:RDF xmlns:cc="http://web.resource.org/cc/"
         xmlns:rdf="http://www.w3.org/1999/02/22-rdf-syntax-ns#"
         xmlns:dc = "http://purl.org/dc/elements/1.1/"
         >

     <rdf:Description rdf:about="">
       <dc:title>Mutant Standard emoji v0.2.3</dc:title>
     </rdf:Description>

    <cc:work rdf:about="">
        <cc:license rdf:resource="http://creativecommons.org/licenses/by-nc-sa/4.0/"/>
        <cc:attributionName>Dzuk</cc:attributionName>
        <cc:attributionURL>http://mutant.tech/</cc:attributionURL>
    </cc:work>

</rdf:RDF>
</metadata>
<rect id="kiss" x="0" y="0" width="32" height="32" style="fill:none;"/><g id="outline"><path d="M16.174,2.001c0.462,0.009 0.922,0.034 1.381,0.086c1.079,0.12 2.143,0.367 3.165,0.733c2.051,0.734 3.92,1.951 5.422,3.529c1.381,1.451 2.443,3.198 3.095,5.092c0.335,0.972 0.562,1.982 0.676,3.004c0.052,0.459 0.077,0.919 0.086,1.381c0.009,1.434 0.009,2.869 0,4.303c-0.007,0.382 -0.031,0.763 -0.079,1.142c-0.094,0.739 -0.271,1.468 -0.527,2.167c-0.526,1.437 -1.386,2.745 -2.493,3.8c-1.021,0.974 -2.247,1.728 -3.577,2.196c-0.704,0.248 -1.436,0.416 -2.177,0.501c-0.338,0.039 -0.677,0.058 -1.017,0.064c-2.753,0.018 -5.505,0.018 -8.258,0c-0.382,-0.007 -0.763,-0.031 -1.142,-0.079c-0.739,-0.094 -1.468,-0.271 -2.167,-0.527c-1.362,-0.499 -2.608,-1.297 -3.633,-2.322c-1.054,-1.054 -1.868,-2.342 -2.363,-3.748c-0.248,-0.704 -0.416,-1.436 -0.501,-2.177c-0.039,-0.338 -0.058,-0.677 -0.064,-1.017c-0.009,-1.437 -0.009,-2.873 0,-4.309c0.009,-0.477 0.036,-0.952 0.09,-1.425c0.125,-1.095 0.38,-2.174 0.759,-3.209c0.717,-1.958 1.878,-3.747 3.37,-5.204c1.453,-1.418 3.212,-2.515 5.128,-3.19c1.041,-0.367 2.125,-0.608 3.223,-0.72c0.473,-0.048 0.947,-0.069 1.423,-0.072c0.06,0 0.12,0.001 0.18,0.001Z" style="fill-rule:nonzero;"/></g><g id="emoji"><path d="M28,16c0,-3.183 -1.264,-6.235 -3.515,-8.485c-2.25,-2.251 -5.302,-3.515 -8.485,-3.515c0,0 0,0 0,0c-6.627,0 -12,5.373 -12,12c0,1.356 0,2.713 0,4c0,4.418 3.582,8 8,8c2.574,0 5.426,0 8,0c4.418,0 8,-3.582 8,-8c0,-1.287 0,-2.644 0,-4Z" style="fill:#fbc546;"/><path d="M12,13.5c0,-0.398 -0.158,-0.779 -0.439,-1.061c-0.282,-0.281 -0.663,-0.439 -1.061,-0.439c-0.398,0 -0.779,0.158 -1.061,0.439c-0.281,0.282 -0.439,0.663 -0.439,1.061c0,0.633 0,1.367 0,2c0,0.398 0.158,0.779 0.439,1.061c0.282,0.281 0.663,0.439 1.061,0.439c0.398,0 0.779,-0.158 1.061,-0.439c0.281,-0.282 0.439,-0.663 0.439,-1.061c0,-0.633 0,-1.367 0,-2Z"/><path d="M23,13.498c0,-0.827 -0.671,-1.498 -1.498,-1.498c-0.001,0 -0.003,0 -0.004,0c-0.827,0 -1.498,0.671 -1.498,1.498c0,0.634 0,1.37 0,2.004c0,0.827 0.671,1.498 1.498,1.498c0.001,0 0.003,0 0.004,0c0.827,0 1.498,-0.671 1.498,-1.498c0,-0.634 0,-1.37 0,-2.004Z"/><path d="M15,18l4,2l-2,2l2,2l-4,2" style="fill:none;stroke:#000;stroke-width:2px;"/></g></svg>