<?xml version="1.0" encoding="UTF-8" standalone="no"?><!DOCTYPE svg PUBLIC "-//W3C//DTD SVG 1.1//EN" "http://www.w3.org/Graphics/SVG/1.1/DTD/svg11.dtd"><svg width="100%" height="100%" viewBox="0 0 32 32" version="1.1" xmlns="http://www.w3.org/2000/svg" xmlns:xlink="http://www.w3.org/1999/xlink" xml:space="preserve" style="fill-rule:evenodd;clip-rule:evenodd;stroke-linejoin:round;stroke-miterlimit:1.41421;">
<metadata>
<rdf:RDF xmlns:cc="http://web.resource.org/cc/"
         xmlns:rdf="http://www.w3.org/1999/02/22-rdf-syntax-ns#"
         xmlns:dc = "http://purl.org/dc/elements/1.1/"
         >

     <rdf:Description rdf:about="">
       <dc:title>Mutant Standard emoji v0.2.3</dc:title>
     </rdf:Description>

    <cc:work rdf:about="">
        <cc:license rdf:resource="http://creativecommons.org/licenses/by-nc-sa/4.0/"/>
        <cc:attributionName>Dzuk</cc:attributionName>
        <cc:attributionURL>http://mutant.tech/</cc:attributionURL>
    </cc:work>

</rdf:RDF>
</metadata>
<rect id="laughing" x="0" y="0" width="32" height="32" style="fill:none;"/><g id="outline"><path d="M16.174,3.001c0.462,0.009 0.922,0.034 1.381,0.086c1.079,0.12 2.143,0.367 3.165,0.733c2.051,0.734 3.92,1.951 5.422,3.529c1.381,1.451 2.443,3.198 3.095,5.092c0.316,0.918 0.537,1.869 0.656,2.833c0.064,0.515 0.096,1.033 0.106,1.552c0.005,0.772 0.005,1.544 0,2.316c-0.008,0.42 -0.034,0.839 -0.087,1.256c-0.098,0.769 -0.277,1.527 -0.535,2.258c-0.457,1.297 -1.16,2.504 -2.06,3.543c-1.217,1.406 -2.789,2.494 -4.535,3.133c-0.769,0.282 -1.571,0.476 -2.384,0.58c-0.417,0.053 -0.836,0.079 -1.256,0.087c-2.095,0.013 -4.189,0.013 -6.284,0c-0.42,-0.008 -0.839,-0.034 -1.256,-0.087c-0.813,-0.104 -1.615,-0.298 -2.384,-0.58c-1.746,-0.639 -3.318,-1.727 -4.535,-3.133c-0.9,-1.039 -1.603,-2.246 -2.06,-3.543c-0.258,-0.731 -0.437,-1.489 -0.535,-2.258c-0.053,-0.417 -0.079,-0.836 -0.087,-1.256c-0.005,-0.772 -0.005,-1.544 0,-2.316c0.01,-0.519 0.042,-1.037 0.106,-1.552c0.119,-0.964 0.34,-1.915 0.656,-2.833c0.804,-2.334 2.23,-4.437 4.1,-6.048c1.298,-1.119 2.803,-1.995 4.417,-2.573c1.022,-0.366 2.086,-0.613 3.165,-0.733c0.459,-0.052 0.919,-0.077 1.381,-0.086c0.174,-0.001 0.174,-0.001 0.348,0Z"/></g><g id="emoji"><path d="M28,17c0,-3.183 -1.264,-6.235 -3.515,-8.485c-2.25,-2.251 -5.302,-3.515 -8.485,-3.515c0,0 0,0 0,0c-3.183,0 -6.235,1.264 -8.485,3.515c-2.251,2.25 -3.515,5.302 -3.515,8.485c0,0.672 0,1.342 0,2c0,4.971 4.029,9 9,9c1.962,0 4.038,0 6,0c4.971,0 9,-4.029 9,-9c0,-0.658 0,-1.328 0,-2Z" style="fill:#fbc546;"/><path d="M23.05,12.001l0.039,0.003l0.04,0.004l0.039,0.006l0.039,0.008l0.039,0.009l0.038,0.01l0.038,0.012l0.038,0.014l0.036,0.015l0.037,0.016l0.035,0.018l0.035,0.02l0.034,0.02l0.033,0.022l0.032,0.024l0.031,0.024l0.031,0.026l0.029,0.027l0.028,0.028l0.027,0.029l0.026,0.031l0.024,0.031l0.024,0.032l0.022,0.033l0.02,0.034l0.02,0.035l0.018,0.035l0.016,0.037l0.015,0.036l0.014,0.038l0.012,0.038l0.01,0.038l0.009,0.039l0.008,0.039l0.006,0.039l0.004,0.04l0.003,0.039l0.001,0.04l0,0.04l-0.002,0.04l-0.004,0.039l-0.005,0.04l-0.007,0.039l-0.008,0.039l-0.01,0.038l-0.011,0.038l-0.013,0.038l-0.014,0.037l-0.016,0.037l-0.017,0.035l-0.019,0.036l-0.02,0.034l-0.021,0.034l-0.023,0.032l-0.024,0.032l-0.025,0.031l-0.026,0.029l-0.028,0.029l-1.856,1.856l1.465,0.488l0.038,0.014l0.037,0.014l0.036,0.017l0.036,0.017l0.034,0.019l0.034,0.021l0.034,0.022l0.032,0.023l0.032,0.024l0.03,0.026l0.029,0.027l0.029,0.028l0.027,0.029l0.026,0.03l0.025,0.031l0.023,0.032l0.022,0.033l0.021,0.034l0.02,0.034l0.018,0.036l0.017,0.036l0.015,0.036l0.014,0.038l0.012,0.038l0.011,0.038l0.009,0.039l0.008,0.039l0.006,0.039l0.004,0.039l0.003,0.04l0.002,0.04l0,0.039l-0.002,0.04l-0.003,0.04l-0.005,0.039l-0.007,0.04l-0.008,0.039l-0.009,0.038l-0.011,0.038l-0.013,0.038l-0.014,0.037l-0.015,0.037l-0.017,0.036l-0.019,0.035l-0.02,0.035l-0.021,0.033l-0.022,0.033l-0.024,0.032l-0.025,0.031l-0.026,0.03l-0.027,0.029l-0.029,0.027l-0.03,0.027l-0.03,0.025l-0.032,0.024l-0.032,0.023l-0.034,0.022l-0.034,0.02l-0.035,0.019l-0.036,0.017l-0.036,0.016l-0.037,0.015l-0.038,0.013l-0.038,0.011l-0.038,0.011l-0.039,0.008l-0.039,0.007l-0.04,0.005l-0.039,0.004l-0.04,0.002l-0.04,0.001l-0.039,-0.001l-0.04,-0.002l-0.04,-0.005l-0.039,-0.005l-0.039,-0.007l-0.039,-0.009l-0.038,-0.01l-0.038,-0.012l-4.087,-1.362l-0.114,-0.484l3.81,-3.81l0.029,-0.028l0.029,-0.026l0.031,-0.025l0.032,-0.024l0.032,-0.023l0.034,-0.021l0.034,-0.02l0.036,-0.019l0.035,-0.017l0.037,-0.016l0.037,-0.014l0.038,-0.013l0.038,-0.011l0.038,-0.01l0.039,-0.008l0.039,-0.007l0.04,-0.005l0.039,-0.004l0.04,-0.002l0.04,0l0.04,0.001Z"/><path d="M9.03,12l0.04,0.002l0.039,0.004l0.04,0.005l0.039,0.007l0.039,0.008l0.038,0.01l0.038,0.011l0.038,0.013l0.037,0.014l0.037,0.016l0.035,0.017l0.036,0.019l0.034,0.02l0.034,0.021l0.032,0.023l0.032,0.024l0.031,0.025l0.029,0.026l0.029,0.028l3.81,3.81l-0.114,0.484l-4.087,1.362l-0.038,0.012l-0.038,0.01l-0.039,0.009l-0.039,0.007l-0.039,0.005l-0.04,0.005l-0.04,0.002l-0.039,0.001l-0.04,-0.001l-0.04,-0.002l-0.039,-0.004l-0.04,-0.005l-0.039,-0.007l-0.039,-0.008l-0.038,-0.011l-0.038,-0.011l-0.038,-0.013l-0.037,-0.015l-0.036,-0.016l-0.036,-0.017l-0.035,-0.019l-0.034,-0.02l-0.034,-0.022l-0.032,-0.023l-0.032,-0.024l-0.03,-0.025l-0.03,-0.027l-0.029,-0.027l-0.027,-0.029l-0.026,-0.03l-0.025,-0.031l-0.024,-0.032l-0.022,-0.033l-0.021,-0.033l-0.02,-0.035l-0.019,-0.035l-0.017,-0.036l-0.015,-0.037l-0.014,-0.037l-0.013,-0.038l-0.011,-0.038l-0.009,-0.038l-0.008,-0.039l-0.007,-0.04l-0.005,-0.039l-0.003,-0.04l-0.002,-0.04l0,-0.039l0.002,-0.04l0.003,-0.04l0.004,-0.039l0.006,-0.039l0.008,-0.039l0.009,-0.039l0.011,-0.038l0.012,-0.038l0.014,-0.038l0.015,-0.036l0.017,-0.036l0.018,-0.036l0.02,-0.034l0.021,-0.034l0.022,-0.033l0.023,-0.032l0.025,-0.031l0.026,-0.03l0.027,-0.029l0.029,-0.028l0.029,-0.027l0.03,-0.026l0.032,-0.024l0.032,-0.023l0.034,-0.022l0.034,-0.021l0.034,-0.019l0.036,-0.017l0.036,-0.017l0.037,-0.014l0.038,-0.014l1.465,-0.488l-1.856,-1.856l-0.028,-0.029l-0.026,-0.029l-0.025,-0.031l-0.024,-0.032l-0.023,-0.032l-0.021,-0.034l-0.02,-0.034l-0.019,-0.036l-0.017,-0.035l-0.016,-0.037l-0.014,-0.037l-0.013,-0.038l-0.011,-0.038l-0.01,-0.038l-0.008,-0.039l-0.007,-0.039l-0.005,-0.04l-0.004,-0.039l-0.002,-0.04l0,-0.04l0.001,-0.04l0.003,-0.039l0.004,-0.04l0.006,-0.039l0.008,-0.039l0.009,-0.039l0.01,-0.038l0.012,-0.038l0.014,-0.038l0.015,-0.036l0.016,-0.037l0.018,-0.035l0.02,-0.035l0.02,-0.034l0.022,-0.033l0.024,-0.032l0.024,-0.031l0.026,-0.031l0.027,-0.029l0.028,-0.028l0.029,-0.027l0.031,-0.026l0.031,-0.024l0.032,-0.024l0.033,-0.022l0.034,-0.02l0.035,-0.02l0.035,-0.018l0.037,-0.016l0.036,-0.015l0.038,-0.014l0.038,-0.012l0.038,-0.01l0.039,-0.009l0.039,-0.008l0.039,-0.006l0.04,-0.004l0.039,-0.003l0.04,-0.001l0.04,0Z"/><path d="M24,19l-16,0c0,0 0.038,0.113 0.103,0.308c1.133,3.399 4.314,5.692 7.897,5.692c0,0 0,0 0,0c3.583,0 6.764,-2.293 7.897,-5.692c0.065,-0.195 0.103,-0.308 0.103,-0.308Z"/></g></svg>