<?xml version="1.0" encoding="UTF-8" standalone="no"?><!DOCTYPE svg PUBLIC "-//W3C//DTD SVG 1.1//EN" "http://www.w3.org/Graphics/SVG/1.1/DTD/svg11.dtd"><svg width="100%" height="100%" viewBox="0 0 32 32" version="1.1" xmlns="http://www.w3.org/2000/svg" xmlns:xlink="http://www.w3.org/1999/xlink" xml:space="preserve" style="fill-rule:evenodd;clip-rule:evenodd;stroke-linejoin:round;stroke-miterlimit:1.41421;">
<metadata>
<rdf:RDF xmlns:cc="http://web.resource.org/cc/"
         xmlns:rdf="http://www.w3.org/1999/02/22-rdf-syntax-ns#"
         xmlns:dc = "http://purl.org/dc/elements/1.1/"
         >

     <rdf:Description rdf:about="">
       <dc:title>Mutant Standard emoji v0.2.3</dc:title>
     </rdf:Description>

    <cc:work rdf:about="">
        <cc:license rdf:resource="http://creativecommons.org/licenses/by-nc-sa/4.0/"/>
        <cc:attributionName>Dzuk</cc:attributionName>
        <cc:attributionURL>http://mutant.tech/</cc:attributionURL>
    </cc:work>

</rdf:RDF>
</metadata>
<rect id="laughing_w_tears" x="0" y="0" width="32" height="32" style="fill:none;"/><g id="outline"><path d="M16.174,3.001c0.462,0.009 0.922,0.034 1.381,0.086c1.079,0.12 2.143,0.367 3.165,0.733c2.216,0.793 4.216,2.149 5.774,3.913c1.21,1.371 2.147,2.978 2.743,4.707c0.335,0.973 0.562,1.983 0.677,3.005c0.051,0.459 0.076,0.92 0.085,1.381c0.007,1.101 0.007,2.202 0,3.303c-0.006,0.34 -0.025,0.679 -0.064,1.017c-0.09,0.782 -0.272,1.553 -0.542,2.292c-0.485,1.324 -1.253,2.539 -2.238,3.548c-1.04,1.066 -2.318,1.895 -3.717,2.407c-0.7,0.256 -1.428,0.433 -2.167,0.527c-0.379,0.048 -0.76,0.072 -1.142,0.079c-2.753,0.018 -5.505,0.018 -8.258,0c-0.382,-0.007 -0.763,-0.031 -1.142,-0.079c-0.739,-0.094 -1.468,-0.271 -2.167,-0.527c-1.286,-0.471 -2.471,-1.21 -3.462,-2.155c-1.107,-1.055 -1.967,-2.363 -2.493,-3.8c-0.256,-0.7 -0.433,-1.428 -0.527,-2.167c-0.048,-0.379 -0.072,-0.76 -0.079,-1.142c-0.007,-1.101 -0.007,-2.202 0,-3.303c0.009,-0.462 0.034,-0.922 0.086,-1.381c0.12,-1.079 0.367,-2.144 0.733,-3.166c0.559,-1.559 1.395,-3.016 2.461,-4.284c1.625,-1.935 3.771,-3.409 6.16,-4.232c0.972,-0.335 1.982,-0.562 3.004,-0.676c0.459,-0.052 0.919,-0.077 1.381,-0.086c0.174,-0.001 0.174,-0.001 0.348,0Z"/></g><g id="emoji"><path d="M28,17c0,-3.183 -1.264,-6.235 -3.515,-8.485c-2.25,-2.251 -5.302,-3.515 -8.485,-3.515c0,0 0,0 0,0c-3.183,0 -6.235,1.264 -8.485,3.515c-2.251,2.25 -3.515,5.302 -3.515,8.485c0,1.016 0,2.026 0,3c0,4.418 3.582,8 8,8c2.574,0 5.426,0 8,0c4.418,0 8,-3.582 8,-8c0,-0.974 0,-1.984 0,-3Z" style="fill:#fbc546;"/><path d="M24,20l-16,0c0,0 0.038,0.113 0.103,0.308c1.133,3.399 4.314,5.692 7.897,5.692c0,0 0,0 0,0c3.583,0 6.764,-2.293 7.897,-5.692c0.065,-0.195 0.103,-0.308 0.103,-0.308Z"/><path d="M28.324,18.666c0.221,0.077 0.436,0.166 0.644,0.274c0.436,0.228 0.833,0.528 1.172,0.885c0.414,0.436 0.738,0.956 0.947,1.521c0.196,0.53 0.29,1.098 0.276,1.664c-0.015,0.558 -0.133,1.111 -0.351,1.625c-0.209,0.497 -0.51,0.954 -0.882,1.344c-0.346,0.363 -0.753,0.667 -1.199,0.895c-0.358,0.184 -0.742,0.319 -1.137,0.399c-0.527,0.108 -1.075,0.12 -1.607,0.035c-0.94,-0.151 -1.82,-0.608 -2.485,-1.289c-0.469,-0.481 -0.818,-1.062 -1.036,-1.696l-2.308,-6.924l1.041,-1.041c2.308,0.77 4.617,1.539 6.925,2.308Zm-16.682,-1.267c-0.778,2.334 -1.533,4.675 -2.334,7c-0.031,0.084 -0.064,0.167 -0.098,0.25c-0.07,0.162 -0.147,0.32 -0.235,0.473c-0.244,0.426 -0.558,0.81 -0.926,1.133c-0.453,0.397 -0.985,0.701 -1.558,0.888c-0.555,0.182 -1.146,0.252 -1.729,0.208c-0.553,-0.042 -1.097,-0.188 -1.596,-0.429c-0.484,-0.233 -0.925,-0.554 -1.296,-0.943c-0.347,-0.364 -0.631,-0.785 -0.838,-1.243c-0.152,-0.335 -0.262,-0.689 -0.326,-1.051c-0.099,-0.552 -0.093,-1.122 0.018,-1.672c0.159,-0.79 0.535,-1.531 1.078,-2.126c0.351,-0.384 0.769,-0.706 1.23,-0.947c0.184,-0.096 0.374,-0.176 0.569,-0.248l0.075,-0.025l6.925,-2.309c0.347,0.347 0.694,0.694 1.041,1.041Z"/><path d="M9,19c0,0 -2.796,0.932 -4.682,1.561c-1.004,0.334 -1.682,1.275 -1.682,2.333c0,0.001 0,0.001 0,0.002c0,1.363 1.105,2.468 2.468,2.468c0.001,0 0.001,0 0.002,0c1.058,0 1.999,-0.678 2.333,-1.682c0.629,-1.886 1.561,-4.682 1.561,-4.682Z" style="fill:#fff;"/><path d="M23,19c0,0 2.796,0.932 4.682,1.561c1.004,0.334 1.682,1.275 1.682,2.333c0,0.001 0,0.001 0,0.002c0,1.363 -1.105,2.468 -2.468,2.468c-0.001,0 -0.001,0 -0.002,0c-1.058,0 -1.999,-0.678 -2.333,-1.682c-0.629,-1.886 -1.561,-4.682 -1.561,-4.682Z" style="fill:#fff;"/><path d="M23.05,13.001l0.039,0.003l0.04,0.004l0.039,0.006l0.039,0.008l0.039,0.009l0.038,0.01l0.038,0.012l0.038,0.014l0.036,0.015l0.037,0.016l0.035,0.018l0.035,0.02l0.034,0.02l0.033,0.022l0.032,0.024l0.031,0.024l0.031,0.026l0.029,0.027l0.028,0.028l0.027,0.029l0.026,0.031l0.024,0.031l0.024,0.032l0.022,0.033l0.02,0.034l0.02,0.035l0.018,0.035l0.016,0.037l0.015,0.036l0.014,0.038l0.012,0.038l0.01,0.038l0.009,0.039l0.008,0.039l0.006,0.039l0.004,0.04l0.003,0.039l0.001,0.04l0,0.04l-0.002,0.04l-0.004,0.039l-0.005,0.04l-0.007,0.039l-0.008,0.039l-0.01,0.038l-0.011,0.038l-0.013,0.038l-0.014,0.037l-0.016,0.037l-0.017,0.035l-0.019,0.036l-0.02,0.034l-0.021,0.034l-0.023,0.032l-0.024,0.032l-0.025,0.031l-0.026,0.029l-0.028,0.029l-1.856,1.856l1.465,0.488l0.038,0.014l0.037,0.014l0.036,0.017l0.036,0.017l0.034,0.019l0.034,0.021l0.034,0.022l0.032,0.023l0.032,0.024l0.03,0.026l0.029,0.027l0.029,0.028l0.027,0.029l0.026,0.03l0.025,0.031l0.023,0.032l0.022,0.033l0.021,0.034l0.02,0.034l0.018,0.036l0.017,0.036l0.015,0.036l0.014,0.038l0.012,0.038l0.011,0.038l0.009,0.039l0.008,0.039l0.006,0.039l0.004,0.039l0.003,0.04l0.002,0.04l0,0.039l-0.002,0.04l-0.003,0.04l-0.005,0.039l-0.007,0.04l-0.008,0.039l-0.009,0.038l-0.011,0.038l-0.013,0.038l-0.014,0.037l-0.015,0.037l-0.017,0.036l-0.019,0.035l-0.02,0.035l-0.021,0.033l-0.022,0.033l-0.024,0.032l-0.025,0.031l-0.026,0.03l-0.027,0.029l-0.029,0.027l-0.03,0.027l-0.03,0.025l-0.032,0.024l-0.032,0.023l-0.034,0.022l-0.034,0.02l-0.035,0.019l-0.036,0.017l-0.036,0.016l-0.037,0.015l-0.038,0.013l-0.038,0.011l-0.038,0.011l-0.039,0.008l-0.039,0.007l-0.04,0.005l-0.039,0.004l-0.04,0.002l-0.04,0.001l-0.039,-0.001l-0.04,-0.002l-0.04,-0.005l-0.039,-0.005l-0.039,-0.007l-0.039,-0.009l-0.038,-0.01l-0.038,-0.012l-4.087,-1.362l-0.114,-0.484l3.81,-3.81l0.029,-0.028l0.029,-0.026l0.031,-0.025l0.032,-0.024l0.032,-0.023l0.034,-0.021l0.034,-0.02l0.036,-0.019l0.035,-0.017l0.037,-0.016l0.037,-0.014l0.038,-0.013l0.038,-0.011l0.038,-0.01l0.039,-0.008l0.039,-0.007l0.04,-0.005l0.039,-0.004l0.04,-0.002l0.04,0l0.04,0.001Z"/><path d="M9.03,13l0.04,0.002l0.039,0.004l0.04,0.005l0.039,0.007l0.039,0.008l0.038,0.01l0.038,0.011l0.038,0.013l0.037,0.014l0.037,0.016l0.035,0.017l0.036,0.019l0.034,0.02l0.034,0.021l0.032,0.023l0.032,0.024l0.031,0.025l0.029,0.026l0.029,0.028l3.81,3.81l-0.114,0.484l-4.087,1.362l-0.038,0.012l-0.038,0.01l-0.039,0.009l-0.039,0.007l-0.039,0.005l-0.04,0.005l-0.04,0.002l-0.039,0.001l-0.04,-0.001l-0.04,-0.002l-0.039,-0.004l-0.04,-0.005l-0.039,-0.007l-0.039,-0.008l-0.038,-0.011l-0.038,-0.011l-0.038,-0.013l-0.037,-0.015l-0.036,-0.016l-0.036,-0.017l-0.035,-0.019l-0.034,-0.02l-0.034,-0.022l-0.032,-0.023l-0.032,-0.024l-0.03,-0.025l-0.03,-0.027l-0.029,-0.027l-0.027,-0.029l-0.026,-0.03l-0.025,-0.031l-0.024,-0.032l-0.022,-0.033l-0.021,-0.033l-0.02,-0.035l-0.019,-0.035l-0.017,-0.036l-0.015,-0.037l-0.014,-0.037l-0.013,-0.038l-0.011,-0.038l-0.009,-0.038l-0.008,-0.039l-0.007,-0.04l-0.005,-0.039l-0.003,-0.04l-0.002,-0.04l0,-0.039l0.002,-0.04l0.003,-0.04l0.004,-0.039l0.006,-0.039l0.008,-0.039l0.009,-0.039l0.011,-0.038l0.012,-0.038l0.014,-0.038l0.015,-0.036l0.017,-0.036l0.018,-0.036l0.02,-0.034l0.021,-0.034l0.022,-0.033l0.023,-0.032l0.025,-0.031l0.026,-0.03l0.027,-0.029l0.029,-0.028l0.029,-0.027l0.03,-0.026l0.032,-0.024l0.032,-0.023l0.034,-0.022l0.034,-0.021l0.034,-0.019l0.036,-0.017l0.036,-0.017l0.037,-0.014l0.038,-0.014l1.465,-0.488l-1.856,-1.856l-0.028,-0.029l-0.026,-0.029l-0.025,-0.031l-0.024,-0.032l-0.023,-0.032l-0.021,-0.034l-0.02,-0.034l-0.019,-0.036l-0.017,-0.035l-0.016,-0.037l-0.014,-0.037l-0.013,-0.038l-0.011,-0.038l-0.01,-0.038l-0.008,-0.039l-0.007,-0.039l-0.005,-0.04l-0.004,-0.039l-0.002,-0.04l0,-0.04l0.001,-0.04l0.003,-0.039l0.004,-0.04l0.006,-0.039l0.008,-0.039l0.009,-0.039l0.01,-0.038l0.012,-0.038l0.014,-0.038l0.015,-0.036l0.016,-0.037l0.018,-0.035l0.02,-0.035l0.02,-0.034l0.022,-0.033l0.024,-0.032l0.024,-0.031l0.026,-0.031l0.027,-0.029l0.028,-0.028l0.029,-0.027l0.031,-0.026l0.031,-0.024l0.032,-0.024l0.033,-0.022l0.034,-0.02l0.035,-0.02l0.035,-0.018l0.037,-0.016l0.036,-0.015l0.038,-0.014l0.038,-0.012l0.038,-0.01l0.039,-0.009l0.039,-0.008l0.039,-0.006l0.04,-0.004l0.039,-0.003l0.04,-0.001l0.04,0Z"/></g></svg>