<?xml version="1.0" encoding="UTF-8" standalone="no"?><!DOCTYPE svg PUBLIC "-//W3C//DTD SVG 1.1//EN" "http://www.w3.org/Graphics/SVG/1.1/DTD/svg11.dtd"><svg width="100%" height="100%" viewBox="0 0 32 32" version="1.1" xmlns="http://www.w3.org/2000/svg" xmlns:xlink="http://www.w3.org/1999/xlink" xml:space="preserve" style="fill-rule:evenodd;clip-rule:evenodd;stroke-linejoin:round;stroke-miterlimit:1.41421;">
<metadata>
<rdf:RDF xmlns:cc="http://web.resource.org/cc/"
         xmlns:rdf="http://www.w3.org/1999/02/22-rdf-syntax-ns#"
         xmlns:dc = "http://purl.org/dc/elements/1.1/"
         >

     <rdf:Description rdf:about="">
       <dc:title>Mutant Standard emoji v0.2.3</dc:title>
     </rdf:Description>

    <cc:work rdf:about="">
        <cc:license rdf:resource="http://creativecommons.org/licenses/by-nc-sa/4.0/"/>
        <cc:attributionName>Dzuk</cc:attributionName>
        <cc:attributionURL>http://mutant.tech/</cc:attributionURL>
    </cc:work>

</rdf:RDF>
</metadata>
<rect id="loud_cry" x="0" y="0.008" width="32" height="32" style="fill:none;"/><g id="outline"><path d="M16.174,4.009c0.462,0.009 0.922,0.035 1.381,0.086c1.079,0.12 2.143,0.367 3.165,0.733c1.942,0.695 3.721,1.823 5.18,3.281c1.498,1.499 2.647,3.336 3.337,5.34c0.335,0.973 0.562,1.982 0.676,3.004c0.052,0.459 0.077,0.92 0.086,1.382c0.005,0.767 0.005,1.534 0,2.302c-0.006,0.34 -0.025,0.679 -0.064,1.017c-0.085,0.742 -0.253,1.473 -0.501,2.177c-0.429,1.217 -1.096,2.347 -1.952,3.312c-1.095,1.235 -2.494,2.191 -4.044,2.758c-0.739,0.271 -1.51,0.453 -2.292,0.542c-0.338,0.039 -0.677,0.058 -1.017,0.065c-2.753,0.017 -5.505,0.017 -8.258,0c-0.34,-0.007 -0.679,-0.026 -1.017,-0.065c-0.782,-0.089 -1.553,-0.271 -2.292,-0.542c-1.286,-0.471 -2.471,-1.209 -3.462,-2.154c-1.107,-1.056 -1.967,-2.364 -2.493,-3.8c-0.27,-0.74 -0.453,-1.511 -0.542,-2.293c-0.039,-0.338 -0.058,-0.677 -0.064,-1.017c-0.005,-0.767 -0.005,-1.535 0,-2.303c0.009,-0.461 0.034,-0.922 0.086,-1.381c0.114,-1.022 0.341,-2.032 0.676,-3.004c0.577,-1.675 1.474,-3.236 2.63,-4.578c1.573,-1.826 3.617,-3.23 5.887,-4.043c1.022,-0.366 2.086,-0.612 3.165,-0.733c0.459,-0.051 0.919,-0.077 1.381,-0.086c0.174,-0.001 0.174,-0.001 0.348,0Z" style="fill-rule:nonzero;"/></g><g id="emoji"><path d="M28,18.008c0,-3.182 -1.264,-6.234 -3.515,-8.485c-2.25,-2.25 -5.302,-3.515 -8.485,-3.515c0,0 0,0 0,0c-3.183,0 -6.235,1.265 -8.485,3.515c-2.251,2.251 -3.515,5.303 -3.515,8.485c0,0.676 0,1.346 0,2c0,4.419 3.582,8 8,8c2.574,0 5.426,0 8,0c4.418,0 8,-3.581 8,-8c0,-0.654 0,-1.324 0,-2Z" style="fill:#fbc546;"/><clipPath id="_clip1"><path d="M28,18.008c0,-3.182 -1.264,-6.234 -3.515,-8.485c-2.25,-2.25 -5.302,-3.515 -8.485,-3.515c0,0 0,0 0,0c-3.183,0 -6.235,1.265 -8.485,3.515c-2.251,2.251 -3.515,5.303 -3.515,8.485c0,0.676 0,1.346 0,2c0,4.419 3.582,8 8,8c2.574,0 5.426,0 8,0c4.418,0 8,-3.581 8,-8c0,-0.654 0,-1.324 0,-2Z"/></clipPath><g clip-path="url(#_clip1)"><path d="M12,14.008l-4,1l0,15l4,0l0,-16Z" style="fill:#009ad2;"/><path d="M24,15.008l-4,-1l0,16l4,0l0,-15Z" style="fill:#009ad2;"/><path d="M9.03,10.009l0.04,0.002l0.039,0.003l0.04,0.005l0.039,0.007l0.039,0.008l0.038,0.01l0.038,0.011l0.038,0.013l0.037,0.015l0.037,0.015l0.035,0.018l0.036,0.018l0.034,0.02l0.034,0.022l0.032,0.022l0.032,0.024l0.031,0.025l0.029,0.027l0.029,0.027l3.81,3.81l-0.114,0.484l-4.087,1.362l-0.038,0.012l-0.038,0.01l-0.039,0.009l-0.039,0.007l-0.039,0.006l-0.04,0.004l-0.04,0.002l-0.039,0.001l-0.04,0l-0.04,-0.003l-0.039,-0.003l-0.04,-0.006l-0.039,-0.007l-0.039,-0.008l-0.038,-0.01l-0.038,-0.012l-0.038,-0.013l-0.037,-0.014l-0.036,-0.016l-0.036,-0.018l-0.035,-0.019l-0.034,-0.02l-0.034,-0.021l-0.032,-0.023l-0.032,-0.024l-0.03,-0.026l-0.03,-0.026l-0.029,-0.028l-0.027,-0.029l-0.026,-0.03l-0.025,-0.031l-0.024,-0.032l-0.022,-0.032l-0.021,-0.034l-0.02,-0.035l-0.019,-0.035l-0.017,-0.036l-0.015,-0.036l-0.014,-0.038l-0.013,-0.037l-0.011,-0.039l-0.009,-0.038l-0.008,-0.039l-0.007,-0.039l-0.005,-0.04l-0.003,-0.039l-0.002,-0.04l0,-0.04l0.002,-0.04l0.003,-0.039l0.004,-0.04l0.006,-0.039l0.008,-0.039l0.009,-0.039l0.011,-0.038l0.012,-0.038l0.014,-0.037l0.015,-0.037l0.017,-0.036l0.018,-0.035l0.02,-0.035l0.021,-0.034l0.022,-0.033l0.023,-0.032l0.025,-0.031l0.026,-0.03l0.027,-0.029l0.029,-0.028l0.029,-0.027l0.03,-0.025l0.032,-0.025l0.032,-0.023l0.034,-0.022l0.034,-0.02l0.034,-0.019l0.036,-0.018l0.036,-0.016l0.037,-0.015l0.038,-0.013l1.465,-0.489l-1.856,-1.856l-0.028,-0.028l-0.026,-0.03l-0.025,-0.031l-0.024,-0.031l-0.023,-0.033l-0.021,-0.034l-0.02,-0.034l-0.019,-0.035l-0.017,-0.036l-0.016,-0.037l-0.014,-0.037l-0.013,-0.037l-0.011,-0.038l-0.01,-0.039l-0.008,-0.039l-0.007,-0.039l-0.005,-0.04l-0.004,-0.039l-0.002,-0.04l0,-0.04l0.001,-0.039l0.003,-0.04l0.004,-0.04l0.006,-0.039l0.008,-0.039l0.009,-0.039l0.01,-0.038l0.012,-0.038l0.014,-0.037l0.015,-0.037l0.016,-0.036l0.018,-0.036l0.02,-0.035l0.02,-0.033l0.022,-0.034l0.024,-0.032l0.024,-0.031l0.026,-0.03l0.027,-0.03l0.028,-0.028l0.029,-0.027l0.031,-0.025l0.031,-0.025l0.032,-0.023l0.033,-0.022l0.034,-0.021l0.035,-0.019l0.035,-0.018l0.037,-0.017l0.036,-0.015l0.038,-0.013l0.038,-0.012l0.038,-0.011l0.039,-0.009l0.039,-0.007l0.039,-0.006l0.04,-0.005l0.039,-0.002l0.04,-0.002l0.04,0.001Z"/><path d="M23.05,10.01l0.039,0.002l0.04,0.005l0.039,0.006l0.039,0.007l0.039,0.009l0.038,0.011l0.038,0.012l0.038,0.013l0.036,0.015l0.037,0.017l0.035,0.018l0.035,0.019l0.034,0.021l0.033,0.022l0.032,0.023l0.031,0.025l0.031,0.025l0.029,0.027l0.028,0.028l0.027,0.03l0.026,0.03l0.024,0.031l0.024,0.032l0.022,0.034l0.02,0.033l0.02,0.035l0.018,0.036l0.016,0.036l0.015,0.037l0.014,0.037l0.012,0.038l0.01,0.038l0.009,0.039l0.008,0.039l0.006,0.039l0.004,0.04l0.003,0.04l0.001,0.039l0,0.04l-0.002,0.04l-0.004,0.039l-0.005,0.04l-0.007,0.039l-0.008,0.039l-0.01,0.039l-0.011,0.038l-0.013,0.037l-0.014,0.037l-0.016,0.037l-0.017,0.036l-0.019,0.035l-0.02,0.034l-0.021,0.034l-0.023,0.033l-0.024,0.031l-0.025,0.031l-0.026,0.03l-0.028,0.028l-1.856,1.856l1.465,0.489l0.038,0.013l0.037,0.015l0.036,0.016l0.036,0.018l0.034,0.019l0.034,0.02l0.034,0.022l0.032,0.023l0.032,0.025l0.03,0.025l0.029,0.027l0.029,0.028l0.027,0.029l0.026,0.03l0.025,0.031l0.023,0.032l0.022,0.033l0.021,0.034l0.02,0.035l0.018,0.035l0.017,0.036l0.015,0.037l0.014,0.037l0.012,0.038l0.011,0.038l0.009,0.039l0.008,0.039l0.006,0.039l0.004,0.04l0.003,0.039l0.002,0.04l0,0.04l-0.002,0.04l-0.003,0.039l-0.005,0.04l-0.007,0.039l-0.008,0.039l-0.009,0.038l-0.011,0.039l-0.013,0.037l-0.014,0.038l-0.015,0.036l-0.017,0.036l-0.019,0.035l-0.02,0.035l-0.021,0.034l-0.022,0.032l-0.024,0.032l-0.025,0.031l-0.026,0.03l-0.027,0.029l-0.029,0.028l-0.03,0.026l-0.03,0.026l-0.032,0.024l-0.032,0.023l-0.034,0.021l-0.034,0.02l-0.035,0.019l-0.036,0.018l-0.036,0.016l-0.037,0.014l-0.038,0.013l-0.038,0.012l-0.038,0.01l-0.039,0.008l-0.039,0.007l-0.04,0.006l-0.039,0.003l-0.04,0.003l-0.04,0l-0.039,-0.001l-0.04,-0.002l-0.04,-0.004l-0.039,-0.006l-0.039,-0.007l-0.039,-0.009l-0.038,-0.01l-0.038,-0.012l-4.087,-1.362l-0.114,-0.484l3.81,-3.81l0.029,-0.027l0.029,-0.027l0.031,-0.025l0.032,-0.024l0.032,-0.022l0.034,-0.022l0.034,-0.02l0.036,-0.018l0.035,-0.018l0.037,-0.015l0.037,-0.015l0.038,-0.013l0.038,-0.011l0.038,-0.01l0.039,-0.008l0.039,-0.007l0.04,-0.005l0.039,-0.003l0.04,-0.002l0.04,-0.001l0.04,0.002Z"/></g><path d="M22.276,20.561c0.155,0.31 0.139,0.678 -0.043,0.973c-0.183,0.295 -0.504,0.474 -0.851,0.474c-2.694,0 -8.07,0 -10.764,0c-0.347,0 -0.668,-0.179 -0.851,-0.474c-0.182,-0.295 -0.198,-0.663 -0.043,-0.973c0.038,-0.077 0.078,-0.156 0.118,-0.236c1.016,-2.033 3.094,-3.317 5.366,-3.317c0.523,0 1.061,0 1.584,0c2.272,0 4.35,1.284 5.366,3.317c0.04,0.08 0.08,0.159 0.118,0.236Z"/></g></svg>