<?xml version="1.0" encoding="UTF-8" standalone="no"?><!DOCTYPE svg PUBLIC "-//W3C//DTD SVG 1.1//EN" "http://www.w3.org/Graphics/SVG/1.1/DTD/svg11.dtd"><svg width="100%" height="100%" viewBox="0 0 32 32" version="1.1" xmlns="http://www.w3.org/2000/svg" xmlns:xlink="http://www.w3.org/1999/xlink" xml:space="preserve" style="fill-rule:evenodd;clip-rule:evenodd;stroke-linejoin:round;stroke-miterlimit:1.41421;">
<metadata>
<rdf:RDF xmlns:cc="http://web.resource.org/cc/"
         xmlns:rdf="http://www.w3.org/1999/02/22-rdf-syntax-ns#"
         xmlns:dc = "http://purl.org/dc/elements/1.1/"
         >

     <rdf:Description rdf:about="">
       <dc:title>Mutant Standard emoji v0.2.3</dc:title>
     </rdf:Description>

    <cc:work rdf:about="">
        <cc:license rdf:resource="http://creativecommons.org/licenses/by-nc-sa/4.0/"/>
        <cc:attributionName>Dzuk</cc:attributionName>
        <cc:attributionURL>http://mutant.tech/</cc:attributionURL>
    </cc:work>

</rdf:RDF>
</metadata>
<rect id="mind_blown" x="0" y="0" width="32" height="32" style="fill:none;"/><clipPath id="_clip1"><rect x="0" y="0" width="32" height="32"/></clipPath><g clip-path="url(#_clip1)"><g id="emoji"><path d="M14.703,1.122l0.561,-1.122l1.472,0l2.277,4.554l0.021,-0.007c0.007,-0.05 0.016,-0.1 0.026,-0.15c0.187,-0.909 0.802,-1.698 1.638,-2.1c0.267,-0.129 0.554,-0.218 0.847,-0.263c0.152,-0.023 0.302,-0.031 0.455,-0.035c0.051,0.002 0.102,0.003 0.153,0.004c0.151,0.012 0.3,0.027 0.45,0.057c0.289,0.06 0.569,0.162 0.829,0.303c0.244,0.133 0.47,0.3 0.669,0.495l1.561,-0.52l1.209,1.393l-1.635,3.269l5.323,0l0.664,2.398l-3.878,2.327c0.072,0.011 0.143,0.022 0.214,0.036c0.462,0.087 0.905,0.24 1.326,0.446l1.798,0.899l-2.67,5.34l-2.465,-0.822l1.265,2.53l-0.522,0.846l-20.582,0l-0.522,-0.846l1.577,-3.154l-3.183,0l-0.706,-1.704l2.899,-2.899l-4.997,-2.999l0.664,-2.398l5.323,0l-1.635,-3.269l1.209,-1.393l1.868,0.622c0.289,-0.289 0.58,-0.578 0.872,-0.865c0.246,-0.232 0.508,-0.443 0.794,-0.624c0.555,-0.354 1.179,-0.598 1.827,-0.716c0.258,-0.047 0.517,-0.072 0.779,-0.081c0.098,-0.002 0.098,-0.002 0.197,-0.001c0.297,0.006 0.592,0.033 0.884,0.088c0.396,0.074 0.778,0.198 1.144,0.361Z"/><circle cx="22" cy="5" r="1" style="fill:#fbc546;"/><path d="M28,14l-1,2l-3,-1c0,0 0.174,-0.174 0.419,-0.419c0.944,-0.944 2.387,-1.178 3.581,-0.581c0,0 0,0 0,0Z" style="fill:#fbc546;"/><path d="M14,3l-1,2l-3,-1c0,0 0.174,-0.174 0.419,-0.419c0.944,-0.944 2.387,-1.178 3.581,-0.581c0,0 0,0 0,0Z" style="fill:#fbc546;"/><path d="M16,3l-2,4l-6,-2l2,4l-6,0l5,3l-3,3l4,0l-2,4l16,0l-2,-4l4,0l-3,-3l5,-3l-6,0l2,-4l-6,2l-2,-4Z" style="fill:#f30800;"/><path d="M16,6l-2,3l-3,-1l1,2l-4,0l4,2l-3,2l3,0l-1,4l10,0l-1,-4l3,0l-3,-2l4,-2l-4,0l1,-2l-3,1l-2,-3Z" style="fill:#ffa32b;"/><path d="M30,22.006c-0.002,0.339 -0.017,0.677 -0.051,1.014c-0.076,0.744 -0.235,1.479 -0.475,2.187c-0.465,1.375 -1.234,2.642 -2.236,3.693c-1.055,1.107 -2.363,1.967 -3.8,2.493c-0.699,0.256 -1.428,0.433 -2.167,0.527c-0.379,0.048 -0.76,0.072 -1.142,0.079c-2.753,0.018 -5.505,0.018 -8.258,0c-0.382,-0.007 -0.763,-0.031 -1.142,-0.079c-0.739,-0.094 -1.468,-0.271 -2.167,-0.527c-1.399,-0.513 -2.677,-1.341 -3.717,-2.407c-1.014,-1.038 -1.797,-2.295 -2.279,-3.663c-0.248,-0.704 -0.416,-1.436 -0.501,-2.177c-0.039,-0.338 -0.058,-0.677 -0.064,-1.017l-0.001,-0.123l0,-6.006l28,0c0,2.002 0,4.004 0,6.006Z" style="fill-rule:nonzero;"/><path d="M28,18c0,1.356 0,2.713 0,4c0,4.418 -3.582,8 -8,8c-2.574,0 -5.426,0 -8,0c-4.418,0 -8,-3.582 -8,-8l0,-4l24,0Z" style="fill:#fbc546;"/><path d="M12,20.515c0,-0.397 -0.158,-0.779 -0.439,-1.06c-0.282,-0.282 -0.663,-0.44 -1.061,-0.44c-0.398,0 -0.779,0.158 -1.061,0.44c-0.281,0.281 -0.439,0.663 -0.439,1.06c0,0.006 0,0.012 0,0.018c0,0.398 0.158,0.78 0.439,1.061c0.282,0.281 0.663,0.439 1.061,0.439c0.398,0 0.779,-0.158 1.061,-0.439c0.281,-0.281 0.439,-0.663 0.439,-1.061c0,-0.006 0,-0.012 0,-0.018Z"/><path d="M23,20.513c0,-0.827 -0.671,-1.498 -1.498,-1.498c-0.001,0 -0.003,0 -0.004,0c-0.827,0 -1.498,0.671 -1.498,1.498c0,0.008 0,0.015 0,0.022c0,0.828 0.671,1.498 1.498,1.498c0.001,0 0.003,0 0.004,0c0.827,0 1.498,-0.67 1.498,-1.498c0,-0.007 0,-0.014 0,-0.022Z"/><path d="M21.276,26.553c0.155,0.31 0.139,0.678 -0.043,0.973c-0.183,0.295 -0.504,0.474 -0.851,0.474c-2.295,0 -6.469,0 -8.764,0c-0.347,0 -0.668,-0.179 -0.851,-0.474c-0.182,-0.295 -0.198,-0.663 -0.043,-0.973c0.281,-0.563 0.613,-1.226 0.934,-1.87c0.823,-1.644 2.503,-2.683 4.342,-2.683c0,0 0,0 0,0c1.839,0 3.519,1.039 4.342,2.683c0.321,0.644 0.653,1.307 0.934,1.87Z"/><path d="M9,14l-7,0l0,-2.014c0.002,-0.161 0.008,-0.322 0.024,-0.482c0.041,-0.406 0.131,-0.807 0.269,-1.191c0.234,-0.654 0.605,-1.257 1.084,-1.76c0.536,-0.564 1.204,-0.998 1.936,-1.26c0.384,-0.138 0.785,-0.228 1.191,-0.269c0.16,-0.016 0.321,-0.022 0.482,-0.024l2.014,0c0,2.333 0,4.667 0,7Z" style="fill-rule:nonzero;"/><path d="M20.01,12.181l-0.097,0.599l-5.807,2.903l-2.54,-5.078l3.434,-3.433c1.67,1.67 3.34,3.339 5.01,5.009Z" style="fill-rule:nonzero;"/><path d="M4,12c0,0 0,-0.001 0,-0.002c0,-0.795 0.316,-1.558 0.878,-2.12c0.562,-0.562 1.325,-0.878 2.12,-0.878c0.001,0 0.002,0 0.002,0l0,3l-3,0Z" style="fill:#fbc546;"/><path d="M14,11l1,-1l2,2l-2,1l-1,-2Z" style="fill:#fbc546;"/></g></g></svg>