<?xml version="1.0" encoding="UTF-8" standalone="no"?><!DOCTYPE svg PUBLIC "-//W3C//DTD SVG 1.1//EN" "http://www.w3.org/Graphics/SVG/1.1/DTD/svg11.dtd"><svg width="100%" height="100%" viewBox="0 0 32 32" version="1.1" xmlns="http://www.w3.org/2000/svg" xmlns:xlink="http://www.w3.org/1999/xlink" xml:space="preserve" style="fill-rule:evenodd;clip-rule:evenodd;stroke-miterlimit:1.5;">
<metadata>
<rdf:RDF xmlns:cc="http://web.resource.org/cc/"
         xmlns:rdf="http://www.w3.org/1999/02/22-rdf-syntax-ns#"
         xmlns:dc = "http://purl.org/dc/elements/1.1/"
         >

     <rdf:Description rdf:about="">
       <dc:title>Mutant Standard emoji v0.2.3</dc:title>
     </rdf:Description>

    <cc:work rdf:about="">
        <cc:license rdf:resource="http://creativecommons.org/licenses/by-nc-sa/4.0/"/>
        <cc:attributionName>Dzuk</cc:attributionName>
        <cc:attributionURL>http://mutant.tech/</cc:attributionURL>
    </cc:work>

</rdf:RDF>
</metadata>
<rect id="money_face" x="0" y="0" width="32" height="32" style="fill:none;"/><g id="outline"><path d="M16.174,2.001c0.462,0.009 0.922,0.034 1.381,0.086c1.022,0.114 2.032,0.341 3.004,0.676c1.675,0.577 3.236,1.474 4.578,2.63c1.827,1.573 3.23,3.617 4.043,5.887c0.366,1.022 0.613,2.086 0.734,3.165c0.051,0.459 0.076,0.92 0.085,1.381c0.005,0.774 0.005,1.549 0,2.323c-0.007,0.396 -0.029,0.791 -0.073,1.184c-0.104,0.925 -0.315,1.837 -0.629,2.713c-0.646,1.805 -1.728,3.445 -3.133,4.749c-1.222,1.134 -2.68,2.008 -4.256,2.551c-0.834,0.287 -1.699,0.482 -2.575,0.58c-0.393,0.044 -0.788,0.066 -1.184,0.073c-1.433,0.009 -2.865,0.009 -4.298,0c-0.445,-0.008 -0.889,-0.036 -1.331,-0.09c-0.923,-0.115 -1.832,-0.338 -2.704,-0.662c-1.844,-0.686 -3.508,-1.829 -4.811,-3.303c-1.037,-1.175 -1.84,-2.554 -2.351,-4.036c-0.287,-0.833 -0.482,-1.699 -0.58,-2.575c-0.044,-0.394 -0.066,-0.788 -0.073,-1.184c-0.005,-0.777 -0.005,-1.553 0,-2.33c0.01,-0.535 0.044,-1.068 0.111,-1.6c0.132,-1.034 0.379,-2.053 0.738,-3.033c0.659,-1.8 1.693,-3.458 3.016,-4.845c1.517,-1.592 3.407,-2.818 5.482,-3.549c0.985,-0.347 2.009,-0.582 3.047,-0.701c0.473,-0.054 0.948,-0.081 1.425,-0.09c0.177,-0.001 0.176,-0.001 0.354,0Z" style="fill-rule:nonzero;"/></g><g id="emoji"><path d="M28,16c0,-3.183 -1.264,-6.235 -3.515,-8.485c-2.25,-2.251 -5.302,-3.515 -8.485,-3.515c0,0 0,0 0,0c-6.627,0 -12,5.373 -12,12c0,0.669 0,1.339 0,2c0,2.652 1.054,5.196 2.929,7.071c1.875,1.875 4.419,2.929 7.071,2.929c1.322,0 2.678,0 4,0c2.652,0 5.196,-1.054 7.071,-2.929c1.875,-1.875 2.929,-4.419 2.929,-7.071c0,-0.661 0,-1.331 0,-2Z" style="fill:#fbc546;"/><clipPath id="_clip1"><path d="M28,16c0,-3.183 -1.264,-6.235 -3.515,-8.485c-2.25,-2.251 -5.302,-3.515 -8.485,-3.515c0,0 0,0 0,0c-6.627,0 -12,5.373 -12,12c0,0.669 0,1.339 0,2c0,2.652 1.054,5.196 2.929,7.071c1.875,1.875 4.419,2.929 7.071,2.929c1.322,0 2.678,0 4,0c2.652,0 5.196,-1.054 7.071,-2.929c1.875,-1.875 2.929,-4.419 2.929,-7.071c0,-0.661 0,-1.331 0,-2Z"/></clipPath><g clip-path="url(#_clip1)"><path d="M25,19l-18,0c0,0 0.121,0.482 0.303,1.21c0.997,3.991 4.583,6.79 8.696,6.79c0.001,0 0.001,0 0.002,0c4.113,0 7.699,-2.799 8.696,-6.79c0.182,-0.728 0.303,-1.21 0.303,-1.21Z"/><path d="M21,24.012c-0.003,0.243 -0.019,0.485 -0.055,0.726c-0.072,0.484 -0.215,0.956 -0.424,1.399c-0.228,0.48 -0.532,0.924 -0.898,1.309c-0.34,0.357 -0.732,0.664 -1.161,0.906c-0.425,0.241 -0.886,0.418 -1.362,0.526c-0.962,0.217 -1.981,0.142 -2.902,-0.213c-0.571,-0.221 -1.101,-0.547 -1.555,-0.958c-0.486,-0.44 -0.883,-0.976 -1.164,-1.569c-0.226,-0.479 -0.376,-0.994 -0.441,-1.52c-0.025,-0.201 -0.035,-0.401 -0.038,-0.603l0,-3.015l10,0c0,1.004 0,2.008 0,3.012Z" style="fill:#1c5c0f;fill-rule:nonzero;"/><path d="M19,21l-6,0c0,0 0,1.501 0,3.002c0,0.795 0.316,1.558 0.878,2.12c0.562,0.562 1.325,0.878 2.12,0.878c0.001,0 0.001,0 0.002,0c0.796,0 1.559,-0.316 2.121,-0.879c0.563,-0.562 0.879,-1.325 0.879,-2.121c0,-1.5 0,-3 0,-3Z" style="fill:#3fdd34;"/></g><path d="M13,10c0,0 -2.027,0 -3.5,0c-0.398,0 -0.779,0.158 -1.061,0.439c-0.281,0.282 -0.439,0.663 -0.439,1.061c0,0.398 0.158,0.779 0.439,1.061c0.282,0.281 0.663,0.439 1.061,0.439c0.633,0 1.367,0 2,0c0.398,0 0.779,0.158 1.061,0.439c0.281,0.282 0.439,0.663 0.439,1.061c0,0.398 -0.158,0.779 -0.439,1.061c-0.282,0.281 -0.663,0.439 -1.061,0.439c-1.473,0 -3.5,0 -3.5,0" style="fill:none;stroke:#000;stroke-width:2px;"/><rect x="10" y="8" width="1" height="10"/><path d="M24,10c0,0 -2.027,0 -3.5,0c-0.398,0 -0.779,0.158 -1.061,0.439c-0.281,0.282 -0.439,0.663 -0.439,1.061c0,0.398 0.158,0.779 0.439,1.061c0.282,0.281 0.663,0.439 1.061,0.439c0.633,0 1.367,0 2,0c0.398,0 0.779,0.158 1.061,0.439c0.281,0.282 0.439,0.663 0.439,1.061c0,0.398 -0.158,0.779 -0.439,1.061c-0.282,0.281 -0.663,0.439 -1.061,0.439c-1.473,0 -3.5,0 -3.5,0" style="fill:none;stroke:#000;stroke-width:2px;"/><rect x="21" y="8" width="1" height="10"/></g></svg>