<?xml version="1.0" encoding="UTF-8" standalone="no"?><!DOCTYPE svg PUBLIC "-//W3C//DTD SVG 1.1//EN" "http://www.w3.org/Graphics/SVG/1.1/DTD/svg11.dtd"><svg width="100%" height="100%" viewBox="0 0 32 32" version="1.1" xmlns="http://www.w3.org/2000/svg" xmlns:xlink="http://www.w3.org/1999/xlink" xml:space="preserve" style="fill-rule:evenodd;clip-rule:evenodd;stroke-linejoin:round;stroke-miterlimit:1.41421;">
<metadata>
<rdf:RDF xmlns:cc="http://web.resource.org/cc/"
         xmlns:rdf="http://www.w3.org/1999/02/22-rdf-syntax-ns#"
         xmlns:dc = "http://purl.org/dc/elements/1.1/"
         >

     <rdf:Description rdf:about="">
       <dc:title>Mutant Standard emoji v0.2.3</dc:title>
     </rdf:Description>

    <cc:work rdf:about="">
        <cc:license rdf:resource="http://creativecommons.org/licenses/by-nc-sa/4.0/"/>
        <cc:attributionName>Dzuk</cc:attributionName>
        <cc:attributionURL>http://mutant.tech/</cc:attributionURL>
    </cc:work>

</rdf:RDF>
</metadata>
<rect id="monocle" x="0" y="0" width="32" height="32" style="fill:none;"/><g id="outline"><path d="M16.174,2.001c0.462,0.009 0.922,0.034 1.381,0.086c1.022,0.114 2.032,0.341 3.004,0.676c1.949,0.671 3.741,1.776 5.217,3.215c1.518,1.481 2.689,3.305 3.404,5.301c0.347,0.968 0.587,1.975 0.713,2.995c0.064,0.515 0.096,1.033 0.106,1.552c0.007,1.105 0.007,2.21 0,3.316c-0.007,0.374 -0.028,0.747 -0.071,1.119c-0.093,0.815 -0.278,1.62 -0.55,2.394c-0.545,1.547 -1.44,2.964 -2.6,4.123c-1.127,1.128 -2.498,2.006 -3.996,2.554c-0.813,0.298 -1.661,0.498 -2.521,0.596c-0.372,0.043 -0.745,0.064 -1.119,0.071c-1.764,0.011 -3.527,0.011 -5.291,0c-0.396,-0.007 -0.79,-0.029 -1.184,-0.073c-0.925,-0.104 -1.837,-0.315 -2.713,-0.629c-1.852,-0.663 -3.529,-1.785 -4.85,-3.243c-1.052,-1.163 -1.872,-2.531 -2.401,-4.008c-0.298,-0.829 -0.503,-1.692 -0.612,-2.567c-0.054,-0.441 -0.082,-0.885 -0.09,-1.33c-0.005,-0.776 -0.005,-1.553 0,-2.33c0.01,-0.535 0.044,-1.068 0.111,-1.6c0.132,-1.034 0.38,-2.053 0.738,-3.033c0.717,-1.958 1.878,-3.746 3.37,-5.203c1.453,-1.419 3.212,-2.516 5.128,-3.191c0.985,-0.347 2.009,-0.582 3.047,-0.701c0.473,-0.054 0.948,-0.081 1.425,-0.09c0.177,-0.001 0.177,-0.001 0.354,0Z" style="fill-rule:nonzero;"/></g><g id="emoji"><path d="M28,16c0,-3.183 -1.264,-6.235 -3.515,-8.485c-2.25,-2.251 -5.302,-3.515 -8.485,-3.515c0,0 0,0 0,0c-6.627,0 -12,5.373 -12,12c0,0.669 0,1.339 0,2c0,2.652 1.054,5.196 2.929,7.071c1.875,1.875 4.419,2.929 7.071,2.929c1.658,0 3.369,0 5,0c4.971,0 9,-4.029 9,-9c0,-0.981 0,-1.99 0,-3Z" style="fill:#fbc546;"/><circle cx="11.5" cy="13" r="5.5" style="fill:#fff;fill-opacity:0.498039;"/><path d="M11.584,6.501c0.303,0.005 0.605,0.028 0.904,0.074c0.608,0.093 1.202,0.273 1.759,0.533c1.303,0.609 2.385,1.653 3.041,2.933c0.291,0.569 0.498,1.181 0.61,1.81c0.122,0.677 0.135,1.375 0.039,2.057c-0.093,0.661 -0.289,1.308 -0.579,1.91c-0.328,0.681 -0.777,1.304 -1.318,1.832c-0.579,0.566 -1.264,1.023 -2.01,1.338c-0.773,0.327 -1.608,0.501 -2.446,0.511c-0.842,0.011 -1.684,-0.141 -2.467,-0.451c-0.754,-0.297 -1.451,-0.738 -2.044,-1.29c-0.573,-0.533 -1.048,-1.169 -1.396,-1.869c-0.297,-0.598 -0.501,-1.241 -0.602,-1.901c-0.104,-0.68 -0.1,-1.378 0.013,-2.057c0.109,-0.657 0.32,-1.297 0.624,-1.89c0.632,-1.233 1.659,-2.248 2.899,-2.864c0.549,-0.273 1.137,-0.468 1.74,-0.575c0.297,-0.054 0.597,-0.084 0.898,-0.097c0.112,-0.004 0.223,-0.005 0.335,-0.004Zm-0.142,1.999c-0.637,0.012 -1.264,0.15 -1.842,0.42c-0.903,0.422 -1.654,1.146 -2.108,2.033c-0.193,0.376 -0.332,0.78 -0.411,1.195c-0.094,0.487 -0.106,0.991 -0.037,1.482c0.064,0.457 0.199,0.904 0.399,1.319c0.236,0.489 0.561,0.934 0.953,1.308c0.406,0.387 0.885,0.698 1.404,0.911c0.557,0.227 1.157,0.339 1.758,0.332c0.599,-0.008 1.194,-0.135 1.742,-0.375c0.931,-0.407 1.709,-1.132 2.183,-2.03c0.188,-0.357 0.328,-0.739 0.414,-1.133c0.106,-0.485 0.13,-0.987 0.074,-1.479c-0.053,-0.46 -0.177,-0.912 -0.368,-1.333c-0.224,-0.495 -0.538,-0.947 -0.922,-1.331c-0.396,-0.397 -0.867,-0.719 -1.381,-0.944c-0.586,-0.257 -1.219,-0.379 -1.858,-0.375Z" style="fill-rule:nonzero;"/><rect x="4" y="11" width="2" height="4"/><path d="M24,12l0,2.502c0,0.397 -0.158,0.778 -0.439,1.059c-0.281,0.281 -0.662,0.439 -1.059,0.439c-0.001,0 -0.003,0 -0.004,0c-0.397,0 -0.778,-0.158 -1.059,-0.439c-0.281,-0.281 -0.439,-0.662 -0.439,-1.059l0,-0.502l-1,0c-0.552,0 -1,-0.448 -1,-1c0,-0.552 0.448,-1 1,-1l4,0Z"/><path d="M16.072,19.473l0.072,0.001l0.071,0.003l0.072,0.003l0.072,0.005l0.072,0.006l0.071,0.006l0.072,0.008l0.071,0.009l0.071,0.01l0.071,0.01l0.072,0.012l0.071,0.013l0.07,0.014l0.071,0.015l0.07,0.016l0.071,0.017l0.07,0.018l0.07,0.019l0.069,0.02l0.07,0.022l0.069,0.022l0.069,0.023l0.068,0.024l0.069,0.025l0.068,0.027l0.068,0.027l0.067,0.028l0.068,0.03l0.066,0.03l0.067,0.032l0.063,0.03l2.214,1.108l0.05,0.026l0.048,0.029l0.046,0.032l0.044,0.035l0.042,0.036l0.041,0.039l0.037,0.042l0.036,0.043l0.033,0.046l0.031,0.047l0.027,0.048l0.025,0.051l0.022,0.051l0.02,0.053l0.016,0.053l0.013,0.055l0.01,0.055l0.007,0.056l0.004,0.056l0.001,0.056l-0.003,0.056l-0.005,0.056l-0.009,0.055l-0.011,0.055l-0.015,0.054l-0.018,0.053l-0.021,0.052l-0.024,0.051l-0.026,0.05l-0.029,0.048l-0.032,0.046l-0.035,0.044l-0.036,0.042l-0.039,0.041l-0.042,0.037l-0.043,0.036l-0.046,0.033l-0.047,0.031l-0.048,0.027l-0.051,0.025l-0.051,0.022l-0.053,0.02l-0.053,0.016l-0.055,0.013l-0.055,0.01l-0.056,0.007l-0.056,0.004l-0.056,0.001l-0.056,-0.003l-0.056,-0.005l-0.055,-0.009l-0.055,-0.011l-0.054,-0.015l-0.053,-0.018l-0.052,-0.021l-0.051,-0.024l-2.208,-1.104l-0.043,-0.021l-0.04,-0.019l-0.04,-0.018l-0.04,-0.017l-0.041,-0.017l-0.041,-0.017l-0.041,-0.016l-0.04,-0.015l-0.042,-0.014l-0.041,-0.014l-0.042,-0.013l-0.041,-0.013l-0.042,-0.012l-0.042,-0.012l-0.042,-0.01l-0.042,-0.011l-0.042,-0.009l-0.043,-0.009l-0.042,-0.009l-0.043,-0.007l-0.042,-0.007l-0.043,-0.007l-0.043,-0.006l-0.043,-0.005l-0.043,-0.005l-0.043,-0.004l-0.043,-0.003l-0.043,-0.003l-0.043,-0.002l-0.043,-0.002l-0.043,-0.001l-0.043,0l-0.043,0l-0.043,0.001l-0.043,0.002l-0.043,0.002l-0.043,0.003l-0.043,0.003l-0.043,0.004l-0.043,0.005l-0.043,0.005l-0.043,0.006l-0.043,0.007l-0.042,0.007l-0.043,0.007l-0.042,0.009l-0.043,0.009l-0.042,0.009l-0.042,0.011l-0.042,0.01l-0.042,0.012l-0.042,0.012l-0.041,0.013l-0.042,0.013l-0.041,0.014l-0.042,0.014l-0.04,0.015l-0.041,0.016l-0.041,0.017l-0.041,0.017l-0.04,0.017l-0.04,0.018l-0.04,0.019l-0.043,0.021l-2.208,1.104l-0.051,0.024l-0.052,0.021l-0.053,0.018l-0.054,0.015l-0.055,0.011l-0.055,0.009l-0.056,0.005l-0.056,0.003l-0.056,-0.001l-0.056,-0.004l-0.056,-0.007l-0.055,-0.01l-0.055,-0.013l-0.053,-0.016l-0.053,-0.02l-0.051,-0.022l-0.051,-0.025l-0.048,-0.027l-0.047,-0.031l-0.046,-0.033l-0.043,-0.036l-0.042,-0.037l-0.039,-0.041l-0.036,-0.042l-0.035,-0.044l-0.032,-0.046l-0.029,-0.048l-0.026,-0.05l-0.024,-0.051l-0.021,-0.052l-0.018,-0.053l-0.015,-0.054l-0.011,-0.055l-0.009,-0.055l-0.005,-0.056l-0.003,-0.056l0.001,-0.056l0.004,-0.056l0.007,-0.056l0.01,-0.055l0.013,-0.055l0.016,-0.053l0.02,-0.053l0.022,-0.051l0.025,-0.051l0.027,-0.048l0.031,-0.047l0.033,-0.046l0.036,-0.043l0.037,-0.042l0.041,-0.039l0.042,-0.036l0.044,-0.035l0.046,-0.032l0.048,-0.029l0.05,-0.026l2.214,-1.108l0.063,-0.03l0.067,-0.032l0.066,-0.03l0.068,-0.03l0.067,-0.028l0.068,-0.027l0.068,-0.027l0.069,-0.025l0.068,-0.024l0.069,-0.023l0.069,-0.022l0.07,-0.022l0.069,-0.02l0.07,-0.019l0.07,-0.018l0.071,-0.017l0.07,-0.016l0.071,-0.015l0.07,-0.014l0.071,-0.013l0.072,-0.012l0.071,-0.01l0.071,-0.01l0.071,-0.009l0.072,-0.008l0.071,-0.006l0.072,-0.006l0.072,-0.005l0.072,-0.003l0.071,-0.003l0.072,-0.001l0.072,-0.001l0.072,0.001Z"/><path d="M13,11.5c0,-0.828 -0.672,-1.5 -1.5,-1.5c-0.828,0 -1.5,0.672 -1.5,1.5c0,0.916 0,2.084 0,3c0,0.828 0.672,1.5 1.5,1.5c0.828,0 1.5,-0.672 1.5,-1.5c0,-0.916 0,-2.084 0,-3Z"/></g></svg>