<?xml version="1.0" encoding="UTF-8" standalone="no"?><!DOCTYPE svg PUBLIC "-//W3C//DTD SVG 1.1//EN" "http://www.w3.org/Graphics/SVG/1.1/DTD/svg11.dtd"><svg width="100%" height="100%" viewBox="0 0 32 32" version="1.1" xmlns="http://www.w3.org/2000/svg" xmlns:xlink="http://www.w3.org/1999/xlink" xml:space="preserve" style="fill-rule:evenodd;clip-rule:evenodd;stroke-linejoin:round;stroke-miterlimit:1.41421;">
<metadata>
<rdf:RDF xmlns:cc="http://web.resource.org/cc/"
         xmlns:rdf="http://www.w3.org/1999/02/22-rdf-syntax-ns#"
         xmlns:dc = "http://purl.org/dc/elements/1.1/"
         >

     <rdf:Description rdf:about="">
       <dc:title>Mutant Standard emoji v0.2.3</dc:title>
     </rdf:Description>

    <cc:work rdf:about="">
        <cc:license rdf:resource="http://creativecommons.org/licenses/by-nc-sa/4.0/"/>
        <cc:attributionName>Dzuk</cc:attributionName>
        <cc:attributionURL>http://mutant.tech/</cc:attributionURL>
    </cc:work>

</rdf:RDF>
</metadata>
<rect id="nauseous" x="0" y="0" width="32" height="32" style="fill:none;"/><g id="outline"><path d="M16.174,2.001c0.462,0.009 0.922,0.034 1.381,0.086c1.079,0.12 2.143,0.367 3.165,0.733c1.942,0.695 3.721,1.822 5.18,3.28c1.498,1.499 2.647,3.337 3.337,5.341c0.335,0.972 0.562,1.982 0.676,3.004c0.052,0.459 0.077,0.919 0.086,1.381c0.007,1.101 0.007,2.202 0,3.303c-0.006,0.34 -0.025,0.679 -0.064,1.017c-0.085,0.741 -0.253,1.473 -0.501,2.177c-0.495,1.406 -1.309,2.694 -2.363,3.748c-1.025,1.025 -2.271,1.823 -3.633,2.322c-0.699,0.256 -1.428,0.433 -2.167,0.527c-0.379,0.048 -0.76,0.072 -1.142,0.079c-2.753,0.018 -5.505,0.018 -8.258,0c-0.382,-0.007 -0.763,-0.031 -1.142,-0.079c-0.739,-0.094 -1.468,-0.271 -2.167,-0.527c-1.399,-0.513 -2.677,-1.341 -3.717,-2.407c-1.014,-1.038 -1.797,-2.295 -2.279,-3.663c-0.248,-0.704 -0.416,-1.436 -0.501,-2.177c-0.039,-0.338 -0.058,-0.677 -0.064,-1.017c-0.007,-1.101 -0.007,-2.202 0,-3.303c0.01,-0.519 0.042,-1.037 0.106,-1.552c0.134,-1.077 0.393,-2.138 0.771,-3.155c0.76,-2.043 2,-3.897 3.598,-5.38c1.467,-1.362 3.226,-2.402 5.127,-3.03c0.977,-0.324 1.989,-0.539 3.013,-0.641c0.458,-0.045 0.918,-0.065 1.378,-0.068c0.06,0 0.12,0.001 0.18,0.001Z" style="fill-rule:nonzero;"/></g><g id="emoji"><path d="M28,16c0,-3.183 -1.264,-6.235 -3.515,-8.485c-2.25,-2.251 -5.302,-3.515 -8.485,-3.515c0,0 0,0 0,0c-3.183,0 -6.235,1.264 -8.485,3.515c-2.251,2.25 -3.515,5.302 -3.515,8.485c0,1.016 0,2.026 0,3c0,4.418 3.582,8 8,8c2.574,0 5.426,0 8,0c4.418,0 8,-3.582 8,-8c0,-0.974 0,-1.984 0,-3Z" style="fill:#77b84c;"/><clipPath id="_clip1"><path d="M28,16c0,-3.183 -1.264,-6.235 -3.515,-8.485c-2.25,-2.251 -5.302,-3.515 -8.485,-3.515c0,0 0,0 0,0c-3.183,0 -6.235,1.264 -8.485,3.515c-2.251,2.25 -3.515,5.302 -3.515,8.485c0,1.016 0,2.026 0,3c0,4.418 3.582,8 8,8c2.574,0 5.426,0 8,0c4.418,0 8,-3.582 8,-8c0,-0.974 0,-1.984 0,-3Z"/></clipPath><g clip-path="url(#_clip1)"><rect x="22" y="16.983" width="7" height="6.017" style="fill:#618e29;"/></g><path d="M20.026,11l0.034,0.002l0.035,0.003l0.034,0.003l0.034,0.005l0.034,0.007l0.034,0.007l0.033,0.009l0.033,0.009l0.033,0.011l0.033,0.012l0.032,0.013l0.031,0.014l0.031,0.016l0.03,0.016l0.03,0.017l0.03,0.019l0.028,0.019l0.028,0.02l0.027,0.022l0.027,0.022l0.025,0.023l0.025,0.024l3,3l0.024,0.025l0.023,0.025l0.022,0.027l0.022,0.027l0.02,0.028l0.019,0.028l0.019,0.03l0.017,0.03l0.016,0.03l0.016,0.031l0.014,0.031l0.013,0.032l0.012,0.033l0.011,0.032l0.009,0.034l0.009,0.033l0.007,0.034l0.007,0.034l0.005,0.034l0.003,0.034l0.003,0.035l0.002,0.034l0,0.035l-0.001,0.034l-0.002,0.035l-0.003,0.034l-0.005,0.034l-0.005,0.034l-0.007,0.034l-0.008,0.034l-0.009,0.033l-0.011,0.033l-0.011,0.033l-0.012,0.032l-0.014,0.031l-0.015,0.032l-0.016,0.03l-0.016,0.03l-0.018,0.03l-0.019,0.029l-0.02,0.028l-0.021,0.028l-0.022,0.027l-0.022,0.026l-0.024,0.025l-0.024,0.024l-0.025,0.024l-0.026,0.022l-0.027,0.022l-0.028,0.021l-0.028,0.02l-0.029,0.019l-0.03,0.018l-0.03,0.016l-0.03,0.016l-0.032,0.015l-0.031,0.014l-0.032,0.012l-0.033,0.011l-0.033,0.011l-0.033,0.009l-0.034,0.008l-0.034,0.007l-0.034,0.005l-0.034,0.005l-0.034,0.003l-0.035,0.002l-0.034,0.001l-0.035,0l-0.034,-0.002l-0.035,-0.003l-0.034,-0.003l-0.034,-0.005l-0.034,-0.007l-0.034,-0.007l-0.033,-0.009l-0.034,-0.009l-0.032,-0.011l-0.033,-0.012l-0.032,-0.013l-0.031,-0.014l-0.031,-0.016l-0.03,-0.016l-0.03,-0.017l-0.03,-0.019l-0.028,-0.019l-0.028,-0.02l-0.027,-0.022l-0.027,-0.022l-0.025,-0.023l-0.025,-0.024l-3,-3l-0.024,-0.025l-0.023,-0.025l-0.022,-0.027l-0.022,-0.027l-0.02,-0.028l-0.019,-0.028l-0.019,-0.03l-0.017,-0.03l-0.016,-0.03l-0.016,-0.031l-0.014,-0.031l-0.013,-0.032l-0.012,-0.033l-0.011,-0.032l-0.009,-0.034l-0.009,-0.033l-0.007,-0.034l-0.007,-0.034l-0.005,-0.034l-0.003,-0.034l-0.003,-0.035l-0.002,-0.034l0,-0.035l0.001,-0.034l0.002,-0.035l0.003,-0.034l0.005,-0.034l0.005,-0.034l0.007,-0.034l0.008,-0.034l0.009,-0.033l0.011,-0.033l0.011,-0.033l0.012,-0.032l0.014,-0.031l0.015,-0.032l0.016,-0.03l0.016,-0.03l0.018,-0.03l0.019,-0.029l0.02,-0.028l0.021,-0.028l0.022,-0.027l0.022,-0.026l0.024,-0.025l0.024,-0.024l0.025,-0.024l0.026,-0.022l0.027,-0.022l0.028,-0.021l0.028,-0.02l0.029,-0.019l0.03,-0.018l0.03,-0.016l0.03,-0.016l0.032,-0.015l0.031,-0.014l0.032,-0.012l0.033,-0.011l0.033,-0.011l0.033,-0.009l0.034,-0.008l0.034,-0.007l0.034,-0.005l0.034,-0.005l0.034,-0.003l0.035,-0.002l0.034,-0.001l0.035,0Z"/><path d="M12.043,11.001l0.035,0.002l0.034,0.003l0.034,0.005l0.034,0.005l0.034,0.007l0.034,0.008l0.033,0.009l0.033,0.011l0.033,0.011l0.032,0.012l0.031,0.014l0.032,0.015l0.03,0.016l0.03,0.016l0.03,0.018l0.029,0.019l0.028,0.02l0.028,0.021l0.027,0.022l0.026,0.022l0.025,0.024l0.024,0.024l0.024,0.025l0.022,0.026l0.022,0.027l0.021,0.028l0.02,0.028l0.019,0.029l0.018,0.03l0.016,0.03l0.016,0.03l0.015,0.032l0.014,0.031l0.012,0.032l0.011,0.033l0.011,0.033l0.009,0.033l0.008,0.034l0.007,0.034l0.005,0.034l0.005,0.034l0.003,0.034l0.002,0.035l0.001,0.034l0,0.035l-0.002,0.034l-0.003,0.035l-0.003,0.034l-0.005,0.034l-0.007,0.034l-0.007,0.034l-0.009,0.033l-0.009,0.034l-0.011,0.032l-0.012,0.033l-0.013,0.032l-0.014,0.031l-0.016,0.031l-0.016,0.03l-0.017,0.03l-0.019,0.03l-0.019,0.028l-0.02,0.028l-0.022,0.027l-0.022,0.027l-0.023,0.025l-0.024,0.025l-3,3l-0.025,0.024l-0.025,0.023l-0.027,0.022l-0.027,0.022l-0.028,0.02l-0.028,0.019l-0.03,0.019l-0.03,0.017l-0.03,0.016l-0.031,0.016l-0.031,0.014l-0.032,0.013l-0.033,0.012l-0.032,0.011l-0.034,0.009l-0.033,0.009l-0.034,0.007l-0.034,0.007l-0.034,0.005l-0.034,0.003l-0.035,0.003l-0.034,0.002l-0.035,0l-0.034,-0.001l-0.035,-0.002l-0.034,-0.003l-0.034,-0.005l-0.034,-0.005l-0.034,-0.007l-0.034,-0.008l-0.033,-0.009l-0.033,-0.011l-0.033,-0.011l-0.032,-0.012l-0.031,-0.014l-0.032,-0.015l-0.03,-0.016l-0.03,-0.016l-0.03,-0.018l-0.029,-0.019l-0.028,-0.02l-0.028,-0.021l-0.027,-0.022l-0.026,-0.022l-0.025,-0.024l-0.024,-0.024l-0.024,-0.025l-0.022,-0.026l-0.022,-0.027l-0.021,-0.028l-0.02,-0.028l-0.019,-0.029l-0.018,-0.03l-0.016,-0.03l-0.016,-0.03l-0.015,-0.032l-0.014,-0.031l-0.012,-0.032l-0.011,-0.033l-0.011,-0.033l-0.009,-0.033l-0.008,-0.034l-0.007,-0.034l-0.005,-0.034l-0.005,-0.034l-0.003,-0.034l-0.002,-0.035l-0.001,-0.034l0,-0.035l0.002,-0.034l0.003,-0.035l0.003,-0.034l0.005,-0.034l0.007,-0.034l0.007,-0.034l0.009,-0.033l0.009,-0.034l0.011,-0.032l0.012,-0.033l0.013,-0.032l0.014,-0.031l0.016,-0.031l0.016,-0.03l0.017,-0.03l0.019,-0.03l0.019,-0.028l0.02,-0.028l0.022,-0.027l0.022,-0.027l0.023,-0.025l0.024,-0.025l3,-3l0.025,-0.024l0.025,-0.023l0.027,-0.022l0.027,-0.022l0.028,-0.02l0.028,-0.019l0.03,-0.019l0.03,-0.017l0.03,-0.016l0.031,-0.016l0.031,-0.014l0.032,-0.013l0.033,-0.012l0.032,-0.011l0.034,-0.009l0.033,-0.009l0.034,-0.007l0.034,-0.007l0.034,-0.005l0.034,-0.003l0.035,-0.003l0.034,-0.002l0.035,0l0.034,0.001Z"/><path d="M28.082,9.587c0.136,0.004 0.271,0.014 0.407,0.034c0.355,0.051 0.702,0.159 1.024,0.318c0.897,0.443 1.567,1.278 1.804,2.25c0.084,0.345 0.114,0.702 0.089,1.056c-0.026,0.356 -0.108,0.708 -0.242,1.039c-0.17,0.42 -0.425,0.797 -0.741,1.121l-8.423,8.423l-4.828,-4.828c3.158,-3.159 5.278,-5.357 8.476,-8.475c0.169,-0.157 0.348,-0.299 0.544,-0.422c0.354,-0.221 0.748,-0.376 1.158,-0.455c0.188,-0.037 0.377,-0.055 0.568,-0.061c0.082,-0.001 0.082,-0.001 0.164,0Z" style="fill-rule:nonzero;"/><path d="M19,20c0,0 5.655,-5.655 8,-8c0.552,-0.552 1.448,-0.552 2,0c0,0 0,0 0,0c0.552,0.552 0.552,1.448 0,2c-2.345,2.345 -8,8 -8,8l-2,-2Z" style="fill:#fff;"/><clipPath id="_clip2"><path d="M19,20c0,0 5.655,-5.655 8,-8c0.552,-0.552 1.448,-0.552 2,0c0,0 0,0 0,0c0.552,0.552 0.552,1.448 0,2c-2.345,2.345 -8,8 -8,8l-2,-2Z"/></clipPath><g clip-path="url(#_clip2)"><path d="M23,15l3,3l-5,5l-3,-3l5,-5Z" style="fill:#d92020;"/></g><path d="M16.467,18.001l0.124,0.005l0.123,0.008l0.123,0.01l0.123,0.014l0.121,0.017l0.122,0.019l0.12,0.023l0.12,0.025l0.119,0.029l0.118,0.031l0.117,0.034l0.117,0.037l0.115,0.04l0.114,0.042l0.114,0.046l0.112,0.048l0.111,0.05l0.109,0.054l0.109,0.056l0.107,0.059l0.105,0.061l0.104,0.064l0.103,0.067l0.101,0.069l0.1,0.072l0.098,0.074l0.096,0.077l0.094,0.08l0.093,0.081l0.091,0.085l0.084,0.082l2.833,2.833l0.045,0.048l0.041,0.05l0.038,0.053l0.035,0.056l0.031,0.058l0.027,0.059l0.023,0.062l0.019,0.062l0.015,0.064l0.01,0.064l0.007,0.066l0.002,0.065l-0.002,0.065l-0.007,0.066l-0.01,0.064l-0.015,0.064l-0.019,0.062l-0.023,0.062l-0.027,0.059l-0.031,0.058l-0.035,0.056l-0.038,0.053l-0.041,0.05l-0.045,0.048l-0.048,0.045l-0.05,0.041l-0.053,0.038l-0.056,0.035l-0.058,0.031l-0.059,0.027l-0.062,0.023l-0.062,0.019l-0.064,0.015l-0.064,0.01l-0.066,0.007l-0.065,0.002l-0.065,-0.002l-0.066,-0.007l-0.064,-0.01l-0.064,-0.015l-0.062,-0.019l-0.062,-0.023l-0.059,-0.027l-0.058,-0.031l-0.056,-0.035l-0.053,-0.038l-0.05,-0.041l-0.048,-0.045l-2.824,-2.824l-0.058,-0.056l-0.054,-0.051l-0.056,-0.049l-0.057,-0.048l-0.057,-0.046l-0.059,-0.044l-0.06,-0.043l-0.06,-0.042l-0.062,-0.04l-0.063,-0.038l-0.063,-0.037l-0.064,-0.036l-0.065,-0.033l-0.066,-0.032l-0.067,-0.031l-0.067,-0.029l-0.068,-0.027l-0.068,-0.025l-0.07,-0.024l-0.069,-0.022l-0.071,-0.021l-0.071,-0.018l-0.071,-0.017l-0.072,-0.016l-0.072,-0.013l-0.073,-0.012l-0.073,-0.01l-0.073,-0.008l-0.074,-0.007l-0.074,-0.004l-0.074,-0.003l-0.081,-0.001l-5.337,0l-0.065,-0.002l-0.066,-0.007l-0.064,-0.01l-0.064,-0.015l-0.062,-0.019l-0.062,-0.023l-0.059,-0.027l-0.058,-0.031l-0.056,-0.035l-0.053,-0.038l-0.05,-0.041l-0.048,-0.045l-0.045,-0.048l-0.041,-0.05l-0.038,-0.053l-0.035,-0.056l-0.031,-0.058l-0.027,-0.059l-0.023,-0.062l-0.019,-0.062l-0.015,-0.064l-0.01,-0.064l-0.007,-0.066l-0.002,-0.065l0.002,-0.065l0.007,-0.066l0.01,-0.064l0.015,-0.064l0.019,-0.062l0.023,-0.062l0.027,-0.059l0.031,-0.058l0.035,-0.056l0.038,-0.053l0.041,-0.05l0.045,-0.048l0.048,-0.045l0.05,-0.041l0.053,-0.038l0.056,-0.035l0.058,-0.031l0.059,-0.027l0.062,-0.023l0.062,-0.019l0.064,-0.015l0.064,-0.01l0.066,-0.007l0.065,-0.002l5.349,0l0.118,0.001Z"/></g></svg>