<?xml version="1.0" encoding="UTF-8" standalone="no"?><!DOCTYPE svg PUBLIC "-//W3C//DTD SVG 1.1//EN" "http://www.w3.org/Graphics/SVG/1.1/DTD/svg11.dtd"><svg width="100%" height="100%" viewBox="0 0 32 32" version="1.1" xmlns="http://www.w3.org/2000/svg" xmlns:xlink="http://www.w3.org/1999/xlink" xml:space="preserve" style="fill-rule:evenodd;clip-rule:evenodd;stroke-linecap:round;stroke-miterlimit:1.5;">
<metadata>
<rdf:RDF xmlns:cc="http://web.resource.org/cc/"
         xmlns:rdf="http://www.w3.org/1999/02/22-rdf-syntax-ns#"
         xmlns:dc = "http://purl.org/dc/elements/1.1/"
         >

     <rdf:Description rdf:about="">
       <dc:title>Mutant Standard emoji v0.2.3</dc:title>
     </rdf:Description>

    <cc:work rdf:about="">
        <cc:license rdf:resource="http://creativecommons.org/licenses/by-nc-sa/4.0/"/>
        <cc:attributionName>Dzuk</cc:attributionName>
        <cc:attributionURL>http://mutant.tech/</cc:attributionURL>
    </cc:work>

</rdf:RDF>
</metadata>
<rect id="nerd_face" x="0" y="0" width="32" height="32" style="fill:none;"/><g id="outline"><path d="M16.174,2.001c0.462,0.009 0.922,0.034 1.381,0.086c1.079,0.12 2.143,0.367 3.165,0.733c2.051,0.734 3.92,1.951 5.422,3.529c1.381,1.451 2.443,3.198 3.095,5.092c0.335,0.972 0.562,1.982 0.676,3.004c0.052,0.459 0.077,0.919 0.086,1.381c0.007,1.105 0.007,2.211 0,3.316c-0.007,0.374 -0.028,0.747 -0.071,1.119c-0.093,0.815 -0.278,1.62 -0.55,2.394c-0.516,1.464 -1.345,2.812 -2.416,3.935c-1.161,1.217 -2.6,2.163 -4.18,2.742c-0.769,0.282 -1.571,0.476 -2.384,0.58c-0.417,0.053 -0.836,0.079 -1.256,0.087c-2.095,0.013 -4.189,0.013 -6.284,0c-0.42,-0.008 -0.839,-0.034 -1.256,-0.087c-0.813,-0.104 -1.615,-0.298 -2.384,-0.58c-1.498,-0.548 -2.869,-1.426 -3.996,-2.554c-1.16,-1.159 -2.055,-2.576 -2.6,-4.123c-0.272,-0.774 -0.457,-1.579 -0.55,-2.394c-0.043,-0.372 -0.064,-0.745 -0.071,-1.119c-0.007,-1.108 -0.007,-2.215 0,-3.322c0.009,-0.477 0.036,-0.952 0.09,-1.425c0.125,-1.095 0.38,-2.174 0.759,-3.209c0.717,-1.958 1.878,-3.747 3.37,-5.204c1.453,-1.418 3.212,-2.515 5.128,-3.19c1.041,-0.367 2.125,-0.608 3.223,-0.72c0.473,-0.048 0.947,-0.069 1.423,-0.072c0.06,0 0.12,0.001 0.18,0.001Z"/></g><g id="emoji"><path d="M28,16c0,-3.183 -1.264,-6.235 -3.515,-8.485c-2.25,-2.251 -5.302,-3.515 -8.485,-3.515c0,0 0,0 0,0c-6.627,0 -12,5.373 -12,12c0,1.01 0,2.019 0,3c0,4.971 4.029,9 9,9c1.962,0 4.038,0 6,0c4.971,0 9,-4.029 9,-9c0,-0.981 0,-1.99 0,-3Z" style="fill:#fbc546;"/><path d="M6,12l0,1c0,0 0.388,1.931 0.681,3.393c0.188,0.934 1.008,1.607 1.961,1.607c0.848,0 1.846,0 2.533,0c0.531,0 1.039,-0.211 1.414,-0.586c0.638,-0.638 1.632,-1.632 2.122,-2.122c0.187,-0.187 0.293,-0.441 0.293,-0.707c0,-0.585 0,-1.585 0,-1.585c0,0 -2.23,-0.744 -2.843,-0.949c-0.102,-0.034 -0.209,-0.051 -0.316,-0.051c-1.135,0 -7.838,0 -7.838,0" style="fill:none;stroke:#000;stroke-width:2px;"/><path d="M26.011,12l0,1c0,0 -0.388,1.931 -0.681,3.393c-0.188,0.934 -1.008,1.607 -1.961,1.607c-0.848,0 -1.846,0 -2.533,0c-0.531,0 -1.04,-0.211 -1.415,-0.586c-0.637,-0.638 -1.631,-1.632 -2.121,-2.122c-0.187,-0.187 -0.293,-0.441 -0.293,-0.707c0,-0.585 0,-1.585 0,-1.585c0,0 2.23,-0.744 2.843,-0.949c0.102,-0.034 0.208,-0.051 0.316,-0.051c1.135,0 7.838,0 7.838,0" style="fill:none;stroke:#000;stroke-width:2px;"/><path d="M15,13l2,0" style="fill:none;stroke:#000;stroke-width:2px;"/><path d="M13,17c0,0 1.152,-1.152 1.707,-1.707c0.188,-0.188 0.442,-0.293 0.707,-0.293c0.343,0 0.829,0 1.172,0c0.265,0 0.519,0.105 0.707,0.293c0.555,0.555 1.707,1.707 1.707,1.707" style="fill:none;stroke:#000;stroke-width:2px;"/><path d="M12,12l-3,0c0,0 0,1.364 0,2.5c0,0.397 0.158,0.779 0.439,1.06c0.282,0.282 0.663,0.44 1.061,0.44c0.398,0 0.779,-0.158 1.061,-0.44c0.281,-0.281 0.439,-0.663 0.439,-1.06c0,-1.136 0,-2.5 0,-2.5Z"/><path d="M23,12l-3,0c0,0 0,1.366 0,2.502c0,0.397 0.158,0.778 0.439,1.059c0.281,0.281 0.662,0.439 1.059,0.439c0.001,0 0.003,0 0.004,0c0.397,0 0.778,-0.158 1.059,-0.439c0.281,-0.281 0.439,-0.662 0.439,-1.059c0,-1.136 0,-2.502 0,-2.502Z"/><path d="M21.511,20.978c0.105,-0.209 0.093,-0.458 -0.03,-0.657c-0.123,-0.2 -0.341,-0.321 -0.575,-0.321c-2.282,0 -7.53,0 -9.812,0c-0.234,0 -0.452,0.121 -0.575,0.321c-0.123,0.199 -0.135,0.448 -0.03,0.657c0.134,0.268 0.286,0.573 0.446,0.892c0.959,1.918 2.92,3.13 5.064,3.13c0.001,0 0.001,0 0.002,0c2.144,0 4.105,-1.212 5.064,-3.13c0.16,-0.319 0.312,-0.624 0.446,-0.892Z"/><path d="M18,20l-4,0c0,0 0,1.127 0,2c0,0.552 0.448,1 1,1c0.611,0 1.389,0 2,0c0.552,0 1,-0.448 1,-1c0,-0.873 0,-2 0,-2Z" style="fill:#fff;"/><rect x="14" y="19.983" width="4" height="1" style="fill:#999;"/></g></svg>