<?xml version="1.0" encoding="UTF-8" standalone="no"?><!DOCTYPE svg PUBLIC "-//W3C//DTD SVG 1.1//EN" "http://www.w3.org/Graphics/SVG/1.1/DTD/svg11.dtd"><svg width="100%" height="100%" viewBox="0 0 32 32" version="1.1" xmlns="http://www.w3.org/2000/svg" xmlns:xlink="http://www.w3.org/1999/xlink" xml:space="preserve" style="fill-rule:evenodd;clip-rule:evenodd;stroke-linejoin:round;stroke-miterlimit:1.41421;">
<metadata>
<rdf:RDF xmlns:cc="http://web.resource.org/cc/"
         xmlns:rdf="http://www.w3.org/1999/02/22-rdf-syntax-ns#"
         xmlns:dc = "http://purl.org/dc/elements/1.1/"
         >

     <rdf:Description rdf:about="">
       <dc:title>Mutant Standard emoji v0.2.3</dc:title>
     </rdf:Description>

    <cc:work rdf:about="">
        <cc:license rdf:resource="http://creativecommons.org/licenses/by-nc-sa/4.0/"/>
        <cc:attributionName>Dzuk</cc:attributionName>
        <cc:attributionURL>http://mutant.tech/</cc:attributionURL>
    </cc:work>

</rdf:RDF>
</metadata>
<rect id="open_mouth" x="0" y="0.017" width="32" height="32" style="fill:none;"/><g id="outline"><path d="M16.174,2.018c0.462,0.008 0.922,0.034 1.381,0.085c1.022,0.114 2.032,0.342 3.004,0.677c2.004,0.69 3.842,1.839 5.341,3.337c1.458,1.458 2.585,3.238 3.28,5.179c0.366,1.022 0.613,2.087 0.733,3.165c0.052,0.46 0.077,0.92 0.086,1.382c0.009,1.434 0.009,2.868 0,4.302c-0.006,0.34 -0.025,0.679 -0.064,1.017c-0.085,0.742 -0.253,1.474 -0.501,2.178c-0.495,1.406 -1.309,2.694 -2.363,3.748c-1.025,1.025 -2.271,1.823 -3.633,2.321c-0.739,0.271 -1.51,0.453 -2.292,0.543c-0.338,0.038 -0.677,0.057 -1.017,0.064c-2.753,0.017 -5.505,0.017 -8.258,0c-0.34,-0.007 -0.679,-0.026 -1.017,-0.064c-0.741,-0.085 -1.473,-0.253 -2.177,-0.501c-1.33,-0.469 -2.556,-1.223 -3.577,-2.196c-1.107,-1.055 -1.967,-2.363 -2.493,-3.8c-0.256,-0.7 -0.433,-1.428 -0.527,-2.167c-0.048,-0.379 -0.072,-0.76 -0.079,-1.142c-0.009,-1.437 -0.009,-2.873 0,-4.31c0.009,-0.476 0.036,-0.951 0.09,-1.424c0.119,-1.038 0.354,-2.062 0.701,-3.048c0.675,-1.915 1.772,-3.675 3.191,-5.128c1.457,-1.492 3.245,-2.652 5.203,-3.369c1.035,-0.379 2.114,-0.634 3.209,-0.759c0.473,-0.054 0.948,-0.081 1.425,-0.09c0.177,-0.001 0.176,-0.001 0.354,0Z" style="fill-rule:nonzero;"/></g><g id="emoji"><path d="M28,16.017c0,-3.183 -1.264,-6.235 -3.515,-8.486c-2.25,-2.25 -5.302,-3.514 -8.485,-3.514c0,0 0,0 0,0c-6.627,0 -12,5.372 -12,12c0,1.356 0,2.713 0,4c0,4.418 3.582,8 8,8c2.574,0 5.426,0 8,0c4.418,0 8,-3.582 8,-8c0,-1.287 0,-2.644 0,-4Z" style="fill:#fbc546;"/><path d="M12,12.499c0,-0.829 -0.672,-1.5 -1.5,-1.5c-0.828,0 -1.5,0.671 -1.5,1.5c0,0.638 0,1.38 0,2.018c0,0.828 0.672,1.5 1.5,1.5c0.828,0 1.5,-0.672 1.5,-1.5c0,-0.638 0,-1.38 0,-2.018Z"/><path d="M19,20.017c0,-1.657 -1.343,-3 -3,-3c-1.657,0 -3,1.343 -3,3c0,1.657 1.343,3 3,3c1.657,0 3,-1.343 3,-3c0,0 0,0 0,0Z"/><path d="M23,12.497c0,-0.828 -0.671,-1.498 -1.498,-1.498c-0.001,0 -0.003,0 -0.004,0c-0.827,0 -1.498,0.67 -1.498,1.498c0,0.639 0,1.383 0,2.022c0,0.827 0.671,1.498 1.498,1.498c0.001,0 0.003,0 0.004,0c0.827,0 1.498,-0.671 1.498,-1.498c0,-0.639 0,-1.383 0,-2.022Z"/></g></svg>