<?xml version="1.0" encoding="UTF-8" standalone="no"?><!DOCTYPE svg PUBLIC "-//W3C//DTD SVG 1.1//EN" "http://www.w3.org/Graphics/SVG/1.1/DTD/svg11.dtd"><svg width="100%" height="100%" viewBox="0 0 32 32" version="1.1" xmlns="http://www.w3.org/2000/svg" xmlns:xlink="http://www.w3.org/1999/xlink" xml:space="preserve" style="fill-rule:evenodd;clip-rule:evenodd;stroke-linejoin:round;stroke-miterlimit:1.41421;">
<metadata>
<rdf:RDF xmlns:cc="http://web.resource.org/cc/"
         xmlns:rdf="http://www.w3.org/1999/02/22-rdf-syntax-ns#"
         xmlns:dc = "http://purl.org/dc/elements/1.1/"
         >

     <rdf:Description rdf:about="">
       <dc:title>Mutant Standard emoji v0.2.3</dc:title>
     </rdf:Description>

    <cc:work rdf:about="">
        <cc:license rdf:resource="http://creativecommons.org/licenses/by-nc-sa/4.0/"/>
        <cc:attributionName>Dzuk</cc:attributionName>
        <cc:attributionURL>http://mutant.tech/</cc:attributionURL>
    </cc:work>

</rdf:RDF>
</metadata>
<rect id="raised_eyebrow" x="0" y="0" width="32" height="32" style="fill:none;"/><g id="outline"><path d="M16.174,2.001c0.462,0.009 0.922,0.034 1.381,0.086c1.022,0.114 2.032,0.341 3.004,0.676c2.004,0.69 3.842,1.839 5.341,3.338c1.458,1.458 2.585,3.237 3.28,5.179c0.366,1.022 0.613,2.086 0.733,3.165c0.052,0.459 0.077,0.919 0.086,1.381c0.007,1.105 0.007,2.21 0,3.316c-0.008,0.42 -0.034,0.839 -0.087,1.256c-0.104,0.813 -0.298,1.615 -0.58,2.384c-0.533,1.456 -1.378,2.793 -2.461,3.902c-1.176,1.205 -2.627,2.134 -4.216,2.694c-0.774,0.272 -1.579,0.457 -2.394,0.55c-0.372,0.043 -0.745,0.064 -1.119,0.071c-1.764,0.011 -3.527,0.011 -5.291,0c-0.396,-0.007 -0.79,-0.029 -1.184,-0.073c-0.925,-0.104 -1.837,-0.315 -2.713,-0.629c-1.899,-0.68 -3.613,-1.842 -4.948,-3.353c-1.038,-1.175 -1.841,-2.554 -2.352,-4.036c-0.287,-0.833 -0.482,-1.699 -0.58,-2.575c-0.044,-0.394 -0.066,-0.788 -0.073,-1.184c-0.005,-0.776 -0.005,-1.553 0,-2.33c0.009,-0.476 0.036,-0.951 0.09,-1.424c0.119,-1.038 0.354,-2.062 0.701,-3.047c0.656,-1.863 1.712,-3.578 3.074,-5.007c1.478,-1.55 3.309,-2.755 5.32,-3.491c1.035,-0.379 2.114,-0.634 3.209,-0.759c0.473,-0.054 0.948,-0.081 1.425,-0.09c0.177,-0.001 0.176,-0.001 0.354,0Z" style="fill-rule:nonzero;"/></g><g id="emoji"><path d="M28,16c0,-3.183 -1.264,-6.235 -3.515,-8.485c-2.25,-2.251 -5.302,-3.515 -8.485,-3.515c0,0 0,0 0,0c-6.627,0 -12,5.373 -12,12c0,0.669 0,1.339 0,2c0,2.652 1.054,5.196 2.929,7.071c1.875,1.875 4.419,2.929 7.071,2.929c1.658,0 3.369,0 5,0c4.971,0 9,-4.029 9,-9c0,-0.981 0,-1.99 0,-3Z" style="fill:#fbc546;"/><path d="M20,12.5c0,-0.828 0.672,-1.5 1.5,-1.5c0.828,0 1.5,0.672 1.5,1.5c0,0.916 0,2.084 0,3c0,0.828 -0.672,1.5 -1.5,1.5c-0.828,0 -1.5,-0.672 -1.5,-1.5c0,-0.916 0,-2.084 0,-3Z"/><path d="M10,13l3,0c0,0 0,1.366 0,2.502c0,0.397 -0.158,0.778 -0.439,1.059c-0.281,0.281 -0.662,0.439 -1.059,0.439c-0.001,0 -0.003,0 -0.004,0c-0.397,0 -0.778,-0.158 -1.059,-0.439c-0.281,-0.281 -0.439,-0.662 -0.439,-1.059c0,-1.136 0,-2.502 0,-2.502Z"/><path d="M20.056,20.002l0.056,0.004l0.056,0.008l0.055,0.011l0.054,0.014l0.053,0.017l0.053,0.02l0.051,0.023l0.05,0.026l0.048,0.028l0.047,0.031l0.044,0.034l0.043,0.036l0.041,0.039l0.039,0.041l0.036,0.043l0.034,0.044l0.031,0.047l0.028,0.048l0.026,0.05l0.023,0.051l0.02,0.053l0.017,0.053l0.014,0.054l0.011,0.055l0.008,0.056l0.004,0.056l0.002,0.056l-0.002,0.056l-0.004,0.056l-0.008,0.056l-0.011,0.055l-0.014,0.054l-0.017,0.053l-0.02,0.053l-0.023,0.051l-0.026,0.05l-0.028,0.048l-0.031,0.047l-0.034,0.044l-0.036,0.043l-0.039,0.041l-0.041,0.039l-0.043,0.036l-0.044,0.034l-0.047,0.031l-0.048,0.028l-0.05,0.026l-0.051,0.023l-0.053,0.02l-0.053,0.017l-0.054,0.014l-0.055,0.011l-0.056,0.008l-0.056,0.004l-0.056,0.002l-8,0l-0.056,-0.002l-0.056,-0.004l-0.056,-0.008l-0.055,-0.011l-0.054,-0.014l-0.053,-0.017l-0.053,-0.02l-0.051,-0.023l-0.05,-0.026l-0.048,-0.028l-0.047,-0.031l-0.044,-0.034l-0.043,-0.036l-0.041,-0.039l-0.039,-0.041l-0.036,-0.043l-0.034,-0.044l-0.031,-0.047l-0.028,-0.048l-0.026,-0.05l-0.023,-0.051l-0.02,-0.053l-0.017,-0.053l-0.014,-0.054l-0.011,-0.055l-0.008,-0.056l-0.004,-0.056l-0.002,-0.056l0.002,-0.056l0.004,-0.056l0.008,-0.056l0.011,-0.055l0.014,-0.054l0.017,-0.053l0.02,-0.053l0.023,-0.051l0.026,-0.05l0.028,-0.048l0.031,-0.047l0.034,-0.044l0.036,-0.043l0.039,-0.041l0.041,-0.039l0.043,-0.036l0.044,-0.034l0.047,-0.031l0.048,-0.028l0.05,-0.026l0.051,-0.023l0.053,-0.02l0.053,-0.017l0.054,-0.014l0.055,-0.011l0.056,-0.008l0.056,-0.004l0.056,-0.002l8,0l0.056,0.002Z"/><path d="M12.035,12.001l0.034,0.001l0.034,0.003l0.035,0.005l0.034,0.005l0.034,0.006l0.033,0.008l0.034,0.009l0.033,0.01l0.032,0.011l0.033,0.012l0.032,0.014l0.031,0.014l0.031,0.016l0.03,0.016l0.03,0.018l0.029,0.018l0.028,0.02l0.028,0.021l0.027,0.021l0.026,0.022l0.026,0.024l0.024,0.024l0.024,0.025l0.023,0.026l0.022,0.027l0.021,0.027l0.02,0.028l0.019,0.029l0.018,0.029l0.017,0.03l0.016,0.031l0.015,0.031l0.014,0.031l0.013,0.032l0.012,0.033l0.01,0.033l0.01,0.033l0.008,0.033l0.007,0.034l0.006,0.034l0.005,0.034l0.003,0.035l0.003,0.034l0.001,0.035l0,0.034l-0.001,0.035l-0.003,0.034l-0.003,0.035l-0.005,0.034l-0.006,0.034l-0.007,0.034l-0.008,0.033l-0.01,0.033l-0.01,0.033l-0.012,0.033l-0.013,0.032l-0.014,0.031l-0.015,0.031l-0.016,0.031l-0.017,0.03l-0.018,0.029l-0.019,0.029l-0.02,0.028l-0.021,0.027l-0.022,0.027l-0.023,0.026l-0.024,0.025l-0.024,0.024l-0.026,0.024l-0.026,0.022l-0.027,0.021l-0.028,0.021l-0.028,0.02l-0.029,0.018l-0.03,0.018l-0.03,0.016l-0.031,0.016l-0.031,0.014l-0.032,0.014l-0.033,0.012l-0.032,0.011l-0.033,0.01l-0.034,0.009l-0.033,0.008l-0.034,0.006l-0.034,0.005l-0.035,0.005l-0.034,0.003l-0.034,0.001l-0.035,0.001l-3,0l-0.035,-0.001l-0.034,-0.001l-0.034,-0.003l-0.035,-0.005l-0.034,-0.005l-0.034,-0.006l-0.033,-0.008l-0.034,-0.009l-0.033,-0.01l-0.032,-0.011l-0.033,-0.012l-0.032,-0.014l-0.031,-0.014l-0.031,-0.016l-0.03,-0.016l-0.03,-0.018l-0.029,-0.018l-0.028,-0.02l-0.028,-0.021l-0.027,-0.021l-0.026,-0.022l-0.026,-0.024l-0.024,-0.024l-0.024,-0.025l-0.023,-0.026l-0.022,-0.027l-0.021,-0.027l-0.02,-0.028l-0.019,-0.029l-0.018,-0.029l-0.017,-0.03l-0.016,-0.031l-0.015,-0.031l-0.014,-0.031l-0.013,-0.032l-0.012,-0.033l-0.01,-0.033l-0.01,-0.033l-0.008,-0.033l-0.007,-0.034l-0.006,-0.034l-0.005,-0.034l-0.003,-0.035l-0.003,-0.034l-0.001,-0.035l0,-0.034l0.001,-0.035l0.003,-0.034l0.003,-0.035l0.005,-0.034l0.006,-0.034l0.007,-0.034l0.008,-0.033l0.01,-0.033l0.01,-0.033l0.012,-0.033l0.013,-0.032l0.014,-0.031l0.015,-0.031l0.016,-0.031l0.017,-0.03l0.018,-0.029l0.019,-0.029l0.02,-0.028l0.021,-0.027l0.022,-0.027l0.023,-0.026l0.024,-0.025l0.024,-0.024l0.026,-0.024l0.026,-0.022l0.027,-0.021l0.028,-0.021l0.028,-0.02l0.029,-0.018l0.03,-0.018l0.03,-0.016l0.031,-0.016l0.031,-0.014l0.032,-0.014l0.033,-0.012l0.032,-0.011l0.033,-0.01l0.034,-0.009l0.033,-0.008l0.034,-0.006l0.034,-0.005l0.035,-0.005l0.034,-0.003l0.034,-0.001l0.035,-0.001l3,0l0.035,0.001Z"/><path d="M23.787,7.001l0.042,0.003l0.042,0.004l0.041,0.006l0.042,0.008l0.04,0.009l0.041,0.012l0.039,0.013l0.04,0.014l0.038,0.016l0.038,0.018l0.037,0.02l0.037,0.021l0.035,0.022l0.034,0.024l0.034,0.025l0.032,0.027l0.031,0.028l0.03,0.029l0.029,0.031l0.027,0.032l0.026,0.032l0.025,0.034l0.023,0.035l0.022,0.036l0.02,0.037l0.018,0.037l0.017,0.038l0.016,0.039l0.014,0.04l0.012,0.04l0.01,0.041l0.009,0.041l0.007,0.041l0.005,0.041l0.004,0.042l0.001,0.042l0,0.042l-0.001,0.042l-0.004,0.042l-0.005,0.041l-0.007,0.041l-0.009,0.041l-0.01,0.041l-0.012,0.04l-0.014,0.04l-0.016,0.039l-0.017,0.038l-0.018,0.037l-0.02,0.037l-0.022,0.036l-0.023,0.035l-0.025,0.034l-0.026,0.032l-0.027,0.032l-0.029,0.031l-0.03,0.029l-0.031,0.028l-0.032,0.027l-0.034,0.025l-0.034,0.024l-0.035,0.022l-0.037,0.021l-0.037,0.02l-0.038,0.018l-0.038,0.016l-0.04,0.014l-0.039,0.013l-0.041,0.012l-0.04,0.009l-0.042,0.008l-0.041,0.006l-0.042,0.004l-0.042,0.003l-0.041,0.001l-4.492,0l-0.041,-0.001l-0.042,-0.003l-0.042,-0.004l-0.041,-0.006l-0.042,-0.008l-0.04,-0.009l-0.041,-0.012l-0.039,-0.013l-0.04,-0.014l-0.038,-0.016l-0.038,-0.018l-0.037,-0.02l-0.037,-0.021l-0.035,-0.022l-0.034,-0.024l-0.034,-0.025l-0.032,-0.027l-0.031,-0.028l-0.03,-0.029l-0.029,-0.031l-0.027,-0.032l-0.026,-0.032l-0.025,-0.034l-0.023,-0.035l-0.022,-0.036l-0.02,-0.037l-0.018,-0.037l-0.017,-0.038l-0.016,-0.039l-0.014,-0.04l-0.012,-0.04l-0.01,-0.041l-0.009,-0.041l-0.007,-0.041l-0.005,-0.041l-0.004,-0.042l-0.001,-0.042l0,-0.042l0.001,-0.042l0.004,-0.042l0.005,-0.041l0.007,-0.041l0.009,-0.041l0.01,-0.041l0.012,-0.04l0.014,-0.04l0.016,-0.039l0.017,-0.038l0.018,-0.037l0.02,-0.037l0.022,-0.036l0.023,-0.035l0.025,-0.034l0.026,-0.032l0.027,-0.032l0.029,-0.031l0.03,-0.029l0.031,-0.028l0.032,-0.027l0.034,-0.025l0.034,-0.024l0.035,-0.022l0.037,-0.021l0.037,-0.02l0.038,-0.018l0.038,-0.016l0.04,-0.014l0.039,-0.013l0.041,-0.012l0.04,-0.009l0.042,-0.008l0.041,-0.006l0.042,-0.004l0.042,-0.003l0.041,-0.001l4.492,0l0.041,0.001Z"/></g></svg>