<?xml version="1.0" encoding="UTF-8" standalone="no"?><!DOCTYPE svg PUBLIC "-//W3C//DTD SVG 1.1//EN" "http://www.w3.org/Graphics/SVG/1.1/DTD/svg11.dtd"><svg width="100%" height="100%" viewBox="0 0 32 32" version="1.1" xmlns="http://www.w3.org/2000/svg" xmlns:xlink="http://www.w3.org/1999/xlink" xml:space="preserve" style="fill-rule:evenodd;clip-rule:evenodd;stroke-linejoin:round;stroke-miterlimit:1.41421;">
<metadata>
<rdf:RDF xmlns:cc="http://web.resource.org/cc/"
         xmlns:rdf="http://www.w3.org/1999/02/22-rdf-syntax-ns#"
         xmlns:dc = "http://purl.org/dc/elements/1.1/"
         >

     <rdf:Description rdf:about="">
       <dc:title>Mutant Standard emoji v0.2.3</dc:title>
     </rdf:Description>

    <cc:work rdf:about="">
        <cc:license rdf:resource="http://creativecommons.org/licenses/by-nc-sa/4.0/"/>
        <cc:attributionName>Dzuk</cc:attributionName>
        <cc:attributionURL>http://mutant.tech/</cc:attributionURL>
    </cc:work>

</rdf:RDF>
</metadata>
<rect id="rofl" x="0" y="0" width="32" height="32" style="fill:none;"/><g id="outline"><path d="M19.142,2.001c0.374,0.007 0.747,0.028 1.119,0.071c0.815,0.093 1.62,0.278 2.394,0.55c1.713,0.604 3.265,1.637 4.487,2.981c0.954,1.05 1.702,2.283 2.19,3.614c0.282,0.77 0.476,1.571 0.58,2.384c0.053,0.418 0.079,0.836 0.087,1.257c0.014,2.095 0.014,4.189 0,6.284c-0.008,0.421 -0.034,0.839 -0.087,1.257c-0.104,0.813 -0.298,1.614 -0.58,2.384c-0.488,1.331 -1.236,2.564 -2.19,3.614c-1.222,1.344 -2.774,2.377 -4.487,2.981c-0.774,0.272 -1.579,0.457 -2.394,0.55c-0.372,0.043 -0.745,0.064 -1.119,0.071c-1.108,0.007 -2.215,0.007 -3.322,0c-0.595,-0.011 -1.187,-0.052 -1.775,-0.135c-1.144,-0.16 -2.268,-0.463 -3.337,-0.899c-2.397,-0.979 -4.5,-2.631 -6.026,-4.723c-0.969,-1.329 -1.701,-2.828 -2.151,-4.411c-0.401,-1.411 -0.576,-2.885 -0.521,-4.352c0.059,-1.601 0.396,-3.19 0.991,-4.678c0.638,-1.594 1.57,-3.067 2.738,-4.325c1.25,-1.346 2.764,-2.441 4.434,-3.206c1.245,-0.57 2.573,-0.955 3.93,-1.141c0.572,-0.078 1.146,-0.117 1.723,-0.128c1.105,-0.007 2.21,-0.007 3.316,0Z"/></g><g id="emoji"><path d="M16,4c-3.183,0 -6.235,1.264 -8.485,3.515c-2.251,2.25 -3.515,5.302 -3.515,8.485c0,0 0,0 0,0c0,6.627 5.373,12 12,12c1.01,0 2.019,0 3,0c4.971,0 9,-4.029 9,-9c0,-1.962 0,-4.038 0,-6c0,-4.971 -4.029,-9 -9,-9c-0.981,0 -1.99,0 -3,0Z" style="fill:#fbc546;"/><path d="M16,8l0,16c0,0 0.113,-0.038 0.308,-0.103c3.399,-1.133 5.692,-4.314 5.692,-7.897c0,0 0,0 0,0c0,-3.583 -2.293,-6.764 -5.692,-7.897c-0.195,-0.065 -0.308,-0.103 -0.308,-0.103Z"/><path d="M9.03,8l0.04,0.002l0.039,0.004l0.04,0.005l0.039,0.007l0.039,0.008l0.038,0.01l0.038,0.011l0.038,0.013l0.037,0.014l0.037,0.016l0.035,0.017l0.036,0.019l0.034,0.02l0.034,0.021l0.032,0.023l0.032,0.024l0.031,0.025l0.029,0.026l0.029,0.028l1.856,1.856l0.488,-1.465l0.014,-0.038l0.014,-0.037l0.017,-0.036l0.017,-0.036l0.019,-0.034l0.021,-0.034l0.022,-0.034l0.023,-0.032l0.024,-0.032l0.026,-0.03l0.027,-0.029l0.028,-0.029l0.029,-0.027l0.03,-0.026l0.031,-0.025l0.032,-0.023l0.033,-0.022l0.034,-0.021l0.034,-0.02l0.036,-0.018l0.036,-0.017l0.036,-0.015l0.038,-0.014l0.038,-0.012l0.038,-0.011l0.039,-0.009l0.039,-0.008l0.039,-0.006l0.039,-0.004l0.04,-0.003l0.04,-0.002l0.039,0l0.04,0.002l0.04,0.003l0.039,0.005l0.04,0.007l0.039,0.008l0.038,0.009l0.038,0.011l0.038,0.013l0.037,0.014l0.037,0.015l0.036,0.017l0.035,0.019l0.035,0.02l0.033,0.021l0.033,0.022l0.032,0.024l0.031,0.025l0.03,0.026l0.029,0.027l0.027,0.029l0.027,0.03l0.025,0.03l0.024,0.032l0.023,0.032l0.022,0.034l0.02,0.034l0.019,0.035l0.017,0.036l0.016,0.036l0.015,0.037l0.013,0.038l0.011,0.038l0.011,0.038l0.008,0.039l0.007,0.039l0.005,0.04l0.004,0.039l0.002,0.04l0.001,0.04l-0.001,0.039l-0.002,0.04l-0.005,0.04l-0.005,0.039l-0.007,0.039l-0.009,0.039l-0.01,0.038l-0.012,0.038l-1.362,4.087l-0.484,0.114l-3.81,-3.81l-0.028,-0.029l-0.026,-0.029l-0.025,-0.031l-0.024,-0.032l-0.023,-0.032l-0.021,-0.034l-0.02,-0.034l-0.019,-0.036l-0.017,-0.035l-0.016,-0.037l-0.014,-0.037l-0.013,-0.038l-0.011,-0.038l-0.01,-0.038l-0.008,-0.039l-0.007,-0.039l-0.005,-0.04l-0.004,-0.039l-0.002,-0.04l0,-0.04l0.001,-0.04l0.003,-0.039l0.004,-0.04l0.006,-0.039l0.008,-0.039l0.009,-0.039l0.01,-0.038l0.012,-0.038l0.014,-0.038l0.015,-0.036l0.016,-0.037l0.018,-0.035l0.02,-0.035l0.02,-0.034l0.022,-0.033l0.024,-0.032l0.024,-0.031l0.026,-0.031l0.027,-0.029l0.028,-0.028l0.029,-0.027l0.031,-0.026l0.031,-0.024l0.032,-0.024l0.033,-0.022l0.034,-0.02l0.035,-0.02l0.035,-0.018l0.037,-0.016l0.036,-0.015l0.038,-0.014l0.038,-0.012l0.038,-0.01l0.039,-0.009l0.039,-0.008l0.039,-0.006l0.04,-0.004l0.039,-0.003l0.04,-0.001l0.04,0Z"/><path d="M12.587,18.597l1.362,4.087l0.012,0.038l0.01,0.038l0.009,0.039l0.007,0.039l0.005,0.039l0.005,0.04l0.002,0.04l0.001,0.039l-0.001,0.04l-0.002,0.04l-0.004,0.039l-0.005,0.04l-0.007,0.039l-0.008,0.039l-0.011,0.038l-0.011,0.038l-0.013,0.038l-0.015,0.037l-0.016,0.036l-0.017,0.036l-0.019,0.035l-0.02,0.034l-0.022,0.034l-0.023,0.032l-0.024,0.032l-0.025,0.03l-0.027,0.03l-0.027,0.029l-0.029,0.027l-0.03,0.026l-0.031,0.025l-0.032,0.024l-0.033,0.022l-0.033,0.021l-0.035,0.02l-0.035,0.019l-0.036,0.017l-0.037,0.015l-0.037,0.014l-0.038,0.013l-0.038,0.011l-0.038,0.009l-0.039,0.008l-0.04,0.007l-0.039,0.005l-0.04,0.003l-0.04,0.002l-0.039,0l-0.04,-0.002l-0.04,-0.003l-0.039,-0.004l-0.039,-0.006l-0.039,-0.008l-0.039,-0.009l-0.038,-0.011l-0.038,-0.012l-0.038,-0.014l-0.036,-0.015l-0.036,-0.017l-0.036,-0.018l-0.034,-0.02l-0.034,-0.021l-0.033,-0.022l-0.032,-0.023l-0.031,-0.025l-0.03,-0.026l-0.029,-0.027l-0.028,-0.029l-0.027,-0.029l-0.026,-0.03l-0.024,-0.032l-0.023,-0.032l-0.022,-0.034l-0.021,-0.034l-0.019,-0.034l-0.017,-0.036l-0.017,-0.036l-0.014,-0.037l-0.014,-0.038l-0.488,-1.465l-1.856,1.856l-0.029,0.028l-0.029,0.026l-0.031,0.025l-0.032,0.024l-0.032,0.023l-0.034,0.021l-0.034,0.02l-0.036,0.019l-0.035,0.017l-0.037,0.016l-0.037,0.014l-0.038,0.013l-0.038,0.011l-0.038,0.01l-0.039,0.008l-0.039,0.007l-0.04,0.005l-0.039,0.004l-0.04,0.002l-0.04,0l-0.04,-0.001l-0.039,-0.003l-0.04,-0.004l-0.039,-0.006l-0.039,-0.008l-0.039,-0.009l-0.038,-0.01l-0.038,-0.012l-0.038,-0.014l-0.036,-0.015l-0.037,-0.016l-0.035,-0.018l-0.035,-0.02l-0.034,-0.02l-0.033,-0.022l-0.032,-0.024l-0.031,-0.024l-0.031,-0.026l-0.029,-0.027l-0.028,-0.028l-0.027,-0.029l-0.026,-0.031l-0.024,-0.031l-0.024,-0.032l-0.022,-0.033l-0.02,-0.034l-0.02,-0.035l-0.018,-0.035l-0.016,-0.037l-0.015,-0.036l-0.014,-0.038l-0.012,-0.038l-0.01,-0.038l-0.009,-0.039l-0.008,-0.039l-0.006,-0.039l-0.004,-0.04l-0.003,-0.039l-0.001,-0.04l0,-0.04l0.002,-0.04l0.004,-0.039l0.005,-0.04l0.007,-0.039l0.008,-0.039l0.01,-0.038l0.011,-0.038l0.013,-0.038l0.014,-0.037l0.016,-0.037l0.017,-0.035l0.019,-0.036l0.02,-0.034l0.021,-0.034l0.023,-0.032l0.024,-0.032l0.025,-0.031l0.026,-0.029l0.028,-0.029l3.81,-3.81l0.484,0.114Z"/><path d="M19.324,22.667c0.193,0.066 0.382,0.142 0.565,0.233c0.416,0.207 0.798,0.478 1.13,0.803c0.639,0.623 1.081,1.436 1.257,2.31c0.104,0.513 0.116,1.044 0.037,1.561c-0.061,0.4 -0.178,0.793 -0.345,1.162c-0.207,0.458 -0.491,0.879 -0.838,1.243c-0.371,0.389 -0.812,0.71 -1.296,0.943c-0.499,0.241 -1.043,0.387 -1.596,0.429c-0.583,0.045 -1.174,-0.026 -1.729,-0.208c-0.573,-0.187 -1.105,-0.491 -1.558,-0.888c-0.39,-0.343 -0.72,-0.754 -0.969,-1.21c-0.1,-0.181 -0.184,-0.37 -0.259,-0.563l-0.031,-0.083l-0.026,-0.075l-2.308,-6.925l1.041,-1.041c2.309,0.77 4.617,1.539 6.925,2.309Zm-1.314,-22.03c0.189,0.007 0.377,0.022 0.564,0.05c0.436,0.067 0.862,0.199 1.26,0.391c0.517,0.248 0.984,0.597 1.369,1.022c0.338,0.372 0.613,0.801 0.809,1.264c0.173,0.409 0.284,0.844 0.329,1.285c0.045,0.446 0.024,0.899 -0.065,1.338c-0.199,0.989 -0.738,1.894 -1.512,2.541c-0.383,0.321 -0.817,0.568 -1.282,0.749l-0.083,0.031l-0.075,0.025l-6.925,2.309l-1.041,-1.041c0.778,-2.334 1.533,-4.675 2.334,-7c0.153,-0.414 0.356,-0.805 0.618,-1.16c0.583,-0.786 1.423,-1.367 2.364,-1.635c0.395,-0.112 0.801,-0.166 1.21,-0.17c0.042,0 0.084,0.001 0.126,0.001Z"/><path d="M14,23c0,0 0.932,2.796 1.561,4.682c0.334,1.004 1.275,1.682 2.333,1.682c0.001,0 0.001,0 0.002,0c1.363,0 2.468,-1.105 2.468,-2.468c0,-0.001 0,-0.001 0,-0.002c0,-1.058 -0.678,-1.999 -1.682,-2.333c-1.886,-0.629 -4.682,-1.561 -4.682,-1.561Z" style="fill:#fff;"/><path d="M14,9c0,0 0.932,-2.796 1.561,-4.682c0.334,-1.004 1.275,-1.682 2.333,-1.682c0.001,0 0.001,0 0.002,0c1.363,0 2.468,1.105 2.468,2.468c0,0.001 0,0.001 0,0.002c0,1.058 -0.678,1.999 -1.682,2.333c-1.886,0.629 -4.682,1.561 -4.682,1.561Z" style="fill:#fff;"/></g></svg>