<?xml version="1.0" encoding="UTF-8" standalone="no"?><!DOCTYPE svg PUBLIC "-//W3C//DTD SVG 1.1//EN" "http://www.w3.org/Graphics/SVG/1.1/DTD/svg11.dtd"><svg width="100%" height="100%" viewBox="0 0 32 32" version="1.1" xmlns="http://www.w3.org/2000/svg" xmlns:xlink="http://www.w3.org/1999/xlink" xml:space="preserve" style="fill-rule:evenodd;clip-rule:evenodd;stroke-linejoin:round;stroke-miterlimit:1.41421;">
<metadata>
<rdf:RDF xmlns:cc="http://web.resource.org/cc/"
         xmlns:rdf="http://www.w3.org/1999/02/22-rdf-syntax-ns#"
         xmlns:dc = "http://purl.org/dc/elements/1.1/"
         >

     <rdf:Description rdf:about="">
       <dc:title>Mutant Standard emoji v0.2.3</dc:title>
     </rdf:Description>

    <cc:work rdf:about="">
        <cc:license rdf:resource="http://creativecommons.org/licenses/by-nc-sa/4.0/"/>
        <cc:attributionName>Dzuk</cc:attributionName>
        <cc:attributionURL>http://mutant.tech/</cc:attributionURL>
    </cc:work>

</rdf:RDF>
</metadata>
<rect id="rolling_eyes" x="0" y="0" width="32" height="32" style="fill:none;"/><g id="outline"><path d="M16.174,2.001c0.462,0.009 0.922,0.034 1.381,0.086c1.022,0.114 2.032,0.341 3.004,0.676c2.004,0.69 3.842,1.839 5.341,3.338c1.458,1.458 2.585,3.237 3.28,5.179c0.366,1.022 0.613,2.086 0.733,3.165c0.052,0.459 0.077,0.919 0.086,1.381c0.005,0.774 0.005,1.549 0,2.323c-0.007,0.396 -0.029,0.79 -0.073,1.184c-0.103,0.925 -0.315,1.837 -0.629,2.713c-0.579,1.617 -1.508,3.104 -2.707,4.333c-1.269,1.301 -2.833,2.306 -4.544,2.918c-0.876,0.314 -1.788,0.525 -2.713,0.629c-0.394,0.044 -0.788,0.066 -1.184,0.073c-1.433,0.009 -2.865,0.009 -4.298,0c-0.396,-0.007 -0.79,-0.029 -1.184,-0.073c-0.925,-0.104 -1.837,-0.315 -2.713,-0.629c-1.899,-0.68 -3.613,-1.842 -4.948,-3.353c-1.038,-1.175 -1.841,-2.554 -2.352,-4.036c-0.287,-0.833 -0.482,-1.699 -0.58,-2.575c-0.044,-0.394 -0.066,-0.788 -0.073,-1.184c-0.005,-0.776 -0.005,-1.553 0,-2.33c0.009,-0.476 0.036,-0.951 0.09,-1.424c0.119,-1.038 0.354,-2.062 0.701,-3.047c0.656,-1.863 1.712,-3.578 3.074,-5.007c1.478,-1.55 3.309,-2.755 5.32,-3.491c1.035,-0.379 2.114,-0.634 3.209,-0.759c0.473,-0.054 0.948,-0.081 1.425,-0.09c0.177,-0.001 0.176,-0.001 0.354,0Z" style="fill-rule:nonzero;"/></g><g id="emoji"><path d="M28,16c0,-3.183 -1.264,-6.235 -3.515,-8.485c-2.25,-2.251 -5.302,-3.515 -8.485,-3.515c0,0 0,0 0,0c-6.627,0 -12,5.373 -12,12c0,0.669 0,1.339 0,2c0,2.652 1.054,5.196 2.929,7.071c1.875,1.875 4.419,2.929 7.071,2.929c1.322,0 2.678,0 4,0c2.652,0 5.196,-1.054 7.071,-2.929c1.875,-1.875 2.929,-4.419 2.929,-7.071c0,-0.661 0,-1.331 0,-2Z" style="fill:#fbc546;"/><path d="M19.048,21.001l0.049,0.004l0.047,0.005l0.048,0.009l0.047,0.01l0.047,0.013l0.046,0.015l0.045,0.017l0.044,0.019l0.044,0.022l0.042,0.023l0.041,0.026l0.04,0.027l0.038,0.029l0.037,0.031l0.035,0.033l0.034,0.035l0.032,0.036l0.031,0.038l0.028,0.039l0.026,0.04l0.025,0.042l0.022,0.043l0.021,0.044l0.018,0.044l0.016,0.046l0.014,0.046l0.011,0.047l0.01,0.048l0.007,0.047l0.004,0.049l0.003,0.048l0,0.048l-0.003,0.048l-0.004,0.049l-0.007,0.047l-0.01,0.048l-0.011,0.047l-0.014,0.046l-0.016,0.046l-0.018,0.044l-0.021,0.044l-0.022,0.043l-0.025,0.042l-0.026,0.04l-0.028,0.039l-0.031,0.038l-0.032,0.036l-0.034,0.035l-0.035,0.033l-0.037,0.031l-0.038,0.029l-0.04,0.027l-0.041,0.026l-0.042,0.023l-0.044,0.022l-0.044,0.019l-0.045,0.017l-0.046,0.015l-0.047,0.013l-0.047,0.01l-0.048,0.009l-0.047,0.005l-0.049,0.004l-0.048,0.001l-6,0l-0.048,-0.001l-0.049,-0.004l-0.048,-0.005l-0.047,-0.009l-0.047,-0.01l-0.047,-0.013l-0.046,-0.015l-0.045,-0.017l-0.044,-0.019l-0.044,-0.022l-0.042,-0.023l-0.041,-0.026l-0.04,-0.027l-0.038,-0.029l-0.037,-0.031l-0.036,-0.033l-0.033,-0.035l-0.032,-0.036l-0.031,-0.038l-0.028,-0.039l-0.026,-0.04l-0.025,-0.042l-0.022,-0.043l-0.021,-0.044l-0.018,-0.044l-0.016,-0.046l-0.014,-0.046l-0.011,-0.047l-0.01,-0.048l-0.007,-0.047l-0.004,-0.049l-0.003,-0.048l0,-0.048l0.003,-0.048l0.004,-0.049l0.007,-0.047l0.01,-0.048l0.011,-0.047l0.014,-0.046l0.016,-0.046l0.018,-0.044l0.021,-0.044l0.022,-0.043l0.025,-0.042l0.026,-0.04l0.028,-0.039l0.031,-0.038l0.032,-0.036l0.033,-0.035l0.036,-0.033l0.037,-0.031l0.038,-0.029l0.04,-0.027l0.041,-0.026l0.042,-0.023l0.044,-0.022l0.044,-0.019l0.045,-0.017l0.046,-0.015l0.047,-0.013l0.047,-0.01l0.047,-0.009l0.048,-0.005l0.049,-0.004l0.048,-0.001l6,0l0.048,0.001Z"/><path d="M25,14.498c0,-1.932 -1.566,-3.498 -3.498,-3.498c-0.001,0 -0.003,0 -0.004,0c-1.932,0 -3.498,1.566 -3.498,3.498c0,0.333 0,0.671 0,1.004c0,1.932 1.566,3.498 3.498,3.498c0.001,0 0.003,0 0.004,0c1.932,0 3.498,-1.566 3.498,-3.498c0,-0.333 0,-0.671 0,-1.004Z" style="fill:#fff;"/><clipPath id="_clip1"><path d="M25,14.498c0,-1.932 -1.566,-3.498 -3.498,-3.498c-0.001,0 -0.003,0 -0.004,0c-1.932,0 -3.498,1.566 -3.498,3.498c0,0.333 0,0.671 0,1.004c0,1.932 1.566,3.498 3.498,3.498c0.001,0 0.003,0 0.004,0c1.932,0 3.498,-1.566 3.498,-3.498c0,-0.333 0,-0.671 0,-1.004Z"/></clipPath><g clip-path="url(#_clip1)"><circle cx="21.5" cy="11.5" r="3.5"/></g><path d="M14,14.498c0,-1.932 -1.566,-3.498 -3.498,-3.498c-0.001,0 -0.003,0 -0.004,0c-1.932,0 -3.498,1.566 -3.498,3.498c0,0.333 0,0.671 0,1.004c0,1.932 1.566,3.498 3.498,3.498c0.001,0 0.003,0 0.004,0c1.932,0 3.498,-1.566 3.498,-3.498c0,-0.333 0,-0.671 0,-1.004Z" style="fill:#fff;"/><clipPath id="_clip2"><path d="M14,14.498c0,-1.932 -1.566,-3.498 -3.498,-3.498c-0.001,0 -0.003,0 -0.004,0c-1.932,0 -3.498,1.566 -3.498,3.498c0,0.333 0,0.671 0,1.004c0,1.932 1.566,3.498 3.498,3.498c0.001,0 0.003,0 0.004,0c1.932,0 3.498,-1.566 3.498,-3.498c0,-0.333 0,-0.671 0,-1.004Z"/></clipPath><g clip-path="url(#_clip2)"><circle cx="10.5" cy="11.5" r="3.5"/></g></g></svg>