<?xml version="1.0" encoding="UTF-8" standalone="no"?><!DOCTYPE svg PUBLIC "-//W3C//DTD SVG 1.1//EN" "http://www.w3.org/Graphics/SVG/1.1/DTD/svg11.dtd"><svg width="100%" height="100%" viewBox="0 0 32 32" version="1.1" xmlns="http://www.w3.org/2000/svg" xmlns:xlink="http://www.w3.org/1999/xlink" xml:space="preserve" style="fill-rule:evenodd;clip-rule:evenodd;stroke-linejoin:round;stroke-miterlimit:1.41421;">
<metadata>
<rdf:RDF xmlns:cc="http://web.resource.org/cc/"
         xmlns:rdf="http://www.w3.org/1999/02/22-rdf-syntax-ns#"
         xmlns:dc = "http://purl.org/dc/elements/1.1/"
         >

     <rdf:Description rdf:about="">
       <dc:title>Mutant Standard emoji v0.2.3</dc:title>
     </rdf:Description>

    <cc:work rdf:about="">
        <cc:license rdf:resource="http://creativecommons.org/licenses/by-nc-sa/4.0/"/>
        <cc:attributionName>Dzuk</cc:attributionName>
        <cc:attributionURL>http://mutant.tech/</cc:attributionURL>
    </cc:work>

</rdf:RDF>
</metadata>
<rect id="scared_cold_sweat" x="0" y="0" width="32" height="32" style="fill:none;"/><g id="outline"><path d="M16.174,2.001c0.462,0.009 0.922,0.034 1.381,0.086c1.022,0.114 2.032,0.341 3.004,0.676c1.949,0.671 3.741,1.776 5.217,3.215c1.518,1.481 2.689,3.305 3.404,5.301c0.347,0.968 0.587,1.975 0.713,2.995c0.064,0.515 0.096,1.033 0.106,1.552c0.007,1.105 0.007,2.21 0,3.316c-0.007,0.374 -0.028,0.747 -0.071,1.119c-0.093,0.815 -0.278,1.62 -0.55,2.394c-0.545,1.547 -1.44,2.964 -2.6,4.123c-1.127,1.128 -2.498,2.006 -3.996,2.554c-0.813,0.298 -1.661,0.498 -2.521,0.596c-0.372,0.043 -0.745,0.064 -1.119,0.071c-2.095,0.013 -4.189,0.013 -6.284,0c-0.374,-0.007 -0.747,-0.028 -1.119,-0.071c-0.86,-0.098 -1.708,-0.298 -2.521,-0.596c-1.498,-0.548 -2.869,-1.426 -3.996,-2.554c-1.16,-1.159 -2.055,-2.576 -2.6,-4.123c-0.272,-0.774 -0.457,-1.579 -0.55,-2.394c-0.043,-0.372 -0.064,-0.745 -0.071,-1.119c-0.007,-1.108 -0.007,-2.215 0,-3.323c0.01,-0.535 0.044,-1.068 0.111,-1.6c0.132,-1.034 0.38,-2.053 0.738,-3.033c0.717,-1.958 1.878,-3.746 3.37,-5.203c1.453,-1.419 3.212,-2.516 5.128,-3.191c0.985,-0.347 2.009,-0.582 3.047,-0.701c0.473,-0.054 0.948,-0.081 1.425,-0.09c0.177,-0.001 0.177,-0.001 0.354,0Z" style="fill-rule:nonzero;"/></g><g id="emoji"><path d="M28,16c0,-3.183 -1.264,-6.235 -3.515,-8.485c-2.25,-2.251 -5.302,-3.515 -8.485,-3.515c0,0 0,0 0,0c-6.627,0 -12,5.373 -12,12c0,1.01 0,2.019 0,3c0,4.971 4.029,9 9,9c1.962,0 4.038,0 6,0c4.971,0 9,-4.029 9,-9c0,-0.981 0,-1.99 0,-3Z" style="fill:#fbc546;"/><clipPath id="_clip1"><path d="M28,16c0,-3.183 -1.264,-6.235 -3.515,-8.485c-2.25,-2.251 -5.302,-3.515 -8.485,-3.515c0,0 0,0 0,0c-6.627,0 -12,5.373 -12,12c0,1.01 0,2.019 0,3c0,4.971 4.029,9 9,9c1.962,0 4.038,0 6,0c4.971,0 9,-4.029 9,-9c0,-0.981 0,-1.99 0,-3Z"/></clipPath><g clip-path="url(#_clip1)"><path d="M26,8.5c0,-0.398 -0.158,-0.779 -0.439,-1.061c-0.282,-0.281 -0.663,-0.439 -1.061,-0.439c-0.398,0 -0.779,0.158 -1.061,0.439c-0.281,0.282 -0.439,0.663 -0.439,1.061c0,1.181 0,2.819 0,4c0,0.398 0.158,0.779 0.439,1.061c0.282,0.281 0.663,0.439 1.061,0.439c0.398,0 0.779,-0.158 1.061,-0.439c0.281,-0.282 0.439,-0.663 0.439,-1.061c0,-1.181 0,-2.819 0,-4Z" style="fill:#579aff;"/><path d="M22,6.5c0,-0.398 -0.158,-0.779 -0.439,-1.061c-0.282,-0.281 -0.663,-0.439 -1.061,-0.439c-0.398,0 -0.779,0.158 -1.061,0.439c-0.281,0.282 -0.439,0.663 -0.439,1.061c0,1.43 0,3.57 0,5c0,0.398 0.158,0.779 0.439,1.061c0.282,0.281 0.663,0.439 1.061,0.439c0.398,0 0.779,-0.158 1.061,-0.439c0.281,-0.282 0.439,-0.663 0.439,-1.061c0,-1.43 0,-3.57 0,-5Z" style="fill:#579aff;"/><path d="M18,5.5c0,-0.398 -0.158,-0.779 -0.439,-1.061c-0.282,-0.281 -0.663,-0.439 -1.061,-0.439c-0.398,0 -0.779,0.158 -1.061,0.439c-0.281,0.282 -0.439,0.663 -0.439,1.061c0,1.43 0,3.57 0,5c0,0.398 0.158,0.779 0.439,1.061c0.282,0.281 0.663,0.439 1.061,0.439c0.398,0 0.779,-0.158 1.061,-0.439c0.281,-0.282 0.439,-0.663 0.439,-1.061c0,-1.43 0,-3.57 0,-5Z" style="fill:#579aff;"/></g><path d="M31.5,8.529c0.294,0.602 0.458,1.259 0.467,1.931c0.011,0.952 -0.288,1.897 -0.846,2.668c-0.316,0.437 -0.711,0.815 -1.161,1.112c-0.336,0.222 -0.703,0.398 -1.086,0.522c-0.477,0.154 -0.98,0.227 -1.481,0.215c-0.539,-0.013 -1.074,-0.124 -1.573,-0.326c-0.518,-0.21 -0.993,-0.518 -1.398,-0.902c-0.41,-0.39 -0.745,-0.858 -0.982,-1.373c-0.251,-0.546 -0.389,-1.143 -0.405,-1.744c-0.013,-0.492 0.056,-0.985 0.203,-1.455c0.07,-0.223 0.159,-0.438 0.262,-0.648l3.264,-6.529l1.472,0c1.088,2.176 2.176,4.352 3.264,6.529Z" style="fill-rule:nonzero;"/><path d="M27.5,5c0,0 -1.318,2.637 -2.207,4.414c-0.474,0.947 -0.288,2.091 0.461,2.84c0,0 0,0 0.001,0.001c0.964,0.964 2.526,0.964 3.49,0c0.001,-0.001 0.001,-0.001 0.001,-0.001c0.749,-0.749 0.935,-1.893 0.461,-2.84c-0.889,-1.777 -2.207,-4.414 -2.207,-4.414Z" style="fill:#fff;"/><path d="M12,12.09c0,-0.602 -0.488,-1.09 -1.09,-1.09c-0.001,0 -0.001,0 -0.002,0l-2.908,2.908c0,0.045 0,0.09 0,0.134c0,0.519 0.206,1.017 0.573,1.385c0.368,0.367 0.866,0.573 1.385,0.573c0.014,0 0.028,0 0.042,0c0.53,0 1.039,-0.211 1.414,-0.586c0.375,-0.375 0.586,-0.884 0.586,-1.414c0,-0.652 0,-1.351 0,-1.91Z"/><path d="M24,13.908l-2.908,-2.908c-0.001,0 -0.001,0 -0.002,0c-0.602,0 -1.09,0.488 -1.09,1.09c0,0.559 0,1.258 0,1.91c0,0.53 0.211,1.039 0.586,1.414c0.375,0.375 0.884,0.586 1.414,0.586c0.014,0 0.028,0 0.042,0c0.519,0 1.017,-0.206 1.385,-0.573c0.367,-0.368 0.573,-0.866 0.573,-1.385c0,-0.044 0,-0.089 0,-0.134Z"/><path d="M11.242,23.103c-0.376,0.151 -0.805,0.06 -1.088,-0.23c-0.282,-0.289 -0.362,-0.72 -0.203,-1.092c0.152,-0.354 0.312,-0.728 0.473,-1.104c0.956,-2.231 3.149,-3.677 5.576,-3.677c0,0 0,0 0,0c2.427,0 4.62,1.446 5.576,3.677c0.161,0.376 0.321,0.75 0.473,1.104c0.159,0.372 0.079,0.803 -0.203,1.092c-0.283,0.29 -0.712,0.381 -1.088,0.23c-0.517,-0.207 -1.049,-0.419 -1.506,-0.602c-0.827,-0.331 -1.71,-0.501 -2.6,-0.501c-0.42,0 -0.884,0 -1.304,0c-0.89,0 -1.773,0.17 -2.6,0.501c-0.457,0.183 -0.989,0.395 -1.506,0.602Z"/></g></svg>