<?xml version="1.0" encoding="UTF-8" standalone="no"?><!DOCTYPE svg PUBLIC "-//W3C//DTD SVG 1.1//EN" "http://www.w3.org/Graphics/SVG/1.1/DTD/svg11.dtd"><svg width="100%" height="100%" viewBox="0 0 32 32" version="1.1" xmlns="http://www.w3.org/2000/svg" xmlns:xlink="http://www.w3.org/1999/xlink" xml:space="preserve" style="fill-rule:evenodd;clip-rule:evenodd;stroke-linejoin:round;stroke-miterlimit:1.41421;">
<metadata>
<rdf:RDF xmlns:cc="http://web.resource.org/cc/"
         xmlns:rdf="http://www.w3.org/1999/02/22-rdf-syntax-ns#"
         xmlns:dc = "http://purl.org/dc/elements/1.1/"
         >

     <rdf:Description rdf:about="">
       <dc:title>Mutant Standard emoji v0.2.3</dc:title>
     </rdf:Description>

    <cc:work rdf:about="">
        <cc:license rdf:resource="http://creativecommons.org/licenses/by-nc-sa/4.0/"/>
        <cc:attributionName>Dzuk</cc:attributionName>
        <cc:attributionURL>http://mutant.tech/</cc:attributionURL>
    </cc:work>

</rdf:RDF>
</metadata>
<rect id="scream" x="0" y="0" width="32" height="32" style="fill:none;"/><clipPath id="_clip1"><rect x="0" y="0" width="32" height="32"/></clipPath><g clip-path="url(#_clip1)"><g id="outline"><path d="M16.174,2.001c0.462,0.009 0.922,0.034 1.381,0.086c1.022,0.114 2.032,0.341 3.004,0.676c1.839,0.634 3.54,1.653 4.965,2.976c1.64,1.521 2.902,3.435 3.656,5.541c0.347,0.968 0.586,1.973 0.713,2.994c0.064,0.515 0.096,1.033 0.106,1.552c0.005,0.774 0.005,1.549 0,2.323c-0.007,0.396 -0.029,0.79 -0.073,1.184c-0.098,0.876 -0.293,1.742 -0.58,2.575c-0.511,1.482 -1.314,2.861 -2.352,4.036c-1.335,1.511 -3.049,2.673 -4.948,3.353c-0.829,0.297 -1.692,0.503 -2.566,0.612c-0.442,0.054 -0.886,0.082 -1.331,0.09c-1.433,0.009 -2.865,0.009 -4.298,0c-0.445,-0.008 -0.889,-0.036 -1.331,-0.091c-0.874,-0.108 -1.737,-0.314 -2.566,-0.611c-1.711,-0.612 -3.275,-1.617 -4.544,-2.918c-1.199,-1.229 -2.128,-2.716 -2.707,-4.333c-0.314,-0.876 -0.526,-1.788 -0.629,-2.713c-0.044,-0.394 -0.066,-0.788 -0.073,-1.184c-0.005,-0.776 -0.005,-1.553 0,-2.329c0.009,-0.477 0.036,-0.952 0.09,-1.425c0.119,-1.038 0.354,-2.062 0.701,-3.047c0.693,-1.969 1.833,-3.772 3.308,-5.248c1.435,-1.434 3.18,-2.552 5.086,-3.25c0.98,-0.358 1.999,-0.606 3.033,-0.738c0.532,-0.067 1.065,-0.101 1.601,-0.111c0.177,-0.001 0.177,-0.001 0.354,0Z" style="fill-rule:nonzero;"/></g><g id="emoji"><path d="M28,16c0,-3.183 -1.264,-6.235 -3.515,-8.485c-2.25,-2.251 -5.302,-3.515 -8.485,-3.515c0,0 0,0 0,0c-6.627,0 -12,5.373 -12,12c0,0.669 0,1.339 0,2c0,2.652 1.054,5.196 2.929,7.071c1.875,1.875 4.419,2.929 7.071,2.929c1.322,0 2.678,0 4,0c2.652,0 5.196,-1.054 7.071,-2.929c1.875,-1.875 2.929,-4.419 2.929,-7.071c0,-0.661 0,-1.331 0,-2Z" style="fill:#fbc546;"/><clipPath id="_clip2"><path d="M28,16c0,-3.183 -1.264,-6.235 -3.515,-8.485c-2.25,-2.251 -5.302,-3.515 -8.485,-3.515c0,0 0,0 0,0c-6.627,0 -12,5.373 -12,12c0,0.669 0,1.339 0,2c0,2.652 1.054,5.196 2.929,7.071c1.875,1.875 4.419,2.929 7.071,2.929c1.322,0 2.678,0 4,0c2.652,0 5.196,-1.054 7.071,-2.929c1.875,-1.875 2.929,-4.419 2.929,-7.071c0,-0.661 0,-1.331 0,-2Z"/></clipPath><g clip-path="url(#_clip2)"><path d="M26,8.5c0,-0.398 -0.158,-0.779 -0.439,-1.061c-0.282,-0.281 -0.663,-0.439 -1.061,-0.439c-0.398,0 -0.779,0.158 -1.061,0.439c-0.281,0.282 -0.439,0.663 -0.439,1.061c0,1.181 0,2.819 0,4c0,0.398 0.158,0.779 0.439,1.061c0.282,0.281 0.663,0.439 1.061,0.439c0.398,0 0.779,-0.158 1.061,-0.439c0.281,-0.282 0.439,-0.663 0.439,-1.061c0,-1.181 0,-2.819 0,-4Z" style="fill:#579aff;"/><path d="M22,6.5c0,-0.398 -0.158,-0.779 -0.439,-1.061c-0.282,-0.281 -0.663,-0.439 -1.061,-0.439c-0.398,0 -0.779,0.158 -1.061,0.439c-0.281,0.282 -0.439,0.663 -0.439,1.061c0,1.43 0,3.57 0,5c0,0.398 0.158,0.779 0.439,1.061c0.282,0.281 0.663,0.439 1.061,0.439c0.398,0 0.779,-0.158 1.061,-0.439c0.281,-0.282 0.439,-0.663 0.439,-1.061c0,-1.43 0,-3.57 0,-5Z" style="fill:#579aff;"/><path d="M18,5.5c0,-0.398 -0.158,-0.779 -0.439,-1.061c-0.282,-0.281 -0.663,-0.439 -1.061,-0.439c-0.398,0 -0.779,0.158 -1.061,0.439c-0.281,0.282 -0.439,0.663 -0.439,1.061c0,1.43 0,3.57 0,5c0,0.398 0.158,0.779 0.439,1.061c0.282,0.281 0.663,0.439 1.061,0.439c0.398,0 0.779,-0.158 1.061,-0.439c0.281,-0.282 0.439,-0.663 0.439,-1.061c0,-1.43 0,-3.57 0,-5Z" style="fill:#579aff;"/></g><path d="M18,20c0,-1.105 -0.895,-2 -2,-2c-1.105,0 -2,0.895 -2,2c0,0.941 0,2.059 0,3c0,1.105 0.895,2 2,2c1.105,0 2,-0.895 2,-2c0,-0.941 0,-2.059 0,-3Z"/><path d="M25,15c0,-1.326 -0.527,-2.598 -1.464,-3.536c-0.938,-0.937 -2.21,-1.464 -3.536,-1.464c-1.105,0 -2,0.895 -2,2c0,0.315 0,0.652 0,1c0,1.326 0.527,2.598 1.464,3.536c0.938,0.937 2.21,1.464 3.536,1.464c1.105,0 2,-0.895 2,-2c0,-0.315 0,-0.652 0,-1Z"/><path d="M7,15c0,-1.326 0.527,-2.598 1.464,-3.536c0.938,-0.937 2.21,-1.464 3.536,-1.464c1.105,0 2,0.895 2,2c0,0.315 0,0.652 0,1c0,1.326 -0.527,2.598 -1.464,3.536c-0.938,0.937 -2.21,1.464 -3.536,1.464c-1.105,0 -2,-0.895 -2,-2c0,-0.315 0,-0.652 0,-1Z"/><path d="M23.099,20.001c0.427,0.016 0.847,0.089 1.25,0.233c0.586,0.21 1.12,0.558 1.549,1.008c0.36,0.379 0.645,0.829 0.834,1.317c0.166,0.431 0.25,0.882 0.267,1.342c0.007,0.566 -0.018,1.133 0.003,1.699c0.007,0.122 0.023,0.243 0.05,0.362l0.009,0.038l1.424,5.692l-0.24,0.308l-9.245,0c0,-2.701 -0.033,-5.402 0.001,-8.102c0.017,-0.436 0.092,-0.863 0.242,-1.274c0.211,-0.574 0.554,-1.097 0.997,-1.519c0.396,-0.378 0.87,-0.674 1.385,-0.862c0.41,-0.15 0.837,-0.225 1.273,-0.242c0.101,-0.001 0.1,-0.001 0.201,0Z" style="fill-rule:nonzero;"/><path d="M9.102,20.001c0.136,0.005 0.27,0.014 0.405,0.031c0.329,0.042 0.652,0.124 0.96,0.246c0.658,0.259 1.242,0.695 1.679,1.252c0.28,0.356 0.498,0.759 0.643,1.187c0.139,0.411 0.206,0.838 0.211,1.27l0,8.013l-9.245,0l-0.24,-0.308c0.483,-1.929 1.038,-3.842 1.445,-5.789c0.012,-0.06 0.021,-0.12 0.028,-0.182c0.007,-0.061 0.01,-0.122 0.012,-0.183c0.004,-0.546 -0.006,-1.091 0.001,-1.637c0.017,-0.46 0.101,-0.911 0.267,-1.342c0.189,-0.488 0.474,-0.938 0.834,-1.317c0.429,-0.45 0.963,-0.798 1.549,-1.008c0.403,-0.144 0.823,-0.217 1.25,-0.233c0.101,-0.001 0.1,-0.001 0.201,0Z" style="fill-rule:nonzero;"/><path d="M25,24c0,-0.53 -0.211,-1.039 -0.586,-1.414c-0.375,-0.375 -0.884,-0.586 -1.414,-0.586c-1.105,0 -2,0.895 -2,2c0,2.37 0,6 0,6l5,0c0,0 -0.615,-2.461 -0.881,-3.522c-0.079,-0.318 -0.119,-0.643 -0.119,-0.97c0,-0.385 0,-0.946 0,-1.508Z" style="fill:#fbc546;"/><path d="M7,24c0,-0.53 0.211,-1.039 0.586,-1.414c0.375,-0.375 0.884,-0.586 1.414,-0.586c1.105,0 2,0.895 2,2c0,2.37 0,6 0,6l-5,0c0,0 0.615,-2.461 0.881,-3.522c0.079,-0.318 0.119,-0.643 0.119,-0.97c0,-0.385 0,-0.946 0,-1.508Z" style="fill:#fbc546;"/></g></g></svg>