<?xml version="1.0" encoding="UTF-8" standalone="no"?><!DOCTYPE svg PUBLIC "-//W3C//DTD SVG 1.1//EN" "http://www.w3.org/Graphics/SVG/1.1/DTD/svg11.dtd"><svg width="100%" height="100%" viewBox="0 0 32 32" version="1.1" xmlns="http://www.w3.org/2000/svg" xmlns:xlink="http://www.w3.org/1999/xlink" xml:space="preserve" style="fill-rule:evenodd;clip-rule:evenodd;stroke-linejoin:round;stroke-miterlimit:1.41421;">
<metadata>
<rdf:RDF xmlns:cc="http://web.resource.org/cc/"
         xmlns:rdf="http://www.w3.org/1999/02/22-rdf-syntax-ns#"
         xmlns:dc = "http://purl.org/dc/elements/1.1/"
         >

     <rdf:Description rdf:about="">
       <dc:title>Mutant Standard emoji v0.2.3</dc:title>
     </rdf:Description>

    <cc:work rdf:about="">
        <cc:license rdf:resource="http://creativecommons.org/licenses/by-nc-sa/4.0/"/>
        <cc:attributionName>Dzuk</cc:attributionName>
        <cc:attributionURL>http://mutant.tech/</cc:attributionURL>
    </cc:work>

</rdf:RDF>
</metadata>
<rect id="shit" x="0" y="0" width="32" height="32" style="fill:none;"/><g id="outline"><path d="M15.641,3.01c0.186,0.007 0.372,0.019 0.557,0.042c0.362,0.046 0.72,0.129 1.066,0.246c1.261,0.426 2.343,1.317 3.006,2.471c0.178,0.31 0.326,0.637 0.441,0.976c0.043,0.129 0.08,0.259 0.116,0.39l0.005,0.02c0.085,0.021 0.084,0.022 0.173,0.045l0.13,0.039c0.171,0.056 0.34,0.115 0.506,0.186c0.368,0.155 0.719,0.351 1.044,0.582c1.052,0.748 1.82,1.862 2.142,3.112c0.124,0.481 0.179,0.976 0.172,1.472c0.078,0.04 0.077,0.041 0.154,0.082c0.15,0.085 0.297,0.173 0.44,0.27c0.282,0.192 0.547,0.411 0.789,0.652c0.737,0.734 1.257,1.675 1.485,2.69c0.101,0.45 0.141,0.909 0.131,1.369l-0.003,0.081l-0.003,0.055c0.094,0.055 0.093,0.055 0.185,0.111c0.183,0.117 0.362,0.24 0.532,0.374c0.408,0.321 0.773,0.694 1.085,1.109c0.395,0.524 0.703,1.113 0.908,1.736c0.464,1.415 0.381,2.985 -0.233,4.342c-0.278,0.615 -0.66,1.181 -1.126,1.67c-0.498,0.522 -1.09,0.954 -1.741,1.267c-0.533,0.257 -1.105,0.434 -1.691,0.524c-0.251,0.038 -0.503,0.057 -0.757,0.067c-6.055,0.076 -12.111,0.002 -18.167,0.002c-0.25,-0.004 -0.5,-0.017 -0.749,-0.048c-0.589,-0.075 -1.167,-0.238 -1.708,-0.483c-0.659,-0.298 -1.262,-0.716 -1.773,-1.227c-0.476,-0.476 -0.872,-1.033 -1.164,-1.64c-0.236,-0.488 -0.404,-1.009 -0.5,-1.543c-0.14,-0.786 -0.122,-1.6 0.054,-2.379c0.194,-0.859 0.578,-1.673 1.119,-2.368c0.322,-0.412 0.698,-0.782 1.115,-1.098c0.187,-0.142 0.383,-0.27 0.584,-0.39l0.043,-0.025c-0.004,-0.073 -0.006,-0.145 -0.007,-0.218c-0.001,-0.11 -0.001,-0.109 0.001,-0.218c0.005,-0.137 0.011,-0.272 0.025,-0.408c0.035,-0.354 0.104,-0.705 0.207,-1.047c0.299,-0.991 0.883,-1.888 1.665,-2.566c0.326,-0.282 0.683,-0.519 1.062,-0.722l0.04,-0.021c-0.001,-0.12 -0.001,-0.12 0.001,-0.24l0.005,-0.141c0.012,-0.185 0.028,-0.37 0.056,-0.553c0.062,-0.405 0.169,-0.802 0.319,-1.182c0.26,-0.659 0.648,-1.266 1.137,-1.778c0.518,-0.544 1.148,-0.98 1.84,-1.272c0.333,-0.141 0.68,-0.249 1.035,-0.322c0.181,-0.037 0.363,-0.062 0.546,-0.083l0.06,-0.006l0,-2.006l0.005,-0.142c0.005,-0.048 0.009,-0.095 0.015,-0.142c0.021,-0.142 0.056,-0.281 0.106,-0.415c0.201,-0.539 0.636,-0.973 1.175,-1.175c0.134,-0.049 0.273,-0.085 0.414,-0.105c0.126,-0.018 0.158,-0.016 0.285,-0.021c0.547,0 1.094,-0.005 1.641,0.002Z" style="fill-rule:nonzero;"/></g><g id="emoji"><path d="M14,9l0,-3.983c0,0 0.66,0 1.5,0c1.933,0 3.5,1.567 3.5,3.5l0,0.483l0.5,0c1.933,0 3.5,1.567 3.5,3.5c0,0 0,0 0,0c0,0.538 -0.121,1.048 -0.339,1.504c1.858,0.084 3.339,1.617 3.339,3.496c0,0 0,0 0,0c0,0.557 -0.13,1.083 -0.361,1.551c1.905,0.305 3.361,1.957 3.361,3.949c0,0 0,0 0,0c0,2.209 -1.791,4 -4,4c-4.889,0 -13.111,0 -18,0c-2.209,0 -4,-1.791 -4,-4c0,0 0,0 0,0c0,-1.061 0.421,-2.078 1.172,-2.828c0.598,-0.598 1.365,-0.988 2.19,-1.121c-0.232,-0.467 -0.362,-0.994 -0.362,-1.551c0,-1.879 1.481,-3.412 3.339,-3.496c-0.218,-0.456 -0.339,-0.966 -0.339,-1.504c0,-1.933 1.567,-3.5 3.5,-3.5l1.5,0Z" style="fill:#ad783f;"/><path d="M22,20l-12,0c0,0 0.086,0.287 0.217,0.724c0.762,2.538 3.098,4.276 5.747,4.276c0.024,0 0.048,0 0.072,0c2.649,0 4.985,-1.738 5.747,-4.276c0.131,-0.437 0.217,-0.724 0.217,-0.724Z"/><path d="M13,15.5c0,-0.398 -0.158,-0.779 -0.439,-1.061c-0.282,-0.281 -0.663,-0.439 -1.061,-0.439c-0.398,0 -0.779,0.158 -1.061,0.439c-0.281,0.282 -0.439,0.663 -0.439,1.061c0,0.633 0,1.367 0,2c0,0.398 0.158,0.779 0.439,1.061c0.282,0.281 0.663,0.439 1.061,0.439c0.398,0 0.779,-0.158 1.061,-0.439c0.281,-0.282 0.439,-0.663 0.439,-1.061c0,-0.633 0,-1.367 0,-2Z"/><path d="M22,15.5c0,-0.398 -0.158,-0.779 -0.439,-1.061c-0.282,-0.281 -0.663,-0.439 -1.061,-0.439c-0.398,0 -0.779,0.158 -1.061,0.439c-0.281,0.282 -0.439,0.663 -0.439,1.061c0,0.633 0,1.367 0,2c0,0.398 0.158,0.779 0.439,1.061c0.282,0.281 0.663,0.439 1.061,0.439c0.398,0 0.779,-0.158 1.061,-0.439c0.281,-0.282 0.439,-0.663 0.439,-1.061c0,-0.633 0,-1.367 0,-2Z"/></g></svg>