<?xml version="1.0" encoding="UTF-8" standalone="no"?><!DOCTYPE svg PUBLIC "-//W3C//DTD SVG 1.1//EN" "http://www.w3.org/Graphics/SVG/1.1/DTD/svg11.dtd"><svg width="100%" height="100%" viewBox="0 0 32 32" version="1.1" xmlns="http://www.w3.org/2000/svg" xmlns:xlink="http://www.w3.org/1999/xlink" xml:space="preserve" style="fill-rule:evenodd;clip-rule:evenodd;stroke-linejoin:round;stroke-miterlimit:1.41421;">
<metadata>
<rdf:RDF xmlns:cc="http://web.resource.org/cc/"
         xmlns:rdf="http://www.w3.org/1999/02/22-rdf-syntax-ns#"
         xmlns:dc = "http://purl.org/dc/elements/1.1/"
         >

     <rdf:Description rdf:about="">
       <dc:title>Mutant Standard emoji v0.2.3</dc:title>
     </rdf:Description>

    <cc:work rdf:about="">
        <cc:license rdf:resource="http://creativecommons.org/licenses/by-nc-sa/4.0/"/>
        <cc:attributionName>Dzuk</cc:attributionName>
        <cc:attributionURL>http://mutant.tech/</cc:attributionURL>
    </cc:work>

</rdf:RDF>
</metadata>
<rect id="shocked" x="0" y="0" width="32" height="32" style="fill:none;"/><clipPath id="_clip1"><rect x="0" y="0" width="32" height="32"/></clipPath><g clip-path="url(#_clip1)"><g id="outline"><path d="M16.174,2.001c0.462,0.009 0.922,0.034 1.381,0.086c1.022,0.114 2.032,0.341 3.004,0.676c1.839,0.634 3.54,1.653 4.965,2.976c1.64,1.521 2.902,3.435 3.656,5.541c0.347,0.968 0.586,1.973 0.713,2.994c0.064,0.515 0.096,1.033 0.106,1.552c0.007,1.105 0.007,2.211 0,3.316c-0.007,0.374 -0.028,0.747 -0.071,1.119c-0.098,0.86 -0.298,1.708 -0.596,2.521c-0.503,1.373 -1.283,2.641 -2.279,3.712c-1.208,1.297 -2.726,2.295 -4.398,2.884c-0.774,0.272 -1.579,0.457 -2.394,0.55c-0.372,0.043 -0.745,0.064 -1.119,0.071c-2.095,0.013 -4.189,0.013 -6.284,0c-0.374,-0.007 -0.747,-0.028 -1.119,-0.071c-0.86,-0.098 -1.708,-0.298 -2.521,-0.596c-1.58,-0.579 -3.019,-1.525 -4.18,-2.742c-1.071,-1.123 -1.9,-2.471 -2.416,-3.935c-0.272,-0.774 -0.457,-1.579 -0.55,-2.394c-0.043,-0.372 -0.064,-0.745 -0.071,-1.119c-0.007,-1.108 -0.007,-2.215 0,-3.322c0.009,-0.477 0.036,-0.952 0.09,-1.425c0.119,-1.038 0.354,-2.062 0.701,-3.047c0.675,-1.916 1.772,-3.675 3.191,-5.128c1.457,-1.492 3.245,-2.653 5.203,-3.37c1.035,-0.379 2.114,-0.634 3.209,-0.759c0.473,-0.054 0.948,-0.081 1.425,-0.09c0.177,-0.001 0.177,-0.001 0.354,0Z" style="fill-rule:nonzero;"/></g><g id="emoji"><path d="M28,16c0,-3.183 -1.264,-6.235 -3.515,-8.485c-2.25,-2.251 -5.302,-3.515 -8.485,-3.515c0,0 0,0 0,0c-6.627,0 -12,5.373 -12,12c0,1.01 0,2.019 0,3c0,4.971 4.029,9 9,9c1.962,0 4.038,0 6,0c4.971,0 9,-4.029 9,-9c0,-0.981 0,-1.99 0,-3Z" style="fill:#fbc546;"/><path d="M32,13l-1.051,0c0.049,0.047 0.096,0.096 0.141,0.146c0.284,0.313 0.512,0.677 0.667,1.071c0.139,0.352 0.219,0.726 0.239,1.104c0.018,0.354 -0.018,0.71 -0.106,1.053c-0.086,0.331 -0.22,0.65 -0.398,0.942c-0.38,0.625 -0.955,1.123 -1.629,1.408c-0.43,0.182 -0.896,0.276 -1.363,0.276c-0.467,0 -0.933,-0.094 -1.363,-0.276c-0.674,-0.285 -1.249,-0.783 -1.629,-1.408c-0.178,-0.292 -0.312,-0.611 -0.398,-0.942c-0.088,-0.343 -0.124,-0.699 -0.106,-1.053c0.02,-0.378 0.1,-0.752 0.239,-1.104c0.155,-0.394 0.383,-0.758 0.667,-1.071c0.045,-0.05 0.092,-0.099 0.141,-0.146l-1.051,0l0,-12l7,0l0,12Z"/><rect x="27" y="3" width="3" height="8" style="fill:#fff;"/><circle cx="28.5" cy="15.5" r="1.5" style="fill:#fff;"/><path d="M12,13.498c0,-0.827 -0.671,-1.498 -1.498,-1.498c-0.001,0 -0.001,0 -0.002,0c-0.398,0 -0.779,0.158 -1.061,0.439c-0.281,0.282 -0.439,0.663 -0.439,1.061c0,0.633 0,1.367 0,2c0,0.398 0.158,0.779 0.439,1.061c0.282,0.281 0.663,0.439 1.061,0.439c0.398,0 0.779,-0.158 1.061,-0.439c0.281,-0.282 0.439,-0.663 0.439,-1.061c0,-0.633 0,-1.369 0,-2.002Z"/><path d="M23,13.498c0,-0.827 -0.671,-1.498 -1.498,-1.498c-0.001,0 -0.003,0 -0.004,0c-0.827,0 -1.498,0.671 -1.498,1.498c0,0.634 0,1.37 0,2.004c0,0.827 0.671,1.498 1.498,1.498c0.001,0 0.003,0 0.004,0c0.827,0 1.498,-0.671 1.498,-1.498c0,-0.634 0,-1.37 0,-2.004Z"/><path d="M11.442,24.023c-0.385,0.154 -0.826,0.054 -1.107,-0.251c-0.281,-0.306 -0.344,-0.753 -0.159,-1.125c0.465,-0.93 1.002,-2.004 1.482,-2.964c0.823,-1.644 2.503,-2.683 4.342,-2.683c0,0 0,0 0,0c1.839,0 3.519,1.039 4.342,2.683c0.48,0.96 1.017,2.034 1.482,2.964c0.185,0.372 0.122,0.819 -0.159,1.125c-0.281,0.305 -0.722,0.405 -1.107,0.251c-0.453,-0.181 -0.908,-0.363 -1.306,-0.522c-0.827,-0.331 -1.71,-0.501 -2.6,-0.501c-0.42,0 -0.884,0 -1.304,0c-0.89,0 -1.773,0.17 -2.6,0.501c-0.398,0.159 -0.853,0.341 -1.306,0.522Z"/></g></g></svg>