<?xml version="1.0" encoding="UTF-8" standalone="no"?><!DOCTYPE svg PUBLIC "-//W3C//DTD SVG 1.1//EN" "http://www.w3.org/Graphics/SVG/1.1/DTD/svg11.dtd"><svg width="100%" height="100%" viewBox="0 0 32 32" version="1.1" xmlns="http://www.w3.org/2000/svg" xmlns:xlink="http://www.w3.org/1999/xlink" xml:space="preserve" style="fill-rule:evenodd;clip-rule:evenodd;stroke-linejoin:round;stroke-miterlimit:1.41421;">
<metadata>
<rdf:RDF xmlns:cc="http://web.resource.org/cc/"
         xmlns:rdf="http://www.w3.org/1999/02/22-rdf-syntax-ns#"
         xmlns:dc = "http://purl.org/dc/elements/1.1/"
         >

     <rdf:Description rdf:about="">
       <dc:title>Mutant Standard emoji v0.2.3</dc:title>
     </rdf:Description>

    <cc:work rdf:about="">
        <cc:license rdf:resource="http://creativecommons.org/licenses/by-nc-sa/4.0/"/>
        <cc:attributionName>Dzuk</cc:attributionName>
        <cc:attributionURL>http://mutant.tech/</cc:attributionURL>
    </cc:work>

</rdf:RDF>
</metadata>
<rect id="shush" x="0" y="0" width="32" height="32" style="fill:none;"/><clipPath id="_clip1"><rect x="0" y="0" width="32" height="32"/></clipPath><g clip-path="url(#_clip1)"><g id="outline"><path d="M16.174,2.001c0.462,0.009 0.922,0.034 1.381,0.086c1.022,0.114 2.032,0.341 3.004,0.676c1.949,0.671 3.741,1.776 5.217,3.215c1.518,1.481 2.689,3.305 3.404,5.301c0.347,0.968 0.587,1.975 0.713,2.995c0.064,0.515 0.096,1.033 0.106,1.552c0.007,1.105 0.007,2.21 0,3.316c-0.007,0.374 -0.028,0.747 -0.071,1.119c-0.093,0.815 -0.278,1.62 -0.55,2.394c-0.545,1.547 -1.44,2.964 -2.6,4.123c-1.127,1.128 -2.498,2.006 -3.996,2.554c-0.813,0.298 -1.661,0.498 -2.521,0.596c-0.372,0.043 -0.745,0.064 -1.119,0.071c-1.764,0.011 -3.527,0.011 -5.291,0c-0.396,-0.007 -0.79,-0.029 -1.184,-0.073c-0.925,-0.104 -1.837,-0.315 -2.713,-0.629c-1.852,-0.663 -3.529,-1.785 -4.85,-3.243c-1.052,-1.163 -1.872,-2.531 -2.401,-4.008c-0.298,-0.829 -0.503,-1.692 -0.612,-2.567c-0.054,-0.441 -0.082,-0.885 -0.09,-1.33c-0.005,-0.776 -0.005,-1.553 0,-2.33c0.01,-0.535 0.044,-1.068 0.111,-1.6c0.132,-1.034 0.38,-2.053 0.738,-3.033c0.717,-1.958 1.878,-3.746 3.37,-5.203c1.453,-1.419 3.212,-2.516 5.128,-3.191c0.985,-0.347 2.009,-0.582 3.047,-0.701c0.473,-0.054 0.948,-0.081 1.425,-0.09c0.177,-0.001 0.177,-0.001 0.354,0Z" style="fill-rule:nonzero;"/></g><g id="emoji"><path d="M28,16c0,-3.183 -1.264,-6.235 -3.515,-8.485c-2.25,-2.251 -5.302,-3.515 -8.485,-3.515c0,0 0,0 0,0c-6.627,0 -12,5.373 -12,12c0,0.669 0,1.339 0,2c0,2.652 1.054,5.196 2.929,7.071c1.875,1.875 4.419,2.929 7.071,2.929c1.658,0 3.369,0 5,0c4.971,0 9,-4.029 9,-9c0,-0.981 0,-1.99 0,-3Z" style="fill:#fbc546;"/><clipPath id="_clip2"><path d="M28,16c0,-3.183 -1.264,-6.235 -3.515,-8.485c-2.25,-2.251 -5.302,-3.515 -8.485,-3.515c0,0 0,0 0,0c-6.627,0 -12,5.373 -12,12c0,0.669 0,1.339 0,2c0,2.652 1.054,5.196 2.929,7.071c1.875,1.875 4.419,2.929 7.071,2.929c1.658,0 3.369,0 5,0c4.971,0 9,-4.029 9,-9c0,-0.981 0,-1.99 0,-3Z"/></clipPath><g clip-path="url(#_clip2)"><path d="M17,19c0,0 1.888,0 3.343,0c1.061,0 2.078,0.421 2.829,1.172c2.834,2.834 9.828,9.828 9.828,9.828l-16,0l0,-11Z" style="fill:#e59a10;"/></g><path d="M12,11.5c0,-0.828 -0.672,-1.5 -1.5,-1.5c-0.828,0 -1.5,0.672 -1.5,1.5c0,0.916 0,2.084 0,3c0,0.828 0.672,1.5 1.5,1.5c0.828,0 1.5,-0.672 1.5,-1.5c0,-0.916 0,-2.084 0,-3Z"/><path d="M23,11.5c0,-0.828 -0.672,-1.5 -1.5,-1.5c-0.828,0 -1.5,0.672 -1.5,1.5c0,0.916 0,2.084 0,3c0,0.828 0.672,1.5 1.5,1.5c0.828,0 1.5,-0.672 1.5,-1.5c0,-0.916 0,-2.084 0,-3Z"/><path d="M18,18c0,-1.105 -0.895,-2 -2,-2c-1.105,0 -2,0.895 -2,2c0,0.644 0,1.356 0,2c0,1.105 0.895,2 2,2c1.105,0 2,-0.895 2,-2c0,-0.644 0,-1.356 0,-2Z"/><path d="M21.104,32l-5.104,0l0,-12.025l0.003,-0.128c0.01,-0.134 0.011,-0.168 0.031,-0.301c0.03,-0.197 0.08,-0.391 0.148,-0.578c0.301,-0.822 0.964,-1.485 1.786,-1.786c0.235,-0.086 0.48,-0.142 0.728,-0.167c0.135,-0.014 0.168,-0.012 0.304,-0.016c0.049,0.002 0.099,0.003 0.149,0.004c0.131,0.01 0.164,0.01 0.294,0.029c0.242,0.036 0.479,0.102 0.705,0.196c0.777,0.321 1.394,0.969 1.677,1.76c0.083,0.231 0.137,0.472 0.161,0.716c0.012,0.124 0.011,0.152 0.014,0.271l0,2.023c1.196,-0.004 2.391,-0.012 3.587,0.003c0.144,0.005 0.287,0.016 0.43,0.037c0.366,0.055 0.724,0.168 1.055,0.335c0.411,0.206 0.78,0.494 1.08,0.843c0.28,0.324 0.499,0.7 0.643,1.104c0.136,0.378 0.205,0.779 0.205,1.18c0,0.601 -0.157,1.199 -0.453,1.723c-0.213,0.375 -0.495,0.711 -0.828,0.984c-0.266,0.218 -0.563,0.396 -0.88,0.527c-0.421,0.174 -0.871,0.26 -1.327,0.266l-0.074,0l-0.001,0.002c-0.107,0.181 -0.23,0.35 -0.363,0.513c-0.321,0.378 -0.651,0.749 -0.977,1.123c-0.189,0.211 -0.393,0.404 -0.62,0.572c-0.484,0.36 -1.048,0.607 -1.639,0.72c-0.243,0.046 -0.488,0.067 -0.734,0.07Z"/><path d="M27,25.5c0,-0.828 -0.672,-1.5 -1.5,-1.5c-0.287,0 -0.5,0 -0.5,0l-1,1l0,1l1,1c0,0 0.213,0 0.5,0c0.828,0 1.5,-0.672 1.5,-1.5c0,0 0,0 0,0Z" style="fill:#fbc546;"/><path d="M25,24l-2,0l-1,3l3,0l0,-3Z" style="fill:#7e5108;"/><path d="M18,30c0,0 1.91,0 3.09,0c0.578,0 1.128,-0.25 1.508,-0.686c0.29,-0.333 0.635,-0.729 0.91,-1.044c0.317,-0.365 0.492,-0.831 0.492,-1.314c0,-0.563 0,-1.34 0,-1.956c0,-0.265 -0.105,-0.52 -0.293,-0.707c-0.187,-0.188 -0.442,-0.293 -0.707,-0.293c-1.185,0 -3,0 -3,0c0,0 0,-2.541 0,-4c0,-0.265 -0.105,-0.52 -0.293,-0.707c-0.187,-0.188 -0.442,-0.293 -0.707,-0.293c-0.552,0 -1,0.448 -1,1c0,2.711 0,10 0,10Z" style="fill:#fbc546;"/></g></g></svg>