<?xml version="1.0" encoding="UTF-8" standalone="no"?><!DOCTYPE svg PUBLIC "-//W3C//DTD SVG 1.1//EN" "http://www.w3.org/Graphics/SVG/1.1/DTD/svg11.dtd"><svg width="100%" height="100%" viewBox="0 0 32 32" version="1.1" xmlns="http://www.w3.org/2000/svg" xmlns:xlink="http://www.w3.org/1999/xlink" xml:space="preserve" style="fill-rule:evenodd;clip-rule:evenodd;stroke-linejoin:round;stroke-miterlimit:1.41421;">
<metadata>
<rdf:RDF xmlns:cc="http://web.resource.org/cc/"
         xmlns:rdf="http://www.w3.org/1999/02/22-rdf-syntax-ns#"
         xmlns:dc = "http://purl.org/dc/elements/1.1/"
         >

     <rdf:Description rdf:about="">
       <dc:title>Mutant Standard emoji v0.2.3</dc:title>
     </rdf:Description>

    <cc:work rdf:about="">
        <cc:license rdf:resource="http://creativecommons.org/licenses/by-nc-sa/4.0/"/>
        <cc:attributionName>Dzuk</cc:attributionName>
        <cc:attributionURL>http://mutant.tech/</cc:attributionURL>
    </cc:work>

</rdf:RDF>
</metadata>
<rect id="sick" x="0" y="0" width="32" height="32" style="fill:none;"/><g id="outline"><path d="M16.174,2.001c0.462,0.009 0.922,0.034 1.381,0.086c1.079,0.12 2.143,0.367 3.165,0.733c2.051,0.734 3.92,1.951 5.422,3.529c1.381,1.451 2.442,3.198 3.095,5.092c0.335,0.972 0.562,1.982 0.676,3.004c0.052,0.459 0.077,0.919 0.086,1.381c0.007,1.101 0.007,2.202 0,3.303c-0.007,0.382 -0.031,0.763 -0.079,1.142c-0.094,0.739 -0.271,1.468 -0.527,2.167c-0.499,1.362 -1.297,2.608 -2.322,3.633c-1.054,1.054 -2.342,1.868 -3.748,2.363c-0.704,0.248 -1.436,0.416 -2.177,0.501c-0.338,0.039 -0.677,0.058 -1.017,0.064c-2.753,0.018 -5.505,0.018 -8.258,0c-0.382,-0.007 -0.763,-0.031 -1.142,-0.079c-0.739,-0.094 -1.468,-0.271 -2.167,-0.527c-1.399,-0.513 -2.677,-1.341 -3.717,-2.407c-1.014,-1.038 -1.797,-2.295 -2.279,-3.663c-0.248,-0.704 -0.416,-1.436 -0.501,-2.177c-0.039,-0.338 -0.058,-0.677 -0.064,-1.017c-0.007,-1.101 -0.007,-2.202 0,-3.303c0.01,-0.519 0.042,-1.037 0.106,-1.552c0.134,-1.077 0.393,-2.138 0.771,-3.155c0.74,-1.988 1.935,-3.799 3.471,-5.261c1.493,-1.42 3.298,-2.502 5.254,-3.149c0.977,-0.324 1.989,-0.539 3.013,-0.641c0.458,-0.045 0.918,-0.065 1.378,-0.068c0.06,0 0.12,0.001 0.18,0.001Z" style="fill-rule:nonzero;"/></g><g id="emoji"><path d="M28,16c0,-3.183 -1.264,-6.235 -3.515,-8.485c-2.25,-2.251 -5.302,-3.515 -8.485,-3.515c0,0 0,0 0,0c-3.183,0 -6.235,1.264 -8.485,3.515c-2.251,2.25 -3.515,5.302 -3.515,8.485c0,1.016 0,2.026 0,3c0,4.418 3.582,8 8,8c2.574,0 5.426,0 8,0c4.418,0 8,-3.582 8,-8c0,-0.974 0,-1.984 0,-3Z" style="fill:#77b84c;"/><path d="M9.03,11l0.04,0.002l0.039,0.004l0.04,0.005l0.039,0.007l0.039,0.008l0.038,0.01l0.038,0.011l0.038,0.013l0.037,0.014l0.037,0.016l0.035,0.017l0.036,0.019l0.034,0.02l0.034,0.021l0.032,0.023l0.032,0.024l0.031,0.025l0.029,0.026l0.029,0.028l3.81,3.81l-0.114,0.484l-4.087,1.362l-0.038,0.012l-0.038,0.01l-0.039,0.009l-0.039,0.007l-0.039,0.005l-0.04,0.005l-0.04,0.002l-0.039,0.001l-0.04,-0.001l-0.04,-0.002l-0.039,-0.004l-0.04,-0.005l-0.039,-0.007l-0.039,-0.008l-0.038,-0.011l-0.038,-0.011l-0.038,-0.013l-0.037,-0.015l-0.036,-0.016l-0.036,-0.017l-0.035,-0.019l-0.034,-0.02l-0.034,-0.022l-0.032,-0.023l-0.032,-0.024l-0.03,-0.025l-0.03,-0.027l-0.029,-0.027l-0.027,-0.029l-0.026,-0.03l-0.025,-0.031l-0.024,-0.032l-0.022,-0.033l-0.021,-0.033l-0.02,-0.035l-0.019,-0.035l-0.017,-0.036l-0.015,-0.037l-0.014,-0.037l-0.013,-0.038l-0.011,-0.038l-0.009,-0.038l-0.008,-0.039l-0.007,-0.04l-0.005,-0.039l-0.003,-0.04l-0.002,-0.04l0,-0.039l0.002,-0.04l0.003,-0.04l0.004,-0.039l0.006,-0.039l0.008,-0.039l0.009,-0.039l0.011,-0.038l0.012,-0.038l0.014,-0.038l0.015,-0.036l0.017,-0.036l0.018,-0.036l0.02,-0.034l0.021,-0.034l0.022,-0.033l0.023,-0.032l0.025,-0.031l0.026,-0.03l0.027,-0.029l0.029,-0.028l0.029,-0.027l0.03,-0.026l0.032,-0.024l0.032,-0.023l0.034,-0.022l0.034,-0.021l0.034,-0.019l0.036,-0.017l0.036,-0.017l0.037,-0.014l0.038,-0.014l1.465,-0.488l-1.856,-1.856l-0.028,-0.029l-0.026,-0.029l-0.025,-0.031l-0.024,-0.032l-0.023,-0.032l-0.021,-0.034l-0.02,-0.034l-0.019,-0.036l-0.017,-0.035l-0.016,-0.037l-0.014,-0.037l-0.013,-0.038l-0.011,-0.038l-0.01,-0.038l-0.008,-0.039l-0.007,-0.039l-0.005,-0.04l-0.004,-0.039l-0.002,-0.04l0,-0.04l0.001,-0.04l0.003,-0.039l0.004,-0.04l0.006,-0.039l0.008,-0.039l0.009,-0.039l0.01,-0.038l0.012,-0.038l0.014,-0.038l0.015,-0.036l0.016,-0.037l0.018,-0.035l0.02,-0.035l0.02,-0.034l0.022,-0.033l0.024,-0.032l0.024,-0.031l0.026,-0.031l0.027,-0.029l0.028,-0.028l0.029,-0.027l0.031,-0.026l0.031,-0.024l0.032,-0.024l0.033,-0.022l0.034,-0.02l0.035,-0.02l0.035,-0.018l0.037,-0.016l0.036,-0.015l0.038,-0.014l0.038,-0.012l0.038,-0.01l0.039,-0.009l0.039,-0.008l0.039,-0.006l0.04,-0.004l0.039,-0.003l0.04,-0.001l0.04,0Z"/><path d="M23.05,11.001l0.039,0.003l0.04,0.004l0.039,0.006l0.039,0.008l0.039,0.009l0.038,0.01l0.038,0.012l0.038,0.014l0.036,0.015l0.037,0.016l0.035,0.018l0.035,0.02l0.034,0.02l0.033,0.022l0.032,0.024l0.031,0.024l0.031,0.026l0.029,0.027l0.028,0.028l0.027,0.029l0.026,0.031l0.024,0.031l0.024,0.032l0.022,0.033l0.02,0.034l0.02,0.035l0.018,0.035l0.016,0.037l0.015,0.036l0.014,0.038l0.012,0.038l0.01,0.038l0.009,0.039l0.008,0.039l0.006,0.039l0.004,0.04l0.003,0.039l0.001,0.04l0,0.04l-0.002,0.04l-0.004,0.039l-0.005,0.04l-0.007,0.039l-0.008,0.039l-0.01,0.038l-0.011,0.038l-0.013,0.038l-0.014,0.037l-0.016,0.037l-0.017,0.035l-0.019,0.036l-0.02,0.034l-0.021,0.034l-0.023,0.032l-0.024,0.032l-0.025,0.031l-0.026,0.029l-0.028,0.029l-1.856,1.856l1.465,0.488l0.038,0.014l0.037,0.014l0.036,0.017l0.036,0.017l0.034,0.019l0.034,0.021l0.034,0.022l0.032,0.023l0.032,0.024l0.03,0.026l0.029,0.027l0.029,0.028l0.027,0.029l0.026,0.03l0.025,0.031l0.023,0.032l0.022,0.033l0.021,0.034l0.02,0.034l0.018,0.036l0.017,0.036l0.015,0.036l0.014,0.038l0.012,0.038l0.011,0.038l0.009,0.039l0.008,0.039l0.006,0.039l0.004,0.039l0.003,0.04l0.002,0.04l0,0.039l-0.002,0.04l-0.003,0.04l-0.005,0.039l-0.007,0.04l-0.008,0.039l-0.009,0.038l-0.011,0.038l-0.013,0.038l-0.014,0.037l-0.015,0.037l-0.017,0.036l-0.019,0.035l-0.02,0.035l-0.021,0.033l-0.022,0.033l-0.024,0.032l-0.025,0.031l-0.026,0.03l-0.027,0.029l-0.029,0.027l-0.03,0.027l-0.03,0.025l-0.032,0.024l-0.032,0.023l-0.034,0.022l-0.034,0.02l-0.035,0.019l-0.036,0.017l-0.036,0.016l-0.037,0.015l-0.038,0.013l-0.038,0.011l-0.038,0.011l-0.039,0.008l-0.039,0.007l-0.04,0.005l-0.039,0.004l-0.04,0.002l-0.04,0.001l-0.039,-0.001l-0.04,-0.002l-0.04,-0.005l-0.039,-0.005l-0.039,-0.007l-0.039,-0.009l-0.038,-0.01l-0.038,-0.012l-4.087,-1.362l-0.114,-0.484l3.81,-3.81l0.029,-0.028l0.029,-0.026l0.031,-0.025l0.032,-0.024l0.032,-0.023l0.034,-0.021l0.034,-0.02l0.036,-0.019l0.035,-0.017l0.037,-0.016l0.037,-0.014l0.038,-0.013l0.038,-0.011l0.038,-0.01l0.039,-0.008l0.039,-0.007l0.04,-0.005l0.039,-0.004l0.04,-0.002l0.04,0l0.04,0.001Z"/><path d="M17.408,19.002l0.116,0.005l0.116,0.008l0.115,0.012l0.115,0.015l0.114,0.018l0.114,0.022l0.113,0.025l0.112,0.028l0.111,0.032l0.111,0.034l0.109,0.038l0.109,0.041l0.107,0.044l0.106,0.048l0.098,0.047l1.373,0.687l0.05,0.026l0.048,0.029l0.046,0.032l0.044,0.035l0.042,0.036l0.041,0.039l0.037,0.042l0.036,0.043l0.033,0.046l0.031,0.047l0.027,0.048l0.025,0.051l0.022,0.051l0.02,0.053l0.016,0.053l0.013,0.055l0.01,0.055l0.007,0.056l0.004,0.056l0.001,0.056l-0.003,0.056l-0.005,0.056l-0.009,0.055l-0.011,0.055l-0.015,0.054l-0.018,0.053l-0.021,0.052l-0.024,0.051l-0.026,0.05l-0.029,0.048l-0.032,0.046l-0.035,0.044l-0.036,0.042l-0.039,0.041l-0.042,0.037l-0.043,0.036l-0.046,0.033l-0.047,0.031l-0.048,0.027l-0.051,0.025l-0.051,0.022l-0.053,0.02l-0.053,0.016l-0.055,0.013l-0.055,0.01l-0.056,0.007l-0.056,0.004l-0.056,0.001l-0.056,-0.003l-0.056,-0.005l-0.055,-0.009l-0.055,-0.011l-0.054,-0.015l-0.053,-0.018l-0.052,-0.021l-0.051,-0.024l-1.36,-0.68l-0.059,-0.028l-0.053,-0.024l-0.054,-0.022l-0.054,-0.02l-0.055,-0.019l-0.055,-0.018l-0.056,-0.015l-0.056,-0.014l-0.056,-0.013l-0.057,-0.011l-0.057,-0.009l-0.058,-0.007l-0.057,-0.006l-0.058,-0.005l-0.058,-0.002l-0.065,-0.001l-2.57,0l-0.065,0.001l-0.058,0.002l-0.058,0.005l-0.057,0.006l-0.058,0.007l-0.057,0.009l-0.057,0.011l-0.056,0.013l-0.056,0.014l-0.056,0.015l-0.055,0.018l-0.055,0.019l-0.054,0.02l-0.054,0.022l-0.053,0.024l-0.059,0.028l-1.36,0.68l-0.051,0.024l-0.052,0.021l-0.053,0.018l-0.054,0.015l-0.055,0.011l-0.055,0.009l-0.056,0.005l-0.056,0.003l-0.056,-0.001l-0.056,-0.004l-0.056,-0.007l-0.055,-0.01l-0.055,-0.013l-0.053,-0.016l-0.053,-0.02l-0.051,-0.022l-0.051,-0.025l-0.048,-0.027l-0.047,-0.031l-0.046,-0.033l-0.043,-0.036l-0.042,-0.037l-0.039,-0.041l-0.036,-0.042l-0.035,-0.044l-0.032,-0.046l-0.029,-0.048l-0.026,-0.05l-0.024,-0.051l-0.021,-0.052l-0.018,-0.053l-0.015,-0.054l-0.011,-0.055l-0.009,-0.055l-0.005,-0.056l-0.003,-0.056l0.001,-0.056l0.004,-0.056l0.007,-0.056l0.01,-0.055l0.013,-0.055l0.016,-0.053l0.02,-0.053l0.022,-0.051l0.025,-0.051l0.027,-0.048l0.031,-0.047l0.033,-0.046l0.036,-0.043l0.037,-0.042l0.041,-0.039l0.042,-0.036l0.044,-0.035l0.046,-0.032l0.048,-0.029l0.05,-0.026l1.373,-0.687l0.098,-0.047l0.106,-0.048l0.107,-0.044l0.109,-0.041l0.109,-0.038l0.111,-0.034l0.111,-0.032l0.112,-0.028l0.113,-0.025l0.114,-0.022l0.114,-0.018l0.115,-0.015l0.115,-0.012l0.116,-0.008l0.116,-0.005l0.109,-0.002l2.598,0l0.109,0.002Z"/><path d="M21.05,18.001l0.039,0.003l0.04,0.004l0.039,0.006l0.039,0.008l0.039,0.009l0.038,0.01l0.038,0.012l0.038,0.014l0.036,0.015l0.037,0.016l0.035,0.018l0.035,0.02l0.034,0.02l0.033,0.022l0.032,0.024l0.031,0.024l0.031,0.026l0.029,0.027l0.028,0.028l0.027,0.029l0.026,0.031l0.024,0.031l0.024,0.032l0.022,0.033l0.02,0.034l0.02,0.035l0.018,0.035l0.016,0.037l0.015,0.036l0.014,0.038l0.012,0.038l0.01,0.038l0.009,0.039l0.008,0.039l0.006,0.039l0.004,0.04l0.003,0.039l0.001,0.04l0,0.04l-0.002,0.04l-0.004,0.039l-0.005,0.04l-0.007,0.039l-0.008,0.039l-0.01,0.038l-0.011,0.038l-0.013,0.038l-0.014,0.037l-0.016,0.037l-0.017,0.035l-0.019,0.036l-0.02,0.034l-0.021,0.034l-0.023,0.032l-0.024,0.032l-0.025,0.031l-0.026,0.029l-0.028,0.029l0.004,-0.004l-0.036,0.037l-0.031,0.033l-0.03,0.034l-0.029,0.035l-0.028,0.035l-0.027,0.036l-0.026,0.036l-0.025,0.037l-0.025,0.037l-0.023,0.038l-0.023,0.039l-0.021,0.039l-0.021,0.04l-0.019,0.04l-0.019,0.041l-0.017,0.04l-0.017,0.042l-0.015,0.042l-0.015,0.042l-0.014,0.042l-0.012,0.043l-0.011,0.043l-0.011,0.044l-0.009,0.044l-0.008,0.044l-0.008,0.044l-0.006,0.045l-0.005,0.044l-0.003,0.045l-0.003,0.045l-0.002,0.046l-0.001,0.045l0.001,0.045l0.002,0.046l0.003,0.045l0.003,0.045l0.005,0.044l0.006,0.045l0.008,0.044l0.008,0.044l0.009,0.044l0.011,0.044l0.011,0.043l0.012,0.043l0.014,0.042l0.015,0.042l0.015,0.042l0.017,0.042l0.017,0.04l0.019,0.041l0.019,0.04l0.021,0.04l0.021,0.039l0.023,0.039l0.023,0.038l0.025,0.037l0.025,0.037l0.026,0.036l0.027,0.036l0.028,0.035l0.029,0.035l0.03,0.034l0.031,0.033l0.036,0.037l-0.004,-0.004l0.028,0.029l0.026,0.029l0.025,0.031l0.024,0.032l0.023,0.032l0.021,0.034l0.02,0.034l0.019,0.036l0.017,0.035l0.016,0.037l0.014,0.037l0.013,0.038l0.011,0.038l0.01,0.038l0.008,0.039l0.007,0.039l0.005,0.04l0.004,0.039l0.002,0.04l0,0.04l-0.001,0.04l-0.003,0.039l-0.004,0.04l-0.006,0.039l-0.008,0.039l-0.009,0.039l-0.01,0.038l-0.012,0.038l-0.014,0.038l-0.015,0.036l-0.016,0.037l-0.018,0.035l-0.02,0.035l-0.02,0.034l-0.022,0.033l-0.024,0.032l-0.024,0.031l-0.026,0.031l-0.027,0.029l-0.028,0.028l-0.029,0.027l-0.031,0.026l-0.031,0.024l-0.032,0.024l-0.033,0.022l-0.034,0.02l-0.035,0.02l-0.035,0.018l-0.037,0.016l-0.036,0.015l-0.038,0.014l-0.038,0.012l-0.038,0.01l-0.039,0.009l-0.039,0.008l-0.039,0.006l-0.04,0.004l-0.039,0.003l-0.04,0.001l-0.04,0l-0.04,-0.002l-0.039,-0.004l-0.04,-0.005l-0.039,-0.007l-0.039,-0.008l-0.038,-0.01l-0.038,-0.011l-0.038,-0.013l-0.037,-0.014l-0.037,-0.016l-0.035,-0.017l-0.036,-0.019l-0.034,-0.02l-0.034,-0.021l-0.032,-0.023l-0.032,-0.024l-0.031,-0.025l-0.029,-0.026l-0.029,-0.028l-0.005,-0.005l-0.062,-0.063l-0.064,-0.07l-0.063,-0.071l-0.061,-0.072l-0.059,-0.074l-0.056,-0.074l-0.055,-0.077l-0.054,-0.077l-0.051,-0.079l-0.049,-0.08l-0.047,-0.08l-0.045,-0.082l-0.043,-0.083l-0.041,-0.084l-0.038,-0.085l-0.037,-0.086l-0.035,-0.087l-0.033,-0.087l-0.03,-0.089l-0.028,-0.089l-0.026,-0.089l-0.024,-0.091l-0.022,-0.091l-0.019,-0.092l-0.018,-0.092l-0.015,-0.093l-0.012,-0.093l-0.011,-0.094l-0.008,-0.094l-0.006,-0.094l-0.004,-0.095l-0.001,-0.095l0.001,-0.095l0.004,-0.095l0.006,-0.094l0.008,-0.094l0.011,-0.094l0.012,-0.093l0.015,-0.093l0.018,-0.092l0.019,-0.092l0.022,-0.091l0.024,-0.091l0.026,-0.089l0.028,-0.089l0.03,-0.089l0.033,-0.087l0.035,-0.087l0.037,-0.086l0.038,-0.085l0.041,-0.084l0.043,-0.083l0.045,-0.082l0.047,-0.08l0.049,-0.08l0.051,-0.079l0.054,-0.077l0.055,-0.077l0.056,-0.074l0.059,-0.074l0.061,-0.072l0.063,-0.071l0.064,-0.07l0.062,-0.063l0.005,-0.005l0.029,-0.028l0.029,-0.026l0.031,-0.025l0.032,-0.024l0.032,-0.023l0.034,-0.021l0.034,-0.02l0.036,-0.019l0.035,-0.017l0.037,-0.016l0.037,-0.014l0.038,-0.013l0.038,-0.011l0.038,-0.01l0.039,-0.008l0.039,-0.007l0.04,-0.005l0.039,-0.004l0.04,-0.002l0.04,0l0.04,0.001Z"/><path d="M11.03,18l0.04,0.002l0.039,0.004l0.04,0.005l0.039,0.007l0.039,0.008l0.038,0.01l0.038,0.011l0.038,0.013l0.037,0.014l0.037,0.016l0.035,0.017l0.036,0.019l0.034,0.02l0.034,0.021l0.032,0.023l0.032,0.024l0.031,0.025l0.029,0.026l0.029,0.028l0.005,0.005l0.062,0.063l0.064,0.07l0.063,0.071l0.061,0.072l0.059,0.074l0.056,0.074l0.055,0.077l0.054,0.077l0.051,0.079l0.049,0.08l0.047,0.08l0.045,0.082l0.043,0.083l0.041,0.084l0.038,0.085l0.037,0.086l0.035,0.087l0.033,0.087l0.03,0.089l0.028,0.089l0.026,0.089l0.024,0.091l0.022,0.091l0.019,0.092l0.018,0.092l0.015,0.093l0.012,0.093l0.011,0.094l0.008,0.094l0.006,0.094l0.004,0.095l0.001,0.095l-0.001,0.095l-0.004,0.095l-0.006,0.094l-0.008,0.094l-0.011,0.094l-0.012,0.093l-0.015,0.093l-0.018,0.092l-0.019,0.092l-0.022,0.091l-0.024,0.091l-0.026,0.089l-0.028,0.089l-0.03,0.089l-0.033,0.087l-0.035,0.087l-0.037,0.086l-0.038,0.085l-0.041,0.084l-0.043,0.083l-0.045,0.082l-0.047,0.08l-0.049,0.08l-0.051,0.079l-0.054,0.077l-0.055,0.077l-0.056,0.074l-0.059,0.074l-0.061,0.072l-0.063,0.071l-0.064,0.07l-0.062,0.063l-0.005,0.005l-0.029,0.028l-0.029,0.026l-0.031,0.025l-0.032,0.024l-0.032,0.023l-0.034,0.021l-0.034,0.02l-0.036,0.019l-0.035,0.017l-0.037,0.016l-0.037,0.014l-0.038,0.013l-0.038,0.011l-0.038,0.01l-0.039,0.008l-0.039,0.007l-0.04,0.005l-0.039,0.004l-0.04,0.002l-0.04,0l-0.04,-0.001l-0.039,-0.003l-0.04,-0.004l-0.039,-0.006l-0.039,-0.008l-0.039,-0.009l-0.038,-0.01l-0.038,-0.012l-0.038,-0.014l-0.036,-0.015l-0.037,-0.016l-0.035,-0.018l-0.035,-0.02l-0.034,-0.02l-0.033,-0.022l-0.032,-0.024l-0.031,-0.024l-0.031,-0.026l-0.029,-0.027l-0.028,-0.028l-0.027,-0.029l-0.026,-0.031l-0.024,-0.031l-0.024,-0.032l-0.022,-0.033l-0.02,-0.034l-0.02,-0.035l-0.018,-0.035l-0.016,-0.037l-0.015,-0.036l-0.014,-0.038l-0.012,-0.038l-0.01,-0.038l-0.009,-0.039l-0.008,-0.039l-0.006,-0.039l-0.004,-0.04l-0.003,-0.039l-0.001,-0.04l0,-0.04l0.002,-0.04l0.004,-0.039l0.005,-0.04l0.007,-0.039l0.008,-0.039l0.01,-0.038l0.011,-0.038l0.013,-0.038l0.014,-0.037l0.016,-0.037l0.017,-0.035l0.019,-0.036l0.02,-0.034l0.021,-0.034l0.023,-0.032l0.024,-0.032l0.025,-0.031l0.026,-0.029l0.028,-0.029l-0.004,0.004l0.036,-0.037l0.031,-0.033l0.03,-0.034l0.029,-0.035l0.028,-0.035l0.027,-0.036l0.026,-0.036l0.025,-0.037l0.025,-0.037l0.023,-0.038l0.023,-0.039l0.021,-0.039l0.021,-0.04l0.019,-0.04l0.019,-0.041l0.017,-0.04l0.017,-0.042l0.015,-0.042l0.015,-0.042l0.014,-0.042l0.012,-0.043l0.011,-0.043l0.011,-0.044l0.009,-0.044l0.008,-0.044l0.008,-0.044l0.006,-0.045l0.005,-0.044l0.003,-0.045l0.003,-0.045l0.002,-0.046l0.001,-0.045l-0.001,-0.045l-0.002,-0.046l-0.003,-0.045l-0.003,-0.045l-0.005,-0.044l-0.006,-0.045l-0.008,-0.044l-0.008,-0.044l-0.009,-0.044l-0.011,-0.044l-0.011,-0.043l-0.012,-0.043l-0.014,-0.042l-0.015,-0.042l-0.015,-0.042l-0.017,-0.042l-0.017,-0.04l-0.019,-0.041l-0.019,-0.04l-0.021,-0.04l-0.021,-0.039l-0.023,-0.039l-0.023,-0.038l-0.025,-0.037l-0.025,-0.037l-0.026,-0.036l-0.027,-0.036l-0.028,-0.035l-0.029,-0.035l-0.03,-0.034l-0.031,-0.033l-0.036,-0.037l0.004,0.004l-0.028,-0.029l-0.026,-0.029l-0.025,-0.031l-0.024,-0.032l-0.023,-0.032l-0.021,-0.034l-0.02,-0.034l-0.019,-0.036l-0.017,-0.035l-0.016,-0.037l-0.014,-0.037l-0.013,-0.038l-0.011,-0.038l-0.01,-0.038l-0.008,-0.039l-0.007,-0.039l-0.005,-0.04l-0.004,-0.039l-0.002,-0.04l0,-0.04l0.001,-0.04l0.003,-0.039l0.004,-0.04l0.006,-0.039l0.008,-0.039l0.009,-0.039l0.01,-0.038l0.012,-0.038l0.014,-0.038l0.015,-0.036l0.016,-0.037l0.018,-0.035l0.02,-0.035l0.02,-0.034l0.022,-0.033l0.024,-0.032l0.024,-0.031l0.026,-0.031l0.027,-0.029l0.028,-0.028l0.029,-0.027l0.031,-0.026l0.031,-0.024l0.032,-0.024l0.033,-0.022l0.034,-0.02l0.035,-0.02l0.035,-0.018l0.037,-0.016l0.036,-0.015l0.038,-0.014l0.038,-0.012l0.038,-0.01l0.039,-0.009l0.039,-0.008l0.039,-0.006l0.04,-0.004l0.039,-0.003l0.04,-0.001l0.04,0Z"/></g></svg>