<?xml version="1.0" encoding="UTF-8" standalone="no"?><!DOCTYPE svg PUBLIC "-//W3C//DTD SVG 1.1//EN" "http://www.w3.org/Graphics/SVG/1.1/DTD/svg11.dtd"><svg width="100%" height="100%" viewBox="0 0 32 32" version="1.1" xmlns="http://www.w3.org/2000/svg" xmlns:xlink="http://www.w3.org/1999/xlink" xml:space="preserve" style="fill-rule:evenodd;clip-rule:evenodd;stroke-linejoin:round;stroke-miterlimit:1.41421;">
<metadata>
<rdf:RDF xmlns:cc="http://web.resource.org/cc/"
         xmlns:rdf="http://www.w3.org/1999/02/22-rdf-syntax-ns#"
         xmlns:dc = "http://purl.org/dc/elements/1.1/"
         >

     <rdf:Description rdf:about="">
       <dc:title>Mutant Standard emoji v0.2.3</dc:title>
     </rdf:Description>

    <cc:work rdf:about="">
        <cc:license rdf:resource="http://creativecommons.org/licenses/by-nc-sa/4.0/"/>
        <cc:attributionName>Dzuk</cc:attributionName>
        <cc:attributionURL>http://mutant.tech/</cc:attributionURL>
    </cc:work>

</rdf:RDF>
</metadata>
<rect id="sleepy" x="0" y="0" width="32" height="32" style="fill:none;"/><g id="outline"><path d="M16.174,3.001c0.462,0.009 0.922,0.034 1.381,0.086c1.079,0.12 2.143,0.367 3.165,0.733c2.051,0.734 3.92,1.951 5.422,3.529c1.342,1.41 2.382,3.099 3.038,4.931c0.347,0.968 0.587,1.974 0.713,2.994c0.064,0.515 0.096,1.033 0.106,1.552c0.005,0.772 0.005,1.544 0,2.316c-0.008,0.42 -0.034,0.839 -0.087,1.256c-0.098,0.769 -0.277,1.527 -0.535,2.258c-0.457,1.297 -1.16,2.504 -2.06,3.543c-1.217,1.406 -2.789,2.494 -4.535,3.133c-0.769,0.282 -1.571,0.476 -2.384,0.58c-0.417,0.053 -0.836,0.079 -1.256,0.087c-2.095,0.013 -4.189,0.013 -6.284,0c-0.42,-0.008 -0.839,-0.034 -1.256,-0.087c-0.813,-0.104 -1.615,-0.298 -2.384,-0.58c-1.498,-0.548 -2.869,-1.426 -3.996,-2.554c-1.16,-1.159 -2.055,-2.576 -2.6,-4.123c-0.272,-0.774 -0.457,-1.579 -0.55,-2.394c-0.043,-0.372 -0.064,-0.745 -0.071,-1.119c-0.005,-0.772 -0.005,-1.544 0,-2.316c0.009,-0.462 0.034,-0.922 0.086,-1.381c0.12,-1.079 0.367,-2.144 0.733,-3.166c0.617,-1.722 1.574,-3.319 2.802,-4.676c1.578,-1.743 3.595,-3.074 5.819,-3.84c0.972,-0.335 1.982,-0.562 3.004,-0.676c0.459,-0.052 0.919,-0.077 1.381,-0.086c0.174,-0.001 0.174,-0.001 0.348,0Z" style="fill-rule:nonzero;"/></g><g id="emoji"><path d="M28,17c0,-3.183 -1.264,-6.235 -3.515,-8.485c-2.25,-2.251 -5.302,-3.515 -8.485,-3.515c0,0 0,0 0,0c-3.183,0 -6.235,1.264 -8.485,3.515c-2.251,2.25 -3.515,5.302 -3.515,8.485c0,0.672 0,1.342 0,2c0,4.971 4.029,9 9,9c1.962,0 4.038,0 6,0c4.971,0 9,-4.029 9,-9c0,-0.658 0,-1.328 0,-2Z" style="fill:#fbc546;"/><path d="M21.276,22.553c0.155,0.31 0.139,0.678 -0.043,0.973c-0.183,0.295 -0.504,0.474 -0.851,0.474c-2.295,0 -6.469,0 -8.764,0c-0.347,0 -0.668,-0.179 -0.851,-0.474c-0.182,-0.295 -0.198,-0.663 -0.043,-0.973c0.056,-0.112 0.113,-0.227 0.17,-0.342c0.678,-1.355 2.063,-2.211 3.578,-2.211c0.972,0 2.084,0 3.056,0c1.515,0 2.9,0.856 3.578,2.211c0.057,0.115 0.114,0.23 0.17,0.342Z"/><path d="M23.05,14.001c0.146,0.01 0.288,0.046 0.418,0.115c0.321,0.17 0.528,0.511 0.532,0.874c0.001,0.106 -0.015,0.212 -0.047,0.313c-0.049,0.154 -0.135,0.288 -0.246,0.404l-2.707,2.707c-0.912,-0.912 -1.841,-1.806 -2.735,-2.736c-0.026,-0.029 -0.051,-0.06 -0.075,-0.092c-0.084,-0.121 -0.144,-0.253 -0.172,-0.398c-0.025,-0.131 -0.024,-0.266 0.004,-0.395c0.024,-0.117 0.07,-0.229 0.134,-0.33c0.05,-0.078 0.111,-0.149 0.18,-0.211c0.262,-0.232 0.635,-0.311 0.967,-0.205c0.154,0.049 0.288,0.135 0.404,0.246l1.293,1.293c0.44,-0.441 0.873,-0.889 1.322,-1.321c0.029,-0.026 0.06,-0.051 0.092,-0.075c0.167,-0.116 0.353,-0.179 0.556,-0.19c0.04,0 0.04,0 0.08,0.001Z" style="fill-rule:nonzero;"/><path d="M13.05,14.001c0.146,0.01 0.288,0.046 0.418,0.115c0.094,0.05 0.18,0.115 0.253,0.191c0.252,0.262 0.342,0.65 0.232,0.996c-0.049,0.154 -0.135,0.288 -0.246,0.404l-2.707,2.707c-0.912,-0.912 -1.841,-1.806 -2.735,-2.736c-0.026,-0.029 -0.051,-0.06 -0.075,-0.092c-0.092,-0.132 -0.155,-0.278 -0.179,-0.437c-0.052,-0.346 0.085,-0.702 0.356,-0.923c0.071,-0.059 0.151,-0.107 0.237,-0.144c0.109,-0.047 0.227,-0.075 0.346,-0.081c0.133,-0.006 0.266,0.014 0.391,0.059c0.139,0.05 0.26,0.131 0.366,0.233l1.293,1.293c0.44,-0.441 0.873,-0.889 1.322,-1.321c0.029,-0.026 0.06,-0.051 0.092,-0.075c0.167,-0.116 0.353,-0.179 0.556,-0.19c0.04,0 0.04,0 0.08,0.001Z" style="fill-rule:nonzero;"/><path d="M27.89,21.709c0.155,0.081 0.305,0.167 0.449,0.267c0.328,0.226 0.62,0.503 0.863,0.819c0.322,0.418 0.556,0.902 0.684,1.414c0.1,0.4 0.134,0.817 0.103,1.228c-0.029,0.384 -0.116,0.763 -0.257,1.121c-0.378,0.956 -1.14,1.738 -2.088,2.138c-0.353,0.15 -0.728,0.246 -1.11,0.284c-0.443,0.045 -0.893,0.014 -1.325,-0.094c-0.47,-0.117 -0.916,-0.324 -1.309,-0.606c-0.359,-0.257 -0.673,-0.577 -0.924,-0.941c-0.1,-0.144 -0.186,-0.294 -0.267,-0.449l-4.085,-8.171l1.095,-1.095c2.724,1.361 5.447,2.723 8.171,4.085Z" style="fill-rule:nonzero;"/><path d="M22,21c0,0 1.634,3.267 2.49,4.98c0.312,0.625 0.952,1.02 1.651,1.02c0,0 0.001,0 0.001,0c1.026,0 1.858,-0.832 1.858,-1.858c0,0 0,-0.001 0,-0.001c0,-0.699 -0.395,-1.339 -1.02,-1.651c-1.713,-0.856 -4.98,-2.49 -4.98,-2.49Z" style="fill:#fff;"/></g></svg>