<?xml version="1.0" encoding="UTF-8" standalone="no"?><!DOCTYPE svg PUBLIC "-//W3C//DTD SVG 1.1//EN" "http://www.w3.org/Graphics/SVG/1.1/DTD/svg11.dtd"><svg width="100%" height="100%" viewBox="0 0 32 32" version="1.1" xmlns="http://www.w3.org/2000/svg" xmlns:xlink="http://www.w3.org/1999/xlink" xml:space="preserve" style="fill-rule:evenodd;clip-rule:evenodd;stroke-linejoin:round;stroke-miterlimit:1.41421;">
<metadata>
<rdf:RDF xmlns:cc="http://web.resource.org/cc/"
         xmlns:rdf="http://www.w3.org/1999/02/22-rdf-syntax-ns#"
         xmlns:dc = "http://purl.org/dc/elements/1.1/"
         >

     <rdf:Description rdf:about="">
       <dc:title>Mutant Standard emoji v0.2.3</dc:title>
     </rdf:Description>

    <cc:work rdf:about="">
        <cc:license rdf:resource="http://creativecommons.org/licenses/by-nc-sa/4.0/"/>
        <cc:attributionName>Dzuk</cc:attributionName>
        <cc:attributionURL>http://mutant.tech/</cc:attributionURL>
    </cc:work>

</rdf:RDF>
</metadata>
<rect id="smile" x="0" y="0" width="32" height="32" style="fill:none;"/><g id="outline"><path d="M16.174,2.001c0.462,0.009 0.922,0.034 1.381,0.086c1.079,0.12 2.143,0.367 3.165,0.733c2.161,0.774 4.118,2.082 5.658,3.783c1.267,1.399 2.244,3.054 2.859,4.838c0.335,0.972 0.562,1.982 0.676,3.004c0.052,0.459 0.077,0.919 0.086,1.381c0.007,1.105 0.007,2.21 0,3.316c-0.007,0.374 -0.028,0.747 -0.071,1.119c-0.098,0.86 -0.298,1.708 -0.596,2.521c-0.579,1.58 -1.525,3.019 -2.742,4.18c-1.123,1.071 -2.471,1.9 -3.935,2.416c-0.774,0.272 -1.579,0.457 -2.394,0.55c-0.372,0.043 -0.745,0.064 -1.119,0.071c-2.095,0.013 -4.189,0.013 -6.284,0c-0.374,-0.007 -0.747,-0.028 -1.119,-0.071c-0.815,-0.093 -1.62,-0.278 -2.394,-0.55c-1.464,-0.516 -2.812,-1.345 -3.935,-2.416c-1.217,-1.161 -2.163,-2.6 -2.742,-4.18c-0.298,-0.813 -0.498,-1.661 -0.596,-2.521c-0.043,-0.372 -0.064,-0.745 -0.071,-1.119c-0.007,-1.108 -0.007,-2.215 0,-3.322c0.009,-0.477 0.036,-0.952 0.09,-1.425c0.125,-1.095 0.38,-2.174 0.759,-3.209c0.717,-1.958 1.878,-3.747 3.37,-5.203c1.453,-1.419 3.212,-2.516 5.128,-3.191c1.041,-0.367 2.125,-0.608 3.223,-0.72c0.473,-0.048 0.947,-0.069 1.423,-0.072c0.06,0 0.12,0.001 0.18,0.001Z" style="fill-rule:nonzero;"/></g><g id="emoji"><path d="M28,16c0,-3.183 -1.264,-6.235 -3.515,-8.485c-2.25,-2.251 -5.302,-3.515 -8.485,-3.515c0,0 0,0 0,0c-6.627,0 -12,5.373 -12,12c0,1.01 0,2.019 0,3c0,4.971 4.029,9 9,9c1.962,0 4.038,0 6,0c4.971,0 9,-4.029 9,-9c0,-0.981 0,-1.99 0,-3Z" style="fill:#fbc546;"/><path d="M12,13.498c0,-0.827 -0.671,-1.498 -1.498,-1.498c-0.001,0 -0.001,0 -0.002,0c-0.398,0 -0.779,0.158 -1.061,0.439c-0.281,0.282 -0.439,0.663 -0.439,1.061c0,0.633 0,1.367 0,2c0,0.398 0.158,0.779 0.439,1.061c0.282,0.281 0.663,0.439 1.061,0.439c0.398,0 0.779,-0.158 1.061,-0.439c0.281,-0.282 0.439,-0.663 0.439,-1.061c0,-0.633 0,-1.369 0,-2.002Z"/><path d="M23,13.498c0,-0.827 -0.671,-1.498 -1.498,-1.498c-0.001,0 -0.003,0 -0.004,0c-0.827,0 -1.498,0.671 -1.498,1.498c0,0.634 0,1.37 0,2.004c0,0.827 0.671,1.498 1.498,1.498c0.001,0 0.003,0 0.004,0c0.827,0 1.498,-0.671 1.498,-1.498c0,-0.634 0,-1.37 0,-2.004Z"/><path d="M10.102,19.005l0.068,0.01l0.067,0.013l0.066,0.019l0.064,0.023l0.062,0.027l0.061,0.031l0.058,0.036l0.056,0.039l0.053,0.043l0.05,0.047l0.877,0.877l0.057,0.056l0.056,0.054l0.056,0.053l0.057,0.052l0.058,0.052l0.058,0.05l0.059,0.05l0.059,0.049l0.06,0.049l0.06,0.047l0.061,0.047l0.061,0.046l0.062,0.045l0.062,0.045l0.063,0.043l0.064,0.043l0.064,0.042l0.064,0.041l0.065,0.041l0.065,0.039l0.066,0.039l0.066,0.038l0.066,0.037l0.067,0.037l0.068,0.035l0.068,0.035l0.068,0.034l0.069,0.032l0.069,0.033l0.069,0.031l0.07,0.03l0.07,0.03l0.071,0.029l0.07,0.027l0.072,0.027l0.071,0.026l0.072,0.026l0.072,0.024l0.073,0.024l0.072,0.022l0.073,0.022l0.074,0.021l0.073,0.02l0.074,0.019l0.074,0.018l0.075,0.017l0.074,0.017l0.075,0.015l0.075,0.014l0.076,0.014l0.075,0.013l0.076,0.012l0.076,0.01l0.076,0.01l0.076,0.009l0.077,0.008l0.076,0.008l0.077,0.006l0.077,0.005l0.077,0.004l0.077,0.004l0.078,0.002l0.077,0.002l0.078,0l0.078,0l0.077,-0.002l0.078,-0.002l0.077,-0.004l0.077,-0.004l0.077,-0.005l0.077,-0.006l0.076,-0.008l0.077,-0.008l0.076,-0.009l0.076,-0.01l0.076,-0.01l0.076,-0.012l0.075,-0.013l0.076,-0.014l0.075,-0.014l0.075,-0.015l0.074,-0.017l0.075,-0.017l0.074,-0.018l0.074,-0.019l0.073,-0.02l0.074,-0.021l0.073,-0.022l0.072,-0.022l0.073,-0.024l0.072,-0.024l0.072,-0.026l0.071,-0.026l0.072,-0.027l0.07,-0.027l0.071,-0.029l0.07,-0.03l0.07,-0.03l0.069,-0.031l0.069,-0.033l0.069,-0.032l0.068,-0.034l0.068,-0.035l0.068,-0.035l0.067,-0.037l0.066,-0.037l0.066,-0.038l0.066,-0.039l0.065,-0.039l0.065,-0.041l0.064,-0.041l0.064,-0.042l0.064,-0.043l0.063,-0.043l0.062,-0.045l0.062,-0.045l0.061,-0.046l0.061,-0.047l0.06,-0.047l0.06,-0.049l0.059,-0.049l0.059,-0.05l0.058,-0.05l0.058,-0.052l0.057,-0.052l0.056,-0.053l0.056,-0.054l0.057,-0.056l0.877,-0.877l0.05,-0.047l0.053,-0.043l0.056,-0.039l0.058,-0.036l0.061,-0.031l0.062,-0.027l0.064,-0.023l0.066,-0.019l0.067,-0.013l0.068,-0.01l0.068,-0.004l0.068,0l0.068,0.004l0.068,0.01l0.067,0.013l0.066,0.019l0.064,0.023l0.062,0.027l0.061,0.031l0.058,0.036l0.056,0.039l0.053,0.043l0.05,0.047l0.047,0.05l0.043,0.053l0.039,0.056l0.036,0.058l0.031,0.061l0.027,0.062l0.023,0.064l0.019,0.066l0.013,0.067l0.01,0.068l0.004,0.068l0,0.068l-0.004,0.068l-0.01,0.068l-0.013,0.067l-0.019,0.066l-0.023,0.064l-0.027,0.062l-0.031,0.061l-0.036,0.058l-0.039,0.056l-0.043,0.053l-0.047,0.05l-0.881,0.881l-0.071,0.07l-0.073,0.071l-0.075,0.07l-0.075,0.069l-0.076,0.068l-0.077,0.067l-0.077,0.066l-0.078,0.064l-0.079,0.064l-0.08,0.063l-0.08,0.062l-0.081,0.061l-0.082,0.059l-0.082,0.059l-0.083,0.058l-0.084,0.056l-0.084,0.056l-0.085,0.054l-0.086,0.054l-0.086,0.052l-0.087,0.051l-0.087,0.05l-0.088,0.049l-0.089,0.048l-0.089,0.047l-0.089,0.046l-0.09,0.044l-0.091,0.044l-0.091,0.042l-0.092,0.041l-0.092,0.041l-0.093,0.039l-0.093,0.038l-0.093,0.036l-0.094,0.036l-0.095,0.034l-0.095,0.034l-0.095,0.032l-0.096,0.031l-0.096,0.03l-0.096,0.028l-0.097,0.028l-0.097,0.026l-0.098,0.025l-0.098,0.024l-0.098,0.023l-0.098,0.022l-0.099,0.02l-0.099,0.019l-0.1,0.018l-0.1,0.017l-0.1,0.016l-0.1,0.014l-0.1,0.013l-0.101,0.012l-0.101,0.011l-0.101,0.009l-0.102,0.008l-0.101,0.007l-0.102,0.006l-0.102,0.004l-0.102,0.003l-0.102,0.002l-0.1,0.001l-0.006,0l-0.1,-0.001l-0.102,-0.002l-0.102,-0.003l-0.102,-0.004l-0.102,-0.006l-0.101,-0.007l-0.102,-0.008l-0.101,-0.009l-0.101,-0.011l-0.101,-0.012l-0.1,-0.013l-0.1,-0.014l-0.1,-0.016l-0.1,-0.017l-0.1,-0.018l-0.099,-0.019l-0.099,-0.02l-0.098,-0.022l-0.098,-0.023l-0.098,-0.024l-0.098,-0.025l-0.097,-0.026l-0.097,-0.028l-0.096,-0.028l-0.096,-0.03l-0.096,-0.031l-0.095,-0.032l-0.095,-0.034l-0.095,-0.034l-0.094,-0.036l-0.093,-0.036l-0.093,-0.038l-0.093,-0.039l-0.092,-0.041l-0.092,-0.041l-0.091,-0.042l-0.091,-0.044l-0.09,-0.044l-0.089,-0.046l-0.089,-0.047l-0.089,-0.048l-0.088,-0.049l-0.087,-0.05l-0.087,-0.051l-0.086,-0.052l-0.086,-0.054l-0.085,-0.054l-0.084,-0.056l-0.084,-0.056l-0.083,-0.058l-0.082,-0.059l-0.082,-0.059l-0.081,-0.061l-0.08,-0.062l-0.08,-0.063l-0.079,-0.064l-0.078,-0.064l-0.077,-0.066l-0.077,-0.067l-0.076,-0.068l-0.075,-0.069l-0.075,-0.07l-0.073,-0.071l-0.071,-0.07l-0.881,-0.881l-0.047,-0.05l-0.043,-0.053l-0.039,-0.056l-0.036,-0.058l-0.031,-0.061l-0.027,-0.062l-0.023,-0.064l-0.019,-0.066l-0.013,-0.067l-0.01,-0.068l-0.004,-0.068l0,-0.068l0.004,-0.068l0.01,-0.068l0.013,-0.067l0.019,-0.066l0.023,-0.064l0.027,-0.062l0.031,-0.061l0.036,-0.058l0.039,-0.056l0.043,-0.053l0.047,-0.05l0.05,-0.047l0.053,-0.043l0.056,-0.039l0.058,-0.036l0.061,-0.031l0.062,-0.027l0.064,-0.023l0.066,-0.019l0.067,-0.013l0.068,-0.01l0.068,-0.004l0.068,0l0.068,0.004Z"/></g></svg>