<?xml version="1.0" encoding="UTF-8" standalone="no"?><!DOCTYPE svg PUBLIC "-//W3C//DTD SVG 1.1//EN" "http://www.w3.org/Graphics/SVG/1.1/DTD/svg11.dtd"><svg width="100%" height="100%" viewBox="0 0 32 32" version="1.1" xmlns="http://www.w3.org/2000/svg" xmlns:xlink="http://www.w3.org/1999/xlink" xml:space="preserve" style="fill-rule:evenodd;clip-rule:evenodd;stroke-linejoin:round;stroke-miterlimit:1.41421;">
<metadata>
<rdf:RDF xmlns:cc="http://web.resource.org/cc/"
         xmlns:rdf="http://www.w3.org/1999/02/22-rdf-syntax-ns#"
         xmlns:dc = "http://purl.org/dc/elements/1.1/"
         >

     <rdf:Description rdf:about="">
       <dc:title>Mutant Standard emoji v0.2.3</dc:title>
     </rdf:Description>

    <cc:work rdf:about="">
        <cc:license rdf:resource="http://creativecommons.org/licenses/by-nc-sa/4.0/"/>
        <cc:attributionName>Dzuk</cc:attributionName>
        <cc:attributionURL>http://mutant.tech/</cc:attributionURL>
    </cc:work>

</rdf:RDF>
</metadata>
<rect id="smirk" x="0" y="0" width="32" height="32" style="fill:none;"/><g id="outline"><path d="M16.174,3.001c0.462,0.009 0.922,0.034 1.381,0.086c1.022,0.114 2.032,0.341 3.004,0.676c1.949,0.671 3.741,1.776 5.217,3.215c1.518,1.481 2.689,3.305 3.404,5.302c0.366,1.022 0.613,2.086 0.733,3.165c0.052,0.459 0.077,0.919 0.086,1.381c0.005,0.772 0.005,1.544 0,2.316c-0.007,0.374 -0.028,0.747 -0.071,1.119c-0.093,0.815 -0.278,1.62 -0.55,2.394c-0.545,1.547 -1.44,2.964 -2.6,4.123c-1.127,1.128 -2.498,2.006 -3.996,2.554c-0.813,0.298 -1.661,0.498 -2.521,0.596c-0.372,0.043 -0.745,0.064 -1.119,0.071c-2.095,0.013 -4.189,0.013 -6.284,0c-0.374,-0.007 -0.747,-0.028 -1.119,-0.071c-0.86,-0.098 -1.708,-0.298 -2.521,-0.596c-1.58,-0.579 -3.019,-1.525 -4.18,-2.742c-1.071,-1.123 -1.9,-2.471 -2.416,-3.935c-0.272,-0.774 -0.457,-1.579 -0.55,-2.394c-0.043,-0.372 -0.064,-0.745 -0.071,-1.119c-0.005,-0.772 -0.005,-1.544 0,-2.316c0.009,-0.462 0.034,-0.922 0.086,-1.381c0.114,-1.022 0.341,-2.032 0.676,-3.004c0.653,-1.894 1.714,-3.641 3.095,-5.092c1.501,-1.578 3.371,-2.795 5.422,-3.529c1.022,-0.366 2.086,-0.613 3.165,-0.733c0.459,-0.052 0.919,-0.077 1.381,-0.086c0.174,-0.001 0.174,-0.001 0.348,0Z" style="fill-rule:nonzero;"/></g><g id="emoji"><path d="M28,17c0,-3.183 -1.264,-6.235 -3.515,-8.485c-2.25,-2.251 -5.302,-3.515 -8.485,-3.515c0,0 0,0 0,0c-3.183,0 -6.235,1.264 -8.485,3.515c-2.251,2.25 -3.515,5.302 -3.515,8.485c0,0.672 0,1.342 0,2c0,4.971 4.029,9 9,9c1.962,0 4.038,0 6,0c4.971,0 9,-4.029 9,-9c0,-0.658 0,-1.328 0,-2Z" style="fill:#fbc546;"/><path d="M21.083,19.003c0.131,0.015 0.257,0.047 0.375,0.108c0.356,0.183 0.572,0.573 0.539,0.972c-0.013,0.152 -0.062,0.292 -0.135,0.424c-0.099,0.158 -0.205,0.312 -0.31,0.467c-0.27,0.385 -0.571,0.745 -0.91,1.071c-0.848,0.815 -1.899,1.409 -3.035,1.715c-0.558,0.15 -1.131,0.226 -1.709,0.239c-0.966,0.008 -1.932,0.001 -2.898,0.001c-0.209,-0.006 -0.407,-0.063 -0.579,-0.184c-0.091,-0.065 -0.172,-0.146 -0.237,-0.237c-0.054,-0.077 -0.097,-0.16 -0.128,-0.249c-0.112,-0.321 -0.05,-0.687 0.162,-0.953c0.082,-0.103 0.184,-0.189 0.298,-0.252c0.133,-0.074 0.277,-0.111 0.428,-0.123c0.974,-0.028 1.949,0.005 2.923,-0.003c0.413,-0.009 0.822,-0.063 1.221,-0.171c0.811,-0.218 1.562,-0.642 2.167,-1.224c0.242,-0.233 0.457,-0.491 0.65,-0.766c0.089,-0.13 0.176,-0.262 0.263,-0.393c0.033,-0.046 0.066,-0.09 0.105,-0.131c0.115,-0.123 0.262,-0.215 0.422,-0.266c0.072,-0.023 0.145,-0.036 0.22,-0.044c0.057,-0.004 0.111,-0.004 0.168,-0.001Z" style="fill-rule:nonzero;"/><path d="M24,13.5c0,-0.828 -0.672,-1.5 -1.5,-1.5c-0.757,0 -1.685,0 -2.502,0c-1.103,0 -1.998,0.895 -1.998,1.998c0,0.001 0,0.002 0,0.002l3,0.023c0,0 0,0.816 0,1.593c0,0.367 0.146,0.719 0.405,0.979c0.26,0.259 0.612,0.405 0.979,0.405c0.001,0 0.001,0 0.002,0c0.428,0 0.839,-0.17 1.141,-0.473c0.303,-0.302 0.473,-0.713 0.473,-1.141c0,-0.606 0,-1.291 0,-1.886Z"/><path d="M13,13.5c0,-0.828 -0.672,-1.5 -1.5,-1.5c-0.757,0 -1.685,0 -2.502,0c-1.103,0 -1.998,0.895 -1.998,1.998c0,0.001 0,0.002 0,0.002l3,0.023c0,0 0,0.816 0,1.593c0,0.367 0.146,0.719 0.405,0.979c0.26,0.259 0.612,0.405 0.979,0.405c0.001,0 0.001,0 0.002,0c0.428,0 0.839,-0.17 1.141,-0.473c0.303,-0.302 0.473,-0.713 0.473,-1.141c0,-0.606 0,-1.291 0,-1.886Z"/></g></svg>