<?xml version="1.0" encoding="UTF-8" standalone="no"?><!DOCTYPE svg PUBLIC "-//W3C//DTD SVG 1.1//EN" "http://www.w3.org/Graphics/SVG/1.1/DTD/svg11.dtd"><svg width="100%" height="100%" viewBox="0 0 32 32" version="1.1" xmlns="http://www.w3.org/2000/svg" xmlns:xlink="http://www.w3.org/1999/xlink" xml:space="preserve" style="fill-rule:evenodd;clip-rule:evenodd;stroke-linejoin:round;stroke-miterlimit:1.41421;">
<metadata>
<rdf:RDF xmlns:cc="http://web.resource.org/cc/"
         xmlns:rdf="http://www.w3.org/1999/02/22-rdf-syntax-ns#"
         xmlns:dc = "http://purl.org/dc/elements/1.1/"
         >

     <rdf:Description rdf:about="">
       <dc:title>Mutant Standard emoji v0.2.3</dc:title>
     </rdf:Description>

    <cc:work rdf:about="">
        <cc:license rdf:resource="http://creativecommons.org/licenses/by-nc-sa/4.0/"/>
        <cc:attributionName>Dzuk</cc:attributionName>
        <cc:attributionURL>http://mutant.tech/</cc:attributionURL>
    </cc:work>

</rdf:RDF>
</metadata>
<rect id="starry_eyes" x="0" y="0" width="32" height="32" style="fill:none;"/><g id="outline"><path d="M9.428,3.637c0.617,-0.329 1.259,-0.612 1.92,-0.845c0.985,-0.347 2.009,-0.582 3.047,-0.701c0.531,-0.061 1.064,-0.088 1.599,-0.091c0.06,0 0.12,0.001 0.18,0.001c0.462,0.009 0.922,0.034 1.381,0.086c1.022,0.114 2.032,0.341 3.004,0.676c0.693,0.239 1.365,0.532 2.011,0.875c0.131,-0.061 0.267,-0.109 0.408,-0.144c0.114,-0.027 0.229,-0.046 0.346,-0.055c0.058,-0.005 0.117,-0.005 0.176,-0.007c0.059,0.002 0.118,0.004 0.176,0.007c0.059,0.007 0.117,0.012 0.175,0.021c0.171,0.027 0.338,0.075 0.498,0.142c0.422,0.176 0.784,0.485 1.024,0.874c0.064,0.103 0.113,0.2 0.16,0.311c0.017,0.042 0.031,0.086 0.047,0.128l0.417,1.284c0.463,0.472 0.891,0.977 1.282,1.51l2.146,0l0.136,0.005c0.155,0.019 0.194,0.019 0.345,0.056c0.278,0.067 0.541,0.19 0.772,0.358c0.185,0.133 0.348,0.296 0.483,0.48c0.138,0.188 0.245,0.398 0.317,0.62c0.179,0.55 0.132,1.16 -0.13,1.675c-0.104,0.206 -0.24,0.394 -0.402,0.558c-0.105,0.105 -0.127,0.118 -0.236,0.204l-1.154,0.838c0.165,0.638 0.284,1.287 0.357,1.942c0.052,0.459 0.077,0.919 0.086,1.381c0.009,1.434 0.009,2.869 0,4.303c-0.006,0.34 -0.025,0.679 -0.064,1.017c-0.085,0.741 -0.253,1.473 -0.501,2.177c-0.455,1.293 -1.18,2.486 -2.113,3.489c-1.07,1.149 -2.408,2.041 -3.883,2.581c-0.739,0.27 -1.51,0.452 -2.292,0.542c-0.338,0.039 -0.677,0.058 -1.017,0.064c-2.753,0.017 -5.505,0.017 -8.258,0c-0.34,-0.006 -0.679,-0.025 -1.017,-0.064c-0.741,-0.085 -1.473,-0.253 -2.177,-0.501c-1.406,-0.495 -2.694,-1.309 -3.748,-2.363c-1.025,-1.025 -1.823,-2.271 -2.322,-3.633c-0.27,-0.739 -0.453,-1.51 -0.542,-2.292c-0.039,-0.338 -0.058,-0.677 -0.064,-1.017c-0.009,-1.437 -0.009,-2.873 0,-4.309c0.01,-0.536 0.044,-1.069 0.111,-1.601c0.074,-0.578 0.184,-1.153 0.329,-1.718l-1.151,-0.836l-0.107,-0.084c-0.114,-0.107 -0.146,-0.13 -0.247,-0.249c-0.184,-0.217 -0.326,-0.471 -0.414,-0.743c-0.071,-0.217 -0.107,-0.444 -0.108,-0.672c-0.001,-0.234 0.036,-0.467 0.108,-0.689c0.178,-0.549 0.575,-1.015 1.089,-1.278c0.205,-0.106 0.427,-0.178 0.654,-0.215c0.146,-0.023 0.173,-0.021 0.31,-0.026l2.145,0c0.391,-0.533 0.82,-1.037 1.283,-1.51l0.417,-1.284l0.047,-0.128c0.025,-0.053 0.048,-0.107 0.074,-0.159c0.053,-0.103 0.114,-0.202 0.183,-0.295c0.304,-0.416 0.754,-0.717 1.254,-0.839c0.114,-0.027 0.229,-0.046 0.346,-0.055c0.058,-0.005 0.117,-0.005 0.176,-0.007c0.059,0.002 0.118,0.004 0.176,0.007c0.058,0.007 0.117,0.012 0.175,0.021c0.171,0.027 0.338,0.075 0.498,0.142c0.027,0.011 0.053,0.023 0.079,0.035Z"/></g><g id="emoji"><path d="M4,18.851c0.062,0.027 2.5,-3.948 2.5,-3.948l9.5,-4.498l9.5,4.498c0,0 2.124,4.107 2.5,3.948l0,1.149c0,4.418 -3.582,8 -8,8c-2.574,0 -5.426,0 -8,0c-4.418,0 -8,-3.582 -8,-8l0,-1.149Zm12,-14.851c1.861,0 3.677,0.432 5.314,1.241l2.186,4.759l-15,0l2.185,-4.762c1.602,-0.792 3.406,-1.238 5.315,-1.238l0,0Z" style="fill:#fbc546;"/><path d="M10.685,5.238l0.803,2.471l2.937,0l0.136,0.005c0.155,0.019 0.194,0.019 0.345,0.056c0.278,0.067 0.541,0.19 0.772,0.358c0.117,0.084 0.225,0.18 0.323,0.286c0.174,-0.188 0.38,-0.347 0.61,-0.464c0.205,-0.106 0.427,-0.178 0.654,-0.215c0.146,-0.023 0.173,-0.021 0.31,-0.026l2.937,0l0.802,-2.468c1.164,0.574 2.237,1.339 3.171,2.274c2.251,2.25 3.515,5.302 3.515,8.485l0,2.851c-0.376,0.159 -0.795,0.214 -1.202,0.151c-0.228,-0.036 -0.45,-0.107 -0.655,-0.211c-0.133,-0.067 -0.152,-0.085 -0.267,-0.161l-2.376,-1.727l-2.376,1.727l-0.114,0.075c-0.135,0.076 -0.168,0.099 -0.311,0.158c-0.265,0.109 -0.55,0.165 -0.836,0.165c-0.228,0 -0.455,-0.036 -0.672,-0.105c-0.222,-0.072 -0.433,-0.178 -0.622,-0.316c-0.467,-0.339 -0.788,-0.86 -0.879,-1.431c-0.037,-0.227 -0.038,-0.46 -0.002,-0.688c0.022,-0.146 0.033,-0.171 0.07,-0.303l0.908,-2.794l-2.376,-1.726l-0.107,-0.084c-0.087,-0.081 -0.126,-0.114 -0.183,-0.176c-0.018,0.019 -0.036,0.037 -0.054,0.056c-0.105,0.105 -0.127,0.118 -0.236,0.204l-2.376,1.726l0.908,2.794l0.036,0.131c0.03,0.153 0.042,0.19 0.054,0.345c0.022,0.285 -0.013,0.574 -0.101,0.846c-0.071,0.216 -0.175,0.422 -0.308,0.607c-0.102,0.141 -0.221,0.271 -0.354,0.384c-0.485,0.415 -1.14,0.602 -1.771,0.504c-0.228,-0.036 -0.45,-0.107 -0.655,-0.211c-0.133,-0.067 -0.152,-0.085 -0.267,-0.161l-2.376,-1.727l-2.376,1.727l-0.114,0.075c-0.135,0.076 -0.168,0.099 -0.311,0.158c-0.265,0.109 -0.55,0.165 -0.836,0.165c-0.228,0 -0.455,-0.036 -0.672,-0.105c-0.065,-0.021 -0.129,-0.045 -0.191,-0.072l0,-2.851c0,-4.719 2.724,-8.802 6.685,-10.762Z" style="fill:#7e5108;"/><path d="M23.31,5.572c0.027,-0.083 0.103,-0.139 0.19,-0.139c0.087,0 0.163,0.056 0.19,0.139c0.411,1.264 1.344,4.137 1.344,4.137c0,0 3.021,0 4.35,0c0.087,0 0.164,0.055 0.191,0.138c0.026,0.082 -0.003,0.172 -0.073,0.223c-1.075,0.782 -3.519,2.557 -3.519,2.557c0,0 0.933,2.873 1.344,4.137c0.027,0.083 -0.003,0.173 -0.073,0.224c-0.07,0.051 -0.165,0.051 -0.235,0c-1.075,-0.781 -3.519,-2.557 -3.519,-2.557c0,0 -2.444,1.776 -3.519,2.557c-0.07,0.051 -0.165,0.051 -0.235,0c-0.07,-0.051 -0.1,-0.141 -0.073,-0.224c0.411,-1.264 1.344,-4.137 1.344,-4.137c0,0 -2.444,-1.775 -3.519,-2.557c-0.07,-0.051 -0.099,-0.141 -0.073,-0.223c0.027,-0.083 0.104,-0.138 0.191,-0.138c1.329,0 4.35,0 4.35,0c0,0 0.933,-2.873 1.344,-4.137Z" style="fill:#ffec8e;"/><path d="M8.31,5.572c0.027,-0.083 0.103,-0.139 0.19,-0.139c0.087,0 0.163,0.056 0.19,0.139c0.411,1.264 1.344,4.137 1.344,4.137c0,0 3.021,0 4.35,0c0.087,0 0.164,0.055 0.191,0.138c0.026,0.082 -0.003,0.172 -0.073,0.223c-1.075,0.782 -3.519,2.557 -3.519,2.557c0,0 0.933,2.873 1.344,4.137c0.027,0.083 -0.003,0.173 -0.073,0.224c-0.07,0.051 -0.165,0.051 -0.235,0c-1.075,-0.781 -3.519,-2.557 -3.519,-2.557c0,0 -2.444,1.776 -3.519,2.557c-0.07,0.051 -0.165,0.051 -0.235,0c-0.07,-0.051 -0.1,-0.141 -0.073,-0.224c0.411,-1.264 1.344,-4.137 1.344,-4.137c0,0 -2.444,-1.775 -3.519,-2.557c-0.07,-0.051 -0.099,-0.141 -0.073,-0.223c0.027,-0.083 0.104,-0.138 0.191,-0.138c1.329,0 4.35,0 4.35,0c0,0 0.933,-2.873 1.344,-4.137Z" style="fill:#ffec8e;"/><path d="M10.17,20.015l0.067,0.013l0.066,0.019l0.064,0.023l0.062,0.027l0.061,0.031l0.058,0.036l0.056,0.039l0.053,0.043l0.05,0.047l1.963,1.963l0.014,0.013l0.009,0.008l0.009,0.008l0.009,0.008l0.009,0.007l0.009,0.007l0.009,0.007l0.01,0.006l0.009,0.006l0.01,0.006l0.01,0.006l0.009,0.005l0.01,0.005l0.01,0.005l0.01,0.004l0.01,0.005l0.011,0.004l0.01,0.003l0.011,0.004l0.01,0.003l0.011,0.003l0.011,0.003l0.01,0.003l0.011,0.002l0.011,0.002l0.011,0.001l0.011,0.002l0.011,0.001l0.012,0.001l0.011,0.001l0.011,0l0.011,0l0.011,0l0.011,0l0.011,-0.001l0.012,-0.001l0.011,-0.001l0.011,-0.002l0.011,-0.001l0.011,-0.002l0.011,-0.002l0.01,-0.003l0.011,-0.003l0.011,-0.003l0.01,-0.003l0.011,-0.004l0.01,-0.003l0.011,-0.004l0.01,-0.005l0.01,-0.004l0.01,-0.005l0.01,-0.005l0.009,-0.005l0.01,-0.006l0.01,-0.006l0.009,-0.006l0.01,-0.006l0.009,-0.007l0.009,-0.007l0.009,-0.007l0.009,-0.008l0.009,-0.007l0.009,-0.009l0.014,-0.013l0.935,-0.935l0.041,-0.04l0.046,-0.043l0.047,-0.041l0.048,-0.04l0.048,-0.039l0.05,-0.037l0.05,-0.036l0.051,-0.034l0.051,-0.034l0.053,-0.031l0.052,-0.031l0.054,-0.029l0.054,-0.027l0.054,-0.026l0.055,-0.025l0.056,-0.023l0.056,-0.022l0.056,-0.021l0.057,-0.019l0.057,-0.017l0.057,-0.016l0.057,-0.015l0.058,-0.014l0.058,-0.011l0.058,-0.011l0.059,-0.009l0.058,-0.008l0.059,-0.006l0.059,-0.005l0.058,-0.004l0.059,-0.002l0.059,0l0.059,0l0.059,0.002l0.058,0.004l0.059,0.005l0.059,0.006l0.058,0.008l0.059,0.009l0.058,0.011l0.058,0.011l0.058,0.014l0.057,0.015l0.057,0.016l0.057,0.017l0.057,0.019l0.056,0.021l0.056,0.022l0.056,0.023l0.055,0.025l0.054,0.026l0.054,0.027l0.054,0.029l0.052,0.031l0.053,0.031l0.051,0.034l0.051,0.034l0.05,0.036l0.05,0.037l0.048,0.039l0.048,0.04l0.047,0.041l0.046,0.043l0.041,0.04l0.935,0.935l0.014,0.013l0.009,0.008l0.009,0.008l0.009,0.008l0.009,0.007l0.009,0.007l0.009,0.007l0.01,0.006l0.009,0.006l0.01,0.006l0.01,0.006l0.009,0.005l0.01,0.005l0.01,0.005l0.01,0.004l0.01,0.005l0.011,0.004l0.01,0.003l0.011,0.004l0.01,0.003l0.011,0.003l0.011,0.003l0.01,0.003l0.011,0.002l0.011,0.002l0.011,0.001l0.011,0.002l0.011,0.001l0.012,0.001l0.011,0.001l0.011,0l0.011,0l0.011,0l0.011,0l0.011,-0.001l0.012,-0.001l0.011,-0.001l0.011,-0.002l0.011,-0.001l0.011,-0.002l0.011,-0.002l0.01,-0.003l0.011,-0.003l0.011,-0.003l0.01,-0.003l0.011,-0.004l0.01,-0.003l0.011,-0.004l0.01,-0.005l0.01,-0.004l0.01,-0.005l0.01,-0.005l0.009,-0.005l0.01,-0.006l0.01,-0.006l0.009,-0.006l0.01,-0.006l0.009,-0.007l0.009,-0.007l0.009,-0.007l0.009,-0.008l0.009,-0.007l0.009,-0.009l0.014,-0.013l1.963,-1.963l0.05,-0.047l0.053,-0.043l0.056,-0.039l0.058,-0.036l0.061,-0.031l0.062,-0.027l0.064,-0.023l0.066,-0.019l0.067,-0.013l0.068,-0.01l0.068,-0.004l0.068,0l0.068,0.004l0.068,0.01l0.067,0.013l0.066,0.019l0.064,0.023l0.062,0.027l0.061,0.031l0.058,0.036l0.056,0.039l0.053,0.043l0.05,0.047l0.047,0.05l0.043,0.053l0.039,0.056l0.036,0.058l0.031,0.061l0.027,0.062l0.023,0.064l0.019,0.066l0.013,0.067l0.01,0.068l0.004,0.068l0,0.068l-0.004,0.068l-0.01,0.068l-0.013,0.067l-0.019,0.066l-0.023,0.064l-0.027,0.062l-0.031,0.061l-0.036,0.058l-0.039,0.056l-0.043,0.053l-0.047,0.05l-1.972,1.972l-0.041,0.04l-0.046,0.043l-0.047,0.041l-0.048,0.04l-0.048,0.039l-0.05,0.037l-0.05,0.036l-0.051,0.034l-0.051,0.034l-0.053,0.031l-0.052,0.031l-0.054,0.029l-0.054,0.027l-0.054,0.026l-0.055,0.025l-0.056,0.023l-0.056,0.022l-0.056,0.021l-0.057,0.019l-0.057,0.017l-0.057,0.016l-0.057,0.015l-0.058,0.014l-0.058,0.011l-0.058,0.011l-0.059,0.009l-0.058,0.008l-0.059,0.006l-0.058,0.005l-0.059,0.004l-0.059,0.002l-0.059,0l-0.059,0l-0.059,-0.002l-0.059,-0.004l-0.058,-0.005l-0.059,-0.006l-0.058,-0.008l-0.059,-0.009l-0.058,-0.011l-0.058,-0.011l-0.058,-0.014l-0.057,-0.015l-0.057,-0.016l-0.057,-0.017l-0.057,-0.019l-0.056,-0.021l-0.056,-0.022l-0.056,-0.023l-0.055,-0.025l-0.054,-0.026l-0.054,-0.027l-0.054,-0.029l-0.052,-0.031l-0.053,-0.031l-0.051,-0.034l-0.051,-0.034l-0.05,-0.036l-0.05,-0.037l-0.048,-0.039l-0.048,-0.04l-0.047,-0.041l-0.046,-0.043l-0.041,-0.04l-0.935,-0.935l-0.014,-0.013l-0.009,-0.009l-0.009,-0.007l-0.009,-0.008l-0.009,-0.007l-0.009,-0.007l-0.009,-0.007l-0.01,-0.006l-0.009,-0.006l-0.01,-0.006l-0.01,-0.006l-0.009,-0.005l-0.01,-0.005l-0.01,-0.005l-0.01,-0.004l-0.01,-0.005l-0.011,-0.004l-0.01,-0.003l-0.011,-0.004l-0.01,-0.003l-0.011,-0.003l-0.011,-0.003l-0.01,-0.003l-0.011,-0.002l-0.011,-0.002l-0.011,-0.001l-0.011,-0.002l-0.011,-0.001l-0.011,-0.001l-0.012,-0.001l-0.011,0l-0.011,0l-0.011,0l-0.011,0l-0.012,0.001l-0.011,0.001l-0.011,0.001l-0.011,0.002l-0.011,0.001l-0.011,0.002l-0.011,0.002l-0.01,0.003l-0.011,0.003l-0.011,0.003l-0.01,0.003l-0.011,0.004l-0.01,0.003l-0.011,0.004l-0.01,0.005l-0.01,0.004l-0.01,0.005l-0.01,0.005l-0.009,0.005l-0.01,0.006l-0.01,0.006l-0.009,0.006l-0.01,0.006l-0.009,0.007l-0.009,0.007l-0.009,0.007l-0.009,0.008l-0.009,0.007l-0.009,0.009l-0.014,0.013l-0.935,0.935l-0.041,0.04l-0.046,0.043l-0.047,0.041l-0.048,0.04l-0.048,0.039l-0.05,0.037l-0.05,0.036l-0.051,0.034l-0.051,0.034l-0.053,0.031l-0.052,0.031l-0.054,0.029l-0.054,0.027l-0.054,0.026l-0.055,0.025l-0.056,0.023l-0.056,0.022l-0.056,0.021l-0.057,0.019l-0.057,0.017l-0.057,0.016l-0.057,0.015l-0.058,0.014l-0.058,0.011l-0.058,0.011l-0.059,0.009l-0.058,0.008l-0.059,0.006l-0.058,0.005l-0.059,0.004l-0.059,0.002l-0.059,0l-0.059,0l-0.059,-0.002l-0.059,-0.004l-0.058,-0.005l-0.059,-0.006l-0.058,-0.008l-0.059,-0.009l-0.058,-0.011l-0.058,-0.011l-0.058,-0.014l-0.057,-0.015l-0.057,-0.016l-0.057,-0.017l-0.057,-0.019l-0.056,-0.021l-0.056,-0.022l-0.056,-0.023l-0.055,-0.025l-0.054,-0.026l-0.054,-0.027l-0.054,-0.029l-0.052,-0.031l-0.053,-0.031l-0.051,-0.034l-0.051,-0.034l-0.05,-0.036l-0.05,-0.037l-0.048,-0.039l-0.048,-0.04l-0.047,-0.041l-0.046,-0.043l-0.041,-0.04l-1.972,-1.972l-0.047,-0.05l-0.043,-0.053l-0.039,-0.056l-0.036,-0.058l-0.031,-0.061l-0.027,-0.062l-0.023,-0.064l-0.019,-0.066l-0.013,-0.067l-0.01,-0.068l-0.004,-0.068l0,-0.068l0.004,-0.068l0.01,-0.068l0.013,-0.067l0.019,-0.066l0.023,-0.064l0.027,-0.062l0.031,-0.061l0.036,-0.058l0.039,-0.056l0.043,-0.053l0.047,-0.05l0.05,-0.047l0.053,-0.043l0.056,-0.039l0.058,-0.036l0.061,-0.031l0.062,-0.027l0.064,-0.023l0.066,-0.019l0.067,-0.013l0.068,-0.01l0.068,-0.004l0.068,0l0.068,0.004l0.068,0.01Z"/></g></svg>