<?xml version="1.0" encoding="UTF-8" standalone="no"?><!DOCTYPE svg PUBLIC "-//W3C//DTD SVG 1.1//EN" "http://www.w3.org/Graphics/SVG/1.1/DTD/svg11.dtd"><svg width="100%" height="100%" viewBox="0 0 32 32" version="1.1" xmlns="http://www.w3.org/2000/svg" xmlns:xlink="http://www.w3.org/1999/xlink" xml:space="preserve" style="fill-rule:evenodd;clip-rule:evenodd;stroke-linejoin:round;stroke-miterlimit:1.41421;">
<metadata>
<rdf:RDF xmlns:cc="http://web.resource.org/cc/"
         xmlns:rdf="http://www.w3.org/1999/02/22-rdf-syntax-ns#"
         xmlns:dc = "http://purl.org/dc/elements/1.1/"
         >

     <rdf:Description rdf:about="">
       <dc:title>Mutant Standard emoji v0.2.3</dc:title>
     </rdf:Description>

    <cc:work rdf:about="">
        <cc:license rdf:resource="http://creativecommons.org/licenses/by-nc-sa/4.0/"/>
        <cc:attributionName>Dzuk</cc:attributionName>
        <cc:attributionURL>http://mutant.tech/</cc:attributionURL>
    </cc:work>

</rdf:RDF>
</metadata>
<rect id="stick_out_tongue" x="0" y="0" width="32" height="32" style="fill:none;"/><g id="outline"><path d="M16.174,2.001c0.462,0.009 0.922,0.034 1.381,0.086c1.079,0.12 2.143,0.367 3.165,0.733c1.887,0.675 3.621,1.759 5.056,3.158c1.559,1.521 2.752,3.404 3.461,5.463c0.335,0.972 0.562,1.981 0.676,3.004c0.052,0.459 0.077,0.919 0.086,1.381c0.005,0.774 0.005,1.549 0,2.323c-0.008,0.445 -0.036,0.889 -0.09,1.33c-0.115,0.923 -0.338,1.833 -0.662,2.705c-0.668,1.797 -1.771,3.424 -3.193,4.712c-1.199,1.085 -2.617,1.923 -4.146,2.45c-0.834,0.287 -1.699,0.482 -2.575,0.58c-0.394,0.044 -0.788,0.066 -1.184,0.073c-1.433,0.009 -2.865,0.009 -4.298,0c-0.396,-0.007 -0.79,-0.029 -1.184,-0.073c-0.876,-0.098 -1.741,-0.293 -2.575,-0.58c-1.529,-0.527 -2.947,-1.365 -4.146,-2.45c-1.422,-1.288 -2.525,-2.915 -3.193,-4.712c-0.324,-0.872 -0.547,-1.782 -0.662,-2.705c-0.054,-0.441 -0.082,-0.885 -0.09,-1.33c-0.005,-0.776 -0.005,-1.553 0,-2.329c0.009,-0.477 0.036,-0.951 0.09,-1.425c0.119,-1.038 0.354,-2.062 0.701,-3.047c0.582,-1.651 1.477,-3.187 2.622,-4.51c1.549,-1.789 3.55,-3.174 5.772,-3.988c0.98,-0.358 1.999,-0.606 3.033,-0.738c0.532,-0.067 1.065,-0.101 1.601,-0.111c0.177,-0.001 0.177,-0.001 0.354,0Z"/></g><g id="emoji"><path d="M28,16c0,-3.183 -1.264,-6.235 -3.515,-8.485c-2.25,-2.251 -5.302,-3.515 -8.485,-3.515c0,0 0,0 0,0c-6.627,0 -12,5.373 -12,12c0,0.669 0,1.339 0,2c0,2.652 1.054,5.196 2.929,7.071c1.875,1.875 4.419,2.929 7.071,2.929c1.322,0 2.678,0 4,0c2.652,0 5.196,-1.054 7.071,-2.929c1.875,-1.875 2.929,-4.419 2.929,-7.071c0,-0.661 0,-1.331 0,-2Z" style="fill:#fbc546;"/><clipPath id="_clip1"><path d="M28,16c0,-3.183 -1.264,-6.235 -3.515,-8.485c-2.25,-2.251 -5.302,-3.515 -8.485,-3.515c0,0 0,0 0,0c-6.627,0 -12,5.373 -12,12c0,0.669 0,1.339 0,2c0,2.652 1.054,5.196 2.929,7.071c1.875,1.875 4.419,2.929 7.071,2.929c1.322,0 2.678,0 4,0c2.652,0 5.196,-1.054 7.071,-2.929c1.875,-1.875 2.929,-4.419 2.929,-7.071c0,-0.661 0,-1.331 0,-2Z"/></clipPath><g clip-path="url(#_clip1)"><path d="M21,24.012l-0.001,0.112l-0.005,0.124l-0.008,0.124l-0.01,0.122l-0.014,0.122l-0.017,0.122l-0.019,0.122l-0.023,0.12l-0.025,0.119l-0.029,0.12l-0.031,0.118l-0.034,0.117l-0.037,0.116l-0.04,0.116l-0.042,0.115l-0.046,0.113l-0.047,0.111l-0.051,0.112l-0.054,0.109l-0.056,0.109l-0.059,0.106l-0.061,0.106l-0.064,0.104l-0.067,0.103l-0.069,0.102l-0.072,0.099l-0.075,0.098l-0.076,0.096l-0.079,0.094l-0.083,0.093l-0.084,0.091l-0.087,0.089l-0.088,0.086l-0.091,0.084l-0.093,0.083l-0.094,0.079l-0.096,0.076l-0.098,0.075l-0.1,0.072l-0.101,0.069l-0.103,0.067l-0.103,0.064l-0.106,0.061l-0.107,0.059l-0.109,0.056l-0.11,0.054l-0.111,0.051l-0.111,0.047l-0.113,0.046l-0.115,0.042l-0.116,0.04l-0.116,0.037l-0.117,0.034l-0.118,0.031l-0.119,0.029l-0.12,0.025l-0.12,0.023l-0.122,0.019l-0.122,0.017l-0.122,0.014l-0.123,0.01l-0.123,0.008l-0.124,0.005l-0.112,0.001l-0.026,0l-0.112,-0.001l-0.124,-0.005l-0.123,-0.008l-0.123,-0.01l-0.122,-0.014l-0.122,-0.017l-0.121,-0.019l-0.121,-0.023l-0.119,-0.025l-0.119,-0.029l-0.119,-0.031l-0.117,-0.034l-0.116,-0.037l-0.115,-0.039l-0.115,-0.043l-0.113,-0.045l-0.112,-0.048l-0.111,-0.051l-0.109,-0.054l-0.109,-0.056l-0.107,-0.058l-0.105,-0.062l-0.104,-0.064l-0.103,-0.066l-0.101,-0.07l-0.1,-0.072l-0.097,-0.074l-0.097,-0.077l-0.094,-0.079l-0.092,-0.082l-0.092,-0.084l-0.089,-0.087l-0.086,-0.089l-0.084,-0.09l-0.082,-0.093l-0.079,-0.094l-0.077,-0.096l-0.075,-0.099l-0.071,-0.099l-0.069,-0.101l-0.067,-0.103l-0.064,-0.104l-0.061,-0.105l-0.059,-0.108l-0.057,-0.108l-0.053,-0.11l-0.051,-0.11l-0.048,-0.112l-0.045,-0.114l-0.042,-0.113l-0.04,-0.116l-0.037,-0.116l-0.034,-0.118l-0.031,-0.118l-0.029,-0.118l-0.025,-0.12l-0.023,-0.121l-0.019,-0.121l-0.017,-0.122l-0.014,-0.122l-0.01,-0.122l-0.008,-0.124l-0.005,-0.124l-0.001,-0.112l0,-3.014l10,0l0,3.012Z" style="fill:#68114a;"/><path d="M23,19l-14,0c0,0 0.005,0.029 0.014,0.082c0.569,3.415 3.523,5.918 6.985,5.918c0.001,0 0.001,0 0.002,0c3.462,0 6.416,-2.503 6.985,-5.918c0.009,-0.053 0.014,-0.082 0.014,-0.082Z"/><path d="M19,21l-6,0c0,0 0,1.501 0,3.002c0,0.795 0.316,1.558 0.878,2.12c0.562,0.562 1.325,0.878 2.12,0.878c0.001,0 0.001,0 0.002,0c0.796,0 1.559,-0.316 2.121,-0.879c0.563,-0.562 0.879,-1.325 0.879,-2.121c0,-1.5 0,-3 0,-3Z" style="fill:#dd34a2;"/><path d="M12,13.5c0,-0.398 -0.158,-0.779 -0.439,-1.061c-0.282,-0.281 -0.663,-0.439 -1.061,-0.439c-0.398,0 -0.779,0.158 -1.061,0.439c-0.281,0.282 -0.439,0.663 -0.439,1.061c0,0.633 0,1.367 0,2c0,0.398 0.158,0.779 0.439,1.061c0.282,0.281 0.663,0.439 1.061,0.439c0.001,0 0.001,0 0.002,0c0.827,0 1.498,-0.671 1.498,-1.498c0,-0.633 0,-1.369 0,-2.002Z"/><path d="M23,13.5c0,-0.398 -0.158,-0.779 -0.439,-1.061c-0.282,-0.281 -0.663,-0.439 -1.061,-0.439c-0.398,0 -0.779,0.158 -1.061,0.439c-0.281,0.282 -0.439,0.663 -0.439,1.061c0,0.633 0,1.367 0,2c0,0.398 0.158,0.779 0.439,1.061c0.282,0.281 0.663,0.439 1.061,0.439c0.398,0 0.779,-0.158 1.061,-0.439c0.281,-0.282 0.439,-0.663 0.439,-1.061c0,-0.633 0,-1.367 0,-2Z"/></g></g></svg>