<?xml version="1.0" encoding="UTF-8" standalone="no"?><!DOCTYPE svg PUBLIC "-//W3C//DTD SVG 1.1//EN" "http://www.w3.org/Graphics/SVG/1.1/DTD/svg11.dtd"><svg width="100%" height="100%" viewBox="0 0 32 32" version="1.1" xmlns="http://www.w3.org/2000/svg" xmlns:xlink="http://www.w3.org/1999/xlink" xml:space="preserve" style="fill-rule:evenodd;clip-rule:evenodd;stroke-linejoin:round;stroke-miterlimit:1.41421;">
<metadata>
<rdf:RDF xmlns:cc="http://web.resource.org/cc/"
         xmlns:rdf="http://www.w3.org/1999/02/22-rdf-syntax-ns#"
         xmlns:dc = "http://purl.org/dc/elements/1.1/"
         >

     <rdf:Description rdf:about="">
       <dc:title>Mutant Standard emoji v0.2.3</dc:title>
     </rdf:Description>

    <cc:work rdf:about="">
        <cc:license rdf:resource="http://creativecommons.org/licenses/by-nc-sa/4.0/"/>
        <cc:attributionName>Dzuk</cc:attributionName>
        <cc:attributionURL>http://mutant.tech/</cc:attributionURL>
    </cc:work>

</rdf:RDF>
</metadata>
<rect id="surprised" x="0" y="0.017" width="32" height="32" style="fill:none;"/><clipPath id="_clip1"><rect x="0" y="0.017" width="32" height="32"/></clipPath><g clip-path="url(#_clip1)"><g id="outline"><path d="M16.174,2.018c0.462,0.008 0.922,0.034 1.381,0.085c1.079,0.121 2.143,0.367 3.165,0.733c1.997,0.715 3.821,1.887 5.302,3.405c1.439,1.475 2.544,3.268 3.215,5.216c0.335,0.973 0.562,1.982 0.676,3.005c0.052,0.459 0.077,0.919 0.086,1.381c0.009,1.434 0.009,2.868 0,4.303c-0.007,0.382 -0.031,0.763 -0.079,1.142c-0.094,0.739 -0.271,1.467 -0.527,2.167c-0.526,1.437 -1.386,2.745 -2.493,3.8c-1.021,0.973 -2.247,1.727 -3.577,2.196c-0.704,0.248 -1.436,0.416 -2.177,0.501c-0.338,0.038 -0.677,0.057 -1.017,0.064c-2.753,0.017 -5.505,0.017 -8.258,0c-0.34,-0.007 -0.679,-0.026 -1.017,-0.064c-0.782,-0.09 -1.553,-0.272 -2.292,-0.543c-1.362,-0.498 -2.608,-1.296 -3.633,-2.321c-1.054,-1.054 -1.868,-2.342 -2.363,-3.748c-0.248,-0.704 -0.416,-1.436 -0.501,-2.178c-0.039,-0.338 -0.058,-0.677 -0.064,-1.017c-0.009,-1.436 -0.009,-2.872 0,-4.309c0.009,-0.476 0.036,-0.951 0.09,-1.424c0.125,-1.095 0.38,-2.174 0.759,-3.209c0.756,-2.064 2.004,-3.938 3.613,-5.435c1.404,-1.307 3.075,-2.322 4.885,-2.959c0.985,-0.347 2.009,-0.583 3.047,-0.701c0.531,-0.061 1.064,-0.088 1.599,-0.091c0.06,0 0.12,0 0.18,0.001Z" style="fill-rule:nonzero;"/></g><g id="emoji"><path d="M28,16.017c0,-3.183 -1.264,-6.235 -3.515,-8.486c-2.25,-2.25 -5.302,-3.514 -8.485,-3.514c0,0 0,0 0,0c-6.627,0 -12,5.372 -12,12c0,1.356 0,2.713 0,4c0,4.418 3.582,8 8,8c2.574,0 5.426,0 8,0c4.418,0 8,-3.582 8,-8c0,-1.287 0,-2.644 0,-4Z" style="fill:#fbc546;"/><path d="M32,13.017l-1.052,0c0.269,0.263 0.496,0.569 0.668,0.905c0.157,0.307 0.269,0.638 0.329,0.977c0.063,0.35 0.072,0.709 0.027,1.061c-0.047,0.373 -0.155,0.737 -0.318,1.075c-0.183,0.379 -0.435,0.725 -0.739,1.015c-0.306,0.291 -0.663,0.526 -1.052,0.691c-0.43,0.182 -0.896,0.276 -1.363,0.276c-0.467,0 -0.933,-0.094 -1.363,-0.276c-0.389,-0.165 -0.747,-0.4 -1.052,-0.691c-0.304,-0.29 -0.556,-0.636 -0.739,-1.015c-0.163,-0.338 -0.271,-0.702 -0.318,-1.075c-0.045,-0.352 -0.036,-0.711 0.027,-1.061c0.055,-0.312 0.154,-0.616 0.291,-0.901c0.177,-0.366 0.417,-0.698 0.706,-0.981l-1.052,0l0,-12l7,0l0,12Z"/><rect x="27" y="3.017" width="3" height="8" style="fill:#fff;"/><circle cx="28.5" cy="15.517" r="1.5" style="fill:#fff;"/><path d="M12,12.517c0,-0.398 -0.158,-0.78 -0.439,-1.061c-0.282,-0.281 -0.663,-0.439 -1.061,-0.439c-0.398,0 -0.779,0.158 -1.061,0.439c-0.281,0.281 -0.439,0.663 -0.439,1.061c0,0.632 0,1.367 0,2c0,0.398 0.158,0.779 0.439,1.06c0.282,0.282 0.663,0.44 1.061,0.44c0.398,0 0.779,-0.158 1.061,-0.44c0.281,-0.281 0.439,-0.662 0.439,-1.06c0,-0.633 0,-1.368 0,-2Z"/><path d="M19,19.017c0,-1.657 -1.343,-3 -3,-3c-1.657,0 -3,1.343 -3,3c0,0.654 0,1.346 0,2c0,1.657 1.343,3 3,3c1.657,0 3,-1.343 3,-3c0,-0.654 0,-1.346 0,-2Z"/><path d="M23,12.515c0,-0.828 -0.671,-1.498 -1.498,-1.498c-0.001,0 -0.003,0 -0.004,0c-0.827,0 -1.498,0.67 -1.498,1.498c0,0.633 0,1.37 0,2.004c0,0.827 0.671,1.498 1.498,1.498c0.001,0 0.003,0 0.004,0c0.827,0 1.498,-0.671 1.498,-1.498c0,-0.634 0,-1.371 0,-2.004Z"/></g></g></svg>