<?xml version="1.0" encoding="UTF-8" standalone="no"?><!DOCTYPE svg PUBLIC "-//W3C//DTD SVG 1.1//EN" "http://www.w3.org/Graphics/SVG/1.1/DTD/svg11.dtd"><svg width="100%" height="100%" viewBox="0 0 32 32" version="1.1" xmlns="http://www.w3.org/2000/svg" xmlns:xlink="http://www.w3.org/1999/xlink" xml:space="preserve" style="fill-rule:evenodd;clip-rule:evenodd;stroke-linejoin:round;stroke-miterlimit:1.41421;">
<metadata>
<rdf:RDF xmlns:cc="http://web.resource.org/cc/"
         xmlns:rdf="http://www.w3.org/1999/02/22-rdf-syntax-ns#"
         xmlns:dc = "http://purl.org/dc/elements/1.1/"
         >

     <rdf:Description rdf:about="">
       <dc:title>Mutant Standard emoji v0.2.3</dc:title>
     </rdf:Description>

    <cc:work rdf:about="">
        <cc:license rdf:resource="http://creativecommons.org/licenses/by-nc-sa/4.0/"/>
        <cc:attributionName>Dzuk</cc:attributionName>
        <cc:attributionURL>http://mutant.tech/</cc:attributionURL>
    </cc:work>

</rdf:RDF>
</metadata>
<rect id="swearing" x="0" y="0" width="32" height="32" style="fill:none;"/><g id="outline"><path d="M17.172,2.006c0.157,-0.447 0.419,-0.857 0.767,-1.186c0.204,-0.193 0.435,-0.357 0.684,-0.485c0.274,-0.142 0.57,-0.241 0.874,-0.293c0.139,-0.023 0.278,-0.035 0.419,-0.041c0.084,-0.001 0.084,-0.001 0.168,0c0.169,0.007 0.336,0.024 0.501,0.057c0.386,0.076 0.755,0.229 1.082,0.448c0.164,0.109 0.313,0.235 0.454,0.373l0.879,0.878c0.313,-0.312 0.622,-0.629 0.939,-0.937c0.062,-0.057 0.062,-0.057 0.125,-0.112c0.109,-0.089 0.221,-0.173 0.34,-0.248c0.261,-0.164 0.548,-0.288 0.847,-0.365c0.298,-0.077 0.609,-0.108 0.917,-0.09c0.818,0.046 1.596,0.434 2.124,1.059c0.181,0.215 0.332,0.455 0.446,0.711c0.034,0.075 0.065,0.152 0.092,0.231c0.029,-0.002 0.057,-0.004 0.086,-0.005c0.084,-0.001 0.084,-0.001 0.168,0c0.141,0.006 0.28,0.018 0.418,0.041c0.305,0.052 0.601,0.151 0.875,0.293c0.274,0.141 0.526,0.325 0.744,0.544c0.199,0.198 0.369,0.424 0.505,0.67c0.424,0.767 0.489,1.702 0.177,2.521c-0.11,0.288 -0.265,0.559 -0.458,0.8c-0.07,0.088 -0.145,0.171 -0.224,0.251l-0.878,0.879c0.312,0.313 0.629,0.622 0.937,0.939c0.057,0.062 0.057,0.062 0.112,0.126c0.071,0.086 0.14,0.175 0.202,0.268c0.172,0.257 0.303,0.54 0.389,0.837c0.109,0.377 0.142,0.775 0.098,1.166c-0.041,0.362 -0.148,0.717 -0.316,1.041c-0.141,0.274 -0.325,0.526 -0.544,0.744c-0.198,0.199 -0.424,0.369 -0.67,0.505c-0.249,0.138 -0.517,0.238 -0.793,0.299c0.101,0.446 0.179,0.896 0.235,1.349c0.064,0.515 0.096,1.033 0.106,1.552c0.007,1.101 0.007,2.202 0,3.303c-0.007,0.382 -0.031,0.763 -0.079,1.142c-0.094,0.739 -0.271,1.467 -0.527,2.167c-0.499,1.362 -1.297,2.608 -2.322,3.633c-1.025,1.025 -2.271,1.823 -3.633,2.322c-0.699,0.256 -1.428,0.433 -2.167,0.527c-0.379,0.048 -0.76,0.072 -1.142,0.079c-2.753,0.018 -5.505,0.018 -8.258,0c-0.382,-0.007 -0.763,-0.031 -1.142,-0.079c-0.739,-0.094 -1.468,-0.271 -2.167,-0.527c-1.324,-0.485 -2.539,-1.253 -3.548,-2.238c-1.095,-1.069 -1.94,-2.388 -2.448,-3.832c-0.248,-0.704 -0.416,-1.436 -0.501,-2.177c-0.039,-0.338 -0.058,-0.677 -0.064,-1.018c-0.007,-1.1 -0.007,-2.201 0,-3.302c0.009,-0.462 0.034,-0.922 0.086,-1.381c0.114,-1.022 0.341,-2.032 0.676,-3.004c0.69,-2.004 1.839,-3.842 3.337,-5.34c1.459,-1.459 3.238,-2.586 5.18,-3.281c1.022,-0.366 2.086,-0.613 3.165,-0.733c0.089,-0.01 0.178,-0.019 0.267,-0.027c0.053,-0.063 0.109,-0.123 0.167,-0.181c0.218,-0.219 0.47,-0.403 0.744,-0.544c0.274,-0.142 0.57,-0.241 0.874,-0.293c0.139,-0.023 0.278,-0.035 0.419,-0.041c0.084,-0.001 0.084,-0.001 0.168,0c0.029,0.001 0.058,0.003 0.088,0.005Z"/></g><g id="emoji"><path d="M28,17c0,-3.183 -1.264,-6.235 -3.515,-8.485c-2.25,-2.251 -5.302,-3.515 -8.485,-3.515c0,0 0,0 0,0c-3.183,0 -6.235,1.264 -8.485,3.515c-2.251,2.25 -3.515,5.302 -3.515,8.485c0,1.016 0,2.026 0,3c0,4.418 3.582,8 8,8c2.574,0 5.426,0 8,0c4.418,0 8,-3.582 8,-8c0,-0.974 0,-1.984 0,-3Z" style="fill:#fbc546;"/><path d="M9,14.984c0,-0.394 0.156,-0.771 0.435,-1.049c0.278,-0.279 0.655,-0.435 1.049,-0.435c0.005,0 0.011,0 0.016,0l2.5,2.5c0,0.168 0,0.335 0,0.5c0,0.53 -0.211,1.039 -0.586,1.414c-0.375,0.375 -0.884,0.586 -1.414,0.586c-0.53,0 -1.039,-0.211 -1.414,-0.586c-0.375,-0.375 -0.586,-0.884 -0.586,-1.414c0,-0.506 0,-1.041 0,-1.516Z"/><path d="M19,15.998l2.498,-2.498c0.006,0 0.012,0 0.018,0c0.394,0 0.771,0.156 1.049,0.435c0.279,0.278 0.435,0.655 0.435,1.049c0,0.475 0,1.01 0,1.516c0,0.53 -0.211,1.039 -0.586,1.414c-0.375,0.375 -0.884,0.586 -1.414,0.586c-0.53,0 -1.039,-0.211 -1.414,-0.586c-0.375,-0.375 -0.586,-0.884 -0.586,-1.414c0,-0.165 0,-0.334 0,-0.502Z"/><path d="M17.06,4.002l0.049,0.004l0.047,0.006l0.048,0.009l0.047,0.011l0.046,0.013l0.046,0.016l0.045,0.017l0.044,0.02l0.043,0.022l0.042,0.024l0.041,0.026l0.04,0.028l0.038,0.03l0.036,0.032l0.035,0.033l1.59,1.59l0.05,0.051l0.052,0.056l0.05,0.057l0.049,0.059l0.047,0.059l0.046,0.06l0.044,0.062l0.042,0.062l0.04,0.062l0.039,0.064l0.037,0.065l0.035,0.065l0.034,0.066l0.031,0.066l0.03,0.067l0.029,0.067l0.027,0.069l0.024,0.068l0.024,0.069l0.021,0.07l0.02,0.07l0.018,0.07l0.016,0.07l0.015,0.071l0.013,0.071l0.011,0.071l0.009,0.072l0.008,0.071l0.006,0.072l0.004,0.071l0.003,0.072l0.001,0.072l-0.001,0.072l-0.003,0.072l-0.004,0.071l-0.006,0.072l-0.008,0.071l-0.009,0.072l-0.011,0.071l-0.013,0.071l-0.015,0.071l-0.016,0.07l-0.018,0.07l-0.02,0.07l-0.021,0.07l-0.023,0.069l-0.025,0.068l-0.027,0.069l-0.029,0.067l-0.03,0.067l-0.031,0.066l-0.034,0.066l-0.035,0.065l-0.037,0.065l-0.039,0.064l-0.04,0.062l-0.042,0.062l-0.044,0.062l-0.046,0.06l-0.047,0.059l-0.049,0.059l-0.05,0.057l-0.052,0.056l-0.05,0.051l-1.59,1.59l-0.035,0.033l-0.036,0.032l-0.038,0.03l-0.04,0.028l-0.041,0.026l-0.042,0.024l-0.043,0.022l-0.044,0.02l-0.045,0.017l-0.046,0.016l-0.046,0.013l-0.047,0.011l-0.048,0.009l-0.047,0.006l-0.049,0.004l-0.048,0.002l-0.048,-0.001l-0.048,-0.003l-0.049,-0.005l-0.047,-0.007l-0.048,-0.01l-0.046,-0.012l-0.047,-0.015l-0.045,-0.016l-0.044,-0.019l-0.044,-0.021l-0.043,-0.023l-0.041,-0.025l-0.04,-0.027l-0.039,-0.029l-0.037,-0.031l-0.036,-0.032l-0.034,-0.034l-0.032,-0.036l-0.031,-0.037l-0.029,-0.039l-0.027,-0.04l-0.025,-0.041l-0.023,-0.043l-0.021,-0.044l-0.019,-0.044l-0.016,-0.046l-0.015,-0.046l-0.012,-0.046l-0.01,-0.048l-0.007,-0.047l-0.005,-0.049l-0.003,-0.048l-0.001,-0.048l0.002,-0.048l0.004,-0.049l0.006,-0.047l0.009,-0.048l0.011,-0.047l0.013,-0.047l0.016,-0.045l0.017,-0.045l0.02,-0.044l0.022,-0.043l0.024,-0.042l0.026,-0.041l0.028,-0.04l0.03,-0.038l0.032,-0.036l0.033,-0.035l1.581,-1.581l0.023,-0.024l0.018,-0.019l0.017,-0.019l0.016,-0.02l0.016,-0.02l0.015,-0.02l0.014,-0.02l0.014,-0.02l0.014,-0.022l0.013,-0.021l0.012,-0.021l0.011,-0.021l0.012,-0.022l0.01,-0.022l0.01,-0.022l0.009,-0.022l0.009,-0.023l0.008,-0.022l0.008,-0.023l0.007,-0.023l0.007,-0.024l0.006,-0.023l0.005,-0.024l0.005,-0.023l0.004,-0.024l0.004,-0.024l0.003,-0.024l0.003,-0.024l0.002,-0.024l0.001,-0.024l0.001,-0.024l0.001,-0.024l-0.001,-0.024l-0.001,-0.024l-0.001,-0.024l-0.002,-0.024l-0.003,-0.024l-0.003,-0.024l-0.004,-0.024l-0.004,-0.024l-0.005,-0.023l-0.005,-0.024l-0.006,-0.023l-0.007,-0.024l-0.007,-0.023l-0.008,-0.023l-0.008,-0.022l-0.009,-0.023l-0.009,-0.022l-0.01,-0.022l-0.011,-0.022l-0.011,-0.022l-0.011,-0.021l-0.012,-0.021l-0.013,-0.021l-0.014,-0.022l-0.014,-0.02l-0.014,-0.02l-0.015,-0.02l-0.016,-0.02l-0.016,-0.02l-0.017,-0.019l-0.018,-0.019l-0.023,-0.024l-1.581,-1.581l-0.033,-0.035l-0.032,-0.036l-0.03,-0.038l-0.028,-0.04l-0.026,-0.041l-0.024,-0.042l-0.022,-0.043l-0.02,-0.044l-0.017,-0.045l-0.016,-0.045l-0.013,-0.047l-0.011,-0.047l-0.009,-0.048l-0.006,-0.047l-0.004,-0.049l-0.002,-0.048l0.001,-0.048l0.003,-0.048l0.005,-0.049l0.007,-0.047l0.01,-0.048l0.012,-0.046l0.015,-0.046l0.016,-0.046l0.019,-0.044l0.021,-0.044l0.023,-0.043l0.025,-0.041l0.027,-0.04l0.029,-0.039l0.031,-0.037l0.032,-0.036l0.034,-0.034l0.036,-0.032l0.037,-0.031l0.039,-0.029l0.04,-0.027l0.041,-0.025l0.043,-0.023l0.044,-0.021l0.044,-0.019l0.045,-0.016l0.047,-0.015l0.046,-0.012l0.048,-0.01l0.047,-0.007l0.049,-0.005l0.048,-0.003l0.048,-0.001l0.048,0.002Z" style="fill:#f00;"/><path d="M29.036,4.001l0.048,0.003l0.049,0.005l0.047,0.007l0.048,0.01l0.046,0.012l0.046,0.015l0.046,0.016l0.044,0.019l0.044,0.021l0.042,0.023l0.042,0.025l0.04,0.027l0.039,0.029l0.037,0.031l0.036,0.032l0.034,0.034l0.032,0.036l0.031,0.037l0.029,0.039l0.027,0.04l0.025,0.041l0.023,0.043l0.021,0.044l0.019,0.044l0.016,0.046l0.015,0.046l0.012,0.046l0.01,0.048l0.007,0.047l0.005,0.049l0.003,0.048l0.001,0.048l-0.002,0.048l-0.004,0.049l-0.006,0.047l-0.009,0.048l-0.011,0.047l-0.013,0.046l-0.016,0.046l-0.017,0.045l-0.02,0.044l-0.022,0.043l-0.024,0.042l-0.026,0.041l-0.028,0.04l-0.03,0.038l-0.032,0.036l-0.033,0.035l-1.581,1.581l-0.023,0.024l-0.018,0.019l-0.017,0.019l-0.016,0.02l-0.016,0.02l-0.015,0.02l-0.015,0.02l-0.014,0.021l-0.013,0.02l-0.013,0.021l-0.012,0.022l-0.011,0.021l-0.012,0.022l-0.01,0.022l-0.01,0.022l-0.009,0.022l-0.009,0.023l-0.008,0.022l-0.008,0.024l-0.007,0.022l-0.007,0.024l-0.006,0.023l-0.005,0.023l-0.005,0.024l-0.004,0.024l-0.004,0.024l-0.003,0.024l-0.003,0.024l-0.002,0.024l-0.001,0.024l-0.001,0.024l0,0.024l0,0.024l0.001,0.024l0.001,0.024l0.002,0.024l0.003,0.024l0.003,0.024l0.004,0.024l0.004,0.024l0.005,0.024l0.005,0.023l0.006,0.023l0.007,0.024l0.007,0.022l0.008,0.024l0.008,0.022l0.009,0.023l0.009,0.022l0.01,0.022l0.01,0.022l0.012,0.022l0.011,0.021l0.012,0.022l0.013,0.021l0.013,0.02l0.014,0.021l0.015,0.02l0.015,0.021l0.016,0.019l0.016,0.02l0.017,0.019l0.018,0.019l0.023,0.024l1.581,1.581l0.033,0.035l0.032,0.036l0.03,0.038l0.028,0.04l0.026,0.041l0.024,0.042l0.022,0.043l0.02,0.044l0.017,0.045l0.016,0.046l0.013,0.046l0.011,0.047l0.009,0.048l0.006,0.047l0.004,0.049l0.002,0.048l-0.001,0.048l-0.003,0.048l-0.005,0.049l-0.007,0.047l-0.01,0.048l-0.012,0.046l-0.015,0.046l-0.016,0.046l-0.019,0.044l-0.021,0.044l-0.023,0.043l-0.025,0.041l-0.027,0.04l-0.029,0.039l-0.031,0.037l-0.032,0.036l-0.034,0.034l-0.036,0.032l-0.037,0.031l-0.039,0.029l-0.04,0.027l-0.042,0.025l-0.042,0.023l-0.044,0.021l-0.044,0.019l-0.046,0.016l-0.046,0.015l-0.046,0.012l-0.048,0.01l-0.047,0.007l-0.049,0.005l-0.048,0.003l-0.048,0.001l-0.048,-0.002l-0.049,-0.004l-0.047,-0.006l-0.048,-0.009l-0.047,-0.011l-0.047,-0.013l-0.045,-0.016l-0.045,-0.017l-0.044,-0.02l-0.043,-0.022l-0.042,-0.024l-0.041,-0.026l-0.04,-0.028l-0.038,-0.03l-0.036,-0.032l-0.035,-0.033l-1.59,-1.59l-0.05,-0.051l-0.052,-0.056l-0.05,-0.057l-0.049,-0.058l-0.047,-0.06l-0.046,-0.06l-0.043,-0.061l-0.043,-0.062l-0.04,-0.063l-0.039,-0.064l-0.037,-0.065l-0.035,-0.065l-0.033,-0.065l-0.032,-0.067l-0.031,-0.067l-0.028,-0.068l-0.027,-0.068l-0.024,-0.068l-0.024,-0.069l-0.021,-0.07l-0.02,-0.07l-0.018,-0.069l-0.016,-0.071l-0.015,-0.071l-0.013,-0.071l-0.011,-0.071l-0.009,-0.072l-0.008,-0.071l-0.006,-0.072l-0.004,-0.071l-0.003,-0.072l-0.001,-0.072l0.001,-0.072l0.003,-0.072l0.004,-0.071l0.006,-0.072l0.008,-0.071l0.009,-0.072l0.011,-0.071l0.013,-0.071l0.015,-0.071l0.016,-0.071l0.018,-0.069l0.02,-0.07l0.021,-0.07l0.024,-0.069l0.024,-0.068l0.027,-0.068l0.028,-0.068l0.031,-0.067l0.032,-0.067l0.033,-0.065l0.035,-0.065l0.037,-0.065l0.039,-0.063l0.04,-0.064l0.043,-0.062l0.043,-0.061l0.046,-0.06l0.047,-0.06l0.049,-0.058l0.05,-0.057l0.052,-0.056l0.05,-0.051l1.59,-1.59l0.035,-0.033l0.036,-0.032l0.038,-0.03l0.04,-0.028l0.041,-0.026l0.042,-0.024l0.043,-0.022l0.044,-0.02l0.045,-0.017l0.045,-0.016l0.047,-0.013l0.047,-0.011l0.048,-0.009l0.047,-0.006l0.049,-0.004l0.048,-0.002l0.048,0.001Z" style="fill:#f00;"/><path d="M23.072,9.829l0.072,0.003l0.071,0.004l0.072,0.006l0.071,0.008l0.072,0.009l0.071,0.011l0.071,0.013l0.071,0.015l0.07,0.016l0.071,0.018l0.069,0.02l0.07,0.021l0.069,0.024l0.068,0.024l0.068,0.027l0.068,0.029l0.067,0.03l0.066,0.031l0.066,0.034l0.066,0.035l0.064,0.037l0.064,0.039l0.062,0.04l0.063,0.042l0.061,0.044l0.06,0.046l0.059,0.047l0.059,0.049l0.057,0.05l0.056,0.052l0.051,0.05l1.59,1.59l0.033,0.035l0.032,0.036l0.03,0.038l0.028,0.04l0.026,0.041l0.024,0.042l0.022,0.043l0.02,0.044l0.017,0.045l0.016,0.046l0.013,0.046l0.011,0.047l0.009,0.048l0.006,0.047l0.004,0.049l0.002,0.048l-0.001,0.048l-0.003,0.048l-0.005,0.049l-0.007,0.047l-0.01,0.048l-0.012,0.046l-0.015,0.046l-0.016,0.046l-0.019,0.044l-0.021,0.044l-0.023,0.043l-0.025,0.041l-0.027,0.04l-0.029,0.039l-0.031,0.037l-0.032,0.036l-0.034,0.034l-0.036,0.032l-0.037,0.031l-0.039,0.029l-0.04,0.027l-0.042,0.025l-0.042,0.023l-0.044,0.021l-0.044,0.019l-0.046,0.016l-0.046,0.015l-0.046,0.012l-0.048,0.01l-0.047,0.007l-0.049,0.005l-0.048,0.003l-0.048,0.001l-0.048,-0.002l-0.049,-0.004l-0.047,-0.006l-0.048,-0.009l-0.047,-0.011l-0.047,-0.013l-0.045,-0.016l-0.045,-0.017l-0.044,-0.02l-0.043,-0.022l-0.042,-0.024l-0.041,-0.026l-0.04,-0.028l-0.038,-0.03l-0.036,-0.032l-0.035,-0.033l-1.581,-1.581l-0.024,-0.023l-0.019,-0.018l-0.019,-0.017l-0.02,-0.016l-0.02,-0.016l-0.02,-0.015l-0.02,-0.015l-0.021,-0.013l-0.02,-0.014l-0.021,-0.013l-0.022,-0.012l-0.021,-0.012l-0.022,-0.011l-0.022,-0.01l-0.022,-0.01l-0.022,-0.009l-0.023,-0.009l-0.022,-0.008l-0.023,-0.008l-0.023,-0.007l-0.024,-0.007l-0.023,-0.006l-0.024,-0.005l-0.023,-0.005l-0.024,-0.004l-0.024,-0.004l-0.024,-0.003l-0.024,-0.003l-0.024,-0.002l-0.024,-0.001l-0.024,-0.001l-0.024,-0.001l-0.024,0.001l-0.024,0.001l-0.024,0.001l-0.024,0.002l-0.024,0.003l-0.024,0.003l-0.024,0.004l-0.024,0.004l-0.023,0.005l-0.024,0.005l-0.023,0.006l-0.024,0.007l-0.023,0.007l-0.023,0.008l-0.022,0.008l-0.023,0.009l-0.022,0.009l-0.022,0.01l-0.022,0.01l-0.022,0.011l-0.021,0.012l-0.022,0.012l-0.02,0.013l-0.021,0.014l-0.021,0.013l-0.02,0.015l-0.02,0.015l-0.02,0.016l-0.02,0.016l-0.019,0.017l-0.019,0.018l-0.024,0.023l-1.581,1.581l-0.035,0.033l-0.036,0.032l-0.038,0.03l-0.04,0.028l-0.041,0.026l-0.042,0.024l-0.043,0.022l-0.044,0.02l-0.045,0.017l-0.046,0.016l-0.046,0.013l-0.047,0.011l-0.048,0.009l-0.047,0.006l-0.049,0.004l-0.048,0.002l-0.048,-0.001l-0.048,-0.003l-0.049,-0.005l-0.047,-0.007l-0.048,-0.01l-0.046,-0.012l-0.047,-0.015l-0.045,-0.016l-0.044,-0.019l-0.044,-0.021l-0.043,-0.023l-0.041,-0.025l-0.04,-0.027l-0.039,-0.029l-0.037,-0.031l-0.036,-0.032l-0.034,-0.034l-0.032,-0.036l-0.031,-0.037l-0.029,-0.039l-0.027,-0.04l-0.025,-0.041l-0.023,-0.043l-0.021,-0.044l-0.019,-0.044l-0.016,-0.046l-0.015,-0.046l-0.012,-0.046l-0.01,-0.048l-0.007,-0.047l-0.005,-0.049l-0.003,-0.048l-0.001,-0.048l0.002,-0.048l0.004,-0.049l0.006,-0.047l0.009,-0.048l0.011,-0.047l0.013,-0.047l0.016,-0.045l0.017,-0.045l0.02,-0.044l0.022,-0.043l0.024,-0.042l0.026,-0.041l0.028,-0.04l0.03,-0.038l0.032,-0.036l0.033,-0.035l1.59,-1.59l0.051,-0.05l0.056,-0.052l0.057,-0.05l0.058,-0.049l0.06,-0.047l0.06,-0.046l0.061,-0.044l0.063,-0.042l0.062,-0.04l0.064,-0.039l0.065,-0.037l0.065,-0.035l0.065,-0.034l0.067,-0.031l0.067,-0.031l0.067,-0.028l0.069,-0.027l0.068,-0.024l0.069,-0.024l0.07,-0.021l0.069,-0.02l0.071,-0.018l0.07,-0.016l0.071,-0.015l0.071,-0.013l0.071,-0.011l0.072,-0.009l0.071,-0.008l0.072,-0.006l0.071,-0.004l0.072,-0.003l0.072,-0.001l0.072,0.001Z" style="fill:#f00;"/><path d="M20.06,2.002l0.049,0.004l0.047,0.006l0.048,0.009l0.047,0.011l0.046,0.013l0.046,0.016l0.045,0.017l0.044,0.02l0.043,0.022l0.042,0.024l0.041,0.026l0.04,0.028l0.038,0.03l0.036,0.032l0.035,0.033l1.581,1.581l0.024,0.023l0.019,0.018l0.019,0.017l0.02,0.016l0.02,0.016l0.02,0.015l0.02,0.015l0.021,0.013l0.02,0.014l0.021,0.013l0.022,0.012l0.021,0.012l0.022,0.011l0.022,0.01l0.022,0.01l0.022,0.009l0.023,0.009l0.022,0.008l0.023,0.008l0.023,0.007l0.024,0.007l0.023,0.006l0.023,0.005l0.024,0.005l0.024,0.004l0.024,0.004l0.024,0.003l0.024,0.003l0.024,0.002l0.024,0.001l0.024,0.001l0.024,0l0.024,0l0.024,-0.001l0.024,-0.001l0.024,-0.002l0.024,-0.003l0.024,-0.003l0.024,-0.004l0.024,-0.004l0.024,-0.005l0.023,-0.005l0.023,-0.006l0.023,-0.007l0.024,-0.007l0.023,-0.008l0.022,-0.008l0.023,-0.009l0.022,-0.009l0.022,-0.01l0.022,-0.011l0.022,-0.01l0.021,-0.012l0.022,-0.012l0.021,-0.013l0.021,-0.014l0.02,-0.013l0.02,-0.015l0.02,-0.015l0.02,-0.016l0.02,-0.016l0.019,-0.017l0.019,-0.018l0.024,-0.023l1.581,-1.581l0.035,-0.033l0.036,-0.032l0.038,-0.03l0.04,-0.028l0.041,-0.026l0.042,-0.024l0.043,-0.022l0.044,-0.02l0.045,-0.017l0.045,-0.016l0.047,-0.013l0.047,-0.011l0.048,-0.009l0.047,-0.006l0.049,-0.004l0.048,-0.002l0.048,0.001l0.048,0.003l0.049,0.005l0.047,0.007l0.048,0.01l0.046,0.012l0.046,0.015l0.046,0.016l0.044,0.019l0.044,0.021l0.042,0.023l0.042,0.025l0.04,0.027l0.039,0.029l0.037,0.031l0.036,0.032l0.034,0.034l0.032,0.036l0.031,0.037l0.029,0.039l0.027,0.04l0.025,0.041l0.023,0.043l0.021,0.044l0.019,0.044l0.016,0.046l0.015,0.046l0.012,0.046l0.01,0.048l0.007,0.047l0.005,0.049l0.003,0.048l0.001,0.048l-0.002,0.048l-0.004,0.049l-0.006,0.047l-0.009,0.048l-0.011,0.047l-0.013,0.046l-0.016,0.046l-0.017,0.045l-0.02,0.044l-0.022,0.043l-0.024,0.042l-0.026,0.041l-0.028,0.04l-0.03,0.038l-0.032,0.036l-0.033,0.035l-1.59,1.59l-0.051,0.05l-0.056,0.052l-0.057,0.05l-0.059,0.049l-0.059,0.047l-0.06,0.046l-0.061,0.044l-0.063,0.042l-0.062,0.04l-0.064,0.039l-0.064,0.037l-0.066,0.035l-0.066,0.034l-0.066,0.031l-0.067,0.03l-0.068,0.029l-0.068,0.027l-0.068,0.024l-0.069,0.024l-0.07,0.021l-0.069,0.02l-0.071,0.018l-0.07,0.016l-0.071,0.015l-0.071,0.013l-0.071,0.011l-0.072,0.009l-0.071,0.008l-0.072,0.006l-0.071,0.004l-0.072,0.003l-0.072,0.001l-0.072,-0.001l-0.072,-0.003l-0.071,-0.004l-0.072,-0.006l-0.071,-0.008l-0.072,-0.009l-0.071,-0.011l-0.071,-0.013l-0.071,-0.015l-0.07,-0.016l-0.071,-0.018l-0.069,-0.02l-0.07,-0.021l-0.069,-0.024l-0.068,-0.024l-0.068,-0.027l-0.068,-0.028l-0.067,-0.031l-0.066,-0.031l-0.066,-0.034l-0.065,-0.035l-0.065,-0.037l-0.064,-0.039l-0.062,-0.04l-0.063,-0.042l-0.061,-0.044l-0.06,-0.046l-0.06,-0.047l-0.058,-0.049l-0.057,-0.05l-0.056,-0.052l-0.051,-0.05l-1.59,-1.59l-0.033,-0.035l-0.032,-0.036l-0.03,-0.038l-0.028,-0.04l-0.026,-0.041l-0.024,-0.042l-0.022,-0.043l-0.02,-0.044l-0.017,-0.045l-0.016,-0.045l-0.013,-0.047l-0.011,-0.047l-0.009,-0.048l-0.006,-0.047l-0.004,-0.049l-0.002,-0.048l0.001,-0.048l0.003,-0.048l0.005,-0.049l0.007,-0.047l0.01,-0.048l0.012,-0.046l0.015,-0.046l0.016,-0.046l0.019,-0.044l0.021,-0.044l0.023,-0.043l0.025,-0.041l0.027,-0.04l0.029,-0.039l0.031,-0.037l0.032,-0.036l0.034,-0.034l0.036,-0.032l0.037,-0.031l0.039,-0.029l0.04,-0.027l0.041,-0.025l0.043,-0.023l0.044,-0.021l0.044,-0.019l0.045,-0.016l0.047,-0.015l0.046,-0.012l0.048,-0.01l0.047,-0.007l0.049,-0.005l0.048,-0.003l0.048,-0.001l0.048,0.002Z" style="fill:#f00;"/><rect x="1" y="20.018" width="30" height="11.982"/><path d="M6.622,26.937l-1.329,0l-0.137,1.28l-1.085,0l0.137,-1.28l-0.899,0l0.069,-0.753l0.908,0l0.166,-1.543l-0.908,0l0.078,-0.762l0.909,0l0.136,-1.261l1.085,0l-0.137,1.261l1.329,0l0.137,-1.261l1.084,0l-0.136,1.261l0.918,0l-0.088,0.762l-0.909,0l-0.166,1.543l0.919,0l-0.078,0.753l-0.919,0l-0.137,1.28l-1.084,0l0.137,-1.28Zm-1.251,-0.753l1.329,0l0.166,-1.543l-1.329,0l-0.166,1.543Z" style="fill:#fff;fill-rule:nonzero;"/><path d="M14.018,25.188c0.489,0.169 0.853,0.382 1.094,0.64c0.241,0.257 0.362,0.597 0.362,1.021c0,0.462 -0.189,0.863 -0.567,1.202c-0.417,0.358 -1,0.563 -1.749,0.615l0,0.86l-0.821,0l0,-0.879c-0.677,-0.066 -1.227,-0.267 -1.651,-0.606c-0.449,-0.365 -0.674,-0.86 -0.674,-1.485l1.143,0c0,0.312 0.101,0.55 0.303,0.713c0.202,0.163 0.495,0.267 0.879,0.313l0,-1.896l-0.488,-0.166c-0.547,-0.182 -0.971,-0.402 -1.27,-0.66c-0.3,-0.257 -0.45,-0.617 -0.45,-1.079c0,-0.463 0.188,-0.849 0.562,-1.158c0.375,-0.309 0.923,-0.49 1.646,-0.542l0,-0.743l0.821,0l0,0.753c0.632,0.065 1.114,0.26 1.446,0.586c0.332,0.325 0.544,0.749 0.635,1.27l-1.143,0c-0.032,-0.195 -0.129,-0.37 -0.288,-0.523c-0.16,-0.153 -0.376,-0.259 -0.65,-0.317l0,1.778l0.86,0.303Zm-0.088,2.149c0.163,-0.143 0.244,-0.312 0.244,-0.508c0,-0.371 -0.234,-0.645 -0.703,-0.82l-0.313,-0.118l0,1.71c0.352,-0.032 0.609,-0.12 0.772,-0.264Zm-2.301,-3.996c-0.16,0.137 -0.239,0.297 -0.239,0.479c0,0.182 0.052,0.327 0.156,0.435c0.104,0.107 0.27,0.2 0.498,0.278l0.293,0.117l0,-1.573c-0.312,0.039 -0.548,0.127 -0.708,0.264Z" style="fill:#fff;fill-rule:nonzero;"/><path d="M22.059,25.803c0,-0.202 -0.037,-0.364 -0.112,-0.488c-0.075,-0.124 -0.197,-0.186 -0.367,-0.186c-0.169,0 -0.328,0.034 -0.478,0.103c-0.15,0.068 -0.287,0.168 -0.411,0.298c-0.286,0.312 -0.43,0.684 -0.43,1.114c0,0.293 0.077,0.516 0.23,0.669c0.153,0.153 0.344,0.23 0.572,0.23c0.228,0 0.418,-0.064 0.571,-0.191c0.153,-0.127 0.295,-0.318 0.425,-0.572l0,-0.977Zm0.928,1.271c0,0.332 0.114,0.498 0.342,0.498c0.105,0 0.224,-0.034 0.357,-0.103c0.134,-0.068 0.259,-0.18 0.376,-0.337c0.28,-0.365 0.42,-0.85 0.42,-1.456c0,-0.755 -0.25,-1.364 -0.752,-1.827c-0.541,-0.495 -1.257,-0.742 -2.15,-0.742c-1.074,0 -1.954,0.332 -2.638,0.996c-0.677,0.652 -1.016,1.472 -1.016,2.462c0,0.958 0.323,1.714 0.968,2.267c0.677,0.593 1.602,0.889 2.774,0.889l0,0.948c-0.742,0 -1.415,-0.109 -2.017,-0.327c-0.603,-0.218 -1.119,-0.515 -1.549,-0.889c-0.43,-0.375 -0.76,-0.816 -0.992,-1.324c-0.231,-0.508 -0.346,-1.073 -0.346,-1.695c0,-0.622 0.12,-1.205 0.361,-1.749c0.241,-0.544 0.577,-1.01 1.006,-1.398c0.43,-0.387 0.94,-0.687 1.53,-0.898c0.589,-0.212 1.208,-0.318 1.856,-0.318c0.648,0 1.223,0.093 1.724,0.278c0.502,0.186 0.93,0.442 1.285,0.767c0.355,0.326 0.631,0.709 0.826,1.148c0.195,0.44 0.293,0.898 0.293,1.373c0,0.476 -0.068,0.888 -0.205,1.236c-0.137,0.349 -0.314,0.642 -0.533,0.88c-0.218,0.237 -0.469,0.418 -0.752,0.542c-0.283,0.124 -0.576,0.186 -0.879,0.186c-0.303,0 -0.552,-0.057 -0.748,-0.171c-0.195,-0.114 -0.322,-0.276 -0.381,-0.484l-0.058,-0.156c-0.131,0.247 -0.289,0.444 -0.474,0.591c-0.186,0.146 -0.416,0.22 -0.689,0.22c-0.274,0 -0.507,-0.046 -0.699,-0.137c-0.192,-0.091 -0.363,-0.215 -0.513,-0.372c-0.332,-0.358 -0.498,-0.794 -0.498,-1.309c0,-0.671 0.234,-1.244 0.703,-1.719c0.456,-0.469 1.007,-0.704 1.652,-0.704c0.43,0 0.773,0.129 1.03,0.386c0.258,0.257 0.386,0.646 0.386,1.168l0,1.28Z" style="fill:#fff;fill-rule:nonzero;"/><path d="M26.984,22.051l1.25,0l-0.137,4.348l-0.986,0l-0.127,-4.348Zm0.048,6.361c-0.149,-0.143 -0.224,-0.326 -0.224,-0.547c0,-0.221 0.075,-0.407 0.224,-0.557c0.15,-0.15 0.342,-0.225 0.577,-0.225c0.234,0 0.43,0.075 0.586,0.225c0.157,0.15 0.235,0.336 0.235,0.557c0,0.221 -0.078,0.404 -0.235,0.547c-0.156,0.143 -0.352,0.215 -0.586,0.215c-0.235,0 -0.427,-0.072 -0.577,-0.215Z" style="fill:#fff;fill-rule:nonzero;"/></g></svg>