<?xml version="1.0" encoding="UTF-8" standalone="no"?><!DOCTYPE svg PUBLIC "-//W3C//DTD SVG 1.1//EN" "http://www.w3.org/Graphics/SVG/1.1/DTD/svg11.dtd"><svg width="100%" height="100%" viewBox="0 0 32 32" version="1.1" xmlns="http://www.w3.org/2000/svg" xmlns:xlink="http://www.w3.org/1999/xlink" xml:space="preserve" style="fill-rule:evenodd;clip-rule:evenodd;stroke-linejoin:round;stroke-miterlimit:1.41421;">
<metadata>
<rdf:RDF xmlns:cc="http://web.resource.org/cc/"
         xmlns:rdf="http://www.w3.org/1999/02/22-rdf-syntax-ns#"
         xmlns:dc = "http://purl.org/dc/elements/1.1/"
         >

     <rdf:Description rdf:about="">
       <dc:title>Mutant Standard emoji v0.2.3</dc:title>
     </rdf:Description>

    <cc:work rdf:about="">
        <cc:license rdf:resource="http://creativecommons.org/licenses/by-nc-sa/4.0/"/>
        <cc:attributionName>Dzuk</cc:attributionName>
        <cc:attributionURL>http://mutant.tech/</cc:attributionURL>
    </cc:work>

</rdf:RDF>
</metadata>
<rect id="thinking" x="0" y="0" width="32" height="32" style="fill:none;"/><g id="outline"><path d="M16.174,2.001c0.462,0.009 0.922,0.034 1.381,0.086c1.079,0.12 2.143,0.367 3.165,0.733c1.997,0.715 3.821,1.886 5.302,3.404c1.439,1.476 2.544,3.268 3.215,5.217c0.335,0.972 0.562,1.982 0.676,3.004c0.052,0.459 0.077,0.919 0.086,1.381c0.007,1.105 0.007,2.211 0,3.316c-0.007,0.374 -0.028,0.747 -0.071,1.119c-0.093,0.815 -0.278,1.62 -0.55,2.394c-0.516,1.464 -1.345,2.812 -2.416,3.935c-1.161,1.217 -2.6,2.163 -4.18,2.742c-0.813,0.298 -1.661,0.498 -2.521,0.596c-0.372,0.043 -0.745,0.064 -1.119,0.071c-1.764,0.011 -3.527,0.011 -5.291,0c-0.396,-0.007 -0.79,-0.029 -1.184,-0.073c-0.876,-0.098 -1.741,-0.293 -2.575,-0.58c-1.718,-0.592 -3.293,-1.576 -4.577,-2.861c-1.25,-1.249 -2.216,-2.775 -2.812,-4.439c-0.314,-0.876 -0.525,-1.788 -0.629,-2.713c-0.044,-0.393 -0.066,-0.788 -0.073,-1.184c-0.005,-0.776 -0.005,-1.553 0,-2.329c0.009,-0.477 0.036,-0.952 0.09,-1.425c0.125,-1.095 0.38,-2.174 0.759,-3.209c0.756,-2.064 2.004,-3.938 3.613,-5.435c1.404,-1.307 3.075,-2.322 4.885,-2.959c0.985,-0.347 2.009,-0.582 3.047,-0.701c0.531,-0.061 1.064,-0.088 1.599,-0.091c0.06,0 0.12,0.001 0.18,0.001Z" style="fill-rule:nonzero;"/></g><g id="emoji"><path d="M28,16c0,-3.183 -1.264,-6.235 -3.515,-8.485c-2.25,-2.251 -5.302,-3.515 -8.485,-3.515c0,0 0,0 0,0c-6.627,0 -12,5.373 -12,12c0,0.669 0,1.339 0,2c0,2.652 1.054,5.196 2.929,7.071c1.875,1.875 4.419,2.929 7.071,2.929c1.658,0 3.369,0 5,0c4.971,0 9,-4.029 9,-9c0,-0.981 0,-1.99 0,-3Z" style="fill:#fbc546;"/><clipPath id="_clip1"><path d="M28,16c0,-3.183 -1.264,-6.235 -3.515,-8.485c-2.25,-2.251 -5.302,-3.515 -8.485,-3.515c0,0 0,0 0,0c-6.627,0 -12,5.373 -12,12c0,0.669 0,1.339 0,2c0,2.652 1.054,5.196 2.929,7.071c1.875,1.875 4.419,2.929 7.071,2.929c1.658,0 3.369,0 5,0c4.971,0 9,-4.029 9,-9c0,-0.981 0,-1.99 0,-3Z"/></clipPath><g clip-path="url(#_clip1)"><path d="M13.155,19.889c0.226,0.013 0.449,0.036 0.671,0.083c0.356,0.075 0.702,0.199 1.025,0.368c0.16,0.084 0.311,0.179 0.46,0.281l3.426,2.447c0.095,0.019 0.094,0.019 0.189,0.04c0.112,0.028 0.111,0.028 0.223,0.06c0.22,0.069 0.434,0.151 0.64,0.254c0.378,0.189 0.726,0.439 1.027,0.736c0.135,0.135 0.258,0.279 0.375,0.43l4.492,5.99l-0.211,0.422l-7.472,0l-9,-7.131c0.007,-0.41 0.065,-0.814 0.191,-1.205c0.193,-0.603 0.532,-1.157 0.979,-1.605c0.392,-0.392 0.864,-0.7 1.38,-0.901c0.299,-0.116 0.611,-0.196 0.928,-0.238c0.135,-0.018 0.27,-0.026 0.406,-0.032c0.135,-0.002 0.135,-0.002 0.271,0.001Z" style="fill:#e59a10;fill-rule:nonzero;"/></g><path d="M12,9.5c0,-0.828 -0.672,-1.5 -1.5,-1.5c-0.828,0 -1.5,0.672 -1.5,1.5c0,0.916 0,2.084 0,3c0,0.828 0.672,1.5 1.5,1.5c0.828,0 1.5,-0.672 1.5,-1.5c0,-0.916 0,-2.084 0,-3Z"/><path d="M23,10l0,2.502c0,0.397 -0.158,0.778 -0.439,1.059c-0.281,0.281 -0.662,0.439 -1.059,0.439c-0.001,0 -0.003,0 -0.004,0c-0.397,0 -0.778,-0.158 -1.059,-0.439c-0.281,-0.281 -0.439,-0.662 -0.439,-1.059l0,-0.502l-1,0c-0.552,0 -1,-0.448 -1,-1c0,-0.552 0.448,-1 1,-1l4,0Z"/><path d="M16.467,16.001c0.329,0.013 0.655,0.049 0.976,0.121c0.636,0.144 1.242,0.412 1.775,0.787c0.203,0.142 0.391,0.301 0.572,0.469c0.309,0.301 0.612,0.609 0.917,0.915c0.143,0.152 0.244,0.332 0.279,0.539c0.057,0.336 -0.066,0.687 -0.32,0.914c-0.069,0.062 -0.148,0.114 -0.232,0.155c-0.101,0.049 -0.211,0.08 -0.322,0.093c-0.13,0.014 -0.263,0.003 -0.389,-0.033c-0.146,-0.042 -0.274,-0.118 -0.389,-0.215c-0.316,-0.299 -0.612,-0.616 -0.923,-0.919c-0.109,-0.101 -0.221,-0.196 -0.343,-0.281c-0.32,-0.225 -0.684,-0.386 -1.065,-0.472c-0.193,-0.044 -0.388,-0.066 -0.585,-0.073c-1.473,-0.018 -2.945,-0.001 -4.418,-0.001c-0.209,-0.006 -0.407,-0.063 -0.579,-0.184c-0.091,-0.065 -0.172,-0.146 -0.237,-0.237c-0.054,-0.077 -0.097,-0.16 -0.128,-0.249c-0.112,-0.321 -0.05,-0.687 0.162,-0.953c0.082,-0.103 0.184,-0.189 0.298,-0.252c0.133,-0.074 0.277,-0.111 0.428,-0.123c1.507,-0.043 3.016,-0.019 4.523,-0.001Z" style="fill-rule:nonzero;"/><path d="M13,22l4.025,0l0.124,0.003c0.148,0.011 0.293,0.025 0.439,0.055c0.287,0.057 0.566,0.157 0.825,0.295c0.348,0.185 0.658,0.44 0.908,0.745c0.217,0.265 0.388,0.567 0.504,0.89c0.099,0.277 0.157,0.569 0.172,0.863c0.015,0.302 -0.016,0.605 -0.091,0.897c-0.206,0.801 -0.748,1.495 -1.474,1.889c-0.304,0.165 -0.636,0.277 -0.978,0.329c-0.142,0.022 -0.284,0.03 -0.429,0.034l-0.025,0l0,1l-1,0l0,0.025l-0.003,0.127c-0.01,0.135 -0.01,0.169 -0.031,0.302c-0.037,0.246 -0.105,0.486 -0.202,0.715c-0.341,0.806 -1.036,1.436 -1.873,1.696c-0.191,0.06 -0.388,0.1 -0.587,0.12c-0.129,0.013 -0.155,0.012 -0.279,0.015l-3.05,0c-0.12,-0.003 -0.145,-0.002 -0.271,-0.014c-0.244,-0.024 -0.485,-0.079 -0.716,-0.161c-0.838,-0.301 -1.512,-0.975 -1.813,-1.813c-0.082,-0.231 -0.137,-0.472 -0.161,-0.716c-0.013,-0.127 -0.011,-0.15 -0.014,-0.272l0,-4.805c0.006,-0.322 0.041,-0.64 0.119,-0.953c0.189,-0.755 0.601,-1.449 1.175,-1.976c0.271,-0.249 0.575,-0.453 0.902,-0.624l3.804,-1.902l0,3.236Z"/><path d="M11,22c0,0 -0.432,0.216 -0.894,0.447c-0.678,0.339 -1.106,1.032 -1.106,1.789c0,1.357 0,3.509 0,4.764c0,0.265 0.105,0.52 0.293,0.707c0.187,0.188 0.442,0.293 0.707,0.293c0.871,0 2.129,0 3,0c0.552,0 1,-0.448 1,-1c0,-1.185 0,-3 0,-3c0,0 1.815,0 3,0c0.552,0 1,-0.448 1,-1c0,-0.265 -0.105,-0.52 -0.293,-0.707c-0.187,-0.188 -0.442,-0.293 -0.707,-0.293c-1.934,0 -6,0 -6,0l0,-2Z" style="fill:#fbc546;"/></g></svg>