<?xml version="1.0" encoding="UTF-8" standalone="no"?><!DOCTYPE svg PUBLIC "-//W3C//DTD SVG 1.1//EN" "http://www.w3.org/Graphics/SVG/1.1/DTD/svg11.dtd"><svg width="100%" height="100%" viewBox="0 0 32 32" version="1.1" xmlns="http://www.w3.org/2000/svg" xmlns:xlink="http://www.w3.org/1999/xlink" xml:space="preserve" style="fill-rule:evenodd;clip-rule:evenodd;stroke-linejoin:round;stroke-miterlimit:1.41421;">
<metadata>
<rdf:RDF xmlns:cc="http://web.resource.org/cc/"
         xmlns:rdf="http://www.w3.org/1999/02/22-rdf-syntax-ns#"
         xmlns:dc = "http://purl.org/dc/elements/1.1/"
         >

     <rdf:Description rdf:about="">
       <dc:title>Mutant Standard emoji v0.2.3</dc:title>
     </rdf:Description>

    <cc:work rdf:about="">
        <cc:license rdf:resource="http://creativecommons.org/licenses/by-nc-sa/4.0/"/>
        <cc:attributionName>Dzuk</cc:attributionName>
        <cc:attributionURL>http://mutant.tech/</cc:attributionURL>
    </cc:work>

</rdf:RDF>
</metadata>
<rect id="unamused" x="0" y="0" width="32" height="32" style="fill:none;"/><g id="outline"><path d="M16.174,3.001c0.462,0.009 0.922,0.034 1.381,0.086c1.022,0.114 2.032,0.341 3.004,0.676c2.004,0.69 3.842,1.839 5.341,3.337c1.458,1.459 2.585,3.238 3.28,5.18c0.366,1.022 0.613,2.086 0.733,3.165c0.052,0.459 0.077,0.919 0.086,1.381c0.005,0.772 0.005,1.544 0,2.316c-0.007,0.374 -0.028,0.747 -0.071,1.119c-0.098,0.86 -0.298,1.708 -0.596,2.521c-0.594,1.622 -1.574,3.094 -2.838,4.271c-1.104,1.027 -2.417,1.824 -3.839,2.325c-0.774,0.272 -1.579,0.457 -2.394,0.55c-0.372,0.043 -0.745,0.064 -1.119,0.071c-2.095,0.013 -4.189,0.013 -6.284,0c-0.374,-0.007 -0.747,-0.028 -1.119,-0.071c-0.815,-0.093 -1.62,-0.278 -2.394,-0.55c-1.422,-0.501 -2.735,-1.298 -3.839,-2.325c-1.264,-1.177 -2.244,-2.649 -2.838,-4.271c-0.298,-0.813 -0.498,-1.661 -0.596,-2.521c-0.043,-0.372 -0.064,-0.745 -0.071,-1.119c-0.005,-0.772 -0.005,-1.544 0,-2.316c0.009,-0.462 0.034,-0.922 0.086,-1.381c0.12,-1.079 0.367,-2.143 0.733,-3.165c0.695,-1.942 1.822,-3.721 3.28,-5.18c1.499,-1.498 3.337,-2.647 5.341,-3.337c0.972,-0.335 1.982,-0.562 3.004,-0.676c0.459,-0.052 0.919,-0.077 1.381,-0.086c0.174,-0.001 0.174,-0.001 0.348,0Z" style="fill-rule:nonzero;"/></g><g id="emoji"><path d="M28,17c0,-3.183 -1.264,-6.235 -3.515,-8.485c-2.25,-2.251 -5.302,-3.515 -8.485,-3.515c0,0 0,0 0,0c-3.183,0 -6.235,1.264 -8.485,3.515c-2.251,2.25 -3.515,5.302 -3.515,8.485c0,0.672 0,1.342 0,2c0,4.971 4.029,9 9,9c1.962,0 4.038,0 6,0c4.971,0 9,-4.029 9,-9c0,-0.658 0,-1.328 0,-2Z" style="fill:#fbc546;"/><path d="M16.145,19.002c0.288,0.01 0.573,0.035 0.857,0.085c0.748,0.13 1.47,0.408 2.112,0.814c0.325,0.206 0.622,0.444 0.904,0.705c0.232,0.226 0.46,0.457 0.689,0.687c0.143,0.152 0.244,0.332 0.279,0.54c0.019,0.11 0.019,0.224 0,0.335c-0.057,0.335 -0.288,0.625 -0.603,0.756c-0.087,0.036 -0.178,0.059 -0.271,0.07c-0.13,0.014 -0.263,0.003 -0.389,-0.033c-0.146,-0.042 -0.274,-0.118 -0.389,-0.215c-0.238,-0.225 -0.461,-0.463 -0.695,-0.691c-0.3,-0.278 -0.633,-0.513 -1.003,-0.688c-0.453,-0.214 -0.946,-0.337 -1.446,-0.362c-0.596,-0.03 -1.196,0.082 -1.741,0.323c-0.403,0.179 -0.765,0.427 -1.088,0.727c-0.22,0.215 -0.436,0.434 -0.654,0.652c-0.11,0.104 -0.233,0.187 -0.377,0.237c-0.123,0.043 -0.255,0.062 -0.386,0.054c-0.112,-0.006 -0.223,-0.031 -0.327,-0.074c-0.315,-0.131 -0.546,-0.421 -0.603,-0.756c-0.016,-0.093 -0.018,-0.187 -0.008,-0.28c0.024,-0.209 0.114,-0.395 0.248,-0.554c0.204,-0.216 0.419,-0.421 0.629,-0.631c0.308,-0.301 0.639,-0.572 1.003,-0.802c0.642,-0.406 1.364,-0.684 2.112,-0.814c0.33,-0.058 0.661,-0.083 0.996,-0.087c0.05,0 0.1,0.001 0.151,0.002Z" style="fill-rule:nonzero;"/><path d="M24,13.5c0,-0.828 -0.672,-1.5 -1.5,-1.5c-0.757,0 -1.685,0 -2.502,0c-1.103,0 -1.998,0.895 -1.998,1.998c0,0.001 0,0.002 0,0.002l3,0.023c0,0 0,0.816 0,1.593c0,0.367 0.146,0.719 0.405,0.979c0.26,0.259 0.612,0.405 0.979,0.405c0.001,0 0.001,0 0.002,0c0.428,0 0.839,-0.17 1.141,-0.473c0.303,-0.302 0.473,-0.713 0.473,-1.141c0,-0.606 0,-1.291 0,-1.886Z"/><path d="M13,13.5c0,-0.828 -0.672,-1.5 -1.5,-1.5c-0.757,0 -1.685,0 -2.502,0c-1.103,0 -1.998,0.895 -1.998,1.998c0,0.001 0,0.002 0,0.002l3,0.023c0,0 0,0.816 0,1.593c0,0.367 0.146,0.719 0.405,0.979c0.26,0.259 0.612,0.405 0.979,0.405c0.001,0 0.001,0 0.002,0c0.428,0 0.839,-0.17 1.141,-0.473c0.303,-0.302 0.473,-0.713 0.473,-1.141c0,-0.606 0,-1.291 0,-1.886Z"/></g></svg>