<?xml version="1.0" encoding="UTF-8" standalone="no"?><!DOCTYPE svg PUBLIC "-//W3C//DTD SVG 1.1//EN" "http://www.w3.org/Graphics/SVG/1.1/DTD/svg11.dtd"><svg width="100%" height="100%" viewBox="0 0 32 32" version="1.1" xmlns="http://www.w3.org/2000/svg" xmlns:xlink="http://www.w3.org/1999/xlink" xml:space="preserve" style="fill-rule:evenodd;clip-rule:evenodd;stroke-linejoin:round;stroke-miterlimit:1.41421;">
<metadata>
<rdf:RDF xmlns:cc="http://web.resource.org/cc/"
         xmlns:rdf="http://www.w3.org/1999/02/22-rdf-syntax-ns#"
         xmlns:dc = "http://purl.org/dc/elements/1.1/"
         >

     <rdf:Description rdf:about="">
       <dc:title>Mutant Standard emoji v0.2.3</dc:title>
     </rdf:Description>

    <cc:work rdf:about="">
        <cc:license rdf:resource="http://creativecommons.org/licenses/by-nc-sa/4.0/"/>
        <cc:attributionName>Dzuk</cc:attributionName>
        <cc:attributionURL>http://mutant.tech/</cc:attributionURL>
    </cc:work>

</rdf:RDF>
</metadata>
<rect id="unhappy" x="0" y="0" width="32" height="32" style="fill:none;"/><g id="outline"><path d="M16.174,3.001c0.462,0.009 0.922,0.034 1.381,0.086c1.079,0.12 2.143,0.367 3.165,0.733c1.997,0.715 3.821,1.886 5.302,3.404c1.439,1.476 2.544,3.268 3.215,5.217c0.335,0.972 0.562,1.982 0.676,3.004c0.052,0.459 0.077,0.919 0.086,1.381c0.007,1.101 0.007,2.202 0,3.303c-0.007,0.382 -0.031,0.763 -0.079,1.142c-0.094,0.739 -0.271,1.468 -0.527,2.167c-0.499,1.362 -1.297,2.608 -2.322,3.633c-1.054,1.054 -2.342,1.868 -3.748,2.363c-0.704,0.248 -1.436,0.416 -2.177,0.501c-0.338,0.039 -0.677,0.058 -1.017,0.064c-2.753,0.018 -5.505,0.018 -8.258,0c-0.382,-0.007 -0.763,-0.031 -1.142,-0.079c-0.739,-0.094 -1.468,-0.271 -2.167,-0.527c-1.55,-0.568 -2.949,-1.524 -4.044,-2.758c-0.856,-0.965 -1.523,-2.095 -1.952,-3.312c-0.248,-0.704 -0.416,-1.436 -0.501,-2.177c-0.039,-0.338 -0.058,-0.677 -0.064,-1.017c-0.007,-1.101 -0.007,-2.202 0,-3.303c0.01,-0.519 0.042,-1.037 0.106,-1.552c0.134,-1.077 0.393,-2.138 0.771,-3.155c0.801,-2.151 2.134,-4.093 3.855,-5.613c1.413,-1.248 3.079,-2.205 4.87,-2.797c0.977,-0.324 1.989,-0.539 3.013,-0.641c0.458,-0.045 0.918,-0.065 1.378,-0.068c0.06,0 0.12,0.001 0.18,0.001Z" style="fill-rule:nonzero;"/></g><g id="emoji"><path d="M28,17c0,-3.183 -1.264,-6.235 -3.515,-8.485c-2.25,-2.251 -5.302,-3.515 -8.485,-3.515c0,0 0,0 0,0c-3.183,0 -6.235,1.264 -8.485,3.515c-2.251,2.25 -3.515,5.302 -3.515,8.485c0,1.016 0,2.026 0,3c0,4.418 3.582,8 8,8c2.574,0 5.426,0 8,0c4.418,0 8,-3.582 8,-8c0,-0.974 0,-1.984 0,-3Z" style="fill:#fbc546;"/><path d="M16.664,17.001l0.085,0.001l0.085,0.003l0.084,0.003l0.085,0.005l0.084,0.006l0.084,0.007l0.084,0.007l0.084,0.009l0.084,0.01l0.083,0.011l0.084,0.012l0.083,0.013l0.082,0.014l0.083,0.015l0.082,0.016l0.083,0.017l0.081,0.018l0.082,0.019l0.081,0.019l0.081,0.021l0.081,0.022l0.081,0.023l0.08,0.024l0.079,0.025l0.08,0.025l0.079,0.027l0.079,0.028l0.078,0.028l0.078,0.03l0.078,0.031l0.077,0.031l0.077,0.032l0.077,0.034l0.076,0.034l0.076,0.035l0.075,0.036l0.075,0.038l0.074,0.038l0.074,0.038l0.074,0.04l0.073,0.041l0.072,0.042l0.072,0.042l0.072,0.043l0.071,0.045l0.07,0.045l0.071,0.046l0.069,0.047l0.069,0.048l0.068,0.049l0.068,0.049l0.068,0.051l0.066,0.051l0.067,0.052l0.065,0.053l0.065,0.054l0.064,0.055l0.064,0.055l0.063,0.057l0.063,0.057l0.061,0.058l0.062,0.059l0.058,0.058l1.29,1.29l0.047,0.05l0.043,0.053l0.039,0.056l0.036,0.058l0.031,0.061l0.027,0.062l0.023,0.064l0.019,0.066l0.013,0.067l0.01,0.068l0.004,0.068l0,0.068l-0.004,0.068l-0.01,0.068l-0.013,0.067l-0.019,0.066l-0.023,0.064l-0.027,0.062l-0.031,0.061l-0.036,0.058l-0.039,0.056l-0.043,0.053l-0.047,0.05l-0.05,0.047l-0.053,0.043l-0.056,0.039l-0.058,0.036l-0.061,0.031l-0.062,0.027l-0.064,0.023l-0.066,0.019l-0.067,0.013l-0.068,0.01l-0.068,0.004l-0.068,0l-0.068,-0.004l-0.068,-0.01l-0.067,-0.013l-0.066,-0.019l-0.064,-0.023l-0.062,-0.027l-0.061,-0.031l-0.058,-0.036l-0.056,-0.039l-0.053,-0.043l-0.05,-0.047l-1.286,-1.286l-0.045,-0.044l-0.043,-0.042l-0.044,-0.041l-0.044,-0.041l-0.045,-0.039l-0.045,-0.04l-0.046,-0.039l-0.045,-0.038l-0.047,-0.037l-0.047,-0.037l-0.047,-0.036l-0.048,-0.036l-0.048,-0.035l-0.048,-0.035l-0.049,-0.034l-0.049,-0.033l-0.05,-0.033l-0.05,-0.032l-0.05,-0.031l-0.051,-0.031l-0.05,-0.03l-0.052,-0.029l-0.052,-0.029l-0.052,-0.028l-0.052,-0.028l-0.053,-0.027l-0.053,-0.026l-0.053,-0.025l-0.053,-0.025l-0.054,-0.025l-0.055,-0.023l-0.054,-0.023l-0.055,-0.022l-0.055,-0.022l-0.055,-0.021l-0.056,-0.02l-0.055,-0.02l-0.056,-0.019l-0.057,-0.018l-0.056,-0.018l-0.057,-0.016l-0.057,-0.017l-0.057,-0.015l-0.057,-0.015l-0.058,-0.014l-0.058,-0.013l-0.057,-0.013l-0.059,-0.012l-0.058,-0.011l-0.058,-0.011l-0.059,-0.01l-0.059,-0.009l-0.059,-0.008l-0.059,-0.008l-0.059,-0.007l-0.059,-0.006l-0.06,-0.006l-0.059,-0.005l-0.06,-0.004l-0.06,-0.003l-0.06,-0.003l-0.06,-0.001l-0.06,-0.002l-0.063,0l-1.152,0l-0.063,0l-0.06,0.002l-0.06,0.001l-0.06,0.003l-0.06,0.003l-0.06,0.004l-0.059,0.005l-0.06,0.006l-0.059,0.006l-0.059,0.007l-0.059,0.008l-0.059,0.008l-0.059,0.009l-0.059,0.01l-0.058,0.011l-0.058,0.011l-0.059,0.012l-0.057,0.013l-0.058,0.013l-0.058,0.014l-0.057,0.015l-0.057,0.015l-0.057,0.017l-0.057,0.016l-0.056,0.018l-0.057,0.018l-0.056,0.019l-0.056,0.02l-0.055,0.02l-0.055,0.021l-0.055,0.022l-0.055,0.022l-0.054,0.023l-0.055,0.023l-0.054,0.025l-0.053,0.025l-0.053,0.025l-0.053,0.026l-0.053,0.027l-0.052,0.028l-0.052,0.028l-0.052,0.029l-0.051,0.029l-0.052,0.03l-0.05,0.031l-0.05,0.031l-0.05,0.032l-0.05,0.033l-0.049,0.033l-0.049,0.034l-0.048,0.035l-0.048,0.035l-0.048,0.036l-0.047,0.036l-0.047,0.037l-0.047,0.037l-0.045,0.038l-0.046,0.039l-0.045,0.04l-0.045,0.039l-0.044,0.041l-0.044,0.041l-0.043,0.042l-0.045,0.044l-1.286,1.286l-0.05,0.047l-0.053,0.043l-0.056,0.039l-0.058,0.036l-0.061,0.031l-0.062,0.027l-0.064,0.023l-0.066,0.019l-0.067,0.013l-0.068,0.01l-0.068,0.004l-0.068,0l-0.068,-0.004l-0.068,-0.01l-0.067,-0.013l-0.066,-0.019l-0.064,-0.023l-0.062,-0.027l-0.061,-0.031l-0.058,-0.036l-0.056,-0.039l-0.053,-0.043l-0.05,-0.047l-0.047,-0.05l-0.043,-0.053l-0.039,-0.056l-0.036,-0.058l-0.031,-0.061l-0.027,-0.062l-0.023,-0.064l-0.019,-0.066l-0.013,-0.067l-0.01,-0.068l-0.004,-0.068l0,-0.068l0.004,-0.068l0.01,-0.068l0.013,-0.067l0.019,-0.066l0.023,-0.064l0.027,-0.062l0.031,-0.061l0.036,-0.058l0.039,-0.056l0.043,-0.053l0.047,-0.05l1.29,-1.29l0.058,-0.058l0.061,-0.059l0.062,-0.058l0.063,-0.057l0.063,-0.057l0.064,-0.055l0.064,-0.055l0.065,-0.054l0.065,-0.053l0.067,-0.052l0.066,-0.051l0.068,-0.051l0.068,-0.049l0.068,-0.049l0.069,-0.048l0.069,-0.047l0.071,-0.046l0.07,-0.045l0.071,-0.045l0.072,-0.043l0.072,-0.042l0.072,-0.042l0.073,-0.041l0.074,-0.04l0.074,-0.038l0.074,-0.038l0.075,-0.038l0.075,-0.036l0.076,-0.035l0.076,-0.034l0.077,-0.034l0.077,-0.032l0.077,-0.031l0.078,-0.031l0.078,-0.03l0.078,-0.028l0.079,-0.028l0.079,-0.027l0.079,-0.025l0.08,-0.025l0.08,-0.024l0.081,-0.023l0.081,-0.022l0.081,-0.021l0.081,-0.019l0.082,-0.019l0.081,-0.018l0.083,-0.017l0.082,-0.016l0.082,-0.015l0.083,-0.014l0.083,-0.013l0.084,-0.012l0.083,-0.011l0.084,-0.01l0.084,-0.009l0.084,-0.007l0.084,-0.007l0.084,-0.006l0.085,-0.005l0.084,-0.003l0.085,-0.003l0.085,-0.001l0.082,-0.001l1.164,0l0.082,0.001Z"/><path d="M13,12.057c0,-0.584 -0.473,-1.057 -1.057,-1.057c0,0 -0.001,0 -0.001,0l-2.942,2.942c0,0.034 0,0.068 0,0.102c0,0.519 0.206,1.016 0.573,1.383c0.367,0.367 0.864,0.573 1.383,0.573c0.015,0 0.031,0 0.046,0c1.103,0 1.998,-0.895 1.998,-1.998c0,-0.665 0,-1.38 0,-1.945Z"/><path d="M23,13.942l-2.942,-2.942c0,0 -0.001,0 -0.001,0c-0.584,0 -1.057,0.473 -1.057,1.057c0,0.565 0,1.278 0,1.943c0,0.53 0.211,1.039 0.586,1.414c0.375,0.375 0.884,0.586 1.414,0.586c0.015,0 0.029,0 0.044,0c0.519,0 1.016,-0.206 1.383,-0.573c0.367,-0.367 0.573,-0.864 0.573,-1.383c0,-0.034 0,-0.068 0,-0.102Z"/></g></svg>