<?xml version="1.0" encoding="UTF-8" standalone="no"?><!DOCTYPE svg PUBLIC "-//W3C//DTD SVG 1.1//EN" "http://www.w3.org/Graphics/SVG/1.1/DTD/svg11.dtd"><svg width="100%" height="100%" viewBox="0 0 32 32" version="1.1" xmlns="http://www.w3.org/2000/svg" xmlns:xlink="http://www.w3.org/1999/xlink" xml:space="preserve" style="fill-rule:evenodd;clip-rule:evenodd;stroke-linejoin:round;stroke-miterlimit:1.41421;">
<metadata>
<rdf:RDF xmlns:cc="http://web.resource.org/cc/"
         xmlns:rdf="http://www.w3.org/1999/02/22-rdf-syntax-ns#"
         xmlns:dc = "http://purl.org/dc/elements/1.1/"
         >

     <rdf:Description rdf:about="">
       <dc:title>Mutant Standard emoji v0.2.3</dc:title>
     </rdf:Description>

    <cc:work rdf:about="">
        <cc:license rdf:resource="http://creativecommons.org/licenses/by-nc-sa/4.0/"/>
        <cc:attributionName>Dzuk</cc:attributionName>
        <cc:attributionURL>http://mutant.tech/</cc:attributionURL>
    </cc:work>

</rdf:RDF>
</metadata>
<rect id="upside_down_smile" x="0" y="0" width="32" height="32" style="fill:none;"/><g id="outline"><path d="M19.142,2.001c0.374,0.007 0.747,0.028 1.119,0.071c0.86,0.098 1.708,0.298 2.521,0.596c1.622,0.594 3.094,1.574 4.271,2.838c1.027,1.104 1.824,2.417 2.325,3.839c0.272,0.774 0.457,1.579 0.55,2.394c0.043,0.372 0.064,0.745 0.071,1.119c0.007,1.108 0.007,2.215 0,3.322c-0.01,0.536 -0.044,1.069 -0.111,1.601c-0.153,1.204 -0.464,2.388 -0.923,3.511c-0.512,1.253 -1.208,2.43 -2.057,3.484c-0.913,1.134 -2.003,2.125 -3.219,2.925c-1.186,0.781 -2.491,1.38 -3.857,1.768c-1.412,0.401 -2.887,0.576 -4.353,0.521c-1.601,-0.059 -3.191,-0.396 -4.678,-0.991c-1.594,-0.638 -3.067,-1.57 -4.325,-2.738c-1.346,-1.249 -2.441,-2.764 -3.206,-4.434c-0.57,-1.245 -0.955,-2.573 -1.141,-3.93c-0.078,-0.572 -0.117,-1.146 -0.128,-1.723c-0.007,-1.105 -0.007,-2.211 0,-3.316c0.007,-0.374 0.028,-0.747 0.071,-1.119c0.093,-0.815 0.278,-1.62 0.55,-2.394c0.501,-1.422 1.298,-2.735 2.325,-3.839c1.177,-1.264 2.649,-2.244 4.271,-2.838c0.813,-0.298 1.661,-0.498 2.521,-0.596c0.372,-0.043 0.745,-0.064 1.119,-0.071c2.095,-0.013 4.189,-0.013 6.284,0Z"/></g><g id="emoji"><path d="M4,16c0,3.183 1.264,6.235 3.515,8.485c2.25,2.251 5.302,3.515 8.485,3.515c0,0 0,0 0,0c6.627,0 12,-5.373 12,-12c0,-1.01 0,-2.019 0,-3c0,-4.971 -4.029,-9 -9,-9c-1.962,0 -4.038,0 -6,0c-4.971,0 -9,4.029 -9,9c0,0.981 0,1.99 0,3Z" style="fill:#fbc546;"/><path d="M20,18.502c0,0.827 0.671,1.498 1.498,1.498c0.001,0 0.001,0 0.002,0c0.398,0 0.779,-0.158 1.061,-0.439c0.281,-0.282 0.439,-0.663 0.439,-1.061c0,-0.633 0,-1.367 0,-2c0,-0.398 -0.158,-0.779 -0.439,-1.061c-0.282,-0.281 -0.663,-0.439 -1.061,-0.439c-0.398,0 -0.779,0.158 -1.061,0.439c-0.281,0.282 -0.439,0.663 -0.439,1.061c0,0.633 0,1.369 0,2.002Z"/><path d="M9,18.502c0,0.827 0.671,1.498 1.498,1.498c0.001,0 0.003,0 0.004,0c0.827,0 1.498,-0.671 1.498,-1.498c0,-0.634 0,-1.37 0,-2.004c0,-0.827 -0.671,-1.498 -1.498,-1.498c-0.001,0 -0.003,0 -0.004,0c-0.827,0 -1.498,0.671 -1.498,1.498c0,0.634 0,1.37 0,2.004Z"/><path d="M16.103,8.001l0.102,0.002l0.102,0.003l0.102,0.004l0.102,0.006l0.101,0.007l0.102,0.008l0.101,0.009l0.101,0.011l0.101,0.012l0.1,0.013l0.1,0.014l0.1,0.016l0.1,0.017l0.1,0.018l0.099,0.019l0.099,0.02l0.098,0.022l0.098,0.023l0.098,0.024l0.098,0.025l0.097,0.026l0.097,0.028l0.096,0.028l0.096,0.03l0.096,0.031l0.095,0.032l0.095,0.034l0.095,0.034l0.094,0.036l0.093,0.036l0.093,0.038l0.093,0.039l0.092,0.041l0.092,0.041l0.091,0.042l0.091,0.044l0.09,0.044l0.089,0.046l0.089,0.047l0.089,0.048l0.088,0.049l0.087,0.05l0.087,0.051l0.086,0.052l0.086,0.054l0.085,0.054l0.084,0.056l0.084,0.056l0.083,0.058l0.082,0.059l0.082,0.059l0.081,0.061l0.08,0.062l0.08,0.063l0.079,0.064l0.078,0.064l0.077,0.066l0.077,0.067l0.076,0.068l0.075,0.069l0.075,0.07l0.073,0.071l0.071,0.07l0.881,0.881l0.047,0.05l0.043,0.053l0.039,0.056l0.036,0.058l0.031,0.061l0.027,0.062l0.023,0.064l0.019,0.066l0.013,0.067l0.01,0.068l0.004,0.068l0,0.068l-0.004,0.068l-0.01,0.068l-0.013,0.067l-0.019,0.066l-0.023,0.064l-0.027,0.062l-0.031,0.061l-0.036,0.058l-0.039,0.056l-0.043,0.053l-0.047,0.05l-0.05,0.047l-0.053,0.043l-0.056,0.039l-0.058,0.036l-0.061,0.031l-0.062,0.027l-0.064,0.023l-0.066,0.019l-0.067,0.013l-0.068,0.01l-0.068,0.004l-0.068,0l-0.068,-0.004l-0.068,-0.01l-0.067,-0.013l-0.066,-0.019l-0.064,-0.023l-0.062,-0.027l-0.061,-0.031l-0.058,-0.036l-0.056,-0.039l-0.053,-0.043l-0.05,-0.047l-0.877,-0.877l-0.057,-0.056l-0.056,-0.054l-0.056,-0.053l-0.057,-0.052l-0.058,-0.052l-0.058,-0.05l-0.059,-0.05l-0.059,-0.049l-0.06,-0.049l-0.06,-0.047l-0.061,-0.047l-0.061,-0.046l-0.062,-0.045l-0.062,-0.045l-0.063,-0.043l-0.064,-0.043l-0.064,-0.042l-0.064,-0.041l-0.065,-0.041l-0.065,-0.039l-0.066,-0.039l-0.066,-0.038l-0.066,-0.037l-0.067,-0.037l-0.068,-0.035l-0.068,-0.035l-0.068,-0.034l-0.069,-0.032l-0.069,-0.033l-0.069,-0.031l-0.07,-0.03l-0.07,-0.03l-0.071,-0.029l-0.07,-0.027l-0.072,-0.027l-0.071,-0.026l-0.072,-0.026l-0.072,-0.024l-0.073,-0.024l-0.072,-0.022l-0.073,-0.022l-0.074,-0.021l-0.073,-0.02l-0.074,-0.019l-0.074,-0.018l-0.075,-0.017l-0.074,-0.016l-0.075,-0.016l-0.075,-0.014l-0.076,-0.014l-0.075,-0.013l-0.076,-0.012l-0.076,-0.01l-0.076,-0.01l-0.076,-0.009l-0.077,-0.008l-0.076,-0.008l-0.077,-0.006l-0.077,-0.005l-0.077,-0.004l-0.077,-0.004l-0.078,-0.002l-0.077,-0.001l-0.078,-0.001l-0.078,0.001l-0.077,0.001l-0.078,0.002l-0.077,0.004l-0.077,0.004l-0.077,0.005l-0.077,0.006l-0.076,0.008l-0.077,0.008l-0.076,0.009l-0.076,0.01l-0.076,0.01l-0.076,0.012l-0.075,0.013l-0.076,0.014l-0.075,0.014l-0.075,0.016l-0.074,0.016l-0.075,0.017l-0.074,0.018l-0.074,0.019l-0.073,0.02l-0.074,0.021l-0.073,0.022l-0.072,0.022l-0.073,0.024l-0.072,0.024l-0.072,0.026l-0.071,0.026l-0.072,0.027l-0.07,0.027l-0.071,0.029l-0.07,0.03l-0.07,0.03l-0.069,0.031l-0.069,0.033l-0.069,0.032l-0.068,0.034l-0.068,0.035l-0.068,0.035l-0.067,0.037l-0.066,0.037l-0.066,0.038l-0.066,0.039l-0.065,0.039l-0.065,0.041l-0.064,0.041l-0.064,0.042l-0.064,0.043l-0.063,0.043l-0.062,0.045l-0.062,0.045l-0.061,0.046l-0.061,0.047l-0.06,0.047l-0.06,0.049l-0.059,0.049l-0.059,0.05l-0.058,0.05l-0.058,0.052l-0.057,0.052l-0.056,0.053l-0.056,0.054l-0.057,0.056l-0.877,0.877l-0.05,0.047l-0.053,0.043l-0.056,0.039l-0.058,0.036l-0.061,0.031l-0.062,0.027l-0.064,0.023l-0.066,0.019l-0.067,0.013l-0.068,0.01l-0.068,0.004l-0.068,0l-0.068,-0.004l-0.068,-0.01l-0.067,-0.013l-0.066,-0.019l-0.064,-0.023l-0.062,-0.027l-0.061,-0.031l-0.058,-0.036l-0.056,-0.039l-0.053,-0.043l-0.05,-0.047l-0.047,-0.05l-0.043,-0.053l-0.039,-0.056l-0.036,-0.058l-0.031,-0.061l-0.027,-0.062l-0.023,-0.064l-0.019,-0.066l-0.013,-0.067l-0.01,-0.068l-0.004,-0.068l0,-0.068l0.004,-0.068l0.01,-0.068l0.013,-0.067l0.019,-0.066l0.023,-0.064l0.027,-0.062l0.031,-0.061l0.036,-0.058l0.039,-0.056l0.043,-0.053l0.047,-0.05l0.881,-0.881l0.071,-0.07l0.073,-0.071l0.075,-0.07l0.075,-0.069l0.076,-0.068l0.077,-0.067l0.077,-0.066l0.078,-0.064l0.079,-0.064l0.08,-0.063l0.08,-0.062l0.081,-0.061l0.082,-0.059l0.082,-0.059l0.083,-0.058l0.084,-0.056l0.084,-0.056l0.085,-0.054l0.086,-0.054l0.086,-0.052l0.087,-0.051l0.087,-0.05l0.088,-0.049l0.089,-0.048l0.089,-0.047l0.089,-0.046l0.09,-0.044l0.091,-0.044l0.091,-0.042l0.092,-0.041l0.092,-0.041l0.093,-0.039l0.093,-0.038l0.093,-0.036l0.094,-0.036l0.095,-0.034l0.095,-0.034l0.095,-0.032l0.096,-0.031l0.096,-0.03l0.096,-0.028l0.097,-0.028l0.097,-0.026l0.098,-0.025l0.098,-0.024l0.098,-0.023l0.098,-0.022l0.099,-0.02l0.099,-0.019l0.1,-0.018l0.1,-0.017l0.1,-0.016l0.1,-0.014l0.1,-0.013l0.101,-0.012l0.101,-0.011l0.101,-0.009l0.102,-0.008l0.101,-0.007l0.102,-0.006l0.102,-0.004l0.102,-0.003l0.102,-0.002l0.1,-0.001l0.006,0l0.1,0.001Z"/></g></svg>