<?xml version="1.0" encoding="UTF-8" standalone="no"?><!DOCTYPE svg PUBLIC "-//W3C//DTD SVG 1.1//EN" "http://www.w3.org/Graphics/SVG/1.1/DTD/svg11.dtd"><svg width="100%" height="100%" viewBox="0 0 32 32" version="1.1" xmlns="http://www.w3.org/2000/svg" xmlns:xlink="http://www.w3.org/1999/xlink" xml:space="preserve" style="fill-rule:evenodd;clip-rule:evenodd;stroke-linejoin:round;stroke-miterlimit:1.41421;">
<metadata>
<rdf:RDF xmlns:cc="http://web.resource.org/cc/"
         xmlns:rdf="http://www.w3.org/1999/02/22-rdf-syntax-ns#"
         xmlns:dc = "http://purl.org/dc/elements/1.1/"
         >

     <rdf:Description rdf:about="">
       <dc:title>Mutant Standard emoji v0.2.3</dc:title>
     </rdf:Description>

    <cc:work rdf:about="">
        <cc:license rdf:resource="http://creativecommons.org/licenses/by-nc-sa/4.0/"/>
        <cc:attributionName>Dzuk</cc:attributionName>
        <cc:attributionURL>http://mutant.tech/</cc:attributionURL>
    </cc:work>

</rdf:RDF>
</metadata>
<rect id="very_angry" x="0" y="0" width="32" height="32" style="fill:none;"/><g id="outline"><path d="M17.17,2.006c0.281,-0.797 0.898,-1.453 1.682,-1.778c0.337,-0.139 0.699,-0.217 1.064,-0.227c0.393,-0.011 0.787,0.056 1.154,0.196c0.288,0.11 0.559,0.265 0.801,0.458c0.087,0.07 0.17,0.145 0.25,0.224l0.879,0.878c0.313,-0.312 0.622,-0.629 0.939,-0.937c0.062,-0.057 0.062,-0.057 0.126,-0.112c0.108,-0.089 0.22,-0.173 0.339,-0.248c0.285,-0.179 0.6,-0.31 0.928,-0.385c0.193,-0.044 0.387,-0.066 0.584,-0.074c0.084,-0.001 0.084,-0.001 0.168,0c0.112,0.005 0.224,0.013 0.335,0.028c0.306,0.044 0.605,0.134 0.883,0.268c0.712,0.343 1.266,0.966 1.528,1.709c0.029,-0.002 0.057,-0.004 0.086,-0.005c0.084,-0.001 0.084,-0.001 0.168,0c0.112,0.005 0.224,0.013 0.335,0.028c0.306,0.044 0.605,0.134 0.883,0.268c0.252,0.122 0.488,0.279 0.697,0.466c0.654,0.584 1.024,1.445 1,2.321c-0.009,0.309 -0.065,0.616 -0.167,0.907c-0.102,0.291 -0.249,0.566 -0.435,0.813c-0.085,0.112 -0.178,0.217 -0.276,0.317l-0.878,0.879c0.312,0.313 0.629,0.622 0.937,0.939c0.057,0.062 0.057,0.062 0.112,0.125c0.071,0.087 0.14,0.176 0.202,0.269c0.172,0.257 0.303,0.54 0.389,0.836c0.109,0.378 0.142,0.776 0.098,1.167c-0.041,0.362 -0.148,0.717 -0.316,1.041c-0.141,0.274 -0.325,0.526 -0.544,0.744c-0.401,0.402 -0.913,0.68 -1.463,0.805c0.113,0.501 0.198,1.008 0.255,1.519c0.052,0.459 0.077,0.919 0.086,1.381c0.007,1.101 0.007,2.202 0,3.303c-0.006,0.34 -0.025,0.679 -0.064,1.017c-0.09,0.782 -0.272,1.553 -0.542,2.293c-0.513,1.398 -1.341,2.676 -2.407,3.716c-1.038,1.014 -2.295,1.797 -3.663,2.279c-0.704,0.248 -1.436,0.416 -2.177,0.501c-0.338,0.039 -0.677,0.058 -1.017,0.064c-2.753,0.018 -5.505,0.018 -8.258,0c-0.34,-0.006 -0.679,-0.025 -1.017,-0.064c-0.741,-0.085 -1.473,-0.253 -2.177,-0.501c-1.368,-0.482 -2.625,-1.265 -3.663,-2.279c-1.066,-1.04 -1.894,-2.318 -2.407,-3.716c-0.27,-0.74 -0.452,-1.511 -0.542,-2.293c-0.039,-0.338 -0.058,-0.677 -0.064,-1.017c-0.007,-1.101 -0.007,-2.202 0,-3.303c0.009,-0.462 0.034,-0.922 0.086,-1.381c0.12,-1.079 0.367,-2.144 0.733,-3.166c0.617,-1.722 1.574,-3.319 2.802,-4.675c1.54,-1.702 3.497,-3.01 5.658,-3.784c1.022,-0.366 2.086,-0.613 3.165,-0.733c0.089,-0.01 0.178,-0.019 0.267,-0.027c0.071,-0.084 0.147,-0.164 0.227,-0.24c0.224,-0.212 0.481,-0.389 0.759,-0.523c0.278,-0.134 0.577,-0.224 0.883,-0.268c0.111,-0.015 0.223,-0.023 0.335,-0.028c0.084,-0.001 0.084,-0.001 0.168,0c0.029,0.001 0.057,0.003 0.086,0.005Z"/></g><g id="emoji"><path d="M28,17c0,-3.183 -1.264,-6.235 -3.515,-8.485c-2.25,-2.251 -5.302,-3.515 -8.485,-3.515c0,0 0,0 0,0c-3.183,0 -6.235,1.264 -8.485,3.515c-2.251,2.25 -3.515,5.302 -3.515,8.485c0,1.016 0,2.026 0,3c0,4.418 3.582,8 8,8c2.574,0 5.426,0 8,0c4.418,0 8,-3.582 8,-8c0,-0.974 0,-1.984 0,-3Z" style="fill:#fbc546;"/><path d="M21.077,20.001c0.4,0.015 0.792,0.099 1.158,0.264c0.822,0.372 1.446,1.113 1.671,1.986c0.075,0.294 0.106,0.599 0.09,0.903c-0.016,0.324 -0.085,0.644 -0.204,0.946c-0.133,0.337 -0.328,0.649 -0.571,0.917c-0.259,0.285 -0.573,0.52 -0.92,0.687c-0.384,0.185 -0.799,0.279 -1.224,0.295c-3.384,0.043 -6.77,0.043 -10.154,0c-0.425,-0.016 -0.84,-0.11 -1.224,-0.295c-0.347,-0.167 -0.661,-0.402 -0.92,-0.687c-0.243,-0.268 -0.438,-0.58 -0.571,-0.917c-0.119,-0.302 -0.188,-0.622 -0.204,-0.946c-0.016,-0.304 0.015,-0.609 0.09,-0.903c0.225,-0.873 0.849,-1.614 1.671,-1.986c0.366,-0.165 0.758,-0.249 1.158,-0.264c3.384,-0.043 6.77,-0.043 10.154,0Z" style="fill-rule:nonzero;"/><path d="M23,23c0,-1.105 -0.895,-2 -2,-2c-2.661,0 -7.339,0 -10,0c-1.105,0 -2,0.895 -2,2c0,1.105 0.895,2 2,2c2.661,0 7.339,0 10,0c1.105,0 2,-0.895 2,-2c0,0 0,0 0,0Z" style="fill:#fff;"/><rect x="11" y="20.5" width="1" height="5"/><rect x="14" y="20.5" width="1" height="5"/><rect x="20" y="20.5" width="1" height="5"/><rect x="17" y="20.5" width="1" height="5"/><path d="M9,14.984c0,-0.394 0.156,-0.771 0.435,-1.049c0.278,-0.279 0.655,-0.435 1.049,-0.435c0.005,0 0.011,0 0.016,0l2.5,2.5c0,0.168 0,0.335 0,0.5c0,0.53 -0.211,1.039 -0.586,1.414c-0.375,0.375 -0.884,0.586 -1.414,0.586c-0.53,0 -1.039,-0.211 -1.414,-0.586c-0.375,-0.375 -0.586,-0.884 -0.586,-1.414c0,-0.506 0,-1.041 0,-1.516Z"/><path d="M19,15.998l2.498,-2.498c0.006,0 0.012,0 0.018,0c0.394,0 0.771,0.156 1.049,0.435c0.279,0.278 0.435,0.655 0.435,1.049c0,0.475 0,1.01 0,1.516c0,0.53 -0.211,1.039 -0.586,1.414c-0.375,0.375 -0.884,0.586 -1.414,0.586c-0.53,0 -1.039,-0.211 -1.414,-0.586c-0.375,-0.375 -0.586,-0.884 -0.586,-1.414c0,-0.165 0,-0.334 0,-0.502Z"/><path d="M17.06,4.002l0.049,0.004l0.047,0.006l0.048,0.009l0.047,0.011l0.047,0.013l0.045,0.016l0.045,0.017l0.044,0.02l0.043,0.022l0.042,0.024l0.041,0.026l0.04,0.028l0.038,0.03l0.036,0.032l0.035,0.033l1.59,1.59l0.05,0.051l0.052,0.056l0.05,0.057l0.049,0.058l0.047,0.06l0.046,0.06l0.043,0.061l0.043,0.062l0.04,0.064l0.039,0.063l0.037,0.065l0.035,0.065l0.033,0.065l0.032,0.067l0.031,0.067l0.028,0.068l0.027,0.068l0.024,0.068l0.024,0.069l0.021,0.07l0.02,0.07l0.018,0.069l0.016,0.071l0.015,0.071l0.013,0.071l0.011,0.071l0.009,0.072l0.008,0.071l0.006,0.072l0.004,0.071l0.003,0.072l0.001,0.072l-0.001,0.072l-0.003,0.072l-0.004,0.071l-0.006,0.072l-0.008,0.071l-0.009,0.072l-0.011,0.071l-0.013,0.071l-0.015,0.071l-0.016,0.071l-0.018,0.069l-0.02,0.07l-0.021,0.07l-0.024,0.069l-0.024,0.068l-0.027,0.068l-0.028,0.068l-0.031,0.067l-0.032,0.067l-0.033,0.065l-0.035,0.065l-0.037,0.065l-0.039,0.064l-0.04,0.063l-0.043,0.062l-0.043,0.061l-0.046,0.06l-0.047,0.06l-0.049,0.058l-0.05,0.057l-0.052,0.056l-0.05,0.051l-1.59,1.59l-0.035,0.033l-0.036,0.032l-0.038,0.03l-0.04,0.028l-0.041,0.026l-0.042,0.024l-0.043,0.022l-0.044,0.02l-0.045,0.017l-0.045,0.016l-0.047,0.013l-0.047,0.011l-0.048,0.009l-0.047,0.006l-0.049,0.004l-0.048,0.002l-0.048,-0.001l-0.048,-0.003l-0.049,-0.005l-0.047,-0.007l-0.048,-0.01l-0.046,-0.012l-0.046,-0.015l-0.046,-0.016l-0.044,-0.019l-0.044,-0.021l-0.042,-0.023l-0.042,-0.025l-0.04,-0.027l-0.039,-0.029l-0.037,-0.031l-0.036,-0.032l-0.034,-0.034l-0.032,-0.036l-0.031,-0.037l-0.029,-0.039l-0.027,-0.04l-0.025,-0.041l-0.023,-0.043l-0.021,-0.044l-0.019,-0.044l-0.016,-0.046l-0.015,-0.046l-0.012,-0.046l-0.01,-0.048l-0.007,-0.047l-0.005,-0.049l-0.003,-0.048l-0.001,-0.048l0.002,-0.048l0.004,-0.049l0.006,-0.047l0.009,-0.048l0.011,-0.047l0.013,-0.046l0.016,-0.046l0.017,-0.045l0.02,-0.044l0.022,-0.043l0.024,-0.042l0.026,-0.041l0.028,-0.04l0.03,-0.038l0.032,-0.036l0.033,-0.035l1.581,-1.581l0.023,-0.024l0.018,-0.019l0.017,-0.019l0.016,-0.02l0.016,-0.019l0.015,-0.021l0.015,-0.02l0.014,-0.021l0.013,-0.02l0.013,-0.021l0.012,-0.022l0.011,-0.021l0.012,-0.022l0.01,-0.022l0.01,-0.022l0.009,-0.022l0.009,-0.023l0.008,-0.022l0.008,-0.024l0.007,-0.022l0.007,-0.024l0.006,-0.023l0.005,-0.023l0.005,-0.024l0.004,-0.024l0.004,-0.024l0.003,-0.024l0.003,-0.024l0.002,-0.024l0.001,-0.024l0.001,-0.024l0,-0.024l0,-0.024l-0.001,-0.024l-0.001,-0.024l-0.002,-0.024l-0.003,-0.024l-0.003,-0.024l-0.004,-0.024l-0.004,-0.024l-0.005,-0.024l-0.005,-0.023l-0.006,-0.023l-0.007,-0.024l-0.007,-0.022l-0.008,-0.024l-0.008,-0.022l-0.009,-0.023l-0.009,-0.022l-0.01,-0.022l-0.01,-0.022l-0.012,-0.022l-0.011,-0.021l-0.012,-0.022l-0.013,-0.021l-0.013,-0.02l-0.014,-0.021l-0.015,-0.02l-0.015,-0.02l-0.016,-0.02l-0.016,-0.02l-0.017,-0.019l-0.018,-0.019l-0.023,-0.024l-1.581,-1.581l-0.033,-0.035l-0.032,-0.036l-0.03,-0.038l-0.028,-0.04l-0.026,-0.041l-0.024,-0.042l-0.022,-0.043l-0.02,-0.044l-0.017,-0.045l-0.016,-0.046l-0.013,-0.046l-0.011,-0.047l-0.009,-0.048l-0.006,-0.047l-0.004,-0.049l-0.002,-0.048l0.001,-0.048l0.003,-0.048l0.005,-0.049l0.007,-0.047l0.01,-0.048l0.012,-0.046l0.015,-0.046l0.016,-0.046l0.019,-0.044l0.021,-0.044l0.023,-0.043l0.025,-0.041l0.027,-0.04l0.029,-0.039l0.031,-0.037l0.032,-0.036l0.034,-0.034l0.036,-0.032l0.037,-0.031l0.039,-0.029l0.04,-0.027l0.042,-0.025l0.042,-0.023l0.044,-0.021l0.044,-0.019l0.046,-0.016l0.046,-0.015l0.046,-0.012l0.048,-0.01l0.047,-0.007l0.049,-0.005l0.048,-0.003l0.048,-0.001l0.048,0.002Z" style="fill:#f00;"/><path d="M29.036,4.001l0.048,0.003l0.049,0.005l0.047,0.007l0.048,0.01l0.046,0.012l0.047,0.015l0.045,0.016l0.044,0.019l0.044,0.021l0.043,0.023l0.041,0.025l0.04,0.027l0.039,0.029l0.037,0.031l0.036,0.032l0.034,0.034l0.032,0.036l0.031,0.037l0.029,0.039l0.027,0.04l0.025,0.041l0.023,0.043l0.021,0.044l0.019,0.044l0.016,0.046l0.015,0.046l0.012,0.046l0.01,0.048l0.007,0.047l0.005,0.049l0.003,0.048l0.001,0.048l-0.002,0.048l-0.004,0.049l-0.006,0.047l-0.009,0.048l-0.011,0.047l-0.013,0.047l-0.016,0.045l-0.017,0.045l-0.02,0.044l-0.022,0.043l-0.024,0.042l-0.026,0.041l-0.028,0.04l-0.03,0.038l-0.032,0.036l-0.033,0.035l-1.581,1.581l-0.023,0.024l-0.018,0.019l-0.017,0.019l-0.016,0.02l-0.016,0.02l-0.015,0.02l-0.014,0.02l-0.014,0.02l-0.014,0.022l-0.013,0.021l-0.012,0.021l-0.011,0.021l-0.011,0.022l-0.011,0.022l-0.01,0.022l-0.009,0.022l-0.009,0.023l-0.008,0.022l-0.008,0.023l-0.007,0.023l-0.007,0.024l-0.006,0.023l-0.005,0.024l-0.005,0.023l-0.004,0.024l-0.004,0.024l-0.003,0.024l-0.003,0.024l-0.002,0.024l-0.001,0.024l-0.001,0.024l-0.001,0.024l0.001,0.024l0.001,0.024l0.001,0.024l0.002,0.024l0.003,0.024l0.003,0.024l0.004,0.024l0.004,0.024l0.005,0.023l0.005,0.024l0.006,0.023l0.007,0.024l0.007,0.023l0.008,0.023l0.008,0.022l0.009,0.023l0.009,0.022l0.01,0.022l0.01,0.022l0.012,0.022l0.011,0.021l0.012,0.021l0.013,0.021l0.014,0.022l0.014,0.02l0.014,0.02l0.015,0.02l0.016,0.02l0.016,0.02l0.017,0.019l0.018,0.019l0.023,0.024l1.581,1.581l0.033,0.035l0.032,0.036l0.03,0.038l0.028,0.04l0.026,0.041l0.024,0.042l0.022,0.043l0.02,0.044l0.017,0.045l0.016,0.045l0.013,0.047l0.011,0.047l0.009,0.048l0.006,0.047l0.004,0.049l0.002,0.048l-0.001,0.048l-0.003,0.048l-0.005,0.049l-0.007,0.047l-0.01,0.048l-0.012,0.046l-0.015,0.046l-0.016,0.046l-0.019,0.044l-0.021,0.044l-0.023,0.043l-0.025,0.041l-0.027,0.04l-0.029,0.039l-0.031,0.037l-0.032,0.036l-0.034,0.034l-0.036,0.032l-0.037,0.031l-0.039,0.029l-0.04,0.027l-0.041,0.025l-0.043,0.023l-0.044,0.021l-0.044,0.019l-0.045,0.016l-0.047,0.015l-0.046,0.012l-0.048,0.01l-0.047,0.007l-0.049,0.005l-0.048,0.003l-0.048,0.001l-0.048,-0.002l-0.049,-0.004l-0.047,-0.006l-0.048,-0.009l-0.047,-0.011l-0.046,-0.013l-0.046,-0.016l-0.045,-0.017l-0.044,-0.02l-0.043,-0.022l-0.042,-0.024l-0.041,-0.026l-0.04,-0.028l-0.038,-0.03l-0.036,-0.032l-0.035,-0.033l-1.59,-1.59l-0.05,-0.051l-0.052,-0.056l-0.05,-0.057l-0.049,-0.059l-0.047,-0.059l-0.046,-0.06l-0.044,-0.062l-0.042,-0.062l-0.04,-0.062l-0.039,-0.064l-0.037,-0.065l-0.035,-0.065l-0.034,-0.066l-0.031,-0.066l-0.03,-0.067l-0.029,-0.067l-0.027,-0.069l-0.025,-0.068l-0.023,-0.069l-0.021,-0.07l-0.02,-0.07l-0.018,-0.07l-0.016,-0.07l-0.015,-0.071l-0.013,-0.071l-0.011,-0.071l-0.009,-0.072l-0.008,-0.071l-0.006,-0.072l-0.004,-0.071l-0.003,-0.072l-0.001,-0.072l0.001,-0.072l0.003,-0.072l0.004,-0.071l0.006,-0.072l0.008,-0.071l0.009,-0.072l0.011,-0.071l0.013,-0.071l0.015,-0.071l0.016,-0.07l0.018,-0.07l0.02,-0.07l0.021,-0.07l0.024,-0.069l0.024,-0.068l0.027,-0.069l0.029,-0.067l0.03,-0.067l0.031,-0.066l0.034,-0.066l0.035,-0.065l0.037,-0.065l0.039,-0.064l0.04,-0.062l0.042,-0.062l0.044,-0.062l0.046,-0.06l0.047,-0.059l0.049,-0.059l0.05,-0.057l0.052,-0.056l0.05,-0.051l1.59,-1.59l0.035,-0.033l0.036,-0.032l0.038,-0.03l0.04,-0.028l0.041,-0.026l0.042,-0.024l0.043,-0.022l0.044,-0.02l0.045,-0.017l0.046,-0.016l0.046,-0.013l0.047,-0.011l0.048,-0.009l0.047,-0.006l0.049,-0.004l0.048,-0.002l0.048,0.001Z" style="fill:#f00;"/><path d="M23.072,9.829l0.072,0.003l0.071,0.004l0.072,0.006l0.071,0.008l0.072,0.009l0.071,0.011l0.071,0.013l0.071,0.015l0.07,0.016l0.071,0.018l0.069,0.02l0.07,0.021l0.069,0.024l0.068,0.024l0.069,0.027l0.067,0.028l0.067,0.031l0.067,0.031l0.065,0.034l0.065,0.035l0.065,0.037l0.064,0.039l0.062,0.04l0.063,0.042l0.061,0.044l0.06,0.046l0.06,0.047l0.058,0.049l0.057,0.05l0.056,0.052l0.051,0.05l1.59,1.59l0.033,0.035l0.032,0.036l0.03,0.038l0.028,0.04l0.026,0.041l0.024,0.042l0.022,0.043l0.02,0.044l0.017,0.045l0.016,0.045l0.013,0.047l0.011,0.047l0.009,0.048l0.006,0.047l0.004,0.049l0.002,0.048l-0.001,0.048l-0.003,0.048l-0.005,0.049l-0.007,0.047l-0.01,0.048l-0.012,0.046l-0.015,0.046l-0.016,0.046l-0.019,0.044l-0.021,0.044l-0.023,0.043l-0.025,0.041l-0.027,0.04l-0.029,0.039l-0.031,0.037l-0.032,0.036l-0.034,0.034l-0.036,0.032l-0.037,0.031l-0.039,0.029l-0.04,0.027l-0.041,0.025l-0.043,0.023l-0.044,0.021l-0.044,0.019l-0.045,0.016l-0.047,0.015l-0.046,0.012l-0.048,0.01l-0.047,0.007l-0.049,0.005l-0.048,0.003l-0.048,0.001l-0.048,-0.002l-0.049,-0.004l-0.047,-0.006l-0.048,-0.009l-0.047,-0.011l-0.046,-0.013l-0.046,-0.016l-0.045,-0.017l-0.044,-0.02l-0.043,-0.022l-0.042,-0.024l-0.041,-0.026l-0.04,-0.028l-0.038,-0.03l-0.036,-0.032l-0.035,-0.033l-1.581,-1.581l-0.024,-0.023l-0.019,-0.018l-0.019,-0.017l-0.02,-0.016l-0.02,-0.016l-0.02,-0.015l-0.02,-0.015l-0.021,-0.013l-0.021,-0.014l-0.02,-0.013l-0.022,-0.012l-0.021,-0.012l-0.022,-0.011l-0.022,-0.01l-0.022,-0.01l-0.022,-0.009l-0.023,-0.009l-0.022,-0.008l-0.023,-0.008l-0.023,-0.007l-0.024,-0.007l-0.023,-0.006l-0.024,-0.005l-0.023,-0.005l-0.024,-0.004l-0.024,-0.004l-0.024,-0.003l-0.024,-0.003l-0.024,-0.002l-0.024,-0.001l-0.024,-0.001l-0.024,-0.001l-0.024,0.001l-0.024,0.001l-0.024,0.001l-0.024,0.002l-0.024,0.003l-0.024,0.003l-0.024,0.004l-0.024,0.004l-0.023,0.005l-0.024,0.005l-0.023,0.006l-0.024,0.007l-0.023,0.007l-0.023,0.008l-0.022,0.008l-0.023,0.009l-0.022,0.009l-0.022,0.01l-0.022,0.01l-0.022,0.011l-0.021,0.012l-0.022,0.012l-0.021,0.013l-0.02,0.014l-0.021,0.013l-0.02,0.015l-0.02,0.015l-0.02,0.016l-0.02,0.016l-0.019,0.017l-0.019,0.018l-0.024,0.023l-1.581,1.581l-0.035,0.033l-0.036,0.032l-0.038,0.03l-0.04,0.028l-0.041,0.026l-0.042,0.024l-0.043,0.022l-0.044,0.02l-0.045,0.017l-0.045,0.016l-0.047,0.013l-0.047,0.011l-0.048,0.009l-0.047,0.006l-0.049,0.004l-0.048,0.002l-0.048,-0.001l-0.048,-0.003l-0.049,-0.005l-0.047,-0.007l-0.048,-0.01l-0.046,-0.012l-0.046,-0.015l-0.046,-0.016l-0.044,-0.019l-0.044,-0.021l-0.042,-0.023l-0.042,-0.025l-0.04,-0.027l-0.039,-0.029l-0.037,-0.031l-0.036,-0.032l-0.034,-0.034l-0.032,-0.036l-0.031,-0.037l-0.029,-0.039l-0.027,-0.04l-0.025,-0.041l-0.023,-0.043l-0.021,-0.044l-0.019,-0.044l-0.016,-0.046l-0.015,-0.046l-0.012,-0.046l-0.01,-0.048l-0.007,-0.047l-0.005,-0.049l-0.003,-0.048l-0.001,-0.048l0.002,-0.048l0.004,-0.049l0.006,-0.047l0.009,-0.048l0.011,-0.047l0.013,-0.046l0.016,-0.046l0.017,-0.045l0.02,-0.044l0.022,-0.043l0.024,-0.042l0.026,-0.041l0.028,-0.04l0.03,-0.038l0.032,-0.036l0.033,-0.035l1.59,-1.59l0.051,-0.05l0.056,-0.052l0.057,-0.05l0.059,-0.049l0.059,-0.047l0.06,-0.046l0.061,-0.044l0.063,-0.042l0.062,-0.04l0.064,-0.039l0.064,-0.037l0.066,-0.035l0.066,-0.034l0.066,-0.031l0.067,-0.03l0.068,-0.029l0.068,-0.027l0.068,-0.024l0.069,-0.024l0.07,-0.021l0.069,-0.02l0.071,-0.018l0.07,-0.016l0.071,-0.015l0.071,-0.013l0.071,-0.011l0.072,-0.009l0.071,-0.008l0.072,-0.006l0.071,-0.004l0.072,-0.003l0.072,-0.001l0.072,0.001Z" style="fill:#f00;"/><path d="M26.036,2.001l0.048,0.003l0.049,0.005l0.047,0.007l0.048,0.01l0.046,0.012l0.047,0.015l0.045,0.016l0.044,0.019l0.044,0.021l0.043,0.023l0.041,0.025l0.04,0.027l0.039,0.029l0.037,0.031l0.036,0.032l0.034,0.034l0.032,0.036l0.031,0.037l0.029,0.039l0.027,0.04l0.025,0.041l0.023,0.043l0.021,0.044l0.019,0.044l0.016,0.046l0.015,0.046l0.012,0.046l0.01,0.048l0.007,0.047l0.005,0.049l0.003,0.048l0.001,0.048l-0.002,0.048l-0.004,0.049l-0.006,0.047l-0.009,0.048l-0.011,0.047l-0.013,0.047l-0.016,0.045l-0.017,0.045l-0.02,0.044l-0.022,0.043l-0.024,0.042l-0.026,0.041l-0.028,0.04l-0.03,0.038l-0.032,0.036l-0.033,0.035l-1.59,1.59l-0.051,0.05l-0.056,0.052l-0.057,0.05l-0.058,0.049l-0.06,0.047l-0.06,0.046l-0.061,0.044l-0.063,0.042l-0.062,0.04l-0.064,0.039l-0.065,0.037l-0.065,0.035l-0.066,0.034l-0.066,0.031l-0.067,0.031l-0.068,0.028l-0.068,0.027l-0.068,0.024l-0.069,0.024l-0.07,0.021l-0.069,0.02l-0.071,0.018l-0.07,0.016l-0.071,0.015l-0.071,0.013l-0.071,0.011l-0.072,0.009l-0.071,0.008l-0.072,0.006l-0.071,0.004l-0.072,0.003l-0.072,0.001l-0.072,-0.001l-0.072,-0.003l-0.071,-0.004l-0.072,-0.006l-0.071,-0.008l-0.072,-0.009l-0.071,-0.011l-0.071,-0.013l-0.071,-0.015l-0.07,-0.016l-0.071,-0.018l-0.069,-0.02l-0.07,-0.021l-0.069,-0.024l-0.068,-0.024l-0.068,-0.027l-0.068,-0.029l-0.067,-0.03l-0.066,-0.031l-0.066,-0.034l-0.066,-0.035l-0.064,-0.037l-0.064,-0.039l-0.062,-0.04l-0.063,-0.042l-0.061,-0.044l-0.06,-0.046l-0.059,-0.047l-0.059,-0.049l-0.057,-0.05l-0.056,-0.052l-0.051,-0.05l-1.59,-1.59l-0.033,-0.035l-0.032,-0.036l-0.03,-0.038l-0.028,-0.04l-0.026,-0.041l-0.024,-0.042l-0.022,-0.043l-0.02,-0.044l-0.017,-0.045l-0.016,-0.046l-0.013,-0.046l-0.011,-0.047l-0.009,-0.048l-0.006,-0.047l-0.004,-0.049l-0.002,-0.048l0.001,-0.048l0.003,-0.048l0.005,-0.049l0.007,-0.047l0.01,-0.048l0.012,-0.046l0.015,-0.046l0.016,-0.046l0.019,-0.044l0.021,-0.044l0.023,-0.043l0.025,-0.041l0.027,-0.04l0.029,-0.039l0.031,-0.037l0.032,-0.036l0.034,-0.034l0.036,-0.032l0.037,-0.031l0.039,-0.029l0.04,-0.027l0.042,-0.025l0.042,-0.023l0.044,-0.021l0.044,-0.019l0.046,-0.016l0.046,-0.015l0.046,-0.012l0.048,-0.01l0.047,-0.007l0.049,-0.005l0.048,-0.003l0.048,-0.001l0.048,0.002l0.049,0.004l0.047,0.006l0.048,0.009l0.047,0.011l0.047,0.013l0.045,0.016l0.045,0.017l0.044,0.02l0.043,0.022l0.042,0.024l0.041,0.026l0.04,0.028l0.038,0.03l0.036,0.032l0.035,0.033l1.581,1.581l0.024,0.023l0.019,0.018l0.019,0.017l0.02,0.016l0.02,0.016l0.02,0.015l0.02,0.015l0.02,0.013l0.021,0.014l0.021,0.013l0.022,0.012l0.021,0.012l0.022,0.01l0.022,0.011l0.022,0.01l0.022,0.009l0.023,0.009l0.022,0.008l0.023,0.008l0.024,0.007l0.023,0.007l0.023,0.006l0.023,0.005l0.024,0.005l0.024,0.004l0.024,0.004l0.024,0.003l0.024,0.003l0.024,0.002l0.024,0.001l0.024,0.001l0.024,0l0.024,0l0.024,-0.001l0.024,-0.001l0.024,-0.002l0.024,-0.003l0.024,-0.003l0.024,-0.004l0.024,-0.004l0.024,-0.005l0.023,-0.005l0.023,-0.006l0.024,-0.007l0.023,-0.007l0.023,-0.008l0.022,-0.008l0.023,-0.009l0.022,-0.009l0.022,-0.01l0.022,-0.01l0.022,-0.011l0.021,-0.012l0.022,-0.012l0.021,-0.013l0.02,-0.014l0.021,-0.013l0.02,-0.015l0.02,-0.015l0.02,-0.016l0.02,-0.016l0.019,-0.017l0.019,-0.018l0.024,-0.023l1.581,-1.581l0.035,-0.033l0.036,-0.032l0.038,-0.03l0.04,-0.028l0.041,-0.026l0.042,-0.024l0.043,-0.022l0.044,-0.02l0.045,-0.017l0.046,-0.016l0.046,-0.013l0.047,-0.011l0.048,-0.009l0.047,-0.006l0.049,-0.004l0.048,-0.002l0.048,0.001Z" style="fill:#f00;"/></g></svg>