<?xml version="1.0" encoding="UTF-8" standalone="no"?><!DOCTYPE svg PUBLIC "-//W3C//DTD SVG 1.1//EN" "http://www.w3.org/Graphics/SVG/1.1/DTD/svg11.dtd"><svg width="100%" height="100%" viewBox="0 0 32 32" version="1.1" xmlns="http://www.w3.org/2000/svg" xmlns:xlink="http://www.w3.org/1999/xlink" xml:space="preserve" style="fill-rule:evenodd;clip-rule:evenodd;stroke-linejoin:round;stroke-miterlimit:1.41421;">
<metadata>
<rdf:RDF xmlns:cc="http://web.resource.org/cc/"
         xmlns:rdf="http://www.w3.org/1999/02/22-rdf-syntax-ns#"
         xmlns:dc = "http://purl.org/dc/elements/1.1/"
         >

     <rdf:Description rdf:about="">
       <dc:title>Mutant Standard emoji v0.2.3</dc:title>
     </rdf:Description>

    <cc:work rdf:about="">
        <cc:license rdf:resource="http://creativecommons.org/licenses/by-nc-sa/4.0/"/>
        <cc:attributionName>Dzuk</cc:attributionName>
        <cc:attributionURL>http://mutant.tech/</cc:attributionURL>
    </cc:work>

</rdf:RDF>
</metadata>
<rect id="vomiting" x="0" y="0" width="32" height="32" style="fill:none;"/><clipPath id="_clip1"><rect x="0" y="0" width="32" height="32"/></clipPath><g clip-path="url(#_clip1)"><g id="outline"><path d="M8.3,28.293c-1.371,-0.547 -2.615,-1.4 -3.621,-2.481c-0.933,-1.003 -1.658,-2.196 -2.113,-3.489c-0.248,-0.704 -0.416,-1.436 -0.501,-2.177c-0.039,-0.338 -0.058,-0.677 -0.064,-1.017c-0.007,-1.101 -0.007,-2.202 0,-3.303c0.009,-0.462 0.034,-0.922 0.086,-1.381c0.12,-1.079 0.367,-2.143 0.733,-3.165c0.695,-1.942 1.822,-3.721 3.28,-5.18c1.499,-1.498 3.337,-2.647 5.341,-3.337c0.972,-0.335 1.982,-0.562 3.004,-0.676c0.459,-0.052 0.919,-0.077 1.381,-0.086c0.174,-0.001 0.174,-0.001 0.348,0c0.462,0.009 0.922,0.034 1.381,0.086c1.022,0.114 2.032,0.341 3.004,0.676c2.004,0.69 3.842,1.839 5.341,3.337c1.458,1.459 2.585,3.238 3.28,5.18c0.366,1.022 0.613,2.086 0.733,3.165c0.052,0.459 0.077,0.919 0.086,1.381c0.007,1.101 0.007,2.202 0,3.303c-0.006,0.34 -0.025,0.679 -0.064,1.017c-0.085,0.741 -0.253,1.473 -0.501,2.177c-0.455,1.293 -1.18,2.486 -2.113,3.489c-1.006,1.081 -2.25,1.934 -3.621,2.48c0.013,0.035 0.025,0.07 0.037,0.105c0.12,0.354 0.2,0.722 0.237,1.094c0.017,0.165 0.024,0.331 0.026,0.496l0,2.013l-16,0l0,-2.014c0.007,-0.53 0.086,-1.054 0.253,-1.558c0.015,-0.045 0.031,-0.091 0.047,-0.135Z"/></g><g id="emoji"><path d="M28,16c0,-3.183 -1.264,-6.235 -3.515,-8.485c-2.25,-2.251 -5.302,-3.515 -8.485,-3.515c0,0 0,0 0,0c-3.183,0 -6.235,1.264 -8.485,3.515c-2.251,2.25 -3.515,5.302 -3.515,8.485c0,1.016 0,2.026 0,3c0,4.418 3.582,8 8,8c2.574,0 5.426,0 8,0c4.418,0 8,-3.582 8,-8c0,-0.974 0,-1.984 0,-3Z" style="fill:#77b84c;"/><clipPath id="_clip2"><path d="M28,16c0,-3.183 -1.264,-6.235 -3.515,-8.485c-2.25,-2.251 -5.302,-3.515 -8.485,-3.515c0,0 0,0 0,0c-3.183,0 -6.235,1.264 -8.485,3.515c-2.251,2.25 -3.515,5.302 -3.515,8.485c0,1.016 0,2.026 0,3c0,4.418 3.582,8 8,8c2.574,0 5.426,0 8,0c4.418,0 8,-3.582 8,-8c0,-0.974 0,-1.984 0,-3Z"/></clipPath><g clip-path="url(#_clip2)"><path d="M11,25.408l0,-2.408l10,0l0,2.423c0.566,0.248 1.086,0.601 1.531,1.046c0.941,0.941 1.469,2.217 1.469,3.547l0,1.967l-16.033,0c0,0 0,-0.855 0,-1.967c0,-1.33 0.528,-2.606 1.469,-3.547c0.454,-0.454 0.986,-0.812 1.564,-1.061Z" style="fill:#2f4d00;"/></g><path d="M23.276,22.553c0.155,0.31 0.139,0.678 -0.043,0.973c-0.183,0.295 -0.504,0.474 -0.851,0.474c-3.068,0 -9.696,0 -12.764,0c-0.347,0 -0.668,-0.179 -0.851,-0.474c-0.182,-0.295 -0.198,-0.663 -0.043,-0.973c0.228,-0.456 0.491,-0.984 0.764,-1.529c1.233,-2.466 3.754,-4.024 6.511,-4.024c0.001,0 0.001,0 0.002,0c2.757,0 5.278,1.558 6.511,4.024c0.273,0.545 0.536,1.073 0.764,1.529Z"/><path d="M9.03,11l0.04,0.002l0.039,0.004l0.04,0.005l0.039,0.007l0.039,0.008l0.038,0.01l0.038,0.011l0.038,0.013l0.037,0.014l0.037,0.016l0.035,0.017l0.036,0.019l0.034,0.02l0.034,0.021l0.032,0.023l0.032,0.024l0.031,0.025l0.029,0.026l0.029,0.028l3.81,3.81l-0.114,0.484l-4.087,1.362l-0.038,0.012l-0.038,0.01l-0.039,0.009l-0.039,0.007l-0.039,0.005l-0.04,0.005l-0.04,0.002l-0.039,0.001l-0.04,-0.001l-0.04,-0.002l-0.039,-0.004l-0.04,-0.005l-0.039,-0.007l-0.039,-0.008l-0.038,-0.011l-0.038,-0.011l-0.038,-0.013l-0.037,-0.015l-0.036,-0.016l-0.036,-0.017l-0.035,-0.019l-0.034,-0.02l-0.034,-0.022l-0.032,-0.023l-0.032,-0.024l-0.03,-0.025l-0.03,-0.027l-0.029,-0.027l-0.027,-0.029l-0.026,-0.03l-0.025,-0.031l-0.024,-0.032l-0.022,-0.033l-0.021,-0.033l-0.02,-0.035l-0.019,-0.035l-0.017,-0.036l-0.015,-0.037l-0.014,-0.037l-0.013,-0.038l-0.011,-0.038l-0.009,-0.038l-0.008,-0.039l-0.007,-0.04l-0.005,-0.039l-0.003,-0.04l-0.002,-0.04l0,-0.039l0.002,-0.04l0.003,-0.04l0.004,-0.039l0.006,-0.039l0.008,-0.039l0.009,-0.039l0.011,-0.038l0.012,-0.038l0.014,-0.038l0.015,-0.036l0.017,-0.036l0.018,-0.036l0.02,-0.034l0.021,-0.034l0.022,-0.033l0.023,-0.032l0.025,-0.031l0.026,-0.03l0.027,-0.029l0.029,-0.028l0.029,-0.027l0.03,-0.026l0.032,-0.024l0.032,-0.023l0.034,-0.022l0.034,-0.021l0.034,-0.019l0.036,-0.017l0.036,-0.017l0.037,-0.014l0.038,-0.014l1.465,-0.488l-1.856,-1.856l-0.028,-0.029l-0.026,-0.029l-0.025,-0.031l-0.024,-0.032l-0.023,-0.032l-0.021,-0.034l-0.02,-0.034l-0.019,-0.036l-0.017,-0.035l-0.016,-0.037l-0.014,-0.037l-0.013,-0.038l-0.011,-0.038l-0.01,-0.038l-0.008,-0.039l-0.007,-0.039l-0.005,-0.04l-0.004,-0.039l-0.002,-0.04l0,-0.04l0.001,-0.04l0.003,-0.039l0.004,-0.04l0.006,-0.039l0.008,-0.039l0.009,-0.039l0.01,-0.038l0.012,-0.038l0.014,-0.038l0.015,-0.036l0.016,-0.037l0.018,-0.035l0.02,-0.035l0.02,-0.034l0.022,-0.033l0.024,-0.032l0.024,-0.031l0.026,-0.031l0.027,-0.029l0.028,-0.028l0.029,-0.027l0.031,-0.026l0.031,-0.024l0.032,-0.024l0.033,-0.022l0.034,-0.02l0.035,-0.02l0.035,-0.018l0.037,-0.016l0.036,-0.015l0.038,-0.014l0.038,-0.012l0.038,-0.01l0.039,-0.009l0.039,-0.008l0.039,-0.006l0.04,-0.004l0.039,-0.003l0.04,-0.001l0.04,0Z"/><path d="M23.05,11.001l0.039,0.003l0.04,0.004l0.039,0.006l0.039,0.008l0.039,0.009l0.038,0.01l0.038,0.012l0.038,0.014l0.036,0.015l0.037,0.016l0.035,0.018l0.035,0.02l0.034,0.02l0.033,0.022l0.032,0.024l0.031,0.024l0.031,0.026l0.029,0.027l0.028,0.028l0.027,0.029l0.026,0.031l0.024,0.031l0.024,0.032l0.022,0.033l0.02,0.034l0.02,0.035l0.018,0.035l0.016,0.037l0.015,0.036l0.014,0.038l0.012,0.038l0.01,0.038l0.009,0.039l0.008,0.039l0.006,0.039l0.004,0.04l0.003,0.039l0.001,0.04l0,0.04l-0.002,0.04l-0.004,0.039l-0.005,0.04l-0.007,0.039l-0.008,0.039l-0.01,0.038l-0.011,0.038l-0.013,0.038l-0.014,0.037l-0.016,0.037l-0.017,0.035l-0.019,0.036l-0.02,0.034l-0.021,0.034l-0.023,0.032l-0.024,0.032l-0.025,0.031l-0.026,0.029l-0.028,0.029l-1.856,1.856l1.465,0.488l0.038,0.014l0.037,0.014l0.036,0.017l0.036,0.017l0.034,0.019l0.034,0.021l0.034,0.022l0.032,0.023l0.032,0.024l0.03,0.026l0.029,0.027l0.029,0.028l0.027,0.029l0.026,0.03l0.025,0.031l0.023,0.032l0.022,0.033l0.021,0.034l0.02,0.034l0.018,0.036l0.017,0.036l0.015,0.036l0.014,0.038l0.012,0.038l0.011,0.038l0.009,0.039l0.008,0.039l0.006,0.039l0.004,0.039l0.003,0.04l0.002,0.04l0,0.039l-0.002,0.04l-0.003,0.04l-0.005,0.039l-0.007,0.04l-0.008,0.039l-0.009,0.038l-0.011,0.038l-0.013,0.038l-0.014,0.037l-0.015,0.037l-0.017,0.036l-0.019,0.035l-0.02,0.035l-0.021,0.033l-0.022,0.033l-0.024,0.032l-0.025,0.031l-0.026,0.03l-0.027,0.029l-0.029,0.027l-0.03,0.027l-0.03,0.025l-0.032,0.024l-0.032,0.023l-0.034,0.022l-0.034,0.02l-0.035,0.019l-0.036,0.017l-0.036,0.016l-0.037,0.015l-0.038,0.013l-0.038,0.011l-0.038,0.011l-0.039,0.008l-0.039,0.007l-0.04,0.005l-0.039,0.004l-0.04,0.002l-0.04,0.001l-0.039,-0.001l-0.04,-0.002l-0.04,-0.005l-0.039,-0.005l-0.039,-0.007l-0.039,-0.009l-0.038,-0.01l-0.038,-0.012l-4.087,-1.362l-0.114,-0.484l3.81,-3.81l0.029,-0.028l0.029,-0.026l0.031,-0.025l0.032,-0.024l0.032,-0.023l0.034,-0.021l0.034,-0.02l0.036,-0.019l0.035,-0.017l0.037,-0.016l0.037,-0.014l0.038,-0.013l0.038,-0.011l0.038,-0.01l0.039,-0.008l0.039,-0.007l0.04,-0.005l0.039,-0.004l0.04,-0.002l0.04,0l0.04,0.001Z"/><path d="M13,27l0,-5l6,0l0,5c1.657,0 3,1.343 3,3l0,0l-3,0l-6,0l-3,0c0,0 0,-0.001 0,-0.002c0,-0.795 0.316,-1.558 0.878,-2.12c0.562,-0.562 1.325,-0.878 2.12,-0.878l0.002,0Z" style="fill:#cbc54f;"/><path d="M13,21l6,0l0,2l-1,0l0,3c0,0.265 -0.105,0.52 -0.293,0.707c-0.187,0.188 -0.442,0.293 -0.707,0.293c-0.265,0 -0.52,-0.105 -0.707,-0.293c-0.188,-0.187 -0.293,-0.442 -0.293,-0.707l0,-2l-1,0l0,1c0,0.265 -0.105,0.52 -0.293,0.707c-0.187,0.188 -0.442,0.293 -0.707,0.293c-0.265,0 -0.52,-0.105 -0.707,-0.293c-0.188,-0.187 -0.293,-0.442 -0.293,-0.707l0,-4Z" style="fill:#8c8729;"/></g></g></svg>