<?xml version="1.0" encoding="UTF-8" standalone="no"?><!DOCTYPE svg PUBLIC "-//W3C//DTD SVG 1.1//EN" "http://www.w3.org/Graphics/SVG/1.1/DTD/svg11.dtd"><svg width="100%" height="100%" viewBox="0 0 32 32" version="1.1" xmlns="http://www.w3.org/2000/svg" xmlns:xlink="http://www.w3.org/1999/xlink" xml:space="preserve" style="fill-rule:evenodd;clip-rule:evenodd;stroke-linejoin:round;stroke-miterlimit:1.41421;">
<metadata>
<rdf:RDF xmlns:cc="http://web.resource.org/cc/"
         xmlns:rdf="http://www.w3.org/1999/02/22-rdf-syntax-ns#"
         xmlns:dc = "http://purl.org/dc/elements/1.1/"
         >

     <rdf:Description rdf:about="">
       <dc:title>Mutant Standard emoji v0.2.3</dc:title>
     </rdf:Description>

    <cc:work rdf:about="">
        <cc:license rdf:resource="http://creativecommons.org/licenses/by-nc-sa/4.0/"/>
        <cc:attributionName>Dzuk</cc:attributionName>
        <cc:attributionURL>http://mutant.tech/</cc:attributionURL>
    </cc:work>

</rdf:RDF>
</metadata>
<rect id="weary" x="0" y="0.033" width="32" height="32" style="fill:none;"/><g id="outline"><path d="M16.174,3.034c0.462,0.009 0.922,0.035 1.381,0.086c1.022,0.114 2.032,0.342 3.004,0.677c1.949,0.671 3.741,1.775 5.217,3.215c1.518,1.48 2.689,3.305 3.404,5.301c0.366,1.022 0.613,2.086 0.733,3.165c0.052,0.459 0.077,0.92 0.086,1.381c0.005,0.772 0.005,1.544 0,2.316c-0.007,0.374 -0.028,0.747 -0.071,1.119c-0.093,0.816 -0.278,1.62 -0.55,2.395c-0.545,1.546 -1.44,2.963 -2.6,4.122c-1.127,1.128 -2.498,2.006 -3.996,2.554c-0.813,0.298 -1.661,0.498 -2.521,0.597c-0.372,0.042 -0.745,0.063 -1.119,0.071c-2.095,0.013 -4.189,0.013 -6.284,0c-0.374,-0.008 -0.747,-0.029 -1.119,-0.071c-0.86,-0.099 -1.708,-0.299 -2.521,-0.597c-1.498,-0.548 -2.869,-1.426 -3.996,-2.554c-1.16,-1.159 -2.055,-2.576 -2.6,-4.122c-0.272,-0.775 -0.457,-1.579 -0.55,-2.395c-0.043,-0.372 -0.064,-0.745 -0.071,-1.119c-0.005,-0.772 -0.005,-1.544 0,-2.316c0.009,-0.461 0.034,-0.922 0.086,-1.381c0.12,-1.079 0.367,-2.143 0.733,-3.165c0.617,-1.723 1.574,-3.32 2.802,-4.676c1.578,-1.744 3.595,-3.074 5.819,-3.84c0.972,-0.335 1.982,-0.563 3.004,-0.677c0.459,-0.051 0.919,-0.077 1.381,-0.086c0.174,-0.001 0.174,-0.001 0.348,0Z" style="fill-rule:nonzero;"/></g><g id="emoji"><path d="M28,17.033c0,-3.182 -1.264,-6.234 -3.515,-8.485c-2.25,-2.25 -5.302,-3.515 -8.485,-3.515c0,0 0,0 0,0c-3.183,0 -6.235,1.265 -8.485,3.515c-2.251,2.251 -3.515,5.303 -3.515,8.485c0,0.672 0,1.342 0,2c0,4.971 4.029,9 9,9c1.962,0 4.038,0 6,0c4.971,0 9,-4.029 9,-9c0,-0.658 0,-1.328 0,-2Z" style="fill:#fbc546;"/><path d="M28.236,2.017c1.1,2.2 2.22,4.389 3.299,6.6c0.038,0.081 0.073,0.162 0.108,0.245c0.075,0.191 0.14,0.386 0.19,0.585c0.112,0.448 0.154,0.912 0.125,1.373c-0.039,0.6 -0.201,1.192 -0.473,1.729c-0.265,0.521 -0.633,0.989 -1.076,1.369c-0.421,0.362 -0.909,0.643 -1.432,0.826c-0.508,0.178 -1.047,0.262 -1.584,0.249c-0.466,-0.011 -0.93,-0.095 -1.37,-0.249c-0.381,-0.133 -0.744,-0.319 -1.076,-0.55c-0.531,-0.37 -0.981,-0.857 -1.307,-1.416c-0.361,-0.62 -0.569,-1.327 -0.602,-2.044c-0.023,-0.49 0.036,-0.985 0.175,-1.456c0.066,-0.227 0.152,-0.447 0.252,-0.661l0.034,-0.071l3.265,-6.529c0.491,0 0.981,0 1.472,0Z" style="fill-rule:nonzero;"/><path d="M27.5,5.017c0,0 -1.318,2.636 -2.207,4.414c-0.474,0.947 -0.288,2.091 0.461,2.839c0,0.001 0,0.001 0.001,0.002c0.964,0.963 2.526,0.963 3.49,0c0.001,-0.001 0.001,-0.001 0.001,-0.002c0.749,-0.748 0.935,-1.892 0.461,-2.839c-0.889,-1.778 -2.207,-4.414 -2.207,-4.414Z" style="fill:#fff;"/><path d="M13.043,10.034c0.162,0.01 0.319,0.053 0.459,0.135c0.09,0.052 0.171,0.118 0.241,0.195c0.242,0.269 0.32,0.658 0.201,1c-0.046,0.131 -0.12,0.248 -0.213,0.352c-0.998,1.033 -2.015,2.05 -3.049,3.048c-0.112,0.101 -0.24,0.179 -0.384,0.224c-0.121,0.038 -0.249,0.052 -0.376,0.042c-0.114,-0.009 -0.227,-0.037 -0.332,-0.085c-0.342,-0.153 -0.573,-0.495 -0.589,-0.868c-0.005,-0.104 0.007,-0.208 0.035,-0.308c0.043,-0.157 0.124,-0.297 0.233,-0.418c0.998,-1.034 2.015,-2.05 3.049,-3.049c0.184,-0.165 0.409,-0.258 0.656,-0.268c0.035,-0.001 0.034,-0.001 0.069,0Z" style="fill-rule:nonzero;"/><path d="M19.026,10.034c0.247,0.01 0.472,0.103 0.656,0.268c1.034,0.999 2.051,2.015 3.049,3.049c0.109,0.121 0.19,0.261 0.233,0.418c0.028,0.1 0.04,0.204 0.035,0.308c-0.016,0.373 -0.247,0.715 -0.589,0.868c-0.105,0.048 -0.218,0.076 -0.332,0.085c-0.127,0.01 -0.255,-0.004 -0.376,-0.042c-0.144,-0.045 -0.272,-0.123 -0.384,-0.224c-1.034,-0.998 -2.051,-2.015 -3.049,-3.048c-0.093,-0.104 -0.167,-0.221 -0.213,-0.352c-0.119,-0.342 -0.041,-0.731 0.201,-1c0.07,-0.077 0.151,-0.143 0.241,-0.195c0.14,-0.082 0.297,-0.125 0.459,-0.135c0.035,-0.001 0.034,-0.001 0.069,0Z" style="fill-rule:nonzero;"/></g><path d="M23.276,20.553c0.155,0.31 0.139,0.678 -0.043,0.973c-0.183,0.295 -0.504,0.474 -0.851,0.474c-3.068,0 -9.696,0 -12.764,0c-0.347,0 -0.668,-0.179 -0.851,-0.474c-0.182,-0.295 -0.198,-0.663 -0.043,-0.973c0.228,-0.456 0.491,-0.984 0.764,-1.529c1.233,-2.466 3.754,-4.024 6.511,-4.024c0.001,0 0.001,0 0.002,0c2.757,0 5.278,1.558 6.511,4.024c0.273,0.545 0.536,1.073 0.764,1.529Z"/></svg>