<?xml version="1.0" encoding="UTF-8" standalone="no"?><!DOCTYPE svg PUBLIC "-//W3C//DTD SVG 1.1//EN" "http://www.w3.org/Graphics/SVG/1.1/DTD/svg11.dtd"><svg width="100%" height="100%" viewBox="0 0 32 32" version="1.1" xmlns="http://www.w3.org/2000/svg" xmlns:xlink="http://www.w3.org/1999/xlink" xml:space="preserve" style="fill-rule:evenodd;clip-rule:evenodd;stroke-linejoin:round;stroke-miterlimit:1.41421;">
<metadata>
<rdf:RDF xmlns:cc="http://web.resource.org/cc/"
         xmlns:rdf="http://www.w3.org/1999/02/22-rdf-syntax-ns#"
         xmlns:dc = "http://purl.org/dc/elements/1.1/"
         >

     <rdf:Description rdf:about="">
       <dc:title>Mutant Standard emoji v0.2.3</dc:title>
     </rdf:Description>

    <cc:work rdf:about="">
        <cc:license rdf:resource="http://creativecommons.org/licenses/by-nc-sa/4.0/"/>
        <cc:attributionName>Dzuk</cc:attributionName>
        <cc:attributionURL>http://mutant.tech/</cc:attributionURL>
    </cc:work>

</rdf:RDF>
</metadata>
<rect id="wild_face" x="0" y="0" width="32" height="32" style="fill:none;"/><clipPath id="_clip1"><rect x="0" y="0" width="32" height="32"/></clipPath><g clip-path="url(#_clip1)"><g id="outline"><path d="M3.795,13.341c-0.535,-0.432 -1.011,-0.937 -1.41,-1.497c-0.53,-0.745 -0.921,-1.587 -1.149,-2.472c-0.189,-0.735 -0.265,-1.498 -0.227,-2.255c0.038,-0.749 0.189,-1.492 0.447,-2.196c0.332,-0.908 0.842,-1.749 1.493,-2.465c0.647,-0.712 1.431,-1.297 2.298,-1.715c0.667,-0.322 1.382,-0.543 2.114,-0.655c0.315,-0.048 0.63,-0.072 0.947,-0.084c0.265,-0.003 0.53,-0.005 0.796,0c0.103,0.005 0.206,0.012 0.309,0.027c0.239,0.033 0.475,0.095 0.699,0.185c0.677,0.27 1.241,0.787 1.568,1.438c0.124,0.247 0.214,0.511 0.266,0.782c0.052,0.271 0.067,0.549 0.043,0.825c-0.009,0.103 -0.025,0.205 -0.043,0.307l-0.001,0.007c0.048,0.024 0.097,0.05 0.145,0.075c0.118,0.064 0.117,0.064 0.234,0.132c0.153,0.094 0.304,0.192 0.448,0.299c0.177,0.131 0.345,0.272 0.504,0.422c0.695,-0.191 1.403,-0.328 2.119,-0.41c0.531,-0.061 1.064,-0.088 1.599,-0.091c0.06,0 0.12,0.001 0.18,0.001c0.462,0.009 0.922,0.034 1.381,0.086c1.022,0.114 2.032,0.341 3.004,0.676c1.949,0.671 3.741,1.776 5.217,3.215c1.518,1.481 2.689,3.305 3.404,5.302c0.366,1.022 0.613,2.086 0.733,3.165c0.052,0.459 0.077,0.919 0.086,1.381c0.007,1.105 0.007,2.21 0,3.316c-0.007,0.374 -0.028,0.747 -0.071,1.119c-0.093,0.815 -0.278,1.62 -0.55,2.394c-0.516,1.464 -1.345,2.812 -2.416,3.935c-1.161,1.217 -2.6,2.163 -4.18,2.742c-0.769,0.282 -1.571,0.476 -2.384,0.58c-0.417,0.053 -0.836,0.079 -1.256,0.087c-2.095,0.013 -4.189,0.013 -6.284,0c-0.374,-0.007 -0.747,-0.028 -1.119,-0.071c-0.815,-0.093 -1.62,-0.278 -2.394,-0.55c-1.464,-0.516 -2.812,-1.345 -3.935,-2.416c-1.217,-1.161 -2.163,-2.6 -2.742,-4.18c-0.298,-0.813 -0.498,-1.661 -0.596,-2.521c-0.043,-0.372 -0.064,-0.745 -0.071,-1.119c-0.007,-1.108 -0.007,-2.215 0,-3.322c0.01,-0.536 0.044,-1.069 0.111,-1.601c0.125,-0.98 0.354,-1.947 0.683,-2.878Z"/></g><g id="emoji"><path d="M29,18c0,-3.183 -1.264,-6.235 -3.515,-8.485c-2.25,-2.251 -5.302,-3.515 -8.485,-3.515c0,0 0,0 0,0c-6.627,0 -12,5.373 -12,12c0,1.01 0,2.019 0,3c0,4.971 4.029,9 9,9c1.962,0 4.038,0 6,0c4.971,0 9,-4.029 9,-9c0,-0.981 0,-1.99 0,-3Z" style="fill:#fbc546;"/><path d="M13,16.5c0,-0.398 -0.158,-0.779 -0.439,-1.061c-0.282,-0.281 -0.663,-0.439 -1.061,-0.439c-0.398,0 -0.779,0.158 -1.061,0.439c-0.281,0.282 -0.439,0.663 -0.439,1.061c0,0.327 0,0.673 0,1c0,0.398 0.158,0.779 0.439,1.061c0.282,0.281 0.663,0.439 1.061,0.439c0.398,0 0.779,-0.158 1.061,-0.439c0.281,-0.282 0.439,-0.663 0.439,-1.061c0,-0.327 0,-0.673 0,-1Z"/><path d="M25,14.5c0,-0.663 -0.263,-1.299 -0.732,-1.768c-0.469,-0.469 -1.105,-0.732 -1.768,-0.732c-0.663,0 -1.299,0.263 -1.768,0.732c-0.469,0.469 -0.732,1.105 -0.732,1.768c0,0.65 0,1.35 0,2c0,0.663 0.263,1.299 0.732,1.768c0.469,0.469 1.105,0.732 1.768,0.732c0.663,0 1.299,-0.263 1.768,-0.732c0.469,-0.469 0.732,-1.105 0.732,-1.768c0,-0.65 0,-1.35 0,-2Z"/><path d="M23.17,22.015c0.158,0.032 0.305,0.09 0.434,0.188c0.334,0.253 0.476,0.701 0.349,1.1c-0.042,0.132 -0.112,0.247 -0.199,0.354c-0.663,0.71 -1.364,1.384 -2.06,2.062c-0.211,0.196 -0.448,0.358 -0.713,0.473c-0.64,0.278 -1.384,0.269 -2.016,-0.025c-0.244,-0.113 -0.463,-0.266 -0.659,-0.448c-0.343,-0.334 -0.65,-0.705 -1.017,-1.012c-0.133,-0.106 -0.316,-0.133 -0.473,-0.064c-0.049,0.021 -0.093,0.051 -0.132,0.088c-0.334,0.325 -0.656,0.663 -0.99,0.988c-0.211,0.196 -0.448,0.358 -0.713,0.473c-0.64,0.278 -1.384,0.269 -2.016,-0.025c-0.244,-0.113 -0.463,-0.266 -0.659,-0.448c-0.679,-0.662 -1.342,-1.341 -2.013,-2.012c-0.11,-0.118 -0.197,-0.249 -0.246,-0.404c-0.041,-0.131 -0.056,-0.269 -0.042,-0.405c0.012,-0.114 0.043,-0.225 0.092,-0.327c0.18,-0.378 0.589,-0.609 1.005,-0.566c0.159,0.017 0.313,0.071 0.446,0.159c0.051,0.033 0.062,0.044 0.109,0.082c0.707,0.66 1.313,1.427 2.054,2.047c0.133,0.106 0.316,0.133 0.473,0.064c0.049,-0.021 0.093,-0.051 0.132,-0.088c0.334,-0.325 0.656,-0.662 0.99,-0.988c0.196,-0.182 0.415,-0.335 0.659,-0.448c0.632,-0.294 1.376,-0.303 2.016,-0.025c0.265,0.115 0.502,0.277 0.713,0.473c0.343,0.334 0.65,0.705 1.017,1.012c0.133,0.106 0.316,0.133 0.473,0.064c0.049,-0.021 0.093,-0.051 0.132,-0.088c0.667,-0.65 1.318,-1.317 1.977,-1.976c0.05,-0.047 0.101,-0.091 0.159,-0.129c0.133,-0.088 0.287,-0.142 0.446,-0.159c0.06,-0.006 0.075,-0.004 0.136,-0.004c0.068,0.004 0.068,0.004 0.136,0.014Z" style="fill-rule:nonzero;"/><path d="M9.674,5.004c0.401,0.025 0.793,0.108 1.165,0.262c0.317,0.132 0.614,0.309 0.879,0.527c0.223,0.182 0.424,0.393 0.595,0.625c0.34,0.459 0.564,1 0.649,1.565c0.042,0.282 0.047,0.567 0.026,0.851c-0.039,0.513 -0.165,1.019 -0.374,1.489c-0.299,0.676 -0.766,1.273 -1.349,1.727c-0.521,0.406 -1.131,0.695 -1.775,0.84c-0.599,0.135 -1.221,0.139 -1.826,0.047c-0.713,-0.109 -1.401,-0.36 -2.017,-0.734c-0.602,-0.366 -1.132,-0.847 -1.554,-1.412c-0.4,-0.535 -0.702,-1.143 -0.884,-1.786c-0.152,-0.534 -0.221,-1.091 -0.207,-1.646c0.014,-0.552 0.11,-1.1 0.287,-1.623c0.242,-0.714 0.633,-1.376 1.14,-1.934c0.475,-0.523 1.05,-0.953 1.686,-1.259c0.489,-0.236 1.012,-0.398 1.549,-0.48c0.23,-0.035 0.462,-0.052 0.695,-0.061c0.213,-0.003 0.427,-0.002 0.641,-0.002c0.16,0.005 0.313,0.037 0.457,0.11c0.123,0.064 0.232,0.152 0.32,0.26c0.062,0.077 0.113,0.163 0.15,0.254c0.037,0.092 0.06,0.189 0.069,0.287c0.03,0.339 -0.119,0.678 -0.389,0.884c-0.161,0.122 -0.348,0.185 -0.548,0.203c-0.216,0.007 -0.433,0 -0.65,0.003c-0.148,0.006 -0.296,0.017 -0.443,0.039c-0.341,0.052 -0.673,0.155 -0.983,0.305c-0.737,0.355 -1.337,0.97 -1.674,1.715c-0.142,0.315 -0.237,0.65 -0.281,0.993c-0.048,0.383 -0.034,0.775 0.043,1.153c0.08,0.391 0.228,0.767 0.435,1.108c0.233,0.384 0.541,0.722 0.9,0.991c0.364,0.272 0.779,0.472 1.219,0.585c0.401,0.103 0.832,0.144 1.244,0.083c0.755,-0.113 1.431,-0.578 1.807,-1.242c0.161,-0.284 0.265,-0.599 0.305,-0.923c0.019,-0.15 0.027,-0.305 0.012,-0.456c-0.027,-0.268 -0.127,-0.528 -0.287,-0.744c-0.074,-0.1 -0.16,-0.19 -0.255,-0.268c-0.114,-0.093 -0.241,-0.17 -0.377,-0.226c-0.16,-0.066 -0.328,-0.101 -0.5,-0.112c-0.374,-0.014 -0.751,-0.032 -1.123,0.001c-0.07,0.007 -0.136,0.027 -0.197,0.062c-0.057,0.032 -0.108,0.076 -0.148,0.128c-0.038,0.048 -0.067,0.103 -0.084,0.162c-0.071,0.233 0.042,0.49 0.262,0.596c0.064,0.031 0.132,0.046 0.203,0.049c0.171,0.002 0.342,0 0.513,0c0.2,0.006 0.391,0.058 0.559,0.171c0.082,0.055 0.155,0.122 0.218,0.199c0.214,0.264 0.279,0.628 0.17,0.95c-0.031,0.094 -0.077,0.183 -0.135,0.263c-0.08,0.112 -0.184,0.208 -0.303,0.278c-0.139,0.082 -0.29,0.123 -0.45,0.137c-0.207,0.006 -0.415,0.004 -0.623,0.001c-0.334,-0.012 -0.66,-0.082 -0.965,-0.22c-0.665,-0.301 -1.177,-0.893 -1.376,-1.595c-0.069,-0.242 -0.101,-0.495 -0.094,-0.746c0.007,-0.286 0.063,-0.571 0.167,-0.838c0.11,-0.286 0.273,-0.551 0.479,-0.778c0.22,-0.243 0.488,-0.442 0.785,-0.582c0.316,-0.15 0.657,-0.226 1.006,-0.239c0.412,-0.005 0.824,-0.012 1.236,0.003Z" style="fill:#982eee;fill-rule:nonzero;"/></g></g></svg>