<?xml version="1.0" encoding="UTF-8" standalone="no"?><!DOCTYPE svg PUBLIC "-//W3C//DTD SVG 1.1//EN" "http://www.w3.org/Graphics/SVG/1.1/DTD/svg11.dtd"><svg width="100%" height="100%" viewBox="0 0 32 32" version="1.1" xmlns="http://www.w3.org/2000/svg" xmlns:xlink="http://www.w3.org/1999/xlink" xml:space="preserve" style="fill-rule:evenodd;clip-rule:evenodd;stroke-linejoin:round;stroke-miterlimit:1.41421;">
<metadata>
<rdf:RDF xmlns:cc="http://web.resource.org/cc/"
         xmlns:rdf="http://www.w3.org/1999/02/22-rdf-syntax-ns#"
         xmlns:dc = "http://purl.org/dc/elements/1.1/"
         >

     <rdf:Description rdf:about="">
       <dc:title>Mutant Standard emoji v0.2.3</dc:title>
     </rdf:Description>

    <cc:work rdf:about="">
        <cc:license rdf:resource="http://creativecommons.org/licenses/by-nc-sa/4.0/"/>
        <cc:attributionName>Dzuk</cc:attributionName>
        <cc:attributionURL>http://mutant.tech/</cc:attributionURL>
    </cc:work>

</rdf:RDF>
</metadata>
<rect id="wink_tongue" x="0" y="0" width="32" height="32" style="fill:none;"/><g id="outline"><path d="M16.174,2.001c0.462,0.009 0.922,0.034 1.381,0.086c1.022,0.114 2.032,0.341 3.004,0.676c1.675,0.577 3.236,1.474 4.578,2.63c1.827,1.573 3.23,3.617 4.043,5.887c0.366,1.022 0.613,2.086 0.734,3.165c0.051,0.459 0.076,0.92 0.085,1.381c0.005,0.774 0.005,1.549 0,2.323c-0.007,0.396 -0.029,0.791 -0.073,1.184c-0.104,0.925 -0.315,1.837 -0.629,2.713c-0.646,1.805 -1.728,3.445 -3.133,4.749c-1.222,1.134 -2.68,2.008 -4.256,2.551c-0.834,0.287 -1.699,0.482 -2.575,0.58c-0.393,0.044 -0.788,0.066 -1.184,0.073c-1.433,0.009 -2.865,0.009 -4.298,0c-0.445,-0.008 -0.889,-0.036 -1.331,-0.09c-0.923,-0.115 -1.832,-0.338 -2.704,-0.662c-1.844,-0.686 -3.508,-1.829 -4.811,-3.303c-1.037,-1.175 -1.84,-2.554 -2.351,-4.036c-0.287,-0.833 -0.482,-1.699 -0.58,-2.575c-0.044,-0.394 -0.066,-0.788 -0.073,-1.184c-0.005,-0.777 -0.005,-1.553 0,-2.33c0.01,-0.535 0.044,-1.068 0.111,-1.6c0.132,-1.034 0.379,-2.053 0.738,-3.033c0.659,-1.8 1.693,-3.458 3.016,-4.845c1.517,-1.592 3.407,-2.818 5.482,-3.549c0.985,-0.347 2.009,-0.582 3.047,-0.701c0.473,-0.054 0.948,-0.081 1.425,-0.09c0.177,-0.001 0.176,-0.001 0.354,0Z"/></g><g id="emoji"><path d="M28,16c0,-3.183 -1.264,-6.235 -3.515,-8.485c-2.25,-2.251 -5.302,-3.515 -8.485,-3.515c0,0 0,0 0,0c-6.627,0 -12,5.373 -12,12c0,0.669 0,1.339 0,2c0,2.652 1.054,5.196 2.929,7.071c1.875,1.875 4.419,2.929 7.071,2.929c1.322,0 2.678,0 4,0c2.652,0 5.196,-1.054 7.071,-2.929c1.875,-1.875 2.929,-4.419 2.929,-7.071c0,-0.661 0,-1.331 0,-2Z" style="fill:#fbc546;"/><clipPath id="_clip1"><path d="M28,16c0,-3.183 -1.264,-6.235 -3.515,-8.485c-2.25,-2.251 -5.302,-3.515 -8.485,-3.515c0,0 0,0 0,0c-6.627,0 -12,5.373 -12,12c0,0.669 0,1.339 0,2c0,2.652 1.054,5.196 2.929,7.071c1.875,1.875 4.419,2.929 7.071,2.929c1.322,0 2.678,0 4,0c2.652,0 5.196,-1.054 7.071,-2.929c1.875,-1.875 2.929,-4.419 2.929,-7.071c0,-0.661 0,-1.331 0,-2Z"/></clipPath><g clip-path="url(#_clip1)"><path d="M21,24.012l-0.001,0.112l-0.005,0.124l-0.008,0.123l-0.01,0.123l-0.014,0.123l-0.017,0.121l-0.019,0.121l-0.023,0.121l-0.025,0.12l-0.029,0.119l-0.031,0.118l-0.034,0.117l-0.037,0.116l-0.04,0.116l-0.042,0.114l-0.046,0.114l-0.048,0.112l-0.05,0.111l-0.054,0.109l-0.056,0.108l-0.059,0.107l-0.061,0.107l-0.064,0.103l-0.067,0.103l-0.069,0.102l-0.072,0.099l-0.074,0.097l-0.077,0.097l-0.08,0.095l-0.082,0.092l-0.083,0.09l-0.087,0.089l-0.09,0.088l-0.09,0.084l-0.092,0.081l-0.095,0.08l-0.096,0.077l-0.098,0.074l-0.1,0.072l-0.101,0.069l-0.103,0.067l-0.104,0.064l-0.105,0.061l-0.107,0.059l-0.109,0.056l-0.11,0.054l-0.111,0.051l-0.111,0.047l-0.114,0.046l-0.114,0.042l-0.115,0.04l-0.116,0.037l-0.118,0.034l-0.118,0.031l-0.119,0.029l-0.12,0.025l-0.12,0.023l-0.122,0.019l-0.121,0.017l-0.123,0.014l-0.123,0.01l-0.123,0.008l-0.124,0.005l-0.112,0.001l-0.026,0l-0.112,-0.001l-0.124,-0.005l-0.123,-0.008l-0.123,-0.01l-0.122,-0.014l-0.122,-0.017l-0.121,-0.019l-0.121,-0.023l-0.119,-0.025l-0.12,-0.029l-0.118,-0.031l-0.117,-0.034l-0.116,-0.037l-0.115,-0.04l-0.115,-0.042l-0.112,-0.045l-0.113,-0.048l-0.111,-0.051l-0.109,-0.054l-0.109,-0.056l-0.106,-0.058l-0.106,-0.062l-0.104,-0.064l-0.103,-0.067l-0.101,-0.069l-0.099,-0.071l-0.098,-0.075l-0.097,-0.077l-0.094,-0.079l-0.093,-0.082l-0.09,-0.084l-0.089,-0.087l-0.087,-0.089l-0.084,-0.09l-0.082,-0.093l-0.079,-0.094l-0.077,-0.096l-0.075,-0.099l-0.071,-0.099l-0.069,-0.101l-0.067,-0.103l-0.064,-0.104l-0.061,-0.105l-0.059,-0.108l-0.057,-0.108l-0.053,-0.109l-0.051,-0.111l-0.048,-0.112l-0.045,-0.114l-0.042,-0.113l-0.04,-0.116l-0.037,-0.117l-0.034,-0.117l-0.031,-0.117l-0.029,-0.12l-0.025,-0.119l-0.023,-0.12l-0.019,-0.122l-0.017,-0.122l-0.014,-0.123l-0.01,-0.121l-0.008,-0.124l-0.005,-0.124l-0.001,-0.111l0,-3.015l10,0l0,3.012Z" style="fill:#68114a;"/><path d="M23,19l-14,0c0,0 0.005,0.029 0.014,0.082c0.569,3.415 3.523,5.918 6.985,5.918c0.001,0 0.001,0 0.002,0c3.462,0 6.416,-2.503 6.985,-5.918c0.009,-0.053 0.014,-0.082 0.014,-0.082Z"/><path d="M19,21l-6,0c0,0 0,1.501 0,3.002c0,0.795 0.316,1.558 0.878,2.12c0.562,0.562 1.325,0.878 2.12,0.878c0.001,0 0.001,0 0.002,0c0.796,0 1.559,-0.316 2.121,-0.879c0.563,-0.562 0.879,-1.325 0.879,-2.121c0,-1.5 0,-3 0,-3Z" style="fill:#dd34a2;"/><path d="M12,13.5c0,-0.398 -0.158,-0.779 -0.439,-1.061c-0.282,-0.281 -0.663,-0.439 -1.061,-0.439c-0.398,0 -0.779,0.158 -1.061,0.439c-0.281,0.282 -0.439,0.663 -0.439,1.061c0,0.633 0,1.367 0,2c0,0.398 0.158,0.779 0.439,1.061c0.282,0.281 0.663,0.439 1.061,0.439c0.398,0 0.779,-0.158 1.061,-0.439c0.281,-0.282 0.439,-0.663 0.439,-1.061c0,-0.633 0,-1.367 0,-2Z"/><path d="M22.55,11.501l0.039,0.003l0.04,0.004l0.039,0.006l0.039,0.008l0.039,0.009l0.038,0.01l0.038,0.012l0.038,0.014l0.036,0.015l0.037,0.016l0.035,0.018l0.035,0.02l0.034,0.02l0.033,0.022l0.032,0.024l0.031,0.024l0.031,0.026l0.029,0.027l0.028,0.028l0.027,0.029l0.026,0.031l0.024,0.031l0.024,0.032l0.022,0.033l0.02,0.034l0.02,0.035l0.018,0.035l0.016,0.037l0.015,0.036l0.014,0.038l0.012,0.038l0.01,0.038l0.009,0.039l0.008,0.039l0.006,0.039l0.004,0.04l0.003,0.039l0.001,0.04l0,0.04l-0.002,0.04l-0.004,0.039l-0.005,0.04l-0.007,0.039l-0.008,0.039l-0.01,0.038l-0.011,0.038l-0.013,0.038l-0.014,0.037l-0.016,0.037l-0.017,0.035l-0.019,0.036l-0.02,0.034l-0.021,0.034l-0.023,0.032l-0.024,0.032l-0.025,0.031l-0.026,0.029l-0.028,0.029l-1.793,1.793l1.586,0l0.04,0.001l0.039,0.002l0.04,0.004l0.039,0.006l0.04,0.007l0.038,0.008l0.039,0.01l0.038,0.012l0.037,0.013l0.037,0.015l0.037,0.016l0.035,0.018l0.035,0.019l0.034,0.02l0.034,0.022l0.032,0.023l0.032,0.024l0.03,0.025l0.03,0.027l0.028,0.028l0.027,0.029l0.026,0.03l0.025,0.031l0.024,0.032l0.022,0.033l0.021,0.034l0.02,0.034l0.018,0.035l0.017,0.036l0.015,0.037l0.014,0.037l0.013,0.038l0.011,0.038l0.009,0.039l0.008,0.039l0.006,0.039l0.005,0.04l0.003,0.039l0.002,0.04l0,0.04l-0.002,0.04l-0.003,0.039l-0.005,0.04l-0.006,0.039l-0.008,0.039l-0.009,0.039l-0.011,0.038l-0.013,0.038l-0.014,0.037l-0.015,0.037l-0.017,0.036l-0.018,0.035l-0.02,0.034l-0.021,0.034l-0.022,0.033l-0.024,0.032l-0.025,0.031l-0.026,0.03l-0.027,0.029l-0.028,0.028l-0.03,0.027l-0.03,0.025l-0.032,0.024l-0.032,0.023l-0.034,0.022l-0.034,0.02l-0.035,0.019l-0.035,0.018l-0.037,0.016l-0.037,0.015l-0.037,0.013l-0.038,0.012l-0.039,0.01l-0.038,0.008l-0.04,0.007l-0.039,0.006l-0.04,0.004l-0.039,0.002l-0.04,0.001l-5.209,0l-0.353,-0.852l4.355,-4.355l0.029,-0.028l0.029,-0.026l0.031,-0.025l0.032,-0.024l0.032,-0.023l0.034,-0.021l0.034,-0.02l0.036,-0.019l0.035,-0.017l0.037,-0.016l0.037,-0.014l0.038,-0.013l0.038,-0.011l0.038,-0.01l0.039,-0.008l0.039,-0.007l0.04,-0.005l0.039,-0.004l0.04,-0.002l0.04,0l0.04,0.001Z"/></g></g></svg>