<?xml version="1.0" encoding="UTF-8" standalone="no"?><!DOCTYPE svg PUBLIC "-//W3C//DTD SVG 1.1//EN" "http://www.w3.org/Graphics/SVG/1.1/DTD/svg11.dtd"><svg width="100%" height="100%" viewBox="0 0 32 32" version="1.1" xmlns="http://www.w3.org/2000/svg" xmlns:xlink="http://www.w3.org/1999/xlink" xml:space="preserve" style="fill-rule:evenodd;clip-rule:evenodd;stroke-linecap:round;stroke-miterlimit:2;">
<metadata>
<rdf:RDF xmlns:cc="http://web.resource.org/cc/"
         xmlns:rdf="http://www.w3.org/1999/02/22-rdf-syntax-ns#"
         xmlns:dc = "http://purl.org/dc/elements/1.1/"
         >

     <rdf:Description rdf:about="">
       <dc:title>Mutant Standard emoji v0.2.3</dc:title>
     </rdf:Description>

    <cc:work rdf:about="">
        <cc:license rdf:resource="http://creativecommons.org/licenses/by-nc-sa/4.0/"/>
        <cc:attributionName>Dzuk</cc:attributionName>
        <cc:attributionURL>http://mutant.tech/</cc:attributionURL>
    </cc:work>

</rdf:RDF>
</metadata>
<rect id="wink_kiss" x="0" y="0" width="32" height="32" style="fill:none;"/><g id="outline"><path d="M15.174,2.001c0.462,0.009 0.922,0.034 1.381,0.086c1.079,0.12 2.143,0.367 3.165,0.733c2.051,0.734 3.92,1.951 5.422,3.529c1.381,1.451 2.443,3.198 3.095,5.092c0.335,0.972 0.562,1.982 0.676,3.004c0.052,0.459 0.077,0.919 0.086,1.381c0.009,1.434 0.009,2.869 0,4.303c-0.007,0.382 -0.031,0.763 -0.079,1.142c-0.094,0.739 -0.271,1.468 -0.527,2.167c-0.526,1.437 -1.386,2.745 -2.493,3.8c-1.021,0.974 -2.247,1.728 -3.577,2.196c-0.704,0.248 -1.436,0.416 -2.177,0.501c-0.338,0.039 -0.677,0.058 -1.017,0.064c-2.753,0.018 -5.505,0.018 -8.258,0c-0.382,-0.007 -0.763,-0.031 -1.142,-0.079c-0.739,-0.094 -1.468,-0.271 -2.167,-0.527c-1.362,-0.499 -2.608,-1.297 -3.633,-2.322c-1.054,-1.054 -1.868,-2.342 -2.363,-3.748c-0.248,-0.704 -0.416,-1.436 -0.501,-2.177c-0.039,-0.338 -0.058,-0.677 -0.064,-1.017c-0.009,-1.437 -0.009,-2.873 0,-4.309c0.009,-0.477 0.036,-0.952 0.09,-1.425c0.125,-1.095 0.38,-2.174 0.759,-3.209c0.717,-1.958 1.878,-3.747 3.37,-5.204c1.453,-1.418 3.212,-2.515 5.128,-3.19c1.041,-0.367 2.125,-0.608 3.223,-0.72c0.473,-0.048 0.947,-0.069 1.423,-0.072c0.06,0 0.12,0.001 0.18,0.001Z" style="fill-rule:nonzero;"/></g><g id="emoji"><path d="M27,16c0,-3.183 -1.264,-6.235 -3.515,-8.485c-2.25,-2.251 -5.302,-3.515 -8.485,-3.515c0,0 0,0 0,0c-6.627,0 -12,5.373 -12,12c0,1.356 0,2.713 0,4c0,4.418 3.582,8 8,8c2.574,0 5.426,0 8,0c4.418,0 8,-3.582 8,-8c0,-1.287 0,-2.644 0,-4Z" style="fill:#fbc546;"/><path d="M21.55,11.501l0.039,0.003l0.04,0.004l0.039,0.006l0.039,0.008l0.039,0.009l0.038,0.01l0.038,0.012l0.038,0.014l0.036,0.015l0.037,0.016l0.035,0.018l0.035,0.02l0.034,0.02l0.033,0.022l0.032,0.024l0.031,0.024l0.031,0.026l0.029,0.027l0.028,0.028l0.027,0.029l0.026,0.031l0.024,0.031l0.024,0.032l0.022,0.033l0.02,0.034l0.02,0.035l0.018,0.035l0.016,0.037l0.015,0.036l0.014,0.038l0.012,0.038l0.01,0.038l0.009,0.039l0.008,0.039l0.006,0.039l0.004,0.04l0.003,0.039l0.001,0.04l0,0.04l-0.002,0.04l-0.004,0.039l-0.005,0.04l-0.007,0.039l-0.008,0.039l-0.01,0.038l-0.011,0.038l-0.013,0.038l-0.014,0.037l-0.016,0.037l-0.017,0.035l-0.019,0.036l-0.02,0.034l-0.021,0.034l-0.023,0.032l-0.024,0.032l-0.025,0.031l-0.026,0.029l-0.028,0.029l-1.793,1.793l1.586,0l0.04,0.001l0.039,0.002l0.04,0.004l0.039,0.006l0.04,0.007l0.038,0.008l0.039,0.01l0.038,0.012l0.037,0.013l0.037,0.015l0.037,0.016l0.035,0.018l0.035,0.019l0.034,0.02l0.034,0.022l0.032,0.023l0.032,0.024l0.03,0.025l0.03,0.027l0.028,0.028l0.027,0.029l0.026,0.03l0.025,0.031l0.024,0.032l0.022,0.033l0.021,0.034l0.02,0.034l0.018,0.035l0.017,0.036l0.015,0.037l0.014,0.037l0.013,0.038l0.011,0.038l0.009,0.039l0.008,0.039l0.006,0.039l0.005,0.04l0.003,0.039l0.002,0.04l0,0.04l-0.002,0.04l-0.003,0.039l-0.005,0.04l-0.006,0.039l-0.008,0.039l-0.009,0.039l-0.011,0.038l-0.013,0.038l-0.014,0.037l-0.015,0.037l-0.017,0.036l-0.018,0.035l-0.02,0.034l-0.021,0.034l-0.022,0.033l-0.024,0.032l-0.025,0.031l-0.026,0.03l-0.027,0.029l-0.028,0.028l-0.03,0.027l-0.03,0.025l-0.032,0.024l-0.032,0.023l-0.034,0.022l-0.034,0.02l-0.035,0.019l-0.035,0.018l-0.037,0.016l-0.037,0.015l-0.037,0.013l-0.038,0.012l-0.039,0.01l-0.038,0.008l-0.04,0.007l-0.039,0.006l-0.04,0.004l-0.039,0.002l-0.04,0.001l-5.209,0l-0.353,-0.852l4.355,-4.355l0.029,-0.028l0.029,-0.026l0.031,-0.025l0.032,-0.024l0.032,-0.023l0.034,-0.021l0.034,-0.02l0.036,-0.019l0.035,-0.017l0.037,-0.016l0.037,-0.014l0.038,-0.013l0.038,-0.011l0.038,-0.01l0.039,-0.008l0.039,-0.007l0.04,-0.005l0.039,-0.004l0.04,-0.002l0.04,0l0.04,0.001Z"/><path d="M11,13.5c0,-0.398 -0.158,-0.779 -0.439,-1.061c-0.282,-0.281 -0.663,-0.439 -1.061,-0.439c-0.398,0 -0.779,0.158 -1.061,0.439c-0.281,0.282 -0.439,0.663 -0.439,1.061c0,0.633 0,1.367 0,2c0,0.398 0.158,0.779 0.439,1.061c0.282,0.281 0.663,0.439 1.061,0.439c0.398,0 0.779,-0.158 1.061,-0.439c0.281,-0.282 0.439,-0.663 0.439,-1.061c0,-0.633 0,-1.367 0,-2Z"/><path d="M14,18l4,2l-2,2l2,2l-4,2" style="fill:none;stroke:#000;stroke-width:2px;"/><path d="M27.595,18.354c0.164,0.005 0.327,0.016 0.49,0.039c0.394,0.056 0.779,0.169 1.141,0.335c0.654,0.3 1.225,0.774 1.642,1.36c0.292,0.412 0.508,0.878 0.633,1.368c0.102,0.395 0.144,0.805 0.125,1.213c-0.022,0.472 -0.126,0.941 -0.306,1.379c-0.206,0.499 -0.509,0.947 -0.885,1.334l-4.93,4.946l-4.909,-4.888c-0.07,-0.071 -0.069,-0.071 -0.137,-0.144c-0.116,-0.131 -0.226,-0.265 -0.326,-0.408c-0.234,-0.335 -0.418,-0.703 -0.544,-1.091c-0.289,-0.887 -0.268,-1.862 0.059,-2.735c0.143,-0.385 0.344,-0.747 0.595,-1.072c0.254,-0.331 0.558,-0.623 0.898,-0.863c0.382,-0.269 0.81,-0.473 1.261,-0.599c0.503,-0.141 1.031,-0.186 1.551,-0.131c0.539,0.057 1.067,0.22 1.542,0.481c0.061,-0.035 0.122,-0.066 0.184,-0.097c0.241,-0.116 0.489,-0.214 0.747,-0.284c0.319,-0.086 0.644,-0.13 0.973,-0.143c0.098,-0.001 0.098,-0.001 0.196,0Z" style="fill-rule:nonzero;"/><path d="M25.5,27.5c0,0 -2.012,-2.004 -3.484,-3.469c-0.837,-0.834 -0.841,-2.189 -0.008,-3.027c0,-0.001 0.001,-0.001 0.001,-0.002c0.817,-0.822 2.142,-0.839 2.98,-0.038c0.301,0.288 0.527,0.503 0.527,0.503c0,0 0.211,-0.21 0.494,-0.494c0.824,-0.824 2.159,-0.827 2.988,-0.008c0,0.001 0.001,0.001 0.001,0.002c0.402,0.397 0.629,0.938 0.631,1.504c0.002,0.565 -0.221,1.108 -0.62,1.508c-1.478,1.482 -3.51,3.521 -3.51,3.521Z" style="fill:#d92020;"/></g></svg>