<?xml version="1.0" encoding="UTF-8" standalone="no"?><!DOCTYPE svg PUBLIC "-//W3C//DTD SVG 1.1//EN" "http://www.w3.org/Graphics/SVG/1.1/DTD/svg11.dtd"><svg width="100%" height="100%" viewBox="0 0 32 32" version="1.1" xmlns="http://www.w3.org/2000/svg" xmlns:xlink="http://www.w3.org/1999/xlink" xml:space="preserve" style="fill-rule:evenodd;clip-rule:evenodd;stroke-linejoin:round;stroke-miterlimit:1.41421;">
<metadata>
<rdf:RDF xmlns:cc="http://web.resource.org/cc/"
         xmlns:rdf="http://www.w3.org/1999/02/22-rdf-syntax-ns#"
         xmlns:dc = "http://purl.org/dc/elements/1.1/"
         >

     <rdf:Description rdf:about="">
       <dc:title>Mutant Standard emoji v0.2.3</dc:title>
     </rdf:Description>

    <cc:work rdf:about="">
        <cc:license rdf:resource="http://creativecommons.org/licenses/by-nc-sa/4.0/"/>
        <cc:attributionName>Dzuk</cc:attributionName>
        <cc:attributionURL>http://mutant.tech/</cc:attributionURL>
    </cc:work>

</rdf:RDF>
</metadata>
<rect id="worried" x="0" y="0" width="32" height="32" style="fill:none;"/><g id="outline"><path d="M16.174,2.001c0.462,0.009 0.922,0.034 1.381,0.086c1.022,0.114 2.032,0.341 3.004,0.676c1.784,0.615 3.439,1.592 4.838,2.859c1.701,1.54 3.009,3.497 3.783,5.658c0.366,1.021 0.613,2.086 0.733,3.165c0.052,0.459 0.077,0.919 0.086,1.381c0.007,1.105 0.007,2.211 0,3.316c-0.007,0.374 -0.028,0.747 -0.071,1.119c-0.098,0.86 -0.298,1.708 -0.596,2.521c-0.533,1.456 -1.378,2.793 -2.461,3.902c-1.176,1.205 -2.627,2.134 -4.216,2.694c-0.774,0.272 -1.579,0.457 -2.394,0.55c-0.372,0.043 -0.745,0.064 -1.119,0.071c-2.095,0.013 -4.189,0.013 -6.284,0c-0.374,-0.007 -0.747,-0.028 -1.119,-0.071c-0.815,-0.093 -1.62,-0.278 -2.394,-0.55c-1.589,-0.56 -3.04,-1.489 -4.216,-2.694c-1.083,-1.109 -1.928,-2.446 -2.461,-3.902c-0.298,-0.813 -0.498,-1.661 -0.596,-2.521c-0.043,-0.372 -0.064,-0.745 -0.071,-1.119c-0.007,-1.108 -0.007,-2.215 0,-3.322c0.009,-0.477 0.036,-0.952 0.09,-1.425c0.125,-1.095 0.38,-2.174 0.759,-3.209c0.736,-2.011 1.941,-3.842 3.491,-5.32c1.429,-1.362 3.144,-2.418 5.007,-3.074c0.985,-0.347 2.009,-0.582 3.047,-0.701c0.473,-0.054 0.948,-0.081 1.425,-0.09c0.177,-0.001 0.177,-0.001 0.354,0Z" style="fill-rule:nonzero;"/></g><g id="emoji"><path d="M28,16c0,-3.183 -1.264,-6.235 -3.515,-8.485c-2.25,-2.251 -5.302,-3.515 -8.485,-3.515c0,0 0,0 0,0c-6.627,0 -12,5.373 -12,12c0,1.01 0,2.019 0,3c0,4.971 4.029,9 9,9c1.962,0 4.038,0 6,0c4.971,0 9,-4.029 9,-9c0,-0.981 0,-1.99 0,-3Z" style="fill:#fbc546;"/><path d="M12,13.5c0,-0.398 -0.158,-0.779 -0.439,-1.061c-0.282,-0.281 -0.663,-0.439 -1.061,-0.439c-0.398,0 -0.779,0.158 -1.061,0.439c-0.281,0.282 -0.439,0.663 -0.439,1.061c0,0.633 0,1.367 0,2c0,0.398 0.158,0.779 0.439,1.061c0.282,0.281 0.663,0.439 1.061,0.439c0.001,0 0.001,0 0.002,0c0.827,0 1.498,-0.671 1.498,-1.498c0,-0.633 0,-1.369 0,-2.002Z"/><path d="M23,13.498c0,-0.827 -0.671,-1.498 -1.498,-1.498c-0.001,0 -0.003,0 -0.004,0c-0.827,0 -1.498,0.671 -1.498,1.498c0,0.634 0,1.37 0,2.004c0,0.827 0.671,1.498 1.498,1.498c0.001,0 0.003,0 0.004,0c0.827,0 1.498,-0.671 1.498,-1.498c0,-0.634 0,-1.37 0,-2.004Z"/><path d="M11.242,24.103c-0.376,0.151 -0.805,0.06 -1.088,-0.23c-0.282,-0.289 -0.362,-0.72 -0.203,-1.092c0.152,-0.354 0.312,-0.728 0.473,-1.104c0.956,-2.231 3.149,-3.677 5.576,-3.677c0,0 0,0 0,0c2.427,0 4.62,1.446 5.576,3.677c0.161,0.376 0.321,0.75 0.473,1.104c0.159,0.372 0.079,0.803 -0.203,1.092c-0.283,0.29 -0.712,0.381 -1.088,0.23c-0.517,-0.207 -1.049,-0.419 -1.506,-0.602c-0.827,-0.331 -1.71,-0.501 -2.6,-0.501c-0.42,0 -0.884,0 -1.304,0c-0.89,0 -1.773,0.17 -2.6,0.501c-0.457,0.183 -0.989,0.395 -1.506,0.602Z"/></g></svg>