<?xml version="1.0" encoding="UTF-8" standalone="no"?><!DOCTYPE svg PUBLIC "-//W3C//DTD SVG 1.1//EN" "http://www.w3.org/Graphics/SVG/1.1/DTD/svg11.dtd"><svg width="100%" height="100%" viewBox="0 0 32 32" version="1.1" xmlns="http://www.w3.org/2000/svg" xmlns:xlink="http://www.w3.org/1999/xlink" xml:space="preserve" style="fill-rule:evenodd;clip-rule:evenodd;stroke-linejoin:round;stroke-miterlimit:1.41421;">
<metadata>
<rdf:RDF xmlns:cc="http://web.resource.org/cc/"
         xmlns:rdf="http://www.w3.org/1999/02/22-rdf-syntax-ns#"
         xmlns:dc = "http://purl.org/dc/elements/1.1/"
         >

     <rdf:Description rdf:about="">
       <dc:title>Mutant Standard emoji v0.2.3</dc:title>
     </rdf:Description>

    <cc:work rdf:about="">
        <cc:license rdf:resource="http://creativecommons.org/licenses/by-nc-sa/4.0/"/>
        <cc:attributionName>Dzuk</cc:attributionName>
        <cc:attributionURL>http://mutant.tech/</cc:attributionURL>
    </cc:work>

</rdf:RDF>
</metadata>
<rect id="xd_tongue" x="0" y="0" width="32" height="32" style="fill:none;"/><g id="outline"><path d="M16.174,3.001c0.462,0.009 0.922,0.034 1.381,0.086c1.022,0.114 2.032,0.341 3.004,0.676c2.389,0.823 4.535,2.297 6.16,4.232c1.066,1.268 1.902,2.725 2.461,4.284c0.366,1.022 0.613,2.087 0.733,3.166c0.052,0.459 0.077,0.919 0.086,1.381c0.003,0.443 0.003,0.886 0,1.329c-0.008,0.408 -0.031,0.815 -0.077,1.221c-0.107,0.938 -0.326,1.863 -0.651,2.75c-0.482,1.318 -1.198,2.547 -2.104,3.618c-1.373,1.624 -3.174,2.871 -5.18,3.577c-0.844,0.297 -1.722,0.499 -2.612,0.601c-0.405,0.046 -0.812,0.069 -1.22,0.077c-1.437,0.009 -2.873,0.009 -4.31,0c-0.458,-0.009 -0.916,-0.037 -1.371,-0.095c-0.887,-0.113 -1.76,-0.325 -2.6,-0.633c-1.498,-0.548 -2.881,-1.399 -4.049,-2.486c-1.379,-1.283 -2.449,-2.89 -3.096,-4.659c-0.325,-0.887 -0.544,-1.812 -0.651,-2.75c-0.046,-0.406 -0.069,-0.813 -0.077,-1.222c-0.003,-0.442 -0.003,-0.885 0,-1.328c0.009,-0.461 0.034,-0.922 0.085,-1.381c0.115,-1.022 0.342,-2.032 0.677,-3.005c0.596,-1.729 1.533,-3.336 2.743,-4.707c1.558,-1.764 3.558,-3.12 5.773,-3.913c1.022,-0.366 2.087,-0.613 3.166,-0.733c0.459,-0.052 0.919,-0.077 1.381,-0.086c0.174,-0.001 0.174,-0.001 0.348,0Z"/></g><g id="emoji"><path d="M28,17c0,-3.183 -1.264,-6.235 -3.515,-8.485c-2.25,-2.251 -5.302,-3.515 -8.485,-3.515c0,0 0,0 0,0c-3.183,0 -6.235,1.264 -8.485,3.515c-2.251,2.25 -3.515,5.302 -3.515,8.485c0,0.334 0,0.668 0,1c0,5.523 4.477,10 10,10c1.322,0 2.678,0 4,0c5.523,0 10,-4.477 10,-10c0,-0.332 0,-0.666 0,-1Z" style="fill:#fbc546;"/><clipPath id="_clip1"><path d="M28,17c0,-3.183 -1.264,-6.235 -3.515,-8.485c-2.25,-2.251 -5.302,-3.515 -8.485,-3.515c0,0 0,0 0,0c-3.183,0 -6.235,1.264 -8.485,3.515c-2.251,2.25 -3.515,5.302 -3.515,8.485c0,0.334 0,0.668 0,1c0,5.523 4.477,10 10,10c1.322,0 2.678,0 4,0c5.523,0 10,-4.477 10,-10c0,-0.332 0,-0.666 0,-1Z"/></clipPath><g clip-path="url(#_clip1)"><path d="M23.05,13.001l0.039,0.003l0.04,0.004l0.039,0.006l0.039,0.008l0.039,0.009l0.038,0.01l0.038,0.012l0.038,0.014l0.036,0.015l0.037,0.016l0.035,0.018l0.035,0.02l0.034,0.02l0.033,0.022l0.032,0.024l0.031,0.024l0.031,0.026l0.029,0.027l0.028,0.028l0.027,0.029l0.026,0.031l0.024,0.031l0.024,0.032l0.022,0.033l0.02,0.034l0.02,0.035l0.018,0.035l0.016,0.037l0.015,0.036l0.014,0.038l0.012,0.038l0.01,0.038l0.009,0.039l0.008,0.039l0.006,0.039l0.004,0.04l0.003,0.039l0.001,0.04l0,0.04l-0.002,0.04l-0.004,0.039l-0.005,0.04l-0.007,0.039l-0.008,0.039l-0.01,0.038l-0.011,0.038l-0.013,0.038l-0.014,0.037l-0.016,0.037l-0.017,0.035l-0.019,0.036l-0.02,0.034l-0.021,0.034l-0.023,0.032l-0.024,0.032l-0.025,0.031l-0.026,0.029l-0.028,0.029l-1.856,1.856l1.465,0.488l0.038,0.014l0.037,0.014l0.036,0.017l0.036,0.017l0.034,0.019l0.034,0.021l0.034,0.022l0.032,0.023l0.032,0.024l0.03,0.026l0.029,0.027l0.029,0.028l0.027,0.029l0.026,0.03l0.025,0.031l0.023,0.032l0.022,0.033l0.021,0.034l0.02,0.034l0.018,0.036l0.017,0.036l0.015,0.036l0.014,0.038l0.012,0.038l0.011,0.038l0.009,0.039l0.008,0.039l0.006,0.039l0.004,0.039l0.003,0.04l0.002,0.04l0,0.039l-0.002,0.04l-0.003,0.04l-0.005,0.039l-0.007,0.04l-0.008,0.039l-0.009,0.038l-0.011,0.038l-0.013,0.038l-0.014,0.037l-0.015,0.037l-0.017,0.036l-0.019,0.035l-0.02,0.035l-0.021,0.033l-0.022,0.033l-0.024,0.032l-0.025,0.031l-0.026,0.03l-0.027,0.029l-0.029,0.027l-0.03,0.027l-0.03,0.025l-0.032,0.024l-0.032,0.023l-0.034,0.022l-0.034,0.02l-0.035,0.019l-0.036,0.017l-0.036,0.016l-0.037,0.015l-0.038,0.013l-0.038,0.011l-0.038,0.011l-0.039,0.008l-0.039,0.007l-0.04,0.005l-0.039,0.004l-0.04,0.002l-0.04,0.001l-0.039,-0.001l-0.04,-0.002l-0.04,-0.005l-0.039,-0.005l-0.039,-0.007l-0.039,-0.009l-0.038,-0.01l-0.038,-0.012l-4.087,-1.362l-0.114,-0.484l3.81,-3.81l0.029,-0.028l0.029,-0.026l0.031,-0.025l0.032,-0.024l0.032,-0.023l0.034,-0.021l0.034,-0.02l0.036,-0.019l0.035,-0.017l0.037,-0.016l0.037,-0.014l0.038,-0.013l0.038,-0.011l0.038,-0.01l0.039,-0.008l0.039,-0.007l0.04,-0.005l0.039,-0.004l0.04,-0.002l0.04,0l0.04,0.001Z"/><path d="M9.03,13l0.04,0.002l0.039,0.004l0.04,0.005l0.039,0.007l0.039,0.008l0.038,0.01l0.038,0.011l0.038,0.013l0.037,0.014l0.037,0.016l0.035,0.017l0.036,0.019l0.034,0.02l0.034,0.021l0.032,0.023l0.032,0.024l0.031,0.025l0.029,0.026l0.029,0.028l3.81,3.81l-0.114,0.484l-4.087,1.362l-0.038,0.012l-0.038,0.01l-0.039,0.009l-0.039,0.007l-0.039,0.005l-0.04,0.005l-0.04,0.002l-0.039,0.001l-0.04,-0.001l-0.04,-0.002l-0.039,-0.004l-0.04,-0.005l-0.039,-0.007l-0.039,-0.008l-0.038,-0.011l-0.038,-0.011l-0.038,-0.013l-0.037,-0.015l-0.036,-0.016l-0.036,-0.017l-0.035,-0.019l-0.034,-0.02l-0.034,-0.022l-0.032,-0.023l-0.032,-0.024l-0.03,-0.025l-0.03,-0.027l-0.029,-0.027l-0.027,-0.029l-0.026,-0.03l-0.025,-0.031l-0.024,-0.032l-0.022,-0.033l-0.021,-0.033l-0.02,-0.035l-0.019,-0.035l-0.017,-0.036l-0.015,-0.037l-0.014,-0.037l-0.013,-0.038l-0.011,-0.038l-0.009,-0.038l-0.008,-0.039l-0.007,-0.04l-0.005,-0.039l-0.003,-0.04l-0.002,-0.04l0,-0.039l0.002,-0.04l0.003,-0.04l0.004,-0.039l0.006,-0.039l0.008,-0.039l0.009,-0.039l0.011,-0.038l0.012,-0.038l0.014,-0.038l0.015,-0.036l0.017,-0.036l0.018,-0.036l0.02,-0.034l0.021,-0.034l0.022,-0.033l0.023,-0.032l0.025,-0.031l0.026,-0.03l0.027,-0.029l0.029,-0.028l0.029,-0.027l0.03,-0.026l0.032,-0.024l0.032,-0.023l0.034,-0.022l0.034,-0.021l0.034,-0.019l0.036,-0.017l0.036,-0.017l0.037,-0.014l0.038,-0.014l1.465,-0.488l-1.856,-1.856l-0.028,-0.029l-0.026,-0.029l-0.025,-0.031l-0.024,-0.032l-0.023,-0.032l-0.021,-0.034l-0.02,-0.034l-0.019,-0.036l-0.017,-0.035l-0.016,-0.037l-0.014,-0.037l-0.013,-0.038l-0.011,-0.038l-0.01,-0.038l-0.008,-0.039l-0.007,-0.039l-0.005,-0.04l-0.004,-0.039l-0.002,-0.04l0,-0.04l0.001,-0.04l0.003,-0.039l0.004,-0.04l0.006,-0.039l0.008,-0.039l0.009,-0.039l0.01,-0.038l0.012,-0.038l0.014,-0.038l0.015,-0.036l0.016,-0.037l0.018,-0.035l0.02,-0.035l0.02,-0.034l0.022,-0.033l0.024,-0.032l0.024,-0.031l0.026,-0.031l0.027,-0.029l0.028,-0.028l0.029,-0.027l0.031,-0.026l0.031,-0.024l0.032,-0.024l0.033,-0.022l0.034,-0.02l0.035,-0.02l0.035,-0.018l0.037,-0.016l0.036,-0.015l0.038,-0.014l0.038,-0.012l0.038,-0.01l0.039,-0.009l0.039,-0.008l0.039,-0.006l0.04,-0.004l0.039,-0.003l0.04,-0.001l0.04,0Z"/><path d="M21,25.013l-0.001,0.111l-0.005,0.124l-0.008,0.124l-0.01,0.121l-0.014,0.124l-0.017,0.122l-0.019,0.12l-0.023,0.121l-0.025,0.12l-0.029,0.119l-0.031,0.117l-0.034,0.118l-0.037,0.117l-0.04,0.115l-0.042,0.114l-0.045,0.113l-0.049,0.113l-0.05,0.111l-0.054,0.109l-0.056,0.109l-0.059,0.106l-0.061,0.106l-0.064,0.104l-0.067,0.103l-0.069,0.101l-0.072,0.1l-0.075,0.098l-0.076,0.096l-0.079,0.094l-0.082,0.093l-0.085,0.091l-0.087,0.089l-0.088,0.086l-0.091,0.084l-0.093,0.083l-0.094,0.079l-0.096,0.077l-0.098,0.074l-0.099,0.072l-0.102,0.069l-0.103,0.067l-0.104,0.064l-0.106,0.061l-0.107,0.059l-0.108,0.056l-0.109,0.054l-0.111,0.05l-0.113,0.049l-0.113,0.045l-0.114,0.042l-0.115,0.04l-0.117,0.037l-0.117,0.034l-0.118,0.031l-0.119,0.029l-0.12,0.025l-0.121,0.023l-0.121,0.019l-0.121,0.017l-0.123,0.014l-0.123,0.01l-0.123,0.008l-0.124,0.005l-0.112,0.001l-0.026,0l-0.112,-0.001l-0.124,-0.005l-0.123,-0.008l-0.123,-0.01l-0.122,-0.014l-0.122,-0.017l-0.121,-0.019l-0.121,-0.023l-0.119,-0.025l-0.119,-0.029l-0.118,-0.031l-0.118,-0.034l-0.116,-0.037l-0.115,-0.04l-0.115,-0.042l-0.113,-0.045l-0.112,-0.048l-0.11,-0.051l-0.11,-0.054l-0.109,-0.056l-0.107,-0.059l-0.105,-0.061l-0.104,-0.064l-0.103,-0.067l-0.101,-0.069l-0.1,-0.072l-0.098,-0.074l-0.096,-0.077l-0.094,-0.079l-0.092,-0.082l-0.092,-0.084l-0.088,-0.087l-0.087,-0.088l-0.084,-0.092l-0.082,-0.092l-0.079,-0.094l-0.077,-0.096l-0.074,-0.098l-0.073,-0.1l-0.069,-0.102l-0.066,-0.101l-0.064,-0.105l-0.062,-0.106l-0.058,-0.107l-0.056,-0.107l-0.054,-0.111l-0.051,-0.11l-0.047,-0.112l-0.046,-0.114l-0.043,-0.114l-0.039,-0.116l-0.037,-0.115l-0.034,-0.117l-0.031,-0.118l-0.029,-0.12l-0.025,-0.12l-0.023,-0.12l-0.019,-0.121l-0.017,-0.121l-0.014,-0.123l-0.01,-0.123l-0.008,-0.123l-0.005,-0.124l-0.001,-0.112l0,-3.014l10,0l0,3.013Z" style="fill:#68114a;"/><path d="M23,20l-14,0c0,0 0.005,0.029 0.014,0.082c0.569,3.415 3.523,5.918 6.985,5.918c0.001,0 0.001,0 0.002,0c3.462,0 6.416,-2.503 6.985,-5.918c0.009,-0.053 0.014,-0.082 0.014,-0.082Z"/><path d="M19,22l-6,0c0,0 0,1.501 0,3.002c0,0.795 0.316,1.558 0.878,2.12c0.562,0.562 1.325,0.878 2.12,0.878c0.001,0 0.001,0 0.002,0c0.796,0 1.559,-0.316 2.121,-0.879c0.563,-0.562 0.879,-1.325 0.879,-2.121c0,-1.5 0,-3 0,-3Z" style="fill:#dd34a2;"/></g></g></svg>