<?xml version="1.0" encoding="UTF-8" standalone="no"?><!DOCTYPE svg PUBLIC "-//W3C//DTD SVG 1.1//EN" "http://www.w3.org/Graphics/SVG/1.1/DTD/svg11.dtd"><svg width="100%" height="100%" viewBox="0 0 32 32" version="1.1" xmlns="http://www.w3.org/2000/svg" xmlns:xlink="http://www.w3.org/1999/xlink" xml:space="preserve" style="fill-rule:evenodd;clip-rule:evenodd;stroke-linejoin:round;stroke-miterlimit:1.41421;">
<metadata>
<rdf:RDF xmlns:cc="http://web.resource.org/cc/"
         xmlns:rdf="http://www.w3.org/1999/02/22-rdf-syntax-ns#"
         xmlns:dc = "http://purl.org/dc/elements/1.1/"
         >

     <rdf:Description rdf:about="">
       <dc:title>Mutant Standard emoji v0.2.3</dc:title>
     </rdf:Description>

    <cc:work rdf:about="">
        <cc:license rdf:resource="http://creativecommons.org/licenses/by-nc-sa/4.0/"/>
        <cc:attributionName>Dzuk</cc:attributionName>
        <cc:attributionURL>http://mutant.tech/</cc:attributionURL>
    </cc:work>

</rdf:RDF>
</metadata>
<rect id="yum" x="0" y="0" width="32" height="32" style="fill:none;"/><g id="outline"><path d="M16.18,2.001c0.536,0.01 1.069,0.044 1.601,0.111c1.034,0.132 2.053,0.38 3.033,0.738c2.222,0.814 4.223,2.199 5.772,3.988c1.145,1.323 2.04,2.859 2.622,4.51c0.347,0.985 0.582,2.009 0.701,3.047c0.054,0.474 0.081,0.948 0.09,1.425c0.003,0.447 0.003,0.894 0,1.341c-0.008,0.429 -0.032,0.857 -0.079,1.283c-0.112,1.002 -0.341,1.991 -0.681,2.94c-0.61,1.7 -1.576,3.268 -2.821,4.577c-1.431,1.504 -3.221,2.654 -5.184,3.33c-0.903,0.311 -1.841,0.523 -2.79,0.629c-0.426,0.047 -0.854,0.071 -1.283,0.079c-0.774,0.005 -1.548,0.005 -2.322,0c-0.429,-0.008 -0.857,-0.032 -1.283,-0.079c-0.949,-0.106 -1.887,-0.318 -2.79,-0.629c-1.963,-0.676 -3.753,-1.826 -5.184,-3.33c-1.245,-1.309 -2.211,-2.877 -2.821,-4.577c-0.34,-0.949 -0.569,-1.938 -0.681,-2.94c-0.047,-0.426 -0.071,-0.854 -0.079,-1.283c-0.003,-0.447 -0.003,-0.894 0,-1.341c0.009,-0.477 0.036,-0.951 0.09,-1.425c0.119,-1.038 0.354,-2.062 0.701,-3.047c0.582,-1.651 1.477,-3.187 2.622,-4.51c1.549,-1.789 3.55,-3.174 5.772,-3.988c0.98,-0.358 1.999,-0.606 3.033,-0.738c0.532,-0.067 1.065,-0.101 1.601,-0.111c0.18,-0.001 0.18,-0.001 0.36,0Z" style="fill-rule:nonzero;"/></g><g id="emoji"><path d="M28,16c0,-6.627 -5.373,-12 -12,-12c0,0 0,0 0,0c-6.627,0 -12,5.373 -12,12c0,0.334 0,0.667 0,1c0,2.917 1.159,5.715 3.222,7.778c2.063,2.063 4.861,3.222 7.778,3.222c0.665,0 1.335,0 2,0c2.917,0 5.715,-1.159 7.778,-3.222c2.063,-2.063 3.222,-4.861 3.222,-7.778c0,-0.333 0,-0.666 0,-1Z" style="fill:#fbc546;"/><path d="M23.024,17.576l1.27,2.541c0.211,0.434 0.354,0.896 0.412,1.376c0.075,0.62 0.01,1.254 -0.187,1.847c-0.186,0.559 -0.49,1.077 -0.887,1.512c-0.233,0.256 -0.497,0.483 -0.785,0.674c-0.116,0.078 -0.237,0.148 -0.359,0.215l0.078,-0.04l-0.02,0.015l-0.246,0.119c-0.127,0.058 -0.255,0.112 -0.387,0.159c-0.326,0.115 -0.666,0.19 -1.01,0.223c-0.621,0.059 -1.255,-0.02 -1.842,-0.233c-0.586,-0.211 -1.123,-0.553 -1.563,-0.995c-0.317,-0.318 -0.576,-0.684 -0.781,-1.083l-1.4,-2.8l0.212,-0.107c0.032,0.001 0.063,0.001 0.095,0.001c0.25,0 0.502,0 0.752,0c2.652,0 5.124,-1.286 6.648,-3.424Z" style="fill:#68114a;"/><path d="M21.5,19l-4,2c0,0 0.5,1 1,2c0.265,0.53 0.73,0.934 1.293,1.121c0.562,0.188 1.177,0.144 1.707,-0.121c0,0 0,0 0,0c0.53,-0.265 0.934,-0.73 1.121,-1.293c0.188,-0.562 0.144,-1.177 -0.121,-1.707c-0.5,-1 -1,-2 -1,-2Z" style="fill:#dd34a2;"/><path d="M23.134,16.009l0.074,0.013l0.073,0.018l0.071,0.024l0.068,0.029l0.067,0.034l0.064,0.038l0.061,0.044l0.057,0.048l0.054,0.052l0.05,0.056l0.045,0.059l0.041,0.063l0.035,0.066l0.031,0.068l0.026,0.07l0.021,0.072l0.015,0.073l0.009,0.074l0.004,0.075l-0.002,0.075l-0.007,0.074l-0.013,0.074l-0.018,0.073l-0.024,0.07l-0.029,0.069l-0.018,0.036l0.001,-0.001l-0.062,0.122l-0.069,0.129l-0.07,0.127l-0.073,0.125l-0.074,0.124l-0.077,0.122l-0.079,0.121l-0.081,0.119l-0.082,0.117l-0.085,0.116l-0.086,0.114l-0.088,0.112l-0.09,0.111l-0.092,0.109l-0.093,0.107l-0.096,0.106l-0.096,0.103l-0.099,0.102l-0.1,0.1l-0.102,0.099l-0.104,0.096l-0.104,0.095l-0.107,0.092l-0.108,0.091l-0.11,0.089l-0.111,0.087l-0.112,0.085l-0.114,0.083l-0.115,0.081l-0.116,0.079l-0.118,0.077l-0.119,0.075l-0.12,0.073l-0.122,0.071l-0.123,0.069l-0.124,0.066l-0.125,0.065l-0.126,0.063l-0.128,0.06l-0.128,0.058l-0.13,0.056l-0.13,0.054l-0.131,0.052l-0.133,0.049l-0.134,0.047l-0.134,0.045l-0.135,0.043l-0.136,0.04l-0.137,0.038l-0.138,0.036l-0.138,0.033l-0.14,0.031l-0.139,0.029l-0.141,0.026l-0.141,0.024l-0.142,0.021l-0.143,0.019l-0.143,0.016l-0.144,0.014l-0.144,0.012l-0.145,0.009l-0.145,0.006l-0.145,0.004l-0.142,0.001l-1.064,0l-0.142,-0.001l-0.145,-0.004l-0.145,-0.007l-0.145,-0.008l-0.144,-0.012l-0.144,-0.014l-0.143,-0.016l-0.143,-0.019l-0.142,-0.021l-0.141,-0.024l-0.141,-0.026l-0.14,-0.029l-0.139,-0.031l-0.138,-0.033l-0.138,-0.036l-0.137,-0.038l-0.136,-0.04l-0.135,-0.043l-0.135,-0.045l-0.133,-0.047l-0.132,-0.049l-0.132,-0.052l-0.13,-0.054l-0.13,-0.056l-0.128,-0.058l-0.128,-0.06l-0.126,-0.063l-0.125,-0.065l-0.124,-0.066l-0.123,-0.069l-0.121,-0.071l-0.121,-0.073l-0.119,-0.075l-0.118,-0.077l-0.116,-0.079l-0.115,-0.081l-0.114,-0.083l-0.113,-0.085l-0.11,-0.087l-0.11,-0.089l-0.108,-0.091l-0.106,-0.092l-0.106,-0.095l-0.103,-0.096l-0.102,-0.099l-0.1,-0.1l-0.099,-0.101l-0.096,-0.104l-0.096,-0.106l-0.093,-0.107l-0.092,-0.109l-0.09,-0.111l-0.088,-0.112l-0.086,-0.114l-0.085,-0.116l-0.083,-0.117l-0.08,-0.119l-0.079,-0.121l-0.076,-0.122l-0.075,-0.124l-0.073,-0.125l-0.07,-0.127l-0.069,-0.129l-0.172,-0.336l0,-0.241l0.003,-0.075l0.008,-0.074l0.014,-0.074l0.019,-0.072l0.025,-0.07l0.03,-0.069l0.035,-0.066l0.04,-0.063l0.044,-0.06l0.049,-0.057l0.053,-0.053l0.057,-0.049l0.06,-0.044l0.063,-0.04l0.066,-0.035l0.069,-0.03l0.07,-0.025l0.073,-0.019l0.073,-0.014l0.074,-0.008l0.075,-0.003l0.075,0.003l0.074,0.008l0.074,0.014l0.072,0.019l0.07,0.025l0.069,0.03l0.066,0.035l0.063,0.04l0.061,0.044l0.056,0.049l0.053,0.053l0.049,0.057l0.044,0.06l0.04,0.063l0.025,0.047l0,-0.002l0.054,0.106l0.052,0.098l0.053,0.096l0.055,0.095l0.057,0.094l0.058,0.092l0.06,0.092l0.061,0.09l0.062,0.088l0.064,0.088l0.065,0.086l0.067,0.086l0.068,0.083l0.07,0.083l0.07,0.081l0.072,0.08l0.074,0.078l0.074,0.077l0.076,0.076l0.077,0.074l0.079,0.073l0.079,0.072l0.081,0.07l0.082,0.069l0.082,0.067l0.085,0.066l0.085,0.064l0.086,0.063l0.087,0.062l0.088,0.059l0.089,0.059l0.091,0.057l0.091,0.055l0.092,0.054l0.093,0.052l0.094,0.05l0.095,0.049l0.095,0.048l0.097,0.045l0.097,0.044l0.098,0.043l0.099,0.041l0.099,0.039l0.101,0.037l0.101,0.036l0.101,0.034l0.103,0.032l0.103,0.031l0.103,0.028l0.105,0.027l0.104,0.025l0.106,0.024l0.106,0.022l0.106,0.019l0.107,0.018l0.107,0.016l0.108,0.015l0.109,0.012l0.108,0.011l0.11,0.008l0.109,0.007l0.11,0.005l0.11,0.003l0.116,0.001l1.047,0l0.115,-0.001l0.11,-0.003l0.11,-0.005l0.109,-0.007l0.11,-0.008l0.108,-0.011l0.109,-0.012l0.108,-0.015l0.107,-0.016l0.107,-0.018l0.106,-0.019l0.106,-0.022l0.106,-0.024l0.104,-0.025l0.105,-0.027l0.103,-0.029l0.103,-0.03l0.103,-0.032l0.101,-0.034l0.101,-0.036l0.101,-0.037l0.099,-0.039l0.099,-0.041l0.098,-0.043l0.097,-0.044l0.097,-0.045l0.095,-0.048l0.095,-0.049l0.094,-0.05l0.093,-0.052l0.092,-0.054l0.091,-0.055l0.091,-0.057l0.089,-0.059l0.088,-0.059l0.087,-0.062l0.086,-0.063l0.086,-0.064l0.084,-0.066l0.082,-0.067l0.082,-0.069l0.081,-0.07l0.079,-0.072l0.079,-0.073l0.077,-0.074l0.076,-0.076l0.074,-0.077l0.074,-0.078l0.072,-0.08l0.071,-0.081l0.069,-0.083l0.068,-0.083l0.067,-0.085l0.065,-0.087l0.064,-0.088l0.062,-0.088l0.061,-0.091l0.06,-0.091l0.058,-0.092l0.057,-0.094l0.055,-0.095l0.053,-0.096l0.052,-0.097l0.204,-0.399l0.294,-0.147l0.068,-0.031l0.07,-0.026l0.072,-0.021l0.073,-0.015l0.074,-0.009l0.075,-0.004l0.075,0.002l0.074,0.007Z"/><path d="M23.707,12.293l0.028,0.029l0.026,0.029l0.025,0.031l0.024,0.032l0.023,0.032l0.021,0.034l0.02,0.034l0.019,0.036l0.017,0.035l0.016,0.037l0.014,0.037l0.013,0.038l0.011,0.038l0.01,0.038l0.008,0.039l0.007,0.039l0.005,0.04l0.004,0.039l0.002,0.04l0,0.04l-0.001,0.04l-0.003,0.039l-0.004,0.04l-0.006,0.039l-0.008,0.039l-0.009,0.039l-0.01,0.038l-0.012,0.038l-0.014,0.038l-0.015,0.036l-0.016,0.037l-0.018,0.035l-0.02,0.035l-0.02,0.034l-0.022,0.033l-0.024,0.032l-0.024,0.031l-0.026,0.031l-0.027,0.029l-0.028,0.028l-0.029,0.027l-0.031,0.026l-0.031,0.024l-0.032,0.024l-0.033,0.022l-0.034,0.02l-0.035,0.02l-0.035,0.018l-0.037,0.016l-0.036,0.015l-0.038,0.014l-0.038,0.012l-0.038,0.01l-0.039,0.009l-0.039,0.008l-0.039,0.006l-0.04,0.004l-0.039,0.003l-0.04,0.001l-0.04,0l-0.04,-0.002l-0.039,-0.004l-0.04,-0.005l-0.039,-0.007l-0.039,-0.008l-0.038,-0.01l-0.038,-0.011l-0.038,-0.013l-0.037,-0.014l-0.037,-0.016l-0.035,-0.017l-0.036,-0.019l-0.034,-0.02l-0.034,-0.021l-0.032,-0.023l-0.032,-0.024l-0.031,-0.025l-0.029,-0.026l-0.029,-0.028l-1.293,-1.293l-1.293,1.293l-0.029,0.028l-0.029,0.026l-0.031,0.025l-0.032,0.024l-0.032,0.023l-0.034,0.021l-0.034,0.02l-0.036,0.019l-0.035,0.017l-0.037,0.016l-0.037,0.014l-0.038,0.013l-0.038,0.011l-0.038,0.01l-0.039,0.008l-0.039,0.007l-0.04,0.005l-0.039,0.004l-0.04,0.002l-0.04,0l-0.04,-0.001l-0.039,-0.003l-0.04,-0.004l-0.039,-0.006l-0.039,-0.008l-0.039,-0.009l-0.038,-0.01l-0.038,-0.012l-0.038,-0.014l-0.036,-0.015l-0.037,-0.016l-0.035,-0.018l-0.035,-0.02l-0.034,-0.02l-0.033,-0.022l-0.032,-0.024l-0.031,-0.024l-0.031,-0.026l-0.029,-0.027l-0.028,-0.028l-0.027,-0.029l-0.026,-0.031l-0.024,-0.031l-0.024,-0.032l-0.022,-0.033l-0.02,-0.034l-0.02,-0.035l-0.018,-0.035l-0.016,-0.037l-0.015,-0.036l-0.014,-0.038l-0.012,-0.038l-0.01,-0.038l-0.009,-0.039l-0.008,-0.039l-0.006,-0.039l-0.004,-0.04l-0.003,-0.039l-0.001,-0.04l0,-0.04l0.002,-0.04l0.004,-0.039l0.005,-0.04l0.007,-0.039l0.008,-0.039l0.01,-0.038l0.011,-0.038l0.013,-0.038l0.014,-0.037l0.016,-0.037l0.017,-0.035l0.019,-0.036l0.02,-0.034l0.021,-0.034l0.023,-0.032l0.024,-0.032l0.025,-0.031l0.026,-0.029l0.028,-0.029l2.707,-2.707l2.707,2.707Z"/><path d="M13.707,12.293l0.028,0.029l0.026,0.029l0.025,0.031l0.024,0.032l0.023,0.032l0.021,0.034l0.02,0.034l0.019,0.036l0.017,0.035l0.016,0.037l0.014,0.037l0.013,0.038l0.011,0.038l0.01,0.038l0.008,0.039l0.007,0.039l0.005,0.04l0.004,0.039l0.002,0.04l0,0.04l-0.001,0.04l-0.003,0.039l-0.004,0.04l-0.006,0.039l-0.008,0.039l-0.009,0.039l-0.01,0.038l-0.012,0.038l-0.014,0.038l-0.015,0.036l-0.016,0.037l-0.018,0.035l-0.02,0.035l-0.02,0.034l-0.022,0.033l-0.024,0.032l-0.024,0.031l-0.026,0.031l-0.027,0.029l-0.028,0.028l-0.029,0.027l-0.031,0.026l-0.031,0.024l-0.032,0.024l-0.033,0.022l-0.034,0.02l-0.035,0.02l-0.035,0.018l-0.037,0.016l-0.036,0.015l-0.038,0.014l-0.038,0.012l-0.038,0.01l-0.039,0.009l-0.039,0.008l-0.039,0.006l-0.04,0.004l-0.039,0.003l-0.04,0.001l-0.04,0l-0.04,-0.002l-0.039,-0.004l-0.04,-0.005l-0.039,-0.007l-0.039,-0.008l-0.038,-0.01l-0.038,-0.011l-0.038,-0.013l-0.037,-0.014l-0.037,-0.016l-0.035,-0.017l-0.036,-0.019l-0.034,-0.02l-0.034,-0.021l-0.032,-0.023l-0.032,-0.024l-0.031,-0.025l-0.029,-0.026l-0.029,-0.028l-1.293,-1.293l-1.293,1.293l-0.029,0.028l-0.029,0.026l-0.031,0.025l-0.032,0.024l-0.032,0.023l-0.034,0.021l-0.034,0.02l-0.036,0.019l-0.035,0.017l-0.037,0.016l-0.037,0.014l-0.038,0.013l-0.038,0.011l-0.038,0.01l-0.039,0.008l-0.039,0.007l-0.04,0.005l-0.039,0.004l-0.04,0.002l-0.04,0l-0.04,-0.001l-0.039,-0.003l-0.04,-0.004l-0.039,-0.006l-0.039,-0.008l-0.039,-0.009l-0.038,-0.01l-0.038,-0.012l-0.038,-0.014l-0.036,-0.015l-0.037,-0.016l-0.035,-0.018l-0.035,-0.02l-0.034,-0.02l-0.033,-0.022l-0.032,-0.024l-0.031,-0.024l-0.031,-0.026l-0.029,-0.027l-0.028,-0.028l-0.027,-0.029l-0.026,-0.031l-0.024,-0.031l-0.024,-0.032l-0.022,-0.033l-0.02,-0.034l-0.02,-0.035l-0.018,-0.035l-0.016,-0.037l-0.015,-0.036l-0.014,-0.038l-0.012,-0.038l-0.01,-0.038l-0.009,-0.039l-0.008,-0.039l-0.006,-0.039l-0.004,-0.04l-0.003,-0.039l-0.001,-0.04l0,-0.04l0.002,-0.04l0.004,-0.039l0.005,-0.04l0.007,-0.039l0.008,-0.039l0.01,-0.038l0.011,-0.038l0.013,-0.038l0.014,-0.037l0.016,-0.037l0.017,-0.035l0.019,-0.036l0.02,-0.034l0.021,-0.034l0.023,-0.032l0.024,-0.032l0.025,-0.031l0.026,-0.029l0.028,-0.029l2.707,-2.707l2.707,2.707Z"/></g></svg>