<?xml version="1.0" encoding="UTF-8" standalone="no"?><!DOCTYPE svg PUBLIC "-//W3C//DTD SVG 1.1//EN" "http://www.w3.org/Graphics/SVG/1.1/DTD/svg11.dtd"><svg width="100%" height="100%" viewBox="0 0 32 32" version="1.1" xmlns="http://www.w3.org/2000/svg" xmlns:xlink="http://www.w3.org/1999/xlink" xml:space="preserve" style="fill-rule:evenodd;clip-rule:evenodd;stroke-linejoin:round;stroke-miterlimit:1.41421;">
<metadata>
<rdf:RDF xmlns:cc="http://web.resource.org/cc/"
         xmlns:rdf="http://www.w3.org/1999/02/22-rdf-syntax-ns#"
         xmlns:dc = "http://purl.org/dc/elements/1.1/"
         >

     <rdf:Description rdf:about="">
       <dc:title>Mutant Standard emoji v0.2.3</dc:title>
     </rdf:Description>

    <cc:work rdf:about="">
        <cc:license rdf:resource="http://creativecommons.org/licenses/by-nc-sa/4.0/"/>
        <cc:attributionName>Dzuk</cc:attributionName>
        <cc:attributionURL>http://mutant.tech/</cc:attributionURL>
    </cc:work>

</rdf:RDF>
</metadata>
<rect id="zippy_face" x="0" y="0" width="32" height="32" style="fill:none;"/><g id="outline"><path d="M16.174,2.001c0.462,0.009 0.922,0.034 1.381,0.086c1.022,0.114 2.032,0.341 3.004,0.676c2.389,0.823 4.535,2.297 6.16,4.232c1.066,1.268 1.902,2.725 2.461,4.284c0.366,1.022 0.613,2.087 0.733,3.166c0.052,0.459 0.077,0.919 0.086,1.381c0.009,1.434 0.01,2.869 0,4.303c-0.007,0.382 -0.031,0.763 -0.079,1.142c-0.094,0.739 -0.271,1.467 -0.527,2.167c-0.512,1.399 -1.341,2.677 -2.407,3.717c-1.008,0.985 -2.224,1.753 -3.547,2.238c-0.74,0.27 -1.511,0.452 -2.293,0.542c-0.338,0.039 -0.677,0.058 -1.017,0.064c-2.753,0.017 -5.505,0.017 -8.258,0c-0.34,-0.006 -0.679,-0.025 -1.017,-0.064c-0.741,-0.085 -1.473,-0.253 -2.177,-0.501c-1.217,-0.429 -2.347,-1.096 -3.312,-1.952c-1.234,-1.095 -2.19,-2.494 -2.758,-4.044c-0.27,-0.739 -0.452,-1.51 -0.542,-2.292c-0.039,-0.338 -0.058,-0.677 -0.064,-1.017c-0.009,-1.437 -0.009,-2.873 0,-4.309c0.009,-0.477 0.036,-0.951 0.09,-1.425c0.119,-1.038 0.354,-2.062 0.701,-3.047c0.675,-1.916 1.772,-3.675 3.191,-5.128c1.457,-1.492 3.245,-2.653 5.203,-3.37c1.035,-0.379 2.114,-0.634 3.209,-0.759c0.473,-0.054 0.948,-0.081 1.425,-0.09c0.177,-0.001 0.177,-0.001 0.354,0Z" style="fill-rule:nonzero;"/></g><g id="emoji"><path d="M28,16c0,-3.183 -1.264,-6.235 -3.515,-8.485c-2.25,-2.251 -5.302,-3.515 -8.485,-3.515c0,0 0,0 0,0c-6.627,0 -12,5.373 -12,12c0,1.356 0,2.713 0,4c0,4.418 3.582,8 8,8c2.574,0 5.426,0 8,0c4.418,0 8,-3.582 8,-8c0,-1.287 0,-2.644 0,-4Z" style="fill:#fbc546;"/><path d="M24.414,21l-0.828,2l-1.586,-1.586l-2,2l-2,-2l-2,2l-2,-2l-2,2l-2,-2l-1.586,1.586l-1.414,0l-0.085,-0.004c-0.075,-0.009 -0.094,-0.009 -0.167,-0.028c-0.192,-0.05 -0.367,-0.158 -0.499,-0.307c-0.075,-0.085 -0.135,-0.183 -0.177,-0.288c-0.139,-0.347 -0.07,-0.753 0.177,-1.034c0.075,-0.085 0.164,-0.157 0.263,-0.212c0.099,-0.055 0.207,-0.093 0.319,-0.113c0.074,-0.012 0.094,-0.011 0.169,-0.014l0.586,0l2.414,-2.414l2,2l2,-2l2,2l2,-2l2,2l2,-2c0.805,0.805 1.609,1.609 2.414,2.414Z" style="fill-rule:nonzero;"/><path d="M12,13.498c0,-0.827 -0.671,-1.498 -1.498,-1.498c-0.001,0 -0.001,0 -0.002,0c-0.398,0 -0.779,0.158 -1.061,0.439c-0.281,0.282 -0.439,0.663 -0.439,1.061c0,0.633 0,1.367 0,2c0,0.398 0.158,0.779 0.439,1.061c0.282,0.281 0.663,0.439 1.061,0.439c0.398,0 0.779,-0.158 1.061,-0.439c0.281,-0.282 0.439,-0.663 0.439,-1.061c0,-0.633 0,-1.369 0,-2.002Z"/><path d="M23,13.5c0,-0.398 -0.158,-0.779 -0.439,-1.061c-0.282,-0.281 -0.663,-0.439 -1.061,-0.439c-0.398,0 -0.779,0.158 -1.061,0.439c-0.281,0.282 -0.439,0.663 -0.439,1.061c0,0.633 0,1.367 0,2c0,0.398 0.158,0.779 0.439,1.061c0.282,0.281 0.663,0.439 1.061,0.439c0.398,0 0.779,-0.158 1.061,-0.439c0.281,-0.282 0.439,-0.663 0.439,-1.061c0,-0.633 0,-1.367 0,-2Z"/><path d="M30.424,22.595c0.296,0.305 0.539,0.654 0.708,1.045c0.295,0.68 0.361,1.451 0.185,2.171c-0.079,0.324 -0.206,0.637 -0.376,0.925c-0.176,0.297 -0.397,0.567 -0.652,0.798c-0.295,0.267 -0.637,0.481 -1.006,0.631c-0.381,0.154 -0.79,0.239 -1.201,0.248c-0.439,0.011 -0.878,-0.064 -1.288,-0.218c-0.451,-0.17 -0.854,-0.436 -1.198,-0.771l-3.596,-3.596l0,-4.828l4.828,0c1.199,1.198 2.397,2.397 3.596,3.595Z" style="fill-rule:nonzero;"/><path d="M24,21l2,0c0,0 1.815,1.815 3,3c0.552,0.552 0.552,1.448 0,2c0,0 0,0 0,0c-0.552,0.552 -1.448,0.552 -2,0c-1.185,-1.185 -3,-3 -3,-3l0,-2Z" style="fill:#a29e90;"/></g></svg>