<?xml version="1.0" encoding="UTF-8" standalone="no"?>
<!DOCTYPE svg PUBLIC "-//W3C//DTD SVG 1.1//EN" "http://www.w3.org/Graphics/SVG/1.1/DTD/svg11.dtd">
<svg width="100%" height="100%" viewBox="0 0 32 32" version="1.1" xmlns="http://www.w3.org/2000/svg" xmlns:xlink="http://www.w3.org/1999/xlink" xml:space="preserve" xmlns:serif="http://www.serif.com/" style="fill-rule:evenodd;clip-rule:evenodd;stroke-linejoin:round;stroke-miterlimit:1.41421;">
<metadata>
<rdf:RDF xmlns:cc="http://web.resource.org/cc/"
         xmlns:rdf="http://www.w3.org/1999/02/22-rdf-syntax-ns#"
         xmlns:dc = "http://purl.org/dc/elements/1.1/"
         >

     <rdf:Description rdf:about="">
       <dc:title>Mutant Standard emoji v0.2.3</dc:title>
     </rdf:Description>

    <cc:work rdf:about="">
        <cc:license rdf:resource="http://creativecommons.org/licenses/by-nc-sa/4.0/"/>
        <cc:attributionName>Dzuk</cc:attributionName>
        <cc:attributionURL>http://mutant.tech/</cc:attributionURL>
    </cc:work>

</rdf:RDF>
</metadata>

    <rect id="awoo" x="0" y="0" width="32" height="32" style="fill:none;"/>
    <clipPath id="_clip1">
        <rect x="0" y="0" width="32" height="32"/>
    </clipPath>
    <g clip-path="url(#_clip1)">
        <g id="outline">
            <path d="M32,8c0,-4.418 -3.582,-8 -8,-8c-4.887,0 -11.113,0 -16,0c-4.418,0 -8,3.582 -8,8c0,4.887 0,11.113 0,16c0,4.418 3.582,8 8,8c4.887,0 11.113,0 16,0c4.418,0 8,-3.582 8,-8c0,-4.887 0,-11.113 0,-16Z"/>
        </g>
        <g id="emoji">
            <path d="M29.874,8c0,-1.591 -0.632,-3.117 -1.757,-4.243c-1.125,-1.125 -2.651,-1.757 -4.243,-1.757c-4.723,0 -11.276,0 -16,0c-1.591,0 -3.117,0.632 -4.242,1.757c-1.125,1.126 -1.758,2.652 -1.758,4.243c0,4.724 0,11.276 0,16c0,1.591 0.633,3.117 1.758,4.243c1.125,1.125 2.651,1.757 4.242,1.757c4.724,0 11.277,0 16,0c1.592,0 3.118,-0.632 4.243,-1.757c1.125,-1.126 1.757,-2.652 1.757,-4.243c0,-4.724 0,-11.276 0,-16Z" style="fill:#5462cb;"/>
            <g>
                <path d="M6.019,13.348l1.208,0l1.739,5.296l-1.02,0l-0.368,-1.142l-1.967,0l-0.375,1.142l-1.02,0l1.803,-5.296Zm-0.163,3.427l1.486,0l-0.735,-2.277l-0.751,2.277Z" style="fill:#fff;fill-rule:nonzero;"/>
                <path d="M10.125,13.348l1.167,4.023l1.134,-3.673l0.653,0l1.2,3.689l1.24,-4.039l1.086,0l-1.82,5.296l-1.012,0l-0.996,-2.987l-0.987,2.987l-1.012,0l-1.731,-5.296l1.078,0Z" style="fill:#fff;fill-rule:nonzero;"/>
                <path d="M19.559,13.241c0.354,0 0.678,0.059 0.972,0.176c0.293,0.117 0.546,0.29 0.759,0.518c0.446,0.479 0.669,1.165 0.669,2.057c0,0.898 -0.223,1.591 -0.669,2.081c-0.425,0.457 -1.004,0.686 -1.739,0.686c-0.729,0 -1.306,-0.234 -1.73,-0.702c-0.446,-0.485 -0.669,-1.173 -0.669,-2.065c0,-0.903 0.223,-1.594 0.669,-2.073c0.419,-0.452 0.998,-0.678 1.738,-0.678Zm1.025,1.359c-0.253,-0.329 -0.595,-0.493 -1.025,-0.493c-0.429,0 -0.772,0.164 -1.028,0.493c-0.256,0.329 -0.384,0.797 -0.384,1.404c0,0.607 0.128,1.072 0.384,1.396c0.256,0.323 0.599,0.485 1.028,0.485c0.43,0 0.772,-0.162 1.025,-0.485c0.253,-0.324 0.379,-0.789 0.379,-1.396c0,-0.607 -0.126,-1.075 -0.379,-1.404Z" style="fill:#fff;fill-rule:nonzero;"/>
                <path d="M25.134,13.241c0.353,0 0.677,0.059 0.971,0.176c0.294,0.117 0.547,0.29 0.759,0.518c0.446,0.479 0.669,1.165 0.669,2.057c0,0.898 -0.223,1.591 -0.669,2.081c-0.424,0.457 -1.004,0.686 -1.738,0.686c-0.73,0 -1.306,-0.234 -1.731,-0.702c-0.446,-0.485 -0.669,-1.173 -0.669,-2.065c0,-0.903 0.223,-1.594 0.669,-2.073c0.419,-0.452 0.999,-0.678 1.739,-0.678Zm1.024,1.359c-0.253,-0.329 -0.594,-0.493 -1.024,-0.493c-0.43,0 -0.773,0.164 -1.029,0.493c-0.255,0.329 -0.383,0.797 -0.383,1.404c0,0.607 0.128,1.072 0.383,1.396c0.256,0.323 0.599,0.485 1.029,0.485c0.43,0 0.771,-0.162 1.024,-0.485c0.253,-0.324 0.379,-0.789 0.379,-1.396c0,-0.607 -0.126,-1.075 -0.379,-1.404Z" style="fill:#fff;fill-rule:nonzero;"/>
            </g>
        </g>
    </g>
</svg>
