<?xml version="1.0" encoding="UTF-8" standalone="no"?>
<!DOCTYPE svg PUBLIC "-//W3C//DTD SVG 1.1//EN" "http://www.w3.org/Graphics/SVG/1.1/DTD/svg11.dtd">
<svg width="100%" height="100%" viewBox="0 0 32 32" version="1.1" xmlns="http://www.w3.org/2000/svg" xmlns:xlink="http://www.w3.org/1999/xlink" xml:space="preserve" xmlns:serif="http://www.serif.com/" style="fill-rule:evenodd;clip-rule:evenodd;stroke-linejoin:round;stroke-miterlimit:1.41421;">
<metadata>
<rdf:RDF xmlns:cc="http://web.resource.org/cc/"
         xmlns:rdf="http://www.w3.org/1999/02/22-rdf-syntax-ns#"
         xmlns:dc = "http://purl.org/dc/elements/1.1/"
         >

     <rdf:Description rdf:about="">
       <dc:title>Mutant Standard emoji v0.2.3</dc:title>
     </rdf:Description>

    <cc:work rdf:about="">
        <cc:license rdf:resource="http://creativecommons.org/licenses/by-nc-sa/4.0/"/>
        <cc:attributionName>Dzuk</cc:attributionName>
        <cc:attributionURL>http://mutant.tech/</cc:attributionURL>
    </cc:work>

</rdf:RDF>
</metadata>

    <rect id="dont_awoo" x="0" y="0" width="32" height="32" style="fill:none;"/>
    <clipPath id="_clip1">
        <rect x="0" y="0" width="32" height="32"/>
    </clipPath>
    <g clip-path="url(#_clip1)">
        <g id="outline">
            <path d="M32,8c0,-4.418 -3.582,-8 -8,-8c-4.887,0 -11.113,0 -16,0c-4.418,0 -8,3.582 -8,8c0,4.887 0,11.113 0,16c0,4.418 3.582,8 8,8c4.887,0 11.113,0 16,0c4.418,0 8,-3.582 8,-8c0,-4.887 0,-11.113 0,-16Z"/>
        </g>
        <g id="emoji">
            <path d="M30,8c0,-1.591 -0.632,-3.117 -1.757,-4.243c-1.126,-1.125 -2.652,-1.757 -4.243,-1.757c-4.724,0 -11.276,0 -16,0c-1.591,0 -3.117,0.632 -4.243,1.757c-1.125,1.126 -1.757,2.652 -1.757,4.243c0,4.724 0,11.276 0,16c0,1.591 0.632,3.117 1.757,4.243c1.126,1.125 2.652,1.757 4.243,1.757c4.724,0 11.276,0 16,0c1.591,0 3.117,-0.632 4.243,-1.757c1.125,-1.126 1.757,-2.652 1.757,-4.243c0,-4.724 0,-11.276 0,-16Z" style="fill:#d72d34;"/>
            <g>
                <g>
                    <path d="M6.514,9.576c0.83,0 1.5,0.245 2.01,0.734c0.516,0.49 0.774,1.149 0.774,1.978c0,0.824 -0.258,1.48 -0.774,1.97c-0.51,0.489 -1.18,0.734 -2.01,0.734l-1.775,0l0,-5.416l1.775,0Zm-0.774,4.523l0.774,0c0.516,0 0.934,-0.172 1.253,-0.517c0.303,-0.334 0.455,-0.765 0.455,-1.294c0,-0.539 -0.152,-0.976 -0.455,-1.31c-0.314,-0.339 -0.732,-0.509 -1.253,-0.509l-0.774,0l0,3.63Z" style="fill:#fff;fill-rule:nonzero;"/>
                    <path d="M12.613,9.468c0.365,0 0.698,0.059 1.001,0.179c0.303,0.12 0.564,0.296 0.782,0.53c0.46,0.49 0.69,1.191 0.69,2.103c0,0.918 -0.23,1.627 -0.69,2.128c-0.437,0.467 -1.034,0.701 -1.791,0.701c-0.752,0 -1.346,-0.239 -1.784,-0.718c-0.46,-0.495 -0.69,-1.199 -0.69,-2.111c0,-0.924 0.23,-1.63 0.69,-2.12c0.432,-0.462 1.029,-0.692 1.792,-0.692Zm1.056,1.389c-0.261,-0.336 -0.613,-0.505 -1.056,-0.505c-0.443,0 -0.796,0.169 -1.06,0.505c-0.264,0.337 -0.395,0.815 -0.395,1.436c0,0.62 0.131,1.096 0.395,1.427c0.264,0.331 0.617,0.496 1.06,0.496c0.443,0 0.795,-0.165 1.056,-0.496c0.261,-0.331 0.391,-0.807 0.391,-1.427c0,-0.621 -0.13,-1.099 -0.391,-1.436Z" style="fill:#fff;fill-rule:nonzero;"/>
                    <path d="M17.332,9.576l2.407,3.839l0,-3.839l0.992,0l0,5.416l-1.009,0l-2.482,-3.972l0,3.972l-0.993,0l0,-5.416l1.085,0Z" style="fill:#fff;fill-rule:nonzero;"/>
                    <path d="M22.767,9.342l-0.135,1.987l-0.731,0l-0.127,-1.987l0.993,0Z" style="fill:#fff;fill-rule:nonzero;"/>
                    <path d="M23.078,9.576l4.375,0l0,0.851l-1.691,0l0,4.565l-0.993,0l0,-4.565l-1.691,0l0,-0.851Z" style="fill:#fff;fill-rule:nonzero;"/>
                </g>
                <g>
                    <path d="M5.471,17.921l1.245,0l1.792,5.417l-1.052,0l-0.379,-1.169l-2.027,0l-0.387,1.169l-1.052,0l1.86,-5.417Zm-0.169,3.506l1.531,0l-0.757,-2.329l-0.774,2.329Z" style="fill:#fff;fill-rule:nonzero;"/>
                    <path d="M9.702,17.921l1.203,4.115l1.17,-3.756l0.673,0l1.236,3.772l1.279,-4.131l1.119,0l-1.876,5.417l-1.043,0l-1.027,-3.055l-1.018,3.055l-1.043,0l-1.783,-5.417l1.11,0Z" style="fill:#fff;fill-rule:nonzero;"/>
                    <path d="M19.427,17.813c0.365,0 0.698,0.06 1.001,0.179c0.303,0.12 0.564,0.297 0.783,0.53c0.46,0.49 0.69,1.191 0.69,2.103c0,0.918 -0.23,1.628 -0.69,2.128c-0.438,0.468 -1.035,0.701 -1.792,0.701c-0.752,0 -1.346,-0.239 -1.784,-0.717c-0.46,-0.495 -0.69,-1.199 -0.69,-2.112c0,-0.923 0.23,-1.63 0.69,-2.119c0.432,-0.462 1.029,-0.693 1.792,-0.693Zm1.056,1.389c-0.261,-0.336 -0.613,-0.504 -1.056,-0.504c-0.443,0 -0.796,0.168 -1.06,0.504c-0.263,0.337 -0.395,0.816 -0.395,1.436c0,0.62 0.132,1.096 0.395,1.427c0.264,0.331 0.617,0.497 1.06,0.497c0.443,0 0.795,-0.166 1.056,-0.497c0.261,-0.331 0.391,-0.807 0.391,-1.427c0,-0.62 -0.13,-1.099 -0.391,-1.436Z" style="fill:#fff;fill-rule:nonzero;"/>
                    <path d="M25.173,17.813c0.365,0 0.698,0.06 1.001,0.179c0.303,0.12 0.564,0.297 0.783,0.53c0.46,0.49 0.689,1.191 0.689,2.103c0,0.918 -0.229,1.628 -0.689,2.128c-0.438,0.468 -1.035,0.701 -1.792,0.701c-0.752,0 -1.346,-0.239 -1.784,-0.717c-0.46,-0.495 -0.69,-1.199 -0.69,-2.112c0,-0.923 0.23,-1.63 0.69,-2.119c0.432,-0.462 1.029,-0.693 1.792,-0.693Zm1.056,1.389c-0.261,-0.336 -0.613,-0.504 -1.056,-0.504c-0.443,0 -0.796,0.168 -1.06,0.504c-0.263,0.337 -0.395,0.816 -0.395,1.436c0,0.62 0.132,1.096 0.395,1.427c0.264,0.331 0.617,0.497 1.06,0.497c0.443,0 0.795,-0.166 1.056,-0.497c0.261,-0.331 0.391,-0.807 0.391,-1.427c0,-0.62 -0.13,-1.099 -0.391,-1.436Z" style="fill:#fff;fill-rule:nonzero;"/>
                </g>
            </g>
        </g>
    </g>
</svg>
