<?xml version="1.0" encoding="UTF-8" standalone="no"?><!DOCTYPE svg PUBLIC "-//W3C//DTD SVG 1.1//EN" "http://www.w3.org/Graphics/SVG/1.1/DTD/svg11.dtd"><svg width="100%" height="100%" viewBox="0 0 32 32" version="1.1" xmlns="http://www.w3.org/2000/svg" xmlns:xlink="http://www.w3.org/1999/xlink" xml:space="preserve" style="fill-rule:evenodd;clip-rule:evenodd;stroke-linejoin:round;stroke-miterlimit:1.41421;">
<metadata>
<rdf:RDF xmlns:cc="http://web.resource.org/cc/"
         xmlns:rdf="http://www.w3.org/1999/02/22-rdf-syntax-ns#"
         xmlns:dc = "http://purl.org/dc/elements/1.1/"
         >

     <rdf:Description rdf:about="">
       <dc:title>Mutant Standard emoji v0.2.3</dc:title>
     </rdf:Description>

    <cc:work rdf:about="">
        <cc:license rdf:resource="http://creativecommons.org/licenses/by-nc-sa/4.0/"/>
        <cc:attributionName>Dzuk</cc:attributionName>
        <cc:attributionURL>http://mutant.tech/</cc:attributionURL>
    </cc:work>

</rdf:RDF>
</metadata>
<rect id="haircut" x="0" y="0" width="32" height="32" style="fill:none;"/><clipPath id="_clip1"><rect x="0" y="0" width="32" height="32"/></clipPath><g clip-path="url(#_clip1)"><g id="outline"><path d="M13.292,13l-8.634,-4.317c-0.121,-0.064 -0.239,-0.13 -0.353,-0.207c-0.263,-0.18 -0.496,-0.403 -0.69,-0.656c-0.221,-0.29 -0.388,-0.62 -0.492,-0.969c-0.077,-0.262 -0.119,-0.535 -0.123,-0.808c-0.011,-0.778 0.289,-1.544 0.825,-2.109c0.219,-0.231 0.476,-0.427 0.757,-0.577c0.28,-0.151 0.585,-0.257 0.899,-0.312c0.136,-0.024 0.271,-0.035 0.407,-0.043c0.137,-0.002 0.137,-0.002 0.274,0.002c0.182,0.014 0.361,0.036 0.539,0.079c0.224,0.054 0.434,0.136 0.641,0.234l10.808,5.404c0.102,-0.425 0.254,-0.838 0.454,-1.227c0.544,-1.062 1.435,-1.932 2.51,-2.45c0.489,-0.236 1.014,-0.399 1.552,-0.481c0.23,-0.035 0.461,-0.053 0.694,-0.061c0.141,-0.002 0.14,-0.002 0.28,0c0.233,0.008 0.464,0.026 0.694,0.061c0.538,0.082 1.063,0.245 1.552,0.481c1.075,0.518 1.966,1.388 2.51,2.45c0.248,0.482 0.423,1.001 0.518,1.535c0.099,0.55 0.113,1.114 0.042,1.668c-0.074,0.585 -0.244,1.157 -0.5,1.689c-0.102,0.212 -0.218,0.417 -0.346,0.614c0.104,0.159 0.199,0.324 0.286,0.494c0.248,0.482 0.423,1.001 0.518,1.535c0.099,0.55 0.113,1.114 0.042,1.668c-0.074,0.585 -0.244,1.157 -0.5,1.689c-0.287,0.596 -0.682,1.138 -1.161,1.595c-0.48,0.457 -1.042,0.827 -1.653,1.085c-0.676,0.286 -1.408,0.434 -2.142,0.434c-0.734,0 -1.466,-0.148 -2.142,-0.434c-0.611,-0.258 -1.173,-0.628 -1.653,-1.085c-0.479,-0.457 -0.874,-0.999 -1.161,-1.595c-0.171,-0.354 -0.303,-0.725 -0.394,-1.107l-10.272,5.136c-0.124,0.059 -2.805,-5.302 -2.683,-5.366l8.097,-4.049Z"/></g><g id="emoji"><path d="M22.086,11.004c0.069,0.008 0.087,0.009 0.155,0.025c0.127,0.032 0.248,0.089 0.353,0.166c0.345,0.255 0.49,0.715 0.355,1.121c-0.033,0.1 -0.082,0.194 -0.144,0.278c-0.063,0.084 -0.138,0.159 -0.223,0.219c-0.057,0.041 -0.074,0.048 -0.135,0.081l-16,8c-0.063,0.029 -0.079,0.038 -0.145,0.059c-0.1,0.032 -0.205,0.048 -0.31,0.047c-0.104,-0.001 -0.209,-0.018 -0.308,-0.051c-0.407,-0.136 -0.687,-0.528 -0.684,-0.957c0.001,-0.104 0.018,-0.209 0.051,-0.308c0.058,-0.174 0.165,-0.331 0.305,-0.449c0.061,-0.052 0.127,-0.091 0.197,-0.129l16,-8c0.072,-0.033 0.143,-0.062 0.221,-0.08c0.068,-0.016 0.086,-0.016 0.155,-0.023c0.079,-0.003 0.078,-0.003 0.157,0.001Z" style="fill:#cacaca;fill-rule:nonzero;"/><clipPath id="_clip2"><path d="M22.086,11.004c0.069,0.008 0.087,0.009 0.155,0.025c0.127,0.032 0.248,0.089 0.353,0.166c0.345,0.255 0.49,0.715 0.355,1.121c-0.033,0.1 -0.082,0.194 -0.144,0.278c-0.063,0.084 -0.138,0.159 -0.223,0.219c-0.057,0.041 -0.074,0.048 -0.135,0.081l-16,8c-0.063,0.029 -0.079,0.038 -0.145,0.059c-0.1,0.032 -0.205,0.048 -0.31,0.047c-0.104,-0.001 -0.209,-0.018 -0.308,-0.051c-0.407,-0.136 -0.687,-0.528 -0.684,-0.957c0.001,-0.104 0.018,-0.209 0.051,-0.308c0.058,-0.174 0.165,-0.331 0.305,-0.449c0.061,-0.052 0.127,-0.091 0.197,-0.129l16,-8c0.072,-0.033 0.143,-0.062 0.221,-0.08c0.068,-0.016 0.086,-0.016 0.155,-0.023c0.079,-0.003 0.078,-0.003 0.157,0.001Z" clip-rule="nonzero"/></clipPath><g clip-path="url(#_clip2)"><path d="M3.086,6.714c-0.224,-0.915 20.301,4.626 20.301,4.626c0.161,0.091 0.319,0.185 0.465,0.299c0.351,0.275 0.639,0.63 0.837,1.03c0.148,0.3 0.246,0.624 0.288,0.956c0.035,0.277 0.031,0.56 -0.013,0.836c-0.114,0.73 -0.504,1.404 -1.077,1.87c-0.215,0.175 -0.455,0.32 -0.71,0.429c-0.364,0.155 -0.759,0.237 -1.154,0.24c-0.357,0.003 -0.715,-0.059 -1.051,-0.181c-0.096,-0.035 -0.189,-0.077 -0.283,-0.12l-16.062,-8.031c-0.129,-0.07 -0.254,-0.143 -0.374,-0.229c-0.319,-0.228 -0.592,-0.52 -0.8,-0.853c-0.167,-0.269 -0.292,-0.564 -0.367,-0.872Z" style="fill:#999;fill-rule:nonzero;"/></g><path d="M13.055,18.583c1.84,2.759 4.937,4.417 8.254,4.417c0,0 0.001,0 0.001,0c2.04,0 3.995,0.81 5.438,2.252c1.442,1.443 2.252,3.398 2.252,5.438c0,0.198 0,0.31 0,0.31l-12,0c-7.18,0 -13,-5.82 -13,-13c0,-2.312 0,-4 0,-4c0,0 0,0.001 0,0.002c0,2.208 1.79,3.998 3.998,3.998c0.001,0 0.002,0 0.002,0l0,-7c0,0 2.774,4.161 5.055,7.583Z" style="fill:#3e3e3e;"/><clipPath id="_clip3"><path d="M13.055,18.583c1.84,2.759 4.937,4.417 8.254,4.417c0,0 0.001,0 0.001,0c2.04,0 3.995,0.81 5.438,2.252c1.442,1.443 2.252,3.398 2.252,5.438c0,0.198 0,0.31 0,0.31l-12,0c-7.18,0 -13,-5.82 -13,-13c0,-2.312 0,-4 0,-4c0,0 0,0.001 0,0.002c0,2.208 1.79,3.998 3.998,3.998c0.001,0 0.002,0 0.002,0l0,-7c0,0 2.774,4.161 5.055,7.583Z"/></clipPath><g clip-path="url(#_clip3)"><path d="M10.987,21.737c0.083,0.163 0.169,0.324 0.262,0.481c0.227,0.385 0.489,0.751 0.78,1.09c1.005,1.174 2.362,2.029 3.855,2.429c0.431,0.116 0.873,0.194 1.317,0.233c0.228,0.02 0.456,0.028 0.684,0.03l1.615,0l0,2l-1.624,0c-0.227,-0.002 -0.454,-0.008 -0.68,-0.024c-0.563,-0.04 -1.121,-0.129 -1.668,-0.265c-1.834,-0.458 -3.517,-1.459 -4.796,-2.851c-0.418,-0.455 -0.793,-0.951 -1.117,-1.477c-0.19,-0.31 -0.356,-0.631 -0.521,-0.955l0,-0.005l-2.436,-4.87l1.789,-0.895c0.847,1.693 1.693,3.386 2.54,5.079Z" style="fill:#1e1e1e;fill-rule:nonzero;"/></g><path d="M13.885,18.025c0.363,0.536 0.773,1.035 1.24,1.484c1.146,1.102 2.585,1.886 4.132,2.252c0.491,0.116 0.992,0.19 1.495,0.222c0.294,0.018 0.588,0.014 0.881,0.023c0.108,0.005 0.215,0.011 0.322,0.018c0.32,0.026 0.638,0.065 0.954,0.124c0.626,0.117 1.239,0.304 1.824,0.555c1.146,0.491 2.182,1.23 3.019,2.155c0.834,0.92 1.465,2.019 1.841,3.203c0.27,0.85 0.402,1.735 0.407,2.626l0,1.313c-4.394,0 -8.787,0.026 -13.181,-0.001c-0.18,-0.004 -0.179,-0.004 -0.36,-0.009c-0.474,-0.021 -0.946,-0.06 -1.416,-0.126c-1.03,-0.144 -2.044,-0.404 -3.017,-0.774c-2.054,-0.78 -3.911,-2.051 -5.389,-3.676c-1.252,-1.378 -2.227,-3.005 -2.845,-4.762c-0.347,-0.985 -0.582,-2.008 -0.701,-3.046c-0.061,-0.532 -0.088,-1.067 -0.091,-1.603l0,-5.503l2,0c0,0.527 -0.006,1.053 0.001,1.58c0.012,0.301 0.059,0.597 0.156,0.884c0.21,0.618 0.625,1.159 1.166,1.525c0.201,0.136 0.417,0.243 0.644,0.329l0.033,0.012l0,-7.094l1.131,-0.343c1.918,2.877 3.836,5.755 5.754,8.632Zm-4.885,-3.722l0,4.697l-1.008,0c-0.337,-0.004 -0.67,-0.034 -1,-0.101c-0.52,-0.107 -1.022,-0.297 -1.483,-0.562c-0.174,-0.1 -0.34,-0.212 -0.502,-0.33l-0.007,-0.006c0.003,0.461 0.026,0.92 0.078,1.378c0.102,0.889 0.303,1.765 0.6,2.609c0.691,1.96 1.899,3.726 3.469,5.086c1.134,0.982 2.45,1.749 3.865,2.248c0.844,0.297 1.72,0.498 2.609,0.6c0.459,0.052 0.92,0.075 1.382,0.078l10.961,0c-0.068,-0.642 -0.226,-1.273 -0.473,-1.87c-0.357,-0.861 -0.894,-1.644 -1.569,-2.287c-0.654,-0.622 -1.434,-1.109 -2.28,-1.423c-0.537,-0.2 -1.1,-0.331 -1.671,-0.387c-0.334,-0.033 -0.668,-0.03 -1.003,-0.038c-0.171,-0.007 -0.17,-0.007 -0.34,-0.016c-0.729,-0.051 -1.45,-0.164 -2.156,-0.354c-1.663,-0.447 -3.211,-1.291 -4.488,-2.446c-0.416,-0.376 -0.803,-0.784 -1.156,-1.22c-0.179,-0.22 -0.346,-0.448 -0.509,-0.68c-1.119,-1.65 -2.213,-3.317 -3.319,-4.976Z" style="fill-rule:nonzero;"/><path d="M20.424,14.33l-14.871,-7.436c-0.061,-0.033 -0.078,-0.04 -0.135,-0.081c-0.085,-0.06 -0.16,-0.135 -0.223,-0.219c-0.062,-0.084 -0.111,-0.178 -0.144,-0.278c-0.135,-0.406 0.01,-0.866 0.355,-1.121c0.105,-0.077 0.226,-0.134 0.353,-0.166c0.068,-0.016 0.086,-0.017 0.155,-0.025c0.079,-0.004 0.078,-0.004 0.157,-0.001c0.069,0.007 0.087,0.007 0.155,0.023c0.078,0.018 0.149,0.047 0.221,0.08l14.436,7.218c-0.215,-0.243 -0.397,-0.515 -0.537,-0.806c-0.15,-0.312 -0.254,-0.645 -0.306,-0.986c-0.054,-0.352 -0.054,-0.712 0,-1.064c0.057,-0.369 0.173,-0.729 0.344,-1.062c0.333,-0.651 0.871,-1.189 1.522,-1.522c0.333,-0.171 0.693,-0.287 1.062,-0.344c0.147,-0.022 0.294,-0.033 0.442,-0.039c0.09,-0.001 0.09,-0.001 0.18,0c0.148,0.006 0.295,0.017 0.442,0.039c0.369,0.057 0.729,0.173 1.062,0.344c0.651,0.333 1.189,0.871 1.522,1.522c0.171,0.333 0.287,0.693 0.344,1.062c0.054,0.352 0.054,0.712 0,1.064c-0.052,0.341 -0.156,0.674 -0.306,0.986c-0.183,0.379 -0.435,0.725 -0.739,1.015c-0.187,0.178 -0.392,0.334 -0.612,0.467c0.557,0.336 1.016,0.826 1.313,1.406c0.171,0.333 0.287,0.693 0.344,1.062c0.054,0.352 0.054,0.712 0,1.064c-0.052,0.341 -0.156,0.674 -0.306,0.986c-0.183,0.379 -0.435,0.725 -0.739,1.015c-0.306,0.291 -0.664,0.527 -1.052,0.691c-0.431,0.182 -0.896,0.276 -1.363,0.276c-0.467,0 -0.932,-0.094 -1.363,-0.276c-0.388,-0.164 -0.746,-0.4 -1.052,-0.691c-0.304,-0.29 -0.556,-0.636 -0.739,-1.015c-0.15,-0.312 -0.254,-0.645 -0.306,-0.986c-0.054,-0.352 -0.054,-0.712 0,-1.064c0.057,-0.369 0.173,-0.729 0.344,-1.062c0.013,-0.025 0.026,-0.051 0.04,-0.076Zm3.037,0.171c-0.224,0.008 -0.443,0.06 -0.643,0.163c-0.413,0.211 -0.713,0.613 -0.795,1.07c-0.031,0.175 -0.031,0.357 0,0.532c0.026,0.144 0.074,0.285 0.141,0.416c0.082,0.161 0.194,0.306 0.328,0.428c0.134,0.122 0.29,0.22 0.459,0.286c0.187,0.074 0.388,0.108 0.588,0.103c0.199,-0.005 0.396,-0.049 0.577,-0.131c0.165,-0.075 0.316,-0.18 0.444,-0.308c0.128,-0.128 0.233,-0.279 0.308,-0.444c0.061,-0.134 0.101,-0.278 0.12,-0.424c0.024,-0.189 0.012,-0.383 -0.035,-0.567c-0.113,-0.436 -0.427,-0.807 -0.837,-0.993c-0.206,-0.093 -0.429,-0.134 -0.655,-0.131Zm0,-6c-0.224,0.008 -0.443,0.06 -0.643,0.163c-0.413,0.211 -0.713,0.613 -0.795,1.07c-0.031,0.175 -0.031,0.357 0,0.532c0.026,0.144 0.074,0.285 0.141,0.416c0.082,0.161 0.194,0.306 0.328,0.428c0.134,0.122 0.29,0.22 0.459,0.286c0.187,0.074 0.388,0.108 0.588,0.103c0.199,-0.005 0.396,-0.049 0.577,-0.131c0.165,-0.075 0.316,-0.18 0.444,-0.308c0.128,-0.128 0.233,-0.279 0.308,-0.444c0.061,-0.134 0.101,-0.278 0.12,-0.424c0.024,-0.189 0.012,-0.383 -0.035,-0.567c-0.113,-0.436 -0.427,-0.807 -0.837,-0.993c-0.206,-0.093 -0.429,-0.134 -0.655,-0.131Z" style="fill:#cacaca;"/></g></g></svg>