<?xml version="1.0" encoding="UTF-8" standalone="no"?><!DOCTYPE svg PUBLIC "-//W3C//DTD SVG 1.1//EN" "http://www.w3.org/Graphics/SVG/1.1/DTD/svg11.dtd"><svg width="100%" height="100%" viewBox="0 0 32 32" version="1.1" xmlns="http://www.w3.org/2000/svg" xmlns:xlink="http://www.w3.org/1999/xlink" xml:space="preserve" xmlns:serif="http://www.serif.com/" style="fill-rule:evenodd;clip-rule:evenodd;stroke-linecap:square;stroke-linejoin:round;stroke-miterlimit:1.5;">
<metadata>
<rdf:RDF xmlns:cc="http://web.resource.org/cc/"
         xmlns:rdf="http://www.w3.org/1999/02/22-rdf-syntax-ns#"
         xmlns:dc = "http://purl.org/dc/elements/1.1/"
         >

     <rdf:Description rdf:about="">
       <dc:title>Mutant Standard emoji v0.2.3</dc:title>
     </rdf:Description>

    <cc:work rdf:about="">
        <cc:license rdf:resource="http://creativecommons.org/licenses/by-nc-sa/4.0/"/>
        <cc:attributionName>Dzuk</cc:attributionName>
        <cc:attributionURL>http://mutant.tech/</cc:attributionURL>
    </cc:work>

</rdf:RDF>
</metadata>
<rect id="ice_cream" x="0" y="0" width="32" height="32" style="fill:none;"/><g id="outline"><ellipse cx="16" cy="28" rx="6" ry="1.846" style="fill:none;stroke:#000;stroke-width:4px;"/><path d="M4,14c0,5.523 5.373,10 12,10c6.627,0 12,-4.477 12,-10l-12,0l-12,0Z" style="fill:#e1e1e1;stroke:#000;stroke-width:4px;stroke-linecap:round;"/><path d="M6,15c0,-6.627 4.477,-12 10,-12c5.523,0 10,5.373 10,12l-10,0l-10,0Z" style="fill:none;stroke:#000;stroke-width:4px;stroke-linecap:round;"/></g><g id="emoji"><ellipse cx="16" cy="28" rx="6" ry="1.846" style="fill:#bfbfbf;"/><rect x="15" y="21" width="2" height="7" style="fill:#bfbfbf;"/><path d="M4,14c0,5.523 5.373,10 12,10c6.627,0 12,-4.477 12,-10l-12,0l-12,0Z" style="fill:#e1e1e1;"/><clipPath id="_clip1"><path d="M4,14c0,5.523 5.373,10 12,10c6.627,0 12,-4.477 12,-10l-12,0l-12,0Z"/></clipPath><g clip-path="url(#_clip1)"><rect x="6" y="20" width="21" height="8" style="fill:#bfbfbf;"/><ellipse cx="16" cy="20" rx="10" ry="1.667" style="fill:#e1e1e1;"/></g><ellipse cx="16" cy="14" rx="12" ry="2" style="fill:#aaa;"/><path d="M6,15l2,-2l16,0l2,2l0,2l-20,0l0,-2Z" style="fill:#e1e1e1;"/><path d="M28,14c0,1.104 -5.377,2 -12,2c-6.623,0 -12,-0.896 -12,-2l0,-14l24,0l0,14Z" style="fill:none;"/><clipPath id="_clip2"><path d="M28,14c0,1.104 -5.377,2 -12,2c-6.623,0 -12,-0.896 -12,-2l0,-14l24,0l0,14Z"/></clipPath><g clip-path="url(#_clip2)"><path d="M26,15l-1,-1l-18,0l-1,1l0,2l20,0l0,-2Z" style="fill:#dec38c;"/><path d="M6,15c0,-6.627 4.477,-12 10,-12c5.523,0 10,5.373 10,12l-10,0l-10,0Z" style="fill:#f6e8cc;"/><clipPath id="_clip3"><path d="M6,15c0,-6.627 4.477,-12 10,-12c5.523,0 10,5.373 10,12l-10,0l-10,0Z"/></clipPath><g clip-path="url(#_clip3)"><rect x="5" y="12" width="22" height="3" style="fill:#dec38c;"/><ellipse cx="16" cy="12" rx="12" ry="2" style="fill:#f6e8cc;"/><path d="M10,5c0,1.657 1.343,3 3,3c0,0 0,0 0,0c0,0 0,1.128 0,2.001c0,0.552 0.447,0.999 0.999,0.999c0.001,0 0.001,0 0.002,0c0.265,0 0.519,-0.105 0.706,-0.293c0.188,-0.187 0.293,-0.441 0.293,-0.706c0,-0.871 0,-2.129 0,-3.001c0,-0.265 0.105,-0.52 0.293,-0.707c0.187,-0.188 0.442,-0.293 0.707,-0.293c0.552,0 1,0.448 1,1c0,0.322 0,0.678 0,1c0,0.552 0.448,1 1,1c0.611,0 1.389,0 2,0c0.552,0 1,-0.448 1,-1c0,-0.5 0,-1 0,-1c0,0 0,0 0,0c1.105,0 2,-0.895 2,-2c0,-1.745 0,-4 0,-4l-13,0c0,0 0,2.1 0,4Z" style="fill:#4e4229;"/></g></g></g></svg>