<?xml version="1.0" encoding="UTF-8" standalone="no"?><!DOCTYPE svg PUBLIC "-//W3C//DTD SVG 1.1//EN" "http://www.w3.org/Graphics/SVG/1.1/DTD/svg11.dtd"><svg width="100%" height="100%" viewBox="0 0 32 32" version="1.1" xmlns="http://www.w3.org/2000/svg" xmlns:xlink="http://www.w3.org/1999/xlink" xml:space="preserve" xmlns:serif="http://www.serif.com/" style="fill-rule:evenodd;clip-rule:evenodd;stroke-linecap:round;stroke-linejoin:round;stroke-miterlimit:1.5;">
<metadata>
<rdf:RDF xmlns:cc="http://web.resource.org/cc/"
         xmlns:rdf="http://www.w3.org/1999/02/22-rdf-syntax-ns#"
         xmlns:dc = "http://purl.org/dc/elements/1.1/"
         >

     <rdf:Description rdf:about="">
       <dc:title>Mutant Standard emoji v0.2.3</dc:title>
     </rdf:Description>

    <cc:work rdf:about="">
        <cc:license rdf:resource="http://creativecommons.org/licenses/by-nc-sa/4.0/"/>
        <cc:attributionName>Dzuk</cc:attributionName>
        <cc:attributionURL>http://mutant.tech/</cc:attributionURL>
    </cc:work>

</rdf:RDF>
</metadata>
<rect id="sake" x="0" y="0" width="32" height="32" style="fill:none;"/><g id="outline"><path d="M17,23c0,-1.104 2.913,-2 6.5,-2c3.587,0 6.5,0.896 6.5,2c0,3.59 -2.91,6.5 -6.5,6.5c-3.59,0 -6.5,-2.91 -6.5,-6.5l0,0Z" style="fill:none;stroke:#000;stroke-width:4px;"/><path d="M4.318,5.027c-0.205,-0.164 -0.318,-0.341 -0.318,-0.527c0,-0.828 2.24,-1.5 5,-1.5c2.76,0 5,0.672 5,1.5c0,0.186 -0.113,0.363 -0.318,0.527c-0.237,0.208 -1.682,1.615 -1.682,4.973c0,3.657 2.888,5.13 3.778,10c1.056,5.771 -2.527,9.943 -6.729,10l-0.049,0l-0.049,0c-4.202,-0.057 -7.785,-4.229 -6.729,-10c0.89,-4.87 3.778,-6.343 3.778,-10c0,-3.358 -1.445,-4.765 -1.682,-4.973Z" style="fill:none;stroke:#000;stroke-width:4px;stroke-miterlimit:3;"/></g><g id="emoji"><path d="M9,30c-4.223,-0.025 -7.838,-4.206 -6.778,-10c0.89,-4.87 3.778,-6.343 3.778,-10c0,-3.652 -1.709,-4.996 -1.714,-5l9.428,0c0,0 -1.714,1.343 -1.714,5c0,3.657 2.888,5.13 3.778,10c1.06,5.794 -2.555,9.975 -6.778,10Z" style="fill:#e6e6e6;"/><clipPath id="_clip1"><path d="M9,30c-4.223,-0.025 -7.838,-4.206 -6.778,-10c0.89,-4.87 3.778,-6.343 3.778,-10c0,-3.652 -1.709,-4.996 -1.714,-5l9.428,0c0,0 -1.714,1.343 -1.714,5c0,3.657 2.888,5.13 3.778,10c1.06,5.794 -2.555,9.975 -6.778,10Z"/></clipPath><g clip-path="url(#_clip1)"><rect x="0" y="10.5" width="17" height="20.5" style="fill:#4f46b8;"/><ellipse cx="9" cy="10.5" rx="3" ry="0.9" style="fill:#e6e6e6;"/></g><ellipse cx="9" cy="4.5" rx="5" ry="1.5" style="fill:#818181;"/><path d="M17,23c0,3.59 2.91,6.5 6.5,6.5c3.59,0 6.5,-2.91 6.5,-6.5l-6.5,0l-6.5,0Z" style="fill:#e1e1e1;"/><clipPath id="_clip2"><path d="M17,23c0,3.59 2.91,6.5 6.5,6.5c3.59,0 6.5,-2.91 6.5,-6.5l-6.5,0l-6.5,0Z"/></clipPath><g clip-path="url(#_clip2)"><rect x="15.5" y="10.5" width="17" height="20.5" style="fill:#4f46b8;"/><ellipse cx="23.5" cy="23" rx="6.5" ry="2" style="fill:none;stroke:#e6e6e6;stroke-width:4px;"/></g><ellipse cx="23.5" cy="23" rx="6.5" ry="2" style="fill:#818181;"/></g></svg>