<?xml version="1.0" encoding="UTF-8" standalone="no"?><!DOCTYPE svg PUBLIC "-//W3C//DTD SVG 1.1//EN" "http://www.w3.org/Graphics/SVG/1.1/DTD/svg11.dtd"><svg width="100%" height="100%" viewBox="0 0 32 32" version="1.1" xmlns="http://www.w3.org/2000/svg" xmlns:xlink="http://www.w3.org/1999/xlink" xml:space="preserve" xmlns:serif="http://www.serif.com/" style="fill-rule:evenodd;clip-rule:evenodd;stroke-linecap:round;stroke-linejoin:round;stroke-miterlimit:1.5;">
<metadata>
<rdf:RDF xmlns:cc="http://web.resource.org/cc/"
         xmlns:rdf="http://www.w3.org/1999/02/22-rdf-syntax-ns#"
         xmlns:dc = "http://purl.org/dc/elements/1.1/"
         >

     <rdf:Description rdf:about="">
       <dc:title>Mutant Standard emoji v0.2.3</dc:title>
     </rdf:Description>

    <cc:work rdf:about="">
        <cc:license rdf:resource="http://creativecommons.org/licenses/by-nc-sa/4.0/"/>
        <cc:attributionName>Dzuk</cc:attributionName>
        <cc:attributionURL>http://mutant.tech/</cc:attributionURL>
    </cc:work>

</rdf:RDF>
</metadata>
<rect id="beating_heart" x="0" y="0" width="32" height="32" style="fill:none;"/><clipPath id="_clip1"><rect x="0" y="0" width="32" height="32"/></clipPath><g clip-path="url(#_clip1)"><g id="outline"><path d="M21.096,4.49l0.096,0.002l0.096,0.003l0.096,0.004l0.095,0.005l0.096,0.006l0.096,0.007l0.096,0.009l0.095,0.01l0.096,0.011l0.095,0.012l0.095,0.013l0.095,0.014l0.095,0.016l0.095,0.016l0.095,0.018l0.095,0.019l0.094,0.02l0.094,0.021l0.094,0.022l0.094,0.024l0.093,0.024l0.094,0.026l0.093,0.027l0.093,0.028l0.092,0.029l0.092,0.031l0.092,0.031l0.092,0.033l0.091,0.034l0.091,0.035l0.091,0.036l0.091,0.037l0.09,0.039l0.089,0.039l0.089,0.041l0.089,0.042l0.089,0.043l0.088,0.044l0.087,0.046l0.088,0.046l0.086,0.048l0.086,0.048l0.086,0.05l0.085,0.052l0.085,0.052l0.084,0.053l0.084,0.055l0.083,0.055l0.082,0.057l0.083,0.058l0.081,0.059l0.081,0.06l0.08,0.061l0.079,0.063l0.079,0.063l0.079,0.065l0.077,0.066l0.077,0.067l0.076,0.067l0.076,0.069l0.075,0.071l0.074,0.071l0.074,0.073l0.072,0.073l0.071,0.074l0.071,0.075l0.069,0.076l0.067,0.076l0.067,0.077l0.066,0.078l0.065,0.078l0.063,0.078l0.063,0.08l0.061,0.08l0.06,0.081l0.059,0.081l0.058,0.082l0.057,0.083l0.055,0.083l0.055,0.084l0.053,0.084l0.053,0.085l0.051,0.085l0.049,0.085l0.049,0.087l0.048,0.087l0.046,0.086l0.046,0.088l0.044,0.088l0.043,0.089l0.042,0.088l0.041,0.09l0.039,0.09l0.039,0.09l0.037,0.09l0.036,0.09l0.035,0.092l0.034,0.091l0.033,0.092l0.031,0.092l0.031,0.092l0.029,0.092l0.028,0.093l0.027,0.093l0.026,0.094l0.024,0.093l0.024,0.094l0.022,0.094l0.021,0.094l0.02,0.094l0.019,0.095l0.018,0.095l0.017,0.095l0.015,0.094l0.014,0.095l0.013,0.096l0.012,0.096l0.011,0.095l0.01,0.095l0.009,0.096l0.007,0.096l0.006,0.095l0.005,0.096l0.004,0.096l0.003,0.096l0.002,0.096l0.001,0.096l-0.001,0.096l-0.002,0.096l-0.003,0.096l-0.004,0.096l-0.005,0.096l-0.006,0.095l-0.007,0.096l-0.009,0.096l-0.01,0.095l-0.011,0.095l-0.012,0.096l-0.013,0.096l-0.014,0.094l-0.015,0.095l-0.017,0.095l-0.018,0.095l-0.019,0.095l-0.02,0.094l-0.021,0.094l-0.022,0.094l-0.024,0.094l-0.024,0.093l-0.026,0.094l-0.027,0.093l-0.028,0.093l-0.029,0.092l-0.031,0.092l-0.031,0.092l-0.033,0.092l-0.034,0.091l-0.035,0.092l-0.036,0.09l-0.037,0.09l-0.039,0.09l-0.039,0.09l-0.041,0.09l-0.042,0.088l-0.043,0.089l-0.044,0.088l-0.046,0.088l-0.046,0.086l-0.048,0.087l-0.049,0.087l-0.049,0.085l-0.051,0.085l-0.053,0.085l-0.053,0.084l-0.055,0.084l-0.055,0.083l-0.057,0.083l-0.058,0.082l-0.059,0.081l-0.06,0.081l-0.061,0.08l-0.063,0.08l-0.063,0.078l-0.065,0.078l-0.066,0.078l-0.067,0.077l-0.067,0.076l-0.07,0.076l-0.07,0.075l-0.071,0.074l-0.068,0.068l-10.669,10.669l-10.669,-10.669l-0.068,-0.068l-0.071,-0.074l-0.07,-0.075l-0.07,-0.076l-0.068,-0.076l-0.066,-0.077l-0.066,-0.077l-0.065,-0.079l-0.063,-0.078l-0.063,-0.08l-0.061,-0.08l-0.06,-0.081l-0.059,-0.081l-0.058,-0.082l-0.057,-0.083l-0.055,-0.083l-0.055,-0.084l-0.053,-0.084l-0.053,-0.085l-0.051,-0.085l-0.05,-0.086l-0.048,-0.086l-0.048,-0.086l-0.046,-0.087l-0.046,-0.088l-0.044,-0.088l-0.043,-0.089l-0.042,-0.088l-0.041,-0.09l-0.039,-0.09l-0.039,-0.089l-0.037,-0.091l-0.036,-0.09l-0.035,-0.092l-0.034,-0.091l-0.033,-0.092l-0.031,-0.092l-0.031,-0.092l-0.029,-0.092l-0.028,-0.093l-0.027,-0.093l-0.026,-0.094l-0.024,-0.093l-0.024,-0.094l-0.022,-0.094l-0.021,-0.094l-0.02,-0.095l-0.019,-0.094l-0.018,-0.094l-0.017,-0.096l-0.015,-0.095l-0.014,-0.094l-0.013,-0.096l-0.012,-0.096l-0.011,-0.095l-0.01,-0.095l-0.009,-0.096l-0.007,-0.096l-0.006,-0.095l-0.005,-0.096l-0.004,-0.096l-0.003,-0.097l-0.002,-0.095l-0.001,-0.096l0.001,-0.096l0.002,-0.095l0.003,-0.097l0.004,-0.096l0.005,-0.096l0.006,-0.095l0.007,-0.096l0.009,-0.096l0.01,-0.095l0.011,-0.095l0.012,-0.096l0.013,-0.096l0.014,-0.094l0.015,-0.095l0.017,-0.095l0.018,-0.095l0.019,-0.095l0.02,-0.094l0.021,-0.094l0.022,-0.094l0.024,-0.094l0.024,-0.093l0.026,-0.094l0.027,-0.093l0.028,-0.093l0.029,-0.092l0.031,-0.092l0.031,-0.092l0.033,-0.092l0.034,-0.091l0.035,-0.092l0.036,-0.09l0.037,-0.09l0.039,-0.09l0.039,-0.09l0.041,-0.09l0.042,-0.088l0.043,-0.089l0.044,-0.088l0.046,-0.088l0.046,-0.086l0.048,-0.087l0.049,-0.087l0.049,-0.085l0.051,-0.085l0.053,-0.085l0.053,-0.084l0.055,-0.084l0.055,-0.083l0.057,-0.083l0.058,-0.082l0.059,-0.081l0.06,-0.081l0.061,-0.08l0.063,-0.08l0.063,-0.078l0.065,-0.078l0.066,-0.078l0.067,-0.077l0.067,-0.076l0.07,-0.076l0.07,-0.075l0.071,-0.074l0.063,-0.063l0.009,-0.01l0.074,-0.073l0.074,-0.071l0.075,-0.071l0.076,-0.069l0.076,-0.067l0.077,-0.067l0.077,-0.066l0.079,-0.065l0.079,-0.063l0.079,-0.063l0.08,-0.061l0.081,-0.06l0.081,-0.059l0.083,-0.058l0.082,-0.057l0.083,-0.055l0.084,-0.055l0.084,-0.053l0.085,-0.053l0.085,-0.051l0.086,-0.049l0.086,-0.049l0.086,-0.048l0.088,-0.046l0.087,-0.046l0.088,-0.044l0.089,-0.043l0.089,-0.042l0.089,-0.041l0.089,-0.039l0.09,-0.039l0.091,-0.037l0.09,-0.036l0.092,-0.035l0.091,-0.034l0.092,-0.033l0.092,-0.031l0.092,-0.03l0.092,-0.03l0.093,-0.028l0.093,-0.027l0.094,-0.026l0.093,-0.024l0.094,-0.024l0.094,-0.022l0.094,-0.021l0.094,-0.02l0.095,-0.019l0.095,-0.018l0.095,-0.016l0.095,-0.016l0.095,-0.014l0.095,-0.013l0.095,-0.012l0.096,-0.011l0.095,-0.01l0.096,-0.009l0.096,-0.007l0.096,-0.006l0.095,-0.005l0.096,-0.004l0.096,-0.003l0.096,-0.002l0.096,-0.001l0.096,0.001l0.096,0.002l0.096,0.003l0.096,0.004l0.095,0.005l0.096,0.006l0.096,0.007l0.096,0.009l0.095,0.01l0.096,0.011l0.095,0.012l0.095,0.013l0.095,0.014l0.096,0.016l0.094,0.016l0.095,0.018l0.095,0.019l0.094,0.02l0.094,0.021l0.094,0.022l0.094,0.024l0.093,0.024l0.094,0.026l0.093,0.027l0.093,0.028l0.092,0.03l0.092,0.03l0.092,0.031l0.092,0.033l0.091,0.034l0.092,0.035l0.09,0.036l0.091,0.037l0.09,0.039l0.089,0.039l0.089,0.041l0.089,0.042l0.089,0.043l0.088,0.044l0.087,0.046l0.087,0.046l0.087,0.048l0.086,0.049l0.086,0.049l0.085,0.051l0.085,0.053l0.084,0.053l0.084,0.055l0.083,0.055l0.083,0.057l0.082,0.058l0.081,0.059l0.081,0.06l0.08,0.061l0.079,0.063l0.022,0.017l0.022,-0.017l0.079,-0.063l0.08,-0.061l0.081,-0.06l0.081,-0.059l0.082,-0.058l0.083,-0.057l0.083,-0.055l0.084,-0.055l0.084,-0.053l0.085,-0.053l0.085,-0.051l0.086,-0.049l0.086,-0.049l0.087,-0.048l0.086,-0.046l0.088,-0.046l0.088,-0.044l0.089,-0.043l0.089,-0.042l0.089,-0.041l0.09,-0.039l0.09,-0.039l0.09,-0.037l0.09,-0.036l0.092,-0.035l0.091,-0.034l0.092,-0.033l0.092,-0.031l0.092,-0.031l0.092,-0.029l0.093,-0.028l0.093,-0.027l0.094,-0.026l0.093,-0.024l0.094,-0.024l0.094,-0.022l0.094,-0.021l0.094,-0.02l0.095,-0.019l0.095,-0.018l0.095,-0.016l0.095,-0.016l0.095,-0.014l0.095,-0.013l0.095,-0.012l0.096,-0.011l0.095,-0.01l0.096,-0.009l0.096,-0.007l0.096,-0.006l0.095,-0.005l0.096,-0.004l0.096,-0.003l0.096,-0.002l0.096,-0.001l0.096,0.001Zm-0.144,4l-0.048,0.001l-0.049,0.001l-0.048,0.002l-0.048,0.003l-0.048,0.003l-0.048,0.004l-0.048,0.004l-0.049,0.005l-0.047,0.005l-0.048,0.006l-0.048,0.007l-0.048,0.007l-0.048,0.008l-0.047,0.008l-0.048,0.009l-0.047,0.009l-0.047,0.011l-0.048,0.01l-0.047,0.011l-0.047,0.012l-0.046,0.012l-0.047,0.013l-0.046,0.014l-0.047,0.014l-0.046,0.014l-0.046,0.016l-0.046,0.015l-0.046,0.017l-0.045,0.016l-0.046,0.018l-0.045,0.018l-0.045,0.019l-0.045,0.019l-0.044,0.019l-0.045,0.021l-0.044,0.021l-0.044,0.021l-0.044,0.022l-0.043,0.022l-0.044,0.024l-0.043,0.023l-0.043,0.025l-0.043,0.024l-0.042,0.026l-0.042,0.026l-0.042,0.026l-0.042,0.028l-0.041,0.027l-0.041,0.029l-0.041,0.029l-0.041,0.029l-0.041,0.03l-0.04,0.031l-0.04,0.031l-0.039,0.032l-0.039,0.032l-0.039,0.034l-0.039,0.033l-0.039,0.035l-0.038,0.034l-0.038,0.036l-0.037,0.036l-0.042,0.041l-2.16,2.16l-2.16,-2.159l-0.042,-0.042l-0.038,-0.036l-0.037,-0.036l-0.038,-0.034l-0.039,-0.035l-0.039,-0.033l-0.039,-0.033l-0.039,-0.033l-0.039,-0.032l-0.04,-0.031l-0.04,-0.031l-0.041,-0.03l-0.041,-0.029l-0.041,-0.029l-0.041,-0.029l-0.041,-0.027l-0.042,-0.028l-0.042,-0.026l-0.042,-0.026l-0.042,-0.025l-0.043,-0.025l-0.043,-0.025l-0.043,-0.023l-0.043,-0.023l-0.044,-0.023l-0.044,-0.022l-0.044,-0.022l-0.044,-0.02l-0.044,-0.021l-0.045,-0.019l-0.045,-0.019l-0.045,-0.019l-0.045,-0.018l-0.046,-0.018l-0.045,-0.016l-0.046,-0.017l-0.046,-0.015l-0.046,-0.016l-0.046,-0.014l-0.047,-0.014l-0.046,-0.014l-0.047,-0.013l-0.046,-0.012l-0.047,-0.012l-0.047,-0.011l-0.048,-0.01l-0.047,-0.011l-0.047,-0.009l-0.048,-0.009l-0.047,-0.008l-0.048,-0.008l-0.048,-0.007l-0.048,-0.007l-0.048,-0.006l-0.047,-0.005l-0.049,-0.005l-0.048,-0.004l-0.048,-0.004l-0.048,-0.003l-0.048,-0.003l-0.048,-0.002l-0.049,-0.001l-0.048,-0.001l-0.048,-0.001l-0.048,0.001l-0.048,0.001l-0.049,0.001l-0.048,0.002l-0.048,0.003l-0.048,0.003l-0.048,0.004l-0.048,0.004l-0.049,0.005l-0.047,0.005l-0.048,0.006l-0.048,0.007l-0.048,0.007l-0.048,0.008l-0.047,0.008l-0.048,0.009l-0.047,0.009l-0.047,0.011l-0.048,0.01l-0.046,0.011l-0.047,0.012l-0.047,0.012l-0.047,0.013l-0.047,0.014l-0.046,0.014l-0.046,0.014l-0.046,0.016l-0.046,0.015l-0.046,0.017l-0.045,0.016l-0.046,0.018l-0.045,0.018l-0.045,0.019l-0.045,0.019l-0.045,0.019l-0.044,0.021l-0.044,0.02l-0.044,0.022l-0.044,0.022l-0.044,0.022l-0.043,0.024l-0.043,0.023l-0.043,0.025l-0.043,0.024l-0.042,0.026l-0.042,0.026l-0.042,0.026l-0.042,0.028l-0.041,0.027l-0.042,0.029l-0.04,0.028l-0.041,0.03l-0.041,0.03l-0.04,0.031l-0.04,0.031l-0.039,0.032l-0.039,0.033l-0.039,0.033l-0.039,0.033l-0.039,0.035l-0.038,0.035l-0.038,0.035l-0.037,0.036l-0.037,0.036l0.009,-0.008l-0.047,0.047l-0.036,0.037l-0.036,0.038l-0.034,0.038l-0.035,0.039l-0.033,0.039l-0.033,0.038l-0.033,0.04l-0.032,0.04l-0.031,0.039l-0.031,0.04l-0.03,0.041l-0.029,0.041l-0.029,0.04l-0.029,0.042l-0.028,0.041l-0.027,0.042l-0.026,0.042l-0.026,0.042l-0.025,0.042l-0.026,0.043l-0.024,0.043l-0.023,0.043l-0.024,0.044l-0.022,0.043l-0.022,0.044l-0.022,0.044l-0.02,0.044l-0.021,0.045l-0.019,0.044l-0.019,0.045l-0.019,0.045l-0.018,0.045l-0.018,0.046l-0.016,0.045l-0.017,0.046l-0.015,0.046l-0.016,0.046l-0.014,0.046l-0.014,0.046l-0.014,0.047l-0.013,0.047l-0.012,0.046l-0.012,0.047l-0.011,0.047l-0.01,0.047l-0.011,0.048l-0.009,0.048l-0.009,0.047l-0.008,0.047l-0.008,0.048l-0.007,0.048l-0.007,0.048l-0.006,0.047l-0.005,0.049l-0.005,0.048l-0.004,0.047l-0.004,0.049l-0.003,0.048l-0.003,0.048l-0.002,0.048l-0.001,0.048l-0.001,0.049l-0.001,0.048l0.001,0.048l0.001,0.049l0.001,0.048l0.002,0.048l0.003,0.048l0.003,0.048l0.004,0.049l0.004,0.047l0.005,0.048l0.005,0.049l0.006,0.047l0.007,0.048l0.007,0.048l0.008,0.048l0.008,0.047l0.009,0.047l0.01,0.048l0.01,0.048l0.01,0.047l0.011,0.047l0.012,0.047l0.012,0.046l0.013,0.047l0.014,0.047l0.014,0.046l0.014,0.046l0.016,0.046l0.015,0.046l0.017,0.046l0.016,0.045l0.018,0.046l0.018,0.045l0.018,0.045l0.02,0.045l0.019,0.045l0.021,0.044l0.02,0.044l0.022,0.044l0.022,0.044l0.022,0.043l0.023,0.044l0.024,0.043l0.025,0.043l0.025,0.043l0.025,0.042l0.026,0.042l0.027,0.042l0.027,0.042l0.027,0.041l0.029,0.042l0.029,0.04l0.029,0.041l0.03,0.041l0.031,0.04l0.031,0.039l0.032,0.04l0.032,0.039l0.034,0.039l0.033,0.039l0.035,0.039l0.034,0.038l0.036,0.038l0.036,0.037l0.041,0.042l7.832,7.832l7.832,-7.832l0.041,-0.042l0.036,-0.037l0.036,-0.038l0.034,-0.038l0.035,-0.039l0.033,-0.039l0.033,-0.038l0.033,-0.04l0.032,-0.04l0.031,-0.039l0.031,-0.04l0.03,-0.041l0.029,-0.041l0.029,-0.04l0.029,-0.042l0.028,-0.041l0.027,-0.042l0.026,-0.042l0.026,-0.042l0.025,-0.042l0.026,-0.043l0.024,-0.043l0.023,-0.043l0.024,-0.044l0.022,-0.043l0.022,-0.044l0.022,-0.044l0.02,-0.044l0.021,-0.045l0.019,-0.044l0.019,-0.045l0.019,-0.045l0.018,-0.045l0.018,-0.046l0.016,-0.045l0.017,-0.046l0.015,-0.046l0.016,-0.046l0.014,-0.046l0.014,-0.046l0.014,-0.047l0.013,-0.047l0.012,-0.046l0.012,-0.047l0.011,-0.047l0.01,-0.047l0.011,-0.048l0.009,-0.048l0.009,-0.047l0.008,-0.047l0.008,-0.048l0.007,-0.048l0.007,-0.048l0.006,-0.047l0.005,-0.049l0.005,-0.048l0.004,-0.047l0.004,-0.049l0.003,-0.048l0.003,-0.048l0.002,-0.048l0.001,-0.049l0.001,-0.048l0.001,-0.048l-0.001,-0.048l-0.001,-0.048l-0.001,-0.049l-0.002,-0.048l-0.003,-0.048l-0.003,-0.048l-0.004,-0.049l-0.004,-0.047l-0.005,-0.048l-0.005,-0.049l-0.006,-0.048l-0.007,-0.047l-0.007,-0.048l-0.008,-0.048l-0.008,-0.047l-0.009,-0.047l-0.009,-0.048l-0.011,-0.048l-0.01,-0.047l-0.011,-0.047l-0.012,-0.047l-0.012,-0.046l-0.013,-0.047l-0.014,-0.047l-0.014,-0.046l-0.014,-0.046l-0.016,-0.046l-0.015,-0.046l-0.017,-0.046l-0.016,-0.045l-0.018,-0.046l-0.018,-0.045l-0.019,-0.045l-0.019,-0.045l-0.019,-0.044l-0.021,-0.045l-0.021,-0.044l-0.021,-0.044l-0.022,-0.044l-0.022,-0.043l-0.024,-0.044l-0.023,-0.043l-0.024,-0.043l-0.026,-0.043l-0.025,-0.042l-0.026,-0.042l-0.026,-0.042l-0.028,-0.042l-0.027,-0.041l-0.029,-0.042l-0.029,-0.04l-0.029,-0.041l-0.03,-0.041l-0.031,-0.04l-0.031,-0.039l-0.032,-0.04l-0.033,-0.04l-0.033,-0.038l-0.033,-0.039l-0.035,-0.039l-0.035,-0.038l-0.035,-0.038l-0.036,-0.037l-0.047,-0.047l0.009,0.008l-0.037,-0.036l-0.037,-0.036l-0.038,-0.035l-0.038,-0.035l-0.039,-0.035l-0.039,-0.033l-0.039,-0.033l-0.039,-0.033l-0.039,-0.032l-0.04,-0.031l-0.041,-0.031l-0.04,-0.03l-0.041,-0.029l-0.04,-0.029l-0.042,-0.029l-0.041,-0.027l-0.042,-0.028l-0.042,-0.026l-0.042,-0.026l-0.042,-0.026l-0.043,-0.024l-0.043,-0.025l-0.043,-0.023l-0.043,-0.024l-0.044,-0.022l-0.044,-0.022l-0.044,-0.022l-0.044,-0.02l-0.044,-0.021l-0.045,-0.019l-0.045,-0.02l-0.045,-0.018l-0.045,-0.018l-0.046,-0.017l-0.045,-0.017l-0.046,-0.017l-0.046,-0.015l-0.046,-0.016l-0.046,-0.014l-0.047,-0.014l-0.046,-0.014l-0.047,-0.013l-0.047,-0.012l-0.047,-0.012l-0.046,-0.011l-0.048,-0.01l-0.047,-0.011l-0.047,-0.009l-0.048,-0.009l-0.047,-0.008l-0.048,-0.008l-0.048,-0.007l-0.048,-0.007l-0.048,-0.006l-0.047,-0.005l-0.049,-0.005l-0.048,-0.004l-0.048,-0.004l-0.048,-0.003l-0.048,-0.003l-0.048,-0.002l-0.049,-0.001l-0.048,-0.001l-0.048,-0.001l-0.048,0.001Z"/><path d="M27,7c0,0 0,0 0,0c3.038,3.038 3.038,7.962 0,11c0,0 0,0 0,0" style="fill:none;stroke:#000;stroke-width:5.5px;"/><path d="M5,7c0,0 0,0 0,0c-3.038,3.038 -3.038,7.962 0,11c0,0 0,0 0,0" style="fill:none;stroke:#000;stroke-width:5.5px;"/></g><g id="emoji"><path d="M16,26c0,0 -5.293,-5.293 -9.25,-9.25c-2.347,-2.347 -2.347,-6.153 0,-8.5c0,0 0,0 0,0c2.347,-2.347 6.153,-2.347 8.5,0c0.451,0.451 0.75,0.75 0.75,0.75c0,0 0.299,-0.299 0.75,-0.75c2.347,-2.347 6.153,-2.347 8.5,0c0,0 0,0 0,0c2.347,2.347 2.347,6.153 0,8.5c-3.957,3.957 -9.25,9.25 -9.25,9.25Z" style="fill:#f229a1;"/><path d="M27,7c0,0 0,0 0,0c3.038,3.038 3.038,7.962 0,11c0,0 0,0 0,0" style="fill:none;stroke:#ae0b6d;stroke-width:1.5px;"/><path d="M5,7c0,0 0,0 0,0c-3.038,3.038 -3.038,7.962 0,11c0,0 0,0 0,0" style="fill:none;stroke:#ae0b6d;stroke-width:1.5px;"/><path d="M13,19.5c0,0 -2.101,-2.101 -4,-4c-0.796,-0.796 -1.243,-1.875 -1.243,-3c0,-1.125 0.447,-2.204 1.243,-3c0,0 0,0 0,0" style="fill:none;stroke:#f88dcf;stroke-width:2px;"/></g></g></svg>