<?xml version="1.0" encoding="UTF-8" standalone="no"?><!DOCTYPE svg PUBLIC "-//W3C//DTD SVG 1.1//EN" "http://www.w3.org/Graphics/SVG/1.1/DTD/svg11.dtd"><svg width="100%" height="100%" viewBox="0 0 32 32" version="1.1" xmlns="http://www.w3.org/2000/svg" xmlns:xlink="http://www.w3.org/1999/xlink" xml:space="preserve" xmlns:serif="http://www.serif.com/" style="fill-rule:evenodd;clip-rule:evenodd;stroke-linecap:round;stroke-linejoin:round;stroke-miterlimit:1.5;">
<metadata>
<rdf:RDF xmlns:cc="http://web.resource.org/cc/"
         xmlns:rdf="http://www.w3.org/1999/02/22-rdf-syntax-ns#"
         xmlns:dc = "http://purl.org/dc/elements/1.1/"
         >

     <rdf:Description rdf:about="">
       <dc:title>Mutant Standard emoji v0.2.3</dc:title>
     </rdf:Description>

    <cc:work rdf:about="">
        <cc:license rdf:resource="http://creativecommons.org/licenses/by-nc-sa/4.0/"/>
        <cc:attributionName>Dzuk</cc:attributionName>
        <cc:attributionURL>http://mutant.tech/</cc:attributionURL>
    </cc:work>

</rdf:RDF>
</metadata>
<rect id="heart_exclamation_mark" x="0" y="0" width="32" height="32" style="fill:none;"/><clipPath id="_clip1"><rect x="0" y="0" width="32" height="32"/></clipPath><g clip-path="url(#_clip1)"><g id="outline"><path d="M16.141,21.002l0.14,0.005l0.14,0.009l0.139,0.012l0.138,0.016l0.137,0.019l0.136,0.023l0.135,0.026l0.134,0.029l0.133,0.032l0.132,0.036l0.13,0.039l0.129,0.042l0.127,0.044l0.126,0.048l0.124,0.051l0.123,0.054l0.121,0.057l0.12,0.059l0.118,0.062l0.116,0.065l0.114,0.068l0.113,0.07l0.11,0.073l0.109,0.075l0.107,0.078l0.104,0.08l0.103,0.083l0.101,0.085l0.098,0.088l0.097,0.089l0.094,0.092l0.092,0.095l0.089,0.096l0.088,0.098l0.085,0.101l0.083,0.103l0.08,0.104l0.078,0.107l0.075,0.109l0.073,0.11l0.07,0.113l0.068,0.114l0.065,0.116l0.062,0.118l0.059,0.12l0.057,0.121l0.054,0.123l0.051,0.124l0.048,0.126l0.044,0.127l0.042,0.129l0.039,0.13l0.036,0.132l0.032,0.133l0.029,0.134l0.026,0.135l0.023,0.136l0.019,0.137l0.016,0.138l0.012,0.139l0.009,0.14l0.005,0.14l0.002,0.141l-0.002,0.141l-0.005,0.14l-0.009,0.14l-0.012,0.139l-0.016,0.138l-0.019,0.137l-0.023,0.136l-0.026,0.135l-0.029,0.134l-0.032,0.133l-0.036,0.131l-0.039,0.131l-0.042,0.129l-0.044,0.127l-0.048,0.126l-0.051,0.124l-0.054,0.123l-0.057,0.122l-0.059,0.119l-0.062,0.118l-0.065,0.116l-0.068,0.114l-0.07,0.113l-0.073,0.11l-0.075,0.109l-0.078,0.107l-0.08,0.104l-0.083,0.103l-0.085,0.101l-0.088,0.098l-0.089,0.096l-0.092,0.095l-0.095,0.092l-0.096,0.089l-0.098,0.088l-0.101,0.085l-0.103,0.083l-0.104,0.08l-0.107,0.078l-0.109,0.075l-0.11,0.073l-0.113,0.07l-0.114,0.068l-0.116,0.065l-0.118,0.062l-0.12,0.059l-0.121,0.057l-0.123,0.054l-0.124,0.051l-0.126,0.048l-0.127,0.044l-0.129,0.042l-0.13,0.039l-0.132,0.036l-0.133,0.032l-0.134,0.029l-0.135,0.026l-0.136,0.023l-0.137,0.019l-0.138,0.016l-0.139,0.012l-0.14,0.009l-0.14,0.005l-0.141,0.002l-0.141,-0.002l-0.14,-0.005l-0.14,-0.009l-0.139,-0.012l-0.138,-0.016l-0.137,-0.019l-0.136,-0.023l-0.135,-0.026l-0.134,-0.029l-0.133,-0.032l-0.132,-0.036l-0.13,-0.039l-0.129,-0.042l-0.127,-0.044l-0.126,-0.048l-0.124,-0.051l-0.123,-0.054l-0.121,-0.057l-0.12,-0.059l-0.118,-0.062l-0.116,-0.065l-0.114,-0.068l-0.113,-0.07l-0.11,-0.073l-0.109,-0.075l-0.107,-0.078l-0.104,-0.08l-0.103,-0.083l-0.101,-0.085l-0.098,-0.088l-0.096,-0.089l-0.095,-0.092l-0.092,-0.095l-0.089,-0.096l-0.088,-0.098l-0.085,-0.101l-0.083,-0.103l-0.08,-0.104l-0.078,-0.107l-0.075,-0.109l-0.073,-0.11l-0.07,-0.113l-0.068,-0.114l-0.065,-0.116l-0.062,-0.118l-0.059,-0.119l-0.057,-0.122l-0.054,-0.123l-0.051,-0.124l-0.048,-0.126l-0.044,-0.127l-0.042,-0.129l-0.039,-0.131l-0.036,-0.131l-0.032,-0.133l-0.029,-0.134l-0.026,-0.135l-0.023,-0.136l-0.019,-0.137l-0.016,-0.138l-0.012,-0.139l-0.009,-0.14l-0.005,-0.14l-0.002,-0.141l0.002,-0.141l0.005,-0.14l0.009,-0.14l0.012,-0.139l0.016,-0.138l0.019,-0.137l0.023,-0.136l0.026,-0.135l0.029,-0.134l0.032,-0.133l0.036,-0.132l0.039,-0.13l0.042,-0.129l0.044,-0.127l0.048,-0.126l0.051,-0.124l0.054,-0.123l0.057,-0.121l0.059,-0.12l0.062,-0.118l0.065,-0.116l0.068,-0.114l0.07,-0.113l0.073,-0.11l0.075,-0.109l0.078,-0.107l0.08,-0.104l0.083,-0.103l0.085,-0.101l0.088,-0.098l0.089,-0.096l0.092,-0.095l0.094,-0.092l0.097,-0.089l0.098,-0.088l0.101,-0.085l0.103,-0.083l0.104,-0.08l0.107,-0.078l0.109,-0.075l0.11,-0.073l0.113,-0.07l0.114,-0.068l0.116,-0.065l0.118,-0.062l0.12,-0.059l0.121,-0.057l0.123,-0.054l0.124,-0.051l0.126,-0.048l0.127,-0.044l0.129,-0.042l0.13,-0.039l0.132,-0.036l0.133,-0.032l0.134,-0.029l0.135,-0.026l0.136,-0.023l0.137,-0.019l0.138,-0.016l0.139,-0.012l0.14,-0.009l0.14,-0.005l0.141,-0.002l0.141,0.002Zm-0.181,3.999l-0.039,0.001l-0.038,0.003l-0.038,0.003l-0.038,0.004l-0.037,0.006l-0.037,0.006l-0.037,0.007l-0.036,0.007l-0.035,0.009l-0.036,0.01l-0.035,0.01l-0.035,0.011l-0.034,0.013l-0.034,0.012l-0.033,0.014l-0.033,0.015l-0.033,0.015l-0.033,0.016l-0.032,0.017l-0.031,0.018l-0.031,0.018l-0.031,0.019l-0.03,0.02l-0.03,0.021l-0.029,0.021l-0.029,0.022l-0.029,0.023l-0.027,0.024l-0.028,0.024l-0.026,0.025l-0.026,0.025l-0.025,0.026l-0.025,0.027l-0.024,0.027l-0.024,0.027l-0.022,0.029l-0.023,0.028l-0.021,0.03l-0.021,0.03l-0.02,0.03l-0.019,0.031l-0.018,0.031l-0.018,0.031l-0.017,0.032l-0.016,0.033l-0.015,0.033l-0.015,0.033l-0.014,0.033l-0.012,0.034l-0.013,0.035l-0.011,0.034l-0.01,0.035l-0.01,0.036l-0.009,0.035l-0.007,0.036l-0.007,0.037l-0.007,0.037l-0.005,0.037l-0.004,0.038l-0.003,0.038l-0.003,0.038l-0.001,0.039l-0.001,0.04l0.001,0.04l0.001,0.039l0.003,0.038l0.003,0.038l0.004,0.038l0.005,0.037l0.007,0.037l0.007,0.037l0.007,0.036l0.009,0.035l0.01,0.036l0.01,0.035l0.011,0.034l0.013,0.035l0.012,0.034l0.014,0.033l0.015,0.033l0.015,0.033l0.016,0.033l0.017,0.032l0.018,0.031l0.018,0.031l0.019,0.031l0.02,0.03l0.021,0.03l0.021,0.03l0.022,0.028l0.023,0.029l0.024,0.027l0.024,0.027l0.025,0.027l0.025,0.026l0.026,0.025l0.026,0.025l0.028,0.024l0.027,0.024l0.029,0.023l0.029,0.022l0.029,0.021l0.03,0.021l0.03,0.02l0.031,0.019l0.031,0.018l0.031,0.018l0.032,0.017l0.033,0.016l0.033,0.015l0.033,0.015l0.033,0.014l0.034,0.012l0.034,0.013l0.035,0.011l0.035,0.01l0.036,0.01l0.035,0.009l0.036,0.007l0.037,0.007l0.037,0.006l0.037,0.006l0.038,0.004l0.038,0.003l0.038,0.003l0.039,0.001l0.04,0.001l0.04,-0.001l0.039,-0.001l0.038,-0.003l0.038,-0.003l0.038,-0.004l0.037,-0.006l0.037,-0.006l0.037,-0.007l0.036,-0.007l0.035,-0.009l0.036,-0.01l0.035,-0.01l0.035,-0.011l0.034,-0.013l0.034,-0.012l0.033,-0.014l0.033,-0.015l0.033,-0.015l0.033,-0.016l0.032,-0.017l0.031,-0.018l0.031,-0.018l0.031,-0.019l0.03,-0.02l0.03,-0.021l0.029,-0.021l0.029,-0.022l0.029,-0.023l0.027,-0.024l0.028,-0.024l0.026,-0.025l0.026,-0.025l0.025,-0.026l0.025,-0.027l0.024,-0.027l0.024,-0.027l0.023,-0.029l0.022,-0.028l0.021,-0.03l0.021,-0.03l0.02,-0.03l0.019,-0.031l0.018,-0.031l0.018,-0.031l0.017,-0.032l0.016,-0.033l0.015,-0.033l0.015,-0.033l0.014,-0.033l0.012,-0.034l0.013,-0.035l0.011,-0.034l0.01,-0.035l0.01,-0.036l0.009,-0.035l0.007,-0.036l0.007,-0.037l0.007,-0.037l0.005,-0.037l0.004,-0.038l0.003,-0.038l0.003,-0.038l0.001,-0.039l0.001,-0.04l-0.001,-0.04l-0.001,-0.039l-0.003,-0.038l-0.003,-0.038l-0.004,-0.038l-0.005,-0.037l-0.007,-0.037l-0.007,-0.037l-0.007,-0.036l-0.009,-0.035l-0.01,-0.036l-0.01,-0.035l-0.011,-0.034l-0.013,-0.035l-0.012,-0.034l-0.014,-0.033l-0.015,-0.033l-0.015,-0.033l-0.016,-0.033l-0.017,-0.032l-0.018,-0.031l-0.018,-0.031l-0.019,-0.031l-0.02,-0.03l-0.021,-0.03l-0.021,-0.03l-0.023,-0.028l-0.022,-0.029l-0.024,-0.027l-0.024,-0.027l-0.025,-0.027l-0.025,-0.026l-0.026,-0.025l-0.026,-0.025l-0.028,-0.024l-0.027,-0.024l-0.029,-0.023l-0.029,-0.022l-0.029,-0.021l-0.03,-0.021l-0.03,-0.02l-0.031,-0.019l-0.031,-0.018l-0.031,-0.018l-0.032,-0.017l-0.033,-0.016l-0.033,-0.015l-0.033,-0.015l-0.033,-0.014l-0.034,-0.012l-0.034,-0.013l-0.035,-0.011l-0.035,-0.01l-0.036,-0.01l-0.035,-0.009l-0.036,-0.007l-0.037,-0.007l-0.037,-0.006l-0.037,-0.006l-0.038,-0.004l-0.038,-0.003l-0.038,-0.003l-0.039,-0.001l-0.04,-0.001l-0.04,0.001Z"/><path d="M11.671,0.679l0.145,0.005l0.145,0.009l0.144,0.012l0.144,0.016l0.144,0.019l0.144,0.022l0.143,0.026l0.143,0.029l0.142,0.033l0.141,0.037l0.141,0.039l0.14,0.044l0.139,0.047l0.139,0.05l0.137,0.054l0.136,0.057l0.136,0.061l0.133,0.064l0.133,0.067l0.132,0.072l0.13,0.074l0.128,0.078l0.127,0.082l0.125,0.085l0.123,0.088l0.122,0.092l0.12,0.095l0.117,0.098l0.116,0.102l0.113,0.105l0.102,0.1l0.205,0.204l0.205,-0.204l0.102,-0.1l0.113,-0.105l0.116,-0.102l0.117,-0.098l0.12,-0.095l0.121,-0.092l0.124,-0.088l0.125,-0.085l0.127,-0.082l0.129,-0.078l0.129,-0.074l0.132,-0.072l0.132,-0.067l0.135,-0.064l0.135,-0.061l0.136,-0.057l0.137,-0.054l0.139,-0.05l0.139,-0.047l0.14,-0.044l0.141,-0.039l0.141,-0.037l0.142,-0.033l0.143,-0.029l0.143,-0.026l0.144,-0.022l0.144,-0.019l0.144,-0.016l0.144,-0.012l0.145,-0.009l0.145,-0.005l0.145,-0.002l0.145,0.002l0.144,0.005l0.145,0.009l0.144,0.012l0.145,0.016l0.144,0.019l0.143,0.022l0.143,0.026l0.143,0.029l0.142,0.033l0.142,0.037l0.141,0.04l0.139,0.043l0.14,0.047l0.138,0.05l0.137,0.054l0.137,0.057l0.135,0.061l0.134,0.064l0.132,0.067l0.132,0.072l0.13,0.074l0.128,0.078l0.127,0.082l0.125,0.085l0.124,0.088l0.121,0.092l0.12,0.095l0.118,0.098l0.115,0.102l0.114,0.105l0.099,0.097l0.015,0.015l0.059,0.06l0.061,0.063l0.059,0.063l0.059,0.064l0.058,0.065l0.057,0.065l0.055,0.066l0.055,0.067l0.054,0.067l0.053,0.067l0.053,0.069l0.051,0.068l0.05,0.069l0.049,0.07l0.048,0.07l0.051,0.076l0.088,0.137l0.088,0.145l0.084,0.146l0.08,0.148l0.076,0.149l0.072,0.15l0.068,0.153l0.065,0.153l0.06,0.154l0.057,0.156l0.052,0.157l0.049,0.157l0.045,0.159l0.041,0.159l0.037,0.159l0.033,0.161l0.029,0.161l0.025,0.162l0.022,0.162l0.017,0.162l0.014,0.162l0.01,0.163l0.005,0.163l0.002,0.163l-0.002,0.163l-0.005,0.163l-0.01,0.163l-0.014,0.162l-0.017,0.163l-0.022,0.162l-0.025,0.161l-0.029,0.161l-0.033,0.161l-0.037,0.16l-0.041,0.159l-0.045,0.158l-0.049,0.158l-0.052,0.156l-0.057,0.156l-0.06,0.154l-0.065,0.154l-0.068,0.152l-0.072,0.15l-0.076,0.15l-0.08,0.147l-0.084,0.147l-0.088,0.144l-0.088,0.138l-0.051,0.075l-0.048,0.07l-0.049,0.07l-0.05,0.069l-0.051,0.069l-0.053,0.068l-0.053,0.068l-0.054,0.066l-0.054,0.067l-0.056,0.066l-0.057,0.065l-0.058,0.065l-0.059,0.064l-0.059,0.064l-0.061,0.062l-0.057,0.058l-8.757,8.757l-8.757,-8.757l-0.057,-0.057l-0.061,-0.063l-0.059,-0.064l-0.059,-0.064l-0.058,-0.065l-0.057,-0.065l-0.055,-0.066l-0.055,-0.066l-0.054,-0.067l-0.053,-0.068l-0.052,-0.068l-0.052,-0.069l-0.05,-0.069l-0.049,-0.07l-0.048,-0.07l-0.051,-0.076l-0.088,-0.137l-0.088,-0.144l-0.084,-0.147l-0.08,-0.147l-0.076,-0.15l-0.072,-0.15l-0.068,-0.152l-0.065,-0.154l-0.06,-0.154l-0.057,-0.156l-0.052,-0.156l-0.049,-0.158l-0.045,-0.158l-0.041,-0.16l-0.037,-0.159l-0.033,-0.161l-0.029,-0.161l-0.025,-0.161l-0.022,-0.162l-0.017,-0.163l-0.014,-0.162l-0.01,-0.163l-0.005,-0.163l-0.002,-0.163l0.002,-0.163l0.005,-0.163l0.01,-0.163l0.014,-0.162l0.017,-0.162l0.022,-0.162l0.025,-0.162l0.029,-0.161l0.033,-0.16l0.037,-0.16l0.041,-0.159l0.045,-0.159l0.049,-0.158l0.052,-0.156l0.057,-0.155l0.06,-0.155l0.065,-0.153l0.068,-0.152l0.072,-0.151l0.076,-0.149l0.08,-0.148l0.084,-0.146l0.088,-0.145l0.088,-0.137l0.051,-0.076l0.048,-0.07l0.049,-0.07l0.05,-0.069l0.052,-0.069l0.052,-0.068l0.053,-0.067l0.054,-0.067l0.055,-0.067l0.055,-0.066l0.057,-0.065l0.058,-0.065l0.059,-0.064l0.059,-0.063l0.061,-0.063l0.059,-0.06l0.015,-0.015l0.099,-0.097l0.114,-0.105l0.115,-0.102l0.118,-0.098l0.12,-0.095l0.121,-0.092l0.124,-0.088l0.125,-0.085l0.127,-0.082l0.128,-0.078l0.13,-0.074l0.131,-0.072l0.133,-0.067l0.134,-0.064l0.135,-0.061l0.137,-0.057l0.137,-0.054l0.138,-0.05l0.14,-0.047l0.14,-0.044l0.14,-0.039l0.142,-0.037l0.142,-0.033l0.143,-0.029l0.143,-0.026l0.143,-0.022l0.144,-0.019l0.145,-0.016l0.144,-0.012l0.145,-0.009l0.144,-0.005l0.145,-0.002l0.145,0.002Zm8.753,3.999l-0.049,0.002l-0.05,0.003l-0.049,0.004l-0.049,0.005l-0.049,0.007l-0.049,0.008l-0.049,0.008l-0.048,0.01l-0.048,0.011l-0.048,0.013l-0.048,0.013l-0.047,0.015l-0.047,0.016l-0.047,0.017l-0.046,0.018l-0.045,0.019l-0.046,0.02l-0.045,0.022l-0.044,0.022l-0.044,0.024l-0.044,0.025l-0.043,0.027l-0.043,0.027l-0.042,0.029l-0.041,0.029l-0.042,0.031l-0.04,0.033l-0.04,0.033l-0.04,0.035l-0.039,0.036l-0.048,0.047l-3.015,3.015l-3.015,-3.015l-0.048,-0.047l-0.039,-0.036l-0.04,-0.035l-0.04,-0.033l-0.04,-0.033l-0.041,-0.031l-0.042,-0.029l-0.042,-0.029l-0.043,-0.027l-0.043,-0.027l-0.044,-0.025l-0.044,-0.024l-0.044,-0.022l-0.045,-0.022l-0.046,-0.02l-0.045,-0.019l-0.046,-0.018l-0.047,-0.017l-0.047,-0.016l-0.047,-0.015l-0.048,-0.013l-0.048,-0.013l-0.048,-0.011l-0.048,-0.01l-0.049,-0.008l-0.049,-0.008l-0.049,-0.007l-0.049,-0.005l-0.049,-0.004l-0.05,-0.003l-0.049,-0.002l-0.05,0l-0.049,0l-0.05,0.002l-0.049,0.003l-0.049,0.004l-0.049,0.005l-0.049,0.007l-0.049,0.008l-0.049,0.008l-0.048,0.01l-0.049,0.012l-0.047,0.012l-0.048,0.013l-0.047,0.015l-0.047,0.016l-0.047,0.017l-0.046,0.018l-0.046,0.019l-0.045,0.02l-0.045,0.022l-0.045,0.022l-0.044,0.024l-0.043,0.025l-0.043,0.026l-0.043,0.028l-0.042,0.029l-0.042,0.029l-0.041,0.031l-0.041,0.033l-0.04,0.033l-0.039,0.035l-0.04,0.036l-0.043,0.043l-0.022,0.022l-0.025,0.027l-0.025,0.026l-0.025,0.027l-0.024,0.027l-0.024,0.027l-0.023,0.027l-0.023,0.028l-0.022,0.028l-0.022,0.028l-0.021,0.028l-0.021,0.028l-0.021,0.028l-0.02,0.029l-0.02,0.029l-0.016,0.023l-0.041,0.064l-0.036,0.059l-0.034,0.06l-0.033,0.061l-0.031,0.061l-0.029,0.061l-0.028,0.063l-0.027,0.062l-0.024,0.063l-0.024,0.064l-0.021,0.065l-0.02,0.065l-0.019,0.065l-0.017,0.065l-0.015,0.066l-0.013,0.067l-0.013,0.066l-0.01,0.067l-0.009,0.067l-0.007,0.067l-0.006,0.068l-0.004,0.067l-0.002,0.068l-0.001,0.067l0.001,0.068l0.002,0.067l0.004,0.068l0.006,0.067l0.007,0.068l0.009,0.067l0.01,0.066l0.013,0.067l0.013,0.066l0.015,0.066l0.017,0.066l0.019,0.065l0.02,0.064l0.021,0.065l0.024,0.064l0.024,0.063l0.027,0.063l0.028,0.062l0.029,0.062l0.031,0.061l0.033,0.06l0.034,0.06l0.036,0.059l0.041,0.064l0.016,0.024l0.02,0.028l0.02,0.029l0.021,0.029l0.021,0.028l0.021,0.028l0.022,0.028l0.022,0.027l0.023,0.028l0.023,0.027l0.024,0.028l0.024,0.026l0.025,0.027l0.025,0.027l0.025,0.026l0.03,0.031l5.92,5.92l5.92,-5.92l0.03,-0.031l0.025,-0.026l0.025,-0.027l0.025,-0.027l0.024,-0.027l0.024,-0.027l0.023,-0.027l0.022,-0.027l0.023,-0.029l0.022,-0.027l0.021,-0.028l0.021,-0.028l0.021,-0.029l0.02,-0.029l0.02,-0.029l0.016,-0.023l0.041,-0.064l0.036,-0.059l0.034,-0.06l0.033,-0.06l0.031,-0.061l0.029,-0.062l0.028,-0.062l0.027,-0.063l0.024,-0.063l0.024,-0.064l0.021,-0.064l0.02,-0.065l0.019,-0.065l0.017,-0.066l0.015,-0.066l0.013,-0.066l0.013,-0.067l0.01,-0.066l0.009,-0.068l0.007,-0.067l0.006,-0.067l0.004,-0.068l0.002,-0.067l0.001,-0.068l-0.001,-0.067l-0.002,-0.068l-0.004,-0.067l-0.006,-0.068l-0.007,-0.067l-0.009,-0.067l-0.01,-0.067l-0.013,-0.067l-0.013,-0.066l-0.015,-0.066l-0.017,-0.065l-0.019,-0.066l-0.02,-0.064l-0.021,-0.064l-0.024,-0.064l-0.024,-0.064l-0.027,-0.062l-0.028,-0.063l-0.029,-0.061l-0.031,-0.061l-0.033,-0.061l-0.034,-0.06l-0.036,-0.059l-0.041,-0.063l-0.016,-0.024l-0.02,-0.029l-0.02,-0.029l-0.021,-0.028l-0.021,-0.029l-0.021,-0.027l-0.022,-0.028l-0.023,-0.028l-0.022,-0.028l-0.023,-0.027l-0.024,-0.027l-0.024,-0.027l-0.025,-0.027l-0.025,-0.026l-0.025,-0.027l-0.022,-0.022l-0.043,-0.043l-0.04,-0.036l-0.039,-0.035l-0.04,-0.033l-0.041,-0.033l-0.041,-0.031l-0.042,-0.029l-0.042,-0.029l-0.043,-0.027l-0.043,-0.027l-0.043,-0.025l-0.044,-0.023l-0.045,-0.023l-0.045,-0.022l-0.045,-0.02l-0.046,-0.019l-0.046,-0.018l-0.047,-0.017l-0.047,-0.016l-0.047,-0.015l-0.048,-0.013l-0.047,-0.012l-0.049,-0.012l-0.048,-0.01l-0.049,-0.008l-0.049,-0.008l-0.049,-0.007l-0.049,-0.005l-0.049,-0.004l-0.049,-0.003l-0.05,-0.002l-0.049,0l-0.05,0Z"/></g><g id="emoji"><path d="M16,18c0,0 -4.193,-4.193 -7.338,-7.338c-1.877,-1.877 -1.877,-4.92 0,-6.797c0,-0.001 0,-0.001 0.001,-0.001c1.581,-1.582 4.145,-1.582 5.727,0c0.875,0.874 1.61,1.61 1.61,1.61c0,0 0.735,-0.736 1.61,-1.61c1.582,-1.582 4.146,-1.582 5.727,0c0.001,0 0.001,0 0.001,0.001c1.877,1.877 1.877,4.92 0,6.797c-3.145,3.145 -7.338,7.338 -7.338,7.338Z" style="fill:#d92020;"/><circle cx="16" cy="26.5" r="3.5" style="fill:#d92020;"/><path d="M13,12.5c0,0 -1.608,-1.608 -3,-3c-0.531,-0.531 -0.829,-1.25 -0.829,-2c0,-0.75 0.298,-1.469 0.829,-2c0,0 0,0 0,0" style="fill:none;stroke:#fb7f85;stroke-width:2px;"/></g></g></svg>