<?xml version="1.0" encoding="UTF-8" standalone="no"?><!DOCTYPE svg PUBLIC "-//W3C//DTD SVG 1.1//EN" "http://www.w3.org/Graphics/SVG/1.1/DTD/svg11.dtd"><svg width="100%" height="100%" viewBox="0 0 32 32" version="1.1" xmlns="http://www.w3.org/2000/svg" xmlns:xlink="http://www.w3.org/1999/xlink" xml:space="preserve" xmlns:serif="http://www.serif.com/" style="fill-rule:evenodd;clip-rule:evenodd;stroke-linejoin:round;stroke-miterlimit:1.41421;">
<metadata>
<rdf:RDF xmlns:cc="http://web.resource.org/cc/"
         xmlns:rdf="http://www.w3.org/1999/02/22-rdf-syntax-ns#"
         xmlns:dc = "http://purl.org/dc/elements/1.1/"
         >

     <rdf:Description rdf:about="">
       <dc:title>Mutant Standard emoji v0.2.3</dc:title>
     </rdf:Description>

    <cc:work rdf:about="">
        <cc:license rdf:resource="http://creativecommons.org/licenses/by-nc-sa/4.0/"/>
        <cc:attributionName>Dzuk</cc:attributionName>
        <cc:attributionURL>http://mutant.tech/</cc:attributionURL>
    </cc:work>

</rdf:RDF>
</metadata>
<rect id="purple_heart" x="0" y="0" width="32" height="32" style="fill:none;"/><g id="outline"><path d="M10.216,2.784c0.609,0.019 1.213,0.094 1.805,0.235c1.036,0.247 2.025,0.685 2.903,1.287c0.382,0.261 0.739,0.553 1.076,0.87c0.076,-0.072 0.153,-0.142 0.23,-0.211c0.297,-0.259 0.607,-0.5 0.934,-0.719c0.679,-0.452 1.422,-0.809 2.199,-1.056c1.092,-0.346 2.25,-0.475 3.391,-0.375c1.063,0.092 2.107,0.381 3.066,0.849c1.352,0.659 2.524,1.67 3.374,2.912c0.642,0.937 1.097,2 1.334,3.111c0.171,0.807 0.227,1.638 0.166,2.46c-0.068,0.923 -0.285,1.834 -0.639,2.688c-0.299,0.723 -0.696,1.404 -1.177,2.021c-0.219,0.282 -0.457,0.548 -0.708,0.803l-12.17,12.169c-4.081,-4.08 -8.186,-8.136 -12.241,-12.242c-0.075,-0.078 -0.149,-0.156 -0.222,-0.236c-0.239,-0.267 -0.464,-0.545 -0.67,-0.838c-0.449,-0.639 -0.811,-1.338 -1.075,-2.073c-0.337,-0.941 -0.51,-1.939 -0.51,-2.939c0,-0.822 0.117,-1.644 0.346,-2.433c0.258,-0.886 0.657,-1.73 1.178,-2.491c0.971,-1.418 2.361,-2.532 3.957,-3.171c0.693,-0.277 1.422,-0.465 2.162,-0.557c0.321,-0.04 0.644,-0.059 0.967,-0.066c0.108,0 0.216,0 0.324,0.002Z" style="fill-rule:nonzero;"/></g><g id="emoji"><path d="M16,27c0,0 -6.194,-6.194 -10.751,-10.751c-1.26,-1.26 -1.967,-2.968 -1.967,-4.749c0,-1.781 0.707,-3.489 1.967,-4.749c0.001,-0.001 0.001,-0.001 0.002,-0.002c1.26,-1.26 2.968,-1.967 4.749,-1.967c1.781,0 3.489,0.707 4.749,1.967c0.732,0.732 1.251,1.251 1.251,1.251c0,0 0.519,-0.519 1.251,-1.251c1.26,-1.26 2.968,-1.967 4.749,-1.967c1.781,0 3.489,0.707 4.749,1.967c0.001,0.001 0.001,0.001 0.002,0.002c1.26,1.26 1.967,2.968 1.967,4.749c0,1.781 -0.707,3.489 -1.967,4.749c-4.557,4.557 -10.751,10.751 -10.751,10.751Z" style="fill:#982eee;"/><path d="M8.1,7.003c0.214,0.02 0.419,0.073 0.609,0.175c0.118,0.063 0.226,0.142 0.323,0.233c0.372,0.353 0.54,0.885 0.438,1.387c-0.032,0.156 -0.088,0.307 -0.168,0.446c-0.04,0.07 -0.086,0.134 -0.135,0.198c-0.051,0.061 -0.051,0.06 -0.106,0.119c-0.002,0.002 0.008,-0.009 0.006,-0.007c-0.05,0.052 -0.098,0.103 -0.145,0.157c-0.188,0.223 -0.344,0.469 -0.456,0.74c-0.285,0.688 -0.275,1.479 0.026,2.16c0.128,0.289 0.306,0.548 0.521,0.779c1.662,1.704 3.365,3.366 5.048,5.049c0.055,0.059 0.108,0.117 0.155,0.183c0.109,0.151 0.19,0.322 0.236,0.503c0.04,0.154 0.055,0.315 0.045,0.475c-0.036,0.539 -0.37,1.028 -0.859,1.258c-0.169,0.079 -0.352,0.126 -0.538,0.139c-0.186,0.012 -0.374,-0.011 -0.552,-0.067c-0.206,-0.065 -0.387,-0.175 -0.551,-0.314c-1.732,-1.643 -3.377,-3.375 -5.065,-5.062c-0.163,-0.168 -0.319,-0.341 -0.463,-0.525c-0.316,-0.407 -0.578,-0.856 -0.775,-1.332c-0.324,-0.782 -0.472,-1.635 -0.43,-2.482c0.044,-0.89 0.298,-1.766 0.737,-2.542c0.255,-0.451 0.572,-0.867 0.938,-1.234l0.058,-0.055c0.061,-0.052 0.123,-0.101 0.191,-0.145c0.134,-0.086 0.282,-0.151 0.437,-0.191c0.104,-0.027 0.208,-0.04 0.315,-0.047c0.08,-0.001 0.08,-0.001 0.16,0.002Z" style="fill:#c180f7;fill-rule:nonzero;"/></g></svg>