<?xml version="1.0" encoding="UTF-8" standalone="no"?><!DOCTYPE svg PUBLIC "-//W3C//DTD SVG 1.1//EN" "http://www.w3.org/Graphics/SVG/1.1/DTD/svg11.dtd"><svg width="100%" height="100%" viewBox="0 0 32 32" version="1.1" xmlns="http://www.w3.org/2000/svg" xmlns:xlink="http://www.w3.org/1999/xlink" xml:space="preserve" xmlns:serif="http://www.serif.com/" style="fill-rule:evenodd;clip-rule:evenodd;stroke-linejoin:round;stroke-miterlimit:1.41421;">
<metadata>
<rdf:RDF xmlns:cc="http://web.resource.org/cc/"
         xmlns:rdf="http://www.w3.org/1999/02/22-rdf-syntax-ns#"
         xmlns:dc = "http://purl.org/dc/elements/1.1/"
         >

     <rdf:Description rdf:about="">
       <dc:title>Mutant Standard emoji v0.2.3</dc:title>
     </rdf:Description>

    <cc:work rdf:about="">
        <cc:license rdf:resource="http://creativecommons.org/licenses/by-nc-sa/4.0/"/>
        <cc:attributionName>Dzuk</cc:attributionName>
        <cc:attributionURL>http://mutant.tech/</cc:attributionURL>
    </cc:work>

</rdf:RDF>
</metadata>
<rect id="sparkling_heart" x="0" y="0" width="32" height="32" style="fill:none;"/><g id="outline"><path d="M9.994,2.782c0.074,0 0.148,0.001 0.222,0.002c0.609,0.019 1.213,0.094 1.805,0.235c1.036,0.247 2.025,0.685 2.903,1.287c0.382,0.261 0.739,0.553 1.076,0.87c0.076,-0.072 0.153,-0.142 0.23,-0.211c0.297,-0.259 0.607,-0.5 0.934,-0.719c0.679,-0.452 1.422,-0.809 2.199,-1.056c1.092,-0.346 2.25,-0.475 3.391,-0.375c1.063,0.092 2.107,0.381 3.066,0.849c1.352,0.659 2.524,1.67 3.374,2.912c0.642,0.937 1.097,2 1.334,3.111c0.171,0.807 0.227,1.638 0.166,2.46c-0.068,0.923 -0.285,1.834 -0.639,2.688c-0.299,0.723 -0.696,1.404 -1.177,2.021c-0.219,0.282 -0.457,0.548 -0.708,0.803l-1.192,1.191c0.059,0.036 0.121,0.066 0.186,0.089c0.1,0.036 0.205,0.055 0.311,0.059l2.025,0.025l0,3.954c-0.691,0.009 -1.384,-0.015 -2.074,0.028c-0.106,0.009 -0.21,0.032 -0.308,0.073c-0.25,0.104 -0.451,0.31 -0.549,0.563c-0.041,0.107 -0.062,0.22 -0.067,0.334l-0.025,2.025l-3.954,0c-0.009,-0.691 0.015,-1.384 -0.028,-2.074c-0.009,-0.106 -0.032,-0.21 -0.073,-0.308c-0.02,-0.049 -0.044,-0.095 -0.072,-0.14l-6.35,6.35c-4.081,-4.08 -8.186,-8.136 -12.241,-12.242c-0.075,-0.078 -0.149,-0.156 -0.222,-0.236c-0.239,-0.267 -0.464,-0.545 -0.67,-0.838c-0.449,-0.639 -0.811,-1.338 -1.075,-2.073c-0.337,-0.941 -0.51,-1.939 -0.51,-2.939c0,-0.17 0.005,-0.339 0.015,-0.509l-0.297,-0.002l0,-3.978c0.509,-0.003 1.018,0.005 1.527,0c0.089,-0.148 0.182,-0.293 0.279,-0.435c0.813,-1.187 1.919,-2.161 3.194,-2.821l0.011,-1.755l3.978,0l0.005,0.782Z"/></g><g id="emoji"><path d="M10.106,4.783c1.743,0.027 3.408,0.731 4.643,1.966c0.732,0.732 1.251,1.251 1.251,1.251c0,0 0.519,-0.519 1.251,-1.251c1.26,-1.26 2.968,-1.967 4.749,-1.967c1.781,0 3.489,0.707 4.749,1.967c0.001,0.001 0.001,0.001 0.002,0.002c1.26,1.26 1.967,2.968 1.967,4.749c0,1.781 -0.707,3.489 -1.967,4.749l-0.268,0.268l-2.96,1.483l-2.023,2.023l-1.484,2.961l-4.016,4.016c0,0 -6.194,-6.194 -10.751,-10.751c-1.26,-1.26 -1.967,-2.968 -1.967,-4.749c0,-0.162 0.006,-0.322 0.017,-0.482c0.25,0.025 6.841,-6.105 6.807,-6.235Z" style="fill:#f229a2;"/><path d="M8.1,7.003c0.214,0.02 0.419,0.073 0.609,0.175c0.118,0.063 0.226,0.142 0.323,0.233c0.372,0.353 0.54,0.885 0.438,1.387c-0.031,0.156 -0.088,0.307 -0.168,0.446c-0.04,0.07 -0.086,0.134 -0.135,0.198c-0.051,0.061 -0.051,0.06 -0.106,0.119c-0.002,0.002 0.008,-0.008 0.006,-0.006c-0.05,0.051 -0.098,0.102 -0.145,0.156c-0.188,0.223 -0.344,0.469 -0.456,0.74c-0.285,0.688 -0.276,1.479 0.026,2.16c0.128,0.289 0.306,0.548 0.521,0.779c1.662,1.704 3.365,3.366 5.048,5.049c0.148,0.157 0.267,0.331 0.343,0.533c0.066,0.175 0.098,0.362 0.096,0.548c-0.003,0.186 -0.04,0.372 -0.11,0.545c-0.204,0.5 -0.674,0.86 -1.211,0.924c-0.158,0.019 -0.32,0.013 -0.477,-0.019c-0.182,-0.037 -0.358,-0.108 -0.514,-0.209c-0.068,-0.044 -0.13,-0.093 -0.191,-0.145c-1.732,-1.643 -3.377,-3.375 -5.065,-5.062c-0.163,-0.168 -0.319,-0.341 -0.463,-0.525c-0.316,-0.407 -0.578,-0.856 -0.775,-1.332c-0.342,-0.826 -0.488,-1.731 -0.421,-2.623c0.062,-0.842 0.313,-1.666 0.728,-2.401c0.255,-0.451 0.572,-0.867 0.938,-1.234l0.058,-0.055c0.082,-0.069 0.165,-0.133 0.259,-0.186c0.139,-0.08 0.29,-0.137 0.446,-0.168c0.079,-0.016 0.158,-0.023 0.238,-0.029c0.08,-0.001 0.08,-0.001 0.16,0.002Z" style="fill:#f88dcf;fill-rule:nonzero;"/><path d="M26.483,16.517l-6.467,6.467l-0.516,-0.007l0,-3.954c0.691,-0.009 1.384,0.015 2.074,-0.028c0.106,-0.009 0.209,-0.032 0.308,-0.073c0.258,-0.107 0.463,-0.323 0.557,-0.586c0.034,-0.092 0.052,-0.188 0.058,-0.286l0.001,-0.025l0.025,-2.025l3.954,0l0.006,0.517Zm-23.184,-5.499c0.116,-1.605 0.805,-3.122 1.95,-4.267c0.001,-0.001 0.001,-0.001 0.002,-0.002c1.26,-1.26 2.968,-1.967 4.749,-1.967c0.035,0 0.07,0 0.106,0.001c0.034,0.13 0.078,0.258 0.131,0.383c0.316,0.748 0.939,1.35 1.698,1.638c0.328,0.124 0.675,0.187 1.026,0.194l2.039,0.013l0,3.978c-0.719,0.005 -1.438,-0.015 -2.156,0.017c-0.311,0.018 -0.617,0.079 -0.909,0.19c-0.736,0.279 -1.345,0.854 -1.669,1.571c-0.165,0.364 -0.25,0.756 -0.263,1.155l-0.001,0.039l-0.013,2.039l-3.978,0c-0.005,-0.719 0.015,-1.438 -0.017,-2.156c-0.004,-0.076 -0.011,-0.152 -0.02,-0.228c-0.046,-0.342 -0.146,-0.673 -0.303,-0.98c-0.342,-0.667 -0.936,-1.195 -1.64,-1.453c-0.237,-0.086 -0.482,-0.14 -0.732,-0.165Z" style="fill:#6b114c;"/><path d="M27.5,20.998c-0.795,0 -1.558,-0.316 -2.12,-0.878c-0.562,-0.562 -0.878,-1.325 -0.878,-2.12c-0.016,0 -0.032,0 -0.048,0c0,1.631 -1.323,2.954 -2.954,2.954c0,0.031 0,0.061 0,0.092c1.631,0 2.954,1.323 2.954,2.954c0.016,0 0.032,0 0.048,0c0,-0.795 0.316,-1.558 0.878,-2.12c0.562,-0.562 1.325,-0.878 2.12,-0.878c0,-0.001 0,-0.003 0,-0.004Z" style="fill:#fdef24;"/><path d="M13,8.998c-2.76,0 -4.998,-2.238 -4.998,-4.998c-0.001,0 -0.003,0 -0.004,0c0,2.76 -2.238,4.998 -4.998,4.998c0,0.001 0,0.003 0,0.004c2.76,0 4.998,2.238 4.998,4.998c0.001,0 0.003,0 0.004,0c0,-2.76 2.238,-4.998 4.998,-4.998c0,-0.001 0,-0.003 0,-0.004Z" style="fill:#fdef24;"/></g></svg>