<?xml version="1.0" encoding="UTF-8" standalone="no"?><!DOCTYPE svg PUBLIC "-//W3C//DTD SVG 1.1//EN" "http://www.w3.org/Graphics/SVG/1.1/DTD/svg11.dtd"><svg width="100%" height="100%" viewBox="0 0 32 32" version="1.1" xmlns="http://www.w3.org/2000/svg" xmlns:xlink="http://www.w3.org/1999/xlink" xml:space="preserve" xmlns:serif="http://www.serif.com/" style="fill-rule:evenodd;clip-rule:evenodd;stroke-linejoin:round;stroke-miterlimit:1.41421;">
<metadata>
<rdf:RDF xmlns:cc="http://web.resource.org/cc/"
         xmlns:rdf="http://www.w3.org/1999/02/22-rdf-syntax-ns#"
         xmlns:dc = "http://purl.org/dc/elements/1.1/"
         >

     <rdf:Description rdf:about="">
       <dc:title>Mutant Standard emoji v0.2.3</dc:title>
     </rdf:Description>

    <cc:work rdf:about="">
        <cc:license rdf:resource="http://creativecommons.org/licenses/by-nc-sa/4.0/"/>
        <cc:attributionName>Dzuk</cc:attributionName>
        <cc:attributionURL>http://mutant.tech/</cc:attributionURL>
    </cc:work>

</rdf:RDF>
</metadata>
<rect id="two_hearts" x="0" y="0" width="32" height="32" style="fill:none;"/><path d="M21.594,2.059l0.112,0.007l0.111,0.01l0.112,0.012l0.11,0.015l0.111,0.018l0.109,0.021l0.109,0.023l0.108,0.026l0.108,0.028l0.106,0.031l0.106,0.034l0.105,0.036l0.103,0.038l0.103,0.042l0.102,0.043l0.101,0.046l0.1,0.049l0.098,0.051l0.098,0.053l0.096,0.056l0.094,0.058l0.094,0.061l0.092,0.063l0.018,0.013l0.019,-0.013l0.092,-0.063l0.093,-0.061l0.094,-0.058l0.096,-0.056l0.098,-0.053l0.098,-0.051l0.1,-0.049l0.101,-0.046l0.102,-0.043l0.103,-0.042l0.103,-0.038l0.105,-0.036l0.106,-0.034l0.106,-0.031l0.108,-0.028l0.108,-0.026l0.109,-0.023l0.109,-0.021l0.111,-0.018l0.11,-0.015l0.112,-0.012l0.111,-0.01l0.112,-0.007l0.113,-0.004l0.113,-0.001l0.112,0.001l0.113,0.004l0.112,0.007l0.112,0.01l0.111,0.012l0.111,0.015l0.11,0.018l0.109,0.021l0.109,0.023l0.108,0.026l0.108,0.028l0.106,0.031l0.106,0.034l0.105,0.036l0.104,0.038l0.103,0.042l0.101,0.043l0.101,0.046l0.1,0.049l0.098,0.051l0.098,0.053l0.096,0.056l0.094,0.058l0.094,0.061l0.092,0.063l0.09,0.065l0.089,0.068l0.087,0.07l0.086,0.072l0.085,0.074l0.082,0.077l0.079,0.077l0.019,0.019l0.065,0.067l0.079,0.085l0.076,0.086l0.074,0.088l0.072,0.09l0.069,0.091l0.067,0.093l0.065,0.095l0.062,0.096l0.06,0.097l0.057,0.098l0.055,0.1l0.052,0.101l0.05,0.102l0.048,0.104l0.045,0.105l0.042,0.105l0.039,0.107l0.038,0.108l0.034,0.107l0.032,0.11l0.029,0.11l0.026,0.112l0.024,0.111l0.021,0.112l0.018,0.114l0.016,0.113l0.013,0.114l0.01,0.115l0.007,0.115l0.004,0.116l0.001,0.115l-0.001,0.116l-0.004,0.115l-0.007,0.116l-0.01,0.115l-0.013,0.113l-0.016,0.114l-0.018,0.113l-0.021,0.112l-0.024,0.112l-0.026,0.111l-0.029,0.111l-0.032,0.109l-0.034,0.108l-0.038,0.108l-0.039,0.107l-0.042,0.105l-0.045,0.105l-0.048,0.103l-0.05,0.102l-0.052,0.102l-0.055,0.099l-0.057,0.099l-0.06,0.097l-0.062,0.096l-0.065,0.094l-0.067,0.093l-0.069,0.091l-0.072,0.09l-0.074,0.088l-0.076,0.087l-0.079,0.085l-0.072,0.073l-5.855,5.855l-5.855,-5.855l-0.072,-0.074l-0.079,-0.084l-0.076,-0.087l-0.074,-0.088l-0.072,-0.09l-0.069,-0.091l-0.067,-0.093l-0.065,-0.094l-0.062,-0.096l-0.06,-0.097l-0.057,-0.099l-0.055,-0.1l-0.052,-0.101l-0.05,-0.102l-0.048,-0.103l-0.044,-0.105l-0.043,-0.106l-0.039,-0.106l-0.037,-0.108l-0.035,-0.108l-0.032,-0.109l-0.029,-0.111l-0.026,-0.111l-0.024,-0.111l-0.021,-0.113l-0.018,-0.113l-0.016,-0.114l-0.013,-0.114l-0.01,-0.115l-0.007,-0.114l-0.004,-0.116l-0.001,-0.116l0.001,-0.116l0.004,-0.115l0.007,-0.115l0.01,-0.115l0.013,-0.114l0.016,-0.113l0.018,-0.114l0.021,-0.112l0.024,-0.111l0.026,-0.112l0.029,-0.11l0.032,-0.11l0.035,-0.108l0.037,-0.107l0.039,-0.107l0.043,-0.106l0.044,-0.104l0.048,-0.103l0.05,-0.103l0.052,-0.101l0.055,-0.1l0.057,-0.098l0.06,-0.097l0.062,-0.096l0.065,-0.095l0.067,-0.093l0.069,-0.091l0.072,-0.09l0.074,-0.088l0.076,-0.086l0.079,-0.085l0.072,-0.074l0.019,-0.019l0.072,-0.07l0.082,-0.077l0.085,-0.074l0.085,-0.072l0.088,-0.07l0.089,-0.068l0.09,-0.065l0.092,-0.063l0.094,-0.061l0.094,-0.058l0.096,-0.056l0.098,-0.053l0.098,-0.051l0.1,-0.049l0.101,-0.046l0.101,-0.043l0.103,-0.042l0.104,-0.038l0.105,-0.036l0.106,-0.034l0.106,-0.031l0.108,-0.028l0.108,-0.026l0.109,-0.023l0.109,-0.021l0.11,-0.018l0.111,-0.015l0.111,-0.012l0.112,-0.01l0.112,-0.007l0.113,-0.004l0.112,-0.001l0.113,0.001l0.113,0.004Zm5.024,3.995l-0.013,0.001l-0.014,0l-0.013,0.002l-0.014,0.001l-0.013,0.002l-0.013,0.002l-0.013,0.002l-0.013,0.003l-0.013,0.003l-0.013,0.004l-0.013,0.003l-0.012,0.004l-0.013,0.005l-0.012,0.004l-0.012,0.005l-0.013,0.006l-0.012,0.005l-0.012,0.006l-0.011,0.006l-0.012,0.006l-0.012,0.007l-0.011,0.007l-0.011,0.007l-0.011,0.008l-0.011,0.008l-0.01,0.008l-0.011,0.008l-0.01,0.009l-0.01,0.009l-0.01,0.009l-0.019,0.018l-2.238,2.238l-2.238,-2.238l-0.019,-0.018l-0.01,-0.01l-0.01,-0.009l-0.01,-0.008l-0.01,-0.008l-0.011,-0.008l-0.011,-0.008l-0.011,-0.008l-0.011,-0.007l-0.011,-0.007l-0.012,-0.007l-0.011,-0.006l-0.012,-0.006l-0.012,-0.006l-0.012,-0.005l-0.013,-0.006l-0.012,-0.005l-0.012,-0.004l-0.013,-0.005l-0.012,-0.004l-0.013,-0.003l-0.013,-0.004l-0.013,-0.003l-0.013,-0.003l-0.013,-0.002l-0.013,-0.002l-0.013,-0.002l-0.014,-0.001l-0.013,-0.002l-0.014,0l-0.013,-0.001l-0.014,0l-0.013,0l-0.014,0.001l-0.013,0l-0.013,0.002l-0.014,0.001l-0.013,0.002l-0.013,0.002l-0.013,0.002l-0.013,0.003l-0.013,0.003l-0.013,0.004l-0.013,0.003l-0.012,0.004l-0.013,0.005l-0.012,0.004l-0.013,0.005l-0.012,0.006l-0.012,0.005l-0.012,0.006l-0.012,0.006l-0.011,0.006l-0.012,0.007l-0.011,0.007l-0.011,0.007l-0.011,0.008l-0.011,0.008l-0.011,0.008l-0.01,0.008l-0.01,0.009l-0.011,0.009l-0.009,0.009l-0.011,0.01l-0.012,0.013l-0.012,0.012l-0.01,0.012l-0.011,0.013l-0.01,0.012l-0.01,0.013l-0.01,0.014l-0.009,0.013l-0.008,0.013l-0.009,0.014l-0.008,0.014l-0.008,0.015l-0.007,0.014l-0.007,0.014l-0.007,0.015l-0.007,0.015l-0.006,0.015l-0.005,0.015l-0.006,0.016l-0.005,0.015l-0.004,0.016l-0.004,0.016l-0.004,0.015l-0.003,0.016l-0.003,0.016l-0.003,0.016l-0.002,0.016l-0.002,0.016l-0.001,0.016l-0.001,0.017l-0.001,0.017l0,0.016l0,0.017l0.001,0.016l0.001,0.017l0.001,0.016l0.002,0.016l0.002,0.016l0.003,0.016l0.003,0.016l0.003,0.016l0.004,0.016l0.004,0.015l0.004,0.016l0.005,0.016l0.006,0.015l0.005,0.015l0.006,0.015l0.007,0.015l0.006,0.015l0.008,0.014l0.007,0.015l0.008,0.014l0.008,0.014l0.008,0.014l0.009,0.014l0.01,0.013l0.009,0.013l0.01,0.013l0.01,0.013l0.011,0.012l0.01,0.013l0.012,0.012l0.02,0.021l3.009,3.009l3.009,-3.009l0.02,-0.021l0.012,-0.012l0.01,-0.013l0.011,-0.012l0.01,-0.013l0.01,-0.013l0.009,-0.013l0.01,-0.013l0.008,-0.014l0.009,-0.014l0.008,-0.014l0.008,-0.014l0.007,-0.015l0.008,-0.014l0.006,-0.015l0.007,-0.015l0.006,-0.015l0.005,-0.015l0.005,-0.015l0.006,-0.016l0.004,-0.016l0.004,-0.015l0.004,-0.016l0.003,-0.015l0.003,-0.017l0.003,-0.016l0.002,-0.016l0.002,-0.016l0.001,-0.017l0.001,-0.016l0.001,-0.016l0,-0.017l0,-0.017l-0.001,-0.016l-0.001,-0.016l-0.001,-0.016l-0.002,-0.017l-0.002,-0.016l-0.003,-0.016l-0.003,-0.016l-0.003,-0.016l-0.004,-0.015l-0.004,-0.016l-0.004,-0.016l-0.006,-0.016l-0.005,-0.015l-0.005,-0.014l-0.006,-0.016l-0.007,-0.015l-0.006,-0.014l-0.008,-0.015l-0.007,-0.014l-0.008,-0.015l-0.008,-0.014l-0.009,-0.014l-0.008,-0.013l-0.01,-0.014l-0.009,-0.013l-0.01,-0.013l-0.01,-0.012l-0.011,-0.013l-0.011,-0.012l-0.011,-0.012l-0.012,-0.013l-0.011,-0.01l-0.01,-0.01l-0.01,-0.008l-0.01,-0.009l-0.01,-0.008l-0.011,-0.008l-0.011,-0.008l-0.011,-0.008l-0.011,-0.007l-0.011,-0.007l-0.012,-0.007l-0.011,-0.006l-0.012,-0.006l-0.012,-0.006l-0.012,-0.005l-0.012,-0.006l-0.013,-0.005l-0.012,-0.004l-0.013,-0.005l-0.012,-0.004l-0.013,-0.003l-0.013,-0.004l-0.013,-0.003l-0.013,-0.003l-0.013,-0.002l-0.013,-0.002l-0.013,-0.002l-0.014,-0.001l-0.013,-0.002l-0.013,0l-0.014,-0.001l-0.013,0l-0.014,0Z"/><path d="M24,13c0,0 -2.571,-2.571 -4.432,-4.432c-0.5,-0.5 -0.78,-1.177 -0.78,-1.884c0,-0.706 0.28,-1.384 0.78,-1.884c0,0 0.001,-0.001 0.002,-0.001c0.477,-0.477 1.124,-0.745 1.798,-0.745c0.675,0 1.322,0.268 1.799,0.745c0.463,0.462 0.833,0.833 0.833,0.833c0,0 0.37,-0.371 0.833,-0.833c0.477,-0.477 1.124,-0.745 1.799,-0.745c0.674,0 1.321,0.268 1.798,0.745c0.001,0 0.002,0.001 0.002,0.001c0.5,0.5 0.78,1.178 0.78,1.884c0,0.707 -0.28,1.384 -0.78,1.884c-1.861,1.861 -4.432,4.432 -4.432,4.432Z" style="fill:#f229a1;"/><path d="M8.556,9.842l0.158,0.01l0.158,0.013l0.157,0.018l0.157,0.021l0.156,0.026l0.155,0.029l0.154,0.032l0.153,0.037l0.152,0.04l0.15,0.044l0.15,0.047l0.148,0.051l0.147,0.055l0.146,0.058l0.144,0.062l0.142,0.065l0.141,0.069l0.14,0.072l0.137,0.076l0.136,0.079l0.134,0.082l0.132,0.086l0.13,0.089l0.128,0.092l0.126,0.096l0.124,0.099l0.121,0.102l0.119,0.105l0.117,0.108l0.043,0.042l0.042,-0.042l0.117,-0.108l0.119,-0.105l0.121,-0.102l0.124,-0.099l0.126,-0.096l0.128,-0.092l0.13,-0.089l0.132,-0.086l0.134,-0.082l0.136,-0.079l0.137,-0.076l0.14,-0.072l0.141,-0.069l0.142,-0.065l0.144,-0.062l0.146,-0.058l0.147,-0.055l0.148,-0.051l0.15,-0.047l0.15,-0.044l0.152,-0.04l0.153,-0.037l0.154,-0.032l0.155,-0.029l0.156,-0.026l0.157,-0.021l0.157,-0.018l0.158,-0.013l0.159,-0.01l0.159,-0.006l0.159,-0.002l0.16,0.002l0.159,0.006l0.158,0.01l0.158,0.013l0.158,0.018l0.156,0.021l0.156,0.026l0.155,0.029l0.154,0.032l0.153,0.037l0.152,0.04l0.151,0.044l0.149,0.047l0.149,0.051l0.147,0.055l0.145,0.058l0.144,0.062l0.143,0.065l0.141,0.069l0.139,0.072l0.138,0.076l0.136,0.079l0.134,0.082l0.132,0.086l0.13,0.089l0.128,0.092l0.126,0.096l0.123,0.099l0.122,0.102l0.119,0.105l0.116,0.108l0.106,0.103l0.018,0.019l0.103,0.105l0.108,0.117l0.105,0.119l0.103,0.121l0.098,0.124l0.096,0.126l0.092,0.128l0.089,0.13l0.086,0.132l0.082,0.134l0.079,0.136l0.076,0.137l0.072,0.14l0.069,0.141l0.065,0.142l0.062,0.144l0.058,0.146l0.055,0.147l0.051,0.148l0.048,0.15l0.043,0.15l0.04,0.152l0.037,0.153l0.033,0.154l0.029,0.155l0.025,0.156l0.021,0.157l0.018,0.157l0.014,0.158l0.009,0.159l0.006,0.159l0.002,0.159l-0.002,0.16l-0.006,0.159l-0.009,0.158l-0.014,0.158l-0.018,0.158l-0.021,0.156l-0.025,0.156l-0.029,0.155l-0.033,0.154l-0.036,0.153l-0.041,0.152l-0.044,0.151l-0.047,0.149l-0.051,0.149l-0.055,0.146l-0.058,0.146l-0.062,0.144l-0.065,0.143l-0.069,0.141l-0.072,0.139l-0.076,0.138l-0.079,0.135l-0.082,0.134l-0.086,0.133l-0.089,0.129l-0.092,0.129l-0.096,0.125l-0.098,0.124l-0.103,0.122l-0.105,0.119l-0.108,0.116l-0.103,0.106l-9.028,9.028l-9.029,-9.028l-0.103,-0.106l-0.108,-0.116l-0.105,-0.119l-0.103,-0.122l-0.098,-0.124l-0.096,-0.125l-0.092,-0.129l-0.089,-0.129l-0.086,-0.133l-0.082,-0.134l-0.079,-0.135l-0.076,-0.138l-0.072,-0.139l-0.069,-0.141l-0.065,-0.143l-0.062,-0.144l-0.058,-0.146l-0.055,-0.146l-0.051,-0.149l-0.047,-0.149l-0.044,-0.151l-0.04,-0.152l-0.037,-0.153l-0.033,-0.154l-0.029,-0.155l-0.025,-0.156l-0.021,-0.156l-0.018,-0.158l-0.014,-0.158l-0.009,-0.158l-0.006,-0.159l-0.002,-0.16l0.002,-0.159l0.006,-0.159l0.009,-0.159l0.014,-0.158l0.018,-0.157l0.021,-0.157l0.025,-0.156l0.029,-0.155l0.033,-0.154l0.037,-0.153l0.04,-0.152l0.044,-0.15l0.047,-0.15l0.051,-0.148l0.055,-0.147l0.058,-0.146l0.062,-0.144l0.065,-0.142l0.069,-0.141l0.072,-0.14l0.076,-0.137l0.079,-0.136l0.082,-0.134l0.086,-0.132l0.089,-0.13l0.092,-0.128l0.096,-0.126l0.098,-0.124l0.102,-0.121l0.106,-0.119l0.108,-0.117l0.103,-0.105l0.018,-0.019l0.106,-0.103l0.116,-0.108l0.119,-0.105l0.122,-0.102l0.124,-0.099l0.125,-0.096l0.128,-0.092l0.131,-0.089l0.132,-0.086l0.133,-0.082l0.136,-0.079l0.138,-0.076l0.139,-0.072l0.141,-0.069l0.143,-0.065l0.144,-0.062l0.145,-0.058l0.147,-0.055l0.149,-0.051l0.149,-0.047l0.151,-0.044l0.152,-0.04l0.153,-0.037l0.154,-0.032l0.155,-0.029l0.156,-0.026l0.156,-0.021l0.158,-0.018l0.158,-0.013l0.158,-0.01l0.159,-0.006l0.16,-0.002l0.159,0.002l0.16,0.006Zm8.568,3.993l-0.06,0.002l-0.06,0.004l-0.06,0.005l-0.059,0.007l-0.059,0.008l-0.059,0.009l-0.059,0.011l-0.058,0.013l-0.058,0.014l-0.057,0.015l-0.057,0.016l-0.056,0.018l-0.056,0.019l-0.056,0.021l-0.055,0.022l-0.054,0.023l-0.054,0.025l-0.054,0.026l-0.052,0.027l-0.052,0.029l-0.051,0.03l-0.051,0.031l-0.05,0.032l-0.049,0.034l-0.048,0.035l-0.048,0.036l-0.046,0.037l-0.046,0.039l-0.045,0.039l-0.044,0.041l-0.052,0.051l-2.748,2.748l-2.749,-2.748l-0.052,-0.051l-0.044,-0.041l-0.045,-0.039l-0.046,-0.039l-0.046,-0.037l-0.048,-0.036l-0.048,-0.035l-0.049,-0.034l-0.05,-0.032l-0.051,-0.031l-0.051,-0.03l-0.052,-0.029l-0.052,-0.027l-0.054,-0.026l-0.054,-0.025l-0.054,-0.023l-0.055,-0.022l-0.056,-0.021l-0.056,-0.019l-0.056,-0.018l-0.057,-0.016l-0.057,-0.015l-0.058,-0.014l-0.058,-0.013l-0.059,-0.011l-0.059,-0.009l-0.059,-0.008l-0.059,-0.007l-0.06,-0.005l-0.06,-0.004l-0.06,-0.002l-0.06,-0.001l-0.06,0.001l-0.061,0.002l-0.06,0.004l-0.059,0.005l-0.06,0.007l-0.059,0.008l-0.059,0.009l-0.058,0.011l-0.058,0.013l-0.058,0.013l-0.057,0.016l-0.057,0.016l-0.057,0.018l-0.056,0.019l-0.055,0.021l-0.055,0.022l-0.055,0.023l-0.054,0.025l-0.053,0.026l-0.052,0.027l-0.052,0.029l-0.052,0.03l-0.05,0.031l-0.05,0.032l-0.049,0.034l-0.049,0.035l-0.047,0.036l-0.047,0.037l-0.046,0.039l-0.045,0.039l-0.044,0.041l-0.043,0.043l-0.043,0.044l-0.041,0.044l-0.04,0.045l-0.038,0.046l-0.038,0.046l-0.036,0.048l-0.034,0.048l-0.034,0.049l-0.032,0.05l-0.032,0.051l-0.029,0.051l-0.029,0.052l-0.027,0.052l-0.026,0.054l-0.025,0.054l-0.023,0.054l-0.022,0.055l-0.021,0.056l-0.019,0.056l-0.018,0.056l-0.017,0.057l-0.015,0.058l-0.014,0.057l-0.012,0.058l-0.011,0.059l-0.009,0.059l-0.008,0.059l-0.007,0.059l-0.005,0.06l-0.004,0.06l-0.002,0.06l-0.001,0.06l0.001,0.06l0.002,0.061l0.004,0.06l0.005,0.059l0.007,0.06l0.008,0.059l0.009,0.059l0.011,0.058l0.012,0.058l0.014,0.058l0.015,0.057l0.017,0.057l0.018,0.057l0.019,0.056l0.021,0.055l0.022,0.055l0.023,0.055l0.025,0.054l0.026,0.053l0.027,0.053l0.029,0.051l0.029,0.052l0.032,0.05l0.032,0.05l0.034,0.049l0.034,0.048l0.036,0.048l0.038,0.047l0.038,0.046l0.04,0.045l0.041,0.044l0.051,0.052l6.183,6.183l6.182,-6.183l0.051,-0.052l0.041,-0.044l0.04,-0.045l0.038,-0.046l0.038,-0.047l0.036,-0.048l0.035,-0.048l0.033,-0.049l0.033,-0.05l0.031,-0.05l0.03,-0.052l0.028,-0.051l0.027,-0.053l0.026,-0.053l0.025,-0.054l0.023,-0.055l0.022,-0.055l0.021,-0.055l0.019,-0.056l0.018,-0.057l0.017,-0.057l0.015,-0.057l0.014,-0.058l0.012,-0.058l0.011,-0.058l0.009,-0.059l0.009,-0.059l0.006,-0.06l0.005,-0.059l0.004,-0.06l0.002,-0.061l0.001,-0.06l-0.001,-0.06l-0.002,-0.06l-0.004,-0.06l-0.005,-0.06l-0.006,-0.059l-0.009,-0.059l-0.009,-0.059l-0.011,-0.059l-0.012,-0.058l-0.014,-0.057l-0.015,-0.058l-0.017,-0.057l-0.018,-0.056l-0.019,-0.056l-0.021,-0.056l-0.022,-0.055l-0.023,-0.054l-0.025,-0.054l-0.026,-0.054l-0.027,-0.052l-0.028,-0.052l-0.03,-0.051l-0.032,-0.051l-0.032,-0.05l-0.033,-0.049l-0.035,-0.048l-0.036,-0.048l-0.038,-0.046l-0.038,-0.046l-0.04,-0.045l-0.041,-0.044l-0.042,-0.044l-0.044,-0.043l-0.044,-0.041l-0.045,-0.039l-0.046,-0.039l-0.047,-0.037l-0.047,-0.036l-0.049,-0.035l-0.049,-0.034l-0.05,-0.032l-0.05,-0.031l-0.052,-0.03l-0.051,-0.029l-0.053,-0.027l-0.053,-0.026l-0.054,-0.025l-0.055,-0.023l-0.055,-0.022l-0.055,-0.021l-0.056,-0.019l-0.057,-0.018l-0.057,-0.016l-0.057,-0.016l-0.058,-0.013l-0.058,-0.013l-0.058,-0.011l-0.059,-0.009l-0.059,-0.008l-0.06,-0.007l-0.059,-0.005l-0.06,-0.004l-0.06,-0.002l-0.061,-0.001l-0.06,0.001Z"/><path d="M12.711,27c0,0 -4.437,-4.436 -7.606,-7.606c-0.831,-0.83 -1.297,-1.956 -1.297,-3.131c0,-1.174 0.466,-2.301 1.297,-3.131c0,0 0,-0.001 0.001,-0.001c0.83,-0.83 1.956,-1.297 3.131,-1.297c1.174,0 2.301,0.467 3.131,1.297c0.752,0.752 1.343,1.343 1.343,1.343c0,0 0.59,-0.591 1.342,-1.343c0.831,-0.83 1.957,-1.297 3.131,-1.297c1.175,0 2.301,0.467 3.131,1.297c0.001,0 0.001,0.001 0.001,0.001c0.831,0.83 1.297,1.957 1.297,3.131c0,1.175 -0.466,2.301 -1.297,3.131c-3.169,3.17 -7.605,7.606 -7.605,7.606Z" style="fill:#f229a1;"/></svg>