<?xml version="1.0" encoding="UTF-8" standalone="no"?><!DOCTYPE svg PUBLIC "-//W3C//DTD SVG 1.1//EN" "http://www.w3.org/Graphics/SVG/1.1/DTD/svg11.dtd"><svg width="100%" height="100%" viewBox="0 0 32 32" version="1.1" xmlns="http://www.w3.org/2000/svg" xmlns:xlink="http://www.w3.org/1999/xlink" xml:space="preserve" style="fill-rule:evenodd;clip-rule:evenodd;stroke-linejoin:round;stroke-miterlimit:1.41421;">
<metadata>
<rdf:RDF xmlns:cc="http://web.resource.org/cc/"
         xmlns:rdf="http://www.w3.org/1999/02/22-rdf-syntax-ns#"
         xmlns:dc = "http://purl.org/dc/elements/1.1/"
         >

     <rdf:Description rdf:about="">
       <dc:title>Mutant Standard emoji v0.2.3</dc:title>
     </rdf:Description>

    <cc:work rdf:about="">
        <cc:license rdf:resource="http://creativecommons.org/licenses/by-nc-sa/4.0/"/>
        <cc:attributionName>Dzuk</cc:attributionName>
        <cc:attributionURL>http://mutant.tech/</cc:attributionURL>
    </cc:work>

</rdf:RDF>
</metadata>
<rect id="ace_sign" x="0" y="0" width="32" height="32" style="fill:none;"/><clipPath id="_clip1"><rect x="0" y="0" width="32" height="32"/></clipPath><g clip-path="url(#_clip1)"><g id="outline"><path d="M24.1,0.001c0.263,0.005 0.526,0.019 0.789,0.048c0.616,0.069 1.224,0.21 1.808,0.419c1.172,0.42 2.24,1.115 3.099,2.017c0.766,0.806 1.361,1.771 1.736,2.818c0.299,0.834 0.451,1.712 0.467,2.598c0.034,5.399 0.034,10.799 0,16.198c-0.015,0.854 -0.157,1.699 -0.435,2.506c-0.405,1.177 -1.087,2.253 -1.978,3.122c-0.82,0.799 -1.811,1.419 -2.889,1.805c-0.584,0.209 -1.192,0.35 -1.808,0.419c-0.263,0.029 -0.526,0.043 -0.79,0.048c-5.399,0.032 -10.799,0.032 -16.198,0c-0.264,-0.005 -0.527,-0.019 -0.79,-0.048c-0.616,-0.069 -1.224,-0.21 -1.808,-0.419c-1.078,-0.386 -2.069,-1.006 -2.889,-1.805c-0.891,-0.869 -1.573,-1.945 -1.978,-3.122c-0.278,-0.807 -0.42,-1.652 -0.435,-2.506c-0.034,-5.399 -0.034,-10.799 0,-16.198c0.016,-0.886 0.168,-1.763 0.467,-2.598c0.375,-1.047 0.97,-2.012 1.736,-2.818c0.859,-0.902 1.927,-1.597 3.099,-2.017c0.584,-0.209 1.192,-0.35 1.808,-0.419c0.263,-0.029 0.526,-0.043 0.789,-0.048c5.4,-0.035 10.8,-0.035 16.2,0Z" style="fill-rule:nonzero;"/></g><g id="emoji"><path d="M30,8c0,-1.591 -0.632,-3.117 -1.757,-4.243c-1.126,-1.125 -2.652,-1.757 -4.243,-1.757c-4.724,0 -11.276,0 -16,0c-1.591,0 -3.117,0.632 -4.243,1.757c-1.125,1.126 -1.757,2.652 -1.757,4.243c0,4.724 0,11.276 0,16c0,1.591 0.632,3.117 1.757,4.243c1.126,1.125 2.652,1.757 4.243,1.757c4.724,0 11.276,0 16,0c1.591,0 3.117,-0.632 4.243,-1.757c1.125,-1.126 1.757,-2.652 1.757,-4.243c0,-4.724 0,-11.276 0,-16Z" style="fill:#722d89;"/><path d="M16.348,11.944c0.48,0 0.896,0.058 1.248,0.174c0.352,0.116 0.656,0.278 0.912,0.486c0.504,0.408 0.832,0.98 0.984,1.716l-1.512,0.276c-0.128,-0.408 -0.326,-0.738 -0.594,-0.99c-0.268,-0.252 -0.602,-0.378 -1.002,-0.378c-0.544,0 -0.984,0.228 -1.32,0.684c-0.36,0.496 -0.54,1.182 -0.54,2.058c0,0.876 0.16,1.56 0.48,2.052c0.32,0.492 0.756,0.738 1.308,0.738c0.552,0 0.968,-0.134 1.248,-0.402c0.28,-0.268 0.42,-0.614 0.42,-1.038l1.524,0c0,0.872 -0.278,1.546 -0.834,2.022c-0.556,0.476 -1.318,0.714 -2.286,0.714c-1.032,0 -1.852,-0.36 -2.46,-1.08c-0.616,-0.736 -0.924,-1.736 -0.924,-3c0,-1.28 0.316,-2.28 0.948,-3c0.608,-0.688 1.408,-1.032 2.4,-1.032Zm-4.176,7.944l-1.5,0l-0.54,-1.68l-2.892,0l-0.552,1.68l-1.5,0l2.652,-7.788l1.776,0l2.556,7.788Zm13.992,-6.564l-3.6,0l0,2.052l3.372,0l0,1.224l-3.372,0l0,2.052l3.6,0l0,1.236l-5.016,0l0,-7.788l5.016,0l0,1.224Zm-18.564,3.816l2.184,0l-1.08,-3.348l-1.104,3.348Z" style="fill:#fff;"/></g></g></svg>