<?xml version="1.0" encoding="UTF-8" standalone="no"?><!DOCTYPE svg PUBLIC "-//W3C//DTD SVG 1.1//EN" "http://www.w3.org/Graphics/SVG/1.1/DTD/svg11.dtd"><svg width="100%" height="100%" viewBox="0 0 32 32" version="1.1" xmlns="http://www.w3.org/2000/svg" xmlns:xlink="http://www.w3.org/1999/xlink" xml:space="preserve" style="fill-rule:evenodd;clip-rule:evenodd;stroke-linejoin:round;stroke-miterlimit:1.41421;">
<metadata>
<rdf:RDF xmlns:cc="http://web.resource.org/cc/"
         xmlns:rdf="http://www.w3.org/1999/02/22-rdf-syntax-ns#"
         xmlns:dc = "http://purl.org/dc/elements/1.1/"
         >

     <rdf:Description rdf:about="">
       <dc:title>Mutant Standard emoji v0.2.3</dc:title>
     </rdf:Description>

    <cc:work rdf:about="">
        <cc:license rdf:resource="http://creativecommons.org/licenses/by-nc-sa/4.0/"/>
        <cc:attributionName>Dzuk</cc:attributionName>
        <cc:attributionURL>http://mutant.tech/</cc:attributionURL>
    </cc:work>

</rdf:RDF>
</metadata>
<rect id="aro_sign" x="0" y="0" width="32" height="32" style="fill:none;"/><clipPath id="_clip1"><rect x="0" y="0" width="32" height="32"/></clipPath><g clip-path="url(#_clip1)"><g id="outline"><path d="M24.099,0.001l0.1,0.001l0.099,0.003l0.099,0.005l0.098,0.005l0.099,0.007l0.098,0.008l0.099,0.009l0.098,0.01l0.097,0.012l0.098,0.013l0.097,0.014l0.097,0.015l0.097,0.016l0.097,0.017l0.096,0.019l0.096,0.02l0.096,0.021l0.095,0.022l0.095,0.023l0.095,0.025l0.094,0.025l0.094,0.027l0.094,0.028l0.093,0.029l0.093,0.03l0.092,0.031l0.092,0.032l0.092,0.034l0.091,0.034l0.091,0.036l0.09,0.037l0.09,0.038l0.09,0.039l0.089,0.04l0.088,0.041l0.088,0.042l0.088,0.044l0.087,0.044l0.086,0.045l0.086,0.047l0.085,0.047l0.085,0.049l0.084,0.05l0.084,0.051l0.083,0.051l0.083,0.053l0.081,0.054l0.082,0.055l0.08,0.056l0.08,0.057l0.08,0.058l0.078,0.059l0.078,0.06l0.078,0.061l0.076,0.062l0.076,0.063l0.075,0.064l0.075,0.065l0.074,0.066l0.073,0.067l0.072,0.067l0.071,0.069l0.071,0.07l0.07,0.071l0.069,0.071l0.067,0.073l0.067,0.072l0.066,0.074l0.065,0.075l0.064,0.075l0.063,0.076l0.062,0.076l0.061,0.078l0.06,0.078l0.059,0.078l0.058,0.08l0.057,0.08l0.056,0.08l0.055,0.082l0.054,0.081l0.053,0.083l0.051,0.083l0.051,0.084l0.05,0.084l0.049,0.085l0.047,0.085l0.047,0.086l0.045,0.086l0.044,0.087l0.044,0.088l0.042,0.088l0.041,0.088l0.04,0.089l0.039,0.089l0.038,0.091l0.037,0.09l0.036,0.091l0.034,0.091l0.034,0.092l0.032,0.092l0.031,0.092l0.03,0.093l0.029,0.093l0.028,0.094l0.027,0.094l0.025,0.094l0.025,0.095l0.023,0.095l0.022,0.095l0.021,0.096l0.02,0.096l0.019,0.096l0.017,0.097l0.016,0.097l0.015,0.097l0.014,0.097l0.013,0.098l0.012,0.097l0.01,0.098l0.009,0.098l0.008,0.099l0.007,0.099l0.005,0.098l0.004,0.099l0.004,0.099l0.001,0.1l0.001,0.093l0,16.012l-0.001,0.093l-0.001,0.1l-0.004,0.099l-0.004,0.099l-0.005,0.098l-0.007,0.099l-0.008,0.099l-0.009,0.098l-0.01,0.098l-0.012,0.097l-0.013,0.098l-0.014,0.097l-0.015,0.097l-0.016,0.097l-0.017,0.097l-0.019,0.096l-0.02,0.096l-0.021,0.096l-0.022,0.095l-0.023,0.095l-0.025,0.095l-0.025,0.094l-0.027,0.094l-0.028,0.094l-0.029,0.093l-0.03,0.093l-0.031,0.092l-0.032,0.092l-0.034,0.092l-0.034,0.091l-0.036,0.091l-0.037,0.09l-0.038,0.091l-0.039,0.089l-0.04,0.089l-0.041,0.088l-0.042,0.088l-0.044,0.088l-0.044,0.087l-0.045,0.086l-0.047,0.086l-0.047,0.085l-0.049,0.085l-0.05,0.085l-0.051,0.083l-0.051,0.083l-0.053,0.083l-0.054,0.081l-0.055,0.082l-0.056,0.08l-0.057,0.08l-0.058,0.08l-0.059,0.078l-0.06,0.078l-0.061,0.078l-0.062,0.076l-0.063,0.076l-0.064,0.075l-0.065,0.075l-0.066,0.073l-0.067,0.073l-0.067,0.073l-0.069,0.071l-0.07,0.071l-0.071,0.07l-0.071,0.069l-0.073,0.067l-0.072,0.067l-0.074,0.066l-0.075,0.065l-0.075,0.064l-0.076,0.063l-0.076,0.062l-0.078,0.061l-0.078,0.06l-0.078,0.059l-0.08,0.058l-0.08,0.057l-0.08,0.056l-0.082,0.055l-0.081,0.054l-0.083,0.053l-0.083,0.051l-0.084,0.051l-0.084,0.05l-0.085,0.049l-0.085,0.047l-0.086,0.047l-0.086,0.045l-0.087,0.044l-0.088,0.044l-0.088,0.042l-0.088,0.041l-0.089,0.04l-0.09,0.039l-0.09,0.038l-0.09,0.037l-0.091,0.036l-0.091,0.034l-0.092,0.034l-0.092,0.032l-0.092,0.031l-0.093,0.03l-0.093,0.029l-0.094,0.028l-0.094,0.027l-0.094,0.025l-0.095,0.025l-0.095,0.023l-0.095,0.022l-0.096,0.021l-0.096,0.02l-0.096,0.019l-0.097,0.017l-0.097,0.016l-0.097,0.015l-0.097,0.014l-0.098,0.013l-0.097,0.012l-0.098,0.01l-0.099,0.009l-0.098,0.008l-0.099,0.007l-0.098,0.005l-0.099,0.005l-0.099,0.003l-0.1,0.001l-0.093,0.001l-16.012,0l-0.093,-0.001l-0.1,-0.001l-0.099,-0.003l-0.099,-0.005l-0.098,-0.005l-0.099,-0.007l-0.098,-0.008l-0.099,-0.009l-0.098,-0.01l-0.097,-0.012l-0.098,-0.013l-0.097,-0.014l-0.097,-0.015l-0.097,-0.016l-0.097,-0.017l-0.096,-0.019l-0.096,-0.02l-0.096,-0.021l-0.095,-0.022l-0.095,-0.023l-0.095,-0.025l-0.094,-0.025l-0.094,-0.027l-0.094,-0.028l-0.093,-0.029l-0.093,-0.03l-0.092,-0.031l-0.092,-0.032l-0.092,-0.034l-0.091,-0.034l-0.091,-0.036l-0.091,-0.037l-0.089,-0.038l-0.09,-0.039l-0.089,-0.04l-0.088,-0.041l-0.088,-0.042l-0.088,-0.044l-0.087,-0.044l-0.086,-0.045l-0.086,-0.047l-0.085,-0.047l-0.085,-0.049l-0.084,-0.05l-0.084,-0.051l-0.083,-0.051l-0.083,-0.053l-0.081,-0.054l-0.082,-0.055l-0.08,-0.056l-0.08,-0.057l-0.08,-0.058l-0.078,-0.059l-0.078,-0.06l-0.078,-0.061l-0.076,-0.062l-0.076,-0.063l-0.075,-0.064l-0.075,-0.065l-0.073,-0.066l-0.073,-0.067l-0.073,-0.067l-0.071,-0.069l-0.071,-0.07l-0.07,-0.071l-0.069,-0.071l-0.067,-0.073l-0.067,-0.073l-0.066,-0.073l-0.065,-0.075l-0.064,-0.075l-0.063,-0.076l-0.062,-0.076l-0.061,-0.078l-0.06,-0.078l-0.059,-0.078l-0.058,-0.08l-0.057,-0.08l-0.056,-0.08l-0.055,-0.082l-0.054,-0.081l-0.053,-0.083l-0.051,-0.083l-0.051,-0.084l-0.05,-0.084l-0.049,-0.085l-0.047,-0.085l-0.047,-0.086l-0.045,-0.086l-0.044,-0.087l-0.044,-0.088l-0.042,-0.088l-0.041,-0.088l-0.04,-0.089l-0.039,-0.09l-0.038,-0.09l-0.037,-0.09l-0.036,-0.091l-0.034,-0.091l-0.034,-0.092l-0.032,-0.092l-0.031,-0.092l-0.03,-0.093l-0.029,-0.093l-0.028,-0.094l-0.027,-0.094l-0.025,-0.094l-0.025,-0.095l-0.023,-0.095l-0.022,-0.095l-0.021,-0.096l-0.02,-0.096l-0.018,-0.096l-0.018,-0.097l-0.016,-0.097l-0.015,-0.097l-0.014,-0.097l-0.013,-0.098l-0.012,-0.097l-0.01,-0.098l-0.009,-0.099l-0.008,-0.098l-0.007,-0.099l-0.005,-0.098l-0.005,-0.099l-0.003,-0.099l-0.001,-0.1l-0.001,-0.093l0,-16.012l0.001,-0.093l0.001,-0.1l0.003,-0.099l0.005,-0.099l0.005,-0.098l0.007,-0.099l0.008,-0.098l0.009,-0.099l0.01,-0.098l0.012,-0.097l0.013,-0.098l0.014,-0.097l0.015,-0.097l0.016,-0.097l0.018,-0.097l0.018,-0.096l0.02,-0.096l0.021,-0.096l0.022,-0.095l0.023,-0.095l0.025,-0.095l0.025,-0.094l0.027,-0.094l0.028,-0.094l0.029,-0.093l0.03,-0.093l0.031,-0.092l0.032,-0.092l0.034,-0.092l0.034,-0.091l0.036,-0.091l0.037,-0.09l0.038,-0.09l0.039,-0.09l0.04,-0.089l0.041,-0.088l0.042,-0.088l0.044,-0.088l0.044,-0.087l0.045,-0.086l0.047,-0.086l0.047,-0.085l0.049,-0.085l0.05,-0.084l0.051,-0.084l0.051,-0.083l0.053,-0.083l0.054,-0.081l0.055,-0.082l0.056,-0.08l0.057,-0.08l0.058,-0.08l0.059,-0.078l0.06,-0.078l0.061,-0.078l0.062,-0.076l0.063,-0.076l0.064,-0.075l0.065,-0.075l0.066,-0.074l0.067,-0.072l0.067,-0.073l0.069,-0.071l0.07,-0.071l0.071,-0.07l0.071,-0.069l0.072,-0.067l0.074,-0.067l0.073,-0.066l0.075,-0.065l0.075,-0.064l0.076,-0.063l0.076,-0.062l0.078,-0.061l0.078,-0.06l0.078,-0.059l0.08,-0.058l0.08,-0.057l0.08,-0.056l0.082,-0.055l0.081,-0.054l0.083,-0.053l0.083,-0.051l0.084,-0.051l0.084,-0.05l0.085,-0.049l0.085,-0.047l0.086,-0.047l0.086,-0.045l0.087,-0.044l0.088,-0.044l0.088,-0.042l0.088,-0.041l0.089,-0.04l0.09,-0.039l0.09,-0.038l0.09,-0.037l0.091,-0.036l0.091,-0.034l0.092,-0.034l0.092,-0.032l0.092,-0.031l0.093,-0.03l0.093,-0.029l0.094,-0.028l0.094,-0.027l0.094,-0.025l0.095,-0.025l0.095,-0.023l0.095,-0.022l0.096,-0.021l0.096,-0.02l0.096,-0.019l0.097,-0.017l0.097,-0.016l0.097,-0.015l0.097,-0.014l0.098,-0.013l0.097,-0.012l0.098,-0.01l0.099,-0.009l0.098,-0.008l0.099,-0.007l0.098,-0.005l0.099,-0.005l0.099,-0.003l0.1,-0.001l0.093,-0.001l16.012,0l0.093,0.001Zm-16.093,3.999l-0.056,0l-0.049,0.001l-0.05,0.002l-0.049,0.002l-0.05,0.003l-0.049,0.003l-0.049,0.004l-0.049,0.005l-0.049,0.005l-0.049,0.006l-0.049,0.006l-0.049,0.007l-0.048,0.007l-0.049,0.009l-0.048,0.008l-0.048,0.01l-0.048,0.009l-0.048,0.011l-0.047,0.011l-0.048,0.012l-0.047,0.012l-0.047,0.013l-0.047,0.013l-0.047,0.014l-0.047,0.014l-0.046,0.015l-0.047,0.016l-0.046,0.016l-0.045,0.017l-0.046,0.017l-0.045,0.018l-0.046,0.019l-0.045,0.018l-0.044,0.02l-0.045,0.02l-0.044,0.021l-0.044,0.021l-0.044,0.021l-0.043,0.023l-0.044,0.022l-0.043,0.024l-0.042,0.023l-0.043,0.025l-0.042,0.025l-0.042,0.025l-0.041,0.026l-0.041,0.026l-0.041,0.027l-0.041,0.028l-0.04,0.027l-0.04,0.029l-0.04,0.029l-0.039,0.029l-0.039,0.03l-0.039,0.031l-0.038,0.031l-0.038,0.031l-0.037,0.032l-0.038,0.033l-0.037,0.033l-0.036,0.033l-0.036,0.034l-0.036,0.035l-0.035,0.035l-0.035,0.035l-0.035,0.036l-0.034,0.036l-0.033,0.036l-0.033,0.037l-0.033,0.038l-0.032,0.037l-0.031,0.038l-0.031,0.038l-0.031,0.039l-0.03,0.039l-0.029,0.039l-0.029,0.04l-0.028,0.04l-0.028,0.04l-0.028,0.041l-0.027,0.041l-0.026,0.041l-0.026,0.041l-0.026,0.042l-0.024,0.042l-0.025,0.043l-0.023,0.042l-0.024,0.043l-0.022,0.044l-0.023,0.043l-0.021,0.044l-0.021,0.044l-0.021,0.044l-0.02,0.045l-0.02,0.044l-0.018,0.045l-0.019,0.045l-0.018,0.046l-0.017,0.046l-0.017,0.045l-0.016,0.046l-0.016,0.047l-0.015,0.046l-0.014,0.047l-0.014,0.047l-0.013,0.047l-0.013,0.047l-0.012,0.047l-0.012,0.048l-0.011,0.047l-0.01,0.048l-0.01,0.048l-0.01,0.048l-0.008,0.048l-0.009,0.049l-0.007,0.048l-0.007,0.049l-0.006,0.049l-0.006,0.049l-0.005,0.049l-0.005,0.049l-0.004,0.049l-0.003,0.049l-0.003,0.05l-0.002,0.049l-0.002,0.05l-0.001,0.049l0,0.056l0,15.988l0,0.056l0.001,0.049l0.002,0.05l0.002,0.049l0.003,0.05l0.003,0.049l0.004,0.049l0.005,0.049l0.005,0.049l0.006,0.049l0.006,0.049l0.007,0.049l0.007,0.048l0.009,0.049l0.008,0.048l0.01,0.048l0.009,0.048l0.011,0.048l0.011,0.047l0.012,0.048l0.012,0.047l0.013,0.047l0.013,0.047l0.014,0.047l0.014,0.047l0.015,0.046l0.016,0.047l0.016,0.046l0.017,0.045l0.017,0.046l0.018,0.046l0.019,0.045l0.018,0.045l0.02,0.044l0.02,0.045l0.021,0.044l0.021,0.044l0.021,0.044l0.023,0.043l0.022,0.044l0.024,0.043l0.023,0.042l0.025,0.043l0.024,0.042l0.026,0.042l0.026,0.041l0.026,0.041l0.027,0.041l0.028,0.041l0.028,0.04l0.028,0.04l0.029,0.04l0.029,0.039l0.03,0.039l0.031,0.039l0.031,0.038l0.031,0.038l0.032,0.037l0.033,0.038l0.033,0.037l0.033,0.036l0.034,0.036l0.035,0.036l0.035,0.035l0.035,0.035l0.036,0.035l0.036,0.034l0.036,0.033l0.037,0.033l0.038,0.033l0.037,0.032l0.038,0.031l0.038,0.031l0.039,0.031l0.039,0.03l0.039,0.029l0.04,0.029l0.04,0.029l0.04,0.027l0.041,0.028l0.041,0.027l0.041,0.026l0.041,0.026l0.042,0.026l0.042,0.024l0.043,0.025l0.042,0.023l0.043,0.024l0.044,0.022l0.043,0.023l0.044,0.021l0.044,0.021l0.044,0.021l0.045,0.02l0.044,0.02l0.045,0.019l0.045,0.018l0.046,0.018l0.046,0.017l0.045,0.017l0.046,0.016l0.047,0.016l0.046,0.015l0.047,0.014l0.047,0.014l0.047,0.013l0.047,0.013l0.047,0.012l0.048,0.012l0.047,0.011l0.048,0.011l0.048,0.009l0.048,0.01l0.048,0.008l0.049,0.009l0.048,0.007l0.049,0.007l0.049,0.006l0.049,0.006l0.049,0.005l0.049,0.005l0.049,0.004l0.049,0.003l0.05,0.003l0.049,0.002l0.05,0.002l0.049,0.001l0.056,0l15.988,0l0.056,0l0.049,-0.001l0.05,-0.002l0.049,-0.002l0.05,-0.003l0.049,-0.003l0.049,-0.004l0.049,-0.005l0.049,-0.005l0.049,-0.006l0.049,-0.006l0.049,-0.007l0.048,-0.007l0.049,-0.009l0.048,-0.008l0.048,-0.01l0.048,-0.009l0.048,-0.011l0.047,-0.011l0.048,-0.012l0.047,-0.012l0.048,-0.013l0.046,-0.013l0.047,-0.014l0.047,-0.014l0.046,-0.015l0.047,-0.016l0.046,-0.016l0.046,-0.017l0.045,-0.017l0.046,-0.018l0.045,-0.019l0.045,-0.018l0.044,-0.02l0.045,-0.02l0.044,-0.021l0.044,-0.021l0.044,-0.021l0.043,-0.023l0.043,-0.022l0.043,-0.024l0.043,-0.023l0.043,-0.025l0.042,-0.024l0.042,-0.026l0.041,-0.026l0.041,-0.026l0.041,-0.027l0.041,-0.028l0.04,-0.028l0.04,-0.028l0.04,-0.029l0.039,-0.029l0.039,-0.03l0.039,-0.031l0.038,-0.031l0.038,-0.031l0.038,-0.032l0.037,-0.033l0.037,-0.033l0.036,-0.033l0.036,-0.034l0.036,-0.035l0.036,-0.035l0.034,-0.035l0.035,-0.036l0.034,-0.036l0.033,-0.036l0.033,-0.037l0.033,-0.038l0.032,-0.037l0.031,-0.038l0.031,-0.038l0.031,-0.039l0.03,-0.039l0.029,-0.039l0.029,-0.04l0.028,-0.04l0.028,-0.04l0.028,-0.041l0.027,-0.041l0.026,-0.041l0.026,-0.041l0.026,-0.042l0.024,-0.042l0.025,-0.043l0.024,-0.043l0.023,-0.042l0.022,-0.044l0.023,-0.043l0.021,-0.044l0.021,-0.044l0.021,-0.044l0.02,-0.045l0.02,-0.044l0.018,-0.045l0.019,-0.045l0.018,-0.046l0.017,-0.046l0.017,-0.045l0.016,-0.046l0.016,-0.047l0.015,-0.046l0.014,-0.047l0.014,-0.046l0.013,-0.048l0.013,-0.047l0.012,-0.047l0.012,-0.048l0.011,-0.047l0.011,-0.048l0.009,-0.048l0.01,-0.048l0.008,-0.048l0.009,-0.049l0.007,-0.048l0.007,-0.049l0.006,-0.049l0.006,-0.049l0.005,-0.049l0.005,-0.049l0.004,-0.049l0.003,-0.049l0.003,-0.049l0.002,-0.05l0.002,-0.05l0.001,-0.049l0,-0.056l0,-15.988l0,-0.056l-0.001,-0.049l-0.002,-0.05l-0.002,-0.05l-0.003,-0.049l-0.003,-0.049l-0.004,-0.049l-0.005,-0.049l-0.005,-0.049l-0.006,-0.049l-0.006,-0.049l-0.007,-0.049l-0.007,-0.048l-0.009,-0.049l-0.008,-0.048l-0.01,-0.048l-0.009,-0.048l-0.011,-0.048l-0.011,-0.047l-0.012,-0.048l-0.012,-0.047l-0.013,-0.047l-0.013,-0.048l-0.014,-0.046l-0.014,-0.047l-0.015,-0.046l-0.016,-0.047l-0.016,-0.046l-0.017,-0.045l-0.017,-0.046l-0.018,-0.046l-0.019,-0.045l-0.018,-0.045l-0.02,-0.044l-0.02,-0.045l-0.021,-0.044l-0.021,-0.044l-0.021,-0.044l-0.023,-0.043l-0.022,-0.044l-0.023,-0.042l-0.024,-0.043l-0.025,-0.043l-0.024,-0.042l-0.026,-0.042l-0.026,-0.041l-0.026,-0.041l-0.027,-0.041l-0.028,-0.041l-0.028,-0.04l-0.028,-0.04l-0.029,-0.04l-0.029,-0.039l-0.03,-0.039l-0.031,-0.039l-0.031,-0.038l-0.031,-0.038l-0.032,-0.037l-0.033,-0.038l-0.033,-0.037l-0.033,-0.036l-0.034,-0.036l-0.035,-0.036l-0.034,-0.035l-0.036,-0.035l-0.036,-0.035l-0.036,-0.034l-0.036,-0.033l-0.037,-0.033l-0.037,-0.033l-0.038,-0.032l-0.038,-0.031l-0.038,-0.031l-0.039,-0.031l-0.039,-0.03l-0.039,-0.029l-0.04,-0.029l-0.04,-0.028l-0.04,-0.028l-0.041,-0.028l-0.041,-0.027l-0.041,-0.026l-0.041,-0.026l-0.042,-0.026l-0.042,-0.024l-0.043,-0.025l-0.043,-0.023l-0.043,-0.024l-0.043,-0.022l-0.043,-0.023l-0.044,-0.021l-0.044,-0.021l-0.044,-0.021l-0.045,-0.02l-0.044,-0.02l-0.045,-0.018l-0.046,-0.019l-0.045,-0.018l-0.045,-0.017l-0.046,-0.017l-0.046,-0.016l-0.047,-0.016l-0.046,-0.015l-0.047,-0.014l-0.047,-0.014l-0.047,-0.013l-0.047,-0.013l-0.047,-0.012l-0.048,-0.012l-0.047,-0.011l-0.048,-0.011l-0.048,-0.009l-0.048,-0.01l-0.048,-0.008l-0.049,-0.009l-0.048,-0.007l-0.049,-0.007l-0.049,-0.006l-0.049,-0.006l-0.049,-0.005l-0.049,-0.005l-0.049,-0.004l-0.049,-0.003l-0.05,-0.003l-0.049,-0.002l-0.05,-0.002l-0.049,-0.001l-0.056,0l-15.988,0Z"/></g><g id="emoji"><path d="M30,8c0,-1.591 -0.632,-3.117 -1.757,-4.243c-1.126,-1.125 -2.652,-1.757 -4.243,-1.757c-4.724,0 -11.276,0 -16,0c-1.591,0 -3.117,0.632 -4.243,1.757c-1.125,1.126 -1.757,2.652 -1.757,4.243c0,4.724 0,11.276 0,16c0,1.591 0.632,3.117 1.757,4.243c1.126,1.125 2.652,1.757 4.243,1.757c4.724,0 11.276,0 16,0c1.591,0 3.117,-0.632 4.243,-1.757c1.125,-1.126 1.757,-2.652 1.757,-4.243c0,-4.724 0,-11.276 0,-16Z" style="fill:#40ac3e;"/><g><path d="M7.348,12.1l1.776,0l2.556,7.788l-1.5,0l-0.54,-1.68l-2.892,0l-0.552,1.68l-1.5,0l2.652,-7.788Zm-0.24,5.04l2.184,0l-1.08,-3.348l-1.104,3.348Z" style="fill:#fff;fill-rule:nonzero;"/><path d="M18.844,14.488c0,0.552 -0.156,1.024 -0.468,1.416c-0.312,0.392 -0.76,0.664 -1.344,0.816l2.088,3.168l-1.848,0l-1.716,-3.036l-1.08,0l0,3.036l-1.416,0l0,-7.788l2.88,0c0.92,0 1.636,0.22 2.148,0.66c0.504,0.424 0.756,1 0.756,1.728Zm-3.036,1.416c0.52,0 0.912,-0.118 1.176,-0.354c0.264,-0.236 0.396,-0.548 0.396,-0.936c0,-0.388 -0.12,-0.7 -0.36,-0.936c-0.24,-0.236 -0.6,-0.354 -1.08,-0.354l-1.464,0l0,2.58l1.332,0Z" style="fill:#fff;fill-rule:nonzero;"/><path d="M23.776,11.944c0.52,0 0.996,0.086 1.428,0.258c0.432,0.172 0.804,0.426 1.116,0.762c0.656,0.704 0.984,1.712 0.984,3.024c0,1.32 -0.328,2.34 -0.984,3.06c-0.624,0.672 -1.476,1.008 -2.556,1.008c-1.072,0 -1.92,-0.344 -2.544,-1.032c-0.656,-0.712 -0.984,-1.724 -0.984,-3.036c0,-1.328 0.328,-2.344 0.984,-3.048c0.616,-0.664 1.468,-0.996 2.556,-0.996Zm1.506,1.998c-0.372,-0.484 -0.874,-0.726 -1.506,-0.726c-0.632,0 -1.136,0.242 -1.512,0.726c-0.376,0.484 -0.564,1.172 -0.564,2.064c0,0.892 0.188,1.576 0.564,2.052c0.376,0.476 0.88,0.714 1.512,0.714c0.632,0 1.134,-0.238 1.506,-0.714c0.372,-0.476 0.558,-1.16 0.558,-2.052c0,-0.892 -0.186,-1.58 -0.558,-2.064Z" style="fill:#fff;fill-rule:nonzero;"/></g></g></g></svg>