<?xml version="1.0" encoding="UTF-8" standalone="no"?><!DOCTYPE svg PUBLIC "-//W3C//DTD SVG 1.1//EN" "http://www.w3.org/Graphics/SVG/1.1/DTD/svg11.dtd"><svg width="100%" height="100%" viewBox="0 0 32 32" version="1.1" xmlns="http://www.w3.org/2000/svg" xmlns:xlink="http://www.w3.org/1999/xlink" xml:space="preserve" style="fill-rule:evenodd;clip-rule:evenodd;stroke-linejoin:round;stroke-miterlimit:1.41421;">
<metadata>
<rdf:RDF xmlns:cc="http://web.resource.org/cc/"
         xmlns:rdf="http://www.w3.org/1999/02/22-rdf-syntax-ns#"
         xmlns:dc = "http://purl.org/dc/elements/1.1/"
         >

     <rdf:Description rdf:about="">
       <dc:title>Mutant Standard emoji v0.2.3</dc:title>
     </rdf:Description>

    <cc:work rdf:about="">
        <cc:license rdf:resource="http://creativecommons.org/licenses/by-nc-sa/4.0/"/>
        <cc:attributionName>Dzuk</cc:attributionName>
        <cc:attributionURL>http://mutant.tech/</cc:attributionURL>
    </cc:work>

</rdf:RDF>
</metadata>
<rect id="gay" x="0" y="0" width="32" height="32" style="fill:none;"/><clipPath id="_clip1"><rect x="0" y="0" width="32" height="32"/></clipPath><g clip-path="url(#_clip1)"><g id="outline"><path d="M24.1,0.001c0.263,0.005 0.526,0.019 0.789,0.048c0.616,0.069 1.224,0.21 1.808,0.419c1.172,0.42 2.24,1.115 3.099,2.017c0.766,0.806 1.361,1.771 1.736,2.818c0.299,0.835 0.451,1.712 0.467,2.598c0.034,5.399 0.034,10.799 0,16.198c-0.015,0.854 -0.157,1.699 -0.435,2.506c-0.405,1.177 -1.087,2.253 -1.978,3.122c-0.82,0.799 -1.811,1.419 -2.889,1.805c-0.584,0.209 -1.192,0.35 -1.808,0.419c-0.263,0.029 -0.526,0.043 -0.79,0.048c-5.399,0.032 -10.799,0.032 -16.198,0c-0.264,-0.005 -0.527,-0.019 -0.79,-0.048c-0.616,-0.069 -1.224,-0.21 -1.808,-0.419c-1.078,-0.386 -2.069,-1.006 -2.889,-1.805c-0.891,-0.869 -1.573,-1.945 -1.978,-3.122c-0.278,-0.807 -0.42,-1.652 -0.435,-2.506c-0.034,-5.399 -0.034,-10.799 0,-16.198c0.016,-0.886 0.168,-1.763 0.467,-2.598c0.375,-1.047 0.97,-2.012 1.736,-2.818c0.859,-0.902 1.927,-1.597 3.099,-2.017c0.584,-0.209 1.192,-0.35 1.808,-0.419c0.263,-0.029 0.526,-0.043 0.789,-0.048c5.4,-0.035 10.8,-0.035 16.2,0Z" style="fill-rule:nonzero;"/></g><g id="emoji"><path d="M30,8c0,-1.591 -0.632,-3.117 -1.757,-4.243c-1.126,-1.125 -2.652,-1.757 -4.243,-1.757c-4.724,0 -11.276,0 -16,0c-1.591,0 -3.117,0.632 -4.243,1.757c-1.125,1.126 -1.757,2.652 -1.757,4.243c0,4.724 0,11.276 0,16c0,1.591 0.632,3.117 1.757,4.243c1.126,1.125 2.652,1.757 4.243,1.757c4.724,0 11.276,0 16,0c1.591,0 3.117,-0.632 4.243,-1.757c1.125,-1.126 1.757,-2.652 1.757,-4.243c0,-4.724 0,-11.276 0,-16Z" style="fill:#f229a2;"/><path d="M11.509,20.098l-1.214,0l-0.164,-1.302c-0.354,0.986 -1.033,1.479 -2.037,1.479c-1.029,0 -1.876,-0.387 -2.542,-1.163c-0.692,-0.801 -1.038,-1.826 -1.038,-3.074c0,-1.316 0.371,-2.37 1.114,-3.162c0.716,-0.768 1.64,-1.151 2.77,-1.151c0.767,0 1.41,0.166 1.929,0.499c0.518,0.333 0.925,0.858 1.22,1.575l-1.53,0.354c-0.447,-0.717 -1.012,-1.075 -1.695,-1.075c-0.624,0 -1.143,0.266 -1.556,0.797c-0.43,0.54 -0.645,1.261 -0.645,2.163c0,0.852 0.194,1.543 0.582,2.074c0.379,0.523 0.885,0.785 1.518,0.785c0.539,0 0.982,-0.173 1.328,-0.519c0.354,-0.354 0.531,-0.839 0.531,-1.455l0,-0.05l-1.847,-0.038l0,-0.961l3.276,0l0,4.224Zm8.615,0l-1.581,0l-0.57,-1.771l-3.048,0l-0.582,1.771l-1.581,0l2.795,-8.209l1.872,0l2.695,8.209Zm4.44,0l-1.493,0l0,-3.39l-2.821,-4.819l1.771,0l1.809,3.276l1.897,-3.276l1.759,0l-2.922,4.819l0,3.39Zm-9.26,-2.896l2.302,0l-1.138,-3.529l-1.164,3.529Z" style="fill:#fff;"/></g></g></svg>