<?xml version="1.0" encoding="UTF-8" standalone="no"?><!DOCTYPE svg PUBLIC "-//W3C//DTD SVG 1.1//EN" "http://www.w3.org/Graphics/SVG/1.1/DTD/svg11.dtd"><svg width="100%" height="100%" viewBox="0 0 32 32" version="1.1" xmlns="http://www.w3.org/2000/svg" xmlns:xlink="http://www.w3.org/1999/xlink" xml:space="preserve" style="fill-rule:evenodd;clip-rule:evenodd;stroke-linejoin:round;stroke-miterlimit:1.41421;">
<metadata>
<rdf:RDF xmlns:cc="http://web.resource.org/cc/"
         xmlns:rdf="http://www.w3.org/1999/02/22-rdf-syntax-ns#"
         xmlns:dc = "http://purl.org/dc/elements/1.1/"
         >

     <rdf:Description rdf:about="">
       <dc:title>Mutant Standard emoji v0.2.3</dc:title>
     </rdf:Description>

    <cc:work rdf:about="">
        <cc:license rdf:resource="http://creativecommons.org/licenses/by-nc-sa/4.0/"/>
        <cc:attributionName>Dzuk</cc:attributionName>
        <cc:attributionURL>http://mutant.tech/</cc:attributionURL>
    </cc:work>

</rdf:RDF>
</metadata>
<rect id="nb" x="0" y="0" width="32" height="32" style="fill:none;"/><clipPath id="_clip1"><rect x="0" y="0" width="32" height="32"/></clipPath><g clip-path="url(#_clip1)"><g id="outline"><path d="M24.1,0.001c0.263,0.005 0.526,0.019 0.789,0.048c0.616,0.069 1.224,0.21 1.808,0.419c1.172,0.42 2.24,1.115 3.099,2.017c0.766,0.806 1.361,1.771 1.736,2.818c0.299,0.835 0.451,1.712 0.467,2.598c0.034,5.399 0.034,10.799 0,16.198c-0.015,0.854 -0.157,1.699 -0.435,2.506c-0.405,1.177 -1.087,2.253 -1.978,3.122c-0.82,0.799 -1.811,1.419 -2.889,1.805c-0.584,0.209 -1.192,0.35 -1.808,0.419c-0.263,0.029 -0.526,0.043 -0.79,0.048c-5.399,0.032 -10.799,0.032 -16.198,0c-0.264,-0.005 -0.527,-0.019 -0.79,-0.048c-0.616,-0.069 -1.224,-0.21 -1.808,-0.419c-1.078,-0.386 -2.069,-1.006 -2.889,-1.805c-0.891,-0.869 -1.573,-1.945 -1.978,-3.122c-0.278,-0.807 -0.42,-1.652 -0.435,-2.506c-0.034,-5.399 -0.034,-10.799 0,-16.198c0.016,-0.886 0.168,-1.763 0.467,-2.598c0.375,-1.047 0.97,-2.012 1.736,-2.818c0.859,-0.902 1.927,-1.597 3.099,-2.017c0.584,-0.209 1.192,-0.35 1.808,-0.419c0.263,-0.029 0.526,-0.043 0.789,-0.048c5.4,-0.035 10.8,-0.035 16.2,0Z" style="fill-rule:nonzero;"/></g><g id="emoji"><path d="M30,8c0,-1.591 -0.632,-3.117 -1.757,-4.243c-1.126,-1.125 -2.652,-1.757 -4.243,-1.757c-4.724,0 -11.276,0 -16,0c-1.591,0 -3.117,0.632 -4.243,1.757c-1.125,1.126 -1.757,2.652 -1.757,4.243c0,4.724 0,11.276 0,16c0,1.591 0.632,3.117 1.757,4.243c1.126,1.125 2.652,1.757 4.243,1.757c4.724,0 11.276,0 16,0c1.591,0 3.117,-0.632 4.243,-1.757c1.125,-1.126 1.757,-2.652 1.757,-4.243c0,-4.724 0,-11.276 0,-16Z" style="fill:#ae60e5;"/><path d="M7.586,21.578l-2.028,0l0,-11.156l2.217,0l4.916,7.907l0,-7.907l2.028,0l0,11.156l-2.062,0l-5.071,-8.182l0,8.182Zm14.851,0l-4.52,0l0,-11.156l4.503,0c1.238,0 2.194,0.292 2.87,0.877c0.642,0.538 0.963,1.232 0.963,2.08c0,0.63 -0.175,1.169 -0.524,1.615c-0.35,0.447 -0.84,0.762 -1.47,0.946c0.63,0.126 1.152,0.41 1.564,0.851c0.413,0.441 0.619,1.005 0.619,1.693c0,1.375 -0.682,2.314 -2.045,2.819c-0.516,0.183 -1.169,0.275 -1.96,0.275Zm-0.051,-4.676l-2.441,0l0,2.905l2.441,0c0.653,0 1.125,-0.131 1.418,-0.395c0.292,-0.264 0.438,-0.613 0.438,-1.049c0,-0.435 -0.152,-0.787 -0.456,-1.057c-0.303,-0.269 -0.77,-0.404 -1.4,-0.404Zm-0.035,-4.726l-2.406,0l0,2.956l2.389,0c0.607,0 1.066,-0.132 1.375,-0.395c0.31,-0.264 0.464,-0.622 0.464,-1.075c0,-0.452 -0.152,-0.813 -0.455,-1.083c-0.304,-0.269 -0.759,-0.403 -1.367,-0.403Z" style="fill:#fff;"/></g></g></svg>