<?xml version="1.0" encoding="UTF-8" standalone="no"?><!DOCTYPE svg PUBLIC "-//W3C//DTD SVG 1.1//EN" "http://www.w3.org/Graphics/SVG/1.1/DTD/svg11.dtd"><svg width="100%" height="100%" viewBox="0 0 32 32" version="1.1" xmlns="http://www.w3.org/2000/svg" xmlns:xlink="http://www.w3.org/1999/xlink" xml:space="preserve" style="fill-rule:evenodd;clip-rule:evenodd;stroke-linejoin:round;stroke-miterlimit:1.41421;">
<metadata>
<rdf:RDF xmlns:cc="http://web.resource.org/cc/"
         xmlns:rdf="http://www.w3.org/1999/02/22-rdf-syntax-ns#"
         xmlns:dc = "http://purl.org/dc/elements/1.1/"
         >

     <rdf:Description rdf:about="">
       <dc:title>Mutant Standard emoji v0.2.3</dc:title>
     </rdf:Description>

    <cc:work rdf:about="">
        <cc:license rdf:resource="http://creativecommons.org/licenses/by-nc-sa/4.0/"/>
        <cc:attributionName>Dzuk</cc:attributionName>
        <cc:attributionURL>http://mutant.tech/</cc:attributionURL>
    </cc:work>

</rdf:RDF>
</metadata>
<rect id="so_gay" x="0" y="0" width="32" height="32" style="fill:none;"/><clipPath id="_clip1"><rect x="0" y="0" width="32" height="32"/></clipPath><g clip-path="url(#_clip1)"><g id="outline"><path d="M24.1,0.001c0.264,0.005 0.526,0.019 0.789,0.048c0.616,0.069 1.224,0.21 1.808,0.419c1.078,0.386 2.069,1.006 2.889,1.805c0.868,0.846 1.537,1.889 1.946,3.03c0.299,0.835 0.451,1.712 0.467,2.598c0.034,5.399 0.034,10.799 0,16.198c-0.015,0.854 -0.157,1.699 -0.435,2.506c-0.405,1.177 -1.087,2.253 -1.978,3.122c-0.82,0.799 -1.811,1.419 -2.889,1.805c-0.584,0.209 -1.192,0.35 -1.808,0.419c-0.263,0.029 -0.526,0.043 -0.79,0.048c-5.399,0.032 -10.799,0.032 -16.198,0c-0.264,-0.005 -0.527,-0.019 -0.79,-0.048c-0.616,-0.069 -1.224,-0.21 -1.808,-0.419c-1.078,-0.386 -2.069,-1.006 -2.889,-1.805c-0.891,-0.869 -1.573,-1.945 -1.978,-3.122c-0.278,-0.807 -0.42,-1.652 -0.435,-2.506c-0.034,-5.399 -0.034,-10.799 0,-16.198c0.016,-0.886 0.168,-1.763 0.467,-2.598c0.375,-1.047 0.97,-2.012 1.736,-2.818c0.859,-0.902 1.927,-1.597 3.099,-2.017c0.584,-0.209 1.192,-0.35 1.808,-0.419c0.263,-0.029 0.526,-0.043 0.789,-0.048c5.4,-0.035 10.8,-0.035 16.2,0Z" style="fill-rule:nonzero;"/></g><g id="emoji"><path d="M30,8c0,-1.591 -0.632,-3.117 -1.757,-4.243c-1.126,-1.125 -2.652,-1.757 -4.243,-1.757c-4.724,0 -11.276,0 -16,0c-1.591,0 -3.117,0.632 -4.243,1.757c-1.125,1.126 -1.757,2.652 -1.757,4.243c0,4.724 0,11.276 0,16c0,1.591 0.632,3.117 1.757,4.243c1.126,1.125 2.652,1.757 4.243,1.757c4.724,0 11.276,0 16,0c1.591,0 3.117,-0.632 4.243,-1.757c1.125,-1.126 1.757,-2.652 1.757,-4.243c0,-4.724 0,-11.276 0,-16Z" style="fill:#f229a2;"/><path d="M11.509,25.217l-1.214,0l-0.164,-1.303c-0.354,0.987 -1.033,1.48 -2.037,1.48c-1.029,0 -1.876,-0.388 -2.542,-1.163c-0.692,-0.802 -1.038,-1.826 -1.038,-3.074c0,-1.316 0.371,-2.37 1.114,-3.163c0.716,-0.767 1.64,-1.151 2.77,-1.151c0.767,0 1.41,0.167 1.929,0.5c0.518,0.333 0.925,0.858 1.22,1.575l-1.53,0.354c-0.447,-0.717 -1.012,-1.075 -1.695,-1.075c-0.624,0 -1.143,0.265 -1.556,0.797c-0.43,0.539 -0.645,1.26 -0.645,2.163c0,0.851 0.194,1.543 0.582,2.074c0.379,0.523 0.885,0.784 1.518,0.784c0.539,0 0.982,-0.172 1.328,-0.518c0.354,-0.354 0.531,-0.839 0.531,-1.455l0,-0.05l-1.847,-0.038l0,-0.962l3.276,0l0,4.225Zm8.615,0l-1.581,0l-0.57,-1.771l-3.048,0l-0.582,1.771l-1.581,0l2.795,-8.209l1.872,0l2.695,8.209Zm4.44,0l-1.493,0l0,-3.39l-2.821,-4.819l1.771,0l1.809,3.276l1.897,-3.276l1.759,0l-2.922,4.819l0,3.39Zm-9.26,-2.897l2.302,0l-1.138,-3.529l-1.164,3.529Zm-0.759,-13.357l-1.437,0c-0.131,-0.696 -0.622,-1.043 -1.473,-1.043c-0.418,0 -0.743,0.083 -0.976,0.251c-0.234,0.168 -0.35,0.371 -0.35,0.608c0,0.237 0.076,0.424 0.227,0.559c0.151,0.135 0.387,0.26 0.706,0.374l1.731,0.676c0.59,0.229 1.044,0.517 1.363,0.865c0.319,0.348 0.479,0.784 0.479,1.308c0,0.72 -0.27,1.291 -0.81,1.713c-0.541,0.421 -1.31,0.632 -2.309,0.632c-0.884,0 -1.6,-0.217 -2.148,-0.651c-0.614,-0.474 -0.938,-1.146 -0.97,-2.013l1.436,0c0,0.654 0.34,1.068 1.019,1.24c0.205,0.057 0.475,0.086 0.811,0.086c0.335,0 0.646,-0.084 0.933,-0.252c0.286,-0.168 0.43,-0.393 0.43,-0.675c0,-0.283 -0.078,-0.5 -0.234,-0.651c-0.155,-0.152 -0.409,-0.293 -0.761,-0.424l-1.584,-0.626c-0.614,-0.237 -1.085,-0.516 -1.412,-0.835c-0.327,-0.319 -0.491,-0.761 -0.491,-1.326c0,-0.663 0.258,-1.187 0.773,-1.572c0.524,-0.401 1.234,-0.601 2.131,-0.601c0.896,0 1.588,0.206 2.075,0.62c0.487,0.413 0.767,0.992 0.841,1.737Zm5.268,-2.357c0.532,0 1.019,0.088 1.461,0.264c0.442,0.176 0.822,0.436 1.142,0.779c0.671,0.721 1.006,1.752 1.006,3.095c0,1.35 -0.335,2.394 -1.006,3.131c-0.639,0.687 -1.511,1.031 -2.616,1.031c-1.097,0 -1.964,-0.352 -2.603,-1.056c-0.671,-0.728 -1.007,-1.764 -1.007,-3.106c0,-1.359 0.336,-2.399 1.007,-3.119c0.63,-0.68 1.502,-1.019 2.616,-1.019Zm1.54,2.044c-0.38,-0.495 -0.894,-0.743 -1.54,-0.743c-0.647,0 -1.163,0.248 -1.548,0.743c-0.384,0.495 -0.577,1.199 -0.577,2.112c0,0.913 0.193,1.613 0.577,2.1c0.385,0.487 0.901,0.73 1.548,0.73c0.646,0 1.16,-0.243 1.54,-0.73c0.381,-0.487 0.571,-1.187 0.571,-2.1c0,-0.913 -0.19,-1.617 -0.571,-2.112Z" style="fill:#fff;"/></g></g></svg>