<?xml version="1.0" encoding="UTF-8" standalone="no"?>
<!DOCTYPE svg PUBLIC "-//W3C//DTD SVG 1.1//EN" "http://www.w3.org/Graphics/SVG/1.1/DTD/svg11.dtd">
<svg width="100%" height="100%" viewBox="0 0 32 32" version="1.1" xmlns="http://www.w3.org/2000/svg" xmlns:xlink="http://www.w3.org/1999/xlink" xml:space="preserve" xmlns:serif="http://www.serif.com/" style="fill-rule:evenodd;clip-rule:evenodd;stroke-linejoin:round;stroke-miterlimit:1.41421;">
<metadata>
<rdf:RDF xmlns:cc="http://web.resource.org/cc/"
         xmlns:rdf="http://www.w3.org/1999/02/22-rdf-syntax-ns#"
         xmlns:dc = "http://purl.org/dc/elements/1.1/"
         >

     <rdf:Description rdf:about="">
       <dc:title>Mutant Standard emoji v0.2.3</dc:title>
     </rdf:Description>

    <cc:work rdf:about="">
        <cc:license rdf:resource="http://creativecommons.org/licenses/by-nc-sa/4.0/"/>
        <cc:attributionName>Dzuk</cc:attributionName>
        <cc:attributionURL>http://mutant.tech/</cc:attributionURL>
    </cc:work>

</rdf:RDF>
</metadata>

    <rect id="demon" x="0" y="0" width="32" height="32" style="fill:none;"/>
    <g id="outline">
        <path d="M28.853,0l2.057,6.33c0.103,0.323 0.173,0.651 0.213,0.987c0.03,0.253 0.034,0.509 0.026,0.764c-0.011,0.297 -0.054,0.592 -0.117,0.882c-0.065,0.299 -0.161,0.596 -0.283,0.876c-0.17,0.389 -0.383,0.751 -0.64,1.088c-0.291,0.383 -0.644,0.715 -1.032,0.998l1.684,-0.404c0.236,0.234 0.471,0.468 0.707,0.702c-0.512,2.194 -1.005,4.392 -1.536,6.582c-0.022,0.082 -0.044,0.164 -0.069,0.246c-0.126,0.401 -0.296,0.786 -0.515,1.145c-0.463,0.755 -1.127,1.382 -1.908,1.799c-0.212,0.113 -0.43,0.209 -0.654,0.291c-0.031,0.161 -0.065,0.321 -0.103,0.481c-0.358,1.531 -1.02,2.987 -1.937,4.264c-0.419,0.583 -0.892,1.122 -1.404,1.625c-0.509,0.485 -1.023,0.965 -1.535,1.447c-0.242,0.223 -0.494,0.432 -0.763,0.622c-0.719,0.505 -1.532,0.874 -2.386,1.08c-0.321,0.077 -0.648,0.132 -0.977,0.163c-0.166,0.016 -0.332,0.024 -0.499,0.03l-0.196,0.002l-2.013,0c-0.33,-0.004 -0.657,-0.024 -0.983,-0.071c-0.869,-0.125 -1.714,-0.414 -2.477,-0.85c-0.287,-0.164 -0.562,-0.348 -0.823,-0.551c-0.132,-0.102 -0.258,-0.21 -0.383,-0.32c-0.556,-0.511 -1.103,-1.031 -1.649,-1.552c-0.512,-0.503 -0.985,-1.042 -1.404,-1.625c-0.917,-1.277 -1.579,-2.733 -1.937,-4.264c-0.038,-0.159 -0.072,-0.32 -0.102,-0.48c-0.382,-0.142 -0.745,-0.322 -1.083,-0.549c-0.736,-0.494 -1.335,-1.183 -1.719,-1.982c-0.158,-0.328 -0.277,-0.672 -0.363,-1.026l-1.518,-6.507l0.707,-0.702l1.683,0.404c-0.071,-0.052 -0.142,-0.106 -0.211,-0.161c-1.11,-0.88 -1.811,-2.268 -1.86,-3.683c-0.008,-0.247 0,-0.492 0.024,-0.739c0.033,-0.343 0.11,-0.683 0.215,-1.012l2.057,-6.33l1.661,0l1.961,0.412c-0.152,1.514 -0.361,3.023 -0.453,4.541c-0.001,0.044 0,0.087 0.003,0.131c0.011,0.113 0.037,0.222 0.084,0.325c0.111,0.248 0.323,0.443 0.579,0.534c0.09,0.032 0.184,0.049 0.28,0.055c0.806,0.032 1.614,-0.005 2.421,-0.002c0.841,-0.589 1.763,-1.062 2.735,-1.396c0.764,-0.264 1.557,-0.442 2.36,-0.532c0.361,-0.04 0.723,-0.06 1.085,-0.067c0.138,-0.001 0.137,-0.001 0.274,0c0.362,0.007 0.724,0.027 1.085,0.067c0.803,0.09 1.596,0.268 2.36,0.532c0.975,0.335 1.899,0.809 2.74,1.4c0.806,0.003 1.612,0.03 2.416,-0.002c0.113,-0.007 0.224,-0.031 0.329,-0.074c0.275,-0.114 0.49,-0.351 0.576,-0.636c0.039,-0.131 0.048,-0.265 0.036,-0.401l-0.448,-4.475l1.961,-0.412l1.661,0Z"/>
    </g>
    <g id="emoji">
        <path d="M24,15.2l5,-1.2c0,0 -0.582,2.495 -0.996,4.267c-0.249,1.069 -1.061,1.916 -2.118,2.209c-0.928,0.258 -1.886,0.524 -1.886,0.524l0,-5.8Zm-16,0l-5,-1.2c0,0 0.582,2.495 0.996,4.267c0.249,1.069 1.061,1.916 2.118,2.209c0.928,0.258 1.886,0.524 1.886,0.524l0,-5.8Z" style="fill:#e02e34;"/>
        <path d="M12.357,6.77c1.136,-0.503 2.376,-0.77 3.643,-0.77c0,0 0,0 0,0c1.267,0 2.506,0.267 3.643,0.77c-0.163,0.119 5.204,6.58 5.204,6.58c0.101,0.54 0.153,1.092 0.153,1.65c0,1.736 0,3.478 0,4.973c0,2.72 -1.108,5.323 -3.069,7.209c-0.516,0.496 -1.03,0.99 -1.479,1.422c-0.932,0.896 -2.174,1.396 -3.466,1.396c-0.635,0 -1.337,0 -1.972,0c-1.292,0 -2.534,-0.5 -3.466,-1.396c-0.449,-0.432 -0.963,-0.926 -1.479,-1.422c-1.961,-1.886 -3.069,-4.489 -3.069,-7.209c0,-1.495 0,-3.237 0,-4.973c0,-0.555 0.051,-1.105 0.151,-1.643c0.828,0.204 5.523,-6.354 5.206,-6.587Z" style="fill:#e02e34;"/>
        <path d="M12.357,6.77c0.317,0.233 0.6,0.51 0.84,0.826c0.419,0.55 0.692,1.223 0.773,1.91c0.101,0.86 -0.067,1.748 -0.507,2.498c-0.256,0.437 -0.587,0.819 -0.982,1.135c-0.405,0.324 -0.877,0.56 -1.374,0.706c-0.289,0.085 -0.588,0.131 -0.888,0.149c-0.07,0.004 -0.141,0.006 -0.211,0.006c-0.043,0 -0.087,0.003 -0.131,0c-0.081,-0.007 -0.162,-0.02 -0.243,-0.03c-0.827,-0.207 -1.655,-0.409 -2.483,-0.613c0.33,-1.776 1.19,-3.426 2.485,-4.721c0.792,-0.792 1.716,-1.421 2.721,-1.866Zm7.286,0c1.005,0.445 1.929,1.074 2.721,1.866c1.294,1.294 2.153,2.94 2.483,4.714l-2.481,0.62l-0.243,0.03c-0.215,0 -0.429,-0.004 -0.642,-0.034c-0.419,-0.057 -0.823,-0.176 -1.205,-0.356c-0.465,-0.219 -0.88,-0.535 -1.228,-0.911c-0.329,-0.355 -0.584,-0.773 -0.765,-1.22c-0.163,-0.402 -0.251,-0.831 -0.277,-1.262c-0.068,-1.123 0.371,-2.265 1.174,-3.054c0.145,-0.143 0.3,-0.274 0.463,-0.393Z" style="fill:#5e0d1c;"/>
        <path d="M8,16c0,0 1.608,0 3,0c0.53,0 1.039,0.211 1.414,0.586c0.375,0.375 0.586,0.884 0.586,1.414c0,0.551 0,1 0,1c0,0 -1.608,0 -3,0c-0.53,0 -1.039,-0.211 -1.414,-0.586c-0.375,-0.375 -0.586,-0.884 -0.586,-1.414c0,-0.551 0,-1 0,-1Zm16,0c0,0 -1.608,0 -3,0c-0.53,0 -1.039,0.211 -1.414,0.586c-0.375,0.375 -0.586,0.884 -0.586,1.414c0,0.551 0,1 0,1c0,0 1.608,0 3,0c0.53,0 1.039,-0.211 1.414,-0.586c0.375,-0.375 0.586,-0.884 0.586,-1.414c0,-0.551 0,-1 0,-1Z"/>
        <path d="M11.066,23.002c0.148,0.015 0.288,0.051 0.419,0.123c0.055,0.031 0.105,0.068 0.155,0.107l2.393,1.994l1.968,-1.477l1.967,1.479l2.391,-1.996l0.05,-0.038c0.122,-0.084 0.253,-0.147 0.399,-0.175c0.124,-0.025 0.251,-0.025 0.375,-0.002c0.103,0.019 0.203,0.055 0.295,0.105c0.298,0.162 0.497,0.472 0.52,0.811c0.007,0.104 -0.003,0.21 -0.028,0.311c-0.036,0.143 -0.104,0.277 -0.197,0.39c-0.04,0.049 -0.085,0.092 -0.132,0.134l-3.609,3.012l-2.033,-1.529l-2.032,1.523l-3.607,-3.006l-0.047,-0.041c-0.12,-0.121 -0.213,-0.259 -0.265,-0.421c-0.111,-0.344 -0.023,-0.731 0.225,-0.993c0.072,-0.076 0.156,-0.141 0.248,-0.191c0.132,-0.072 0.272,-0.107 0.42,-0.12c0.063,-0.002 0.062,-0.002 0.125,0Zm4.934,-5.002l-2,4l4,0l-2,-4Z" style="fill:#800e0e;"/>
        <path d="M10,8c0,0 -1.297,0 -2.685,0c-0.848,0 -1.656,-0.359 -2.224,-0.987c-0.569,-0.628 -0.845,-1.468 -0.761,-2.312c0.139,-1.394 0.27,-2.701 0.27,-2.701c0,0 -0.872,2.684 -1.606,4.942c-0.257,0.791 -0.174,1.653 0.229,2.381c0.402,0.727 1.089,1.255 1.896,1.457c2.246,0.561 4.881,1.22 4.881,1.22c0,0 0.001,0 0.002,0c1.103,0 1.998,-0.895 1.998,-1.998c0,-0.001 0,-0.001 0,-0.002c0,-1.105 -0.895,-2 -2,-2c0,0 0,0 0,0Zm12,0c0,0 1.297,0 2.685,0c0.848,0 1.656,-0.359 2.224,-0.987c0.569,-0.628 0.845,-1.468 0.761,-2.312c-0.139,-1.394 -0.27,-2.701 -0.27,-2.701c0,0 0.872,2.684 1.606,4.942c0.257,0.791 0.174,1.653 -0.229,2.381c-0.402,0.727 -1.089,1.255 -1.896,1.457c-2.246,0.561 -4.881,1.22 -4.881,1.22c0,0 0,0 0,0c-1.105,0 -2,-0.895 -2,-2c0,-1.105 0.895,-2 2,-2c0,0 0,0 0,0Z" style="fill:#fede30;"/>
    </g>
</svg>
