<?xml version="1.0" encoding="UTF-8" standalone="no"?><!DOCTYPE svg PUBLIC "-//W3C//DTD SVG 1.1//EN" "http://www.w3.org/Graphics/SVG/1.1/DTD/svg11.dtd"><svg width="100%" height="100%" viewBox="0 0 32 32" version="1.1" xmlns="http://www.w3.org/2000/svg" xmlns:xlink="http://www.w3.org/1999/xlink" xml:space="preserve" style="fill-rule:evenodd;clip-rule:evenodd;stroke-linejoin:round;stroke-miterlimit:1.41421;">
<metadata>
<rdf:RDF xmlns:cc="http://web.resource.org/cc/"
         xmlns:rdf="http://www.w3.org/1999/02/22-rdf-syntax-ns#"
         xmlns:dc = "http://purl.org/dc/elements/1.1/"
         >

     <rdf:Description rdf:about="">
       <dc:title>Mutant Standard emoji v0.2.3</dc:title>
     </rdf:Description>

    <cc:work rdf:about="">
        <cc:license rdf:resource="http://creativecommons.org/licenses/by-nc-sa/4.0/"/>
        <cc:attributionName>Dzuk</cc:attributionName>
        <cc:attributionURL>http://mutant.tech/</cc:attributionURL>
    </cc:work>

</rdf:RDF>
</metadata>
<rect id="d10" x="0" y="0" width="32" height="32" style="fill:none;"/><g id="outline"><path d="M16.129,2.312c0.173,0.011 0.343,0.03 0.512,0.067c0.344,0.075 0.674,0.211 0.971,0.4c0.108,0.069 0.209,0.146 0.309,0.226l11.868,10.043c0.166,0.146 0.318,0.304 0.451,0.481c0.376,0.503 0.587,1.121 0.597,1.749c0.005,0.302 -0.04,0.597 -0.119,0.888c-0.232,0.742 -0.49,1.476 -0.736,2.213c-0.114,0.323 -0.273,0.624 -0.485,0.894c-0.108,0.136 -0.229,0.26 -0.356,0.378c-3.692,3.186 -7.491,6.244 -11.237,9.366c-0.203,0.162 -0.419,0.302 -0.656,0.41c-0.705,0.323 -1.525,0.358 -2.256,0.098c-0.206,-0.074 -0.404,-0.17 -0.589,-0.286c-0.1,-0.064 -0.122,-0.082 -0.219,-0.152c-3.821,-3.044 -7.507,-6.252 -11.259,-9.38c-0.259,-0.223 -0.482,-0.481 -0.655,-0.777c-0.088,-0.15 -0.159,-0.307 -0.223,-0.469c-0.258,-0.73 -0.491,-1.469 -0.736,-2.204c-0.066,-0.211 -0.114,-0.425 -0.135,-0.645c-0.06,-0.625 0.081,-1.263 0.399,-1.805c0.153,-0.26 0.345,-0.488 0.564,-0.696c3.916,-3.443 7.96,-6.738 11.94,-10.106c0.1,-0.08 0.201,-0.157 0.309,-0.226c0.297,-0.189 0.627,-0.325 0.971,-0.4c0.169,-0.037 0.339,-0.056 0.512,-0.067c0.129,-0.002 0.129,-0.003 0.258,0Z" style="fill-rule:nonzero;"/></g><g id="emoji"><path d="M4.839,18.699l0.161,-1.699l5,-2l6,3l0,9l-1,0.167l-10.161,-8.468Zm22.267,0.046l-10.106,8.422l-1,-0.167l0,-9l7,-3l4,3l0.106,0.745Zm-8.538,-12.572l9.915,8.39c0.312,0.264 0.432,0.691 0.303,1.079l-0.495,1.486l-1.291,0.872l-4,-3l-7,-10l2.568,1.173Zm-8.568,8.827l-5,3l-1.319,-0.958l-0.467,-1.4c-0.129,-0.388 -0.009,-0.815 0.303,-1.079l10.368,-8.773l2.115,-0.79l-6,10Zm13,0l-7,-10l-6,10l6,3l7,-3Z" style="fill:#5462cb;"/><clipPath id="_clip1"><path d="M4.839,18.699l0.161,-1.699l5,-2l6,3l0,9l-1,0.167l-10.161,-8.468Zm22.267,0.046l-10.106,8.422l-1,-0.167l0,-9l7,-3l4,3l0.106,0.745Zm-8.538,-12.572l9.915,8.39c0.312,0.264 0.432,0.691 0.303,1.079l-0.495,1.486l-1.291,0.872l-4,-3l-7,-10l2.568,1.173Zm-8.568,8.827l-5,3l-1.319,-0.958l-0.467,-1.4c-0.129,-0.388 -0.009,-0.815 0.303,-1.079l10.368,-8.773l2.115,-0.79l-6,10Zm13,0l-7,-10l-6,10l6,3l7,-3Z"/></clipPath><g clip-path="url(#_clip1)"><g><path d="M16,12c0,-0.552 -0.448,-1 -1,-1c-0.552,0 -1,0.448 -1,1c0,0.322 0,0.678 0,1c0,0.552 0.448,1 1,1c0.552,0 1,-0.448 1,-1c0,-0.322 0,-0.678 0,-1Z" style="fill:#fff;"/><path d="M18,12c0,-0.552 -0.448,-1 -1,-1c-0.552,0 -1,0.448 -1,1c0,0.322 0,0.678 0,1c0,0.552 0.448,1 1,1c0.552,0 1,-0.448 1,-1c0,-0.322 0,-0.678 0,-1Z" style="fill:#fff;"/></g><g><path d="M10,21c0,-0.552 -0.448,-1 -1,-1c-0.552,0 -1,0.448 -1,1c0,0.322 0,0.678 0,1c0,0.552 0.448,1 1,1c0.552,0 1,-0.448 1,-1c0,-0.322 0,-0.678 0,-1Z" style="fill:#fff;"/><path d="M12,21c0,-0.552 -0.448,-1 -1,-1c-0.552,0 -1,0.448 -1,1c0,0.322 0,0.678 0,1c0,0.552 0.448,1 1,1c0.552,0 1,-0.448 1,-1c0,-0.322 0,-0.678 0,-1Z" style="fill:#fff;"/></g><g><path d="M22,21c0,-0.552 -0.448,-1 -1,-1c-0.552,0 -1,0.448 -1,1c0,0.322 0,0.678 0,1c0,0.552 0.448,1 1,1c0.552,0 1,-0.448 1,-1c0,-0.322 0,-0.678 0,-1Z" style="fill:#fff;"/><path d="M24,21c0,-0.552 -0.448,-1 -1,-1c-0.552,0 -1,0.448 -1,1c0,0.322 0,0.678 0,1c0,0.552 0.448,1 1,1c0.552,0 1,-0.448 1,-1c0,-0.322 0,-0.678 0,-1Z" style="fill:#fff;"/></g><g><path d="M25,10c0,-0.552 -0.448,-1 -1,-1c-0.552,0 -1,0.448 -1,1c0,0.322 0,0.678 0,1c0,0.552 0.448,1 1,1c0.552,0 1,-0.448 1,-1c0,-0.322 0,-0.678 0,-1Z" style="fill:#fff;"/><path d="M27,10c0,-0.552 -0.448,-1 -1,-1c-0.552,0 -1,0.448 -1,1c0,0.322 0,0.678 0,1c0,0.552 0.448,1 1,1c0.552,0 1,-0.448 1,-1c0,-0.322 0,-0.678 0,-1Z" style="fill:#fff;"/></g><g><path d="M7,10c0,-0.552 -0.448,-1 -1,-1c-0.552,0 -1,0.448 -1,1c0,0.322 0,0.678 0,1c0,0.552 0.448,1 1,1c0.552,0 1,-0.448 1,-1c0,-0.322 0,-0.678 0,-1Z" style="fill:#fff;"/><path d="M9,10c0,-0.552 -0.448,-1 -1,-1c-0.552,0 -1,0.448 -1,1c0,0.322 0,0.678 0,1c0,0.552 0.448,1 1,1c0.552,0 1,-0.448 1,-1c0,-0.322 0,-0.678 0,-1Z" style="fill:#fff;"/></g></g><path d="M13.885,5.79l1.469,-1.243c0.373,-0.316 0.919,-0.316 1.292,0l1.922,1.626l5.154,8.099l4.569,2.856l-0.201,0.602c-0.059,0.177 -0.166,0.333 -0.309,0.452l-0.675,0.563l-4.193,-2.62l-5.913,2.534l0,8.508l-0.36,0.3c-0.371,0.309 -0.909,0.309 -1.28,0l-0.36,-0.3l0,-8.549l-5,-2.5l-5.161,2.581l-0.62,-0.517c-0.143,-0.119 -0.25,-0.275 -0.309,-0.452l-0.229,-0.688l5.591,-2.796l4.613,-8.456Zm7.64,8.754l-5.459,-8.577l-4.692,8.602l4.658,2.329l5.493,-2.354Z" style="fill:#2438b9;"/></g></svg>