<?xml version="1.0" encoding="UTF-8" standalone="no"?><!DOCTYPE svg PUBLIC "-//W3C//DTD SVG 1.1//EN" "http://www.w3.org/Graphics/SVG/1.1/DTD/svg11.dtd"><svg width="100%" height="100%" viewBox="0 0 32 32" version="1.1" xmlns="http://www.w3.org/2000/svg" xmlns:xlink="http://www.w3.org/1999/xlink" xml:space="preserve" style="fill-rule:evenodd;clip-rule:evenodd;stroke-linejoin:round;stroke-miterlimit:1.41421;">
<metadata>
<rdf:RDF xmlns:cc="http://web.resource.org/cc/"
         xmlns:rdf="http://www.w3.org/1999/02/22-rdf-syntax-ns#"
         xmlns:dc = "http://purl.org/dc/elements/1.1/"
         >

     <rdf:Description rdf:about="">
       <dc:title>Mutant Standard emoji v0.2.3</dc:title>
     </rdf:Description>

    <cc:work rdf:about="">
        <cc:license rdf:resource="http://creativecommons.org/licenses/by-nc-sa/4.0/"/>
        <cc:attributionName>Dzuk</cc:attributionName>
        <cc:attributionURL>http://mutant.tech/</cc:attributionURL>
    </cc:work>

</rdf:RDF>
</metadata>
<rect id="d12" x="0" y="0" width="32" height="32" style="fill:none;"/><g id="outline"><g><path d="M15.691,2.1c0.201,-0.065 0.417,-0.065 0.618,0c1.299,0.423 6.312,2.051 7.611,2.473c0.201,0.066 0.376,0.193 0.5,0.364c0.803,1.105 3.901,5.369 4.704,6.474c0.124,0.171 0.191,0.376 0.191,0.588c0,1.366 0,6.636 0,8.002c0,0.212 -0.067,0.417 -0.191,0.588c-0.803,1.105 -3.901,5.369 -4.704,6.474c-0.124,0.171 -0.299,0.298 -0.5,0.364c-1.299,0.422 -6.312,2.05 -7.611,2.473c-0.201,0.065 -0.417,0.065 -0.618,0c-1.299,-0.423 -6.312,-2.051 -7.611,-2.473c-0.201,-0.066 -0.376,-0.193 -0.5,-0.364c-0.803,-1.105 -3.901,-5.369 -4.704,-6.474c-0.124,-0.171 -0.191,-0.376 -0.191,-0.588c0,-1.366 0,-6.636 0,-8.002c0,-0.212 0.067,-0.417 0.191,-0.588c0.803,-1.105 3.901,-5.369 4.704,-6.474c0.124,-0.171 0.299,-0.298 0.5,-0.364c1.299,-0.422 6.312,-2.05 7.611,-2.473Z"/><path d="M16.117,0.053l0.117,0.007l0.117,0.012l0.117,0.016l0.116,0.02l0.115,0.026l0.115,0.029l0.094,0.029l7.649,2.485l0.093,0.033l0.11,0.043l0.109,0.047l0.105,0.052l0.104,0.055l0.102,0.06l0.098,0.063l0.096,0.067l0.094,0.071l0.091,0.074l0.088,0.078l0.085,0.082l0.081,0.084l0.078,0.089l0.076,0.092l0.06,0.078l4.726,6.506l0.057,0.082l0.064,0.099l0.059,0.102l0.056,0.103l0.051,0.106l0.047,0.108l0.043,0.109l0.038,0.111l0.035,0.113l0.029,0.114l0.025,0.114l0.021,0.116l0.016,0.117l0.012,0.117l0.007,0.118l0.002,0.099l0,8.042l-0.002,0.099l-0.007,0.118l-0.012,0.117l-0.016,0.117l-0.021,0.116l-0.025,0.115l-0.029,0.113l-0.035,0.113l-0.038,0.111l-0.043,0.109l-0.047,0.108l-0.051,0.105l-0.056,0.104l-0.059,0.102l-0.064,0.099l-0.057,0.082l-4.726,6.506l-0.06,0.078l-0.075,0.092l-0.079,0.089l-0.082,0.084l-0.084,0.082l-0.088,0.077l-0.091,0.075l-0.094,0.071l-0.096,0.067l-0.099,0.063l-0.101,0.06l-0.104,0.055l-0.105,0.052l-0.109,0.047l-0.11,0.043l-0.093,0.033l-7.649,2.485l-0.094,0.028l-0.114,0.03l-0.116,0.026l-0.116,0.02l-0.117,0.016l-0.116,0.012l-0.117,0.007l-0.118,0.002l-0.118,-0.002l-0.117,-0.007l-0.116,-0.012l-0.117,-0.016l-0.116,-0.02l-0.116,-0.026l-0.114,-0.03l-0.094,-0.028l-7.649,-2.485l-0.094,-0.033l-0.109,-0.043l-0.108,-0.047l-0.106,-0.052l-0.104,-0.055l-0.101,-0.06l-0.099,-0.063l-0.096,-0.067l-0.094,-0.071l-0.091,-0.074l-0.088,-0.078l-0.084,-0.082l-0.082,-0.085l-0.079,-0.088l-0.075,-0.091l-0.059,-0.079l-4.727,-6.506l-0.057,-0.081l-0.064,-0.1l-0.059,-0.102l-0.056,-0.104l-0.051,-0.106l-0.047,-0.107l-0.043,-0.11l-0.038,-0.11l-0.034,-0.113l-0.03,-0.113l-0.025,-0.115l-0.021,-0.116l-0.016,-0.117l-0.012,-0.117l-0.007,-0.118l-0.002,-0.099l0,-8.042l0.002,-0.099l0.007,-0.118l0.012,-0.117l0.016,-0.117l0.021,-0.116l0.025,-0.114l0.03,-0.114l0.034,-0.113l0.038,-0.11l0.043,-0.11l0.047,-0.107l0.051,-0.106l0.056,-0.104l0.059,-0.102l0.064,-0.1l0.057,-0.081l4.727,-6.506l0.059,-0.079l0.075,-0.091l0.079,-0.088l0.081,-0.085l0.085,-0.082l0.088,-0.078l0.091,-0.074l0.094,-0.071l0.095,-0.067l0.099,-0.063l0.102,-0.06l0.104,-0.055l0.106,-0.052l0.108,-0.047l0.11,-0.043l0.093,-0.033l7.649,-2.485l0.094,-0.029l0.115,-0.029l0.115,-0.026l0.116,-0.02l0.117,-0.016l0.117,-0.012l0.117,-0.007l0.117,-0.002l0.117,0.002Zm-7.11,6.322l-4.322,5.949l0,7.352l4.322,5.949l6.993,2.272l6.993,-2.272l4.322,-5.949l0,-7.352l-4.322,-5.949l-6.993,-2.272l-6.993,2.272Z"/></g></g><g id="emoji"><path d="M8.499,27.563l-0.499,-0.563l2,-3l12,0l2,3l-0.499,0.563l-7.192,2.337c-0.201,0.065 -0.417,0.065 -0.618,0l-7.192,-2.337Zm20.816,-14.753l0,7.191c0,0.212 -0.067,0.417 -0.191,0.588l-4.113,5.662l-1.011,0.749l-2,-3l3,-10l4,-2l0.315,0.81Zm-26.63,0l0.315,-0.81l4,1l3,11l-2,3l-1.011,-0.749l-4.113,-5.662c-0.124,-0.171 -0.191,-0.376 -0.191,-0.588l0,-7.191Zm4.315,0.19l3,11l12,0l3,-10l-9,-7l-9,6Zm10,-10.675l6.92,2.248c0.201,0.066 0.376,0.193 0.5,0.364l4.319,5.944l0.261,1.119l-4,2l-9,-7l0,-4l1,-0.675Zm-2,0l1,0.675l0,4l-9,6l-4,-1l0.261,-1.119l4.319,-5.944c0.124,-0.171 0.299,-0.298 0.5,-0.364l6.92,-2.248Z" style="fill:#982eee;"/><clipPath id="_clip1"><path d="M8.499,27.563l-0.499,-0.563l2,-3l12,0l2,3l-0.499,0.563l-7.192,2.337c-0.201,0.065 -0.417,0.065 -0.618,0l-7.192,-2.337Zm20.816,-14.753l0,7.191c0,0.212 -0.067,0.417 -0.191,0.588l-4.113,5.662l-1.011,0.749l-2,-3l3,-10l4,-2l0.315,0.81Zm-26.63,0l0.315,-0.81l4,1l3,11l-2,3l-1.011,-0.749l-4.113,-5.662c-0.124,-0.171 -0.191,-0.376 -0.191,-0.588l0,-7.191Zm4.315,0.19l3,11l12,0l3,-10l-9,-7l-9,6Zm10,-10.675l6.92,2.248c0.201,0.066 0.376,0.193 0.5,0.364l4.319,5.944l0.261,1.119l-4,2l-9,-7l0,-4l1,-0.675Zm-2,0l1,0.675l0,4l-9,6l-4,-1l0.261,-1.119l4.319,-5.944c0.124,-0.171 0.299,-0.298 0.5,-0.364l6.92,-2.248Z"/></clipPath><g clip-path="url(#_clip1)"><g><path d="M15,15c0,-0.552 -0.448,-1 -1,-1c-0.552,0 -1,0.448 -1,1c0,0.611 0,1.389 0,2c0,0.552 0.448,1 1,1c0.552,0 1,-0.448 1,-1c0,-0.611 0,-1.389 0,-2Z" style="fill:#fff;"/><path d="M19,15c0,-0.552 -0.448,-1 -1,-1c-0.552,0 -1,0.448 -1,1c0,0.611 0,1.389 0,2c0,0.552 0.448,1 1,1c0.552,0 1,-0.448 1,-1c0,-0.611 0,-1.389 0,-2Z" style="fill:#fff;"/></g><g><path d="M15,29c0,-0.552 -0.448,-1 -1,-1c-0.552,0 -1,0.448 -1,1c0,0.611 0,1.389 0,2c0,0.552 0.448,1 1,1c0.552,0 1,-0.448 1,-1c0,-0.611 0,-1.389 0,-2Z" style="fill:#fff;"/><path d="M19,29c0,-0.552 -0.448,-1 -1,-1c-0.552,0 -1,0.448 -1,1c0,0.611 0,1.389 0,2c0,0.552 0.448,1 1,1c0.552,0 1,-0.448 1,-1c0,-0.611 0,-1.389 0,-2Z" style="fill:#fff;"/></g><g><path d="M23.634,3.402c0.276,-0.478 0.112,-1.09 -0.366,-1.366c-0.478,-0.276 -1.09,-0.112 -1.366,0.366c-0.305,0.529 -0.695,1.203 -1,1.732c-0.276,0.478 -0.112,1.09 0.366,1.366c0.478,0.276 1.09,0.112 1.366,-0.366c0.305,-0.529 0.695,-1.203 1,-1.732Z" style="fill:#fff;"/><path d="M27.098,5.402c0.276,-0.478 0.112,-1.09 -0.366,-1.366c-0.478,-0.276 -1.09,-0.112 -1.366,0.366c-0.305,0.529 -0.695,1.203 -1,1.732c-0.276,0.478 -0.112,1.09 0.366,1.366c0.478,0.276 1.09,0.112 1.366,-0.366c0.305,-0.529 0.695,-1.203 1,-1.732Z" style="fill:#fff;"/></g><g><path d="M30.134,20.634c0.478,0.276 1.09,0.112 1.366,-0.366c0.276,-0.478 0.112,-1.09 -0.366,-1.366c-0.529,-0.305 -1.203,-0.695 -1.732,-1c-0.478,-0.276 -1.09,-0.112 -1.366,0.366c-0.276,0.478 -0.112,1.09 0.366,1.366c0.529,0.305 1.203,0.695 1.732,1Z" style="fill:#fff;"/><path d="M28.134,24.098c0.478,0.276 1.09,0.112 1.366,-0.366c0.276,-0.478 0.112,-1.09 -0.366,-1.366c-0.529,-0.305 -1.203,-0.695 -1.732,-1c-0.478,-0.276 -1.09,-0.112 -1.366,0.366c-0.276,0.478 -0.112,1.09 0.366,1.366c0.529,0.305 1.203,0.695 1.732,1Z" style="fill:#fff;"/></g><g><path d="M1.866,20.634c-0.478,0.276 -1.09,0.112 -1.366,-0.366c-0.276,-0.478 -0.112,-1.09 0.366,-1.366c0.529,-0.305 1.203,-0.695 1.732,-1c0.478,-0.276 1.09,-0.112 1.366,0.366c0.276,0.478 0.112,1.09 -0.366,1.366c-0.529,0.305 -1.203,0.695 -1.732,1Z" style="fill:#fff;"/><path d="M3.866,24.098c-0.478,0.276 -1.09,0.112 -1.366,-0.366c-0.276,-0.478 -0.112,-1.09 0.366,-1.366c0.529,-0.305 1.203,-0.695 1.732,-1c0.478,-0.276 1.09,-0.112 1.366,0.366c0.276,0.478 0.112,1.09 -0.366,1.366c-0.529,0.305 -1.203,0.695 -1.732,1Z" style="fill:#fff;"/></g><g><path d="M8.366,3.402c-0.276,-0.478 -0.112,-1.09 0.366,-1.366c0.478,-0.276 1.09,-0.112 1.366,0.366c0.305,0.529 0.695,1.203 1,1.732c0.276,0.478 0.112,1.09 -0.366,1.366c-0.478,0.276 -1.09,0.112 -1.366,-0.366c-0.305,-0.529 -0.695,-1.203 -1,-1.732Z" style="fill:#fff;"/><path d="M4.902,5.402c-0.276,-0.478 -0.112,-1.09 0.366,-1.366c0.478,-0.276 1.09,-0.112 1.366,0.366c0.305,0.529 0.695,1.203 1,1.732c0.276,0.478 0.112,1.09 -0.366,1.366c-0.478,0.276 -1.09,0.112 -1.366,-0.366c-0.305,-0.529 -0.695,-1.203 -1,-1.732Z" style="fill:#fff;"/></g></g><path d="M15,2.325l0.691,-0.225c0.201,-0.065 0.417,-0.065 0.618,0l0.691,0.225l0,4.165l8.156,5.926l3.583,-1.535l0.385,0.53c0.124,0.171 0.191,0.376 0.191,0.588l0,0.811l-3.633,1.557l-2.967,9.129l2.296,2.755l-0.591,0.812c-0.124,0.171 -0.299,0.298 -0.5,0.364l-0.419,0.136l-2.166,-2.599l-10.67,0l-2.166,2.599l-0.419,-0.136c-0.201,-0.066 -0.376,-0.193 -0.5,-0.364l-0.591,-0.812l2.296,-2.755l-2.967,-9.129l-3.633,-1.557l0,-0.811c0,-0.212 0.067,-0.417 0.191,-0.588l0.385,-0.53l3.583,1.535l8.156,-5.926l0,-4.165Zm-6.743,11.537l2.958,9.102l9.57,0l2.958,-9.102l-7.743,-5.626c-2.581,1.875 -5.162,3.75 -7.743,5.626Z" style="fill:#660eae;"/></g></svg>