<?xml version="1.0" encoding="UTF-8" standalone="no"?><!DOCTYPE svg PUBLIC "-//W3C//DTD SVG 1.1//EN" "http://www.w3.org/Graphics/SVG/1.1/DTD/svg11.dtd"><svg width="100%" height="100%" viewBox="0 0 32 32" version="1.1" xmlns="http://www.w3.org/2000/svg" xmlns:xlink="http://www.w3.org/1999/xlink" xml:space="preserve" style="fill-rule:evenodd;clip-rule:evenodd;stroke-linejoin:round;stroke-miterlimit:1.41421;">
<metadata>
<rdf:RDF xmlns:cc="http://web.resource.org/cc/"
         xmlns:rdf="http://www.w3.org/1999/02/22-rdf-syntax-ns#"
         xmlns:dc = "http://purl.org/dc/elements/1.1/"
         >

     <rdf:Description rdf:about="">
       <dc:title>Mutant Standard emoji v0.2.3</dc:title>
     </rdf:Description>

    <cc:work rdf:about="">
        <cc:license rdf:resource="http://creativecommons.org/licenses/by-nc-sa/4.0/"/>
        <cc:attributionName>Dzuk</cc:attributionName>
        <cc:attributionURL>http://mutant.tech/</cc:attributionURL>
    </cc:work>

</rdf:RDF>
</metadata>
<rect id="d20" x="0" y="0" width="32" height="32" style="fill:none;"/><g id="outline"><g><path d="M15.5,2.289c0.309,-0.179 0.691,-0.179 1,0c1.967,1.135 9.158,5.287 11.124,6.422c0.31,0.179 0.5,0.509 0.5,0.866c0,2.271 0,10.575 0,12.846c0,0.357 -0.19,0.687 -0.5,0.866c-1.966,1.135 -9.157,5.287 -11.124,6.422c-0.309,0.179 -0.691,0.179 -1,0c-1.967,-1.135 -9.158,-5.287 -11.124,-6.422c-0.31,-0.179 -0.5,-0.509 -0.5,-0.866c0,-2.271 0,-10.575 0,-12.846c0,-0.357 0.19,-0.687 0.5,-0.866c1.966,-1.135 9.157,-5.287 11.124,-6.422Z"/><path d="M16.097,0.156l0.097,0.005l0.097,0.008l0.096,0.011l0.097,0.014l0.095,0.017l0.096,0.02l0.096,0.024l0.094,0.027l0.093,0.029l0.093,0.034l0.092,0.036l0.091,0.039l0.09,0.042l0.088,0.046l0.073,0.04l11.154,6.44l0.071,0.043l0.084,0.053l0.082,0.057l0.079,0.059l0.077,0.062l0.076,0.064l0.072,0.066l0.071,0.069l0.067,0.07l0.066,0.072l0.063,0.075l0.06,0.076l0.058,0.079l0.055,0.079l0.053,0.082l0.049,0.083l0.048,0.085l0.044,0.086l0.042,0.088l0.039,0.089l0.036,0.091l0.033,0.092l0.03,0.092l0.027,0.094l0.024,0.095l0.021,0.096l0.018,0.097l0.014,0.098l0.012,0.099l0.008,0.099l0.005,0.1l0.001,0.083l0,12.878l-0.001,0.083l-0.005,0.1l-0.008,0.099l-0.012,0.099l-0.014,0.098l-0.018,0.097l-0.021,0.096l-0.024,0.095l-0.027,0.094l-0.03,0.092l-0.033,0.092l-0.036,0.091l-0.039,0.089l-0.042,0.088l-0.044,0.086l-0.048,0.085l-0.049,0.083l-0.053,0.082l-0.055,0.079l-0.058,0.079l-0.06,0.076l-0.063,0.074l-0.066,0.073l-0.068,0.071l-0.07,0.068l-0.072,0.066l-0.076,0.064l-0.077,0.062l-0.079,0.059l-0.082,0.057l-0.084,0.053l-0.071,0.043l-11.154,6.44l-0.072,0.04l-0.089,0.046l-0.09,0.042l-0.091,0.039l-0.092,0.036l-0.093,0.033l-0.093,0.03l-0.095,0.027l-0.095,0.024l-0.096,0.02l-0.095,0.017l-0.097,0.014l-0.096,0.011l-0.097,0.008l-0.097,0.005l-0.097,0.002l-0.097,-0.002l-0.097,-0.005l-0.097,-0.008l-0.096,-0.011l-0.097,-0.014l-0.095,-0.017l-0.096,-0.02l-0.095,-0.024l-0.095,-0.027l-0.093,-0.03l-0.093,-0.033l-0.092,-0.036l-0.091,-0.039l-0.09,-0.042l-0.089,-0.046l-0.072,-0.04l-11.154,-6.44l-0.071,-0.043l-0.084,-0.054l-0.082,-0.056l-0.079,-0.059l-0.078,-0.062l-0.074,-0.064l-0.073,-0.066l-0.07,-0.068l-0.068,-0.071l-0.066,-0.073l-0.063,-0.074l-0.06,-0.076l-0.058,-0.079l-0.055,-0.079l-0.053,-0.082l-0.05,-0.083l-0.047,-0.085l-0.044,-0.086l-0.042,-0.088l-0.038,-0.089l-0.037,-0.091l-0.033,-0.092l-0.03,-0.092l-0.027,-0.094l-0.024,-0.095l-0.021,-0.096l-0.018,-0.097l-0.014,-0.098l-0.012,-0.099l-0.008,-0.099l-0.005,-0.1l-0.001,-0.083l0,-12.878l0.001,-0.083l0.005,-0.1l0.008,-0.099l0.012,-0.099l0.014,-0.098l0.018,-0.097l0.021,-0.096l0.024,-0.095l0.027,-0.094l0.03,-0.092l0.033,-0.092l0.037,-0.091l0.038,-0.089l0.042,-0.088l0.044,-0.086l0.047,-0.085l0.05,-0.083l0.053,-0.082l0.055,-0.079l0.058,-0.079l0.06,-0.076l0.063,-0.075l0.066,-0.072l0.067,-0.07l0.071,-0.069l0.073,-0.066l0.074,-0.064l0.078,-0.062l0.079,-0.059l0.082,-0.056l0.084,-0.054l0.071,-0.043l11.154,-6.44l0.073,-0.04l0.088,-0.046l0.09,-0.042l0.091,-0.039l0.092,-0.036l0.093,-0.034l0.093,-0.029l0.094,-0.027l0.096,-0.024l0.096,-0.02l0.095,-0.017l0.097,-0.014l0.096,-0.011l0.097,-0.008l0.097,-0.005l0.097,-0.002l0.097,0.002Zm-10.221,9.999l0,11.69l10.124,5.846l10.124,-5.846l0,-11.69l-10.124,-5.846l-10.124,5.846Z"/></g></g><g id="emoji"><path d="M25.417,24.563l-8.417,4.86l-1,-0.423l0,-4l11,-2l-1.583,1.563Zm-9.417,0.437l0,4l-1,0.423l-8.417,-4.86l-1.583,-1.563l11,2Zm-12,-2.532l12,2.532l-8,-13l-4,10.468Zm20,-10.468l-8,13l12,-2.439l-4,-10.561Zm-8,13l-8,-13l16,0l-8,13Zm12.124,-14.308l0,7.965l-4.124,-6.657l4.124,-1.308Zm-20.124,1.308l-3,8l-1.124,-1.343l0,-7.965l1.124,-0.692l3,2Zm0,0l16,0l-6,-8l-2,-1.602l-1,0.602l-7,9Zm11.385,-8.046l8.195,4.732l-3.58,3.314l-6,-8l1.385,-0.046Zm-11.385,8.046l-4,-2l0.42,-1.314l8.195,-4.732l2.385,-0.954l-7,9Z" style="fill:#ef4db1;"/><clipPath id="_clip1"><path d="M25.417,24.563l-8.417,4.86l-1,-0.423l0,-4l11,-2l-1.583,1.563Zm-9.417,0.437l0,4l-1,0.423l-8.417,-4.86l-1.583,-1.563l11,2Zm-12,-2.532l12,2.532l-8,-13l-4,10.468Zm20,-10.468l-8,13l12,-2.439l-4,-10.561Zm-8,13l-8,-13l16,0l-8,13Zm12.124,-14.308l0,7.965l-4.124,-6.657l4.124,-1.308Zm-20.124,1.308l-3,8l-1.124,-1.343l0,-7.965l1.124,-0.692l3,2Zm0,0l16,0l-6,-8l-2,-1.602l-1,0.602l-7,9Zm11.385,-8.046l8.195,4.732l-3.58,3.314l-6,-8l1.385,-0.046Zm-11.385,8.046l-4,-2l0.42,-1.314l8.195,-4.732l2.385,-0.954l-7,9Z"/></clipPath><g clip-path="url(#_clip1)"><g><g><path d="M16,16c0,-0.552 -0.448,-1 -1,-1c-0.552,0 -1,0.448 -1,1c0,0.322 0,0.678 0,1c0,0.552 0.448,1 1,1c0.552,0 1,-0.448 1,-1c0,-0.322 0,-0.678 0,-1Z" style="fill:#fff;"/><path d="M18,16c0,-0.552 -0.448,-1 -1,-1c-0.552,0 -1,0.448 -1,1c0,0.322 0,0.678 0,1c0,0.552 0.448,1 1,1c0.552,0 1,-0.448 1,-1c0,-0.322 0,-0.678 0,-1Z" style="fill:#fff;"/></g><g><path d="M16,7.482c0,-0.553 -0.448,-1 -1,-1c-0.552,0 -1,0.447 -1,1c0,0.17 0,0.347 0,0.518c0,0.552 0.448,1 1,1c0.552,0 1,-0.448 1,-1c0,-0.171 0,-0.348 0,-0.518Z" style="fill:#fff;"/><path d="M18,7.482c0,-0.553 -0.448,-1 -1,-1c-0.552,0 -1,0.447 -1,1c0,0.17 0,0.347 0,0.518c0,0.552 0.448,1 1,1c0.552,0 1,-0.448 1,-1c0,-0.171 0,-0.348 0,-0.518Z" style="fill:#fff;"/></g><g><path d="M9,19c0,-0.552 -0.448,-1 -1,-1c-0.552,0 -1,0.448 -1,1c0,0.322 0,0.678 0,1c0,0.552 0.448,1 1,1c0.552,0 1,-0.448 1,-1c0,-0.322 0,-0.678 0,-1Z" style="fill:#fff;"/><path d="M10,19.5c0,-0.552 -0.448,-1 -1,-1c-0.552,0 -1,0.448 -1,1c0,0.322 0,0.678 0,1c0,0.552 0.448,1 1,1c0.552,0 1,-0.448 1,-1c0,-0.322 0,-0.678 0,-1Z" style="fill:#fff;"/></g><g><path d="M23,19c0,-0.552 0.448,-1 1,-1c0.552,0 1,0.448 1,1c0,0.322 0,0.678 0,1c0,0.552 -0.448,1 -1,1c-0.552,0 -1,-0.448 -1,-1c0,-0.322 0,-0.678 0,-1Z" style="fill:#fff;"/><path d="M22,19.5c0,-0.552 0.448,-1 1,-1c0.552,0 1,0.448 1,1c0,0.322 0,0.678 0,1c0,0.552 -0.448,1 -1,1c-0.552,0 -1,-0.448 -1,-1c0,-0.322 0,-0.678 0,-1Z" style="fill:#fff;"/></g><path d="M28,13c0.552,0 1,0.448 1,1c0,0.322 0,0.678 0,1c0,0.552 -0.448,1 -1,1c-0.552,0 -1,-0.448 -1,-1c0,-0.322 0,-0.678 0,-1c0,-0.552 0.448,-1 1,-1c0,0 0,0 0,0Z" style="fill:#fff;"/><path d="M4,13c0.552,0 1,0.448 1,1c0,0.322 0,0.678 0,1c0,0.552 -0.448,1 -1,1c-0.552,0 -1,-0.448 -1,-1c0,-0.322 0,-0.678 0,-1c0,-0.552 0.448,-1 1,-1c0,0 0,0 0,0Z" style="fill:#fff;"/><path d="M19,28c0,-0.552 0.448,-1 1,-1c0.322,0 0.678,0 1,0c0.552,0 1,0.448 1,1c0,0.552 -0.448,1 -1,1c-0.322,0 -0.678,0 -1,0c-0.552,0 -1,-0.448 -1,-1c0,0 0,0 0,0Z" style="fill:#fff;"/><path d="M24,7c0,-0.552 0.448,-1 1,-1c0.322,0 0.678,0 1,0c0.552,0 1,0.448 1,1c0,0.552 -0.448,1 -1,1c-0.322,0 -0.678,0 -1,0c-0.552,0 -1,-0.448 -1,-1c0,0 0,0 0,0Z" style="fill:#fff;"/><path d="M5,7c0,-0.552 0.448,-1 1,-1c0.322,0 0.678,0 1,0c0.552,0 1,0.448 1,1c0,0.552 -0.448,1 -1,1c-0.322,0 -0.678,0 -1,0c-0.552,0 -1,-0.448 -1,-1c0,0 0,0 0,0Z" style="fill:#fff;"/><path d="M10,28c0,-0.552 0.448,-1 1,-1c0.322,0 0.678,0 1,0c0.552,0 1,0.448 1,1c0,0.552 -0.448,1 -1,1c-0.322,0 -0.678,0 -1,0c-0.552,0 -1,-0.448 -1,-1c0,0 0,0 0,0Z" style="fill:#fff;"/></g></g><path d="M15,25.858l-8.417,-1.295l-2.207,-1.274c-0.31,-0.179 -0.5,-0.509 -0.5,-0.866l0,-3.766l2.844,-6.259l-2.844,-1.706l0,-1.115c0,-0.357 0.19,-0.687 0.5,-0.866l0.044,-0.025l3.31,1.986l4.885,-6.718l2.885,-1.665c0.309,-0.179 0.691,-0.179 1,0l2.885,1.665l4.885,6.718l3.31,-1.986l0.044,0.025c0.31,0.179 0.5,0.509 0.5,0.866l0,1.115l-2.844,1.706l2.844,6.259l0,3.766c0,0.357 -0.19,0.687 -0.5,0.866l-2.207,1.274l-8.417,1.295l0,3.565l-0.5,0.288c-0.309,0.179 -0.691,0.179 -1,0l-0.5,-0.288l0,-3.565m-0.985,-2.175l-5.882,-9.559l-3.677,8.088l9.559,1.471m3.97,0l9.558,-1.471l-3.676,-8.088l-5.882,9.559m-1.985,-0.591l6.21,-10.092l-12.42,0l6.21,10.092m-6.03,-12.1l12.023,-0.051l-5.993,-8.241l-6.03,8.292Z" style="fill:#b51c7f;"/></g></svg>