<?xml version="1.0" encoding="UTF-8" standalone="no"?><!DOCTYPE svg PUBLIC "-//W3C//DTD SVG 1.1//EN" "http://www.w3.org/Graphics/SVG/1.1/DTD/svg11.dtd"><svg width="100%" height="100%" viewBox="0 0 32 32" version="1.1" xmlns="http://www.w3.org/2000/svg" xmlns:xlink="http://www.w3.org/1999/xlink" xml:space="preserve" style="fill-rule:evenodd;clip-rule:evenodd;stroke-linejoin:round;stroke-miterlimit:1.41421;">
<metadata>
<rdf:RDF xmlns:cc="http://web.resource.org/cc/"
         xmlns:rdf="http://www.w3.org/1999/02/22-rdf-syntax-ns#"
         xmlns:dc = "http://purl.org/dc/elements/1.1/"
         >

     <rdf:Description rdf:about="">
       <dc:title>Mutant Standard emoji v0.2.3</dc:title>
     </rdf:Description>

    <cc:work rdf:about="">
        <cc:license rdf:resource="http://creativecommons.org/licenses/by-nc-sa/4.0/"/>
        <cc:attributionName>Dzuk</cc:attributionName>
        <cc:attributionURL>http://mutant.tech/</cc:attributionURL>
    </cc:work>

</rdf:RDF>
</metadata>
<rect id="d4" x="0" y="0" width="32" height="32" style="fill:none;"/><g id="outline"><path d="M16.1,1.986c0.197,0.01 0.392,0.032 0.585,0.078c0.536,0.125 1.033,0.4 1.425,0.787c0.164,0.163 0.304,0.344 0.43,0.537c4.221,6.97 8.213,14.076 12.319,21.115c0.207,0.37 0.342,0.773 0.385,1.196c0.029,0.29 0.016,0.585 -0.04,0.872c-0.1,0.52 -0.341,1.01 -0.69,1.408c-0.258,0.294 -0.573,0.536 -0.924,0.71c-0.263,0.13 -0.545,0.222 -0.835,0.27c-0.131,0.022 -0.263,0.033 -0.396,0.04c-8.21,0.137 -16.423,0.001 -24.635,0.001c-0.391,-0.007 -0.776,-0.08 -1.138,-0.231c-0.421,-0.175 -0.799,-0.447 -1.1,-0.79c-0.328,-0.373 -0.56,-0.828 -0.67,-1.312c-0.065,-0.285 -0.088,-0.58 -0.068,-0.871c0.02,-0.294 0.083,-0.584 0.187,-0.859c0.047,-0.124 0.104,-0.243 0.165,-0.361c3.988,-7.107 8.211,-14.078 12.317,-21.117c0.1,-0.165 0.211,-0.321 0.339,-0.465c0.343,-0.388 0.788,-0.683 1.278,-0.85c0.249,-0.085 0.506,-0.131 0.767,-0.153c0.1,-0.005 0.199,-0.007 0.299,-0.005Z" style="fill-rule:nonzero;"/></g><g id="emoji"><path d="M15.246,4.328l0.754,0.672l5,21l-1.22,1l-16.039,0c-0.358,0 -0.689,-0.191 -0.867,-0.502c-0.178,-0.31 -0.177,-0.693 0.003,-1.002c2.52,-4.319 9.757,-16.725 12.259,-21.015c0.032,-0.055 0.069,-0.106 0.11,-0.153Zm2.306,1.332l11.571,19.836c0.18,0.309 0.181,0.692 0.003,1.002c-0.178,0.311 -0.509,0.502 -0.867,0.502l-6.439,0l-1.82,-1l-4,-19l1.552,-1.34Z" style="fill:#d72d35;"/><clipPath id="_clip1"><path d="M15.246,4.328l0.754,0.672l5,21l-1.22,1l-16.039,0c-0.358,0 -0.689,-0.191 -0.867,-0.502c-0.178,-0.31 -0.177,-0.693 0.003,-1.002c2.52,-4.319 9.757,-16.725 12.259,-21.015c0.032,-0.055 0.069,-0.106 0.11,-0.153Zm2.306,1.332l11.571,19.836c0.18,0.309 0.181,0.692 0.003,1.002c-0.178,0.311 -0.509,0.502 -0.867,0.502l-6.439,0l-1.82,-1l-4,-19l1.552,-1.34Z"/></clipPath><g clip-path="url(#_clip1)"><g><path d="M18,23c0,-0.552 -0.448,-1 -1,-1c-0.552,0 -1,0.448 -1,1c0,0.611 0,1.389 0,2c0,0.552 0.448,1 1,1c0.552,0 1,-0.448 1,-1c0,-0.611 0,-1.389 0,-2Z" style="fill:#fff;"/><path d="M7,23c0,-0.552 -0.448,-1 -1,-1c-0.552,0 -1,0.448 -1,1c0,0.611 0,1.389 0,2c0,0.552 0.448,1 1,1c0.552,0 1,-0.448 1,-1c0,-0.611 0,-1.389 0,-2Z" style="fill:#fff;"/><path d="M15,9c0,-0.552 -0.448,-1 -1,-1c-0.552,0 -1,0.448 -1,1c0,0.611 0,1.389 0,2c0,0.552 0.448,1 1,1c0.552,0 1,-0.448 1,-1c0,-0.611 0,-1.389 0,-2Z" style="fill:#fff;"/><path d="M21,9c0,-0.552 -0.448,-1 -1,-1c-0.552,0 -1,0.448 -1,1c0,0.611 0,1.389 0,2c0,0.552 0.448,1 1,1c0.552,0 1,-0.448 1,-1c0,-0.611 0,-1.389 0,-2Z" style="fill:#fff;"/><path d="M24,23c0,-0.552 -0.448,-1 -1,-1c-0.552,0 -1,0.448 -1,1c0,0.611 0,1.389 0,2c0,0.552 0.448,1 1,1c0.552,0 1,-0.448 1,-1c0,-0.611 0,-1.389 0,-2Z" style="fill:#fff;"/><path d="M29,23c0,-0.552 -0.448,-1 -1,-1c-0.552,0 -1,0.448 -1,1c0,0.611 0,1.389 0,2c0,0.552 0.448,1 1,1c0.552,0 1,-0.448 1,-1c0,-0.611 0,-1.389 0,-2Z" style="fill:#fff;"/></g></g><path d="M15.246,4.328c0.188,-0.216 0.462,-0.343 0.754,-0.343c0.356,0 0.685,0.189 0.864,0.496l0.688,1.179l4.268,21.34l-2.04,0l-4.534,-22.672Z" style="fill:#891a20;"/></g></svg>