<?xml version="1.0" encoding="UTF-8" standalone="no"?><!DOCTYPE svg PUBLIC "-//W3C//DTD SVG 1.1//EN" "http://www.w3.org/Graphics/SVG/1.1/DTD/svg11.dtd"><svg width="100%" height="100%" viewBox="0 0 32 32" version="1.1" xmlns="http://www.w3.org/2000/svg" xmlns:xlink="http://www.w3.org/1999/xlink" xml:space="preserve" xmlns:serif="http://www.serif.com/" style="fill-rule:evenodd;clip-rule:evenodd;stroke-linejoin:round;stroke-miterlimit:1.41421;">
<metadata>
<rdf:RDF xmlns:cc="http://web.resource.org/cc/"
         xmlns:rdf="http://www.w3.org/1999/02/22-rdf-syntax-ns#"
         xmlns:dc = "http://purl.org/dc/elements/1.1/"
         >

     <rdf:Description rdf:about="">
       <dc:title>Mutant Standard emoji v0.2.3</dc:title>
     </rdf:Description>

    <cc:work rdf:about="">
        <cc:license rdf:resource="http://creativecommons.org/licenses/by-nc-sa/4.0/"/>
        <cc:attributionName>Dzuk</cc:attributionName>
        <cc:attributionURL>http://mutant.tech/</cc:attributionURL>
    </cc:work>

</rdf:RDF>
</metadata>
<rect id="d8" x="0" y="0" width="32" height="32" style="fill:none;"/><g id="outline"><path d="M16.143,1.417c0.193,0.014 0.381,0.036 0.569,0.082c0.383,0.094 0.747,0.263 1.064,0.497c0.117,0.085 0.223,0.18 0.327,0.279l11.622,11.621c0.086,0.091 0.104,0.107 0.187,0.208c0.158,0.194 0.291,0.407 0.396,0.633c0.369,0.794 0.368,1.732 0,2.526c-0.105,0.227 -0.239,0.44 -0.396,0.633c-0.082,0.1 -0.102,0.118 -0.187,0.207l-11.622,11.622c-0.089,0.085 -0.107,0.105 -0.207,0.187c-0.193,0.157 -0.406,0.291 -0.632,0.396c-0.795,0.369 -1.733,0.369 -2.528,0c-0.226,-0.105 -0.439,-0.239 -0.632,-0.396c-0.1,-0.082 -0.118,-0.102 -0.208,-0.187l-11.621,-11.622c-0.085,-0.089 -0.105,-0.107 -0.187,-0.207c-0.157,-0.193 -0.291,-0.406 -0.396,-0.633c-0.368,-0.794 -0.369,-1.732 0,-2.526c0.105,-0.226 0.238,-0.439 0.396,-0.633c0.083,-0.101 0.101,-0.117 0.187,-0.208l11.622,-11.621c0.104,-0.099 0.21,-0.194 0.327,-0.279c0.317,-0.234 0.681,-0.403 1.064,-0.497c0.188,-0.046 0.376,-0.068 0.569,-0.082c0.143,-0.003 0.142,-0.003 0.286,0Z" style="fill-rule:nonzero;"/></g><g id="emoji"><path d="M20,16l-4,12l-0.791,0.209l-11.209,-11.209l0,-1l16,0Zm-2.419,11.419l-1.581,0.581l4,-12l8,0l0,1l-10.419,10.419Zm2.419,-11.419l-3,-11l0.581,-0.419l10.419,10.419l0,1l-8,0Zm0,0l-16,0l0,-1l11.209,-11.209l1.791,1.209l3,11Z" style="fill:#1fbb63;"/><clipPath id="_clip1"><path d="M20,16l-4,12l-0.791,0.209l-11.209,-11.209l0,-1l16,0Zm-2.419,11.419l-1.581,0.581l4,-12l8,0l0,1l-10.419,10.419Zm2.419,-11.419l-3,-11l0.581,-0.419l10.419,10.419l0,1l-8,0Zm0,0l-16,0l0,-1l11.209,-11.209l1.791,1.209l3,11Z"/></clipPath><g clip-path="url(#_clip1)"><path d="M13,10c0,-0.552 -0.448,-1 -1,-1c-0.552,0 -1,0.448 -1,1c0,0.611 0,1.389 0,2c0,0.552 0.448,1 1,1c0.552,0 1,-0.448 1,-1c0,-0.611 0,-1.389 0,-2Z" style="fill:#fff;"/><path d="M13,20c0,-0.552 -0.448,-1 -1,-1c-0.552,0 -1,0.448 -1,1c0,0.611 0,1.389 0,2c0,0.552 0.448,1 1,1c0.552,0 1,-0.448 1,-1c0,-0.611 0,-1.389 0,-2Z" style="fill:#fff;"/><path d="M25,20c0,-0.552 -0.448,-1 -1,-1c-0.552,0 -1,0.448 -1,1c0,0.611 0,1.389 0,2c0,0.552 0.448,1 1,1c0.552,0 1,-0.448 1,-1c0,-0.611 0,-1.389 0,-2Z" style="fill:#fff;"/><path d="M25,10c0,-0.552 -0.448,-1 -1,-1c-0.552,0 -1,0.448 -1,1c0,0.611 0,1.389 0,2c0,0.552 0.448,1 1,1c0.552,0 1,-0.448 1,-1c0,-0.611 0,-1.389 0,-2Z" style="fill:#fff;"/></g><path d="M15.209,3.791l0.084,-0.084c0.39,-0.39 1.024,-0.39 1.414,0l0.874,0.874l3.473,10.419l6.946,0l0.293,0.293c0.39,0.39 0.39,1.024 0,1.414l-0.293,0.293l-6.948,0l-3.471,10.419l-0.874,0.874c-0.39,0.39 -1.024,0.39 -1.414,0l-0.084,-0.084l3.735,-11.209l-14.944,0l-0.293,-0.293c-0.39,-0.39 -0.39,-1.024 0,-1.414l0.293,-0.293l14.946,0l-3.737,-11.209Z" style="fill:#198040;"/></g></svg>