<?xml version="1.0" encoding="UTF-8" standalone="no"?><!DOCTYPE svg PUBLIC "-//W3C//DTD SVG 1.1//EN" "http://www.w3.org/Graphics/SVG/1.1/DTD/svg11.dtd"><svg width="100%" height="100%" viewBox="0 0 32 32" version="1.1" xmlns="http://www.w3.org/2000/svg" xmlns:xlink="http://www.w3.org/1999/xlink" xml:space="preserve" style="fill-rule:evenodd;clip-rule:evenodd;stroke-linecap:round;stroke-linejoin:round;stroke-miterlimit:1.5;">
<metadata>
<rdf:RDF xmlns:cc="http://web.resource.org/cc/"
         xmlns:rdf="http://www.w3.org/1999/02/22-rdf-syntax-ns#"
         xmlns:dc = "http://purl.org/dc/elements/1.1/"
         >

     <rdf:Description rdf:about="">
       <dc:title>Mutant Standard emoji v0.2.3</dc:title>
     </rdf:Description>

    <cc:work rdf:about="">
        <cc:license rdf:resource="http://creativecommons.org/licenses/by-nc-sa/4.0/"/>
        <cc:attributionName>Dzuk</cc:attributionName>
        <cc:attributionURL>http://mutant.tech/</cc:attributionURL>
    </cc:work>

</rdf:RDF>
</metadata>
<rect id="arms_in_the_air" x="0" y="0" width="32" height="32" style="fill:none;"/><g id="outline"><path d="M14.047,7.277c-0.024,-0.021 -0.048,-0.042 -0.071,-0.063c-0.289,-0.264 -0.525,-0.584 -0.691,-0.938c-0.181,-0.385 -0.274,-0.802 -0.285,-1.227c-0.005,-0.716 -0.016,-1.431 0.002,-2.147c0.012,-0.31 0.067,-0.615 0.172,-0.908c0.28,-0.787 0.891,-1.434 1.661,-1.759c0.301,-0.127 0.62,-0.2 0.945,-0.227c0.098,-0.006 0.195,-0.009 0.293,-0.007c0.327,0.011 0.649,0.069 0.956,0.181c0.816,0.298 1.476,0.952 1.781,1.766c0.12,0.322 0.181,0.66 0.19,1.003c0.005,0.716 0.016,1.431 -0.002,2.147c-0.015,0.375 -0.094,0.744 -0.243,1.089c-0.18,0.419 -0.456,0.794 -0.802,1.09c0.153,0.044 0.304,0.093 0.454,0.148c0.638,0.234 1.24,0.561 1.784,0.968c-0.133,-0.101 -0.258,-0.212 -0.372,-0.334c-0.23,-0.242 -0.418,-0.523 -0.555,-0.828c-0.151,-0.336 -0.239,-0.699 -0.26,-1.067c-0.021,-0.391 0.035,-0.785 0.164,-1.155c0.138,-0.392 0.357,-0.75 0.639,-1.056c0.379,-0.401 0.766,-0.796 1.172,-1.17c0.154,-0.139 0.32,-0.263 0.499,-0.368c0.448,-0.264 0.959,-0.404 1.479,-0.415c0.035,0 0.034,0 0.069,0c0.392,0.006 0.78,0.084 1.142,0.237c0.318,0.134 0.612,0.324 0.866,0.558c0.45,0.415 0.766,0.965 0.896,1.563c0.072,0.326 0.088,0.664 0.049,0.995c-0.034,0.286 -0.109,0.566 -0.222,0.831c-0.146,0.339 -0.355,0.647 -0.611,0.913c-0.372,0.376 -0.736,0.761 -1.125,1.12c-0.274,0.247 -0.589,0.445 -0.933,0.579c-0.257,0.1 -0.529,0.164 -0.804,0.19c-0.458,0.044 -0.926,-0.019 -1.356,-0.184c-0.258,-0.099 -0.502,-0.234 -0.724,-0.399c0.174,0.131 0.342,0.269 0.503,0.416c0.707,0.642 1.28,1.429 1.674,2.299c0.261,0.578 0.443,1.191 0.538,1.818c0.021,0.133 0.037,0.266 0.049,0.4c0.665,-1.519 1.369,-3.268 2.678,-6.215l0.055,-0.115c0.064,-0.119 0.079,-0.152 0.151,-0.264c0.082,-0.128 0.174,-0.249 0.274,-0.362c0.401,-0.457 0.941,-0.784 1.531,-0.93c0.147,-0.037 0.297,-0.062 0.448,-0.076c0.133,-0.012 0.167,-0.01 0.301,-0.012c0.05,0.002 0.1,0.003 0.15,0.005c0.134,0.011 0.167,0.012 0.3,0.033c0.199,0.032 0.395,0.085 0.584,0.156c0.2,0.076 0.389,0.178 0.58,0.274l0.103,0.054c0.107,0.063 0.133,0.076 0.235,0.146c0.187,0.128 0.359,0.278 0.512,0.446c0.543,0.592 0.83,1.395 0.784,2.197c-0.015,0.268 -0.07,0.529 -0.152,0.785l-6.502,18.877l0,3.665l-18,0l0,-3.665l-6.502,-18.877c-0.082,-0.257 -0.137,-0.517 -0.152,-0.786c-0.045,-0.802 0.241,-1.605 0.783,-2.196c0.154,-0.168 0.326,-0.317 0.513,-0.446c0.102,-0.07 0.128,-0.083 0.235,-0.146c0.209,-0.111 0.21,-0.108 0.427,-0.216c0.111,-0.053 0.135,-0.066 0.256,-0.112c0.236,-0.089 0.483,-0.149 0.734,-0.176c0.452,-0.05 0.913,0.004 1.342,0.158c0.428,0.154 0.819,0.405 1.136,0.731c0.176,0.181 0.329,0.383 0.454,0.602c0.064,0.112 0.074,0.138 0.127,0.249l2.696,6.066c0.064,-0.543 0.187,-1.077 0.376,-1.593c0.272,-0.742 0.671,-1.437 1.174,-2.047c0.68,-0.823 1.547,-1.487 2.519,-1.927c0.301,-0.136 0.612,-0.25 0.929,-0.342Zm-5.004,-5.277c0.543,0.011 1.076,0.164 1.538,0.451c0.187,0.115 0.358,0.251 0.516,0.403c0.376,0.372 0.761,0.736 1.12,1.125c0.278,0.308 0.493,0.669 0.626,1.063c0.125,0.371 0.176,0.766 0.15,1.156c-0.024,0.368 -0.117,0.73 -0.272,1.065c-0.14,0.302 -0.331,0.581 -0.563,0.821c-0.312,0.323 -0.697,0.574 -1.118,0.73c-0.433,0.16 -0.901,0.218 -1.359,0.169c-0.274,-0.029 -0.545,-0.097 -0.801,-0.2c-0.343,-0.138 -0.655,-0.339 -0.927,-0.59c-0.401,-0.379 -0.796,-0.766 -1.17,-1.172c-0.262,-0.291 -0.469,-0.628 -0.603,-0.998c-0.114,-0.313 -0.175,-0.646 -0.18,-0.98c-0.013,-0.893 0.385,-1.764 1.069,-2.339c0.212,-0.178 0.448,-0.326 0.7,-0.44c0.337,-0.151 0.699,-0.237 1.067,-0.26c0.069,-0.003 0.138,-0.004 0.207,-0.004Z"/></g><g id="emoji"><path d="M5.558,18l-3.158,-9.172c-0.163,-0.474 0.05,-0.995 0.498,-1.22c0.092,-0.046 0.187,-0.093 0.281,-0.14c0.244,-0.122 0.528,-0.139 0.785,-0.047c0.257,0.093 0.465,0.286 0.576,0.536l4.46,10.043l-1,1l-2.442,-1Zm17.442,0l4.464,-10.044c0.111,-0.249 0.319,-0.443 0.576,-0.535c0.257,-0.092 0.541,-0.075 0.785,0.047c0.094,0.047 0.188,0.094 0.28,0.14c0.449,0.224 0.662,0.746 0.499,1.22l-3.16,9.172l-2.444,1l-1,-1Z" style="fill:#D9A6C6;"/><path d="M23,30l-14,0l0,-2l-3.442,-10l3.442,0l3,5l0.536,0l3.464,0.185l3.464,-0.185l0.536,0l3,-5l3.444,0l-3.444,10l0,2Z" style="fill:#999999;"/><path d="M19.464,23c-0.692,1.195 -1.985,2 -3.464,2c-1.479,0 -2.772,-0.805 -3.464,-2l6.928,0Z" style="fill:#D9A6C6;"/><path d="M21,14c0,-2.761 -2.239,-5 -5,-5c0,0 0,0 0,0c-2.761,0 -5,2.239 -5,5c0,0.661 0,1.339 0,2c0,2.761 2.239,5 5,5c0,0 0,0 0,0c2.761,0 5,-2.239 5,-5c0,-0.661 0,-1.339 0,-2Z" style="fill:#D9A6C6;"/><path d="M19,14l0,1" style="fill:none;stroke:#000;stroke-width:2px;"/><path d="M13,14l0,1" style="fill:none;stroke:#000;stroke-width:2px;"/><path d="M16,5l0,-2" style="stroke:#fff;stroke-width:2px;"/><path d="M22,6l1,-1" style="stroke:#fff;stroke-width:2px;"/><path d="M10,6l-1,-1" style="stroke:#fff;stroke-width:2px;"/></g></svg>