<?xml version="1.0" encoding="UTF-8" standalone="no"?><!DOCTYPE svg PUBLIC "-//W3C//DTD SVG 1.1//EN" "http://www.w3.org/Graphics/SVG/1.1/DTD/svg11.dtd"><svg width="100%" height="100%" viewBox="0 0 32 32" version="1.1" xmlns="http://www.w3.org/2000/svg" xmlns:xlink="http://www.w3.org/1999/xlink" xml:space="preserve" style="fill-rule:evenodd;clip-rule:evenodd;stroke-linejoin:round;stroke-miterlimit:1.41421;">
<metadata>
<rdf:RDF xmlns:cc="http://web.resource.org/cc/"
         xmlns:rdf="http://www.w3.org/1999/02/22-rdf-syntax-ns#"
         xmlns:dc = "http://purl.org/dc/elements/1.1/"
         >

     <rdf:Description rdf:about="">
       <dc:title>Mutant Standard emoji v0.2.3</dc:title>
     </rdf:Description>

    <cc:work rdf:about="">
        <cc:license rdf:resource="http://creativecommons.org/licenses/by-nc-sa/4.0/"/>
        <cc:attributionName>Dzuk</cc:attributionName>
        <cc:attributionURL>http://mutant.tech/</cc:attributionURL>
    </cc:work>

</rdf:RDF>
</metadata>
<rect id="ok_gesture" x="0" y="0" width="32" height="32" style="fill:none;"/><g id="outline"><path d="M25,32l-18,0l0,-4.6l-4.658,-11.178c-0.074,-0.188 -0.134,-0.38 -0.172,-0.578c-0.092,-0.486 -0.063,-0.992 0.086,-1.463c0.069,-0.221 0.165,-0.43 0.281,-0.63l6.203,-10.339l6.062,-1.212l2.396,0l6.062,1.212l6.203,10.339c0.041,0.07 0.04,0.07 0.079,0.142c0.106,0.21 0.193,0.427 0.25,0.656c0.114,0.451 0.121,0.927 0.02,1.381c-0.037,0.168 -0.09,0.332 -0.154,0.492l-4.658,11.178l0,4.6Zm-5.164,-22.856l-0.327,-0.653l-3.509,-1.755c-1.17,0.585 -2.34,1.17 -3.509,1.755l-0.327,0.653c0.304,-0.199 0.623,-0.375 0.954,-0.525c0.578,-0.261 1.192,-0.443 1.818,-0.538c0.293,-0.045 0.588,-0.069 0.884,-0.079c0.09,-0.001 0.18,-0.002 0.27,-0.001c0.848,0.016 1.694,0.171 2.483,0.487c0.442,0.178 0.865,0.396 1.263,0.656Z"/></g><g id="emoji"><path d="M15,4l0,1l-4,2l-4,8l5,9l8,0l5,-9l-4,-8l-4,-2l0,-1l5,1c0,0 4.588,7.647 5.74,9.567c0.164,0.272 0.188,0.606 0.066,0.899c-0.921,2.211 -4.806,11.534 -4.806,11.534l0,3l-14,0l0,-3c0,0 -3.885,-9.323 -4.806,-11.534c-0.122,-0.293 -0.098,-0.627 0.066,-0.899c1.152,-1.92 5.74,-9.567 5.74,-9.567l5,-1Z" style="fill:#999999;"/><clipPath id="_clip1"><path d="M15,4l0,1l-4,2l-4,8l5,9l8,0l5,-9l-4,-8l-4,-2l0,-1l5,1c0,0 4.588,7.647 5.74,9.567c0.164,0.272 0.188,0.606 0.066,0.899c-0.921,2.211 -4.806,11.534 -4.806,11.534l0,3l-14,0l0,-3c0,0 -3.885,-9.323 -4.806,-11.534c-0.122,-0.293 -0.098,-0.627 0.066,-0.899c1.152,-1.92 5.74,-9.567 5.74,-9.567l5,-1Z"/></clipPath><g clip-path="url(#_clip1)"><path d="M16,17.913c2.208,0 4,1.792 4,4c0,2.207 -1.792,4 -4,4c-2.208,0 -4,-1.793 -4,-4c0,-2.208 1.792,-4 4,-4Zm12.5,-15.913l0,13l-25.5,0l0,-13l25.5,0Z" style="fill:#F9D8C8;"/></g><path d="M21,15c0,-2.761 -2.239,-5 -5,-5c0,0 0,0 0,0c-2.761,0 -5,2.239 -5,5c0,0.661 0,1.339 0,2c0,2.761 2.239,5 5,5c0,0 0,0 0,0c2.761,0 5,-2.239 5,-5c0,-0.661 0,-1.339 0,-2Z" style="fill:#F9D8C8;"/><clipPath id="_clip2"><path d="M21,15c0,-2.761 -2.239,-5 -5,-5c0,0 0,0 0,0c-2.761,0 -5,2.239 -5,5c0,0.661 0,1.339 0,2c0,2.761 2.239,5 5,5c0,0 0,0 0,0c2.761,0 5,-2.239 5,-5c0,-0.661 0,-1.339 0,-2Z"/></clipPath><g clip-path="url(#_clip2)"><path d="M19.02,14c0.113,0.004 0.224,0.024 0.33,0.063c0.276,0.103 0.496,0.328 0.593,0.605c0.036,0.101 0.054,0.206 0.057,0.312c0.003,0.366 0.022,0.734 -0.003,1.099c-0.013,0.14 -0.051,0.275 -0.118,0.398c-0.06,0.111 -0.141,0.21 -0.238,0.29c-0.092,0.077 -0.197,0.137 -0.309,0.176c-0.107,0.038 -0.219,0.057 -0.332,0.057c-0.391,0 -0.755,-0.237 -0.914,-0.594c-0.054,-0.122 -0.082,-0.253 -0.086,-0.386c-0.003,-0.366 -0.022,-0.734 0.003,-1.099c0.009,-0.1 0.031,-0.197 0.068,-0.29c0.095,-0.242 0.286,-0.44 0.523,-0.545c0.098,-0.043 0.201,-0.069 0.307,-0.081c0.039,-0.004 0.079,-0.005 0.119,-0.005Zm-6,0c0.113,0.004 0.224,0.024 0.33,0.063c0.276,0.103 0.496,0.328 0.593,0.605c0.036,0.101 0.054,0.206 0.057,0.312c0.003,0.366 0.022,0.734 -0.003,1.099c-0.013,0.14 -0.051,0.275 -0.118,0.398c-0.06,0.111 -0.141,0.21 -0.238,0.29c-0.092,0.077 -0.197,0.137 -0.309,0.176c-0.107,0.038 -0.219,0.057 -0.332,0.057c-0.391,0 -0.755,-0.237 -0.914,-0.594c-0.054,-0.122 -0.082,-0.253 -0.086,-0.386c-0.003,-0.366 -0.022,-0.734 0.003,-1.099c0.01,-0.106 0.034,-0.21 0.075,-0.308c0.101,-0.24 0.295,-0.434 0.535,-0.535c0.092,-0.039 0.189,-0.062 0.288,-0.073c0.039,-0.004 0.079,-0.005 0.119,-0.005Z"/></g></g></svg>