<?xml version="1.0" encoding="UTF-8" standalone="no"?><!DOCTYPE svg PUBLIC "-//W3C//DTD SVG 1.1//EN" "http://www.w3.org/Graphics/SVG/1.1/DTD/svg11.dtd"><svg width="100%" height="100%" viewBox="0 0 32 32" version="1.1" xmlns="http://www.w3.org/2000/svg" xmlns:xlink="http://www.w3.org/1999/xlink" xml:space="preserve" xmlns:serif="http://www.serif.com/" style="fill-rule:evenodd;clip-rule:evenodd;stroke-linejoin:round;stroke-miterlimit:1.41421;">
<metadata>
<rdf:RDF xmlns:cc="http://web.resource.org/cc/"
         xmlns:rdf="http://www.w3.org/1999/02/22-rdf-syntax-ns#"
         xmlns:dc = "http://purl.org/dc/elements/1.1/"
         >

     <rdf:Description rdf:about="">
       <dc:title>Mutant Standard emoji v0.2.3</dc:title>
     </rdf:Description>

    <cc:work rdf:about="">
        <cc:license rdf:resource="http://creativecommons.org/licenses/by-nc-sa/4.0/"/>
        <cc:attributionName>Dzuk</cc:attributionName>
        <cc:attributionURL>http://mutant.tech/</cc:attributionURL>
    </cc:work>

</rdf:RDF>
</metadata>
<rect id="ghost" x="0" y="0" width="32" height="32" style="fill:none;"/><clipPath id="_clip1"><rect x="0" y="0" width="32" height="32"/></clipPath><g clip-path="url(#_clip1)"><g id="outline"><path d="M5.561,6.731c0.326,-0.87 0.79,-1.687 1.37,-2.413c0.197,-0.247 0.407,-0.486 0.631,-0.709c0.292,-0.29 0.599,-0.563 0.927,-0.812c0.745,-0.565 1.58,-1.011 2.464,-1.316c0.614,-0.211 1.25,-0.354 1.895,-0.426c0.289,-0.033 0.579,-0.049 0.871,-0.054c1.521,-0.01 3.041,-0.01 4.562,0c0.292,0.005 0.582,0.021 0.871,0.054c0.645,0.072 1.281,0.215 1.895,0.426c0.884,0.305 1.719,0.751 2.464,1.316c0.328,0.249 0.635,0.522 0.927,0.812c0.224,0.223 0.434,0.462 0.631,0.709c0.58,0.726 1.044,1.544 1.37,2.414c0.362,-0.366 0.728,-0.727 1.091,-1.091c0.091,-0.087 0.184,-0.169 0.285,-0.243c0.258,-0.191 0.552,-0.333 0.861,-0.419c0.185,-0.05 0.372,-0.077 0.563,-0.09c0.097,-0.004 0.096,-0.004 0.193,-0.003c0.293,0.012 0.579,0.061 0.855,0.163c0.699,0.259 1.265,0.816 1.535,1.511c0.107,0.274 0.16,0.559 0.177,0.853c0.023,1.304 0.001,2.609 0.001,3.913c-0.003,0.281 -0.015,0.56 -0.045,0.839c-0.059,0.554 -0.176,1.101 -0.348,1.63c-0.305,0.934 -0.783,1.809 -1.403,2.571c-0.586,0.72 -1.298,1.337 -2.094,1.814c-0.479,0.286 -0.988,0.523 -1.516,0.703c-0.212,0.073 -0.427,0.134 -0.643,0.191l-1.136,0.284c-0.56,1.517 -1.12,3.034 -1.656,4.56c-0.054,0.166 -0.097,0.334 -0.124,0.507c-0.024,0.155 -0.033,0.31 -0.035,0.467l0,5.527l-1.704,0.706l-2.985,-2.986l-1.907,2.861l-0.808,0l-1.907,-2.861l-2.985,2.986l-1.704,-0.706c0,-1.868 0.02,-3.736 -0.001,-5.604c-0.01,-0.307 -0.062,-0.605 -0.158,-0.897c-0.535,-1.524 -1.087,-3.041 -1.642,-4.557l-1.15,-0.287l-0.155,-0.041c-0.218,-0.062 -0.435,-0.128 -0.648,-0.206c-0.523,-0.192 -1.025,-0.438 -1.497,-0.734c-0.786,-0.493 -1.484,-1.123 -2.055,-1.854c-0.605,-0.775 -1.065,-1.661 -1.35,-2.601c-0.146,-0.48 -0.246,-0.974 -0.299,-1.473c-0.024,-0.226 -0.036,-0.452 -0.043,-0.678c-0.014,-1.332 -0.002,-2.663 -0.002,-3.995c0.007,-0.352 0.075,-0.697 0.215,-1.022c0.296,-0.685 0.883,-1.221 1.591,-1.454c0.246,-0.08 0.504,-0.125 0.762,-0.13c0.255,-0.006 0.51,0.026 0.756,0.093c0.278,0.077 0.543,0.2 0.782,0.362c0.108,0.074 0.208,0.157 0.306,0.245c0.39,0.375 0.77,0.76 1.149,1.145Z"/></g><g id="emoji"><path d="M13.828,3c-1.811,0 -3.547,0.719 -4.828,2c0,0 0,0 0,0c-1.281,1.281 -2,3.017 -2,4.828c0,0.754 0,1.523 0,2.115c0,0.699 0.122,1.393 0.361,2.05c0.781,2.148 2.615,7.19 3.338,9.179c0.199,0.548 0.301,1.126 0.301,1.709c0,1.178 0,3.119 0,3.119l3,-3l2,3l2,-3l3,3c0,0 0,-1.941 0,-3.119c0,-0.583 0.102,-1.161 0.301,-1.709c0.723,-1.989 2.557,-7.031 3.338,-9.179c0.239,-0.657 0.361,-1.351 0.361,-2.05c0,-0.592 0,-1.361 0,-2.115c0,-1.811 -0.719,-3.547 -2,-4.828c0,0 0,0 0,0c-1.281,-1.281 -3.017,-2 -4.828,-2c-1.359,0 -2.985,0 -4.344,0Z" style="fill:#f2f2f2;"/><path d="M10,13c0,0 -1.316,0 -2.438,0c-0.918,0 -1.718,-0.625 -1.941,-1.515c-0.117,-0.469 -0.244,-0.977 -0.352,-1.41c-0.176,-0.703 -0.54,-1.346 -1.052,-1.858c-0.351,-0.351 -0.77,-0.77 -1.148,-1.148c-0.179,-0.179 -0.449,-0.233 -0.683,-0.136c-0.233,0.097 -0.386,0.325 -0.386,0.579c0,1.02 0,2.428 0,3.803c0,2.754 1.874,5.153 4.545,5.821c1.803,0.451 3.455,0.864 3.455,0.864l0,-5" style="fill:#f2f2f2;"/><path d="M22,13c0,0 1.316,0 2.438,0c0.918,0 1.718,-0.625 1.941,-1.515c0.117,-0.469 0.244,-0.977 0.352,-1.41c0.176,-0.703 0.54,-1.346 1.052,-1.858c0.351,-0.351 0.77,-0.77 1.148,-1.148c0.179,-0.179 0.449,-0.233 0.683,-0.136c0.233,0.097 0.386,0.325 0.386,0.579c0,1.02 0,2.428 0,3.803c0,2.754 -1.874,5.153 -4.545,5.821c-1.803,0.451 -3.455,0.864 -3.455,0.864l0,-5" style="fill:#f2f2f2;"/><path d="M11.015,7.5l0.028,0.001l0.028,0.002l0.028,0.002l0.028,0.003l0.027,0.004l0.028,0.005l0.028,0.005l0.027,0.006l0.027,0.008l0.027,0.007l0.027,0.009l0.026,0.009l0.026,0.01l0.026,0.011l0.026,0.011l0.025,0.013l2,1l0.025,0.012l0.025,0.014l0.024,0.014l0.024,0.015l0.023,0.016l0.023,0.016l0.022,0.017l0.022,0.018l0.021,0.018l0.021,0.018l0.021,0.02l0.02,0.019l0.019,0.021l0.018,0.021l0.019,0.021l0.017,0.022l0.017,0.023l0.016,0.023l0.016,0.023l0.015,0.024l0.014,0.024l0.013,0.024l0.013,0.025l0.012,0.026l0.012,0.025l0.01,0.026l0.01,0.026l0.01,0.027l0.008,0.027l0.008,0.026l0.007,0.028l0.006,0.027l0.006,0.027l0.004,0.028l0.004,0.028l0.003,0.028l0.003,0.028l0.001,0.028l0.001,0.028l0,0.028l-0.001,0.028l-0.002,0.028l-0.002,0.028l-0.003,0.028l-0.004,0.027l-0.005,0.028l-0.005,0.028l-0.006,0.027l-0.008,0.027l-0.007,0.027l-0.009,0.027l-0.009,0.026l-0.01,0.026l-0.011,0.026l-0.011,0.026l-0.013,0.025l-0.012,0.025l-0.014,0.025l-0.014,0.024l-0.015,0.024l-0.016,0.023l-0.016,0.023l-0.017,0.022l-0.018,0.022l-0.018,0.021l-0.018,0.021l-0.02,0.021l-0.019,0.02l-0.021,0.019l-0.021,0.018l-0.021,0.019l-0.022,0.017l-0.023,0.017l-0.023,0.016l-0.023,0.016l-0.024,0.015l-0.024,0.014l-0.024,0.013l-0.025,0.013l-0.026,0.012l-0.025,0.012l-0.026,0.01l-0.026,0.01l-0.027,0.01l-0.027,0.008l-0.026,0.008l-0.028,0.007l-0.027,0.006l-0.027,0.006l-0.028,0.004l-0.028,0.004l-0.028,0.003l-0.028,0.003l-0.028,0.001l-0.028,0.001l-0.028,0l-0.028,-0.001l-0.028,-0.002l-0.028,-0.002l-0.028,-0.003l-0.027,-0.004l-0.028,-0.005l-0.028,-0.005l-0.027,-0.006l-0.027,-0.008l-0.027,-0.007l-0.027,-0.009l-0.026,-0.009l-0.026,-0.01l-0.026,-0.011l-0.026,-0.011l-0.025,-0.013l-2,-1l-0.025,-0.012l-0.025,-0.014l-0.024,-0.014l-0.024,-0.015l-0.023,-0.016l-0.023,-0.016l-0.022,-0.017l-0.022,-0.018l-0.021,-0.018l-0.021,-0.018l-0.021,-0.02l-0.02,-0.019l-0.019,-0.021l-0.018,-0.021l-0.019,-0.021l-0.017,-0.022l-0.017,-0.023l-0.016,-0.023l-0.016,-0.023l-0.015,-0.024l-0.014,-0.024l-0.013,-0.024l-0.013,-0.025l-0.012,-0.026l-0.012,-0.025l-0.01,-0.026l-0.01,-0.026l-0.01,-0.027l-0.008,-0.027l-0.008,-0.026l-0.007,-0.028l-0.006,-0.027l-0.006,-0.027l-0.004,-0.028l-0.004,-0.028l-0.003,-0.028l-0.003,-0.028l-0.001,-0.028l-0.001,-0.028l0,-0.028l0.001,-0.028l0.002,-0.028l0.002,-0.028l0.003,-0.028l0.004,-0.027l0.005,-0.028l0.005,-0.028l0.006,-0.027l0.008,-0.027l0.007,-0.027l0.009,-0.027l0.009,-0.026l0.01,-0.026l0.011,-0.026l0.011,-0.026l0.013,-0.025l0.012,-0.025l0.014,-0.025l0.014,-0.024l0.015,-0.024l0.016,-0.023l0.016,-0.023l0.017,-0.022l0.018,-0.022l0.018,-0.021l0.018,-0.021l0.02,-0.021l0.019,-0.02l0.021,-0.019l0.021,-0.018l0.021,-0.019l0.022,-0.017l0.023,-0.017l0.023,-0.016l0.023,-0.016l0.024,-0.015l0.024,-0.014l0.024,-0.013l0.025,-0.013l0.026,-0.012l0.025,-0.012l0.026,-0.01l0.026,-0.01l0.027,-0.01l0.027,-0.008l0.026,-0.008l0.028,-0.007l0.027,-0.006l0.027,-0.006l0.028,-0.004l0.028,-0.004l0.028,-0.003l0.028,-0.003l0.028,-0.001l0.028,-0.001l0.028,0Z"/><path d="M21.041,7.501l0.028,0.001l0.028,0.003l0.028,0.003l0.028,0.004l0.028,0.004l0.027,0.006l0.027,0.006l0.028,0.007l0.026,0.008l0.027,0.008l0.027,0.01l0.026,0.01l0.026,0.01l0.025,0.012l0.026,0.012l0.025,0.013l0.024,0.013l0.024,0.014l0.024,0.015l0.023,0.016l0.023,0.016l0.023,0.017l0.022,0.017l0.021,0.019l0.021,0.018l0.021,0.019l0.019,0.02l0.02,0.021l0.018,0.021l0.018,0.021l0.018,0.022l0.017,0.022l0.016,0.023l0.016,0.023l0.015,0.024l0.014,0.024l0.014,0.025l0.012,0.025l0.013,0.025l0.011,0.026l0.011,0.026l0.01,0.026l0.009,0.026l0.009,0.027l0.007,0.027l0.008,0.027l0.006,0.027l0.005,0.028l0.005,0.028l0.004,0.027l0.003,0.028l0.002,0.028l0.002,0.028l0.001,0.028l0,0.028l-0.001,0.028l-0.001,0.028l-0.003,0.028l-0.003,0.028l-0.004,0.028l-0.004,0.028l-0.006,0.027l-0.006,0.027l-0.007,0.028l-0.008,0.026l-0.008,0.027l-0.01,0.027l-0.01,0.026l-0.01,0.026l-0.012,0.025l-0.012,0.026l-0.013,0.025l-0.013,0.024l-0.014,0.024l-0.015,0.024l-0.016,0.023l-0.016,0.023l-0.017,0.023l-0.017,0.022l-0.019,0.021l-0.018,0.021l-0.019,0.021l-0.02,0.019l-0.021,0.02l-0.021,0.018l-0.021,0.018l-0.022,0.018l-0.022,0.017l-0.023,0.016l-0.023,0.016l-0.024,0.015l-0.024,0.014l-0.025,0.014l-0.025,0.012l-2,1l-0.025,0.013l-0.026,0.011l-0.026,0.011l-0.026,0.01l-0.026,0.009l-0.027,0.009l-0.027,0.007l-0.027,0.008l-0.027,0.006l-0.028,0.005l-0.028,0.005l-0.027,0.004l-0.028,0.003l-0.028,0.002l-0.028,0.002l-0.028,0.001l-0.028,0l-0.028,-0.001l-0.028,-0.001l-0.028,-0.003l-0.028,-0.003l-0.028,-0.004l-0.028,-0.004l-0.027,-0.006l-0.027,-0.006l-0.028,-0.007l-0.026,-0.008l-0.027,-0.008l-0.027,-0.01l-0.026,-0.01l-0.026,-0.01l-0.025,-0.012l-0.026,-0.012l-0.025,-0.013l-0.024,-0.013l-0.024,-0.014l-0.024,-0.015l-0.023,-0.016l-0.023,-0.016l-0.023,-0.017l-0.022,-0.017l-0.021,-0.019l-0.021,-0.018l-0.021,-0.019l-0.019,-0.02l-0.02,-0.021l-0.018,-0.021l-0.018,-0.021l-0.018,-0.022l-0.017,-0.022l-0.016,-0.023l-0.016,-0.023l-0.015,-0.024l-0.014,-0.024l-0.014,-0.025l-0.012,-0.025l-0.013,-0.025l-0.011,-0.026l-0.011,-0.026l-0.01,-0.026l-0.009,-0.026l-0.009,-0.027l-0.007,-0.027l-0.008,-0.027l-0.006,-0.027l-0.005,-0.028l-0.005,-0.028l-0.004,-0.027l-0.003,-0.028l-0.002,-0.028l-0.002,-0.028l-0.001,-0.028l0,-0.028l0.001,-0.028l0.001,-0.028l0.003,-0.028l0.003,-0.028l0.004,-0.028l0.004,-0.028l0.006,-0.027l0.006,-0.027l0.007,-0.028l0.008,-0.026l0.008,-0.027l0.01,-0.027l0.01,-0.026l0.01,-0.026l0.012,-0.025l0.012,-0.026l0.013,-0.025l0.013,-0.024l0.014,-0.024l0.015,-0.024l0.016,-0.023l0.016,-0.023l0.017,-0.023l0.017,-0.022l0.019,-0.021l0.018,-0.021l0.019,-0.021l0.02,-0.019l0.021,-0.02l0.021,-0.018l0.021,-0.018l0.022,-0.018l0.022,-0.017l0.023,-0.016l0.023,-0.016l0.024,-0.015l0.024,-0.014l0.025,-0.014l0.025,-0.012l2,-1l0.025,-0.013l0.026,-0.011l0.026,-0.011l0.026,-0.01l0.026,-0.009l0.027,-0.009l0.027,-0.007l0.027,-0.008l0.027,-0.006l0.028,-0.005l0.028,-0.005l0.027,-0.004l0.028,-0.003l0.028,-0.002l0.028,-0.002l0.028,-0.001l0.028,0l0.028,0.001Z"/><path d="M17,14l-2,0l-2,-2l-1,1l-3,-1c0,0 0.15,0.601 0.334,1.337c0.415,1.659 1.648,2.99 3.27,3.531l2.447,0.816c0.616,0.205 1.282,0.205 1.898,0l2.447,-0.816c1.622,-0.541 2.855,-1.872 3.27,-3.531c0.184,-0.736 0.334,-1.337 0.334,-1.337l-3,1l-1,-1l-2,2Z"/><path d="M13,12c0,0 0,2.567 0,4.343c0,1.061 0.421,2.078 1.172,2.829c0.083,0.083 0.165,0.165 0.242,0.242c0.375,0.375 0.884,0.586 1.414,0.586c0.114,0 0.23,0 0.344,0c0.53,0 1.039,-0.211 1.414,-0.586c0.077,-0.077 0.159,-0.159 0.242,-0.242c0.751,-0.751 1.172,-1.768 1.172,-2.829c0,-1.776 0,-4.343 0,-4.343l-2,1l-1,-1l-1,1l-2,-1Z" style="fill:#f4101c;"/></g></g></svg>