<?xml version="1.0" encoding="UTF-8" standalone="no"?>
<!DOCTYPE svg PUBLIC "-//W3C//DTD SVG 1.1//EN" "http://www.w3.org/Graphics/SVG/1.1/DTD/svg11.dtd">
<svg width="100%" height="100%" viewBox="0 0 32 32" version="1.1" xmlns="http://www.w3.org/2000/svg" xmlns:xlink="http://www.w3.org/1999/xlink" xml:space="preserve" xmlns:serif="http://www.serif.com/" style="fill-rule:evenodd;clip-rule:evenodd;stroke-linecap:round;stroke-miterlimit:5;">
<metadata>
<rdf:RDF xmlns:cc="http://web.resource.org/cc/"
         xmlns:rdf="http://www.w3.org/1999/02/22-rdf-syntax-ns#"
         xmlns:dc = "http://purl.org/dc/elements/1.1/"
         >

     <rdf:Description rdf:about="">
       <dc:title>Mutant Standard emoji v0.2.3</dc:title>
     </rdf:Description>

    <cc:work rdf:about="">
        <cc:license rdf:resource="http://creativecommons.org/licenses/by-nc-sa/4.0/"/>
        <cc:attributionName>Dzuk</cc:attributionName>
        <cc:attributionURL>http://mutant.tech/</cc:attributionURL>
    </cc:work>

</rdf:RDF>
</metadata>

    <rect id="broadsword" x="0" y="0" width="32" height="32" style="fill:none;"/>
    <clipPath id="_clip1">
        <rect x="0" y="0" width="32" height="32"/>
    </clipPath>
    <g clip-path="url(#_clip1)">
        <g id="outline">
            <path d="M13.188,7.009c0.508,0.064 0.961,0.294 1.312,0.668l15,17c0.207,0.247 0.22,0.3 0.289,0.429l2,4c0.718,1.559 -0.804,3.548 -2.683,2.683l-4,-2c-0.129,-0.069 -0.182,-0.082 -0.429,-0.289l-17,-15c-0.282,-0.265 -0.309,-0.33 -0.399,-0.482c-0.454,-0.769 -0.434,-1.642 0.308,-2.432l4,-4c0.434,-0.408 0.987,-0.616 1.602,-0.577Z" style="fill-rule:nonzero;"/>
            <circle cx="5" cy="5" r="5"/>
            <path d="M11,9l-5,-5l-2,2l5,5l2,-2Z" style="fill:none;stroke:#000;stroke-width:4px;"/>
            <path d="M5,17l3,-5l4,-4l5,-3l1,3l-4,2l-4,4l-2,4l-3,-1Z" style="fill:#666;stroke:#000;stroke-width:4px;stroke-miterlimit:4;"/>
        </g>
        <g id="emoji">
            <path d="M12,10l-6,-6l-2,2l6,6l2,-2Z" style="fill:#63401e;"/>
            <path d="M13,9l15,17l2,4l-4,-2l-17,-15l4,-4Z" style="fill:#a6a6a6;"/>
            <path d="M5,17l3,-5l4,-4l5,-3l1,3l-4,2l-4,4l-2,4l-3,-1Z" style="fill:#666;"/>
            <circle cx="5" cy="5" r="3" style="fill:#666;"/>
        </g>
    </g>
</svg>
