<?xml version="1.0" encoding="UTF-8" standalone="no"?>
<!DOCTYPE svg PUBLIC "-//W3C//DTD SVG 1.1//EN" "http://www.w3.org/Graphics/SVG/1.1/DTD/svg11.dtd">
<svg width="100%" height="100%" viewBox="0 0 32 32" version="1.1" xmlns="http://www.w3.org/2000/svg" xmlns:xlink="http://www.w3.org/1999/xlink" xml:space="preserve" xmlns:serif="http://www.serif.com/" style="fill-rule:evenodd;clip-rule:evenodd;stroke-linejoin:round;stroke-miterlimit:5;">
<metadata>
<rdf:RDF xmlns:cc="http://web.resource.org/cc/"
         xmlns:rdf="http://www.w3.org/1999/02/22-rdf-syntax-ns#"
         xmlns:dc = "http://purl.org/dc/elements/1.1/"
         >

     <rdf:Description rdf:about="">
       <dc:title>Mutant Standard emoji v0.2.3</dc:title>
     </rdf:Description>

    <cc:work rdf:about="">
        <cc:license rdf:resource="http://creativecommons.org/licenses/by-nc-sa/4.0/"/>
        <cc:attributionName>Dzuk</cc:attributionName>
        <cc:attributionURL>http://mutant.tech/</cc:attributionURL>
    </cc:work>

</rdf:RDF>
</metadata>

    <rect id="european_battle_axe" x="0" y="0" width="32" height="32" style="fill:none;"/>
    <g id="outline">
        <path d="M19,11l2,2l3.5,-3.5l3,-5l-5,3l-3.5,3.5Z" style="fill:#8e8e8e;stroke:#000;stroke-width:4px;"/>
        <path d="M23.828,13l-18.828,18.828l-4.828,-4.828l18.828,-18.828l4.828,4.828Z" style="fill-rule:nonzero;"/>
        <path d="M22.5,10.5c0,0 0.582,0.582 1.233,1.233c0.45,0.45 1.07,0.687 1.705,0.652c0.635,-0.035 1.225,-0.339 1.623,-0.836c1.122,-1.403 2.439,-3.049 2.439,-3.049c0,0 0.138,0.896 0.341,2.218c0.388,2.518 -0.448,5.071 -2.25,6.873c-1.802,1.802 -4.355,2.638 -6.873,2.25c-1.322,-0.203 -2.218,-0.341 -2.218,-0.341c0,0 1.646,-1.317 3.049,-2.439c0.497,-0.398 0.801,-0.988 0.836,-1.623c0.035,-0.635 -0.202,-1.255 -0.652,-1.705c-0.651,-0.651 -1.233,-1.233 -1.233,-1.233l2,-2Z" style="fill:#8e8e8e;stroke:#000;stroke-width:4px;"/>
        <path d="M21.5,9.5l-6,-4l4,6l2,-2Z" style="fill:#8e8e8e;stroke:#000;stroke-width:4px;stroke-linecap:round;stroke-miterlimit:7;"/>
    </g>
    <g id="emoji">
        <path d="M21.5,9.5l-6,-4l4,6l2,-2Z" style="fill:#999;"/>
        <path d="M22.5,10.5c0,0 0.582,0.582 1.233,1.233c0.45,0.45 1.07,0.687 1.705,0.652c0.635,-0.035 1.225,-0.339 1.623,-0.836c1.122,-1.403 2.439,-3.049 2.439,-3.049c0,0 0.138,0.896 0.341,2.218c0.388,2.518 -0.448,5.071 -2.25,6.873c-1.802,1.802 -4.355,2.638 -6.873,2.25c-1.322,-0.203 -2.218,-0.341 -2.218,-0.341c0,0 1.646,-1.317 3.049,-2.439c0.497,-0.398 0.801,-0.988 0.836,-1.623c0.035,-0.635 -0.202,-1.255 -0.652,-1.705c-0.651,-0.651 -1.233,-1.233 -1.233,-1.233l2,-2Z" style="fill:#999;"/>
        <path d="M17,13l2,0l0,2l-14,14l-2,-2l14,-14Z" style="fill:#63401e;"/>
        <path d="M17,13l2,2l5.5,-5.5l-0.5,-1.5l-1.5,-0.5l-5.5,5.5Z" style="fill:#666;"/>
        <path d="M22.5,7.5l2,2l3,-5l-5,3Z" style="fill:#999;"/>
    </g>
</svg>
