<?xml version="1.0" encoding="UTF-8" standalone="no"?>
<!DOCTYPE svg PUBLIC "-//W3C//DTD SVG 1.1//EN" "http://www.w3.org/Graphics/SVG/1.1/DTD/svg11.dtd">
<svg width="100%" height="100%" viewBox="0 0 32 32" version="1.1" xmlns="http://www.w3.org/2000/svg" xmlns:xlink="http://www.w3.org/1999/xlink" xml:space="preserve" xmlns:serif="http://www.serif.com/" style="fill-rule:evenodd;clip-rule:evenodd;stroke-linecap:round;stroke-linejoin:round;stroke-miterlimit:3;">
<metadata>
<rdf:RDF xmlns:cc="http://web.resource.org/cc/"
         xmlns:rdf="http://www.w3.org/1999/02/22-rdf-syntax-ns#"
         xmlns:dc = "http://purl.org/dc/elements/1.1/"
         >

     <rdf:Description rdf:about="">
       <dc:title>Mutant Standard emoji v0.2.3</dc:title>
     </rdf:Description>

    <cc:work rdf:about="">
        <cc:license rdf:resource="http://creativecommons.org/licenses/by-nc-sa/4.0/"/>
        <cc:attributionName>Dzuk</cc:attributionName>
        <cc:attributionURL>http://mutant.tech/</cc:attributionURL>
    </cc:work>

</rdf:RDF>
</metadata>

    <rect id="katana" x="0" y="0" width="32" height="32" style="fill:none;"/>
    <clipPath id="_clip1">
        <rect x="0" y="0" width="32" height="32"/>
    </clipPath>
    <g clip-path="url(#_clip1)">
        <g id="outline">
            <path d="M11,9l19,19c0,0 -1.583,0 -2.757,0c-0.796,0 -1.559,-0.316 -2.122,-0.879c-3.481,-3.481 -16.121,-16.121 -16.121,-16.121l2,-2Z" style="fill:none;stroke:#000;stroke-width:4px;"/>
            <path d="M10.5,5.672l1.5,-1.5l3.828,3.828l-7.828,7.828l-3.828,-3.828l1.5,-1.5l-6.5,-6.5l4.828,-4.828l6.5,6.5Z"/>
        </g>
        <g id="emoji">
            <path d="M11,9l19,19c0,0 -1.583,0 -2.757,0c-0.796,0 -1.559,-0.316 -2.122,-0.879c-3.481,-3.481 -16.121,-16.121 -16.121,-16.121l2,-2Z" style="fill:#a6a6a6;"/>
            <path d="M9.354,7.354l1.146,1.146l1.5,-1.5l1,1l-5,5l-1,-1l1.5,-1.5l-1.146,-1.146l0.002,-0.286l1.744,-1.711l0.254,-0.003Zm-0.708,-0.708l-0.046,0.26l-1.679,1.703l-0.275,0.037l-1.292,-1.292l0.032,-0.259l1.727,-1.701l0.241,-0.04l1.292,1.292Zm-2,-2l0.067,0.267l-1.77,1.725l-0.297,0.008l-1.292,-1.292l-0.067,-0.29l1.842,-1.742l0.225,0.032l1.292,1.292Zm-2,-2l0.045,0.354l-1.81,1.66l-0.235,-0.014l-0.646,-0.646l2,-2l0.646,0.646Z" style="fill:#404040;"/>
            <path d="M9.354,7.354l-2,2l-0.708,-0.708l2,-2l0.708,0.708Zm-2,-2l-2,2l-0.708,-0.708l2,-2l0.708,0.708Zm-2,-2l-2,2l-0.708,-0.708l2,-2l0.708,0.708Z" style="fill:#808080;"/>
        </g>
    </g>
</svg>
