<?xml version="1.0" encoding="UTF-8" standalone="no"?>
<!DOCTYPE svg PUBLIC "-//W3C//DTD SVG 1.1//EN" "http://www.w3.org/Graphics/SVG/1.1/DTD/svg11.dtd">
<svg width="100%" height="100%" viewBox="0 0 32 32" version="1.1" xmlns="http://www.w3.org/2000/svg" xmlns:xlink="http://www.w3.org/1999/xlink" xml:space="preserve" xmlns:serif="http://www.serif.com/" style="fill-rule:evenodd;clip-rule:evenodd;stroke-linecap:round;stroke-miterlimit:1.5;">
<metadata>
<rdf:RDF xmlns:cc="http://web.resource.org/cc/"
         xmlns:rdf="http://www.w3.org/1999/02/22-rdf-syntax-ns#"
         xmlns:dc = "http://purl.org/dc/elements/1.1/"
         >

     <rdf:Description rdf:about="">
       <dc:title>Mutant Standard emoji v0.2.3</dc:title>
     </rdf:Description>

    <cc:work rdf:about="">
        <cc:license rdf:resource="http://creativecommons.org/licenses/by-nc-sa/4.0/"/>
        <cc:attributionName>Dzuk</cc:attributionName>
        <cc:attributionURL>http://mutant.tech/</cc:attributionURL>
    </cc:work>

</rdf:RDF>
</metadata>

    <rect id="rapier" x="0" y="0" width="32" height="32" style="fill:none;"/>
    <clipPath id="_clip1">
        <rect x="0" y="0" width="32" height="32"/>
    </clipPath>
    <g clip-path="url(#_clip1)">
        <g id="outline">
            <path d="M11,9l19,19l0,2l-2,0l-19,-19l2,-2Z" style="fill:none;stroke:#000;stroke-width:4px;"/>
            <path d="M3,3c0.552,-0.552 1.448,-0.552 2,0c1.934,1.934 6,6 6,6l-2,2c0,0 -4.066,-4.066 -6,-6c-0.552,-0.552 -0.552,-1.448 0,-2c0,0 0,0 0,0Z" style="fill:#594430;stroke:#000;stroke-width:4px;"/>
            <path d="M6,4c0,0 0.163,-0.163 0.382,-0.382c0.618,-0.618 1.618,-0.618 2.236,0c0.486,0.486 1.048,1.048 1.503,1.503c0.563,0.563 0.879,1.326 0.879,2.122c0,0.825 0,1.757 0,1.757" style="fill:none;stroke:#000;stroke-width:6px;stroke-linecap:butt;"/>
            <path d="M5,14l9,-9l1,1l-9,9l-1,-1Z" style="fill:#666;stroke:#000;stroke-width:4px;stroke-linejoin:round;"/>
            <circle cx="14.5" cy="5.5" r="1.5" style="fill:#a5a5a5;stroke:#000;stroke-width:4px;"/>
            <circle cx="5.5" cy="14.5" r="1.5" style="fill:#a5a5a5;stroke:#000;stroke-width:4px;"/>
            <path d="M10.501,8.499c0.828,-0.828 2.17,-0.828 2.998,0c0.001,0.001 0.001,0.001 0.002,0.002c0.828,0.828 0.828,2.17 0,2.998c-0.633,0.633 -1.369,1.369 -2.002,2.002c-0.828,0.828 -2.17,0.828 -2.998,0c-0.001,-0.001 -0.001,-0.001 -0.002,-0.002c-0.828,-0.828 -0.828,-2.17 0,-2.998c0.633,-0.633 1.369,-1.369 2.002,-2.002Z" style="fill:none;stroke:#000;stroke-width:4px;stroke-linejoin:round;stroke-miterlimit:7;"/>
        </g>
        <g id="emoji">
            <path d="M6,4c0,0 0.163,-0.163 0.382,-0.382c0.618,-0.618 1.618,-0.618 2.236,0c0.341,0.341 0.719,0.719 1.071,1.071c0.803,0.803 1.084,1.992 0.725,3.07c-0.218,0.654 -0.414,1.241 -0.414,1.241" style="fill:none;stroke:#808080;stroke-width:2px;stroke-linecap:square;"/>
            <path d="M11,9l19,19l0,2l-2,0l-19,-19l2,-2Z" style="fill:#a6a6a6;"/>
            <path d="M3,3c0.552,-0.552 1.448,-0.552 2,0c1.934,1.934 6,6 6,6l-2,2c0,0 -4.066,-4.066 -6,-6c-0.552,-0.552 -0.552,-1.448 0,-2c0,0 0,0 0,0Z" style="fill:#a5a5a5;"/>
            <path d="M5,14l9,-9l1,1l-9,9l-1,-1Z" style="fill:#666;"/>
            <circle cx="14.5" cy="5.5" r="1.5" style="fill:#666;"/>
            <circle cx="5.5" cy="14.5" r="1.5" style="fill:#666;"/>
            <path d="M10.501,8.499c0.828,-0.828 2.17,-0.828 2.998,0c0.001,0.001 0.001,0.001 0.002,0.002c0.828,0.828 0.828,2.17 0,2.998c-0.633,0.633 -1.369,1.369 -2.002,2.002c-0.828,0.828 -2.17,0.828 -2.998,0c-0.001,-0.001 -0.001,-0.001 -0.002,-0.002c-0.828,-0.828 -0.828,-2.17 0,-2.998c0.633,-0.633 1.369,-1.369 2.002,-2.002Z" style="fill:#666;"/>
        </g>
    </g>
</svg>
