<?xml version="1.0" encoding="UTF-8" standalone="no"?>
<!DOCTYPE svg PUBLIC "-//W3C//DTD SVG 1.1//EN" "http://www.w3.org/Graphics/SVG/1.1/DTD/svg11.dtd">
<svg width="100%" height="100%" viewBox="0 0 32 32" version="1.1" xmlns="http://www.w3.org/2000/svg" xmlns:xlink="http://www.w3.org/1999/xlink" xml:space="preserve" xmlns:serif="http://www.serif.com/" style="fill-rule:evenodd;clip-rule:evenodd;stroke-linecap:round;stroke-linejoin:round;stroke-miterlimit:1.5;">
<metadata>
<rdf:RDF xmlns:cc="http://web.resource.org/cc/"
         xmlns:rdf="http://www.w3.org/1999/02/22-rdf-syntax-ns#"
         xmlns:dc = "http://purl.org/dc/elements/1.1/"
         >

     <rdf:Description rdf:about="">
       <dc:title>Mutant Standard emoji v0.2.3</dc:title>
     </rdf:Description>

    <cc:work rdf:about="">
        <cc:license rdf:resource="http://creativecommons.org/licenses/by-nc-sa/4.0/"/>
        <cc:attributionName>Dzuk</cc:attributionName>
        <cc:attributionURL>http://mutant.tech/</cc:attributionURL>
    </cc:work>

</rdf:RDF>
</metadata>

    <rect id="sabre" x="0" y="0" width="32" height="32" style="fill:none;"/>
    <g id="outline">
        <path d="M12.03,7.787c0,0 1.244,-0.76 2.348,-0.787l3.622,0l0,6l-2.757,0l-2.421,2.418c-3.321,3.08 -9.37,2.154 -11.516,-2.471c-1.192,-2.569 -0.634,-5.809 1.388,-7.883l3.306,-3.307c2.01,2.01 4.02,4.02 6.03,6.03Z" style="fill-rule:nonzero;"/>
        <path d="M12,11c2.962,3.023 6.912,7.212 11.683,10.504c1.93,1.332 4.653,2.624 6.317,3.496c-1.779,-0.028 -3.515,0.089 -5.249,-0.322c-2.423,-0.573 -5.468,-2.588 -7.618,-4.643c-2.112,-2.019 -7.133,-7.035 -7.133,-7.035l2,-2Z" style="fill:#a6a6a6;stroke:#000;stroke-width:4px;"/>
    </g>
    <g id="emoji">
        <path d="M12,11c2.962,3.023 6.912,7.212 11.683,10.504c1.93,1.332 4.653,2.624 6.317,3.496c-1.779,-0.028 -3.515,0.089 -5.249,-0.322c-2.423,-0.573 -5.468,-2.588 -7.618,-4.643c-2.112,-2.019 -7.133,-7.035 -7.133,-7.035l2,-2Z" style="fill:#a6a6a6;"/>
        <path d="M12,10.586l1.072,-1.069c0.374,-0.322 0.837,-0.505 1.33,-0.517l1.598,0l0,2c-0.634,0 -1.577,-0.009 -1.595,0.009c-1.318,1.318 -1.996,2.871 -4.411,3.921c-4.042,1.756 -10.231,-3.995 -5.877,-8.461l1.883,-1.883c2,2 4,4 6,6Zm-6.965,-2.046c-1.331,2.457 1.887,5.882 4.483,4.392l-4.45,-4.45c-0.011,0.02 -0.022,0.039 -0.033,0.058Z" style="fill:#7c5636;fill-rule:nonzero;"/>
    </g>
</svg>
