<?xml version="1.0" encoding="UTF-8" standalone="no"?>
<!DOCTYPE svg PUBLIC "-//W3C//DTD SVG 1.1//EN" "http://www.w3.org/Graphics/SVG/1.1/DTD/svg11.dtd">
<svg width="100%" height="100%" viewBox="0 0 32 32" version="1.1" xmlns="http://www.w3.org/2000/svg" xmlns:xlink="http://www.w3.org/1999/xlink" xml:space="preserve" xmlns:serif="http://www.serif.com/" style="fill-rule:evenodd;clip-rule:evenodd;stroke-linejoin:round;stroke-miterlimit:1.5;">
<metadata>
<rdf:RDF xmlns:cc="http://web.resource.org/cc/"
         xmlns:rdf="http://www.w3.org/1999/02/22-rdf-syntax-ns#"
         xmlns:dc = "http://purl.org/dc/elements/1.1/"
         >

     <rdf:Description rdf:about="">
       <dc:title>Mutant Standard emoji v0.2.3</dc:title>
     </rdf:Description>

    <cc:work rdf:about="">
        <cc:license rdf:resource="http://creativecommons.org/licenses/by-nc-sa/4.0/"/>
        <cc:attributionName>Dzuk</cc:attributionName>
        <cc:attributionURL>http://mutant.tech/</cc:attributionURL>
    </cc:work>

</rdf:RDF>
</metadata>

    <rect id="shuriken" x="0" y="0" width="32" height="32" style="fill:none;"/>
    <clipPath id="_clip1">
        <rect x="0" y="0" width="32" height="32"/>
    </clipPath>
    <g clip-path="url(#_clip1)">
        <g id="outline">
            <path d="M13,10.804l0,-0.248c0,-2.917 -1.159,-5.715 -3.222,-7.778c-0.458,-0.458 -0.778,-0.778 -0.778,-0.778c0,0 1.283,0 2.93,0c4.057,0 7.496,2.983 8.07,6.999c0,0.001 0,0.001 0,0.001c0,0 -1.225,-0.816 -2.109,-1.406c-0.54,-0.36 -1.242,-0.36 -1.782,0c-0.001,0 -0.001,0.001 -0.002,0.002c-0.47,0.313 -0.752,0.84 -0.752,1.404c0,0.368 0.12,0.721 0.334,1.008c0.103,-0.005 0.207,-0.008 0.311,-0.008c2.219,0 4.158,1.207 5.196,3l0.248,0c2.917,0 5.715,-1.159 7.778,-3.222c0.458,-0.458 0.778,-0.778 0.778,-0.778c0,0 0,1.283 0,2.93c0,4.057 -2.983,7.496 -6.999,8.07c-0.001,0 -0.001,0 -0.001,0c0,0 0.816,-1.225 1.406,-2.109c0.36,-0.54 0.36,-1.242 0,-1.782c0,-0.001 -0.001,-0.001 -0.002,-0.002c-0.313,-0.47 -0.84,-0.752 -1.404,-0.752c-0.368,0 -0.721,0.12 -1.008,0.334c0.005,0.103 0.008,0.207 0.008,0.311c0,2.219 -1.207,4.158 -3,5.196l0,0.248c0,2.917 1.159,5.715 3.222,7.778l0.778,0.778l-2.93,0c-4.057,0 -7.496,-2.983 -8.07,-6.999c0,-0.001 0,-0.001 0,-0.001c0,0 1.225,0.816 2.109,1.406c0.54,0.36 1.242,0.36 1.782,0c0.001,0 0.001,-0.001 0.002,-0.002c0.47,-0.313 0.752,-0.84 0.752,-1.404c0,-0.368 -0.12,-0.721 -0.334,-1.008c-0.103,0.005 -0.207,0.008 -0.311,0.008c-2.219,0 -4.158,-1.207 -5.196,-3l-0.248,0c-2.917,0 -5.715,1.159 -7.778,3.222c-0.458,0.458 -0.778,0.778 -0.778,0.778c0,0 0,-1.283 0,-2.93c0,-4.057 2.983,-7.496 6.999,-8.07c0.001,0 0.001,0 0.001,0c0,0 -0.816,1.225 -1.406,2.109c-0.36,0.54 -0.36,1.242 0,1.782c0,0.001 0.001,0.001 0.002,0.002c0.313,0.47 0.84,0.752 1.404,0.752c0.368,0 0.721,-0.12 1.008,-0.334c-0.005,-0.103 -0.008,-0.207 -0.008,-0.311c0,-2.219 1.207,-4.158 3,-5.196Z" style="fill:none;stroke:#000;stroke-width:4px;"/>
            <circle cx="16" cy="16" r="4"/>
        </g>
        <g id="emoji">
            <path d="M10.556,19c-2.917,0 -5.715,1.159 -7.778,3.222c-0.458,0.458 -0.778,0.778 -0.778,0.778c0,0 0,-1.283 0,-2.93c0,-4.057 2.983,-7.496 6.999,-8.07c0.001,0 0.001,0 0.001,0c0,0 -0.816,1.225 -1.406,2.109c-0.36,0.54 -0.36,1.242 0,1.782c0,0.001 0.001,0.001 0.002,0.002c0.313,0.47 0.84,0.752 1.404,0.752c0.368,0 0.721,-0.12 1.008,-0.334c-0.005,-0.103 -0.008,-0.207 -0.008,-0.311c0,-2.219 1.207,-4.158 3,-5.196l0,-0.248c0,-2.917 -1.159,-5.715 -3.222,-7.778c-0.458,-0.458 -0.778,-0.778 -0.778,-0.778c0,0 1.283,0 2.93,0c4.057,0 7.496,2.983 8.07,6.999c0,0.001 0,0.001 0,0.001c0,0 -1.225,-0.816 -2.109,-1.406c-0.54,-0.36 -1.242,-0.36 -1.782,0c-0.001,0 -0.001,0.001 -0.002,0.002c-0.47,0.313 -0.752,0.84 -0.752,1.404c0,0.368 0.12,0.721 0.334,1.008c0.103,-0.005 0.207,-0.008 0.311,-0.008c2.219,0 4.158,1.207 5.196,3l0.248,0c2.917,0 5.715,-1.159 7.778,-3.222c0.458,-0.458 0.778,-0.778 0.778,-0.778c0,0 0,1.283 0,2.93c0,4.057 -2.983,7.496 -6.999,8.07c-0.001,0 -0.001,0 -0.001,0c0,0 0.816,-1.225 1.406,-2.109c0.36,-0.54 0.36,-1.242 0,-1.782c0,-0.001 -0.001,-0.001 -0.002,-0.002c-0.313,-0.47 -0.84,-0.752 -1.404,-0.752c-0.368,0 -0.721,0.12 -1.008,0.334c0.005,0.103 0.008,0.207 0.008,0.311c0,2.219 -1.207,4.158 -3,5.196l0,0.248c0,2.917 1.159,5.715 3.222,7.778l0.778,0.778l-2.93,0c-4.057,0 -7.496,-2.983 -8.07,-6.999c0,-0.001 0,-0.001 0,-0.001c0,0 1.225,0.816 2.109,1.406c0.54,0.36 1.242,0.36 1.782,0c0.001,0 0.001,-0.001 0.002,-0.002c0.47,-0.313 0.752,-0.84 0.752,-1.404c0,-0.368 -0.12,-0.721 -0.334,-1.008c-0.103,0.005 -0.207,0.008 -0.311,0.008c-2.219,0 -4.158,-1.207 -5.196,-3l-0.248,0Zm5.444,-5c1.104,0 2,0.896 2,2c0,1.104 -0.896,2 -2,2c-1.104,0 -2,-0.896 -2,-2c0,-1.104 0.896,-2 2,-2Z" style="fill:#919191;"/>
        </g>
    </g>
</svg>
