<?xml version="1.0" encoding="UTF-8" standalone="no"?>
<!DOCTYPE svg PUBLIC "-//W3C//DTD SVG 1.1//EN" "http://www.w3.org/Graphics/SVG/1.1/DTD/svg11.dtd">
<svg width="100%" height="100%" viewBox="0 0 32 32" version="1.1" xmlns="http://www.w3.org/2000/svg" xmlns:xlink="http://www.w3.org/1999/xlink" xml:space="preserve" xmlns:serif="http://www.serif.com/" style="fill-rule:evenodd;clip-rule:evenodd;stroke-linecap:round;stroke-linejoin:round;stroke-miterlimit:5;">
<metadata>
<rdf:RDF xmlns:cc="http://web.resource.org/cc/"
         xmlns:rdf="http://www.w3.org/1999/02/22-rdf-syntax-ns#"
         xmlns:dc = "http://purl.org/dc/elements/1.1/"
         >

     <rdf:Description rdf:about="">
       <dc:title>Mutant Standard emoji v0.2.3</dc:title>
     </rdf:Description>

    <cc:work rdf:about="">
        <cc:license rdf:resource="http://creativecommons.org/licenses/by-nc-sa/4.0/"/>
        <cc:attributionName>Dzuk</cc:attributionName>
        <cc:attributionURL>http://mutant.tech/</cc:attributionURL>
    </cc:work>

</rdf:RDF>
</metadata>

    <rect id="zweihander" x="0" y="0" width="32" height="32" style="fill:none;"/>
    <clipPath id="_clip1">
        <rect x="0" y="0" width="32" height="32"/>
    </clipPath>
    <g clip-path="url(#_clip1)">
        <g id="outline">
            <path d="M12,10l17,17l1,3l-3,-1l-17,-17l2,-2Z" style="fill:none;stroke:#000;stroke-width:4px;"/>
            <path d="M14,14c0,0 0.409,-0.273 0.925,-0.617c1.309,-0.873 2.948,-1.092 4.441,-0.594c0.37,0.123 0.634,0.211 0.634,0.211c0,0 -0.874,0.291 -1.679,0.56c-0.869,0.289 -1.658,0.777 -2.306,1.425c-0.331,0.331 -0.699,0.699 -1.03,1.03c-0.648,0.648 -1.136,1.437 -1.425,2.306c-0.269,0.805 -0.56,1.679 -0.56,1.679c0,0 -0.088,-0.264 -0.211,-0.634c-0.498,-1.493 -0.279,-3.132 0.594,-4.441c0.344,-0.516 0.617,-0.925 0.617,-0.925Z" style="fill:#a6a6a6;stroke:#000;stroke-width:4px;stroke-miterlimit:3;"/>
            <path d="M4.159,8.987c-2.325,-0.174 -4.159,-2.118 -4.159,-4.487c0,-2.484 2.016,-4.5 4.5,-4.5c2.369,0 4.313,1.834 4.487,4.159l1.799,1.799c0.699,-0.692 1.397,-1.384 2.093,-2.079c0.571,-0.552 1.329,-0.865 2.121,-0.879l4,0l0,6l-2.757,0l-7.243,7.243l0,2.757l-6,0l0.002,-4.107c0.039,-0.721 0.322,-1.402 0.802,-1.937c0.708,-0.734 1.422,-1.461 2.139,-2.184l-1.784,-1.785Z"/>
        </g>
        <g id="emoji">
            <path d="M11,9l-5,-5l-2,2l5,5l2,-2Z" style="fill:#63401e;"/>
            <path d="M12,10l17,17l1,3l-3,-1l-17,-17l0,-2l2,0Z" style="fill:#a6a6a6;"/>
            <path d="M14,14c0,0 0.409,-0.273 0.925,-0.617c1.309,-0.873 2.948,-1.092 4.441,-0.594c0.37,0.123 0.634,0.211 0.634,0.211c0,0 -0.874,0.291 -1.679,0.56c-0.869,0.289 -1.658,0.777 -2.306,1.425c-0.331,0.331 -0.699,0.699 -1.03,1.03c-0.648,0.648 -1.136,1.437 -1.425,2.306c-0.269,0.805 -0.56,1.679 -0.56,1.679c0,0 -0.088,-0.264 -0.211,-0.634c-0.498,-1.493 -0.279,-3.132 0.594,-4.441c0.344,-0.516 0.617,-0.925 0.617,-0.925Z" style="fill:#a6a6a6;"/>
            <circle cx="4.5" cy="4.5" r="2.5" style="fill:#666;"/>
            <path d="M17,7l-1.586,0l-8.414,8.414l0,1.586l-2,0l0.002,-2.06c0.02,-0.223 0.105,-0.43 0.249,-0.603c2.922,-3.104 6.028,-6.03 9.042,-9.044c0.194,-0.183 0.44,-0.285 0.707,-0.293l2,0c0,0.667 0,1.333 0,2Z" style="fill:#666;fill-rule:nonzero;"/>
        </g>
    </g>
</svg>
